<svg width="54" height="33" viewBox="0 0 54 33" fill="none" xmlns="http://www.w3.org/2000/svg">
<path d="M11.944 24.7117C15.8396 24.7117 17.7397 22.8181 18.0969 20.8096C18.3636 17.9525 15.6634 16.6007 12.9203 16.059L8.98181 15.2105C2.51933 13.7772 1.54306 10.5702 1.54306 8.2548C1.54306 3.77267 6.23395 0.762213 11.4106 0.762213C16.992 0.757419 21.5258 3.77267 21.5258 8.5616H17.4111C17.4111 5.89629 14.6871 4.19452 11.3677 4.19452C8.4008 4.19452 5.65771 5.77645 5.65771 8.21166C5.65771 9.37174 6.14346 11.1071 9.99618 11.922L13.9775 12.7705C19.6875 14.0456 22.7402 16.8643 22.1211 21.1164C21.5877 24.9418 17.9159 28.0721 11.944 28.0721C5.70533 28.0721 1.27637 24.17 1.27637 19.9994H5.39102C5.43864 22.3148 8.09602 24.7117 11.944 24.7117Z" fill="#2BA3A3"/>
<path d="M34.6365 6.10724V8.70064H27.574V27.9858H24.3975V8.70064H17.335V6.10724H34.6365Z" fill="#2BA3A3"/>
<path d="M52.6572 23.4269C50.3093 26.2073 46.7519 27.9426 42.6753 27.9139C35.2461 27.8563 29.4218 21.7539 29.4789 14.2757C29.5361 6.75915 35.4509 0.747816 42.8801 0.805341C46.9186 0.838897 50.4141 2.58861 52.7143 5.36897L50.0284 7.57408C48.252 5.60386 45.747 4.28079 42.8515 4.25682C37.3653 4.21368 33.0602 8.7054 33.0173 14.3045C32.9745 19.9035 37.2082 24.424 42.6944 24.4672C45.628 24.4911 48.2282 23.2064 49.9998 21.1499L52.6572 23.4269Z" fill="#2BA3A3"/>
<path d="M3.56744 29.8745C3.74841 29.9272 3.89128 30.0135 4.00081 30.1334C4.11511 30.2532 4.17225 30.3922 4.17225 30.5408C4.17225 30.7374 4.08177 30.9052 3.89604 31.0394C3.71031 31.1784 3.49124 31.2503 3.23408 31.2503C2.97691 31.2503 2.75784 31.1832 2.57688 31.0442C2.39591 30.91 2.30066 30.7422 2.2959 30.5504H2.47687C2.48163 30.7038 2.55783 30.8333 2.70546 30.9435C2.85309 31.0538 3.0293 31.1065 3.22931 31.1065C3.43886 31.1065 3.61506 31.049 3.75793 30.9387C3.90556 30.8285 3.98176 30.6942 3.98176 30.5408C3.98176 30.3826 3.91033 30.2484 3.76269 30.1382C3.61506 30.0279 3.43886 29.9704 3.22931 29.9704C3.10073 29.9704 2.98644 29.9368 2.89119 29.8745C2.8769 29.8649 2.86738 29.8601 2.86261 29.8553C2.76261 29.7786 2.71022 29.6875 2.71022 29.5773C2.71022 29.467 2.76261 29.376 2.86261 29.2993C2.96262 29.2226 3.08168 29.1842 3.22455 29.1842C3.36742 29.1842 3.49124 29.2226 3.59601 29.2993C3.69602 29.376 3.74841 29.4718 3.74841 29.5773H3.56268C3.56268 29.5054 3.52934 29.4479 3.46267 29.3999C3.396 29.352 3.3198 29.328 3.22931 29.328C3.13883 29.328 3.06263 29.352 2.99596 29.3999C2.92929 29.4479 2.90071 29.5102 2.90071 29.5773C2.90071 29.6444 2.93405 29.7019 2.99596 29.7547C3.05787 29.8026 3.13407 29.8266 3.22931 29.8266C3.34361 29.8266 3.45791 29.8409 3.56744 29.8745Z" fill="#481B0B"/>
<path d="M5.82914 29.3664H4.94335V31.2168H4.75286V29.3664H3.8623V29.2178H5.82438V29.3664H5.82914Z" fill="#481B0B"/>
<path d="M8.40569 30.1957C8.40093 30.4785 8.28187 30.7182 8.05328 30.9195C7.81993 31.1208 7.54371 31.2215 7.21988 31.2215C6.89128 31.2215 6.61506 31.1208 6.38171 30.9195C6.14835 30.7182 6.03406 30.4785 6.0293 30.1957V29.2177H6.21503V30.1957C6.21979 30.4353 6.3198 30.6415 6.51505 30.8093C6.71031 30.977 6.94366 31.0633 7.21988 31.0633C7.49609 31.0633 7.72944 30.977 7.92946 30.8093C8.12472 30.6415 8.22472 30.4353 8.22949 30.1957V29.213H8.41522V30.1957H8.40569Z" fill="#481B0B"/>
<path d="M10.6677 29.4862C10.9106 29.6588 11.0344 29.9033 11.0344 30.2149C11.0344 30.5265 10.9106 30.7709 10.6677 30.9435C10.4962 31.0682 10.2772 31.1496 10.0057 31.188C9.86285 31.2072 9.7295 31.2168 9.61044 31.212H8.80084H8.61035V29.2178H8.95324H9.60568C9.77712 29.2178 9.91523 29.2274 10.02 29.2417C10.2772 29.2801 10.4915 29.3616 10.6677 29.4862ZM10.5343 30.8333C10.7344 30.6895 10.8344 30.4833 10.8344 30.2149C10.8344 29.9464 10.7344 29.7403 10.5343 29.5965C10.3867 29.491 10.1867 29.4191 9.9438 29.3856C9.81998 29.3664 9.71045 29.3616 9.6152 29.3664H9.61044H8.79608V31.0634H9.6152C10.0152 31.0634 10.32 30.9867 10.5343 30.8333Z" fill="#481B0B"/>
<path d="M11.4249 31.2119H11.2344V29.213H11.4249V31.2119Z" fill="#481B0B"/>
<path d="M12.9679 29.1842C13.3393 29.1842 13.6536 29.2849 13.9156 29.4862C14.1775 29.6875 14.3061 29.9272 14.3061 30.2101C14.3061 30.4929 14.1727 30.7374 13.9108 30.9339C13.6489 31.1353 13.3346 31.2359 12.9631 31.2359C12.5916 31.2359 12.2773 31.1353 12.0154 30.9339C11.7535 30.7326 11.6201 30.4929 11.6201 30.2101C11.6201 29.9272 11.7535 29.6828 12.0154 29.4862C12.2821 29.2849 12.5964 29.1842 12.9679 29.1842ZM12.9631 31.0921C13.2822 31.0921 13.5536 31.0058 13.7774 30.8332C14.0013 30.6607 14.1156 30.4545 14.1156 30.2101C14.1156 29.9656 14.0013 29.7595 13.7774 29.5869C13.5536 29.4143 13.2822 29.328 12.9631 29.328C12.644 29.328 12.3726 29.4143 12.1487 29.5869C11.9249 29.7595 11.8106 29.9656 11.8106 30.2101C11.8106 30.4545 11.9249 30.6607 12.1487 30.8332C12.3726 31.0058 12.644 31.0921 12.9631 31.0921Z" fill="#481B0B"/>
<path d="M15.7784 29.8745C15.9593 29.9272 16.1022 30.0135 16.2117 30.1334C16.326 30.2532 16.3832 30.3922 16.3832 30.5408C16.3832 30.7374 16.2927 30.9052 16.107 31.0394C15.9212 31.1784 15.7022 31.2503 15.445 31.2503C15.1878 31.2503 14.9688 31.1832 14.7878 31.0442C14.6068 30.91 14.5116 30.7422 14.5068 30.5504H14.6926C14.6973 30.7038 14.7735 30.8333 14.9212 30.9435C15.0688 31.0538 15.245 31.1065 15.445 31.1065C15.6546 31.1065 15.8308 31.049 15.9736 30.9387C16.1213 30.8285 16.1975 30.6942 16.1975 30.5408C16.1975 30.3826 16.126 30.2484 15.9784 30.1382C15.8308 30.0279 15.6546 29.9704 15.445 29.9704C15.3164 29.9704 15.2021 29.9368 15.1069 29.8745C15.0926 29.8649 15.0831 29.8601 15.0783 29.8553C14.9783 29.7786 14.9259 29.6875 14.9259 29.5773C14.9259 29.467 14.9783 29.376 15.0783 29.2993C15.1783 29.2226 15.2974 29.1842 15.4403 29.1842C15.5831 29.1842 15.7069 29.2226 15.8117 29.2993C15.9117 29.376 15.9641 29.4718 15.9641 29.5773H15.7784C15.7784 29.5054 15.745 29.4479 15.6784 29.3999C15.6117 29.352 15.5355 29.328 15.445 29.328C15.3545 29.328 15.2783 29.352 15.2117 29.3999C15.145 29.4479 15.1164 29.5102 15.1164 29.5773C15.1164 29.6444 15.1497 29.7019 15.2117 29.7547C15.2736 29.8026 15.3498 29.8266 15.445 29.8266C15.5593 29.8266 15.6688 29.8409 15.7784 29.8745Z" fill="#481B0B"/>
<path d="M19.4738 29.3664H18.588V31.2168H18.3975V29.3664H17.5117V29.2178H19.4738V29.3664Z" fill="#481B0B"/>
<path d="M21.4835 29.9416C21.4835 30.1957 21.3645 30.3826 21.1311 30.5121C20.9835 30.5936 20.8025 30.6415 20.593 30.6607L21.3406 31.2168H21.0597L20.3167 30.6655L20.1262 30.5217H20.5025C20.6406 30.5217 20.7739 30.4977 20.9073 30.445C21.1597 30.3491 21.2883 30.1813 21.2883 29.9416C21.2883 29.7019 21.1597 29.5342 20.9073 29.4383C20.7739 29.3903 20.6406 29.3616 20.5025 29.3616H19.8643V30.5169V30.6607V31.212H19.6738V29.2178H19.8643H20.5025C20.6644 29.2178 20.8311 29.2465 20.9978 29.3089C21.3216 29.4335 21.4835 29.6444 21.4835 29.9416Z" fill="#481B0B"/>
<path d="M24.4313 31.2167H24.198L23.055 29.5629L21.9216 31.2167H21.6787L22.9217 29.3999L23.055 29.213L23.1788 29.3951L24.4313 31.2167Z" fill="#481B0B"/>
<path d="M26.655 29.4862C26.8979 29.6588 27.0217 29.9033 27.0217 30.2149C27.0217 30.5265 26.8979 30.7709 26.655 30.9435C26.4835 31.0682 26.2645 31.1496 25.993 31.188C25.8501 31.2072 25.7168 31.2168 25.5977 31.212H24.7881H24.5977V29.2178H24.9405H25.593C25.7644 29.2178 25.9025 29.2274 26.0073 29.2417C26.2692 29.2801 26.4835 29.3616 26.655 29.4862ZM26.5216 30.8333C26.7217 30.6895 26.8217 30.4833 26.8217 30.2149C26.8217 29.9464 26.7217 29.7403 26.5216 29.5965C26.374 29.491 26.174 29.4191 25.9311 29.3856C25.8073 29.3664 25.6978 29.3616 25.6025 29.3664H25.5977H24.7834V31.0634H25.6025C26.0025 31.0634 26.3121 30.9867 26.5216 30.8333Z" fill="#481B0B"/>
<path d="M29.2171 29.3616H27.4217V31.0633H29.2171V31.2119H27.2217V29.213H29.2171V29.3616ZM29.2076 30.6463H27.7217V30.4977H29.2076V30.6463Z" fill="#481B0B"/>
<path d="M32.9848 30.4977C32.9038 30.7134 32.7467 30.8908 32.5085 31.0346C32.2657 31.1784 31.9894 31.2503 31.6847 31.2503C31.3132 31.2503 30.9941 31.1496 30.7322 30.9483C30.4703 30.747 30.3369 30.5025 30.3369 30.2149C30.3369 29.932 30.4703 29.6875 30.7322 29.4862C30.9989 29.2849 31.3132 29.1842 31.6894 29.1842C31.999 29.1842 32.2799 29.2561 32.5228 29.4047C32.7657 29.5485 32.9229 29.7307 32.9943 29.956H32.7895C32.7181 29.7738 32.58 29.6252 32.38 29.5102C32.1752 29.3903 31.9466 29.3328 31.6847 29.3328C31.3656 29.3328 31.0894 29.4191 30.8655 29.5917C30.6417 29.7642 30.5274 29.9752 30.5274 30.2197C30.5274 30.4641 30.6417 30.6751 30.8655 30.8476C31.0894 31.0202 31.3656 31.1065 31.6847 31.1065C31.9371 31.1065 32.1657 31.049 32.3657 30.9339C32.5657 30.8237 32.7038 30.6799 32.78 30.5025H32.9848V30.4977Z" fill="#481B0B"/>
<path d="M34.4747 29.1842C34.8461 29.1842 35.1605 29.2849 35.4224 29.4862C35.6843 29.6875 35.8129 29.9272 35.8129 30.2101C35.8129 30.4929 35.6795 30.7374 35.4176 30.9339C35.1557 31.1353 34.8414 31.2359 34.4699 31.2359C34.0985 31.2359 33.7842 31.1353 33.5222 30.9339C33.2603 30.7326 33.127 30.4929 33.127 30.2101C33.127 29.9272 33.2603 29.6828 33.5222 29.4862C33.7889 29.2849 34.108 29.1842 34.4747 29.1842ZM34.4747 31.0921C34.7938 31.0921 35.0652 31.0058 35.289 30.8332C35.5129 30.6607 35.6272 30.4545 35.6272 30.2101C35.6272 29.9656 35.5129 29.7595 35.289 29.5869C35.0652 29.4143 34.7938 29.328 34.4747 29.328C34.1556 29.328 33.8842 29.4143 33.6603 29.5869C33.4365 29.7595 33.3222 29.9656 33.3222 30.2101C33.3222 30.4545 33.4365 30.6607 33.6603 30.8332C33.8842 31.0058 34.1556 31.0921 34.4747 31.0921Z" fill="#481B0B"/>
<path d="M38.3891 29.2177L38.3939 31.2167H38.1938V29.8409L37.1985 31.2167L36.2127 29.8553V31.2167H36.0127V29.213L37.208 30.8524L38.3891 29.2177Z" fill="#481B0B"/>
<path d="M39.4186 29.2178C39.5805 29.2178 39.7472 29.2465 39.9139 29.3089C40.2425 29.4287 40.4044 29.6396 40.4044 29.9368C40.4044 30.234 40.2425 30.445 39.9139 30.5648C39.7472 30.6271 39.5805 30.6559 39.4186 30.6559H38.7852V31.2072H38.5947V29.2082H39.4186V29.2178ZM38.7852 29.3616V30.5169H39.4186C39.5567 30.5169 39.6901 30.4881 39.8234 30.4402C40.0758 30.3443 40.2044 30.1765 40.2044 29.9368C40.2044 29.6971 40.0758 29.5294 39.8234 29.4335C39.6901 29.3856 39.5567 29.3568 39.4186 29.3568H38.7852V29.3616Z" fill="#481B0B"/>
<path d="M43.3473 31.2167H43.114L41.971 29.5629L40.8376 31.2167H40.5947L41.8377 29.3999L41.971 29.213L42.0949 29.3951L43.3473 31.2167Z" fill="#481B0B"/>
<path d="M45.871 29.2178V31.2168L45.6805 31.0729L43.7042 29.5725V31.2168H43.5137V29.2178L43.7042 29.3664L45.6805 30.8668V29.2178H45.871Z" fill="#481B0B"/>
<path d="M47.0142 30.5888L46.0713 29.2178H46.2808L47.1047 30.4354L47.9334 29.2178H48.1429L47.2047 30.5888V31.2168H47.0142V30.5888Z" fill="#481B0B"/>
<path d="M51.9096 30.4977C51.8286 30.7134 51.6715 30.8908 51.4333 31.0346C51.1905 31.1784 50.9142 31.2503 50.6095 31.2503C50.238 31.2503 49.9189 31.1496 49.657 30.9483C49.3951 30.747 49.2617 30.5025 49.2617 30.2149C49.2617 29.932 49.3951 29.6875 49.657 29.4862C49.9237 29.2849 50.238 29.1842 50.6142 29.1842C50.9238 29.1842 51.2047 29.2561 51.4476 29.4047C51.6905 29.5485 51.8477 29.7307 51.9191 29.956H51.7143C51.6429 29.7738 51.5048 29.6252 51.3048 29.5102C51.1 29.3903 50.8714 29.3328 50.6095 29.3328C50.2904 29.3328 50.0142 29.4191 49.7903 29.5917C49.5665 29.7642 49.4522 29.9752 49.4522 30.2197C49.4522 30.4641 49.5665 30.6751 49.7903 30.8476C50.0142 31.0202 50.2904 31.1065 50.6095 31.1065C50.8619 31.1065 51.0905 31.049 51.2905 30.9339C51.4905 30.8237 51.6286 30.6799 51.7048 30.5025H51.9096V30.4977Z" fill="#481B0B"/>
<path d="M52.253 31.2119H52.0625V29.213H52.253V31.2119Z" fill="#481B0B"/>
<path d="M52.7193 27.8563H2.29102V28.1631H52.7193V27.8563Z" fill="#2BA3A3"/>
<path d="M52.7193 31.931H2.29102V32.2378H52.7193V31.931Z" fill="#2BA3A3"/>
</svg>
