<svg width="200" height="196" viewBox="0 0 200 196" fill="none" xmlns="http://www.w3.org/2000/svg">
<path d="M53.6638 183.139C53.8108 183.727 54.2516 184.168 54.9863 184.168C55.8679 184.168 56.1618 183.727 56.1618 183.286C56.1618 182.698 55.8679 182.404 54.8393 182.111C53.5169 181.817 53.0761 181.376 53.0761 180.641C53.0761 179.907 53.6638 179.172 54.8393 179.172C56.1618 179.172 56.6026 179.907 56.7495 180.641H56.0148C55.8679 180.2 55.574 179.76 54.8393 179.76C54.2516 179.76 53.8108 180.053 53.8108 180.494C53.8108 180.935 54.1047 181.229 54.9863 181.376C56.4556 181.817 56.7495 182.404 56.7495 182.992C56.7495 183.874 56.1618 184.609 54.8393 184.609C53.5169 184.609 52.9292 183.874 52.7822 182.992L53.6638 183.139Z" fill="#2BA3A3"/>
<path d="M64.0985 182.257C64.0985 181.229 64.0985 180.2 64.0985 179.612C63.8046 180.494 62.923 182.845 62.3352 184.461H61.7475C61.3067 183.139 60.425 180.494 60.1312 179.612C60.1312 180.2 60.1312 181.375 60.1312 182.404V184.608H59.3965V179.171H60.425C61.0128 180.788 61.7475 182.992 61.8944 183.726C62.0413 183.139 62.923 180.788 63.5107 179.171H64.5393V184.608H64.0985V182.257Z" fill="#2BA3A3"/>
<path d="M68.3595 182.992L67.7718 184.608H67.0371L68.9473 179.171H69.8289L71.886 184.608H71.1513L70.5636 182.992H68.3595ZM70.2697 182.404C69.682 180.935 69.535 180.2 69.3881 179.906C69.2412 180.347 68.9473 181.228 68.5065 182.404H70.2697Z" fill="#2BA3A3"/>
<path d="M74.8226 182.257V184.608H74.0879V179.171H76.145C77.3205 179.171 77.9083 179.759 77.9083 180.641C77.9083 181.375 77.4674 181.816 77.0266 181.963C77.4674 182.11 77.9083 182.404 77.9083 183.286V183.579C77.9083 184.02 77.9083 184.461 77.9083 184.608H77.1736C77.0266 184.314 77.0266 184.02 77.0266 183.433V183.286C77.0266 182.551 76.8797 182.11 75.8511 182.11L74.8226 182.257ZM74.8226 181.669H75.9981C76.8797 181.669 77.1736 181.375 77.1736 180.788C77.1736 180.2 76.7328 179.906 75.9981 179.906H74.8226V181.669Z" fill="#2BA3A3"/>
<path d="M81.5836 179.908H79.8203V179.32H84.0815V179.908H82.3182V184.61H81.5836V179.908Z" fill="#2BA3A3"/>
<path d="M90.5433 179.171V184.608H89.8086V179.171H90.5433Z" fill="#2BA3A3"/>
<path d="M94.3668 179.908H92.6035V179.32H96.8647V179.908H95.1014V184.61H94.3668V179.908Z" fill="#2BA3A3"/>
<path d="M102.589 183.138C102.736 183.726 103.176 184.166 103.911 184.166C104.793 184.166 105.087 183.726 105.087 183.285C105.087 182.697 104.793 182.403 103.764 182.109C102.442 181.816 102.001 181.375 102.001 180.64C102.001 179.905 102.589 179.171 103.764 179.171C105.087 179.171 105.527 179.905 105.674 180.64H104.94C104.793 180.199 104.499 179.758 103.764 179.758C103.176 179.758 102.736 180.052 102.736 180.493C102.736 180.934 103.029 181.228 103.911 181.375C105.38 181.816 105.674 182.403 105.674 182.991C105.674 183.873 105.087 184.607 103.764 184.607C102.442 184.607 101.854 183.873 101.707 182.991L102.589 183.138Z" fill="#2BA3A3"/>
<path d="M111.701 182.109H109.056V184.02H111.995L111.848 184.607H108.321V179.171H111.848V179.758H109.056V181.375H111.701V182.109Z" fill="#2BA3A3"/>
<path d="M115.076 182.256V184.607H114.342V179.171H116.399C117.574 179.171 118.162 179.758 118.162 180.64C118.162 181.375 117.721 181.816 117.281 181.962C117.721 182.109 118.162 182.403 118.162 183.285V183.579C118.162 184.02 118.162 184.46 118.162 184.607H117.427C117.281 184.313 117.281 184.02 117.281 183.432V183.285C117.281 182.55 117.134 182.109 116.105 182.109L115.076 182.256ZM115.076 181.669H116.252C117.134 181.669 117.427 181.375 117.427 180.787C117.427 180.199 116.987 179.905 116.252 179.905H115.076V181.669Z" fill="#2BA3A3"/>
<path d="M122.128 184.607L120.218 179.171H120.952L121.834 181.816C122.128 182.55 122.422 183.432 122.569 183.873C122.716 183.432 123.01 182.55 123.303 181.816L124.332 179.171H125.067L123.01 184.607H122.128Z" fill="#2BA3A3"/>
<path d="M128.008 179.171V184.607H127.273V179.171H128.008Z" fill="#2BA3A3"/>
<path d="M134.913 183.138C134.619 184.02 134.031 184.754 132.709 184.754C131.093 184.754 130.211 183.579 130.211 181.962C130.211 180.493 130.946 179.171 132.709 179.171C134.031 179.171 134.619 179.905 134.766 180.787H134.031C133.884 180.199 133.444 179.758 132.562 179.758C131.386 179.758 130.946 180.787 130.946 181.962C130.946 182.991 131.386 184.166 132.709 184.166C133.59 184.166 133.884 183.726 134.031 183.138H134.913Z" fill="#2BA3A3"/>
<path d="M140.939 182.109H138.294V184.02H141.233L141.086 184.607H137.56V179.171H141.086V179.758H138.294V181.375H140.939V182.109Z" fill="#2BA3A3"/>
<path d="M143.873 183.138C144.02 183.726 144.461 184.166 145.196 184.166C146.077 184.166 146.371 183.726 146.371 183.285C146.371 182.697 146.077 182.403 145.049 182.109C143.726 181.816 143.286 181.375 143.286 180.64C143.286 179.905 143.873 179.171 145.049 179.171C146.371 179.171 146.812 179.905 146.959 180.64H146.371C146.224 180.199 145.93 179.758 145.196 179.758C144.608 179.758 144.167 180.052 144.167 180.493C144.167 180.934 144.461 181.228 145.343 181.375C146.812 181.816 147.106 182.403 147.106 182.991C147.106 183.873 146.518 184.607 145.196 184.607C143.873 184.607 143.286 183.873 143.139 182.991L143.873 183.138Z" fill="#2BA3A3"/>
<path d="M33.0953 160.512V167.418C33.0953 170.063 34.2708 171.239 35.8871 171.239C37.6503 171.239 38.6789 170.063 38.6789 167.418V160.512H40.1482V167.418C40.1482 170.945 38.2381 172.561 35.5932 172.561C32.9483 172.561 31.332 171.092 31.332 167.565V160.659L33.0953 160.512Z" fill="#212121"/>
<path d="M44.4157 160.512V172.267H42.9463V160.512H44.4157Z" fill="#212121"/>
<path d="M47.0586 172.267V160.512H48.6749L52.4953 166.39C53.3769 167.565 53.9646 168.888 54.6993 170.21C54.5524 168.741 54.5524 167.271 54.5524 165.361V160.512H56.0217V172.267H54.5524L50.732 166.39C49.8504 165.214 49.2626 163.892 48.528 162.569H48.381C48.528 164.039 48.528 165.361 48.528 167.418V172.414H47.0586V172.267Z" fill="#212121"/>
<path d="M58.5234 160.663C59.552 160.516 60.7275 160.516 61.756 160.516C63.5193 160.369 65.1356 160.957 66.605 161.985C67.7805 163.161 68.3682 164.63 68.2213 166.247C68.3682 168.01 67.6335 169.626 66.458 170.802C64.9887 171.977 63.2254 172.712 61.3152 172.418C60.4336 172.418 59.4051 172.418 58.5234 172.271V160.663ZM60.1397 171.095C60.7275 171.242 61.1683 171.242 61.6091 171.242C64.8417 171.242 66.605 169.332 66.605 166.247C66.605 163.455 65.1356 161.691 61.756 161.691C61.1683 161.691 60.5806 161.691 59.9928 161.838L60.1397 171.095Z" fill="#212121"/>
<path d="M72.4781 172.267V167.271L68.8047 160.512H70.5679L72.1842 163.745C72.625 164.626 73.0659 165.361 73.3597 166.243C73.6536 165.361 74.0944 164.773 74.5352 163.745L76.2985 160.512H78.0617L74.0944 167.271V172.267H72.4781Z" fill="#2BA3A3"/>
<path d="M28.5463 171.242C26.3423 171.977 24.1382 172.418 21.9342 172.418C16.3506 173.005 11.3547 168.891 10.9139 163.308C10.767 162.72 10.767 162.132 10.9139 161.544C10.9139 155.079 15.322 150.377 22.5219 150.377C24.4321 150.377 26.1953 150.671 27.8117 151.406L27.077 153.61C25.6076 153.022 23.8444 152.581 22.375 152.728C17.2322 152.728 13.7057 155.961 13.7057 161.397C13.7057 166.834 16.9383 170.067 21.9342 170.067C23.1097 170.214 24.4321 169.92 25.6076 169.479V163.014H21.1995V160.81H28.2525L28.5463 171.242Z" fill="#212121"/>
<path d="M88.4952 161.835H84.9688V160.513H93.4911V161.835H89.9646V172.121H88.4952V161.835Z" fill="#212121"/>
<path d="M101.274 166.832H96.7194V171.094H101.715V172.269H95.25V160.661H101.421V161.984H96.7194V165.657H101.274V166.832Z" fill="#212121"/>
<path d="M112.149 171.827C111.12 172.268 110.092 172.415 109.063 172.415C105.831 172.415 103.333 170.357 103.333 166.537C103.186 163.451 105.537 160.66 108.769 160.513C109.063 160.513 109.21 160.513 109.357 160.513C110.386 160.513 111.267 160.66 112.149 161.1L111.708 162.276C110.973 161.982 110.239 161.688 109.357 161.835C106.712 161.835 104.802 163.598 104.802 166.684C104.802 169.476 106.418 171.386 109.21 171.386C110.092 171.386 110.826 171.239 111.561 170.945L112.149 171.827Z" fill="#212121"/>
<path d="M115.825 160.661V165.51H121.408V160.661H122.878V172.269H121.408V166.832H115.825V172.269H114.355V160.661H115.825Z" fill="#212121"/>
<path d="M125.965 172.124V160.516H127.581L131.255 166.393C131.989 167.569 132.724 168.891 133.312 170.066C133.165 168.45 133.165 167.128 133.165 165.218V160.369H134.634V171.977H133.165L129.491 166.099C128.61 164.777 128.022 163.601 127.287 162.132C127.287 163.601 127.434 164.924 127.434 166.981V171.977L125.965 172.124Z" fill="#212121"/>
<path d="M147.419 166.246C147.419 170.213 145.068 172.271 141.983 172.271C138.897 172.271 136.84 169.92 136.84 166.393C136.84 162.72 139.044 160.369 142.277 160.369C145.509 160.369 147.419 162.867 147.419 166.246ZM138.456 166.393C138.456 168.891 139.779 171.095 142.13 171.095C144.481 171.095 145.803 168.891 145.803 166.246C145.803 163.895 144.627 161.544 142.13 161.544C139.779 161.691 138.456 163.895 138.456 166.393Z" fill="#212121"/>
<path d="M149.623 160.661H151.092V171.094H156.088V172.269H149.623V160.661Z" fill="#212121"/>
<path d="M167.402 166.246C167.402 170.213 165.051 172.271 161.965 172.271C158.879 172.271 156.822 169.92 156.822 166.393C156.822 162.72 159.026 160.369 162.259 160.369C165.492 160.369 167.402 162.867 167.402 166.246ZM158.439 166.393C158.439 168.891 159.761 171.095 162.112 171.095C164.463 171.095 165.785 168.891 165.785 166.246C165.785 163.895 164.61 161.544 162.112 161.544C159.614 161.691 158.439 163.895 158.439 166.393Z" fill="#212121"/>
<path d="M178.418 171.68C177.243 172.121 176.067 172.268 174.745 172.415C171.806 172.708 169.161 170.504 168.867 167.566C168.867 167.272 168.867 166.978 168.867 166.537C168.867 163.011 171.218 160.513 175.185 160.513C176.214 160.513 177.096 160.66 178.124 161.1L177.683 162.276C176.802 161.835 176.067 161.688 175.185 161.688C172.394 161.688 170.483 163.451 170.483 166.39C170.483 169.329 172.247 171.092 175.039 171.092C175.773 171.092 176.361 171.092 177.096 170.798V167.272H174.745V166.096H178.565L178.418 171.68Z" fill="#212121"/>
<path d="M184.001 172.122V167.273L180.327 160.661H182.09L183.707 163.894C184.148 164.775 184.441 165.51 184.882 166.245C185.176 165.51 185.617 164.775 186.058 163.894L187.674 160.661H189.437L185.47 167.273V172.269L184.001 172.122Z" fill="#212121"/>
<path d="M100.098 144.796C71.5925 144.796 48.5234 121.58 48.5234 93.2208C48.5234 64.862 71.7395 41.646 100.098 41.646C128.457 41.646 151.673 64.7151 151.673 93.2208C151.673 121.58 128.604 144.796 100.098 144.796ZM100.098 45.4664C73.7966 45.4664 52.4907 66.9191 52.4907 93.0739C52.4907 119.229 73.9435 140.828 100.098 140.828C126.253 140.828 147.706 119.523 147.706 93.2208C147.706 66.9191 126.4 45.4664 100.098 45.4664Z" fill="#212121"/>
<path d="M100.096 148.03C69.8265 148.03 45.2881 123.492 45.2881 93.223C45.2881 62.954 69.8265 38.4155 100.096 38.4155C130.365 38.4155 154.903 62.954 154.903 93.223C154.903 123.492 130.365 148.03 100.096 148.03ZM100.096 39.738C70.5612 39.738 46.6105 63.6887 46.6105 93.223C46.6105 122.757 70.5612 146.708 100.096 146.708C129.63 146.708 153.581 122.61 153.581 93.223C153.581 63.6887 129.63 39.738 100.096 39.738Z" fill="#212121"/>
<path d="M107.3 39.0004V31.9475C107.3 27.9802 104.068 24.7476 100.1 24.7476C96.133 24.7476 92.9004 27.9802 92.9004 31.9475V38.8535L107.3 39.0004Z" fill="#212121"/>
<path d="M104.798 38.4141V29.7449C104.798 29.3041 104.358 28.7163 103.77 28.7163C103.329 28.7163 102.741 29.1571 102.741 29.7449V38.1203C103.476 38.1203 104.064 38.2672 104.798 38.4141Z" fill="#FDFEFE"/>
<path d="M103.19 139.943L102.75 135.241H102.897L103.19 139.943ZM96.4313 139.943L96.7252 135.241H96.8721L96.4313 139.943ZM107.599 139.502L106.864 134.947H107.011L107.599 139.502ZM92.0232 139.355L92.7579 134.8H92.9048L92.0232 139.355ZM114.064 138.033L112.594 133.625H112.741L114.064 138.033ZM85.558 137.739L86.8804 133.331H87.0274L85.558 137.739ZM118.325 136.417L116.415 132.156H116.562L118.325 136.417ZM81.4438 136.27L83.207 132.009H83.3539L81.4438 136.27ZM77.3295 134.213L79.5336 130.098H79.6805L77.3295 134.213ZM128.023 130.98L125.231 127.307L126.553 129.217L128.023 130.98ZM71.7459 130.539L74.5377 126.866H74.6847L71.7459 130.539ZM131.402 128.188L129.933 126.425L128.464 124.662L129.345 125.543L131.402 128.188ZM137.427 121.576L133.606 118.784C133.606 118.784 133.606 118.784 133.753 118.637L137.427 121.576ZM141.1 115.993L136.986 113.788V113.642L141.1 115.993ZM142.129 114.082C142.129 113.935 142.129 113.935 142.129 114.082V114.082ZM57.7869 113.495L61.9012 111.437V111.584L57.7869 113.495ZM143.157 111.878L138.896 110.115V109.968L143.157 111.878ZM144.774 107.764L140.365 106.442V106.295L144.774 107.764ZM55.289 107.176L59.6971 105.707V105.854L55.289 107.176ZM54.7013 105.119L59.2563 103.944V104.091L54.7013 105.119ZM146.39 101.299L141.688 100.564V100.417L146.39 101.299ZM146.831 96.7438L142.129 96.4499V96.303L146.831 96.7438ZM53.2319 96.303L55.5829 96.156L57.9339 96.0091L53.2319 96.303ZM53.2319 94.0989L57.9339 93.952V94.0989H53.2319ZM142.276 90.4255V90.2786L146.978 89.9847L143.745 90.2786L146.831 90.1316L144.627 90.2786L146.978 90.1316L142.276 90.4255ZM58.0808 87.9276L53.5258 87.3398V87.1929L58.0808 87.9276ZM140.953 82.344L145.508 81.1685V81.3154L140.953 82.344ZM59.8441 80.1399L55.4359 78.6706V78.5236L59.8441 80.1399ZM139.778 78.5236L144.186 76.9073V77.0542L139.778 78.5236ZM62.195 74.5563L57.9339 72.4992V72.3523L62.195 74.5563ZM136.251 71.3237L140.219 68.8258V68.9727L136.251 71.3237ZM134.047 68.0911L135.957 66.6217L137.868 65.2993L134.047 68.0911ZM132.872 66.3279L136.398 63.3891L136.545 63.5361L132.872 66.3279ZM125.672 59.5688C125.672 59.4218 125.672 59.4218 125.672 59.5688V59.5688ZM76.5949 58.0994L75.2724 56.1892L73.95 54.279L76.5949 58.0994ZM78.2112 56.9239L75.8602 52.9566H76.0071L78.2112 56.9239ZM120.529 56.1892L122.733 52.075L121.558 54.1321L122.88 52.075L120.529 56.1892ZM81.7376 55.0137L79.6805 50.7525H79.8275L81.7376 55.0137ZM85.4111 53.5444L83.7948 49.1362H83.9417L85.4111 53.5444ZM89.3784 52.2219L88.2029 47.6669H88.3498L89.3784 52.2219ZM109.215 51.928L110.243 47.373H110.39L109.215 51.928ZM99.2231 50.8995L99.0762 46.1975H99.2231V50.8995Z" fill="#778691"/>
<path d="M100.389 133.187C78.0542 133.187 59.834 114.966 59.834 92.632C59.834 70.2976 78.0542 52.0774 100.389 52.0774C122.723 52.0774 140.943 70.2976 140.943 92.632C140.943 115.113 122.723 133.187 100.389 133.187ZM100.389 52.6651C78.348 52.6651 60.2748 70.5914 60.2748 92.7789C60.2748 114.966 78.348 132.893 100.389 132.893C122.429 132.893 140.502 114.819 140.502 92.7789C140.502 70.5914 122.576 52.6651 100.389 52.6651Z" fill="#BDF9F9"/>
<path d="M109.057 84.2551L127.718 88.5163C127.865 88.2224 128.011 87.9285 128.158 87.6346C128.599 86.8999 129.04 86.0183 129.04 84.9898C129.04 84.6959 129.04 84.402 129.04 84.1082C129.04 83.9612 129.04 83.8143 129.04 83.6673V82.9327H128.305C128.158 82.9327 127.865 82.9326 127.718 83.0796C127.277 83.0796 126.836 83.2265 126.542 83.3735C125.954 83.5204 125.514 83.6673 125.073 83.9612C124.485 84.1081 123.897 84.402 123.309 84.549C123.309 84.549 123.163 84.549 123.016 84.402C122.869 84.2551 122.575 84.1081 122.428 83.9612C122.575 83.8143 122.575 83.5204 122.575 83.2265C122.575 82.7857 122.134 82.4918 121.693 82.198L121.546 82.051C121.399 81.9041 121.252 81.9041 121.105 81.7572C120.812 81.4633 120.371 81.1694 120.077 81.0225C119.342 80.5817 118.901 80.2878 118.754 79.5531C118.754 79.2592 118.461 78.2307 117.432 77.7899C117.285 77.7899 117.138 77.6429 116.991 77.0552C116.991 76.6144 116.844 76.3205 116.697 76.0266C116.697 75.8797 116.55 75.7327 116.55 75.5858C116.403 75.145 116.11 74.7042 115.816 74.5573C115.522 74.2634 115.375 74.1164 115.375 73.8226C115.375 73.5287 115.375 73.3818 115.081 73.2348C114.934 73.0879 114.934 72.9409 114.787 72.794C114.493 72.5001 114.346 72.2063 114.052 71.7655C113.906 71.4716 113.759 71.1777 113.612 71.0308L113.906 70.8838V70.59C113.906 70.443 113.906 70.443 113.906 70.2961C113.906 70.0022 114.052 69.7083 113.906 69.2675C113.759 68.8267 113.612 68.239 113.171 67.6512C112.877 67.3573 112.436 67.3574 112.289 67.3574H112.142H111.995C111.995 67.3574 111.995 67.3574 111.848 67.3574C111.848 67.3574 111.848 67.3574 111.701 67.3574C111.555 67.3574 111.555 67.3574 111.555 67.3574C111.555 67.3574 111.555 67.3574 111.408 67.3574C111.114 67.2104 110.673 67.0635 110.379 67.0635C109.938 67.0635 109.35 67.2104 108.763 67.6512C108.763 67.6512 108.763 67.6512 108.616 67.6512H108.469C107.881 67.6512 107.44 67.5043 106.853 67.3574C106.706 67.3574 106.559 67.3574 106.559 67.3574C106.118 67.2104 105.53 67.2104 104.942 67.0635L109.057 84.2551Z" fill="#2BA3A3"/>
<path d="M71.2976 81.9039C71.4445 82.1978 71.4445 82.1978 71.2976 82.3447C71.0037 82.7855 71.1507 83.5202 71.4445 83.8141C71.7384 84.108 72.0323 84.4018 72.3262 84.6957C72.4731 84.8427 72.62 84.9896 72.767 85.1365C72.9139 85.2835 73.0608 85.5773 73.3547 85.8712C73.5016 86.0182 73.5016 86.1651 73.6486 86.312C73.7955 86.459 73.7955 86.6059 73.9425 86.7528C74.0894 86.8998 74.0894 87.0467 74.2363 87.1937C74.3833 87.4875 74.5302 87.7814 74.8241 87.9283L91.281 84.2549L95.6891 63.8307C95.6891 63.8307 95.6891 63.8307 95.836 63.6838L95.983 62.9491L95.6891 62.8021C95.6891 62.8021 95.5422 62.8021 95.5422 62.6552C95.3952 62.5083 95.1014 62.3613 94.8075 62.3613C94.5136 62.3613 94.3667 62.3613 94.0728 62.5083C93.9259 62.5083 93.7789 62.5083 93.632 62.5083C93.4851 62.5083 93.1912 62.5083 93.0442 62.5083C92.8973 62.5083 92.6034 62.5083 92.4565 62.5083C92.3096 62.5083 92.0157 62.5083 91.8688 62.5083C91.4279 62.5083 90.8402 62.5083 90.2524 62.5083C90.1055 62.5083 89.8116 62.5083 89.5178 62.5083C88.7831 62.5083 87.9015 62.5083 87.0198 63.096C87.0198 63.096 86.8729 63.096 86.726 63.096C86.4321 63.096 86.1382 63.2429 85.8443 63.5368H85.6974C85.6974 63.5368 85.6974 63.5368 85.5505 63.5368C85.5505 63.5368 85.4035 63.5368 85.2566 63.5368C85.1097 63.5368 84.9627 63.3899 84.8158 63.3899C84.6688 63.3899 84.6688 63.3899 84.5219 63.3899C84.0811 63.3899 84.0811 63.3899 84.0811 63.2429C83.9342 63.096 83.7872 62.8021 83.3464 62.8021C83.1995 62.8021 82.9056 62.8021 82.7587 62.9491C82.4648 63.243 82.1709 63.5368 82.024 63.8307C81.877 64.2715 81.5832 64.4184 81.1424 64.5654C80.8485 64.7123 80.4077 64.8593 80.1138 65.1531C80.1138 65.3001 79.9669 65.447 79.8199 65.447C79.3791 66.0347 78.9383 66.6225 78.7914 67.3572C78.7914 67.798 78.6444 68.0919 78.2036 68.3857C77.9098 68.6796 77.4689 68.8265 77.0281 69.1204C76.2934 69.4143 75.5588 69.8551 74.971 70.5898C74.971 70.5898 74.8241 70.7367 74.6771 70.7367C74.5302 71.0306 74.3833 71.1775 74.3833 71.3245C74.2363 71.4714 74.2363 71.6183 74.0894 71.9122C73.9425 72.2061 73.6486 72.5 73.5017 72.7938C73.3547 73.0877 73.0608 73.3816 72.9139 73.6755C72.767 73.9693 72.4731 74.2632 72.3262 74.5571C72.0323 74.9979 71.8853 75.4387 72.1792 75.7326C72.3262 75.8795 72.3262 76.1734 72.3262 76.6142C72.3262 76.7611 72.3262 76.9081 72.3262 77.2019C72.4731 78.5244 72.0323 79.5529 71.2976 80.5815C71.0037 81.0223 71.1507 81.6101 71.2976 81.9039C71.2976 81.757 71.1507 81.757 71.2976 81.9039Z" fill="#2BA3A3"/>
<path d="M120.085 102.918C120.085 102.771 119.939 102.477 119.792 102.33C119.645 101.889 119.498 101.595 119.351 101.154C119.351 101.007 119.351 100.861 119.351 100.714C119.351 100.42 119.351 99.9789 119.204 99.6851L108.918 102.036L104.069 123.783H104.216C104.51 123.783 104.951 123.783 105.245 123.783C105.98 123.783 107.008 123.636 107.89 122.901C108.184 122.607 108.331 122.46 108.624 122.166C109.359 121.432 110.094 120.844 110.828 120.256C112.004 119.228 112.592 118.346 112.592 117.171C112.592 116.583 112.739 116.583 113.326 116.289C113.473 116.289 113.62 116.142 113.767 116.142C114.502 115.701 114.943 115.407 114.943 114.966C114.943 113.938 114.943 113.056 114.796 112.175C114.649 111.734 114.796 111.734 114.943 111.587C115.237 111.293 115.53 111.146 115.824 110.852C115.971 110.705 116.118 110.558 116.265 110.411L116.412 110.265C116.559 110.118 116.706 110.118 116.706 109.971C116.853 109.824 117.147 109.824 117.294 109.677C117.734 109.53 118.028 109.383 118.469 109.089C119.057 108.648 119.939 107.767 119.792 106.15C119.792 106.003 119.792 105.856 119.792 105.709C119.792 105.122 119.645 104.534 119.939 103.946C120.085 103.652 119.939 103.212 119.939 102.918C120.085 103.065 120.085 103.065 120.085 102.918Z" fill="#2BA3A3"/>
<path d="M122.136 117.316C121.401 117.316 120.519 116.728 120.373 115.847C120.373 115.7 120.373 115.553 120.373 115.406C120.373 115.112 120.226 114.671 120.226 114.377C120.226 113.79 120.226 112.908 121.107 112.173C121.548 111.732 121.548 111.292 121.401 110.41C121.401 110.263 121.401 110.116 121.401 109.969C121.401 109.235 121.695 108.5 122.136 108.059C122.43 107.765 122.87 107.471 123.458 107.471C123.605 107.471 123.605 107.471 123.752 107.471C123.899 107.324 124.046 107.177 124.34 107.177C124.34 107.177 124.34 107.03 124.487 107.03C124.781 106.59 125.075 106.296 125.515 105.855C125.662 105.708 125.662 105.561 125.809 105.414C125.809 105.267 125.956 105.12 125.956 104.973C125.956 104.826 126.103 104.826 126.103 104.679L126.544 103.798L127.132 104.533C127.866 105.561 127.866 106.443 127.866 107.324C127.866 107.618 127.866 107.912 127.866 108.206L128.013 109.235L127.279 108.941C126.838 111.292 125.662 113.202 124.634 115.259C124.487 115.553 124.34 115.994 124.046 116.287C123.899 116.581 123.458 116.875 123.311 116.875C123.164 117.022 122.87 117.022 122.724 117.022C122.577 117.022 122.577 117.022 122.43 117.022C122.43 117.316 122.283 117.316 122.136 117.316Z" fill="#2BA3A3"/>
<path d="M124.047 108.356C124.047 108.062 124.193 107.622 124.487 107.916C124.928 107.328 125.369 106.887 125.81 106.299C125.957 106.152 126.104 106.005 126.104 105.711C126.251 105.565 126.251 105.271 126.398 104.977C127.279 106.005 126.985 107.181 127.132 108.356C126.985 108.356 126.838 108.209 126.691 108.209C126.251 111.148 124.781 113.499 123.459 116.144C123.459 116.291 123.165 116.438 123.018 116.438C122.724 116.585 122.43 116.585 122.136 116.732C121.696 116.879 120.961 116.291 120.814 115.85C120.814 115.409 120.667 114.969 120.667 114.381C120.667 113.793 120.667 113.205 121.255 112.618C122.136 111.883 121.842 110.854 121.696 109.826C121.696 109.385 121.989 108.797 122.283 108.356C123.018 108.209 123.606 108.062 124.047 108.356Z" fill="#E4E5E6"/>
<path d="M109.065 84.2582L127.139 88.3725C127.58 87.197 128.314 86.3153 128.314 84.9929C128.314 84.5521 128.314 84.1113 128.461 83.6705C127.726 83.8174 127.286 83.8174 126.698 84.1113C125.669 84.4052 124.494 84.846 123.465 85.1398C123.171 85.1398 122.878 85.1398 122.584 84.9929C122.143 84.699 121.849 84.4052 121.555 84.2582C121.996 83.6705 121.996 83.3766 121.408 82.9358C121.261 82.9358 121.261 82.7889 121.114 82.6419C120.673 82.3481 120.233 81.9072 119.645 81.6134C118.91 81.1726 118.176 80.7317 118.029 79.7032C117.882 79.1154 117.735 78.6746 117.147 78.3808C116.706 78.2338 116.412 77.6461 116.412 77.0583C116.412 76.6175 116.118 76.0298 115.972 75.589C115.678 74.8543 114.649 74.5604 114.796 73.5318L114.649 73.3849C114.355 72.9441 113.914 72.5033 113.621 71.9155C113.18 71.3278 112.886 70.5931 112.445 70.0054C112.151 69.5645 112.004 69.2707 111.71 68.8299C111.71 68.8299 111.857 68.8299 111.857 68.6829C112.298 69.2707 112.739 69.7115 113.18 70.2992C113.18 70.2992 113.327 70.2992 113.327 70.1523C113.327 69.7115 113.474 69.4176 113.474 68.9768C113.327 68.536 113.18 67.9482 112.886 67.5074C112.739 67.3605 112.298 67.3605 112.004 67.3605C111.857 67.3605 111.563 67.3605 111.416 67.3605C110.682 66.9197 109.947 67.0666 109.359 67.5074C109.212 67.6544 108.772 67.6544 108.625 67.6544C107.89 67.5074 107.302 67.3605 106.568 67.2136C106.127 67.0666 105.686 67.0666 105.245 66.9197L109.065 84.2582Z" fill="#E4E5E6"/>
<path d="M71.8866 82.4942C71.7397 82.6412 71.8866 83.082 71.8866 83.3758C72.3275 83.8167 72.7683 84.2575 73.2091 84.5513C73.503 84.8452 73.6499 84.9921 73.7968 85.286C73.9438 85.5799 74.2376 86.0207 74.3846 86.3146C74.6784 86.7554 74.9723 87.3431 75.2662 87.7839L91.1354 84.2575L95.2496 66.0373C95.2496 65.8904 95.1027 65.7434 95.1027 65.5965C94.8088 65.5965 94.6619 65.5965 94.368 65.5965C94.368 65.4496 94.2211 65.4496 94.2211 65.3026C94.5149 65.1557 94.8088 64.8618 94.9557 64.7149C95.1027 64.5679 95.1027 64.2741 95.1027 64.1271C94.8088 63.6863 94.9557 63.3924 95.2496 63.0986C94.9557 62.9516 94.8088 62.8047 94.5149 62.8047C94.0741 62.8047 93.7802 62.9516 93.3394 62.9516C92.1639 62.9516 90.9884 62.9516 89.9599 62.9516C88.9313 63.0986 88.0497 62.8047 87.0211 63.5394C87.0211 63.8332 86.4334 63.8332 86.1395 64.1271C85.9926 64.2741 85.6987 64.1271 85.4048 64.1271C85.111 64.1271 84.964 63.9802 84.6702 63.9802C84.2293 63.9802 83.7885 63.9802 83.4947 63.5394C83.4947 63.5394 83.2008 63.5394 83.0539 63.5394C82.9069 63.6863 82.613 63.8332 82.613 64.1271C82.3192 64.7149 81.8784 65.0087 81.2906 65.3026C80.9967 65.4496 80.7029 65.4495 80.5559 65.7434C80.1151 66.3312 79.5274 67.0659 79.3804 67.6536C79.2335 68.2413 79.0866 68.6822 78.6457 68.976C77.6172 69.7107 76.2948 70.0046 75.4131 71.0332C75.2662 71.1801 75.1193 71.1801 74.9723 71.327C74.8254 71.474 74.8254 71.6209 74.6785 71.6209C74.3846 72.0617 74.0907 72.6495 73.7968 73.0903C73.356 73.678 72.9152 74.2658 72.6213 74.8535C72.4744 75.0004 72.3275 75.2943 72.4744 75.4413C72.9152 76.029 72.7683 76.4698 72.7683 77.0576C72.9152 78.5269 72.3275 79.7024 71.5928 80.8779C71.5928 81.0248 71.5928 81.3187 71.5928 81.4657C71.8866 81.7595 72.1805 82.0534 71.8866 82.4942Z" fill="#E4E5E6"/>
<path d="M118.909 101.303C118.909 100.862 119.055 100.275 118.762 99.8337L109.064 102.038L104.215 123.197C104.509 123.197 104.95 123.197 105.243 123.197C106.125 123.197 106.86 123.05 107.447 122.462C108.476 121.58 109.358 120.552 110.386 119.817C111.268 119.082 112.002 118.348 112.002 117.319C112.002 116.144 112.737 116.144 113.472 115.85C113.766 115.703 114.353 115.409 114.353 115.115C114.353 114.234 114.353 113.352 114.207 112.47C114.06 111.883 114.207 111.589 114.5 111.295C114.941 111.001 115.382 110.56 115.823 110.119C115.97 109.972 116.264 109.679 116.411 109.532C116.998 109.238 117.586 109.091 118.174 108.797C118.909 108.209 119.349 107.621 119.349 106.446C119.349 105.711 119.055 104.683 119.496 103.948C119.496 103.801 119.349 103.507 119.349 103.36C119.202 102.626 118.909 101.891 118.909 101.303Z" fill="#E4E5E6"/>
<path d="M100.094 57.9565L106.56 86.7562L135.212 93.2214L106.56 99.6866L100.094 128.339L93.6292 99.6866L64.9766 93.2214L93.6292 86.7562L100.094 57.9565Z" fill="#FDFEFE"/>
<path d="M100.101 128.928C99.8073 128.928 99.6603 128.781 99.5134 128.487L93.1951 100.128L64.8363 93.6628C64.5424 93.6628 64.3955 93.3689 64.3955 93.075C64.3955 92.7812 64.5424 92.6342 64.8363 92.4873L93.1951 86.169L99.5134 57.8102C99.5134 57.5163 99.8073 57.3694 100.101 57.3694C100.395 57.3694 100.542 57.5163 100.689 57.8102L107.154 86.169L135.513 92.4873C135.807 92.4873 135.954 92.7812 135.954 93.075C135.954 93.3689 135.807 93.5158 135.513 93.6628L107.154 100.128L100.542 128.487C100.542 128.781 100.395 128.928 100.101 128.928ZM67.4812 93.222L93.7829 99.0994C93.9298 99.0994 94.2237 99.2464 94.2237 99.5403L100.101 125.842L105.979 99.5403C105.979 99.3933 106.126 99.0994 106.419 99.0994L132.721 93.222L106.419 87.3445C106.273 87.3445 105.979 87.1976 105.979 86.9037L100.101 60.602L94.2237 86.9037C94.2237 87.0506 94.0767 87.3445 93.7829 87.3445L67.4812 93.222Z" fill="#231F20"/>
<path d="M100.096 57.9565L106.562 86.7562L135.214 93.2214L106.562 99.6866L100.096 128.339L93.6312 99.6866L64.9785 93.2214L93.6312 86.7562L100.096 57.9565Z" fill="#FDFEFE"/>
<path d="M64.9785 93.2177L93.6312 99.683L100.096 128.336L106.562 99.683L135.214 93.2177L134.92 93.0708H65.2724L64.9785 93.2177Z" fill="#D1D3D4"/>
<path d="M100.096 58.1035V57.9565L93.6312 86.7562L64.9785 93.2214L93.6312 99.6866L100.096 128.339V58.1035Z" fill="#D1D3D4"/>
<path d="M91.2818 28.2747C90.4002 26.8054 89.9594 25.0421 89.9594 23.1319C89.9594 17.5483 94.5144 12.8463 100.245 12.8463C105.829 12.8463 110.531 17.4014 110.531 23.1319C110.531 25.189 109.943 26.9523 108.914 28.5686C109.355 29.5972 109.502 30.6257 109.502 31.6543C111.559 29.4502 112.882 26.3645 112.882 23.1319C112.882 16.2259 107.151 10.4954 100.245 10.4954C93.3389 10.4954 87.6084 16.079 87.6084 23.1319C87.6084 26.2176 88.7839 29.1563 90.6941 31.3604C90.5471 30.3318 90.841 29.3033 91.2818 28.2747Z" fill="#212121"/>
</svg>
