<?xml version="1.0" encoding="utf-8"?>
<!-- Generator: Adobe Illustrator 22.0.0, SVG Export Plug-In . SVG Version: 6.00 Build 0)  -->
<svg version="1.1" id="Calque_1" xmlns="http://www.w3.org/2000/svg" xmlns:xlink="http://www.w3.org/1999/xlink" x="0px" y="0px"
	 viewBox="0 0 5669.3 2053" style="enable-background:new 0 0 5669.3 2053;" xml:space="preserve">
<style type="text/css">
	.st0{fill:#A7A9AC;}
	.st1{fill:#1A3762;}
	.st2{fill:#0F6EAC;}
	.st3{fill:#2BA3A3;}
	.st4{clip-path:url(#SVGID_2_);fill:url(#SVGID_3_);}
	.st5{fill:url(#SVGID_4_);}
	.st6{fill:url(#SVGID_5_);}
	.st7{fill:#009DDC;}
	.st8{fill:url(#SVGID_6_);}
	.st9{fill:url(#SVGID_7_);}
	.st10{fill:#0079C1;}
	.st11{fill:url(#SVGID_8_);}
	.st12{fill:url(#SVGID_9_);}
</style>
<polygon class="st0" points="3757.9,833.7 3749.3,894.3 4088.1,894.3 4096.7,833.7 "/>
<g>
	<path class="st0" d="M2682.6,833.7h-348.8c-0.9,20.7,0.1,40.9,2.3,60.6h374.3C2691.4,880.6,2683,861.1,2682.6,833.7"/>
	<path class="st1" d="M4679.7,1198.5c-47.9,338.8,43.3,462.7,341.6,462.7h245.3l37.1-262.9h-134c-146.7,0-173.1-45.5-143.1-257.9
		l29.8-210.9h-338.8L4679.7,1198.5z"/>
	<polygon class="st2" points="4111.6,727.9 3772.8,727.9 3762.8,798.6 4101.6,798.6 	"/>
	<polygon class="st2" points="5169.5,124 4830.7,124 4793.2,394.8 5132,394.8 	"/>
	<polygon class="st2" points="4196.1,124 3857.3,124 3819.8,394.8 4158.6,394.8 	"/>
	<polygon class="st2" points="4736.2,798.6 5075,798.6 5085,727.9 4746.2,727.9 	"/>
	<path class="st3" d="M5232.5,429.9h-338.8h-634.6h-338.8H2803.2c-141.6,0-217,15.2-281.3,58.2c-98.1,68.3-166.9,179.5-184.1,300.9
		c-0.5,3.3-0.5,6.4-0.9,9.7h348.5c13-85.9,52.1-105.8,202-105.8h855h140.8H4222h634.6h338.8h313.5l37.2-263L5232.5,429.9
		L5232.5,429.9z"/>
	<polygon class="st0" points="4722.7,894.3 5061.5,894.3 5070,833.7 4731.3,833.7 	"/>
	<path class="st1" d="M3706.3,1198.5c-47.9,338.8,43.3,462.7,341.6,462.7h245.3l37.2-262.9h-134c-146.6,0-173.1-45.5-143.1-257.9
		l29.8-210.9h-338.8L3706.3,1198.5z"/>
	<path class="st1" d="M2433.3,1097.4c65.1,58.1,138.4,75.8,300.3,75.8h207.3c159.3,0,201.2,25.3,188,118.8
		c-8.6,60.7-41.1,93.6-97.7,101.1c-28.2,2.5-76.6,5-160,5h-601.7l-37.2,262.9h700.4c139,0,228.9-10.1,280.2-32.9
		c120.9-50.6,228.3-202.3,249.7-353.9c27.7-195.6-71.9-316.6-276-344.9h-845.4C2354.8,998.1,2386.5,1057.2,2433.3,1097.4"/>
</g>
<g>
	<g>
		<defs>
			<path id="SVGID_1_" d="M519,1021.7c0,347.7,281.9,629.6,629.7,629.6s629.7-281.9,629.7-629.6c0-347.8-281.9-629.7-629.7-629.7
				C801,392,519,673.9,519,1021.7"/>
		</defs>
		<clipPath id="SVGID_2_">
			<use xlink:href="#SVGID_1_"  style="overflow:visible;"/>
		</clipPath>

			<radialGradient id="SVGID_3_" cx="2291.7227" cy="-1262.598" r="1" gradientTransform="matrix(702.0084 0 0 702.0084 -1607541.125 887117.6875)" gradientUnits="userSpaceOnUse">
			<stop  offset="0" style="stop-color:#FFFFFF"/>
			<stop  offset="1" style="stop-color:#8C99A1"/>
		</radialGradient>
		<path class="st4" d="M1148.7,392L1148.7,392c347.8,0,629.7,281.9,629.7,629.7l0,0c0,347.8-281.9,629.7-629.7,629.7l0,0
			c-347.8,0-629.7-281.9-629.7-629.7l0,0C519,673.9,801,392,1148.7,392z"/>
	</g>
</g>
<radialGradient id="SVGID_4_" cx="869.9" cy="1389.45" r="222.198" gradientTransform="matrix(1 0 0 -1 0 2054)" gradientUnits="userSpaceOnUse">
	<stop  offset="0" style="stop-color:#77787B"/>
	<stop  offset="0.1011" style="stop-color:#77787B"/>
	<stop  offset="1" style="stop-color:#8F9DA5"/>
</radialGradient>
<path class="st5" d="M910.3,562.3c-207.9,6.8-334,195.3-334,195.3l-3.5,9.3c323.6-305.2,569.9-13.9,569.9-13.9l24.3-85
	c-96.8-48-177-105.8-252-105.8C913.4,562.2,911.8,562.2,910.3,562.3"/>
<radialGradient id="SVGID_5_" cx="1409.1149" cy="923.4001" r="288.8795" gradientTransform="matrix(1 0 0 -1 0 2054)" gradientUnits="userSpaceOnUse">
	<stop  offset="0" style="stop-color:#79868D"/>
	<stop  offset="0.2374" style="stop-color:#828F97"/>
	<stop  offset="0.4551" style="stop-color:#86939B"/>
	<stop  offset="0.7247" style="stop-color:#94A2AB"/>
	<stop  offset="1" style="stop-color:#8C99A1"/>
</radialGradient>
<path class="st6" d="M1307.3,888.2c154.4,125.6,268.4,300.2,297.7,426.5c22.5,96.9-24.1,164.7-24.1,164.7s1.7-1.3,6.9-6.5
	c31.7-49,38.3-110.3,31.7-160c-44.2-330.9-268.8-452.5-268.8-452.5s-128.1-78.7-150.8-78.6C1186.8,781.9,1208.1,807.5,1307.3,888.2"
	/>
<g>
	<path class="st7" d="M1664.8,1579.2c84.1,13.7,127.3-15.7,112.2-93c-34.7-178.9-344-520.9-719.7-795.7
		C681.7,415.6,381.8,311.9,416.5,490.9c15,77.3,49.3,142.8,155.1,267.9C445.3,611.2,407.9,519.3,377.7,429
		c-62-185.3,76.7-323.8,590.8,72.4c535.2,412.4,793.2,768.1,832.2,968.6C1818.9,1563.5,1766.1,1598,1664.8,1579.2"/>
	<path class="st3" d="M1664.8,1579.2c84.1,13.7,127.3-15.7,112.2-93c-34.7-178.9-344-520.9-719.7-795.7
		C681.7,415.6,381.8,311.9,416.5,490.9c15,77.3,49.3,142.8,155.1,267.9C445.3,611.2,407.9,519.3,377.7,429
		c-62-185.3,76.7-323.8,590.8,72.4c535.2,412.4,793.2,768.1,832.2,968.6C1818.9,1563.5,1766.1,1598,1664.8,1579.2"/>
</g>
<radialGradient id="SVGID_6_" cx="881" cy="1089.3999" r="281.5681" gradientTransform="matrix(1 0 0 -1 0 2054)" gradientUnits="userSpaceOnUse">
	<stop  offset="0" style="stop-color:#77787B"/>
	<stop  offset="0.1011" style="stop-color:#77787B"/>
	<stop  offset="1" style="stop-color:#87939B"/>
</radialGradient>
<path class="st8" d="M527.5,1127.1c0.9,3.5,3.5,14.7,4.8,20.8c212.7-217.3,702.2-306.5,702.2-306.5l-64.7-60.1
	C1169.8,781.3,718.7,859.3,527.5,1127.1"/>
<radialGradient id="SVGID_7_" cx="1555.9" cy="1235.75" r="153.556" gradientTransform="matrix(1 0 0 -1 0 2054)" gradientUnits="userSpaceOnUse">
	<stop  offset="0" style="stop-color:#77787B"/>
	<stop  offset="1.915675e-02" style="stop-color:#797B7E"/>
	<stop  offset="0.1911" style="stop-color:#8A9195"/>
	<stop  offset="0.3704" style="stop-color:#99A2A8"/>
	<stop  offset="0.5582" style="stop-color:#A3AFB6"/>
	<stop  offset="0.7599" style="stop-color:#A9B6BE"/>
	<stop  offset="1" style="stop-color:#ABB8C0"/>
</radialGradient>
<path class="st9" d="M1364.5,754.1c0,0-12.1,42.2-15.6,63c336.4-38.1,414,66.8,414,66.8s-3.5-14.3-6.5-28.6
	c-61.4-90.8-245.1-102.7-337.6-102.7C1385.9,752.6,1364.5,754.1,1364.5,754.1"/>
<g>
	<path class="st10" d="M1929.7,977.7c60.9-59.5,62.9-111.7-8.3-145.5C1756.8,754,1298,800,853.9,939.4
		c-444.2,139.4-705.5,319.2-540.9,397.5c71.2,33.8,143.7,52.4,307.1,41.5c-193.7,14.1-289.3-17.7-380-47
		c-185.9-60-215.2-253.9,408.8-432.6c649.5-186.1,1088.9-182.8,1273.4-95.2C2008.4,844.4,2005,907.4,1929.7,977.7"/>
	<path class="st2" d="M1929.7,977.7c60.9-59.5,62.9-111.7-8.3-145.5C1756.8,754,1298,800,853.9,939.4
		c-444.2,139.4-705.5,319.2-540.9,397.5c71.2,33.8,143.7,52.4,307.1,41.5c-193.7,14.1-289.3-17.7-380-47
		c-185.9-60-215.2-253.9,408.8-432.6c649.5-186.1,1088.9-182.8,1273.4-95.2C2008.4,844.4,2005,907.4,1929.7,977.7"/>
</g>
<radialGradient id="SVGID_8_" cx="994.8363" cy="839.438" r="285.6913" gradientTransform="matrix(1 0 0 -1 0 2054)" gradientUnits="userSpaceOnUse">
	<stop  offset="0" style="stop-color:#545456"/>
	<stop  offset="0.4706" style="stop-color:#6D7378"/>
	<stop  offset="1" style="stop-color:#839097"/>
</radialGradient>
<path class="st11" d="M908.8,1435.1c-59.3,34.9-109.1,41.7-182.4,53.1c20.8,17.3,15.9,13.9,24.3,19.9
	c99.4,20.8,417.3,50.6,509.8-554c9.2-33.5-6.9-22-13.4-41.5C1141.6,1164.4,1089.7,1334.7,908.8,1435.1"/>
<radialGradient id="SVGID_9_" cx="1276.3004" cy="1409.4679" r="180.0948" gradientTransform="matrix(1 0 0 -1 0 2054)" gradientUnits="userSpaceOnUse">
	<stop  offset="0" style="stop-color:#545456"/>
	<stop  offset="4.930335e-02" style="stop-color:#5B5C5F"/>
	<stop  offset="0.369" style="stop-color:#85878A"/>
	<stop  offset="0.6453" style="stop-color:#A3A5A8"/>
	<stop  offset="0.8648" style="stop-color:#B7B9BB"/>
	<stop  offset="1" style="stop-color:#BEC0C2"/>
</radialGradient>
<path class="st12" d="M1272.6,751.3c-78,317.3,36.4,1.7,36.4,1.7s91.5-274.8-80.6-355.4l-9.1-1.3
	C1219.3,396.2,1350.7,434,1272.6,751.3"/>
<path class="st1" d="M1165.7,190.1c32.4-78.6,115.1-88.2,142.9-14.5c64.4,170.5-19.3,623.9-194.8,1055.1
	c-175.5,431.1-376.3,676.8-440.7,506.3c-27.8-73.7-33.4-138.8-9.1-300.7c-30,191.8-13.2,281.1,8.6,373.8
	c44.5,190.2,235.3,235.4,464.9-371.7c239-631.9,272-1070.1,199.8-1261.2C1303.6,87.9,1204.9,94.9,1165.7,190.1"/>
<path class="st1" d="M2180,1906.2c8.6,5.4,21.6,10.3,35.8,10.3c16.3,0,25.4-7.7,25.4-19.7c0-10.5-6.7-16.9-25.4-23.2
	c-24.4-7.9-39.5-20.2-39.5-42.7c0-24,19.5-41.8,49.5-41.8c16.3,0,27.7,3.4,35.8,7.7l-6.5,21.9c-5.3-2.8-15.7-7.5-29.9-7.5
	c-16.5,0-23.2,9-23.2,17.4c0,11.2,8.5,16.3,27.5,23c25,9,37.5,21,37.5,43.8c0,22.3-15.7,43.5-53.5,43.5c-15.3,0-31.2-4.7-39.5-10.1
	L2180,1906.2z"/>
<polygon class="st1" points="2390.4,1872.8 2334.4,1872.8 2334.4,1914 2396.9,1914 2396.9,1936.3 2309,1936.3 2309,1791.7
	2393.7,1791.7 2393.7,1814 2334.4,1814 2334.4,1850.5 2390.4,1850.5 "/>
<path class="st1" d="M2437.9,1936.3v-144.6h30.3l38.3,62.2c10.2,16.9,18.3,33,25,49.3l0.6-0.2c-2-19.3-2.2-36.9-2.2-57.7v-53.6h23.6
	v144.6h-26.9l-38.7-64.4c-9.6-16.7-19.5-34.3-26.7-51.1l-0.8,0.2c1,19.3,1.2,38,1.2,59.6v55.6L2437.9,1936.3L2437.9,1936.3z"/>
<polygon class="st1" points="2682.8,1872.8 2626.8,1872.8 2626.8,1914 2689.2,1914 2689.2,1936.3 2601.4,1936.3 2601.4,1791.7
	2686.1,1791.7 2686.1,1814 2626.8,1814 2626.8,1850.5 2682.8,1850.5 "/>
<path class="st1" d="M2848.8,1928.8c-9.4,3.6-27.7,9-48.3,9c-25.2,0-44.2-6.9-58-21c-12.2-12.4-19.3-30.9-19.3-51.5
	c0-43.1,30.9-75.1,80.8-75.1c18.7,0,33.2,4.1,39.9,7.7l-5.7,21.7c-8.5-4.1-18.7-7.1-35.2-7.1c-31.8,0-53.3,19.7-53.3,50.8
	c0,30.9,20.2,52.3,52.3,52.3c10.4,0,18.3-1.5,22-3.4v-34.7h-26.3V1856h51.1V1928.8z"/>
<path class="st1" d="M2922.8,1894.2l-12.8,42h-26.5l46.8-144.6h33l48.1,144.6h-27.7l-13.8-42H2922.8z M2965.5,1873.6l-12-36.5
	c-3-8.6-5.3-17.4-7.5-25.1h-0.4c-2.2,7.9-4.1,16.5-6.7,25.1l-11.8,36.5H2965.5z"/>
<polygon class="st1" points="3049.5,1791.7 3074.9,1791.7 3074.9,1913.1 3135.6,1913.1 3135.6,1936.3 3049.5,1936.3 "/>
<polygon class="st1" points="3256.2,1814.2 3213.8,1814.2 3213.8,1791.7 3324.4,1791.7 3324.4,1814.2 3281.6,1814.2 3281.6,1936.3
	3256.2,1936.3 "/>
<path class="st1" d="M3358.6,1793.6c9.8-1.7,24.8-3.2,40.7-3.2c20.6,0,34.2,3.9,43.4,12c7.3,6.2,12,16.5,12,29
	c0,19.3-13,31.7-25.2,36v0.6c9.6,4.1,15.5,14.2,18.9,27.2c4.7,18,8.5,35.2,11.4,41h-25.9c-2.2-4.3-5.5-15.4-9.6-33.9
	c-4.3-18.7-11-24.9-25.9-25.3h-14.5v59.2h-25.2L3358.6,1793.6L3358.6,1793.6z M3383.7,1857.1h17.3c17.7,0,28.5-9,28.5-23.2
	c0-16.3-11.8-23-28.1-23c-9.4,0-14.9,0.9-17.7,1.5V1857.1z"/>
<path class="st1" d="M3528,1894.2l-12.8,42h-26.5l46.8-144.6h33l48.1,144.6h-27.7l-13.8-42H3528z M3570.6,1873.6l-12-36.5
	c-3-8.6-5.3-17.4-7.5-25.1h-0.4c-2.2,7.9-4.1,16.5-6.7,25.1l-11.8,36.5H3570.6z"/>
<path class="st1" d="M3654.7,1936.3v-144.6h30.3l38.3,62.2c10.2,16.9,18.3,33,25,49.3l0.6-0.2c-2-19.3-2.2-36.9-2.2-57.7v-53.6h23.6
	v144.6h-26.9l-38.7-64.4c-9.6-16.7-19.5-34.3-26.7-51.1l-0.8,0.2c1,19.3,1.2,38,1.2,59.6v55.6L3654.7,1936.3L3654.7,1936.3z"/>
<path class="st1" d="M3818.7,1906.2c8.7,5.4,21.6,10.3,35.8,10.3c16.3,0,25.4-7.7,25.4-19.7c0-10.5-6.7-16.9-25.4-23.2
	c-24.4-7.9-39.5-20.2-39.5-42.7c0-24,19.5-41.8,49.5-41.8c16.3,0,27.7,3.4,35.8,7.7l-6.5,21.9c-5.3-2.8-15.7-7.5-29.9-7.5
	c-16.5,0-23.2,9-23.2,17.4c0,11.2,8.4,16.3,27.5,23c25,9,37.5,21,37.5,43.8c0,22.3-15.7,43.5-53.5,43.5c-15.3,0-31.2-4.7-39.5-10.1
	L3818.7,1906.2z"/>
<rect x="3947.8" y="1791.7" class="st1" width="25.3" height="144.6"/>
<polygon class="st1" points="4050,1814.2 4007.5,1814.2 4007.5,1791.7 4118.2,1791.7 4118.2,1814.2 4075.3,1814.2 4075.3,1936.3
	4050,1936.3 "/>
<polygon class="st1" points="4234.9,1814.2 4192.4,1814.2 4192.4,1791.7 4303.1,1791.7 4303.1,1814.2 4260.2,1814.2 4260.2,1936.3
	4234.9,1936.3 "/>
<path class="st1" d="M4337.2,1793.6c9.8-1.7,24.8-3.2,40.7-3.2c20.6,0,34.2,3.9,43.4,12c7.3,6.2,12,16.5,12,29
	c0,19.3-13,31.7-25.2,36v0.6c9.6,4.1,15.5,14.2,18.9,27.2c4.7,18,8.5,35.2,11.4,41h-25.9c-2.2-4.3-5.5-15.4-9.6-33.9
	c-4.3-18.7-11-24.9-25.9-25.3h-14.5v59.2h-25.2L4337.2,1793.6L4337.2,1793.6z M4362.4,1857.1h17.3c17.7,0,28.5-9,28.5-23.2
	c0-16.3-11.8-23-28.1-23c-9.4,0-14.9,0.9-17.7,1.5L4362.4,1857.1L4362.4,1857.1z"/>
<path class="st1" d="M4506.6,1894.2l-12.8,42h-26.5l46.8-144.6h33l48.1,144.6h-27.7l-13.8-42H4506.6z M4549.2,1873.6l-12-36.5
	c-3-8.6-5.3-17.4-7.5-25.1h-0.4c-2.2,7.9-4.1,16.5-6.7,25.1l-11.8,36.5H4549.2z"/>
<path class="st1" d="M4633.3,1936.3v-144.6h30.3l38.3,62.2c10.2,16.9,18.3,33,25,49.3l0.6-0.2c-2-19.3-2.2-36.9-2.2-57.7v-53.6h23.6
	v144.6H4722l-38.7-64.4c-9.6-16.7-19.5-34.3-26.7-51.1l-0.8,0.2c1,19.3,1.2,38,1.2,59.6v55.6L4633.3,1936.3L4633.3,1936.3z"/>
<path class="st1" d="M4797.4,1906.2c8.7,5.4,21.6,10.3,35.8,10.3c16.3,0,25.4-7.7,25.4-19.7c0-10.5-6.7-16.9-25.4-23.2
	c-24.4-7.9-39.5-20.2-39.5-42.7c0-24,19.5-41.8,49.5-41.8c16.3,0,27.7,3.4,35.8,7.7l-6.5,21.9c-5.3-2.8-15.7-7.5-29.9-7.5
	c-16.5,0-23.2,9-23.2,17.4c0,11.2,8.4,16.3,27.5,23c25,9,37.5,21,37.5,43.8c0,22.3-15.7,43.5-53.5,43.5c-15.3,0-31.2-4.7-39.5-10.1
	L4797.4,1906.2z"/>
<path class="st1" d="M4926.4,1793.4c9.4-1.5,22.6-3,41.3-3c18.9,0,32.4,4.5,41.1,12c8.1,7.1,13.8,18.4,13.8,32.4
	c0,13.5-3.9,25.1-11.8,32.8c-10.4,10.7-26.1,15.9-45.4,15.9c-5.3,0-10-0.4-13.8-1.3v54.1h-25.2V1793.4z M4951.6,1860.8
	c3.5,1.1,8.2,1.5,14.1,1.5c19.5,0,31.6-9.7,31.6-26.8c0-16.7-12-24.2-29.5-24.2c-8.1,0-13.6,0.6-16.3,1.3L4951.6,1860.8
	L4951.6,1860.8z"/>
<path class="st1" d="M5124.3,1938.8c-41.1,0-68.2-31.3-68.2-73.4c0-44.8,29.1-76.4,70.2-76.4c42.5,0,69,31.3,69,73.6
	c0,46.5-30.1,76.2-70.7,76.2L5124.3,1938.8L5124.3,1938.8z M5125.7,1917.4c26.5,0,42.8-23,42.8-53.8c0-27.7-15.1-53-42.6-53
	c-27.7,0-43,24.7-43,54.3c0,28.7,16.3,52.6,42.6,52.6L5125.7,1917.4L5125.7,1917.4z"/>
<path class="st1" d="M5235.9,1793.6c9.8-1.7,24.8-3.2,40.7-3.2c20.6,0,34.2,3.9,43.4,12c7.3,6.2,12,16.5,12,29
	c0,19.3-13,31.7-25.2,36v0.6c9.6,4.1,15.5,14.2,18.9,27.2c4.7,18,8.5,35.2,11.4,41h-25.9c-2.2-4.3-5.5-15.4-9.6-33.9
	c-4.3-18.7-11-24.9-25.9-25.3H5261v59.2h-25.2v-142.6H5235.9z M5261,1857.1h17.3c17.7,0,28.5-9,28.5-23.2c0-16.3-11.8-23-28.1-23
	c-9.4,0-14.9,0.9-17.7,1.5L5261,1857.1L5261,1857.1z"/>
<polygon class="st1" points="5405,1814.2 5362.6,1814.2 5362.6,1791.7 5473.2,1791.7 5473.2,1814.2 5430.4,1814.2 5430.4,1936.3
	5405,1936.3 "/>
</svg>
