<?xml version="1.0" encoding="utf-8"?>
<!-- Generator: Adobe Illustrator 22.0.0, SVG Export Plug-In . SVG Version: 6.00 Build 0)  -->
<svg version="1.1" id="Calque_1" xmlns="http://www.w3.org/2000/svg" xmlns:xlink="http://www.w3.org/1999/xlink" x="0px" y="0px"
	 viewBox="0 0 792 593.5" style="enable-background:new 0 0 792 593.5;" xml:space="preserve">
<g>
	<path d="M587,565.1c2.2,0,4.4,0,6.6,0c32,0,64.1,0,96.1,0c1.5,0,3-0.1,4.5,0c5.7,0.3,9.9,4,10,8.6c0.1,4.6-4.1,8.4-9.7,8.8
		c-1.5,0.1-3,0-4.5,0c-196.1,0-392.2,0-588.2,0c-2.6,0-5.7,0.3-7.6-0.9c-2.6-1.8-5.5-4.7-6.1-7.6c-0.8-3.9,2.1-7,6.1-8.1
		c2.1-0.6,4.4-0.7,6.6-0.7c32.6,0,65.2,0,97.8,0c2,0,4,0,6.3,0c-0.3-4.5-0.9-8.6-0.9-12.6c0-170.4,0-340.8-0.1-511.2
		c0-7.5,1.2-14.5,5.9-20.5c5.6-7,13-10.1,22-10.1c46.2,0,92.4,0,138.5,0c62.4,0,124.8,0,187.1,0c19.8,0,30.4,10.5,30.4,30.2
		c0,170.6,0,341.1,0,511.7C587.9,556.7,587.4,560.6,587,565.1z M570.5,297c0-85.1,0-170.2,0-255.3c0-10.8-2.6-13.4-13.5-13.4
		c-107.3,0-214.6,0-321.8,0c-11,0-13.6,2.5-13.6,13.4c0,170,0,340.1,0,510.1c0,10.8,2.5,13.4,13.6,13.4c107.3,0,214.6,0,321.8,0
		c11.2,0,13.6-2.5,13.6-13.9C570.5,466.5,570.5,381.8,570.5,297z" fill="currentColor"/>
	<path d="M606.4,101c0-6,0-11.6,0-17.9c9,2.4,17.7,4.8,26.4,7.2c9.3,2.6,18.6,5.2,27.9,7.7c16.6,4.6,24.4,18.3,19.5,34.8
		c-23.4,79.5-46.9,158.9-70.4,238.4c-0.9,3.2-1.9,6.3-3.6,9.4c0-7.7,0.5-15.4-0.1-23c-1.9-24.7,3.2-48.1,10.5-71.6
		c16.1-51.8,31-104,46.4-156c2.9-9.8,1-12.9-9-15.7C638.1,110,622.3,105.5,606.4,101z" fill="currentColor"/>
	<path d="M184.9,380.8c-5.4-18.3-10.8-36.6-16.2-54.9c-19-64.3-38-128.6-57-193c-4.7-16.1,2.6-29.9,18.4-34.4
		c18.2-5.2,36.5-10.1,55.2-15.3c0,6.1,0,11.8,0,18c-11.9,3.3-24,6.7-36.1,10.1c-4.5,1.2-9,2.4-13.4,3.7c-7.3,2.1-9.5,6-7.3,13.5
		c12.9,43.9,25.8,87.7,38.8,131.5c5.7,19.2,11.4,38.5,17.1,57.7c0.7,2.3,1.2,4.7,1.3,7.1c0.1,18.6,0.1,37.2,0.1,55.8
		C185.5,380.6,185.2,380.7,184.9,380.8z" fill="currentColor"/>
	<path d="M728.7,582.6c-2.2,0-4.5,0.2-6.7,0c-4.9-0.4-8.4-4.2-8.4-8.7c0-4.2,3.5-8.2,8-8.5c5-0.3,10-0.3,15,0
		c4.5,0.3,7.9,4.4,7.8,8.7c0,4.4-3.4,8.1-8,8.6C733.9,582.8,731.3,582.6,728.7,582.6C728.7,582.6,728.7,582.6,728.7,582.6z" fill="currentColor"/>
	<path d="M62.8,582.6c-2,0-4.1,0.1-6.1,0c-5.4-0.3-9.1-3.7-9.2-8.6c-0.1-4.8,3.6-8.6,8.9-8.8c4.3-0.2,8.5-0.2,12.8,0
		c5.3,0.2,9.1,3.9,9.2,8.5c0.1,4.9-3.8,8.6-9.4,8.9C66.9,582.7,64.9,582.6,62.8,582.6z" fill="currentColor"/>
	<path d="M771.2,573.9c0,4.8-4.2,8.8-9,8.6c-4.6-0.2-8.4-4.2-8.4-8.7c0-4.8,4.3-8.8,9.1-8.6C767.5,565.4,771.3,569.4,771.2,573.9z"
		 fill="currentColor"/>
	<path d="M38.1,573.8c0.1,4.6-3.7,8.6-8.3,8.8c-4.8,0.2-9-3.7-9.1-8.5c-0.1-4.6,3.7-8.6,8.3-8.8C33.9,565,38.1,568.9,38.1,573.8z" fill="currentColor"/>
	<path d="M476.2,511.7c0,2.8,0.1,5.5,0,8.3c-0.3,5.4-4,9-8.8,8.9c-4.9-0.1-8.3-3.7-8.6-9.1c-0.1-1.1-0.2-2.3,0-3.3
		c0.7-4.2-1-6.1-5.1-7.4c-12.3-3.8-21.6-11.5-26.9-23.4c-2.5-5.7-1.1-10.8,3.4-13c4.9-2.4,9.5-0.3,12.5,5.7
		c6.7,13.3,23.5,19.8,37,14.2c5-2.1,9.4-5.1,9.7-11.1c0.2-6-3.4-9.8-8.7-11.8c-7.5-2.8-15.1-5.1-22.7-7.5c-9-2.9-17.4-6.8-22.9-14.9
		c-12.6-18.3-4.4-41.2,17.4-47.5c5.6-1.6,7.2-4,6.5-9.2c-0.2-1.6-0.2-3.4,0.1-5c0.8-4.8,3.5-7.8,8.5-8c4.4-0.2,9.3,3.3,8.6,7.7
		c-1.7,10.4,3.8,13.6,12.2,16.7c10.1,3.8,17,11.8,20.6,22.2c1.9,5.4-0.2,10.3-4.8,12c-4.6,1.7-9.2-0.3-11.2-5.5
		c-6.7-17.2-26.9-18.9-38.1-13.4c-10.2,5-11.5,17.1-1.9,23.3c5,3.3,11.2,4.9,16.9,7c6.4,2.4,13.2,4,19.4,6.9
		c12.4,5.9,18.8,16.6,17.4,29.1c-1.4,13.1-9.6,20.9-21.3,25.5C482.4,510.1,479.5,510.7,476.2,511.7z" fill="currentColor"/>
	<path d="M347,207.3c0-41.3,0-82.7,0-124c0-1.5-0.2-3,0.1-4.5c0.8-4.6,3.8-7.2,8.4-7.6c4.2-0.4,8.3,3.2,8.9,7.6
		c0.2,1.6,0.1,3.3,0.1,5c0,65.7,0,131.5,0,197.2c0,17.1,0,34.3,0,51.4c0,7.1-3.4,11.1-9,10.9c-5.4-0.2-8.4-4-8.4-11
		C347,290.8,347,249,347,207.3z" fill="currentColor"/>
	<path d="M324.5,502.6c21,0,42,0,63,0c1.5,0,3-0.1,4.5,0.1c4.7,0.5,8.6,4.6,8.2,9c-0.4,4.9-3.4,7.9-8.2,8.3
		c-4.4,0.4-8.9,0.1-13.4,0.1c-38.9,0-77.7,0-116.6,0c-1.3,0-2.6,0-3.9,0c-5.6-0.3-9.5-4.1-9.3-9c0.2-4.6,4.1-8.3,9.4-8.4
		c11.3-0.1,22.7,0,34,0C302.9,502.6,313.7,502.6,324.5,502.6z" fill="currentColor"/>
	<path d="M325,448.5c-21.9,0-43.9,0-65.8,0c-8,0-13.1-6.9-9.1-12.6c1.7-2.4,5.7-4.6,8.7-4.6c43.9-0.3,87.8-0.2,131.7-0.2
		c5.7,0,9.7,3.7,9.8,8.5c0.1,5-4,8.9-10,8.9C368.5,448.5,346.8,448.5,325,448.5z" fill="currentColor"/>
	<path d="M467.5,323.8c21.8,0,43.5,0,65.3,0c5,0,8.7,1.8,10.1,6.9c1.5,5.5-2.7,10.4-9,10.5c-8.7,0.2-17.5,0.1-26.2,0.1
		c-34.2,0-68.4,0-102.7,0c-1.7,0-3.4,0.1-5-0.1c-4.9-0.7-7.7-3.6-8.2-8.4c-0.4-4.3,3.5-8.6,8.3-8.9c4.4-0.3,8.9-0.1,13.4-0.1
		C431.4,323.8,449.5,323.8,467.5,323.8z" fill="currentColor"/>
	<path d="M467.5,252.3c21.8,0,43.5,0,65.3,0c6.8,0,11.4,4.6,10.3,10.1c-0.9,4.6-4.6,7.3-10.4,7.3c-21.4,0-42.8-0.2-64.2-0.2
		c-22.1,0-44.3,0.1-66.4,0.2c-4.6,0-8.5-1.4-9.6-5.9c-0.6-2.6,0.3-6.3,1.8-8.5c1.2-1.7,4.4-2.9,6.8-2.9c18.8-0.2,37.6-0.1,56.4-0.1
		C460.8,252.3,464.2,252.3,467.5,252.3C467.5,252.3,467.5,252.3,467.5,252.3z" fill="currentColor"/>
	<path d="M467.6,180.7c21.8,0,43.5,0,65.3,0c7.8,0,12.9,6.4,9.3,12.1c-1.6,2.6-5.8,5-8.9,5.1c-43.9,0.3-87.8,0.2-131.7,0.2
		c-5.7,0-9.7-3.7-9.8-8.5c-0.1-5,4-8.9,10-8.9C423.7,180.7,445.6,180.7,467.6,180.7z" fill="currentColor"/>
	<path d="M467,109.2c21.9,0,43.9,0,65.8,0c7.9,0,12.9,6.4,9.2,12.2c-1.7,2.6-5.8,5-8.9,5.1c-43.9,0.3-87.8,0.2-131.7,0.2
		c-5.7,0-9.7-3.7-9.8-8.5c-0.1-5,4.1-8.9,10-8.9C423.5,109.2,445.3,109.2,467,109.2z" fill="currentColor"/>
	<path d="M282,126.7c-7.6,0-15.2,0-22.9,0c-6.1-0.1-10.3-3.5-10.4-8.5c-0.2-5.2,4.1-8.9,10.5-8.9c15.2-0.1,30.5-0.1,45.7,0
		c6.3,0,10.1,3.2,10.3,8.5c0.1,5.5-3.8,8.9-10.4,8.9C297.3,126.7,289.7,126.7,282,126.7z" fill="currentColor"/>
	<path d="M282.3,252.3c7.6,0,15.2-0.1,22.8,0c6.2,0.1,10.1,3.4,10.2,8.6c0.1,5.2-3.8,8.8-10,8.8c-15.2,0.1-30.5,0.1-45.7,0
		c-6.7,0-10.8-3.4-10.9-8.7c-0.1-5.3,4.3-8.7,11.2-8.8C267.4,252.2,274.9,252.3,282.3,252.3z" fill="currentColor"/>
	<path d="M282.2,180.7c7.6,0,15.2,0,22.9,0c6.2,0,10.1,3.4,10.3,8.5c0.1,5.4-3.8,8.9-10.5,8.9c-15.2,0-30.5,0.1-45.7,0
		c-6.2,0-10.2-3.5-10.4-8.5c-0.2-5.1,4.2-8.9,10.6-8.9C266.9,180.7,274.6,180.7,282.2,180.7z" fill="currentColor"/>
	<path d="M282.1,341.2c-7.8,0-15.6,0.1-23.4,0c-6-0.1-10.1-3.9-10-8.9c0.1-4.8,4.2-8.5,9.8-8.5c15.6-0.1,31.2-0.1,46.8,0
		c6.1,0,10,3.7,9.9,8.9c-0.1,4.9-3.9,8.4-9.7,8.5C297.8,341.3,290,341.2,282.1,341.2z" fill="currentColor"/>
</g>
</svg>
