<?xml version="1.0" encoding="utf-8"?>
<!-- Generator: Adobe Illustrator 22.0.0, SVG Export Plug-In . SVG Version: 6.00 Build 0)  -->
<svg version="1.1" id="Calque_1" xmlns="http://www.w3.org/2000/svg" xmlns:xlink="http://www.w3.org/1999/xlink" x="0px" y="0px"
	 viewBox="0 0 29.4 29.6" style="enable-background:new 0 0 29.4 29.6;" xml:space="preserve">
<style type="text/css">
	.st0{fill:#FFFFFF;}
</style>
<g>
	<path class="st0" d="M29.1,28.5c-0.2,0.5-0.6,0.7-1.2,0.7c-4.8,0-9.7,0-14.5,0c-0.6,0-1-0.4-1-1c0-0.5,0.4-0.9,1-0.9
		c1.5,0,3,0,4.5,0c3,0,6,0,9,0c0.1,0,0.2,0,0.3,0c0-0.1,0-0.2,0-0.3c0-6.4,0-12.8,0-19.2c0-1.1,0-2.3,0-3.4c0-0.6,0.3-0.9,0.7-1
		c0.5-0.1,0.8,0.1,1.1,0.6c0,0,0,0,0,0C29.1,12.3,29.1,20.4,29.1,28.5z"/>
	<path class="st0" d="M29.1,1.5c-0.2,0.5-0.7,0.7-1.2,0.7c-6.7,0-13.4,0-20.1,0c-0.2,0-0.4,0-0.7,0c0,0.2,0,0.5,0,0.7
		c0,4.1,0,8.3,0,12.4c0,0.2,0,0.3,0,0.5c-0.1,0.5-0.4,0.8-0.9,0.8c-0.5,0-0.9-0.3-0.9-0.8c0-0.5,0-0.9,0-1.4c0-4.3,0-8.5,0-12.8
		c0-0.6,0.2-1,0.7-1.2c7.5,0,15,0,22.5,0C28.8,0.5,29,0.7,29.1,1C29.1,1.2,29.1,1.3,29.1,1.5z"/>
	<path class="st0" d="M10.7,18.9c-0.2,0-0.3,0-0.5,0c0,0.5,0.1,0.9,0.1,1.4c0.1,0.7,0.2,1.3,0.2,2c0.1,0.5-0.3,1-0.8,1
		c-0.5,0.1-1-0.2-1.1-0.8c-0.1-0.9-0.2-1.8-0.3-2.8c0-0.3-0.1-0.5-0.1-0.8c-0.2,0-0.3,0-0.5,0c0,0.1,0,0.2,0,0.3c0,1,0,2,0,3
		c0,0.6-0.3,0.9-0.7,1c-0.6,0.1-1.1-0.3-1.1-0.9c0-1,0-2,0-3c0-0.1,0-0.3,0-0.4c-0.2,0-0.4,0-0.5,0c-0.1,0.6-0.2,1.3-0.2,1.9
		C5,21.3,5,21.9,4.9,22.4c-0.1,0.6-0.5,0.9-1,0.8c-0.5,0-0.9-0.5-0.8-1c0.1-0.9,0.2-1.8,0.3-2.7c0-0.2,0-0.4,0.1-0.6
		c-0.4-0.1-0.5-0.1-0.6,0.3c-0.2,1.1-0.5,2.1-0.7,3.2C2,23,1.5,23.3,1,23.2c-0.5-0.1-0.8-0.6-0.7-1.2c0.3-1.4,0.6-2.7,1-4.1
		C1.4,17.3,1.7,17,2.4,17c3,0,5.9,0,8.9,0c0.7,0,1,0.2,1.1,0.9c0.3,1.4,0.6,2.7,1,4.1c0.1,0.5-0.1,1-0.5,1.2
		c-0.4,0.2-0.9,0.1-1.1-0.3c-0.1-0.2-0.2-0.5-0.3-0.7C11.2,21,10.9,20,10.7,18.9z"/>
	<path class="st0" d="M3.5,27.3c2.2,0,4.4,0,6.6,0c0-0.1,0-0.2,0-0.3c0-0.9,0-1.9,0-2.8c0-0.6,0.4-1,0.9-1c0.5,0,0.9,0.4,0.9,1
		c0,1.3,0,2.6,0,3.9c0,0.7-0.4,1.1-1.1,1.1c-2.7,0-5.5,0-8.2,0c-0.7,0-1-0.3-1.1-1c0-1.3,0-2.7,0-4c0-0.5,0.3-0.9,0.8-1
		c0.4-0.1,0.8,0.2,1,0.6c0.1,0.2,0.1,0.3,0.1,0.5c0,0.9,0,1.8,0,2.7C3.5,27.1,3.5,27.2,3.5,27.3z"/>
	<path class="st0" d="M13.7,15.8c-1.5,0-3,0-4.5,0c-0.6,0-1-0.4-1-0.9c0-0.5,0.4-1,1-1c3,0,6,0,9,0c0.6,0,1,0.4,1,1
		c0,0.5-0.4,0.9-1,0.9C16.7,15.8,15.2,15.8,13.7,15.8z"/>
	<path class="st0" d="M13.7,9c-1.5,0-2.9,0-4.4,0C9.2,9,9,9,8.9,8.9C8.5,8.8,8.2,8.4,8.2,8c0-0.4,0.3-0.8,0.7-0.9c0.1,0,0.3,0,0.4,0
		c2.9,0,5.8,0,8.8,0c0.1,0,0.2,0,0.3,0c0.5,0.1,0.8,0.5,0.8,1c0,0.5-0.4,0.9-0.9,0.9C16.8,9,15.2,9,13.7,9C13.7,9,13.7,9,13.7,9z"/>
	<path class="st0" d="M22.2,22c0.1-0.2,0.2-0.3,0.4-0.4c0.7-0.7,1.4-1.4,2.1-2.1c0.4-0.4,1-0.4,1.3,0c0.4,0.4,0.4,0.9,0,1.3
		c-1,1-2,2.1-3.1,3.1c-0.4,0.4-0.9,0.4-1.3,0c-0.5-0.5-1-1-1.5-1.5c-0.4-0.4-0.3-0.9,0-1.3c0.4-0.4,0.9-0.4,1.3,0
		C21.7,21.4,21.9,21.7,22.2,22z"/>
	<path class="st0" d="M22.2,15c0.8-0.8,1.6-1.6,2.4-2.4c0.3-0.3,0.5-0.4,0.9-0.3c0.7,0.2,1,1,0.5,1.6c-0.5,0.5-1,1-1.5,1.5
		c-0.5,0.5-1,1-1.5,1.5c-0.5,0.5-1,0.5-1.5,0c-0.4-0.4-0.9-0.9-1.3-1.3c-0.5-0.6-0.3-1.4,0.4-1.6c0.4-0.1,0.6,0,0.9,0.3
		C21.7,14.5,21.9,14.8,22.2,15z"/>
	<path class="st0" d="M22.2,8.1c0.2-0.3,0.5-0.5,0.7-0.7c0.6-0.6,1.2-1.2,1.8-1.8c0.4-0.4,0.9-0.3,1.3,0c0.3,0.3,0.4,0.9,0,1.3
		c-1,1.1-2.1,2.1-3.2,3.2c-0.4,0.4-0.9,0.3-1.2,0c-0.5-0.5-1-1-1.5-1.5c-0.4-0.4-0.3-0.9,0-1.3c0.4-0.4,0.9-0.4,1.3,0
		C21.7,7.5,21.9,7.8,22.2,8.1z"/>
	<path class="st0" d="M16.7,20.8c0.5,0,1.1,0,1.6,0c0.6,0,1,0.4,1,0.9c0,0.5-0.4,0.9-0.9,0.9c-1.1,0-2.1,0-3.2,0
		c-0.5,0-0.9-0.4-0.9-0.9c0-0.5,0.4-0.9,0.9-0.9C15.6,20.8,16.1,20.8,16.7,20.8z"/>
</g>
</svg>
