<svg width="31" height="31" viewBox="0 0 31 31" fill="none" xmlns="http://www.w3.org/2000/svg">
    <g>
        <path d="M12.7122 0.73288C14.5684 0.73288 16.4247 0.73288 18.2881 0.73288C18.6709 0.894109 18.8659 1.19458 18.9526 1.59765C19.0682 2.13264 19.2488 2.65297 19.3138 3.19529C19.4004 3.88418 19.7038 4.31657 20.3899 4.44115C20.5127 4.46314 20.6716 4.47047 20.7728 4.41184C21.4445 4.02342 22.109 3.60569 22.7734 3.20262C23.2935 2.88749 23.6402 2.93146 24.0735 3.37118C25.2147 4.5291 26.3487 5.68702 27.4899 6.84494C27.8944 7.25534 27.9377 7.59978 27.6344 8.11278C27.3527 8.58914 27.1071 9.09482 26.7821 9.54186C26.3848 10.0769 26.2765 10.5825 26.6521 11.1688C26.746 11.3154 26.811 11.4253 26.9843 11.4693C27.7138 11.6378 28.4361 11.8357 29.1656 11.9969C29.5773 12.0922 29.9023 12.2754 30.0756 12.6785C30.0756 14.562 30.0756 16.4454 30.0756 18.3362C29.9095 18.7319 29.5989 18.9298 29.1945 19.0104C28.6094 19.135 28.0388 19.3182 27.4538 19.4208C26.9626 19.5088 26.6087 19.6847 26.5076 20.2196C26.4932 20.3003 26.4498 20.3809 26.4065 20.4542C26.3198 20.5934 26.3487 20.7107 26.4354 20.8499C26.8471 21.5388 27.2588 22.235 27.6632 22.9239C27.9449 23.4003 27.9016 23.752 27.5188 24.1404C26.3632 25.3203 25.2075 26.5003 24.0447 27.6728C23.6546 28.0686 23.3007 28.1052 22.8168 27.8194C22.239 27.4676 21.6467 27.1378 21.0978 26.7568C20.7583 26.5222 20.4766 26.5149 20.0938 26.6761C19.7038 26.8374 19.5015 27.0426 19.4293 27.475C19.321 28.0979 19.1332 28.7135 18.9815 29.3291C18.9671 29.3291 18.9526 29.3218 18.9382 29.3218C18.9382 29.2265 18.9382 29.1312 18.9382 29.036C18.9382 26.962 18.9454 24.8806 18.931 22.8066C18.931 22.5648 19.0032 22.4402 19.2126 22.3156C21.5384 20.9452 22.8962 18.9151 23.1563 16.1816C23.4741 12.8617 21.5961 9.67378 18.5698 8.35463C17.8114 8.02484 17.2336 8.41326 17.2336 9.24139C17.2336 11.0882 17.2336 12.935 17.2408 14.7818C17.2408 14.9797 17.183 15.0969 17.0241 15.1995C16.5908 15.478 16.1646 15.7638 15.7457 16.0643C15.594 16.1742 15.4857 16.1889 15.3268 16.0716C14.9007 15.7638 14.4673 15.4707 14.0267 15.1922C13.8678 15.0896 13.8245 14.9797 13.8245 14.7965C13.8317 12.9497 13.8317 11.1029 13.8317 9.25605C13.8317 8.40593 13.2539 8.02484 12.481 8.36196C9.3536 9.74706 7.46124 13.1036 7.93794 16.5187C8.29908 19.113 9.64973 21.0551 11.8888 22.3449C12.0693 22.4475 12.1344 22.5575 12.1344 22.77C12.1271 24.8733 12.1271 26.9839 12.1271 29.0873C12.1271 29.1679 12.1271 29.2485 12.1271 29.3218C11.9393 28.7428 11.766 28.1638 11.6649 27.5702C11.5782 27.0939 11.4121 26.7494 10.8993 26.6615C10.8054 26.6468 10.7259 26.5662 10.6392 26.5589C10.5237 26.5442 10.3792 26.5296 10.2853 26.5882C9.59917 26.9913 8.92023 27.4163 8.23407 27.8267C7.77182 28.1052 7.40346 28.0686 7.02788 27.6875C5.85779 26.5076 4.69493 25.3203 3.53207 24.1331C3.15649 23.752 3.11315 23.4003 3.38039 22.9386C3.68375 22.4182 3.95821 21.8759 4.3049 21.3922C4.65882 20.9012 4.76716 20.4395 4.41324 19.9192C4.3988 19.8972 4.39158 19.8679 4.38435 19.8386C4.34824 19.6553 4.22545 19.5821 4.05211 19.5381C3.27205 19.3475 2.492 19.157 1.71194 18.9591C1.20635 18.8345 0.97522 18.5414 0.97522 18.0211C0.97522 16.3355 0.97522 14.6572 0.97522 12.9717C0.97522 12.466 1.21357 12.1655 1.69749 12.0409C2.33309 11.8797 2.96147 11.6965 3.59707 11.5792C4.08822 11.4913 4.44214 11.3081 4.53603 10.7731C4.55048 10.6925 4.59381 10.6118 4.63715 10.5386C4.72382 10.3993 4.69493 10.2821 4.60826 10.1428C4.19656 9.45392 3.78487 8.76503 3.38039 8.06881C3.09871 7.58512 3.14204 7.24068 3.52485 6.85226C4.67326 5.67969 5.8289 4.50711 6.97732 3.34186C7.37457 2.93879 7.74293 2.88749 8.22685 3.18063C8.69633 3.46645 9.1947 3.71562 9.63529 4.04541C10.1625 4.44848 10.6609 4.55841 11.246 4.19198C11.3904 4.09671 11.4988 4.02342 11.5349 3.84754C11.7082 3.09269 11.9032 2.33784 12.0693 1.583C12.1416 1.19458 12.3294 0.894109 12.7122 0.73288Z" fill="currentColor"/>
        <path d="M18.9093 10.5606C20.7583 11.7698 21.9356 14.3861 21.2928 16.9951C20.65 19.6187 18.2592 21.5388 15.594 21.5608C12.8133 21.5901 10.4081 19.7506 9.71473 17.0464C9.03579 14.3788 10.1914 11.8211 12.0838 10.5532C12.0838 10.6778 12.0838 10.7804 12.0838 10.8757C12.0838 12.3634 12.091 13.8584 12.0766 15.3461C12.0766 15.7712 12.2355 16.079 12.5822 16.3062C13.3622 16.8192 14.135 17.3395 14.9007 17.8745C15.3051 18.153 15.6807 18.1603 16.0852 17.8818C16.8508 17.3542 17.6236 16.8265 18.4037 16.3135C18.7648 16.079 18.9237 15.7639 18.9165 15.3241C18.9093 13.7485 18.9093 12.1728 18.9093 10.5606Z" fill="currentColor"/>
        <path d="M17.1905 30.2671C16.0566 30.2671 14.9515 30.2671 13.8175 30.2671C13.8175 27.8853 13.8175 25.5109 13.8175 23.1071C14.937 23.3563 16.0566 23.3563 17.1905 23.1071C17.1905 25.5035 17.1905 27.8707 17.1905 30.2671Z" fill="currentColor"/>
    </g>
</svg>
