<svg version="1.1" id="Calque_1" xmlns="http://www.w3.org/2000/svg" xmlns:xlink="http://www.w3.org/1999/xlink" x="0px" y="0px"
     viewBox="0 0 375 345.1" width="24" height="24" style="enable-background:new 0 0 375 345.1;" xml:space="preserve">
    <g>
        <path d="M24.1,209.8c-4.1-24.5-1.6-50.5,9.5-75.6c22.1-49.9,72.9-86.6,128-87.7c14.7-0.3,16.8,1.7,16.8,16.1
            c0.1,39.4-0.1,78.8,0.2,118.2c0.1,6.4,1.3,13.2,3.5,19.2c13.5,37.3,27.6,74.4,41.3,111.7c4.4,11.9,2.8,15-8.8,18.9
            C127.8,360.2,38.1,292.8,24.1,209.8z" fill="currentColor"/>
        <path d="M351.3,155.9c-10.1,16-33.6,12.1-49.5,10.9c-29.9-2.3-59.1-4-89-4.1c-12.6,0-14.7-2.3-14.7-15
            c-0.1-41.9-0.2-83.8,0.2-125.7c0.3-31.3,55.8-7.7,69.6-1.6c28.2,12.5,51.6,35.1,66.8,61.8C342.6,96.5,362.8,137.6,351.3,155.9z" fill="currentColor"/>
        <path d="M353.3,208c-2.2,8.9-3.9,17.9-6.7,26.6c-13.7,42.6-41.1,73.1-81.7,91.7c-12.6,5.8-15.9,4.4-20.6-8.3
            c-14.7-39.2-29.3-78.4-43.8-117.6c-4.9-13.3-2-17.8,12.3-17.8c23.1-0.1,46.2-0.2,69.2-0.1c15.8,0,31.6-3.4,47.3-1.7
            C350,183.1,353.3,188.2,353.3,208z" fill="currentColor"/>
    </g>
</svg>
