<?xml version="1.0" encoding="utf-8"?>
<!-- Generator: Adobe Illustrator 22.0.0, SVG Export Plug-In . SVG Version: 6.00 Build 0)  -->
<svg version="1.1" id="Calque_1" xmlns="http://www.w3.org/2000/svg" xmlns:xlink="http://www.w3.org/1999/xlink" x="0px" y="0px"
	 viewBox="0 0 914 914" style="enable-background:new 0 0 914 914;" xml:space="preserve">
<style type="text/css">
	.st0{fill:#FFFFFF;}
</style>
<g>
	<path d="M873.9,471.4c0,127,0,253.1,0,379.7c-277.8,0-555.2,0-833.5,0c0-3.6,0-6.7,0-9.8c0-124.9,0.1-249.9-0.2-374.8
		c0-8.2,2.8-10.8,10.1-12.7c38-10,76.1-19.9,113.8-31c12.9-3.8,25.1-10.6,37.1-17.1c79.3-42.7,158.4-85.9,237.8-128.5
		c6.1-3.3,13.7-3.8,22.3-6.1c0-6.8,0-16.5,0-27.4c-8.3,0-17,0.4-25.6-0.2c-2.6-0.2-6.5-2.7-7.2-4.9C411,181.2,394,124,376.9,66.7
		c-0.3-1,0-2.3,0-3.9c66.5,0,132.9,0,200.6,0c-18.1,60.4-35.9,120.1-53.9,180.5c-12.2,0-24.3,0-36.3,0c-2.4,6.1-1,8.9,4.5,11.4
		c19.6,8.8,30.7,23.9,30.3,45.8c-0.1,6.1,2.9,8,7.2,10.2C595.7,345.5,662,380.3,728.4,415c20.7,10.8,42,20.6,61.8,32.7
		c22.1,13.5,46.1,18.7,71.1,21.8C865.4,469.9,869.4,470.7,873.9,471.4z M329,407.4c0,141.3,0,280.9,0,420.4c174.1,0,347.4,0,521.2,0
		c0-112.4,0-224.3,0-336.8C676.4,463.1,503,435.3,329,407.4z M173.8,827.6c44,0,87.3,0,130.6,0c0-140.1,0-279.6,0-420.1
		c-43.9,12.2-87.2,24.3-130.6,36.3C173.8,571.9,173.8,699.4,173.8,827.6z M149.5,451.3c-3.2,0.7-5.4,1-7.6,1.6
		c-23.3,6.3-46.6,12.9-70.1,18.8c-6.9,1.7-9,4.5-9,11.8c0.3,111.8,0.2,223.5,0.2,335.3c0,3.1,0.3,6.1,0.4,8.9c29.3,0,57.4,0,86,0
		C149.5,702.3,149.5,577.5,149.5,451.3z M512,328.7c-1.8,2.3-3.4,4.8-5.5,6.8c-21.3,19.4-55.9,15.6-72.5-7.8
		c-4.7-6.7-4.5-14.1,0.7-18c5.2-4,12.3-2.3,17.5,4c1.5,1.8,2.9,3.7,4.6,5.3c10.2,9.3,24,8.7,33.5-1.6c-10.7-5.6-21.4-10.9-31.7-16.9
		c-4.9-2.8-8.6-2.8-13.6-0.1c-53.5,29.1-107.2,57.9-160.9,86.8c-2,1.1-3.9,2.4-5.9,3.6c6.1-0.6,11.8-1.8,17.3-3.7
		c13.5-4.6,27-5.8,41.1-2.3c11.6,2.9,23.6,3.9,35.4,5.8c77.7,12.5,155.4,25.1,233.1,37.7c44.6,7.2,89.1,14.4,133.7,21.6
		c0.2-0.4,0.4-0.9,0.5-1.3C663.9,408.8,588.5,369.1,512,328.7z M487.8,219.3c17.3,2.7,17.3,2.7,22-12.9
		c11.2-37.7,22.5-75.3,33.7-113c0.7-2.4,1.1-4.8,1.7-7.6c-46.2,0-91.5,0-137.4,0c0.9,3.6,1.5,6.4,2.3,9.1
		c11.7,39.1,23.7,78,34.8,117.2c2.4,8.5,7.2,8.3,13.5,8c8-0.4,4.7-6.6,5.4-10.5c0.7-4,0.3-8.1,0.5-12.2c0.4-8.9,5.1-14,12.4-13.7
		c7.2,0.3,11.3,5.8,11.2,14.8C487.7,205.5,487.8,212.4,487.8,219.3z M465.3,277.4c11.2,5.7,20.3,10.5,31.2,16
		C489.5,279.2,481.8,275.3,465.3,277.4z"/>
	<path d="M639.9,160.7c-8.1,0-14.4,0-21.2,0c0-7.8,0-14.9,0-23.1c6.5,0,13,0,20.5,0c0-7.5,0-14.1,0-21.4c8.3,0,15.7,0,24,0
		c0,6.3,0,12.9,0,20.5c7.7,0,14.6,0,22.2,0c0,8.3,0,15.7,0,23.9c-6.8,0-13.7,0-21.7,0c0,7.9,0,15,0,22.5c-8.3,0-15.5,0-23.8,0
		C639.9,176.1,639.9,169,639.9,160.7z"/>
	<path d="M173.6,302.3c0,7.9,0,14.2,0,21.6c6.9,0,13.4,0,20.7,0c0,8.3,0,15.7,0,23.9c-6.4,0-13,0-20.4,0c0,7.4,0,13.9,0,21.2
		c-8.2,0-15.5,0-23.9,0c0-6.8,0-13.3,0-20.7c-7.8,0-14.7,0-22.1,0c0-8.3,0-15.6,0-24c7.4,0,14.2,0,22,0c0-7.8,0-14.7,0-22
		C158.2,302.3,165.6,302.3,173.6,302.3z"/>
	<path class="st0" d="M465.3,277.4c16.5-2.2,24.2,1.8,31.2,16C485.7,287.9,476.5,283.2,465.3,277.4z"/>
	<path d="M387.3,630.2c0-47,0-94,0-141c0-17.5,10.1-31.1,24.6-33.8c10.1-1.9,16.6,1.5,17.5,9.3c0.8,6.7-1.9,12.2-8.7,13
		c-8.4,1-9.6,5.6-9.6,12.6c0.2,30.9,0.1,61.9,0.1,92.8c0,61.6,0.1,123.2-0.1,184.8c0,7.8,0.9,13.5,10.4,14.9c7,1.1,8.9,7.1,7.7,13.5
		c-1.3,7-6.4,9.4-12.9,9.2c-16.2-0.5-28.7-14.4-29-32.5c-0.2-21-0.1-42-0.1-63.1C387.3,683.3,387.3,656.7,387.3,630.2z"/>
	<path d="M477,636.7c0-44.9-0.1-89.8,0-134.8c0-18.1,10.3-30.7,26.2-33c8.9-1.3,14.2,1.6,15.7,8.5c1.7,7.6-1.7,12.7-10.9,14.6
		c-6.6,1.3-7.2,5.5-7.2,10.9c0.1,40.3,0,80.5,0,120.8c0,48.7,0.1,97.4-0.1,146.1c0,7.1,1.2,11.6,9.4,12.7c7.3,1,10.2,6.6,8.8,13.6
		c-1.4,7.2-6.8,9.8-13.7,9.4c-12.8-0.8-24.4-10.8-27.1-23.6c-0.9-4.2-1.1-8.7-1.1-13C476.9,724.8,477,680.7,477,636.7z"/>
	<path d="M553.8,643.8c0-42.9-0.1-85.8,0-128.7c0-17.6,9.3-29.5,24.7-32.3c8.8-1.6,14.9,1.6,16.5,8.7c1.5,6.7-2.3,12.5-10.6,14.2
		c-6.3,1.3-6.8,5.2-6.8,10.2c0.1,23.6,0,47.3,0,70.9c0,60.7,0.1,121.4-0.1,182.2c0,7.2,0.7,12.2,9.3,13.7c6.8,1.1,9.5,6.9,7.9,13.4
		c-1.7,6.9-6.9,9.9-13.9,9.3c-15.4-1.2-27-14.2-27.1-31.2c-0.2-24.8-0.1-49.6-0.1-74.4C553.8,681.1,553.8,662.4,553.8,643.8z"/>
	<path d="M709.6,654.8c0-40-0.1-79.9,0-119.9c0-17.4,11.5-30.3,26.9-30.8c7-0.2,12.2,2.2,13.2,9.7c0.9,7.1-2,12.3-9.4,13.3
		c-5.9,0.8-6.8,4-6.8,9c0.1,79.3,0.1,158.7,0,238c0,4.8,0.7,8.3,6.7,9c7.2,0.9,10.7,6.1,9.4,13.2c-1.3,7.5-7.1,9.5-13.8,9
		c-15.2-1.1-26.2-13.9-26.2-30.7C709.5,734.7,709.6,694.8,709.6,654.8z"/>
	<path d="M632,650.1c0-41.7-0.1-83.5,0-125.2c0.1-16.8,11.7-29.3,26.9-29.7c7.2-0.2,12.1,2.7,13.1,10c0.9,7-2.5,12.1-9.8,13.1
		c-5.8,0.8-6.9,4.1-6.9,9.1c0.1,82,0.1,164,0,246c0,5.3,1.9,7.9,7.2,8.8c7.2,1.2,10.3,6.3,9.5,13.4c-0.8,6.6-6.8,10.5-14.2,9.8
		c-15-1.4-25.7-13.6-25.8-30.1C631.9,733.6,632,691.9,632,650.1z"/>
	<path d="M780.8,659.4c0-38.8-0.1-77.6,0-116.4c0.1-15.4,9.6-26.8,23.7-29c7.6-1.2,13.8,2.1,15,8.5c1.4,7.4-1.4,12.9-9,14.4
		c-5.3,1-6.4,3.7-6.4,8.5c0.1,76.1,0.1,152.2,0,228.3c0,4.9,1.6,7.2,6.5,8.5c7.6,2.1,11.1,7.9,8.9,14.4c-2.4,7.2-8,9.7-15.2,8.4
		c-13.9-2.4-23.3-14-23.4-29.4C780.8,737,780.8,698.2,780.8,659.4z"/>
	<path d="M213,626c0,6.7,0.2,13.4-0.1,20.1c-0.4,8.4-5.1,13.3-12,13.4c-7,0-11.6-5-11.7-13.4c-0.2-13.7-0.2-27.4,0-41.1
		c0.1-8.7,4.4-13.1,11.9-13.1c7.4,0,11.5,4.4,11.8,13.2C213.2,612,213,619,213,626z"/>
	<path d="M140,632.5c0,5.2,0.4,10.5-0.1,15.7c-0.6,7.1-5,11.2-12.1,11.1c-6.8,0-11-4.1-11.2-10.9c-0.4-10.7-0.4-21.5,0.1-32.2
		c0.3-6.7,4.5-10.6,11.4-10.6c7.4,0,11.3,4.1,11.8,11.2C140.3,622.1,140,627.3,140,632.5C140,632.5,140,632.5,140,632.5z"/>
</g>
</svg>
