<svg width="38" height="38" viewBox="0 0 38 38" fill="none" xmlns="http://www.w3.org/2000/svg">
    <style type="text/css">
        .color-fixed{fill:#848789;}
    </style>
    <g>
        <path d="M11.964 4.00781C11.964 3.88906 11.964 3.8 11.964 3.71093C11.964 3.26562 12.2015 2.96875 12.5875 2.82031C12.8546 2.73125 13.1515 2.70156 13.4484 2.67187C14.25 2.67187 14.9921 2.67187 15.764 2.67187C16.0312 2.67187 16.2984 2.6125 16.5359 2.46406C16.9218 2.22656 17.2781 1.92968 17.6046 1.60312C17.8718 1.27656 18.1984 1.03906 18.5843 0.860933C19 0.682808 19.7125 0.890621 20.1281 1.27656C20.4546 1.60312 20.7812 1.92968 21.1375 2.22656C21.4937 2.55312 21.939 2.70156 22.4437 2.67187C23.275 2.64218 24.1062 2.67187 24.9375 2.70156C25.1453 2.70156 25.3531 2.76093 25.5312 2.85C25.8875 2.99843 26.0656 3.29531 26.0656 3.68125C26.0656 3.77031 26.0656 3.88906 26.0656 3.97812C26.1546 3.97812 26.2437 3.97812 26.3031 3.97812C27.4312 3.97812 28.589 4.00781 29.7171 3.97812C30.8156 3.94843 31.4984 4.83906 31.4984 5.75937C31.4984 15.6453 31.4984 25.5312 31.4984 35.4172C31.4984 36.4859 30.8156 37.1687 29.7468 37.1687C22.6218 37.1687 15.4671 37.1687 8.34214 37.1687C7.30308 37.1687 6.59058 36.4562 6.59058 35.4172C6.59058 25.5312 6.59058 15.6156 6.59058 5.72968C6.59058 4.86874 7.09526 4.21562 7.89683 4.0375C8.04526 4.00781 8.22339 4.00781 8.37183 4.00781C9.49995 4.00781 10.6578 4.00781 11.7859 4.00781C11.8156 4.00781 11.875 4.00781 11.964 4.00781ZM29.4796 35.3281C29.4796 25.6203 29.4796 15.9719 29.4796 6.26406C28.3218 6.26406 27.1937 6.26406 26.0359 6.26406C26.0359 6.44218 26.0359 6.64999 26.0359 6.79843C21.3453 6.79843 16.714 6.79843 12.0234 6.79843C12.0234 6.62031 12.0234 6.44218 12.0234 6.26406C10.8062 6.26406 9.6187 6.26406 8.4312 6.26406C8.4312 15.9422 8.4312 25.6203 8.4312 35.3281C15.4375 35.3281 22.4437 35.3281 29.4796 35.3281ZM12.6765 5.28437C16.9218 5.28437 21.1078 5.28437 25.3234 5.28437C25.3234 5.07656 25.3234 4.89843 25.3234 4.69062C21.1078 4.69062 16.8921 4.69062 12.6765 4.69062C12.6765 4.89843 12.6765 5.10624 12.6765 5.28437ZM18.9406 3.11718C19.5343 3.14687 19.7718 2.76093 19.7421 2.40468C19.7421 1.9 19.4453 1.60312 19.0296 1.60312C18.614 1.57343 18.2578 1.95937 18.2578 2.34531C18.2281 2.85 18.4656 3.11718 18.9406 3.11718Z" class="color-fixed"/>
        <path d="M21.0483 26.7484C19.3858 26.7484 17.6936 26.7484 16.0311 26.7484C15.6155 26.7484 15.2889 26.5703 15.1108 26.1844C14.9327 25.7984 14.9624 25.4125 15.2296 25.0859C15.4671 24.7891 15.7639 24.7 16.1202 24.7C17.3374 24.7 18.5546 24.7 19.8014 24.7C21.8796 24.7 23.9577 24.7 26.0358 24.7C26.5702 24.7 26.9561 24.9672 27.0749 25.4125C27.2827 26.0953 26.778 26.7484 26.0655 26.7484C24.403 26.7484 22.7108 26.7484 21.0483 26.7484Z" fill="currentColor"/>
        <path d="M21.0483 31.4391C19.3858 31.4391 17.6936 31.4391 16.0311 31.4391C15.6155 31.4391 15.2889 31.2609 15.1108 30.875C14.9327 30.4891 14.9624 30.1031 15.2296 29.7766C15.4374 29.4797 15.7639 29.3906 16.1202 29.3906C17.1889 29.3906 18.2577 29.3906 19.3264 29.3906C21.553 29.3906 23.8092 29.3906 26.0358 29.3906C26.5702 29.3906 26.9561 29.6578 27.0749 30.1031C27.2827 30.7859 26.778 31.4391 26.0655 31.4391C24.403 31.4391 22.7108 31.4391 21.0483 31.4391Z" fill="currentColor"/>
        <path d="M21.078 20.0687C22.7405 20.0687 24.403 20.0687 26.0655 20.0687C26.5999 20.0687 26.9858 20.3656 27.0749 20.8406C27.2233 21.4937 26.7187 22.0875 26.0358 22.0875C22.6812 22.0875 19.3562 22.0875 16.0015 22.0875C15.4077 22.0875 14.9624 21.6422 14.9624 21.0781C14.9624 20.4844 15.4077 20.0391 16.0015 20.0391C17.7233 20.0687 19.3858 20.0687 21.078 20.0687Z" fill="currentColor"/>
        <path d="M21.0781 15.4078C22.7406 15.4078 24.4328 15.4078 26.0953 15.4078C26.5406 15.4078 26.8969 15.675 27.0453 16.0906C27.1937 16.5359 27.0453 17.0109 26.6891 17.2484C26.5109 17.3672 26.3031 17.4562 26.0953 17.4562C22.7109 17.4562 19.3266 17.4562 15.9719 17.4562C15.4375 17.4562 14.9922 17.0109 14.9922 16.4469C14.9922 15.8828 15.4078 15.4375 15.9422 15.4078C16.0313 15.4078 16.0906 15.4078 16.1797 15.4078C17.8125 15.4078 19.4453 15.4078 21.0781 15.4078Z" fill="currentColor"/>
        <path d="M21.0483 10.7469C22.7108 10.7469 24.3437 10.7469 26.0062 10.7469C26.6296 10.7469 27.0749 11.1625 27.0749 11.7859C27.0749 12.3797 26.6296 12.7953 26.0358 12.7953C22.7108 12.7953 19.3562 12.7953 16.0312 12.7953C15.4671 12.7953 14.9624 12.3203 14.9624 11.7859C14.9624 11.2219 15.4077 10.7766 16.0015 10.7469C17.5452 10.7469 19.089 10.7469 20.6327 10.7469C20.7812 10.7469 20.9296 10.7469 21.0483 10.7469Z" fill="currentColor"/>
        <path d="M12.5578 31.2016C12.35 31.4094 12.1422 31.6172 11.9344 31.825C11.7859 31.9734 11.7266 31.9734 11.5781 31.825C11.4891 31.7359 11.4 31.6469 11.3109 31.5578C11.1625 31.4094 11.1625 31.35 11.3109 31.2016C11.5187 30.9937 11.7266 30.8156 11.9344 30.5781C11.6969 30.3703 11.4891 30.1625 11.2812 29.9547C11.1328 29.8062 11.1328 29.7469 11.2812 29.5984C11.3703 29.5094 11.4891 29.4203 11.5781 29.3016C11.6969 29.1828 11.7859 29.1828 11.9047 29.3016C12.1125 29.5094 12.3203 29.7172 12.5578 29.9547C12.7656 29.7469 12.9734 29.5391 13.1813 29.3016C13.3 29.1828 13.4188 29.1828 13.5078 29.3016C13.5969 29.4203 13.7156 29.5094 13.8047 29.5984C13.9234 29.7172 13.9234 29.8062 13.8047 29.925C13.5969 30.1328 13.3891 30.3406 13.1516 30.5781C13.3594 30.7859 13.5672 30.9937 13.775 31.1719C13.9531 31.35 13.9531 31.3797 13.775 31.5578C13.6859 31.6469 13.5969 31.7359 13.5078 31.825C13.3891 31.9437 13.3 31.9437 13.1813 31.825C12.9734 31.6172 12.7656 31.4094 12.5578 31.2016Z" fill="currentColor"/>
        <path d="M11.9344 25.7094C11.7266 25.5016 11.5187 25.2938 11.3109 25.0859C11.1922 24.9672 11.1922 24.8781 11.3109 24.7594C11.4 24.6703 11.4891 24.5812 11.5484 24.5219C11.7266 24.3437 11.7859 24.3437 11.9641 24.5219C12.1719 24.7297 12.35 24.9078 12.5578 25.1156C12.7656 24.9078 12.9734 24.7 13.1812 24.4922C13.3297 24.3437 13.3891 24.3437 13.5375 24.4922C13.6266 24.5813 13.7156 24.7 13.8344 24.7891C13.9531 24.9078 13.9531 24.9969 13.8344 25.1156C13.6266 25.3234 13.4187 25.5313 13.1812 25.7688C13.3891 25.9766 13.5969 26.1844 13.8047 26.3922C13.9828 26.5703 13.9828 26.6 13.8047 26.7781C13.7156 26.8672 13.6266 26.9563 13.5375 27.0453C13.3891 27.1938 13.3297 27.1938 13.1812 27.0453C12.9734 26.8375 12.7953 26.6594 12.5875 26.4516C12.5875 26.4516 12.5578 26.4516 12.5281 26.4219C12.35 26.6297 12.1422 26.8078 11.9344 27.0156C11.7562 27.1938 11.6969 27.1938 11.5187 27.0156C11.4297 26.9266 11.3703 26.8672 11.2812 26.7781C11.1328 26.6297 11.1328 26.5703 11.2812 26.4219C11.4594 26.2438 11.6078 26.0953 11.7859 25.9172C11.8453 25.7984 11.875 25.7687 11.9344 25.7094Z" fill="currentColor"/>
        <path d="M11.9046 21.0781C11.6968 20.8703 11.489 20.6625 11.2812 20.4844C11.1625 20.3656 11.1625 20.2469 11.2812 20.1281C11.3703 20.0391 11.4593 19.95 11.5187 19.8906C11.6968 19.7125 11.7562 19.7125 11.9343 19.8906C12.1421 20.0984 12.3203 20.2766 12.5281 20.5141C12.7359 20.3063 12.9437 20.0984 13.1515 19.8906C13.3 19.7422 13.3593 19.7422 13.5375 19.8906C13.6265 19.9797 13.6859 20.0391 13.775 20.1281C13.9531 20.3063 13.9531 20.3359 13.775 20.5141C13.5671 20.7219 13.389 20.9 13.1515 21.1375C13.3593 21.3453 13.5671 21.5234 13.7453 21.7313C13.9531 21.9094 13.9234 21.9688 13.7453 22.1469C13.6562 22.2359 13.5968 22.2953 13.5078 22.3844C13.3593 22.5328 13.3 22.5328 13.1515 22.3844C12.9437 22.2063 12.7656 21.9984 12.5875 21.8203C12.5875 21.8203 12.5578 21.8203 12.5281 21.7906C12.3203 21.9984 12.1421 22.2063 11.9343 22.4141C11.7859 22.5625 11.7265 22.5625 11.5781 22.4141C11.489 22.325 11.4 22.2359 11.3109 22.1469C11.1625 21.9984 11.1625 21.9391 11.3109 21.7906C11.5187 21.5828 11.6968 21.4047 11.9046 21.1969C11.9046 21.1375 11.9046 21.1078 11.9046 21.0781Z" fill="currentColor"/>
        <path d="M12.053 16.3281C12.4983 15.7641 12.9437 15.2297 13.389 14.6656C13.5374 14.4578 13.5671 14.4578 13.7452 14.6359C13.864 14.7547 14.0124 14.8438 14.1312 14.9625C14.3093 15.1109 14.3093 15.1406 14.1608 15.3188C13.7452 15.8234 13.2999 16.3281 12.8843 16.8031C12.6765 17.0406 12.4687 17.2781 12.2905 17.5156C12.2015 17.6344 12.1124 17.6641 11.9937 17.5453C11.6374 17.2188 11.2812 16.8625 10.8952 16.5359C10.8062 16.4469 10.7765 16.3578 10.8952 16.2688C11.014 16.15 11.1327 16.0016 11.2515 15.8828C11.3405 15.7641 11.4296 15.7641 11.5483 15.8828C11.6968 16.0313 11.8749 16.1797 12.053 16.3281Z" fill="currentColor"/>
        <path d="M14.3094 10.1828C13.6266 11.0141 12.9735 11.8156 12.2906 12.6469C12.2016 12.7359 12.1125 12.7656 12.0235 12.6766C11.6672 12.3203 11.2813 11.9937 10.925 11.6375C10.836 11.5484 10.8063 11.4594 10.8953 11.3703C11.0141 11.2516 11.1328 11.1031 11.2516 10.9844C11.3406 10.8656 11.4297 10.8656 11.5485 10.9844C11.7266 11.1328 11.9047 11.3109 12.0828 11.4594C12.4391 11.0141 12.7656 10.5984 13.1219 10.1828C13.2406 10.0344 13.3594 9.88593 13.4781 9.73749C13.5078 9.70781 13.6563 9.67812 13.686 9.70781C13.8641 9.82656 14.0719 10.0047 14.3094 10.1828Z" fill="currentColor"/>
    </g>
</svg>
