<?xml version="1.0" encoding="utf-8"?>
<!-- Generator: Adobe Illustrator 22.0.0, SVG Export Plug-In . SVG Version: 6.00 Build 0)  -->
<svg version="1.1" id="Calque_1" xmlns="http://www.w3.org/2000/svg" xmlns:xlink="http://www.w3.org/1999/xlink" x="0px" y="0px"
	 viewBox="0 0 593 578" style="enable-background:new 0 0 593 578;" xml:space="preserve">
<g>
	<path d="M571.1,447.2c-3.2,8.1-9.2,10.9-17.8,10.8c-18.1-0.3-36.2,0.2-54.2-0.2c-26.4-0.5-51.8,4.2-76.6,13.3
		c-81.8,29.7-163.7,59-245.6,88.4c-11.9,4.3-18,1.4-22.3-10.7c-20-55.6-40-111.3-60-166.9c-3-8.3-2-12.6,3.4-14.6
		c5.2-2,8.8,0.9,11.8,9.1c19.5,54.1,39,108.3,58.4,162.4c0.7,1.8,1.3,3.6,2.2,5.9c59.1-21.2,117.6-42.3,176.2-63.4
		c-0.1-0.3-0.1-0.6-0.2-0.8c-13.3,2.2-26.6,4.5-39.8,6.7c-35.9,6.2-71.9,12.4-107.8,18.5c-8.5,1.4-15-3.2-16.5-12.1
		c-7.2-41.4-14.3-82.8-21.4-124.2c-9.9-57.4-19.7-114.9-29.6-172.3c-2.8-16.2-5.6-32.4-8.5-49.6c-28.3,9.7-56.2,19.3-84.6,29
		c0.7,2.2,1.3,4.1,1.9,5.8c18.2,50.6,36.4,101.2,54.6,151.8c0.5,1.5,1.3,3,1.5,4.6c0.7,4.3-1.1,7.4-5.1,9c-3.8,1.5-7.1,0.3-9.4-3.1
		c-0.8-1.1-1.2-2.6-1.7-3.9c-19.1-52.9-38.2-105.9-57-158.9c-1.4-3.8-1.5-9.3,0.3-12.7c1.8-3.4,6.3-6.3,10.2-7.7
		c26.9-9.6,54-18.8,81-28.1c1.7-0.6,3.3-1.2,5.5-2c-1.2-7.4-2.4-14.7-3.7-22c-2.5-13.8,0.8-18.9,14.5-21.3
		c28.2-4.9,56.4-9.7,84.5-14.6c0.7-0.1,1.4-0.3,2.6-0.6c0-9.1,0-18.2,0-27.2c0-3.4,0-6.8,0-10.2c0-12.1,2.3-15.2,13.8-19
		c86.6,0,173.3,0,259.9,0c4,2.4,8.6,4.3,12,7.4c20.2,18.9,40.2,38.1,60.1,57.2c2.7,2.6,4.9,5.6,7.3,8.4
		C571.1,208.8,571.1,328,571.1,447.2z M131.7,104.4c22,128.5,44,256.6,66.1,385.3c60.4-10.3,120.3-20.6,180.2-30.9
		c0-0.3,0-0.6-0.1-0.8c-2.1,0-4.3,0-6.4,0c-45.3,0-90.6,0-135.8,0c-12.8,0-17.7-5-17.7-17.9c0-50.3,0-100.6,0-150.9
		c0-2-0.1-4,0.3-5.9c1-4.2,3.8-6.6,8.1-6.4c4.4,0.2,7.3,2.8,7.6,7.5c0.1,1.8,0.1,3.6,0.1,5.4c0,48.5,0,97,0,145.5c0,2.1,0,4.2,0,6.3
		c107.3,0,213.9,0,320.5,0c0-113.3,0-226.3,0-339.7c-2.5,0-4.6,0-6.7,0c-15.9,0-31.9,0.2-47.8-0.2c-13.6-0.3-20.3-7.5-20.4-20.9
		c-0.1-13.8,0-27.6-0.1-41.3c0-1.9-0.2-3.8-0.3-5.7c-82,0-163.5,0-245.3,0c0,2.6,0,4.8,0,6.9c0,67.1,0,134.2,0,201.3
		c0,2,0.1,3.9-0.1,5.9c-0.4,4.6-3,7.2-7.6,7.5c-4.7,0.2-7.4-2.4-8.2-6.8c-0.4-1.9-0.2-3.9-0.2-5.9c0-48.9,0-97.7,0-146.6
		c0-2,0-4.1,0-6.4C188.7,94.6,160.4,99.4,131.7,104.4z M495.8,38.7c0,14.6,0.1,28-0.1,41.3c-0.1,4.2,1.4,5.7,5.5,5.7
		c13.6-0.1,27.2,0,40.7,0c0.6,0,1.2-0.4,2.3-0.8C528.1,69.5,512.5,54.5,495.8,38.7z"/>
	<path d="M395.9,264.7c-36.8,0-73.7,0-110.5,0c-1.6,0-3.2,0.1-4.8-0.1c-4.5-0.6-7.1-3.2-7.4-7.7c-0.3-4.3,2.9-7.7,7.5-8.2
		c1.4-0.2,2.9-0.1,4.3-0.1c74.2,0,148.5,0,222.7,0c1.6,0,3.3-0.1,4.8,0.1c4.2,0.8,6.8,3.5,6.9,7.7c0.1,4.5-2.5,7.3-7,8.1
		c-1.6,0.3-3.2,0.1-4.8,0.1C470.3,264.7,433.1,264.7,395.9,264.7z"/>
	<path d="M396.1,207.6c-37,0-74,0-111.1,0c-2.3,0-4.7-0.1-6.8-0.8c-3.9-1.3-5.5-4.5-4.9-8.5c0.5-3.8,2.8-6.1,6.7-6.6
		c1.6-0.2,3.2-0.1,4.8-0.1c74.2,0,148.4,0,222.7,0c0.7,0,1.4,0,2.1,0c6.2,0.1,10,3.2,9.9,8.1c-0.1,4.9-3.9,8-10.1,8
		C471.5,207.6,433.8,207.6,396.1,207.6z"/>
	<path d="M396,321.8c-36.8,0-73.7,0-110.5,0c-1.8,0-3.6,0.1-5.4-0.1c-4.1-0.5-6.5-2.9-6.9-7c-0.4-4,1.4-7.1,5.3-8.3
		c2.2-0.7,4.6-0.7,6.9-0.7c73.9,0,147.7,0,221.6,0c2.3,0,4.7,0.1,6.9,0.7c3.9,1.1,5.9,4.2,5.5,8.2c-0.4,3.9-2.7,6.6-6.9,7.1
		c-1.8,0.2-3.6,0.1-5.4,0.1C470,321.8,433,321.8,396,321.8z"/>
	<path d="M396,150.2c-36.8,0-73.7,0-110.5,0c-8.6,0-12.6-2.6-12.4-8.3c0.2-5.4,3.9-7.9,12.3-7.9c73.9,0,147.7,0,221.6,0
		c8.6,0,12.6,2.7,12.5,8.3c-0.2,5.3-4.1,7.8-12.3,7.8C470,150.2,433,150.2,396,150.2z"/>
	<path d="M396.6,363.1c36.7,0,73.3,0,110,0c2,0,4-0.1,5.9,0.2c4.1,0.5,6.4,3.2,6.8,7.1c0.3,4-1.7,7-5.6,8.1c-2,0.6-4.2,0.6-6.4,0.6
		c-74,0-148.1,0-222.1,0c-0.9,0-1.8,0-2.7,0c-5.9-0.3-9.4-3.3-9.5-8c-0.1-5,3.5-8,9.8-8C320.8,363.1,358.7,363.1,396.6,363.1z"/>
</g>
</svg>
