<?xml version="1.0" encoding="utf-8"?>
<!-- Generator: Adobe Illustrator 22.0.0, SVG Export Plug-In . SVG Version: 6.00 Build 0)  -->
<svg version="1.1" id="Calque_1" xmlns="http://www.w3.org/2000/svg" xmlns:xlink="http://www.w3.org/1999/xlink" x="0px" y="0px"
	 viewBox="0 0 487 471" style="enable-background:new 0 0 487 471;" xml:space="preserve">
<g>
	<path d="M313.4,27.2c0,47.2,0,93.6,0,140.6c-46.6,0-92.8,0-139.8,0c0-46.6,0-93.3,0-140.6C219.9,27.2,266.3,27.2,313.4,27.2z
		 M232.8,32.1c0,22.2,0,43.8,0,65.3c7.5,0,14.3,0,20.9,0c0-22.2,0-43.7,0-65.3C246.4,32.1,239.8,32.1,232.8,32.1z M277.7,133.3
		c0,7,0,13.5,0,20.5c7.1,0,13.7,0,20.9,0c0-6.9,0-13.5,0-20.5C291.5,133.3,284.9,133.3,277.7,133.3z M245.9,153.8c7.6,0,14.1,0,21,0
		c0-7.1,0-13.6,0-20.2c-7.3,0-14.1,0-21,0C245.9,140.7,245.9,146.9,245.9,153.8z" fill="currentColor"/>
	<path d="M313.2,367.2c-46.9,0-93.1,0-139.9,0c0-46.6,0-92.9,0-139.8c46.3,0,92.7,0,139.9,0C313.2,273.5,313.2,320,313.2,367.2z
		 M232.5,232.1c0,22.2,0,43.6,0,65.4c7.3,0,14.2,0,21.3,0c0-21.9,0-43.5,0-65.4C246.6,232.1,240,232.1,232.5,232.1z M266.8,353.3
		c0-7.1,0-13.6,0-20.5c-7.2,0-13.7,0-20.8,0c0,7,0,13.6,0,20.5C253.2,353.3,259.8,353.3,266.8,353.3z M298.5,353.3
		c0-7,0-13.6,0-20.5c-7.2,0-13.7,0-20.8,0c0,7,0,13.6,0,20.5C284.9,353.3,291.5,353.3,298.5,353.3z" fill="currentColor"/>
	<path d="M7,50.4c9.2,0,18.4,0,28.2,0c0,131.2,0,262,0,393.4c-9.5,0-18.4,0-28.2,0C7,312.6,7,181.8,7,50.4z" fill="currentColor"/>
	<path d="M451.7,50.3c9.8,0,18.8,0,28.3,0c0,131.1,0,261.8,0,393.2c-9.3,0-18.5,0-28.3,0C451.7,312.6,451.7,181.8,451.7,50.3z" fill="currentColor"/>
	<path d="M41.2,400.2c0-9.1,0-17.5,0-26.7c134.7,0,269.1,0,404.1,0c0,8.7,0,17.3,0,26.7C310.9,400.2,176.5,400.2,41.2,400.2z" fill="currentColor"/>
	<path d="M57.4,57.8c36.9,0,73.1,0,109.8,0c0,36.7,0,72.9,0,109.8c-36.4,0-72.9,0-109.8,0C57.4,131.1,57.4,94.9,57.4,57.8z
		 M121.1,113.9c0-17.4,0-33.9,0-50.9c-5.8,0-11.2,0-16.6,0c0,17.4,0,34.1,0,50.9C110.2,113.9,115.1,113.9,121.1,113.9z M114.9,156.5
		c5.8,0,10.7,0,15.3,0c0-5.6,0-10.7,0-15.5c-5.6,0-10.4,0-15.3,0C114.9,146.4,114.9,151.3,114.9,156.5z M155.6,140.9
		c-5.8,0-10.7,0-15.6,0c0,5.7,0,10.8,0,15.7c5.5,0,10.3,0,15.6,0C155.6,151.1,155.6,146.3,155.6,140.9z" fill="currentColor"/>
	<path d="M429.6,58c0,36.8,0,72.8,0,109.6c-36.7,0-73.2,0-110.1,0c0-36.5,0-72.7,0-109.6C355.9,58,392.4,58,429.6,58z M382.3,113.8
		c0-17.4,0-33.9,0-50.7c-5.8,0-11.2,0-16.6,0c0,17.3,0,33.7,0,50.7C371.4,113.8,376.5,113.8,382.3,113.8z M392.3,156.3
		c0-5.7,0-10.7,0-15.6c-5.6,0-10.5,0-15.2,0C373.7,157,375,158.3,392.3,156.3z M401.9,140.6c0,5.9,0,10.9,0,15.9
		c5.6,0,10.4,0,15.2,0c0-5.6,0-10.6,0-15.9C411.9,140.6,407.3,140.6,401.9,140.6z" fill="currentColor"/>
	<path d="M57.2,367c0-36.9,0-72.9,0-109.5c36.7,0,73.1,0,110,0c0,36.4,0,72.7,0,109.5C130.8,367,94.4,367,57.2,367z M104.5,262.3
		c0,17.7,0,34.5,0,51.9c4.5,0,8.3,0.5,11.9-0.2c1.9-0.4,4.8-2.8,4.8-4.3c0.4-15.7,0.2-31.3,0.2-47.4
		C115.2,262.3,110.1,262.3,104.5,262.3z M139.8,356.5c5.6,0,10.4,0,15.5,0c0-5.5,0-10.6,0-15.9c-5.5,0-10.3,0-15.5,0
		C139.8,346,139.8,350.8,139.8,356.5z M115.2,340.4c0,5.9,0,11,0,16c5.5,0,10.3,0,15.1,0c0-5.6,0-10.6,0-16
		C125,340.4,120.5,340.4,115.2,340.4z" fill="currentColor"/>
	<path d="M319.4,366.8c0-36.7,0-73,0-109.6c36.7,0,72.9,0,109.8,0c0,36.5,0,72.7,0,109.6C393,366.8,356.6,366.8,319.4,366.8z
		 M365.1,262.4c0,13.6,0,26.1,0,38.6c0,13.9,0,13.9,13.7,13.3c1.1,0,2.2-0.5,3.4-0.9c0-17.1,0-33.8,0-51.1c-3.1-0.1-5.6-0.3-8.2-0.3
		C371.5,261.9,368.9,262.2,365.1,262.4z M392.6,341.2c-16.5-3.6-19.4-0.7-15.5,15.1c5.1,0,10.2,0,15.5,0
		C392.6,350.9,392.6,346,392.6,341.2z M401.8,340.4c0,5.9,0,10.9,0,16c5.5,0,10.3,0,15.3,0c0-5.6,0-10.6,0-16
		C411.9,340.4,407.3,340.4,401.8,340.4z" fill="currentColor"/>
	<path d="M41.1,200.4c0-9.1,0-17.3,0-26.2c134.6,0,269.1,0,404.1,0c0,8.4,0,17,0,26.2C310.7,200.4,176.3,200.4,41.1,200.4z" fill="currentColor"/>
</g>
</svg>
