<?xml version="1.0" encoding="utf-8"?>
<!-- Generator: Adobe Illustrator 22.0.0, SVG Export Plug-In . SVG Version: 6.00 Build 0)  -->
<svg version="1.1" id="Calque_1" xmlns="http://www.w3.org/2000/svg" xmlns:xlink="http://www.w3.org/1999/xlink" x="0px" y="0px"
	 viewBox="0 0 866 836" style="enable-background:new 0 0 866 836;" xml:space="preserve">
<g>
	<path d="M426.7,824c-3-1.5-5.8-3.3-9-4.4c-54.9-20.2-109.8-40.4-164.8-60.5c-1.5-0.5-3-1-4.5-1.6c-10-4.1-14.5-13-11-22.1
		c3.5-9.2,12.6-13.3,22.7-9.7c26.8,9.6,53.5,19.5,80.2,29.3c22.3,8.2,44.5,16.4,66.8,24.6c2.4,0.9,5,1.5,8.6,2.6c0-3.5,0-6.2,0-9
		c0-117.1-0.1-234.2,0.2-351.3c0-7-2.2-9.8-8.7-12.2c-90.6-33.1-181.1-66.5-271.6-99.9c-2-0.7-3.9-1.4-7.1-2.5c0,3.7,0,6.7,0,9.7
		c0,91.4,0,182.9,0,274.3c0,3.2,0.1,6.4-0.6,9.4c-1.9,7.5-9.7,12.8-17.4,12.3c-7.9-0.5-14.3-6.4-15.4-14.5
		c-0.5-3.6-0.5-7.4-0.5-11.1c0-95.9,0-191.9,0-287.8c0-4.8-0.2-9.5-0.3-14.3c-0.3-9.3,4-16.2,12.2-19.2c72-26.4,144-52.8,216.1-79
		c4.2-1.5,9.4-2.1,13.8-1.3c7.1,1.2,12.4,8.5,12.3,15.7c-0.1,8.2-4.5,13.9-12.2,16.8c-20,7.4-40,14.8-60.1,22.2
		c-37.8,13.9-75.7,27.8-115,42.3c13.9,5.2,26.3,9.9,38.9,14.6c75.7,27.8,151.3,55.7,227,83.4c3.2,1.2,7.4,1.7,10.4,0.6
		c87.6-32,175.2-64.3,262.7-96.6c1-0.4,1.8-1,3.7-2.1c-21.1-7.8-41.4-15.3-61.7-22.8c-37.3-13.8-74.7-27.5-112-41.3
		c-8.5-3.1-13.4-9.7-12.8-17.1c0.6-7.5,4.4-13.6,11.8-15.2c4.8-1,10.6-0.3,15.3,1.4c35.7,12.8,71.3,26,106.9,39.1
		c35.9,13.2,71.7,26.3,107.6,39.4c8.7,3.2,12.9,9.5,12.9,18.7c-0.2,101-0.3,201.9-0.4,302.9c0,3.2,0,6.4-0.3,9.5
		c-1,9.7-8.2,16.2-17.4,15.9c-9-0.3-15.9-7.5-16.3-17.1c-0.1-2.4,0-4.8,0-7.1c0-90.7,0-181.3,0-272c0-2.9,0-5.7,0-9.6
		c-14.6,5.4-28.4,10.5-42.2,15.6c-79.4,29.2-158.7,58.4-238.1,87.5c-4.7,1.7-7.1,3.6-7.1,9.4c0.2,118.9,0.2,237.9,0.2,356.8
		c0,1.6,0.1,3.1,0.2,5.8c3.7-1.3,6.8-2.2,9.9-3.4c47.5-17.4,95-35,142.5-52.2c4.5-1.6,10-2.6,14.5-1.6c7.3,1.6,11.6,7.1,12.1,14.9
		c0.5,8.4-3.6,14.3-11.3,17.2c-17.2,6.6-34.6,12.8-51.9,19.2c-40.1,14.7-80.1,29.5-120.2,44.2c-2.4,0.9-4.6,2.3-6.8,3.4
		C435.1,824,430.9,824,426.7,824z" fill="currentColor"/>
	<path d="M444.1,12c7.1,2.7,14.6,4.5,21.1,8.2c24.1,13.7,36.7,35,35.3,62.6c-1.5,28.9-16.9,49.4-44,60.2c-5.2,2.1-6.5,4.5-6.5,9.6
		c0.2,35.6,0.1,71.3,0.1,106.9c0,2.4,0.1,4.8-0.1,7.1c-1.1,9.4-8.7,16.4-17.5,16.2c-8.5-0.2-15.6-7-16.7-16.1
		c-0.3-2.6-0.1-5.3-0.1-7.9c0-35.6-0.1-71.3,0.1-106.9c0-4.5-1-6.8-5.7-8.6c-29.2-11.3-47.2-38.5-45-67.5c2.3-31,22.7-54.5,54-62.4
		c1-0.2,1.8-0.9,2.7-1.4C429.3,12,436.7,12,444.1,12z M466.5,80.2c0.2-19-14.3-33.9-33.1-34.1c-18.4-0.2-33.6,14.3-33.8,32.7
		c-0.3,19.1,14.8,34.8,33.5,34.8C451.2,113.5,466.3,98.4,466.5,80.2z" fill="currentColor"/>
	<path d="M27,744.7c4.4-9.5,7.4-19.8,13.3-28.2c18.3-26.3,53.5-35.3,82.5-21.6c5,2.4,7.7,1.8,11.4-2c21.1-21.5,42.4-42.8,63.9-63.9
		c3.3-3.2,7.5-6.3,11.8-7.5c6.9-1.9,13.1,0.9,17.2,6.9c4.1,6,4.2,12.4,0.3,18.6c-1.7,2.6-4,4.9-6.2,7.2
		c-21.1,21.1-42.2,42.3-63.4,63.3c-2.8,2.8-4.2,5-2.3,9.4c18.5,41.8-2.1,84.1-46.5,95.7c-0.9,0.2-1.8,1-2.6,1.5
		c-7.4,0-14.8,0-22.2,0c-1.7-0.6-3.4-1.3-5.1-1.7c-22.2-5.9-38-19.4-47-40.5c-2-4.8-3.3-9.9-4.9-14.8C27,759.5,27,752.1,27,744.7z
		 M94.4,789.9c18.5,0.2,34-15.2,34.1-33.6c0-18.2-15.8-34-33.9-33.9c-18.1,0.1-33.1,15.1-33.4,33.4
		C60.8,774.5,75.7,789.8,94.4,789.9z" fill="currentColor"/>
	<path d="M759.7,824c-8.8-3.9-18.4-6.6-26.4-11.9c-27.7-18.2-37.4-53.7-23.4-83.9c2.3-5.1,1.6-7.7-2.1-11.4
		c-21.7-21.3-43-42.9-64.6-64.3c-5.7-5.6-9-11.9-6.4-19.9c4-12.5,18.8-15.7,28.9-5.9c14.2,13.8,28.1,28,42.1,42
		c8.4,8.4,16.7,17,25.4,25.1c1.7,1.6,5.8,2.7,7.8,1.8c41.3-20,88.6,4.9,96.8,47.3c0.1,0.7,0.9,1.2,1.3,1.9c0,7.4,0,14.8,0,22.2
		c-4.5,17.4-11.8,33.5-27.4,43.5c-9.1,5.8-19.7,9.2-29.7,13.6C774.5,824,767.1,824,759.7,824z M771.6,789.9
		c18.8-0.2,33.6-15.4,33.3-34.1c-0.3-18.6-15.9-33.8-34.2-33.4c-18,0.4-33.2,15.9-33.2,33.8C737.5,774.7,753.1,790.1,771.6,789.9z"
		fill="currentColor"/>
</g>
</svg>
