<?xml version="1.0" encoding="utf-8"?>
<!-- Generator: Adobe Illustrator 22.0.0, SVG Export Plug-In . SVG Version: 6.00 Build 0)  -->
<svg version="1.1" id="Calque_1" xmlns="http://www.w3.org/2000/svg" xmlns:xlink="http://www.w3.org/1999/xlink" x="0px" y="0px"
	 viewBox="0 0 588 836" style="enable-background:new 0 0 588 836;" xml:space="preserve">
<path d="M15.6,775.5c0-228.3,0-456.7,0-685c0.5-1.1,1.3-2.2,1.5-3.4c3.7-23.7,15.4-42.5,34.4-57c11.9-9.2,25.9-13.4,40-17.1
	c135,0,270,0,405,0c1.5,0.5,2.9,1.2,4.4,1.5c34.5,7.4,56.8,28.3,67.7,61.6c1.7,5.2,2.6,10.7,3.9,16c0,227.8,0,455.6,0,683.4
	c-0.5,1.2-1.2,2.4-1.3,3.6c-2.4,21.3-12.8,36.5-33.5,43.8c-5.8,0-11.6,0-17.4,0c-17.3-5.5-30.3-17.2-42.8-29.8
	c-58.7-59-117.7-117.8-176.6-176.7c-2.2-2.2-4.4-4.2-7.7-7.3c-2.5,3-4.4,5.6-6.6,7.8c-58.7,58.7-117.5,117.3-176,176.2
	C98,805.8,85.2,817.5,67.8,823c-5.8,0-11.6,0-17.4,0c-17.8-6.2-28.5-18.5-32.4-36.9C17.2,782.6,16.4,779.1,15.6,775.5z" fill="currentColor"/>
</svg>
