<svg width="20" height="10" viewBox="0 0 20 10" fill="none" xmlns="http://www.w3.org/2000/svg">
    <g>
        <path d="M12.0681 3.4306C13.0521 3.4306 14.0321 3.4612 15.0161 3.42295C16.4001 3.37323 17.7881 3.31587 19.1401 2.97931C19.3081 2.93724 19.4721 2.87605 19.6561 2.81868C19.6561 2.87605 19.6561 2.92194 19.6561 2.96783C19.6161 3.83218 19.5721 4.70035 19.5321 5.56469C19.5081 6.09248 19.4761 6.62409 19.4521 7.15187C19.4481 7.25896 19.4201 7.32015 19.2921 7.33162C18.7161 7.39664 18.1441 7.49608 17.5681 7.53432C16.6201 7.59169 15.6681 7.64524 14.7161 7.63759C13.7001 7.62994 12.6841 7.56875 11.6721 7.50755C10.2601 7.42341 8.8681 7.22071 7.4761 6.97977C7.4521 6.97594 7.4281 6.96829 7.3761 6.953C7.4361 6.7044 7.4921 6.45581 7.5561 6.21104C7.6321 5.9089 7.7041 5.60676 7.7921 5.30845C7.8121 5.24343 7.8921 5.16694 7.9601 5.14399C8.4441 4.99866 8.9281 5.09427 9.4041 5.20519C10.0401 5.35434 10.6681 5.53792 11.3041 5.68325C11.8561 5.80946 12.4161 5.77504 12.9681 5.6603C13.3041 5.58764 13.5241 5.40024 13.5641 5.05603C13.6241 4.49382 13.6441 4.27965 13.0801 3.92397C12.8041 3.74804 12.4721 3.64478 12.1681 3.50709C12.1361 3.4918 12.1001 3.48032 12.0681 3.46885C12.0681 3.45737 12.0681 3.44208 12.0681 3.4306Z" fill="currentColor"/>
        <path d="M12.832 2.97932C12.428 2.97932 12.024 2.99461 11.624 2.96784C11.524 2.96019 11.4 2.83398 11.348 2.73455C11.22 2.48978 11.02 2.36739 10.752 2.29855C10.596 2.25648 10.448 2.16087 10.312 2.06908C9.96801 1.83578 9.72401 1.83578 9.43601 2.0882C9.176 2.31767 9.14001 2.62363 9.40001 2.85693C9.59601 3.03286 9.83201 3.18584 10.08 3.27763C10.636 3.48798 11.216 3.64478 11.776 3.84366C12.044 3.93927 12.3 4.06931 12.548 4.20317C12.68 4.27583 12.804 4.37909 12.908 4.48618C13.06 4.63916 13.124 4.83039 13.032 5.03691C12.944 5.23961 12.76 5.33523 12.552 5.3314C12.224 5.32375 11.884 5.31228 11.568 5.23579C10.8 5.04839 10.04 4.82656 9.276 4.61622C8.98 4.5359 8.68 4.52443 8.388 4.62386C7.636 4.88011 6.896 4.74242 6.148 4.60857C5.612 4.51295 5.072 4.43264 4.532 4.34085C4.48 4.53208 4.568 4.58944 4.736 4.62386C5.58 4.81127 6.42 5.00632 7.288 5.20519C7.14 5.63354 7 6.05041 6.852 6.48259C6.8 6.47111 6.76 6.46729 6.72 6.45199C5.788 6.09248 4.86 5.73298 3.92799 5.3773C3.81599 5.33523 3.76799 5.28551 3.77999 5.1593C3.88399 3.93927 3.98399 2.72307 4.08399 1.50305C4.09999 1.2927 4.132 1.07852 4.132 0.868175C4.132 0.70372 4.184 0.657826 4.356 0.657826C5.428 0.66165 6.496 0.638703 7.568 0.650177C8.492 0.657826 9.42001 0.699895 10.344 0.722843C10.644 0.730492 10.908 0.818456 11.112 1.03645C11.704 1.65985 12.288 2.28708 12.876 2.91047C12.864 2.93725 12.848 2.96019 12.832 2.97932Z" fill="currentColor"/>
        <path d="M2.21999 6.95682C1.57599 6.83826 0.967994 6.72353 0.343994 6.60879C0.527994 4.47088 0.711994 2.34826 0.899994 0.191227C1.41199 0.260069 1.90799 0.32891 2.42799 0.397752C2.35999 2.58921 2.28799 4.76154 2.21999 6.95682Z" fill="currentColor"/>
        <path d="M2.63208 6.23016C2.74008 4.37527 2.84408 2.53949 2.95208 0.696068C3.26808 0.696068 3.56408 0.696068 3.88808 0.696068C3.84808 1.04028 3.81208 1.38448 3.77208 1.72869C3.60808 3.16671 3.44408 4.60091 3.28808 6.03894C3.27208 6.19574 3.22008 6.24546 3.06408 6.23016C2.92808 6.22251 2.79208 6.23016 2.63208 6.23016Z" fill="currentColor"/>
        <path d="M11.312 7.95501C11.292 8.25332 11.24 8.51722 11.072 8.75051C10.928 8.94939 10.74 8.94939 10.6 8.74669C10.42 8.49044 10.372 8.19596 10.364 7.86705C10.68 7.89764 10.98 7.92441 11.312 7.95501Z" fill="currentColor"/>
        <path d="M9.44804 7.75616C9.69604 7.78676 9.92404 7.81353 10.208 7.85178C10.14 8.09272 10.1 8.31837 10.004 8.52107C9.91204 8.72377 9.72804 8.72377 9.60404 8.53254C9.46004 8.29925 9.44004 8.043 9.44804 7.75616Z" fill="currentColor"/>
        <path d="M8.75597 7.65669C8.95997 7.68729 9.15197 7.71024 9.33597 7.73701C9.34797 7.75613 9.35997 7.76378 9.35997 7.77525C9.35197 8.04298 9.21197 8.25715 9.05197 8.2495C8.87597 8.24185 8.74797 8.0009 8.75597 7.65669Z" fill="currentColor"/>
    </g>
</svg>
