<?xml version="1.0" encoding="utf-8"?>
<!-- Generator: Adobe Illustrator 22.0.0, SVG Export Plug-In . SVG Version: 6.00 Build 0)  -->
<svg version="1.1" id="Calque_1" xmlns="http://www.w3.org/2000/svg" xmlns:xlink="http://www.w3.org/1999/xlink" x="0px" y="0px"
	 viewBox="0 0 593 672.5" style="enable-background:new 0 0 593 672.5;" xml:space="preserve">
<g>
	<path d="M486.3,289.3c31.2,0,61.2,0,92.3,0c0,31.4,0,62,0,93.6c-30.7,0-60.7,0-92.3,0C486.3,352.3,486.3,321.7,486.3,289.3z"/>
	<path d="M344.1,54.7c0,31.4,0,61.6,0,93.1c-30.7,0-60.8,0-92.5,0c0-30.4,0-61.1,0-93.1C281.7,54.7,311.9,54.7,344.1,54.7z"/>
	<path d="M223.8,264.8c-31.6,0-61.7,0-92.9,0c0-30.8,0-60.8,0-91.9c31.3,0,61.8,0,92.9,0C223.8,204.1,223.8,234.5,223.8,264.8z"/>
	<path d="M106.3,289.7c0,31.3,0,61.5,0,93c-30.6,0-60.5,0-91.9,0c0-30.5,0-61.1,0-93C44.2,289.7,74.1,289.7,106.3,289.7z"/>
	<path d="M341,289.8c0,31,0,61.1,0,92.7c-30.2,0-60.1,0-91.6,0c0-30.2,0-60.7,0-92.7C278.7,289.8,308.7,289.8,341,289.8z"/>
	<path d="M130.9,499.2c0-31.3,0-60.9,0-91.5c31.2,0,61.4,0,93,0c0,30,0,60.1,0,91.5C193.4,499.2,162.8,499.2,130.9,499.2z"/>
	<path d="M251.5,524.3c30.7,0,60.8,0,92.1,0c0,31,0,61.7,0,93.5c-30.5,0-60.6,0-92.1,0C251.5,586.6,251.5,556,251.5,524.3z"/>
	<path d="M368.1,264.6c0-30.7,0-60.2,0-91.2c30.5,0,61,0,92.6,0c0,30.2,0,60.2,0,91.2C430.2,264.6,400.1,264.6,368.1,264.6z"/>
	<path d="M368.6,407.6c31.1,0,61.1,0,92.2,0c0,30.9,0,60.8,0,91.8c-30.8,0-60.9,0-92.2,0C368.6,469.5,368.6,439.5,368.6,407.6z"/>
</g>
</svg>
