<?xml version="1.0" encoding="utf-8"?>
<!-- Generator: Adobe Illustrator 22.0.0, SVG Export Plug-In . SVG Version: 6.00 Build 0)  -->
<svg version="1.1" id="Calque_1" xmlns="http://www.w3.org/2000/svg" xmlns:xlink="http://www.w3.org/1999/xlink" x="0px" y="0px"
	 viewBox="0 0 834 1080" style="enable-background:new 0 0 834 1080;" xml:space="preserve">
<g>
	<path d="M803.1,539.7c0,160.6,0,321.2,0,481.8c0,16.5-4.6,21.2-21,21.2c-182.5,0-364.9,0-547.4,0.2c-7.4,0-13.3-2-18.5-7.4
		C157,975.9,97.6,916.6,38.3,857.3c-5.1-5.1-7.4-10.5-7.4-17.8C31,579.1,31,318.7,31,58.2c0-16.5,4.5-21,21-21
		c241.7,0,483.3,0,725,0c2.6,0,5.1,0,7.7,0c12.7,0,18.4,5.7,18.4,18.4C803.1,216.9,803.1,378.3,803.1,539.7z M62.4,828
		c3.6,0,6.3,0,9.1,0c51.4,0,103,0,154.4,0c14.7,0,19.8,5.3,19.8,20.1c0,51.4,0,103,0,154.4c0,2.9,0,5.9,0,8.8c176.2,0,351,0,526,0
		c0-314.6,0-628.7,0-942.8c-236.7,0-472.8,0-709.4,0C62.4,321.6,62.4,574.3,62.4,828z M214.2,986.9c0-42,0-84.8,0-127.6
		c-43.1,0-85.7,0-127.4,0C129.2,901.8,171.7,944.4,214.2,986.9z"/>
	<path d="M673,279.1c-4,0-7.5,0-11.4,0c0-4.7,0-9.4,0-14.2c-9.7-1.5-18.1-4.9-24.3-12.3c-5.3-6.3-7.8-13.8-9.1-22.2
		c6.8-0.7,13.6-1.5,20.5-2.3c2,7.3,5.3,13.4,12.5,17.5c0.1-1.7,0.2-2.8,0.2-4c0-8.4-0.1-16.9,0.1-25.3c0.1-2.8-0.7-4.1-3.5-4.9
		c-7.5-2.3-14.2-6-19.4-12.2c-13.1-15.8-10.3-48.4,20.2-53.7c0.7-0.1,1.3-0.2,2.4-0.3c0.1-2.5,0.2-5,0.3-7.6c3.8,0,7.4,0,11.3,0
		c0,2.5,0,4.9,0,7.6c16.4,2.3,26.5,11,29.6,27.7c-6.7,0.9-13.1,1.8-19.8,2.6c-1.6-5.1-3.6-9.9-9.3-12.3c-0.1,0.7-0.3,1.3-0.3,1.9
		c0,8.8,0.1,17.5-0.1,26.3c0,2,0.8,2.6,2.5,3.2c5.1,1.9,10.4,3.7,15.2,6.1c8.9,4.5,13.5,12.3,14.8,22c2.7,20.8-9.2,37.4-29.7,41.2
		c-2.4,0.5-2.9,1.4-2.8,3.5C673.1,271.2,673,275,673,279.1z M673.2,246.4c7.1-0.7,12.5-6.9,13-14.3c0.5-8.2-4.2-13.9-13-15.8
		C673.2,226.2,673.2,236.2,673.2,246.4z M661.3,162.9c-5.9,1.7-10,7.2-10.1,13.3c0,5.9,4.1,11.4,10.1,13.2
		C661.3,180.6,661.3,171.9,661.3,162.9z"/>
	<path d="M420.3,412c88,0,176,0,263.9,0c2.8,0,5.7,0,8.5,0.3c7.4,0.9,12.7,6.6,13.1,13.9s-3.9,13.9-11,15.8
		c-3.2,0.8-6.6,0.9-9.9,0.9c-176.5,0-353,0-529.5,0c-13.3,0-20.1-5.6-19.9-15.9c0.2-7.7,5.4-13.7,13.1-14.7c3.1-0.3,6.2-0.3,9.3-0.3
		C245.4,412,332.9,412,420.3,412z"/>
	<path d="M420.5,583.4c88,0,176,0,263.9,0c14.5,0,21.3,4.8,21.5,15.1c0.2,10.5-7.1,15.8-21.8,15.8c-176,0-351.9,0-528,0
		c-13.6,0-20.4-5.1-20.5-15.3c-0.2-8,5.3-14.4,13.3-15.3c3.1-0.3,6.2-0.3,9.3-0.3C245.5,583.4,332.9,583.4,420.5,583.4z"/>
	<path d="M420.9,357c-89.3,0-178.5,0-267.9,0c-10.7,0-17-5.3-17.4-14.2c-0.5-8.6,5.1-15.4,13.7-16.5c2-0.2,4.2-0.2,6.2-0.2
		c176.8,0,353.5,0,530.3,0c2.3,0,4.6-0.2,6.9,0.2c8,1.2,13.6,8.5,13,16.5c-0.6,7.9-6.6,13.7-14.7,14.1c-5.4,0.3-10.8,0-16.2,0
		C590.3,357,505.6,357,420.9,357z"/>
	<path d="M420.3,528.4c-89.1,0-178,0-267.2,0c-11,0-17.4-5.6-17.8-14.8c-0.2-8.3,5.4-15,13.7-15.9c1.9-0.2,3.6-0.2,5.4-0.2
		c177.3,0,354.6,0,531.8,0c1.2,0,2.6,0,3.9,0c9.1,0.5,15.8,7.1,15.4,15.8c-0.2,8.8-6.5,15-16.1,15c-41.7,0.2-83.4,0-125.1,0
		C516.5,528.4,468.5,528.4,420.3,528.4z"/>
	<path d="M269.9,208.3c38.1,0,76.1,0,114.3,0c2.6,0,5.1,0,7.7,0.3c6.9,0.9,12.2,6.3,13,13.3c0.8,7.3-3.4,14.1-10.2,16.2
		c-2.6,0.8-5.6,1.2-8.3,1.2c-77.4,0-154.9,0.2-232.3,0c-9.4,0-15.6-4-17.8-10.8c-3.1-10.3,3.6-19.9,14.8-20.1
		c17.8-0.3,35.5-0.2,53.3-0.2C226.1,208.3,248,208.3,269.9,208.3z"/>
	<path d="M270.7,696.3c37.8,0,75.7,0,113.3,0c2.6,0,5.1,0,7.7,0.3c6.9,0.9,12.2,6.5,12.8,13.3c0.8,7.3-3.4,14.2-10.3,16.2
		c-3.1,0.9-6.6,1.1-9.9,1.1c-76.1,0-152.3,0-228.4,0c-2.8,0-5.7,0-8.5-0.6c-8-1.7-12.8-8.2-12-16.2c0.6-7.7,6-13.4,14.1-13.7
		c10-0.5,20.1-0.2,30.1-0.3C210,696.1,240.4,696.1,270.7,696.3z"/>
	<g>
		<path d="M559.7,765.4c-16.2,21.2-33.4,40.1-35.4,68c-0.9,12.8,4.4,17.8,15.5,20c12,2.4,23.9,5,37.2,7.7
			c-5,22.6-9.8,44.3-14.7,66.9c-3.9-0.4-7.5-0.7-13.1-1.3c3.8-18.1,7.5-35.7,11.4-54.1c-21.8-9.8-44.7-5.7-68-6.8
			c0.8,5,1.5,9,2.3,14.1c23.9,4.9,37.9,21,45.8,44.9c-4,1.6-7.6,3.1-11.1,4.5c-21.6-39.2-41.1-45.8-75.5-24.8
			c-2.3-3-4.9-6.2-8.9-11.4c11.8-5.2,23.2-10.2,35.3-15.5c0-8.9-6.1-11.7-14.8-11.7c-15.6,0-31.2,0-48,0c1.1-9.5,2-17.7,3-26.7
			c-5.1-0.6-9.6-1.1-15-1.7c-0.3-3.5-0.6-7.1-0.9-11.6c22.6,0,44.5,0,67.5,0c0.3,3.4,0.6,6.9,0.9,10.4c-1.8,0.8-3,1.7-4.1,1.7
			c-8,0.2-16.1,0.7-24.1,0.1c-10.3-0.8-12.8,3.8-10.7,13.7c24.2,0,48.5,0,74.2,0c3.9-29,7.8-58.1,11.9-88.9
			c-24.6,0-47.8-0.2-70.9,0.3c-2.7,0.1-5,5.3-8,6.4c-2.8,1-6.5-0.3-10.9-0.7c1-6.7,1.9-12.8,2.8-19.1c34,0,67.4,0,102,0
			c-0.9,8.6-1.7,16.6-2.8,26.5c9.5-10.4,17.6-19.4,27.4-30.2c28.1,31.5,62.3,47.4,103.1,43.6c3.5,19.5-2.4,31.4-18.6,33.3
			c-21.7,2.5-44.6,8-65.6-8.6c-2.4,4.7-4.6,9-7.3,14.3c7.3,3.6,13.7,6.7,20,10c15.4,7.8,18.6,15.1,14.2,31.9
			c-2.8,10.6-5.7,21.2-8.5,31.8c-0.1,0.3,0.4,0.7,1.4,2.4c26.6-14.7,35.2-37.9,32.8-67c2.3-0.8,4.2-1.6,6.1-2
			c1.6-0.3,3.4-0.1,5.3-0.1c0.6,1.1,1.5,2.1,1.6,3.2c4.6,36.5-12.9,66-47.4,80.8c-3.3,1.4-5,6.5-8.2,7.8c-2.9,1.2-7-0.4-12.3-0.9
			c5.3-19.9,9.7-38.7,15.5-57.1c3.2-10.1,1.3-15.7-8.6-19.9c-10.1-4.2-19.5-9.7-30-15c6.9-13.7,13.3-26.4,20.7-41.2
			c17.7,21.1,40.9,18.8,63.6,17.7c4-0.2,7.9-3,11.3-7.5c-16.4-2.5-34.1-2.1-48.9-8.4C585.4,789.2,573.6,776.2,559.7,765.4z"/>
		<path d="M680.1,911.4c-15.3-8.9-26.4-1.9-37.6,6.3c-3.1-2.6-5.9-4.9-10.6-8.8c7.4-4.6,13.2-9.7,19.9-12.1
			c7.9-2.8,10.9-7.3,10.2-14.9c-1.5-16.1-3.2-32.3-4.8-48.4c-1.2-0.3-2.5-0.5-3.7-0.8c3.3-2.1,6.5-4.2,10.3-6.6
			c13.5,21.3,13.7,43.8,11,64.6c10,8.5,18.8,16,28.6,24.3c-27.8,14.3-52,27-76.5,39.2c-3.1,1.6-7.4,1.1-11.2,1.1
			c-31.3,0.1-62.6,0-94.6,0c-6.8,21-19.8,34.4-43.1,33.7c-16.3-0.5-29-8.2-34.8-23.2c-3.4-8.7-8-11.9-18.1-10.5
			c0.5-9,1-17.3,1.6-27.1c-6.4-0.3-13.3-0.7-21.1-1.1c-0.4-3.7-0.7-7.3-1.2-11.8c17.9,0,35.1,0,53.3,0c0,3.5,0,7.3,0,11.8
			c-8.6,0.9-20.6-2.2-17.2,15c3.7,0,7.8,0,11.9,0c52.5,0,105,0.2,157.5-0.3c7.2-0.1,14.8-2.5,21.4-5.6
			C647.4,928.7,662.9,920.2,680.1,911.4z M454.3,955.6c5.4,15.2,14.1,21.3,28.5,19.9c11.9-1.1,19.3-7.7,23.3-19.9
			C488.1,955.6,471.7,955.6,454.3,955.6z"/>
		<path d="M593.3,688.2c16.9,0.1,30.7,14,30.6,30.7c-0.1,16.8-14,30.5-30.9,30.4c-17.1,0-30.4-13.5-30.3-30.7
			C562.7,701.6,576.3,688.1,593.3,688.2z M610.5,719c0.1-9.2-8.6-17.8-17.8-17.6c-8.8,0.2-16.7,8.3-16.8,17.2s7.6,17.1,16.4,17.6
			C601.5,736.7,610.4,728.3,610.5,719z"/>
		<path d="M690.7,935.3c3-1.7,6.2-3.6,9.4-5.4c11.5,18.5,5.3,42.1-13.7,53.6c-20.6,12.4-44.4,5.6-58-17.6c3.5-1.9,6.9-3.8,10.2-5.6
			c14.5,15.6,26.3,19.3,39.1,12.7C690.6,966.4,694.7,954.6,690.7,935.3z"/>
		<path d="M405.5,797.2c0-4.5,0-8.1,0-12.3c26.8,0,53,0,80.5,0c0.2,3.7,0.3,7.6,0.5,12.4c-15.8,0-30.5,0-45.7,0
			c-1.2,4.8-2.2,8.8-3.5,13.8c-3.4-0.2-6.9-0.4-11.2-0.6c-0.4-4.1-0.7-7.8-1.1-12.4C419.2,797.8,413,797.5,405.5,797.2z"/>
	</g>
</g>
</svg>
