<?xml version="1.0" encoding="utf-8"?>
<!-- Generator: Adobe Illustrator 22.0.0, SVG Export Plug-In . SVG Version: 6.00 Build 0)  -->
<svg version="1.1" id="Calque_1" xmlns="http://www.w3.org/2000/svg" xmlns:xlink="http://www.w3.org/1999/xlink" x="0px" y="0px"
	 viewBox="0 0 866 594" style="enable-background:new 0 0 866 594;" xml:space="preserve">
<g>
	<path d="M595.8,362c-108.9,0-216.9,0-326.1,0c0,7.9,0,15.6,0,23.2c0,61.4,0,122.7,0.2,184.1c0,5.7-1.5,7.2-7.2,7.2
		c-73.8-0.2-147.6-0.2-221.3,0c-4.7,0-5.9-1.6-5.9-5.9c0.1-69.1,0-138.1,0.2-207.2c0-2.4,1.9-5.8,3.9-7.2
		c51.6-35.2,103.4-70.1,155.2-105.1c47.3-32,94.5-64,141.8-96c30.9-20.9,61.7-41.7,92.7-62.4c1.6-1.1,5.1-1.2,6.6-0.2
		c55.8,37.5,111.4,75.2,167.1,112.9c38.5,26.1,77,52.1,115.6,78.1c35.3,23.9,70.6,47.8,106,71.7c3,2,5.1,3.8,5.1,8
		c-0.2,69.5-0.1,139-0.1,208.5c0,1.3-0.2,2.5-0.4,4.3c-77.6,0-155.1,0-233.5,0C595.8,504.7,595.8,433.6,595.8,362z" fill="currentColor"/>
	<path d="M854.8,358.3c-11.4-7.7-21.5-14.6-31.7-21.4c-69.4-47.1-138.8-94.1-208.2-141.2c-59.4-40.3-118.8-80.5-178.1-120.8
		c-3.1-2.1-5.1-1.9-8,0.1c-61.3,41.7-122.5,83.4-183.9,125c-56.2,38.1-112.4,75.9-168.6,114C55,328.4,33.8,343,11.7,358.1
		c-0.3-2.4-0.6-3.9-0.6-5.5c0-15.1,0.1-30.2-0.1-45.2c0-5.5,1.5-9.2,6.6-12.6c67.2-44.9,134.2-90.1,201.3-135.1
		c58.5-39.2,117.2-78.3,175.7-117.4c11.5-7.7,22.9-15.4,34.2-23.3c3.2-2.2,5.2-2,8.5,0.2c57.9,39,116,77.8,174,116.7
		c53.2,35.6,106.3,71.3,159.4,107c25.8,17.3,51.5,34.6,77.4,51.6c4.8,3.2,7,6.4,6.8,12.4C854.5,323.4,854.8,340,854.8,358.3z" fill="currentColor"/>
	<path d="M580.3,375.2c0,4.1,0,7.5,0,11.5c-98.2,0-196.3,0-294.7,0c-0.2-0.7-0.7-1.5-0.7-2.3c-0.2-11.1-0.7-9.4,8.9-9.4
		c56.2,0,112.5-0.2,168.7-0.3c37.8-0.1,75.6,0,113.5,0C577.2,374.7,578.5,375,580.3,375.2z" fill="currentColor"/>
	<path d="M340.9,493.7c0,13.4,0,26.5,0,40.6c18.8,0,37.1,0,55.4,0c0,0.9,0,1.8,0,2.7c-19,1.3-38.2,0.2-58.5,0.6c0-13.9,0-27.5,0-42
		c-7.5,6.4-7.7,6.4-13.2-0.1c-1.9-2.3-3.9-4.5-7-8.1c0,4.4,0.4,7.4-0.1,10.2c-0.7,4-2,7.9-2.9,11.9c-0.3,1.4-0.6,3-0.6,4.4
		c-0.1,9.5,0.1,19-0.1,28.4c-0.1,3.7,0.7,6,4.9,6.8c1.8,0.3,3.2,2.6,4.8,4c-1.9,0.8-3.8,1.9-5.8,2.3c-2.1,0.4-4.7,0.8-6.4-0.1
		c-2.2-1.1-4.9-3.3-5.3-5.4c-0.8-4.4-0.6-9-0.3-13.5c1.8-21.5-6.6-42-5.9-63.4c0.1-2.1-0.7-4.5-0.1-6.4c0.5-1.7,2.3-3.8,3.9-4.2
		c3.2-0.7,12.6,7.3,13.5,10.8C319,480.4,333.4,493.4,340.9,493.7z" fill="currentColor"/>
	<path d="M496.7,481.7c8.4,0,15.7-0.2,23,0.1c3.9,0.1,11.2,8.6,11.3,12.5c0.1,1.9,0,3.9,0,5.8c0,15.5,0,15.6-15.2,15.3
		c-6.1-0.1-14.2,1.3-17.8-1.9c-3.1-2.9-1.2-11.3-1.4-17.3C496.6,491.6,496.7,486.9,496.7,481.7z" fill="currentColor"/>
	<path d="M496.1,555.6c0-10.8-0.1-20.9,0.2-30.9c0-1.2,2.6-3.3,4.1-3.4c5.8-0.4,11.6-0.3,17.4,0.1c4.4,0.3,12,8.8,12.3,13.3
		c1.5,21,1.5,21-19.7,21C505.9,555.6,501.5,555.6,496.1,555.6z" fill="currentColor"/>
	<path d="M473.9,555.6c-16.8-0.1-16.8-0.1-16.8-16.8c0-0.4,0-0.9,0-1.3c0.4-5.2,0.9-10.5,1.3-15.7c7.5,0,15-0.6,22.4,0.1
		c4.3,0.4,10.1,9.7,10.3,14.1c0,0.6,0,1.3,0,1.9C491.4,555.6,491.4,555.6,473.9,555.6z" fill="currentColor"/>
	<path d="M552.8,555.6c-16.7,0-16.7,0-16.7-16.9c0-0.9,0-1.7,0-2.6c0-15.9,0-15.9,16.2-15c12.1,0.7,17.6,6.3,17.8,18.2
		c0.2,16.3,0.2,16.3-15.9,16.3C553.7,555.6,553.2,555.6,552.8,555.6z" fill="currentColor"/>
	<path d="M457.1,481.7c8,0,15.5-1.5,21.9,0.5c4.7,1.5,9.5,7,11.5,11.8c2,4.8,0.8,11,0.3,16.5c-0.2,1.8-2.6,4.6-4.1,4.7
		c-8.6,0.4-17.2,0.3-25.7,0c-1.3-0.1-3.6-2.4-3.7-3.7C457,501.9,457.1,492.3,457.1,481.7z" fill="currentColor"/>
	<path d="M369,521.4c0.3-12.5-2.1-11.2,11.4-11.1c7.6,0.1,11.1,3.8,11.2,11.6c0,1.5,0,3,0,4.5c-0.1,6.2-2,7.9-8.2,7.2
		c-1.3-0.1-2.5-0.6-3.8-0.7C369,532,369,532,369,521.4z" fill="currentColor"/>
	<path d="M343.9,510.7c20.7-1.7,23.8,1.6,21.1,21.8c-6.8,0-13.8,0-21.1,0C343.9,525.1,343.9,518.1,343.9,510.7z" fill="currentColor"/>
	<path d="M365.6,506.5c-7.6,0-14.4,0-22.2,0c0-6.4-0.1-12.6,0.1-18.7c0-1,0.8-2.6,1.7-3c9.9-4.9,20.3,1.4,20.4,12.2
		C365.6,500,365.6,502.9,365.6,506.5z" fill="currentColor"/>
	<path d="M301.2,452c0-4.9,4.2-9.1,9-9.1c4.5,0,8.5,4.1,8.7,8.7c0.1,4.7-4.3,9.1-9,9.1C305.3,460.7,301.2,456.6,301.2,452z" fill="currentColor"/>
	<path d="M358,547.4c-0.3,5.2-3.2,8-7.8,7.9c-4.5-0.1-7.8-3.2-7.7-7.9c0.1-4.4,3-7.3,7.5-7.3C354.9,540,357.6,542.7,358,547.4z" fill="currentColor"/>
	<path d="M382.1,540c4.3,0.5,7.2,2.9,7.1,7.8c-0.1,4.6-3.1,7.4-7.3,7.5c-4.7,0.1-7.5-3.1-8.1-7.6C373.3,543.8,377.5,539.9,382.1,540
		z" fill="currentColor"/>
</g>
</svg>
