<svg version="1.1" id="Calque_1" xmlns="http://www.w3.org/2000/svg" xmlns:xlink="http://www.w3.org/1999/xlink" x="0px" y="0px"
     viewBox="0 0 290 345.1" style="enable-background:new 0 0 290 345.1;" xml:space="preserve">
<g>
	<path d="M25.5,172.6c0-46.3,0-92.6,0-139c0-16.4,8.9-25.4,25.5-25.4c42.4,0,84.7,0,127.1-0.1c5.2,0,9,1.6,12.7,5.3
		c22.9,23.2,46,46.2,69.1,69.2c3.3,3.3,4.7,6.6,4.7,11.3c-0.1,72.4-0.1,144.8-0.1,217.2c0,16.8-8.8,25.7-25.6,25.7
		c-62.8,0-125.6,0-188.4,0c-16.1,0-25-9.1-25-25.3C25.5,265.2,25.5,218.9,25.5,172.6z M40.4,172.7c0,45.1,0,90.2,0,135.4
		c0,12.9,1,13.9,13.6,13.9c61.6,0,123.2,0,184.8,0c8.3,0,10.7-2.4,10.7-10.7c0-18.5,0-37.1,0-55.6c0-52.8,0-105.7-0.1-158.5
		c0-2-0.9-4.4-2.3-5.8c-21.7-21.9-43.6-43.8-65.5-65.5c-1.4-1.4-3.8-2.4-5.7-2.4c-42.2-0.1-84.4-0.1-126.6-0.1
		c-5.8,0-8.4,2.6-8.8,8.4c-0.1,1.4,0,2.7,0,4.1C40.4,81.4,40.4,127,40.4,172.7z" fill="currentColor"/>
    <path d="M116,202.4c13,0,24.4,0,35.9,0c4.3,0,7.3,2.2,7.8,6.6c0.4,4-1.5,7-5.7,7.9c-1.8,0.4-3.7,0.4-5.6,0.4
		c-8.4,0-16.8,0-25.2-0.1c-2.5,0-5.1,0-7.8,0c0,5.1,0,9.7,0,15c8.5,0,16.9,0,25.2,0c3.4,0,6.9,0,10.3,0c5.5,0.1,8.8,2.7,9,7
		c0.2,4.7-3,7.7-8.8,7.9c-8.9,0.2-17.8,0-26.8,0c-2.2,0-4.4,0-8,0c2.8,6.5,4.5,12.4,7.6,17.6c8,13.6,24.8,16.2,37.4,6.7
		c2.1-1.6,5.4-2.7,7.8-2.2c2.1,0.5,5,3.4,5.1,5.4c0.2,2.6-1.3,6.1-3.2,7.9c-17.8,16.4-47.8,11.4-60.1-10.3c-3.6-6.5-5.8-13.8-8-21
		c-0.9-3.2-2.1-4.3-5.1-4c-2,0.2-4.1,0.1-6.2-0.2c-4.2-0.6-6.4-3.3-6.3-7.4c0.1-4.2,2.6-6.6,6.7-7.1c2.5-0.3,5.1-0.1,8-0.1
		c0-5,0-9.7,0-14.6c-5.8-1.2-15.1,1.9-14.5-8.2c0.6-10.2,10-6,15.4-7.2c3-7.9,5.2-15.9,9-23.1c10.8-20.9,35.9-27.9,55.8-15.9
		c2.2,1.3,4.3,2.9,6.1,4.7c3.8,3.6,4.1,7.4,1.1,10.8c-2.8,3.2-7,3.5-11,0.2c-8.7-7.2-18.2-8.6-28.2-3.4c-3.4,1.8-6.8,4.5-8.7,7.7
		C121.6,189,119.3,195.4,116,202.4z" fill="currentColor"/>
    <path d="M122.6,112.8c14.2,0,28.5,0,42.7,0c6.1,0,9.6,2.9,9.5,7.6c-0.1,4.8-3.5,7.4-9.7,7.4c-27.6,0-55.2,0.1-82.9,0.1
		c-1.5,0-3.1,0-4.6-0.2c-4.7-0.6-7.4-3.5-7.2-7.8c0.2-4.1,3.2-7,7.9-7c9.9-0.1,19.9,0,29.8,0C113,112.9,117.8,112.9,122.6,112.8
		C122.6,112.9,122.6,112.8,122.6,112.8z" fill="currentColor"/>
    <path d="M189.8,83c11.1,0,21.7,0,32.2,0c1.5,0,3.1-0.1,4.6,0c4.5,0.2,7.7,3.2,7.9,7.1c0.2,4.3-2.9,7.7-7.8,7.7
		c-14.7,0.1-29.5,0.1-44.2,0c-4.9,0-7.7-2.8-7.7-7.7c-0.1-14.7-0.1-29.5,0-44.2c0-4.6,3.2-7.7,7.3-7.7c4.4,0,7.5,2.9,7.6,7.9
		c0.2,10.3,0.1,20.5,0.1,30.8C189.8,78.9,189.8,80.7,189.8,83z" fill="currentColor"/>
    <path d="M100.2,53.1c7,0,14,0,21.1,0c5.4,0,8.6,2.9,8.6,7.3c0,4.3-2.9,7.4-8,7.5c-14.6,0.2-29.1,0.2-43.7,0c-5-0.1-7.9-3.3-7.9-7.7
		c0.1-4.3,3.2-7.1,8.2-7.2C85.8,53.1,93,53.1,100.2,53.1C100.2,53.1,100.2,53.1,100.2,53.1z" fill="currentColor"/>
    <path d="M100.7,83c6.8,0,13.7,0,20.5,0c5.4,0,8.7,2.8,8.7,7.3c0,4.5-3,7.5-8.5,7.6C107.3,98,93.1,98,78.8,97.9
		c-5.4-0.1-8.5-3.1-8.4-7.6c0-4.5,3.2-7.2,8.7-7.3C86.3,82.9,93.5,83,100.7,83C100.7,83,100.7,83,100.7,83z" fill="currentColor"/>
    <path d="M204.9,112.9c2.6,0,5.1-0.2,7.7,0c4.1,0.3,6.7,2.8,6.9,6.9c0.2,4-1.8,7.3-6,7.6c-5.8,0.4-11.6,0.4-17.4,0
		c-4.2-0.3-6.3-3.4-6.1-7.5c0.1-4.1,2.6-6.6,6.8-7C199.4,112.7,202.2,112.9,204.9,112.9z" fill="currentColor"/>
</g>
</svg>
