<svg version="1.1" id="Calque_1" xmlns="http://www.w3.org/2000/svg" xmlns:xlink="http://www.w3.org/1999/xlink" x="0px" y="0px"
     viewBox="0 0 385 404.1" style="enable-background:new 0 0 385 404.1;" xml:space="preserve">
    <g>
        <path d="M337.8,305.1c-13.4,13.5-26.7,26.8-40.3,40.4c-9.3-6.5-19.1-13.2-28.6-20.2c-3.3-2.4-5.9-2.4-9.5-0.7
            c-8.2,3.9-16.5,7.5-25.1,10.6c-3.9,1.4-5.7,3.3-6.3,7.3c-1.8,11.8-3.9,23.6-5.9,35.6c-18.9,0-37.7,0-56.9,0
            c-1.4-8.3-2.9-16.7-4.3-25.2c-0.6-3.7-1.3-7.4-1.8-11.2c-0.4-3.6-2.4-5.1-5.8-6.4c-9.1-3.4-18-7.3-28.1-11.5
            c5.8-8.6,11-16.3,15.9-23.5c51.2,21.8,96.6,15.3,134.8-24.6c29.5-30.8,39.6-80,16.4-126.6c7.6-4.9,15.2-9.8,23.8-15.4
            c3.4,8.7,7,16.2,9.2,24.1c1.7,6,4.4,8.8,10.7,9.5c10.4,1.3,20.7,3.4,31.4,5.3c0,19,0,37.9,0,57.1c-11.3,1.9-22.5,4-33.8,5.8
            c-4,0.6-6,2.3-7.3,6.2c-3,9-6.6,17.7-10.2,26.5c-1.2,2.9-0.9,5.1,0.9,7.6C324.1,285.6,331,295.5,337.8,305.1z" fill="currentColor"/>
        <path d="M49.6,97.7c13.5-13.7,26.7-27,40-40.5c9.6,6.9,19.4,13.7,29,20.8c3,2.2,5.4,2.4,8.9,0.8c8.2-3.7,16.4-7.1,24.9-9.9
            c4.4-1.4,6.3-3.6,6.9-8c1.7-11.2,3.8-22.2,5.8-33.6c19,0,37.8,0,56.9,0c1.7,9.7,3.9,19.3,4.9,29.1c0.8,7.7,3.5,12,11.6,13.7
            c7.1,1.5,13.8,4.9,21.8,7.9c-5.5,8.6-10.5,16.4-14.8,23.1c-11.3-3.4-21.1-7.2-31.3-9.3c-58.8-12.1-118.3,27.7-130,86.5
            c-4.9,24.4-2.1,47.8,8.5,70.3c1.2,2.5,1.2,4.2-1.2,5.9c-6.7,4.7-13.2,9.5-20.8,15c-3.9-9.2-7.8-17-10.4-25.1
            c-1.8-5.9-4.6-8.7-10.9-9.4c-10.9-1.3-21.8-3.5-32.9-5.3c0-18.9,0-37.7,0-57c6.6-1.1,13.3-2.3,20.1-3.4c5.4-0.9,10.8-1.8,16.2-2.6
            c3.3-0.5,5-2.1,6.3-5.3c3.5-8.8,7.2-17.5,11.3-26c1.6-3.4,1.7-5.8-0.5-8.9C63,116.9,56.2,107.1,49.6,97.7z" fill="currentColor"/>
        <path d="M147.9,293.8c3.3-3.1,6.4-5.9,9.5-8.9c6.8-6.8,13.7-13.5,20.4-20.5c1.9-2,3.8-2.6,6.5-2.2c16.4,2.4,31.7-0.7,45.1-10.6
            c20-14.8,28.5-34.7,25.4-59.5c-0.4-2.8,0.1-4.8,2.3-6.9c9.9-9.6,19.6-19.4,29.3-29.1c15.8,28.2,17.8,77.6-16.1,114.8
            C236.4,307.8,185.5,313,147.9,293.8z" fill="currentColor"/>
        <path d="M100.3,245.7c-16.8-33.4-14.7-80,16.6-114.3c32.9-35.9,84-42.2,121.4-23.4c-0.9,1-1.8,1.9-2.6,2.8
            c-9.1,9.1-18.3,18.1-27.3,27.3c-1.7,1.8-3.4,2.4-5.8,2c-42-5.5-75.8,28.6-70.1,70.7c0.2,1.2-0.1,3-0.9,3.8
            c-10.1,10.3-20.3,20.5-30.5,30.7C100.8,245.6,100.5,245.6,100.3,245.7z M100.9,197.9c0,0.8-0.5,2.5,0.1,3.6
            c0.7,1.4,2.5,3.4,3.6,3.3c1.4-0.2,3-1.9,3.9-3.4c0.6-1.1,0.2-2.8,0.3-4.2c0.7-13,3.9-25.4,10.3-36.8c10.9-19.2,26.6-32.7,47.7-39.7
            c2.7-0.9,5.5-2,4.3-5.7c-1.3-3.7-4.2-2.6-6.8-1.7C127.3,125.9,102.4,159,100.9,197.9z M189.7,108.7c-1.7,0.1-3.6-0.2-5,0.5
            c-1.4,0.8-3.3,2.6-3.2,3.9c0.1,1.3,2.1,3,3.6,3.6c1.4,0.5,3.3-0.2,5-0.3c3.1-0.2,7,0.8,7.3-4.1C197.5,109.3,195,108.3,189.7,108.7z
            " fill="currentColor"/>
        <path d="M188,254.8c19.8-19.8,39.4-39.3,58.9-58.8C252.2,223.1,226.7,259.1,188,254.8z" fill="currentColor"/>
        <path d="M197.5,147.7c-19.1,19.1-38.3,38.4-57.4,57.6C135.6,175.2,164.3,143.5,197.5,147.7z" fill="currentColor"/>
        <path d="M263.4,138.7c-1.5,2.1-2.5,4-4,5.5c-10.2,10.4-20.6,20.6-30.9,30.9c-30.8,30.8-61.6,61.6-92.4,92.4c-1,1-2,2.1-3.2,2.8
            c-2.4,1.4-4.9,1.2-6.8-0.8c-1.9-2.1-2.5-4.6-0.6-7.1c0.9-1.1,1.8-2.2,2.8-3.2c40.8-40.8,81.6-81.7,122.4-122.5c1-1,2-2.4,3.2-2.8
            c1.9-0.5,4.2-0.9,5.8-0.2C261.3,134.5,262,136.8,263.4,138.7z" fill="currentColor"/>
    </g>
</svg>
