<?xml version="1.0" encoding="utf-8"?>
<!-- Generator: Adobe Illustrator 22.0.0, SVG Export Plug-In . SVG Version: 6.00 Build 0)  -->
<svg version="1.1" id="Calque_1" xmlns="http://www.w3.org/2000/svg" xmlns:xlink="http://www.w3.org/1999/xlink" x="0px" y="0px"
	 viewBox="0 0 487 471" style="enable-background:new 0 0 487 471;" xml:space="preserve">

<style type="text/css">
        .color-fixed{fill:#848789;}
    </style>
    <g>
	<path d="M243.5,231.6c0,28.8,0,57.6,0,86.4c0,35,0,70,0,105c0,8.5,3.4,11.4,12,9.9c43.7-7.5,87.3-15.1,131-22.7
		c1.8-0.3,3.6-0.6,5.4-0.9c4.6-0.8,6.8-3.7,6.8-8.2c0-30.3,0.1-60.6,0-90.9c0-6.6-2.9-9.1-9.6-9.4c-26.9-1.5-53.8-2.9-80.8-4.6
		c-9.8-0.6-15.9-6.6-20.1-15c-7.3-14.8-14.6-29.6-21.8-44.4c-5-10.2-10-20.4-14.9-30.6c-1.6-3.4-3.7-5.9-7.8-5.9
		c-4.3-0.1-7,2.2-8.8,6c-11.7,24.1-23.6,48.1-35.1,72.3c-4.1,8.6-10.5,12.3-19.5,13.1c-29.3,2.5-58.5,5.3-87.8,7.9
		c-23.2,2.1-46.5,4.2-69.7,6.1c-8.7,0.7-11.4-3.2-7.4-11c13.9-26.9,27.9-53.7,42.1-80.4c2.8-5.3,7.8-7.8,13.6-8.8
		c34-5.9,67.9-11.9,101.9-17.6c21.6-3.6,43.3-7.6,65.1-9.6c11.1-1,22.6,1.2,33.7,2.9c23.5,3.5,46.8,7.7,70.3,11.6
		c25.1,4.1,50.1,8.3,75.3,12.1c7.9,1.2,12.9,5.4,16,12.4c3.4,7.6,6.3,15.4,10,22.9c8,16.3,16.4,32.4,24.6,48.6
		c1.6,3.1,3.3,6.1,4.6,9.4c2.2,5.4,0.9,7.5-4.8,7.6c-6.5,0-13-0.4-19.5-0.6c-2.1-0.1-4.2-0.4-6.3-0.4c-6.8-0.1-10.1,3.1-10.1,9.8
		c0,34.1,0,68.2,0,102.3c0,9.2-3.4,13.6-12.6,15.4c-50.9,10-101.8,19.6-152.6,30c-20.1,4.1-39.4,1-58.9-2.9c-30-5.9-60-11.5-90-17.2
		c-16.3-3.1-32.7-6.1-49-9.2c-8.4-1.6-11.4-5.5-11.6-14.1c-0.8-28.6-1.7-57.3-2.6-85.9c-0.4-13.7,1.3-15.3,14.8-16.4
		c32-2.5,64-5.2,96-7.8c11.2-0.9,22.3-1.7,33.5-2.6c6.4-0.5,10.3-4.2,12.8-10c8.4-18.9,16.9-37.8,25.6-56.6c1.3-2.9,3.3-5.5,5-8.2
		C242.6,231.2,243,231.4,243.5,231.6z" fill="currentColor"/>
	<path class="color-fixed" d="M271,101.9c0,7.7,0.1,15.5,0,23.2c-0.1,5.9-2.1,7.9-8,7.9c-13.2,0-26.4,0-39.6,0c-5.6,0-7.7-2.1-7.7-7.6
		c0-14.9,0-29.7,0-44.6c0-7.1-1.6-8.7-8.9-8.7c-5,0-10-0.1-15,0c-3.2,0.1-6.2,0-7.6-3.5c-1.4-3.6,0.6-6,3-8.3
		c15.4-15.3,30.7-30.6,46-46c9.7-9.7,9.7-9.7,19.3-0.3c15.3,14.9,30.6,29.9,45.9,44.8c1.1,1.1,2.5,2,3.1,3.3
		c0.8,1.8,1.6,4.3,0.9,5.8c-0.7,1.5-3.1,3.1-4.8,3.2c-6.2,0.4-12.4,0.2-18.6,0.2c-6.3,0.1-8,1.8-8,8.2
		C270.9,87.1,271,94.5,271,101.9C271,101.9,271,101.9,271,101.9z"/>
</g>
</svg>
