<?xml version="1.0" encoding="utf-8"?>
<!-- Generator: Adobe Illustrator 22.0.0, SVG Export Plug-In . SVG Version: 6.00 Build 0)  -->
<svg version="1.1" id="Calque_1" xmlns="http://www.w3.org/2000/svg" xmlns:xlink="http://www.w3.org/1999/xlink" x="0px" y="0px"
	 viewBox="0 0 986 986" style="enable-background:new 0 0 986 986;" xml:space="preserve">
<g>
	<path d="M516.7,51.3c15.9,1.1,31.9,3.2,47.9,6.4c29.8,5.9,46.4,25.8,42.5,50c-4.1,25.5-24.1,39-54.9,35
		c-123.3-16-230.7,16.1-318.2,105.9C119.1,366.4,101.3,548.5,189.6,689c85.8,136.5,258,199.1,411.9,149.7
		c157.1-50.4,259.8-202.4,247.7-366.8c-1-14.2-2.9-28.4-5.2-42.4c-5.2-31.3,7.4-53.7,33.6-58.9c24.2-4.8,44,11.2,50.8,41
		C964.7,572.3,895.7,744,768,845.3c-134.8,107-326.2,116.9-478.1,39.9C130.2,804.4,33,626.5,49.9,448.3
		C65.7,282,188.4,139.6,341.5,79.6C397,57.9,457,47.1,516.7,51.3z" fill="currentColor"/>
	<path d="M449.3,453.8c0-54.4-0.2-104.3,0.1-154.1c0.2-32.9,15.8-52.6,41.6-53.5c26.8-0.9,44.2,19.7,44.3,53.8
		c0.2,62.1,0.3,124.3,0,186.4c-0.2,38.4-15.3,53.2-53.9,53.4c-70.3,0.3-140.6,0.3-210.9,0c-32.4-0.1-52.5-16.5-53-42.2
		c-0.6-26.7,20.1-43.6,54.5-43.7C329.7,453.7,387.6,453.8,449.3,453.8z" fill="currentColor"/>
	<path d="M731.2,258.1c-17.5,0-31.5,0-45.5,0c-44.8-0.1-64.2-12.7-64.8-42.3c-0.6-30.2,20-43.8,66.1-43.8c13.2,0,26.3,0,44.2,0
		c0-22.4-0.5-43.3,0.1-64.2c0.8-28.8,16.6-45.9,41.7-46.5c26.4-0.7,43.1,16.9,44.2,47.2c0.7,19.3,0.8,38.7,1.2,58
		c0,0.8,1.2,1.5,4.6,5.6c18.2,0,39.3-0.6,60.4,0.1c26.3,0.9,41.9,14.9,43.8,41.3c1.8,24.6-16.7,43.1-43.9,44.4
		c-20.3,0.9-40.7,0.2-66.2,0.2c0,20.9,0.3,40.7-0.1,60.5c-0.6,30.7-16.4,49.2-41.8,49.9c-26.7,0.7-43.5-18.4-44.1-50.6
		C730.9,299.5,731.2,281.2,731.2,258.1z" fill="currentColor"/>
</g>
</svg>
