<svg width="14" height="14" viewBox="0 0 14 14" fill="none" xmlns="http://www.w3.org/2000/svg">
    <g>
        <path d="M13.4167 7.57124H0.583333C0.261332 7.57124 0 7.30991 0 6.9879C0 6.6659 0.261332 6.40457 0.583333 6.40457H13.4167C13.7387 6.40457 14 6.6659 14 6.9879C14 7.30991 13.7387 7.57124 13.4167 7.57124Z" fill="currentColor"/>
        <path d="M13.4167 3.09895H0.583333C0.261332 3.09895 0 2.83762 0 2.51561C0 2.19361 0.261332 1.93228 0.583333 1.93228H13.4167C13.7387 1.93228 14 2.19361 14 2.51561C14 2.83762 13.7387 3.09895 13.4167 3.09895Z" fill="currentColor"/>
        <path d="M13.4167 12.0433H0.583333C0.261332 12.0433 0 11.782 0 11.46C0 11.138 0.261332 10.8767 0.583333 10.8767H13.4167C13.7387 10.8767 14 11.138 14 11.46C14 11.782 13.7387 12.0433 13.4167 12.0433Z" fill="currentColor"/>
    </g>
</svg>
