<?xml version="1.0" encoding="utf-8"?>
<!-- Generator: Adobe Illustrator 22.0.0, SVG Export Plug-In . SVG Version: 6.00 Build 0)  -->
<svg version="1.1" id="Calque_1" xmlns="http://www.w3.org/2000/svg" xmlns:xlink="http://www.w3.org/1999/xlink" x="0px" y="0px"
	 viewBox="0 0 693 1080" style="enable-background:new 0 0 693 1080;" xml:space="preserve">
<style type="text/css">
	.st0{fill:#FF5627;}
	.st1{fill:#92063D;}
	.st2{fill:#FFC400;}
</style>
<path d="M641.1,869.8c-0.1-219.7-0.2-439.4-0.4-659.1c9.5,6.7,5.6,16.7,5.6,25.3c0.2,202.8,0.2,405.5,0,608.3
	C646.3,852.9,650,862.8,641.1,869.8z"/>
<path d="M52.9,216.9c0.4,39.8,1.1,79.5,1.1,119.3c0.1,166.7,0.1,333.4,0,500.2c0,9.1-0.8,18.2-1.2,27.2c-9.8,2.8-5.6-5.2-5.6-8.3
	C47,645.2,47,435.1,47.1,225.1c0-3.1,0.9-6.1,1.5-9.1c0.1-0.3,1.5-0.5,2.1-0.4C51.6,215.8,52.2,216.4,52.9,216.9z"/>
<path class="st0" d="M666.6,993.4c-0.2-253.7-0.2-507.5,0-761.2c0-8.8-3.1-18.4,3.8-26.4c-5.7-24.2-21.8-36-45.8-38.3
	c-37.2,1.4-74.5,0.2-111.7,0.6c-28.9,0.3-33.2,8.3-18.4,34.1c8.8,5.7,18.8,5.6,28.7,5.7c26.4,0.3,52.7-0.1,79.1,0.2
	c11.6,0.2,23.3,0.4,31.5,10.8c6.7,8.5,5.7,18.7,5.7,28.6c0,195.3,0,390.7,0,586c0,10,0.9,20.1-6.1,28.6c-9.3,11-22.3,9.5-34.6,9.6
	c-166,0.1-332,0.1-498,0.2c-15.2,0-29.8-1.8-43.6-8.6c-2.7-0.7-4-2.1-3.9-5c2-205,0.4-410,0.9-615c0-8.2-1.2-16.7,4.4-24
	C68.7,208.7,82,208,95.4,207.9c25.7-0.2,51.4,0.3,77.1-0.2c11.4-0.2,23.6,1.4,32.4-8.7c5.5-27.6,3.1-30.7-23.9-31
	c-37.3-0.4-74.6,0.8-111.8-0.5c-34,7.4-46.7,22.2-46.7,56.6c-0.1,260.2-0.1,520.4-0.1,780.5c0,3.3-0.1,6.7,0.2,10
	c2.7,25.6,17.2,40,44.7,44.5c6.8-7,15.7-4.3,23.7-4.4c170.6-0.1,341.3-0.1,511.9,0c8,0,16.8-2.7,23.6,4.4
	c25.9-0.8,39.5-15.4,44.4-39.6C663.4,1011.8,666.6,1002.2,666.6,993.4z M54.6,923.2c0.1-15.1,11.7-8.2,18.4-8.2
	c91.5-0.3,183.1-0.2,274.6-0.2s183.1-0.1,274.6,0.2c6.7,0,18.2-6.6,18.2,8.6c0,12.2,2.7,26.2-13.6,30.9c-5.4,1.6-11.6,0.9-17.4,0.9
	c-174.8,0-349.5,0-524.3,0c-6.6,0-13.9,0.8-19.7-1.7C51.7,947.8,54.5,934.5,54.6,923.2z M635.9,1021.8c-2.5,3.2-6.2,5.4-9.4,8l0,0
	c-7.3,8.3-17.1,4.8-25.8,4.8c-169.3,0.2-338.6,0.2-508,0c-8.7,0-18.5,3.5-25.7-4.9c-7.7-5.6-12.4-12.7-12.8-22.8
	c-0.5-13.8-0.5-20.3,19.2-20.2c181.3,1.5,362.7,0.9,544.1,1.3c7.3,0,18.3-8.5,21.7,2.5C642.1,1000.2,643.2,1012.2,635.9,1021.8z"/>
<path class="st1" d="M520.7,168.7c34.6-0.2,69.2-0.7,103.9-1.1c-34.8-0.3-69.7-1.9-104.5-0.5c-21.1,0.9-29.7-3.7-28-26.9
	c1.8-26.3-10.5-36.8-37.6-38c-6.6-0.3-13.4-0.8-19.9,0c-16.2,2-22.8-2.3-23.4-20.9c-1-33.8-28.7-59-61.5-60.5
	C318.2,19.4,285,44,284,76.8c-0.8,27-13.6,25.9-32.4,25.6c-40.7-0.7-49.4,7.3-49.7,46.3c-0.1,14.2-4.3,18.4-18.4,18.2
	c-38.2-0.6-76.3,0.3-114.6,0.7c33.8,0.4,67.9,2.7,101.7,0.5c25.9-1.7,35.2,6.7,30.1,31.7c-20.8,51.9-6.9,73.7,47.2,73.8
	c65.6,0.1,131.3,0.1,196.9,0c53.1,0,62.3-11,53.7-64.2c-0.5-3.2-1.9-6.3-3-9.5C491.3,168.8,491.3,168.9,520.7,168.7z M399.1,232
	c-16.6,0-33.2,0-49.8,0c-32.4,0-64.8-0.7-97.1,0.3c-15.4,0.5-20.4-4.9-19.5-20c1.1-19.9,0.9-39.9,0.1-59.8
	c-0.5-12.6,3-19.1,16.5-17.3c1.6,0.2,3.3,0,5,0c18.2-0.2,39.8,5.5,53.9-2.2c17.1-9.4,3.8-33.2,7.2-50.4c3.1-15.8,11.2-25.9,27.1-28
	c16.8-2.3,29.3,4.6,35,21.1c1.9,5.4,2.7,11.3,3,16.9c2.1,42.6,2,42.6,45.9,42.6c35,0,35,0,35,35.7C461.4,232,461.4,232,399.1,232z"
	/>
<path class="st2" d="M344.6,819.8c-68.2,0-136.3,0.1-204.5,0c-33.1-0.1-38-5-38.1-36.9c0-14.1,0.7-28.3-0.2-42.4
	c-1.3-22.8,9.2-30.8,31.4-30.7c79.8,0.7,159.6,0.3,239.4,0.3c62.4,0,124.7,0.6,187.1-0.3c23.8-0.3,33.6,9.1,32,32.6
	c-1,14.1-0.1,28.3-0.2,42.4c-0.1,29.1-5.5,34.8-34.9,34.9C486,820,415.3,819.8,344.6,819.8z"/>
<path class="st2" d="M411.7,504.1c0-37.4,0.7-74.8-0.3-112.1c-0.5-22,7.4-32.2,30.4-31.6c39.9,0.9,79.8,0.8,119.6,0
	c20.8-0.4,30.4,7.5,30.3,29.2c-0.5,77.3-0.6,154.5,0.1,231.8c0.2,18.9-7.7,24.4-25.5,24.1c-43.2-0.8-86.4-1-129.6,0.1
	c-20.3,0.5-25.8-8-25.3-26.8C412.4,580.5,411.7,542.3,411.7,504.1z"/>
<g>
	<path class="st0" d="M231.8,484.4c-37.3,0-74.7-0.5-112,0.3c-13.2,0.3-16.9-4.3-17-17.1c-0.1-13.5,4.8-16.6,17.5-16.5
		c75.5,0.5,151,0.6,226.5,0c13.4-0.1,16.7,4.4,16.8,17.1c0.1,13.4-4.6,16.8-17.3,16.6C308.1,483.9,269.9,484.4,231.8,484.4z"/>
	<path class="st0" d="M231.9,394.9c-36.6,0-73.1-0.4-109.7,0.2c-12.8,0.2-19.8-1.5-19.5-17.1c0.3-14.1,6.3-16.2,18.2-16.1
		c74.8,0.4,149.6,0.6,224.3-0.2c15.4-0.2,17.3,6.6,17.9,19.2c0.8,16.1-9.2,14.1-19.2,14C306.7,394.8,269.3,394.9,231.9,394.9z"/>
	<path class="st0" d="M107.4,563.9c-6.6-9.4-6.6-18.8-0.2-28.3c36.2,4.8,72.5,1.1,108.8,2.1c47,1.3,94.1-2.2,141.2,1.8
		c6.4,17.4,0.5,23.4-18.1,23.4C261.8,563,184.5,560.9,107.4,563.9z"/>
	<path class="st0" d="M107.3,644.1c-6.5-9.3-6.6-18.7-0.1-28.1c72.6,3.9,145.3,0.5,217.9,1.8c10.7,0.2,21.5-1.8,32,1.7
		c6.2,17.4,0.4,23.6-18.2,23.3c-68.1-0.8-136.2-0.4-204.3-0.2C125.5,642.6,116.3,641.2,107.3,644.1z"/>
	<path class="st0" d="M107.4,563.9c8-6.6,17.5-3.6,26.3-3.6c67.1-0.3,134.2-0.5,201.3,0.1c15,0.1,24.7-2.4,21.7-20.1
		c-1.7-1.2-2.3-2.3-1.7-3.5c0.6-1.1,1.2-1.7,1.7-1.7c11.8,23.8,9.3,30.1-12.7,30C265.2,564.9,186.3,564.4,107.4,563.9z"/>
	<path class="st0" d="M107.3,644.1c7.9-7,17.5-3.8,26.2-3.8c67.1-0.3,134.3-0.5,201.4,0.1c15,0.1,24.7-2.4,21.7-20.1
		c-1.7-1.1-2.3-2.1-1.7-3.1c0.6-1,1.2-1.4,1.8-1.4c11.7,23.8,9.2,29.9-13,29.8C265,645.2,186.2,644.6,107.3,644.1z"/>
	<path class="st0" d="M356.8,615.7c0,1.5-0.1,3-0.2,4.5c-74.4,0-148.9,0.1-223.3-0.2c-8.7,0-18.3,3.2-26.1-4
		C190.4,613.5,273.6,614.2,356.8,615.7z"/>
	<path class="st0" d="M356.8,535.1c0,1.7,0,3.5-0.1,5.2c-74.6,0-149.1,0.1-223.7-0.2c-8.7,0-18.4,3.4-25.9-4.5
		C190.3,532.2,273.5,533.1,356.8,535.1z"/>
</g>
</svg>
