<?xml version="1.0" encoding="utf-8"?>
<!-- Generator: Adobe Illustrator 22.0.0, SVG Export Plug-In . SVG Version: 6.00 Build 0)  -->
<svg version="1.1" id="Calque_1" xmlns="http://www.w3.org/2000/svg" xmlns:xlink="http://www.w3.org/1999/xlink" x="0px" y="0px"
	 viewBox="0 0 778 778" style="enable-background:new 0 0 778 778;" xml:space="preserve">
<g>
	<path d="M128.9,766c-2.9-4.7-7.3-9.2-8.2-14.3c-1.3-7.7,5.6-13.4,14.5-13.6c7-0.2,14,0,20.9,0c6.9,0,13.9,0,22.2,0
		c-41.1-90-81.7-179.1-122.6-268.9c80.4-42.4,160.3-84.5,241.9-127.6c0,4.7,0,7.8,0,10.8c0,64.3,0,128.5,0,192.8
		c0,3.5-0.2,7.1,0.5,10.4c1.4,7,6.3,10.4,13.1,10.4c6.8,0,11.7-3.5,13.1-10.4c0.7-3.4,0.4-6.9,0.4-10.4c0-64,0-128,0-191.9
		c0-3.2,0-6.4,0-11.1c3.7,1.7,6.5,2.9,9.2,4.3c60.1,31.6,120.2,63.3,180.3,95c13.5,7.1,13.5,7.1,12,24.6c-11.1,0-22.3-0.2-33.5,0
		c-23.4,0.5-40.1,14.6-43.2,36.2c-3.5,24.4,15,46.7,39.6,47.3c12.2,0.3,24.4,0.1,37.9,0.1c-0.6,3.9-0.4,7.4-1.7,10.2
		c-17.2,38.1-34.6,76-52,114c-0.3,0.7-1,1.4-1.9,2.6c-26.5-21.6-41.6-48.9-43.9-82.9c-0.8-11.2-2-22-9.1-31.2
		c-11.1-14.3-29.9-20-46.9-14.1c-16.5,5.7-28.2,21.6-27.9,39.4c1.2,68.2,31.6,121.2,85.5,161.6c2.3,1.7,4.6,3.4,8.1,6
		c-3.6,3.9-6.7,7.3-9.9,10.8C327.9,766,228.4,766,128.9,766z" fill="currentColor"/>
	<path d="M12,364.6c3.9-3.3,7.5-7.2,11.8-10C115,294.1,206.5,233.7,297.6,173c10-6.7,17.8-6.5,27.6,0.1
		c55,36.9,110.4,73.2,165.6,109.7c1,0.6,1.8,1.5,3.3,2.7c-24.7,40.5-22.4,79.5,9.3,118.5c-4.9-2.4-7.8-3.7-10.7-5.2
		c-56.5-29.8-113.1-59.4-169.4-89.5c-8.7-4.6-15.7-4.5-24.4,0.1C217.3,352.9,135.3,396,53.4,439.1c-2.8,1.5-5.6,2.8-9,4.4
		c-11-23.1-21.7-45.8-32.4-68.5C12,371.5,12,368.1,12,364.6z" fill="currentColor"/>
	<path d="M547.8,766c-15.5-3.5-31.5-5.7-46.4-10.8c-63-21.8-107.3-62.6-125.1-128.4c-3.3-12.2-3.8-25.2-4.7-37.9
		c-0.6-9.1,5-14.8,13.2-15c8.3-0.2,14.4,5.2,14.5,14c0.3,70.3,54.7,128.3,126.3,144.9c9.2,2.1,18.7,3.1,28.7,4.8
		c0-72.6,0-143.7,0-215.8c-19.2,0-38.1,0-56.9,0c-14.3,0-20.9-4.4-20.9-13.9c0-9.4,6.9-14.2,20.8-14.2c18.8,0,37.7,0,57,0
		c0-31,0-61.1,0-92c-19.4-5.7-34.9-16.9-43.6-36.2c-6.1-13.5-7.4-27.4-3.8-41.7c7.7-29.9,34.1-49.3,65.3-48.2
		c28.3,1,54.3,23.7,59.1,51.7c4.8,27.8-7,61.7-48.3,74.6c0,30.1,0,60.3,0,91.8c6.4,0,12.7,0,19,0c14.5,0,29.1-0.1,43.6,0.1
		c9.1,0.1,15.6,6.5,15.4,14.4c-0.2,7.8-6.2,13.4-15.2,13.5c-20.6,0.2-41.2,0.1-62.4,0.1c0,71.8,0,142.8,0,214.8
		c16.1,0.2,31.5-3.6,46.4-9c51.6-18.8,88.7-52.2,103.7-106.6c2.6-9.4,3.7-19.4,4.4-29.2c0.5-7.8,1.6-14.8,10-17.4
		c8.2-2.6,13.8,1.8,18.2,8.3c0,8.1,0,16.3,0,24.4c-1.5,6.4-2.9,12.8-4.6,19.1c-17.4,63.9-59.7,104.6-120.4,127.1
		c-16.4,6.1-34.1,8.5-51.2,12.6C575.8,766,561.8,766,547.8,766z M603.9,339.3c0-19.7-15.8-35.6-35.3-35.5
		c-19.5,0-35.1,15.8-35.2,35.7c0,19.7,15.8,35.7,35.3,35.6C588.3,374.9,603.9,359,603.9,339.3z" fill="currentColor"/>
	<path d="M420.4,12c7.3,4.2,9.7,10.7,9.5,19c-0.3,16.8-0.1,33.6-0.1,51.1c-79.1,0-157.3,0-237,0c0-8.7,0-17.3,0-25.8
		c0-8.4,0.3-16.9-0.1-25.3c-0.4-8.3,2.1-14.8,9.5-19C275,12,347.7,12,420.4,12z" fill="currentColor"/>
	<path d="M12,746.8c4.5-7,11-9.3,19.3-8.8c8.7,0.6,17.4,0.4,26.1,0.1c8.1-0.3,15.3,0.9,18.4,9.6c2.9,8.3-2.1,13.6-7.9,18.4
		c-18.6,0-37.2,0-55.9,0C12,759.6,12,753.2,12,746.8z" fill="currentColor"/>
	<path d="M512.1,263.9c-22.3-14.7-43.6-28.8-64.9-42.8c-35.6-23.6-71.2-47.2-106.8-70.8c-21.9-14.5-36.1-14.5-57.8-0.2
		c-54.5,36.1-109,72.2-163.5,108.2c-2.6,1.7-5.3,3.3-9.3,5.7c0-3.5,0-5.7,0-7.9c0-42.5,0-84.9,0-127.4c0-13.6,4.9-18.6,18.3-18.6
		c122.2,0,244.3,0,366.5,0c12.2,0,18.1,5.1,18.1,16.2c0.1,44.5,0,89,0,133.5C512.7,260.7,512.5,261.5,512.1,263.9z" fill="currentColor"/>
</g>
</svg>
