<?xml version="1.0" encoding="utf-8"?>
<!-- Generator: Adobe Illustrator 22.0.0, SVG Export Plug-In . SVG Version: 6.00 Build 0)  -->
<svg version="1.1" id="Calque_1" xmlns="http://www.w3.org/2000/svg" xmlns:xlink="http://www.w3.org/1999/xlink" x="0px" y="0px"
	 viewBox="0 0 804 816" style="enable-background:new 0 0 804 816;" xml:space="preserve">
<g>
	<path d="M32.3,20.2c144.3,0,287.5,0,429.8,0c-14.5,23.6-28.7,47.5-44.2,70.6c-2.2,3.3-10.5,3.6-15.9,3.6
		c-91.5,0.2-183,0.1-274.4,0.1c-6.4,0-12.8,0-20.4,0c0,209.7,0,418.2,0,628.8c7.5,0,14.4,0,21.4,0c93.8,0,187.7,0,281.5,0
		c62.5,0,89.2-28,86.1-90.9c-0.9-16.9-3.9-33.7-5.7-48.7c25.3,1,51.5,4.2,77.5,2.7c38.3-2.2,62.8-25.6,65.5-63.7
		c2.8-39.3,2.1-79,1.8-118.5c-0.1-13.3,3.8-17.9,17.3-20c18.9-3,37.2-9.9,57.2-15.5c0.3,2.3,1.1,5.4,1.1,8.6
		c-0.4,50.1,1.8,100.5-2,150.4C704,587.7,671,636,632.4,679.8c-47.1,53.5-101.8,96.5-173.1,113.4c-12.5,3-25.6,4.7-38.5,4.7
		c-126.3,0.3-252.6,0.2-378.9,0.2c-2.9,0-5.7-0.4-9.7-0.6C32.3,538.5,32.3,280.4,32.3,20.2z" fill="currentColor"/>
	<path d="M771.7,173.5c0.2,86.7-69.3,156.8-155.5,157.1c-87.1,0.3-156.7-69.7-156.7-157.5c0-85.9,70.8-155.9,157.1-155.3
		C702.1,18.4,771.5,88.1,771.7,173.5z M643.7,83.3c-18,0-34.7,0-53.4,0c0,22.7,0,44.2,0,67.1c-22.9,0-43.9,0-65.4,0
		c0,18.1,0,34.8,0,52.9c22.3,0,43.2,0,66.2,0c0,23,0,44.5,0,66.5c18.6,0,35.3,0,53.7,0c0-22.8,0-44.3,0-67.2c22.9,0,43.9,0,65.7,0
		c0-18.1,0-34.7,0-53.4c-22.7,0-44.2,0-66.8,0C643.7,126.2,643.7,105.1,643.7,83.3z" fill="currentColor"/>
	<path d="M552.9,442.3c0,18.4,0,35.3,0,53.1c-121.6,0-242.4,0-364.4,0c0-17.1,0-34.4,0-53.1C309.3,442.3,430.4,442.3,552.9,442.3z"
	    fill="currentColor"/>
	<path d="M526.1,371.6c-111.7,0-224.6,0-338.3,0c0-17.9,0-34.8,0-53.6c5.7-0.3,11.4-0.9,17-0.9c78.5-0.1,157-0.4,235.5,0.4
		c8.8,0.1,18.5,5,26.1,10.1C487,341.8,506.6,357.1,526.1,371.6z" fill="currentColor"/>
	<path d="M413.4,248.6c-75.4,0-149.9,0-225.4,0c0-18.3,0-35.7,0-54.1c71.5,0,142.5,0,213.4,0C405.5,212.5,409.3,230.1,413.4,248.6z"
		fill="currentColor"/>
</g>
</svg>
