<svg version="1.1" id="Calque_1" xmlns="http://www.w3.org/2000/svg" xmlns:xlink="http://www.w3.org/1999/xlink" x="0px" y="0px"
     viewBox="0 0 30 30" style="enable-background:new 0 0 30 30;" xml:space="preserve">
    <g>
        <path d="M23.7,0.5c0.4,0,0.7,0,1.1,0c0.2,0,0.3,0.1,0.5,0.1c2.1,0.5,3.5,1.7,4,3.8c0.6,2,0,3.8-1.5,5.3
            c-0.2,0.2-0.2,0.3-0.2,0.5c0,2.3,0,4.6,0,7c0,0.3,0,0.6-0.1,0.8c-0.3,1.1-1.2,1.8-2.4,1.8c-1.5,0-2.9,0-4.4,0c-0.1,0-0.2,0-0.3,0
            c0,0.1,0,0.2,0,0.4c0,1,0,1.9,0,2.9c0,0.3-0.1,0.6-0.4,0.6c-0.8,0-1.6,0-2.4-0.1c-0.4-0.1-0.7-0.3-1.1-0.5c0,0.1,0,0.2,0,0.3
            c0,1.8,0,3.6,0,5.4c0,0.3-0.1,0.5-0.3,0.7c-0.1,0-0.2,0-0.4,0c-0.2-0.2-0.3-0.4-0.3-0.7c0-3.7,0-7.4,0-11.1c0-0.1,0-0.3,0-0.4
            c-0.1-0.9-0.9-1.4-1.8-1.2c-0.7,0.2-1.1,0.7-1.1,1.5c0,1.8,0,3.7,0,5.5c0,0.1,0,0.2,0,0.3c-0.1,0.2-0.2,0.4-0.5,0.4
            c-0.2,0-0.4-0.2-0.4-0.4c0-0.1,0-0.2,0-0.3c0-0.9,0-1.9,0-2.8c0-0.1,0-0.2,0-0.3c-1.1,0-2.2,0-3.3,0c-0.2,0-0.3,0.1-0.4,0.3
            c-0.4,0.9-0.8,1.8-1.2,2.7c-0.3,0.6-0.3,1.1,0.1,1.6c0.5,0.9,1,1.8,1.5,2.7c0.3,0.5,0.4,1,0.4,1.6c0,0.3-0.1,0.5-0.3,0.7
            c-0.1,0-0.2,0-0.4,0c-0.2-0.2-0.3-0.4-0.3-0.7c0-0.4-0.1-0.8-0.3-1.1c-0.5-0.9-1-1.8-1.5-2.7c-0.5-0.8-0.5-1.6-0.1-2.4
            c0.4-0.8,0.7-1.6,1-2.4C6.9,20,7,19.9,7,19.8c-1.3,0-2.6,0-3.9,0c-0.7,0-1.3-0.2-1.8-0.7c-0.4-0.4-0.6-0.9-0.8-1.4
            c0-4.1,0-8.1,0-12.2c0.1-0.2,0.1-0.5,0.2-0.7c0.5-1,1.3-1.4,2.3-1.4c5.3,0,10.7,0,16,0c0.2,0,0.3-0.1,0.4-0.3
            c0.6-1.1,1.5-1.9,2.7-2.3C22.7,0.8,23.2,0.7,23.7,0.5z M11.6,18.9c0-0.5,0-1,0-1.4c0-1,0.5-1.8,1.5-2.2c0.9-0.4,1.8-0.2,2.5,0.4
            c0.5,0.5,0.8,1.1,0.8,1.9c0,0.4,0,0.9,0,1.4c0.1,0,0.2,0,0.3,0c2.7,0,5.5,0,8.2,0c1,0,1.6-0.6,1.6-1.6c0-2.1,0-4.2,0-6.4
            c0-0.1,0-0.2,0-0.3c-0.1,0-0.1,0-0.2,0.1c-1.8,0.8-3.5,0.6-5.1-0.4c-0.1-0.1-0.3-0.1-0.4-0.1c-6.3,0-12.7,0-19,0
            c-0.1,0-0.2,0-0.3,0c0,0.1,0,0.2,0,0.3c0,2.2,0,4.5,0,6.7c0,1.1,0.6,1.7,1.6,1.7c2.5,0,4.9,0,7.4,0C10.9,18.9,11.2,18.9,11.6,18.9z
             M24.1,1.5c-2.4,0-4.3,2-4.3,4.3c0,2.4,1.9,4.3,4.3,4.3c2.4,0,4.4-2,4.3-4.3C28.5,3.5,26.5,1.5,24.1,1.5z M20,9.2
            c-0.3-0.5-0.6-1.1-0.8-1.6c-0.1-0.2-0.2-0.3-0.4-0.3c-5.6,0-11.3,0-16.9,0c-0.1,0-0.2,0-0.3,0c0,0.7,0,1.3,0,1.9
            C7.7,9.2,13.8,9.2,20,9.2z M1.5,6.3c5.8,0,11.6,0,17.3,0C18.9,5.7,18.9,5,19,4.4c-0.1,0-0.2,0-0.3,0c-4.8,0-9.6,0-14.4,0
            c-0.5,0-0.9,0-1.4,0C2.1,4.4,1.5,5,1.5,5.8C1.5,6,1.5,6.1,1.5,6.3z M19.3,19.8c-0.5,0-1,0-1.4,0c-0.5,0-1,0-1.4,0
            c-0.3,2.4,1,3.1,2.9,2.9C19.3,21.7,19.3,20.8,19.3,19.8z" fill="currentColor"/>
            <path d="M18.4,15c0-0.7,0.4-1.3,1-1.7c0.7-0.4,1.3-0.3,1.9,0.1c0.1,0.1,0.2,0.1,0.3,0c0.8-0.5,1.8-0.4,2.4,0.3
            c0.7,0.7,0.7,1.8,0.1,2.5c-0.6,0.7-1.6,0.9-2.4,0.4c-0.2-0.1-0.3-0.1-0.5,0c-0.6,0.4-1.2,0.4-1.9,0C18.7,16.3,18.4,15.7,18.4,15z
             M22.7,14c-0.5,0-1,0.4-1,1c0,0.5,0.4,1,0.9,1c0.5,0,1-0.4,1-1C23.7,14.5,23.2,14,22.7,14z M20.4,14c-0.4,0-0.8,0.3-1,0.6
            c-0.1,0.4-0.1,0.8,0.2,1c0.3,0.3,0.7,0.3,1.1,0.2c0.2-0.1,0.2-0.2,0.2-0.4c-0.1-0.3-0.1-0.7,0-1c0.1-0.3,0-0.4-0.2-0.4
            C20.5,14.1,20.4,14,20.4,14z" fill="currentColor"/>
            <path d="M9.2,15.5c-0.2,0-0.3,0-0.5,0c-0.3,0-0.5-0.2-0.5-0.5c0-0.3,0.2-0.5,0.5-0.5c0.3,0,0.7,0,1,0
            c0.3,0,0.5,0.2,0.5,0.5c0,0.3-0.2,0.5-0.5,0.5C9.5,15.5,9.4,15.5,9.2,15.5z" fill="currentColor"/>
            <path d="M6.3,15.5c-0.2,0-0.3,0-0.5,0c-0.3,0-0.5-0.2-0.5-0.5c0-0.2,0.2-0.5,0.5-0.5c0.3,0,0.7,0,1,0
            c0.3,0,0.5,0.2,0.5,0.5c0,0.3-0.2,0.5-0.5,0.5C6.6,15.5,6.5,15.5,6.3,15.5C6.3,15.5,6.3,15.5,6.3,15.5z" fill="currentColor"/>
            <path d="M3.4,15.5c-0.2,0-0.3,0-0.5,0c-0.3,0-0.5-0.2-0.4-0.5c0-0.3,0.2-0.4,0.4-0.5c0.3,0,0.7,0,1,0
            c0.3,0,0.4,0.2,0.4,0.5c0,0.2-0.2,0.4-0.5,0.5C3.8,15.5,3.6,15.5,3.4,15.5C3.4,15.5,3.4,15.5,3.4,15.5z" fill="currentColor"/>
            <path d="M23.2,7.1c0.3-0.3,0.6-0.6,0.9-0.9c0.7-0.7,1.4-1.4,2.1-2.1c0.1-0.1,0.4-0.2,0.6-0.2c0.1,0,0.3,0.2,0.3,0.4
            c0,0.1,0,0.3-0.1,0.4c-1.1,1.1-2.2,2.2-3.3,3.3c-0.3,0.3-0.5,0.3-0.8,0c-0.4-0.4-0.9-0.9-1.3-1.3c-0.3-0.3-0.3-0.5,0-0.7
            c0.2-0.2,0.5-0.2,0.7,0.1C22.5,6.4,22.8,6.7,23.2,7.1z" fill="currentColor"/>
    </g>
</svg>
