<?xml version="1.0" encoding="utf-8"?>
<!-- Generator: Adobe Illustrator 22.0.0, SVG Export Plug-In . SVG Version: 6.00 Build 0)  -->
<svg version="1.1" id="Calque_1" xmlns="http://www.w3.org/2000/svg" xmlns:xlink="http://www.w3.org/1999/xlink" x="0px" y="0px"
	 viewBox="0 0 500 500" style="enable-background:new 0 0 500 500;" xml:space="preserve">
<style type="text/css">
	.st0{fill:#EE5362;}
</style>
<g>
	<g>
		<path class="st0" d="M378.8,492.3c-85.8,0-171.6,0-257.5,0c-0.4-0.2-0.8-0.6-1.2-0.7c-25.8-3.1-52.2-26.8-52-63.4
			c0.5-112.5,0.2-224.9,0.2-337.4c0-36.8,26.1-63,62.8-63.1c48.6,0,97.2,0,145.7,0c10.2,0,13.7,3.4,13.7,13.6
			c0,19.9-0.1,39.7,0,59.6c0.1,25.1,17.1,42.1,42.3,42.1c28.5,0,57.1,0.1,85.6-0.1c6.2,0,10.7,1.8,13.3,7.6c0,96.2,0,192.5,0,288.7
			c-0.3,0.7-0.7,1.4-0.8,2.1c-4.5,25.1-22.2,43.8-46.8,49.5C382.4,491.3,380.6,491.9,378.8,492.3z M250.1,68.3c-2.4,0-4.1,0-5.9,0
			c-37.4,0-74.8,0-112.2,0c-15.5,0-23.2,7.7-23.2,23.2c0,112.5,0,224.9,0,337.4c0,15.3,7.7,23,22.9,23c78.9,0,157.7,0,236.6,0
			c15.3,0,23-7.7,23-22.9c0-80,0-160,0-239.9c0-1.7,0-3.3,0-5.4c-2.4,0-4.1,0-5.8,0c-17.8,0-35.7,0.1-53.5-0.1
			c-5,0-10.1-0.3-15.1-1.3c-40-7.5-66.9-40.1-67-80.9C250.1,90.5,250.1,79.7,250.1,68.3z"/>
		<path class="st0" d="M431.8,101.4c-2.7,5.7-7.3,7.5-13.4,7.4c-18.3-0.4-36.6,0.2-54.8-0.9c-17.6-1-30.7-13.6-31.9-31.1
			c-1.3-19.8-0.8-39.7-0.8-59.5c0-4.3,2.4-7.4,6.6-8.9c4.4-1.6,8-0.2,11.1,3c12.4,12.3,24.8,24.6,37.1,37
			c13.3,13.3,26.5,26.5,39.7,39.8c2.3,2.3,4.2,5,6.3,7.5C431.8,97.6,431.8,99.5,431.8,101.4z"/>
	</g>
	<g>
		<path class="st0" d="M281.2,325.6c0,4.1,0,7.7,0,11.3c0,14.4,0,28.7,0,43.1c0,8-4,11.9-12,11.9c-12.5,0.1-24.9,0.1-37.4,0
			c-8,0-11.9-4-11.9-11.9c-0.1-16.2,0-32.5,0-48.7c0-1.7,0-3.4,0-5.6c-11.5,0-22.5,0-33.4,0c-2,0-4.1,0.1-6.1-0.2
			c-7.9-1.4-11.3-10-6.2-16.3c2.8-3.6,6.1-6.8,9.2-10.1c19.5-21.1,38.9-42.2,58.4-63.3c6-6.5,11.7-6.5,17.7,0
			c22,23.7,43.9,47.5,65.8,71.3c3.3,3.6,5.5,7.4,3.3,12.4c-2.2,5.1-6.5,6.4-11.6,6.4C305.4,325.6,293.7,325.6,281.2,325.6z"/>
		<path class="st0" d="M318.9,428.5H181.1c-5.5,0-10-4.5-10-10v-3.4c0-5.5,4.5-10,10-10h137.8c5.5,0,10,4.5,10,10v3.4
			C328.9,424,324.4,428.5,318.9,428.5z"/>
	</g>
</g>
</svg>
