<?xml version="1.0" encoding="utf-8"?>
<!-- Generator: Adobe Illustrator 22.0.0, SVG Export Plug-In . SVG Version: 6.00 Build 0)  -->
<svg version="1.1" id="Calque_1" xmlns="http://www.w3.org/2000/svg" xmlns:xlink="http://www.w3.org/1999/xlink" x="0px" y="0px"
	 viewBox="0 0 834.7 846.5" style="enable-background:new 0 0 834.7 846.5;" xml:space="preserve">
<g>
	<path d="M33,532.7c4.5-14.1,11.7-26.7,26.4-31.3c9.6-3,20.2-3.2,30.4-3.5c22.6-0.5,45.2-0.3,67.9-0.4c1.5,0,3-0.3,5.4-0.5
		c0-2.5,0-4.9,0-7.2c0-18,0-36,0-54c0-10.2,2.7-12.9,12.9-12.9c74.5,0,149,0,223.4,0c2.4,0,4.8,0,8.2,0c0-7,0-13.5,0-19.9
		c0-7.3-0.1-14.5,0-21.8c0.1-6.8,3.8-10.9,9.7-10.9c5.8,0,9.7,4,9.8,10.8c0.1,11.2,0,22.4,0,33.6c0,2.4,0,4.8,0,7.9
		c2.5,0.1,4.6,0.3,6.7,0.3c74.5,0,149,0,223.4,0c12.2,0,14,1.8,14,14.1c0,18.4-0.1,36.9-0.1,55.3c0,1.5,0.2,3,0.3,5.4
		c8.5,0,16.7,0,25,0c23.7,0.1,47.5-0.4,71.1,0.5c16.9,0.6,27.8,10.3,32.8,26.6c0.2,0.5,0.8,0.9,1.2,1.3c0,90.5,0,181.1,0,271.6
		c-4.5,14.9-14.2,24.5-29,29c-94.1,0-188.1,0-282.2,0c-23.6-7.9-29.4-23.8-29.3-44c0.5-81.5,0.6-163,0-244.5
		c-0.2-21.8,14-41,40.5-40.8c45.8,0.5,91.6,0.3,137.4,0.5c13.4,0,13.4,0.1,13.4-13.5c0-3.5,0.3-7,0.3-10.5c0-10.5,0-21,0-31.7
		c-157.4,0-313.7,0-470.1,0c0,18.6,0,36.7,0,54.8c1.4,0.2,2.2,0.5,3.1,0.5c41,0.1,82.1,0.1,123.1,0.4c10.7,0.1,21.6-0.6,31.9,1.5
		c20.3,4.2,32.4,21.5,32.4,44.5c0.1,32.1,0,64.2,0,96.3c0,48.3,0,96.7-0.1,145c0,11.2-3.9,21.4-12.8,28.5
		c-6.5,5.2-14.3,8.8-21.5,13.1c-90.1,0-180.2,0-270.3,0c-13.6-4-24.9-11.1-31.4-24.3c-1.6-3.2-2.8-6.6-4.2-10
		C33,705.9,33,619.3,33,532.7z M104.9,810.9c-0.1,0.3-0.3,0.7-0.4,1c-1.3-1.7-2.7-3.3-3.9-5.1c-0.9-1.3-1.5-3.6-2.5-3.7
		c-1.4-0.2-3.1,1-3.8,1.3c1.8,2.3,3.2,4.1,4.6,5.8c-0.3,0.4-0.6,0.7-0.9,1.1c-2.1-0.8-4.1-1.6-5.4-2.1c0-4.8,0-9,0-13.1
		c0-19.4,10.7-34.7,28.9-41.3c9.3-3.4,18.6-6.6,27.9-9.7c10.3-3.4,15.7-11.5,19.5-20.8c0.8-1.9-0.4-5.3-1.8-7.3
		c-4.6-6.7-10.2-12.6-14.3-19.5c-2.9-4.9-5.1-8.9-11.4-10.1c-3.5-0.7-7-3.9-9.3-6.9c-6.7-8.6-11.6-18.4-11.5-29.4
		c0.1-5,1.8-12,5.4-14.6c6.8-5.1,10.7-10.1,9.2-18.7c-0.4-2.3,0.5-4.8,0.8-7.2c3-20.7,12.9-36.5,32.4-45.5
		c11.4-5.3,23.6-7.2,35.9-6.8c12.7,0.5,25.8,1.2,33.6,14.1c0.4,0.7,1.9,1.1,2.9,1.1c12.3,0.6,19.6,8.2,22.7,18.8
		c3.1,10.8,4.2,22.3,5.6,33.5c0.5,4.1,1,6.9,5,9.5c3.5,2.3,6.7,6.6,7.9,10.7c3.8,12.6-3.2,34.2-15,40.2c-9.7,4.9-15,12.4-20.7,20.5
		c-2.1,3-5.1,5.5-7.3,8.4c-1.2,1.6-2.5,4-2.1,5.6c2.7,11.2,8.8,20,20,24.1c10.1,3.7,20.4,6.7,30.3,10.7c14,5.6,23,15.9,25.5,31
		c1.1,6.8,1.3,13.7,1.9,20.9c5.2,0,10,0.1,14.8,0c14.6-0.5,24.7-10.3,24.7-24.5c0.1-80,0.1-159.9-0.2-239.9
		c0-17.2-9.7-26.3-26.7-26.3c-82.6,0-165.2,0-247.8,0c-17.2,0-27.1,9.8-27.1,26.9c0,79.5,0,159.1,0.1,238.6c0,7.4,2.4,13.7,7.8,18.9
		c0.8,0.8,1.3,1.9,1.5,2.2c-2.9,0.2-5.7,0.5-10.2,0.9c3.6,2.9,5.3,4.3,7,5.7c-0.3,0.4-0.6,0.9-0.8,1.3c-1.4-0.3-2.9-0.6-4.3-0.9
		c-0.1,0.8-0.3,1.6-0.4,2.3c4.3,0.4,8.6,1.5,12.7,0.9c1.8-0.3,3.1-4,5.3-7.1c0.9,2.2,1.7,4.2,2.6,6.4c0.8-1.8,1.5-3.4,2.8-6.5
		c1.4,6.9,3.5,10.8,9.2,4.9c0.5-0.5,2.1-0.2,3.2-0.1c5.5,0.8,10.9,2,16.4,2.2c1.4,0,3.9-3.2,4.2-5.2c0.2-1.6-1.9-3.8-3.5-5.2
		c-0.5-0.4-2.7,1.4-4.1,2.2C102.6,807.1,103.7,809,104.9,810.9z M698.5,630c4.6,6.3,9.8,10.9,11.7,16.6c4,12.1-3.5,34.1-14.8,39.7
		c-9.8,4.8-15.1,12.3-20.8,20.4c-2.3,3.2-5.4,5.8-7.7,9c-1.1,1.6-2.3,4-1.9,5.7c2.8,10.9,8.9,19.5,19.7,23.7
		c9.8,3.8,19.9,6.8,29.7,10.5c14.9,5.7,24.1,16.4,26.7,32.3c1,6.4,1.1,13,1.6,19.6c8.2,0,16.2,0.4,24-0.1
		c8.3-0.5,14.1-6.4,15.2-14.7c0.3-2.4,0.4-4.8,0.4-7.2c0-52.9,0-105.8,0-158.7c0-29.7,0.1-59.3,0-89c0-14.1-6.6-20.7-20.5-20.7
		c-87.2,0-174.5,0-261.7,0c-12.6,0-19.5,6.9-19.5,19.5c0,42.1-0.1,84.2-0.1,126.3c0,29.4,0,58.9,0,88.3c0,12.7-0.1,25.5,0,38.2
		c0.1,9.7,5.5,16.8,14.3,17.6c8.4,0.7,16.9,0.2,25.9,0.2c0-3.9,0-7.3,0-10.8c0.1-19.8,10.7-35.1,29.3-41.7
		c8.8-3.2,17.7-6.5,26.7-9.2c10.3-3,15.5-10.9,20-19.6c1.8-3.6,1.2-6.7-2.2-9.8c-4.3-4-8.1-8.8-11-13.8c-4-6.9-7.6-12.6-16.2-16
		c-14.2-5.7-20.8-30.3-18.3-40.1c1.2-4.7,4.4-10.3,8.4-12.5c5.1-2.9,5.4-6.3,5.6-11c1-25,9-46.2,33.5-57.3c16-7.3,32.9-8.3,50.2-5.3
		c7.7,1.3,13.9,5,18.5,11.4c0.8,1.1,2.3,2.2,3.5,2.3c14.6,1,21.2,11,24.3,23.2C696.2,608.2,697.1,620.3,698.5,630z M263.8,654.7
		c-12.3-0.8-14.7-3.4-14.3-14.7c0-1.5,0.3-3.1,0.2-4.6c-1.3-11.9-2.4-23.9-4.2-35.7c-0.9-5.5-4.4-8-10.6-5.9
		c-6.9,2.3-11.8-0.7-13-7.8c-0.8-4.8-3.2-7.2-7.7-7.2c-8.9-0.1-18.1-1.1-26.7,0.6c-17.8,3.4-29.6,13.9-31.8,32.8
		c-1,8.7-1,17.5-1.2,26.2c-0.1,7.1-2.6,9.9-9.7,10.3c-1.5,0.1-2.9,0.3-4.9,0.5c-0.1,8.4,3.2,14.9,8.4,20.5
		c10.5-3.7,12.9-2.3,16.9,7.4c2.9,7,5.9,14.2,10.4,20.3c12.3,16.9,35.3,18.7,49.8,3.6c6-6.2,10.4-14,14.7-21.5
		c3-5.2,5.9-8.9,12.6-8.4c1.9,0.2,4.8-1.4,5.7-3C260.5,663.9,261.9,659.3,263.8,654.7z M575.2,670.2c11.1-4.6,14.8-2.6,18.4,6.6
		c2.8,7.1,5.8,14.3,10.2,20.4c11,15.2,29.9,17.9,45.4,7.4c9.6-6.6,15.1-16.3,19.8-26.5c2.3-5,5.6-7.3,11.3-7.2
		c2.3,0,5.6-1.6,6.7-3.5c2.3-3.8,3.3-8.2,5-12.7c-12.3-0.9-14.5-3.3-14.1-14.9c0.1-2,0.4-4,0.2-5.9c-1.4-11.7-2.6-23.4-4.6-35
		c-0.8-5-4.4-6.9-9.9-5.2c-7.5,2.3-11.7-0.3-13.4-8c-0.9-4.3-3-7-7.4-6.8c-10.2,0.3-20.7-0.5-30.5,1.6
		c-15.7,3.3-25.9,13.7-28.1,30.1c-1.2,9.1-1,18.3-1.3,27.5c-0.2,7.4-2.8,10.3-10.2,10.8c-1.3,0.1-2.6,0.2-6,0.4
		C569.8,656.7,572.4,663.3,575.2,670.2z M188,729.1c-0.6,1.3-1,2.2-1.4,3.2c-6.8,15.5-17,27.4-34.1,32.2c-8.2,2.3-16.2,5.4-24.2,8.3
		c-8.5,3-14.7,8.7-15.8,17.7c-0.9,7.2,0.1,14.6,0.3,22.6c2.3-2.6,3.5-4.1,4.7-5.5c1,1.8,2.1,3.6,2.4,4.1c2.8-1.4,5.4-3.9,8-3.9
		c44.4-0.3,88.8-0.3,133.2-0.3c10.9,0,21.7,0,33.1,0c0-3.8,0-7,0-10.3c0-13.6-4.5-20.1-17.3-24.7c-8.9-3.2-18.1-5.4-26.6-9.5
		c-6.9-3.3-13.9-7.7-19.1-13.2c-5.9-6.2-9.8-14.1-14.7-21.6c-3.9,0.6-8.7,1.7-13.4,1.9C198.2,730.4,193.4,729.6,188,729.1z
		 M539.4,807.5c62.1,0,122.4,0,183.3,0c0-3.4,0-6.2,0-9.1c0-14.9-4.8-21.6-18.7-26.4c-6.6-2.3-13.1-5.2-19.8-6.9
		c-12.9-3.1-22.5-10.5-29.7-21.3c-3.2-4.8-5.7-10.2-8.1-14.6c-10.1,0-20,0-29.9,0c-0.5,1.2-1,2.1-1.4,3.1
		c-6.8,15.2-16.6,27-33.5,31.9c-9.2,2.7-18.4,5.8-27.1,9.9c-4.4,2.1-9.5,6-11.1,10.3C540.7,791.3,540.6,799.1,539.4,807.5z" fill="currentColor"/>
	<path d="M441.8,19.8c5.6,2.7,7.2,7.6,7.8,13.3c0.7,7-0.4,15.4,3.2,20.5c3.2,4.7,12.3,4.8,17.6,8.6c11.3,8.2,20.1,5.3,28.8-3.7
		c1.9-2,4.5-3.5,6.9-5.1c4.9-3.2,9.6-2.9,13.7,1.2c9.2,9.2,18.3,18.4,27.3,27.7c4.3,4.4,4.3,9.4,0.7,14.3
		c-4.3,5.8-9.1,11.3-13.2,17.3c-1.2,1.7-1.6,4.8-0.9,6.7c3,8.4,6.7,16.6,9.8,25c1.2,3.2,2.6,4.9,6.4,5.1c6.5,0.4,13,1.7,19.5,2.6
		c7.5,1,10.8,4.5,10.8,12.3c0,12.7-0.5,25.5-0.7,38.2c-0.1,6.1-3.4,9.2-9.2,10c-7.2,0.9-14.4,1.5-21.5,2.8c-2,0.4-4.5,2.3-5.4,4.1
		c-4.1,8.5-7.8,17.1-11.2,25.9c-0.6,1.6-0.4,4.3,0.6,5.7c4,5.8,8.4,11.2,12.6,16.9c4.6,6.2,4.3,10.9-1.1,16.3
		c-8.1,8-16.2,16-24.4,23.9c-7.5,7.3-10.7,7.6-19.2,1.2c-4.7-3.6-8.9-7.9-13.8-11.1c-2-1.4-5.7-1.9-7.9-1
		c-8.6,3.1-17.1,6.7-25.5,10.4c-1.6,0.7-3.5,2.5-3.8,4.1c-1.5,7.5-2.5,15.1-3.5,22.7c-0.8,6-4.1,9-10.1,9c-13,0-25.9-0.1-38.9-0.1
		c-6.1,0-10-2.9-10.9-9.1c-0.9-6.7-1.7-13.5-2.4-20.2c-0.4-4-1.6-6.4-6.1-7.9c-7.9-2.5-15.5-6.1-22.9-9.8c-3.5-1.7-5.8-1.7-8.7,0.8
		c-5,4.3-10.4,8.1-15.7,12c-5.9,4.3-10.6,4-15.7-1.2c-8.7-8.7-17.3-17.5-25.9-26.3c-4.8-4.9-5.2-9.8-1-15.3
		c4.3-5.8,9.1-11.3,13.2-17.2c1.1-1.5,1.3-4.4,0.7-6.1c-3.1-8.4-6.8-16.6-9.9-25c-1.3-3.5-2.8-5.2-6.8-5.4
		c-6.8-0.4-13.5-1.6-20.2-2.7c-6.4-1-9.6-4.6-9.6-11.2c0-12.3,0-24.6,0.3-36.9c0.3-8.7,3.3-11.4,12-12.4c6.8-0.7,13.5-1.5,20.2-2.7
		c1.6-0.3,3.5-2.1,4.2-3.7c3.9-8.5,7.6-17.2,11-25.9c0.7-1.8,0.4-4.6-0.6-6.2c-3.8-5.6-8.1-10.9-12.2-16.4
		c-4.5-5.9-4.3-11.1,0.9-16.3c8.7-8.7,17.4-17.3,26.3-25.9c5-4.8,9.7-5.2,15.3-1c5.4,4.1,10.5,8.7,16.1,12.5c2,1.4,5.6,1.8,8,1
		c8.3-2.8,16.4-6.1,24.3-9.7c2.1-1,4.5-3.4,5-5.5c1.5-6.4,1.6-13.1,3.1-19.5c1-3.9,3.7-7.5,5.6-11.2
		C410.1,19.8,425.9,19.8,441.8,19.8z M324,290.2c6.2-4.7,12.4-9.3,18.5-13.9c4.1-3.1,8-3.2,12.8-1c12.5,5.7,25.4,10.5,37.8,16.3
		c3.2,1.5,6.6,5.2,7.5,8.6c1.8,6.5,2.2,13.4,2.8,20.2c0.3,3.4,1.6,4.6,4.9,4.5c5-0.1,10.1-0.3,15.1,0.1c3.8,0.3,5-1.1,5.4-4.7
		c0.6-6.3,0.9-12.8,2.7-18.8c1.1-3.7,4.5-8.7,7.6-9.4c13.7-2.9,26.1-8.4,38.1-15.3c4.6-2.6,8.6-2.3,12.7,1c4.9,4,9.8,8,15.1,11.6
		c1.5,1,4.8,1.4,6,0.5c5.3-4.2,10-8.9,15.2-13.7c-5.1-6.8-9.3-12.7-13.8-18.3c-4.2-5.2-3.8-9.7-0.9-15.6
		c5.5-10.9,10.3-22.2,14.5-33.7c3-8.1,4.5-10,13.4-10.9c6.9-0.7,13.8-1.7,20.7-2.5c0-8.3,0-16,0-23.6c-6.9-1-13.4-2.1-19.9-2.8
		c-9.5-1.1-11-3-14.1-11.9c-3.9-11.3-8.5-22.5-13.6-33.3c-2.7-5.6-3.1-10.2,0.9-15.1c4.8-5.9,9.4-12,13.8-17.6
		c-5.8-6-11.1-11.5-16.4-17c-6.6,4.9-12.6,10.2-19.4,14.1c-3,1.8-8.1,2.2-11.4,0.9c-13-4.9-25.7-10.9-38.6-16.2
		c-4.5-1.8-7.3-4.4-7.8-9.4c-0.7-6.5-1.4-13.1-2.6-19.5c-0.3-1.6-2.1-4.2-3.3-4.2c-6.9-0.4-13.9-0.2-20.9-0.2
		c-1.2,8.3-2.4,15.6-3.3,23c-0.6,5.9-3.9,8.4-9.3,10.4c-12.1,4.3-24,9.1-35.8,14.4c-5.4,2.4-9.8,3-14.6-0.9
		c-5.9-4.8-12-9.4-18.5-14.5c-5.5,6-10.7,11.6-16,17.4c2.3,3.3,4.9,7.1,7.5,10.8c0.8,1.1,1.9,1.8,2.7,2.9
		c6.8,10.3,7.3,11.4,2.2,21.3c-5.3,10.2-9.4,21.1-13.2,32c-2.2,6.2-5.4,9.6-12,10.1c-7.3,0.6-14.6,1.8-22,2.7c0,8.3,0,15.8,0,23.6
		c7.1,1,13.8,1.9,20.6,2.8c8.8,1.1,10.4,3.3,13.1,11.3c4,11.5,8.5,22.9,13.7,33.9c2.7,5.7,3,10.2-1,15.1
		c-4.8,5.9-9.4,11.9-14.1,17.9C312.9,279.3,318.2,284.5,324,290.2z" fill="currentColor"/>
	<path d="M200.6,125.8c-5.4,3.2-9.7,5.8-14.1,8.2c-5.7,3.1-10.8,1.9-13.8-2.9c-3-4.8-1.4-10.4,4.3-13.9
		c12.2-7.4,24.4-14.8,36.8-21.8c8.3-4.7,13.8-2.5,16.8,6.4c4.2,12.4,8.2,25,12.2,37.5c2.1,6.5-0.2,11.9-5.4,13.5
		c-5.9,1.8-10.6-1-13-7.9c-1.2-3.7-2.5-7.3-3.7-11c-0.7,0-1.4,0-2.1,0c-1.7,12.4-4,24.7-4.8,37.1c-2.2,33.5,4.3,65.5,17.9,96
		c9.1,20.3,21.8,38.5,37.1,54.7c3.7,3.9,5.8,8.6,2.2,12.9c-2.1,2.5-6.6,3.7-10.1,4c-2,0.2-4.7-2.2-6.4-4
		c-31.6-34.3-51.3-74.4-58.1-120.7c-4.1-27.9-2.7-55.6,3.8-83C200.6,129.7,200.5,128.4,200.6,125.8z" fill="currentColor"/>
	<path d="M620.1,276.4c6.1-3.1,11.1-5.7,16.1-8.2c6.3-3.2,11.5-2.1,14.3,2.9c2.9,5.3,1.1,10.7-5.3,14.1
		c-12.7,6.9-25.5,13.7-38.4,20.3c-7.4,3.8-12.7,1.3-15-6.8c-3.8-13-7.4-26.1-10.9-39.2c-1.8-6.5,0.9-11.5,6.6-13
		c5.5-1.5,9.7,1.1,11.9,7.5c1.2,3.5,2.2,7,3.2,10.5c0.7,0.1,1.4,0.3,2.1,0.4c4.1-13.6,9.2-27,12.2-40.9c8.8-41.5,4.6-82-11.4-121.2
		c-1.9-4.7-4.4-9-6.5-13.6c-2.9-6.3-1.6-11.5,3.5-14.2c5-2.7,10.5-0.8,13.5,5.3c17.7,35.6,26.4,73.2,24.3,113
		c-1.5,27.4-7.6,53.7-18.7,78.8C621.1,273.1,620.9,274.1,620.1,276.4z" fill="currentColor"/>
	<path d="M278.9,352.9c0.5-8.4,8.1-12.6,14.5-8.7c5.4,3.2,10.7,6.9,15.6,10.8c4.1,3.2,4.9,7.8,2.1,12.3c-2.8,4.5-7.4,6.2-11.9,3.7
		c-6.3-3.5-12.1-7.8-17.7-12.3C279.8,357.3,279.4,354.1,278.9,352.9z" fill="currentColor"/>
	<path d="M597.6,54.6c-1.6,2-3.3,5.9-6,6.7c-3.2,1-8.1,0.4-10.7-1.5c-4.2-3.2-7.4-8-10.5-12.4c-3-4.2-2.6-8.8,1.2-12.5
		c3.6-3.5,8.6-4.1,11.9-0.9c5,4.7,8.8,10.7,13,16.2C597.1,50.9,597,52.2,597.6,54.6z" fill="currentColor"/>
	<path d="M416.6,266.2c-45.9,0.3-83.9-37.3-83.9-83.4c-0.1-48.3,37.5-84.1,83-85c48.1-1,86.2,36.8,86.2,84.6
		C502,227.9,464.7,267.4,416.6,266.2z M417.1,117c-36.2,0.1-65,29-65,65.2c0,35.6,29.5,65.2,64.8,65c36.6-0.1,65.8-29.2,65.8-65.5
		C482.6,145.9,453.3,117,417.1,117z" fill="currentColor"/>
</g>
</svg>
