<svg width="16" height="16" viewBox="0 0 16 16" fill="none" xmlns="http://www.w3.org/2000/svg">
    <g>
        <path d="M3.97485 12.0252C4.06522 12.0252 4.1304 12.0252 4.19559 12.0252C7.86966 12.0252 11.5437 12.0252 15.2178 12.0252C15.6311 12.0252 15.8074 12.2015 15.8074 12.6207C15.8074 13.4993 15.8074 14.3793 15.8074 15.2578C15.8074 15.6133 15.6163 15.8074 15.2637 15.8074C10.4208 15.8074 5.57781 15.8074 0.734849 15.8074C0.388182 15.8074 0.192627 15.6148 0.192627 15.2726C0.192627 10.4252 0.192627 5.5763 0.192627 0.728893C0.192627 0.386671 0.388183 0.192596 0.733368 0.192596C1.62818 0.192596 2.52152 0.192596 3.41633 0.192596C3.7867 0.192596 3.97337 0.382226 3.97337 0.758522C3.97337 4.44741 3.97337 8.1363 3.97337 11.8267C3.97485 11.8859 3.97485 11.9467 3.97485 12.0252ZM1.66966 0.68593C1.66966 5.24593 1.66966 9.78963 1.66966 14.3333C6.22374 14.3333 10.7645 14.3333 15.3067 14.3333C15.3067 13.723 15.3067 13.1215 15.3067 12.5244C15.1437 12.5244 14.9926 12.5244 14.8326 12.5244C14.8326 12.7126 14.8341 12.8904 14.8326 13.0667C14.8311 13.2607 14.7423 13.3674 14.5852 13.3659C14.4297 13.363 14.3467 13.2578 14.3452 13.0607C14.3437 12.8844 14.3452 12.7082 14.3452 12.5259C14.1748 12.5259 14.0208 12.5259 13.8578 12.5259C13.8578 12.7156 13.8593 12.8919 13.8578 13.0696C13.8563 13.2637 13.766 13.3704 13.6089 13.3674C13.4578 13.3644 13.3719 13.2607 13.3704 13.0756C13.3689 12.8948 13.3704 12.7126 13.3704 12.5274C13.2 12.5274 13.046 12.5274 12.883 12.5274C12.883 12.6 12.883 12.6607 12.883 12.72C12.883 13.0148 12.886 13.3096 12.8815 13.6044C12.8786 13.7556 12.7852 13.8489 12.6489 13.8548C12.5141 13.8607 12.4089 13.7659 12.3971 13.6237C12.3926 13.5689 12.3956 13.5126 12.3956 13.4563C12.3956 13.1482 12.3956 12.84 12.3956 12.5274C12.2237 12.5274 12.0697 12.5274 11.9082 12.5274C11.9082 12.717 11.9097 12.8948 11.9082 13.0711C11.9067 13.2637 11.8148 13.3719 11.6578 13.3674C11.5067 13.3644 11.4223 13.2607 11.4208 13.0741C11.4193 12.8933 11.4208 12.7111 11.4208 12.5274C11.2489 12.5274 11.0948 12.5274 10.9334 12.5274C10.9334 12.717 10.9348 12.8948 10.9334 13.0711C10.9319 13.2637 10.84 13.3704 10.683 13.3674C10.5319 13.363 10.4474 13.2607 10.446 13.0741C10.4445 12.8933 10.446 12.7111 10.446 12.5274C10.2741 12.5274 10.12 12.5274 9.963 12.5274C9.96003 12.5748 9.95707 12.6104 9.95707 12.6444C9.95707 12.9644 9.96003 13.2844 9.95559 13.6044C9.95263 13.7615 9.84892 13.8578 9.7067 13.8548C9.57189 13.8519 9.47855 13.757 9.46966 13.6074C9.4667 13.5511 9.46818 13.4963 9.46818 13.44C9.46818 13.1363 9.46818 12.8341 9.46818 12.5274C9.29633 12.5274 9.14226 12.5274 8.98077 12.5274C8.98077 12.717 8.98226 12.8948 8.98077 13.0726C8.97929 13.2637 8.88596 13.3719 8.7304 13.3674C8.57929 13.363 8.49485 13.2593 8.49337 13.0741C8.49189 12.8933 8.49337 12.7111 8.49337 12.5289C8.32003 12.5289 8.16744 12.5289 8.00596 12.5289C8.00596 12.7185 8.00744 12.8963 8.00596 13.0741C8.00448 13.2607 7.92003 13.3644 7.7704 13.3689C7.61337 13.3733 7.52003 13.2652 7.51855 13.0741C7.51707 12.8933 7.51855 12.7111 7.51855 12.5289C7.34522 12.5289 7.19263 12.5289 7.03115 12.5289C7.03115 12.5822 7.03115 12.6222 7.03115 12.6622C7.03115 12.9719 7.03263 13.283 7.02966 13.5926C7.02818 13.7526 6.93337 13.8519 6.79411 13.8563C6.64596 13.8593 6.54966 13.76 6.54374 13.5926C6.54078 13.5215 6.54374 13.4504 6.54374 13.3793C6.54374 13.0963 6.54374 12.8133 6.54374 12.5304C6.3704 12.5304 6.21633 12.5304 6.05633 12.5304C6.05633 12.6859 6.05781 12.8282 6.05633 12.9689C6.05337 13.1393 5.963 13.2444 5.81929 13.2474C5.67114 13.2519 5.57189 13.1422 5.56892 12.9659C5.56744 12.8207 5.56892 12.6756 5.56892 12.5289C5.39411 12.5289 5.24152 12.5289 5.08152 12.5289C5.08152 12.6844 5.083 12.8267 5.08152 12.9689C5.07855 13.1378 4.9867 13.243 4.843 13.2474C4.69337 13.2504 4.59707 13.1422 4.59411 12.9659C4.59263 12.8207 4.59411 12.6756 4.59411 12.5141C4.22078 12.5141 3.8667 12.5141 3.49337 12.5141C3.49337 12.1422 3.49337 11.7852 3.49337 11.4178C3.29485 11.4178 3.11855 11.4193 2.94078 11.4178C2.74818 11.4163 2.64003 11.3244 2.643 11.1689C2.64596 11.0193 2.75115 10.9319 2.93485 10.9304C3.11707 10.9289 3.29781 10.9304 3.483 10.9304C3.483 10.76 3.483 10.6059 3.483 10.443C3.41633 10.443 3.36003 10.443 3.30522 10.443C3.00596 10.443 2.70522 10.4459 2.40596 10.4415C2.2504 10.4385 2.15115 10.3348 2.15411 10.1941C2.15707 10.0578 2.25189 9.96445 2.40152 9.95556C2.46226 9.9526 2.523 9.95408 2.58374 9.95408C2.88152 9.95408 3.18078 9.95408 3.483 9.95408C3.483 9.78371 3.483 9.62963 3.483 9.46667C3.29337 9.46667 3.11707 9.46815 2.93929 9.46667C2.7467 9.46519 2.63855 9.37334 2.64152 9.21778C2.64448 9.06815 2.74966 8.98074 2.93337 8.97926C3.11411 8.97778 3.29633 8.97926 3.48152 8.97926C3.48152 8.80889 3.48152 8.65482 3.48152 8.49186C3.29189 8.49186 3.11559 8.49334 2.93781 8.49186C2.74522 8.49037 2.63707 8.39852 2.64003 8.24297C2.643 8.09334 2.74818 8.00593 2.93189 8.00445C3.11411 8.00297 3.29485 8.00445 3.48003 8.00445C3.48003 7.83408 3.48003 7.68 3.48003 7.51704C3.41337 7.51704 3.35855 7.51704 3.30226 7.51704C3.003 7.51704 2.70226 7.52 2.403 7.51556C2.24596 7.5126 2.14818 7.41037 2.15115 7.26815C2.15411 7.13186 2.24892 7.03852 2.39707 7.02963C2.45781 7.02667 2.51855 7.02815 2.57929 7.02815C2.87707 7.02815 3.17633 7.02815 3.48003 7.02815C3.48003 6.85778 3.48003 6.70371 3.48003 6.54074C3.29189 6.54074 3.11411 6.54223 2.93633 6.54074C2.74374 6.53926 2.63559 6.44741 2.63855 6.29334C2.64152 6.14223 2.74522 6.0563 2.9304 6.05482C3.11263 6.05334 3.29337 6.05482 3.48003 6.05482C3.48003 5.88445 3.48003 5.73037 3.48003 5.56741C3.30226 5.56741 3.13485 5.56741 2.96744 5.56741C2.7467 5.56741 2.63559 5.48297 2.63855 5.32C2.64152 5.16149 2.74966 5.08149 2.96003 5.08C3.13189 5.08 3.30226 5.08 3.48003 5.08C3.48003 4.90963 3.48003 4.75556 3.48003 4.5926C3.14966 4.5926 2.82966 4.5926 2.50966 4.5926C2.25929 4.5926 2.1467 4.51556 2.14966 4.34519C2.15263 4.1763 2.26226 4.10519 2.51707 4.10519C2.79115 4.10519 3.0667 4.10519 3.34078 4.10519C3.38966 4.10519 3.43707 4.10074 3.48003 4.09926C3.48003 3.92889 3.48003 3.77926 3.48003 3.61778C3.34226 3.61778 3.21633 3.61778 3.0904 3.61778C2.87263 3.61778 2.75855 3.53186 2.76003 3.36889C2.763 3.21186 2.87263 3.13037 3.083 3.12889C3.21337 3.12889 3.34522 3.12889 3.48003 3.12889C3.48003 2.95852 3.48003 2.80445 3.48003 2.65482C3.45929 2.64889 3.44892 2.64297 3.44003 2.64297C3.31263 2.64149 3.1867 2.64149 3.05929 2.64C2.86818 2.63852 2.75707 2.54519 2.76003 2.39111C2.763 2.24297 2.87115 2.15408 3.05337 2.1526C3.19411 2.15111 3.33485 2.1526 3.48003 2.1526C3.48003 1.98223 3.48003 1.82815 3.48003 1.66519C3.41337 1.66519 3.35707 1.66519 3.30226 1.66519C3.003 1.66519 2.70226 1.66815 2.403 1.66371C2.24744 1.66074 2.14818 1.55704 2.15115 1.4163C2.15411 1.28 2.2504 1.18667 2.39855 1.17926C2.45929 1.1763 2.52003 1.17778 2.58078 1.17778C2.87855 1.17778 3.17781 1.17778 3.48003 1.17778C3.48003 1.00741 3.48003 0.853337 3.48003 0.694819C2.86966 0.68593 2.27559 0.68593 1.66966 0.68593Z" fill="currentColor"/>
        <path d="M8.97632 11.5333C8.80595 11.5333 8.65928 11.5333 8.49336 11.5333C8.49336 10.197 8.49336 8.8637 8.49336 7.51851C7.14521 7.51851 5.81632 7.51851 4.47559 7.51851C4.47559 7.3511 4.47559 7.19703 4.47559 7.02518C4.5304 7.02518 4.58522 7.02518 4.63855 7.02518C5.89781 7.02518 7.15854 7.02518 8.4178 7.02518C8.78373 7.02518 8.97484 7.21184 8.97484 7.57481C8.97484 8.83999 8.97484 10.1052 8.97484 11.3689C8.97632 11.4178 8.97632 11.4681 8.97632 11.5333Z" fill="currentColor"/>
    </g>
</svg>
