<svg width="16" height="18" viewBox="0 0 16 18" fill="none" xmlns="http://www.w3.org/2000/svg">
    <g>
        <path d="M6.69533 0.319008C7.55714 0.319008 8.42237 0.319008 9.28417 0.319008C9.29791 0.326019 9.30821 0.340042 9.32538 0.343548C10.0395 0.532855 10.4207 1.03417 10.4207 1.7914C10.4207 2.65731 10.4207 3.51971 10.4207 4.38562C10.4207 5.09727 10.1837 5.70726 9.69276 6.21208C9.65842 6.24714 9.61379 6.29622 9.61379 6.34179C9.60692 6.62926 9.61035 6.92024 9.61035 7.21121C10.7022 7.29885 11.7769 7.39 12.8516 7.47414C13.5108 7.52322 13.9743 7.90884 14.1391 8.57492C14.5134 10.0964 14.8842 11.6214 15.255 13.1428C15.382 13.6617 15.5091 14.1805 15.6361 14.6994C15.6361 14.8291 15.6361 14.9588 15.6361 15.085C15.6121 15.1832 15.5915 15.2813 15.5674 15.3795C15.3649 16.1928 14.6198 16.8273 13.7546 16.8238C12.9958 16.8203 12.2404 16.8238 11.4816 16.8238C11.1348 16.8238 10.8361 16.6941 10.582 16.4592C10.3692 16.2629 10.2455 16.0105 10.17 15.7336C8.71422 15.7336 7.26872 15.7336 5.82323 15.7336C5.81293 15.7581 5.80263 15.7791 5.79576 15.7967C5.57602 16.4803 5.1125 16.8238 4.4052 16.8238C3.67387 16.8238 2.94254 16.8273 2.21121 16.8203C2.08761 16.8203 1.96057 16.8063 1.83696 16.7783C0.868723 16.5469 0.240397 15.6424 0.388037 14.6398C0.463573 14.135 0.611212 13.6372 0.731384 13.1393C1.10907 11.5968 1.48332 10.0543 1.86786 8.51182C2.00864 7.9439 2.48246 7.52322 3.01121 7.48115C3.86958 7.41103 4.73138 7.34793 5.58975 7.28132C5.8507 7.26029 6.10821 7.23575 6.37602 7.21121C6.37602 6.95529 6.36915 6.7134 6.37945 6.47151C6.38289 6.34881 6.34855 6.26467 6.26271 6.17352C5.81636 5.71428 5.57945 5.15687 5.56915 4.51533C5.55542 3.56879 5.56229 2.62576 5.56572 1.67922C5.56915 1.29009 5.71679 0.964056 5.99147 0.690612C6.19061 0.494293 6.43782 0.399639 6.69533 0.319008ZM12.5597 11.0605C11.4816 11.0605 10.4172 11.0605 9.34254 11.0605C9.34254 11.5057 9.34598 11.9404 9.34254 12.3751C9.34254 12.5889 9.2361 12.6941 9.03353 12.6941C8.33997 12.6941 7.64297 12.6941 6.94941 12.6941C6.7434 12.6941 6.6404 12.5889 6.63696 12.3751C6.63353 12.021 6.63696 11.6669 6.63696 11.3129C6.63696 11.2287 6.63696 11.1446 6.63696 11.0605C5.55198 11.0605 4.48761 11.0605 3.41636 11.0605C3.41636 12.4277 3.41636 13.7844 3.41636 15.1586C6.46529 15.1586 9.51078 15.1586 12.5597 15.1586C12.5597 13.7879 12.5597 12.4312 12.5597 11.0605ZM6.10477 3.64241C6.10477 3.92286 6.09447 4.1928 6.10821 4.46625C6.14598 5.28658 6.52366 5.89307 7.26529 6.21208C8.00005 6.5276 8.69018 6.38737 9.28074 5.83697C9.92967 5.2375 9.90907 4.44171 9.861 3.64591C9.23267 3.64591 8.61808 3.64591 7.98975 3.64591C7.98975 3.78614 7.98975 3.91235 7.98975 4.04206C7.98975 4.17527 7.98975 4.30499 7.98975 4.44171C8.09276 4.44872 8.17173 4.45222 8.25756 4.45573C8.25756 4.63803 8.25756 4.80981 8.25756 4.99561C8.15113 4.99561 8.05156 4.99561 7.95542 4.99561C7.47816 4.99561 7.4507 4.97107 7.4507 4.47676C7.4507 4.19981 7.4507 3.92286 7.4507 3.64241C6.99404 3.64241 6.56143 3.64241 6.10477 3.64241ZM13.1091 12.1402C13.5589 12.1402 13.9949 12.1402 14.431 12.1402C14.431 12.1087 14.4344 12.0876 14.431 12.0666C14.1494 10.9237 13.8713 9.78088 13.5863 8.63803C13.4971 8.28395 13.2533 8.09114 12.9065 8.02804C12.8207 8.01401 12.728 8.02102 12.6387 8.01401C11.6258 7.93338 10.6164 7.84925 9.60349 7.76511C9.49018 7.75459 9.40778 7.77913 9.32538 7.86677C9.13997 8.0701 8.94083 8.26292 8.74855 8.46274C8.72108 8.49079 8.70048 8.52234 8.66615 8.57142C8.74855 8.57142 8.80692 8.57142 8.86529 8.57142C10.1597 8.57142 11.4541 8.57142 12.7486 8.57142C13.0335 8.57142 13.1125 8.65205 13.1125 8.94302C13.1125 9.94215 13.1125 10.9413 13.1125 11.9404C13.1091 12.0035 13.1091 12.0666 13.1091 12.1402ZM2.87044 12.1402C2.87044 12.0631 2.87044 12 2.87044 11.9369C2.87044 10.9308 2.87044 9.92812 2.87044 8.92199C2.87044 8.65205 2.95284 8.56791 3.22065 8.56791C4.52538 8.56791 5.8301 8.56791 7.13482 8.56791C7.18975 8.56791 7.24469 8.56791 7.34083 8.56791C7.06615 8.28746 6.8258 8.04206 6.58203 7.80017C6.55113 7.76861 6.48589 7.7581 6.43782 7.7616C6.12194 7.78264 5.8095 7.81068 5.49362 7.83522C4.73825 7.89482 3.98632 7.96493 3.23095 8.01401C2.75714 8.04556 2.48246 8.26292 2.36915 8.72918C2.17344 9.52847 1.97774 10.3313 1.78203 11.1306C1.69962 11.4636 1.62065 11.7932 1.53825 12.1367C1.9846 12.1402 2.41379 12.1402 2.87044 12.1402ZM3.4198 9.12882C3.4198 9.58457 3.4198 10.0298 3.4198 10.489C4.49104 10.489 5.55542 10.489 6.62666 10.489C6.62666 10.0333 6.62666 9.58457 6.62666 9.12882C5.55542 9.12882 4.49104 9.12882 3.4198 9.12882ZM9.34941 10.4855C10.431 10.4855 11.4953 10.4855 12.5563 10.4855C12.5563 10.0263 12.5563 9.57755 12.5563 9.13233C11.4816 9.13233 10.4172 9.13233 9.34941 9.13233C9.34941 9.58807 9.34941 10.0298 9.34941 10.4855ZM9.86786 2.23312C9.86786 2.00875 9.8816 1.81243 9.86443 1.62313C9.82323 1.18141 9.50392 0.872908 9.06786 0.869402C8.34683 0.862391 7.6258 0.862391 6.90821 0.869402C6.54083 0.872908 6.22838 1.10779 6.14941 1.45836C6.09791 1.69675 6.10821 1.95266 6.09447 2.20157C6.10821 2.20858 6.12194 2.21559 6.13224 2.2226C6.49276 1.94565 6.90821 1.95967 7.32709 1.96318C7.83181 1.96669 8.33653 1.97019 8.84126 1.96318C9.19834 1.95617 9.54168 1.99824 9.86786 2.23312ZM2.86357 12.7081C2.36915 12.7081 1.88503 12.7081 1.39405 12.7081C1.23954 13.3392 1.07817 13.9597 0.947693 14.5907C0.903058 14.8045 0.906491 15.0429 0.95456 15.2568C1.05756 15.7055 1.34254 16.014 1.79233 16.1893C1.79233 16.1087 1.79233 16.0491 1.79233 15.993C1.79233 15.5302 1.78546 15.0675 1.79576 14.6082C1.80606 14.1981 2.07387 13.879 2.46529 13.8124C2.59233 13.7914 2.7228 13.8089 2.86014 13.8089C2.86357 13.4478 2.86357 13.0797 2.86357 12.7081ZM13.1125 13.823C13.7752 13.6792 14.2352 14.142 14.1906 14.7905C14.1631 15.1972 14.1837 15.6074 14.1872 16.014C14.1872 16.0666 14.194 16.1157 14.1975 16.1718C14.8086 15.979 15.1966 15.2638 15.0455 14.6082C14.9528 14.2051 14.8498 13.8089 14.7537 13.4093C14.6953 13.1744 14.637 12.936 14.582 12.7116C14.0807 12.7116 13.6001 12.7116 13.1125 12.7116C13.1125 13.0833 13.1125 13.4478 13.1125 13.823ZM9.06443 6.67133C8.33653 7.00788 7.62924 7.00437 6.91507 6.67133C6.91507 6.75196 6.92194 6.81156 6.91507 6.87116C6.85671 7.22173 6.98374 7.47764 7.24812 7.70551C7.5125 7.93338 7.73911 8.19981 7.99319 8.45924C8.34683 8.09815 8.68332 7.75459 9.0198 7.40753C9.04726 7.37948 9.06443 7.33391 9.06443 7.29535C9.06786 7.09552 9.06443 6.8957 9.06443 6.67133ZM2.33825 16.2699C3.09018 16.2699 3.81808 16.2804 4.54941 16.2664C4.88589 16.2594 5.15027 16.021 5.2258 15.7265C5.17087 15.7265 5.11937 15.7265 5.06786 15.7265C4.45671 15.7265 3.84898 15.7265 3.23782 15.7265C2.94598 15.7265 2.87044 15.6494 2.86701 15.3444C2.86701 15.1025 2.87044 14.8606 2.86357 14.6187C2.85671 14.454 2.74683 14.3488 2.60606 14.3488C2.46529 14.3453 2.34168 14.461 2.33825 14.6117C2.33482 15.1586 2.33825 15.7055 2.33825 16.2699ZM13.6447 16.2734C13.6447 15.7371 13.6447 15.2182 13.6447 14.6959C13.6447 14.4785 13.5417 14.3488 13.3769 14.3523C13.2121 14.3523 13.1159 14.475 13.1125 14.7029C13.1091 14.9378 13.1159 15.1762 13.1091 15.411C13.1056 15.6389 13.0095 15.7301 12.7898 15.7301C12.1649 15.7301 11.54 15.7301 10.9151 15.7301C10.8601 15.7301 10.8052 15.7336 10.74 15.7371C10.8807 16.0701 11.1177 16.2594 11.4473 16.2699C12.1683 16.284 12.8962 16.2734 13.6447 16.2734ZM7.18632 9.13233C7.18632 9.56353 7.18289 9.98772 7.19319 10.4084C7.19319 10.44 7.27559 10.4925 7.32023 10.4925C7.67044 10.4996 8.02409 10.496 8.37774 10.496C8.79319 10.496 8.79319 10.496 8.79319 10.0684C8.79319 9.75985 8.79319 9.44784 8.79319 9.12882C8.2507 9.13233 7.72881 9.13233 7.18632 9.13233ZM6.16658 3.04644C7.38889 3.04644 8.59748 3.04644 9.81293 3.04644C9.66872 2.69587 9.40434 2.52059 9.00949 2.52059C8.32967 2.51708 7.65327 2.52059 6.97344 2.52059C6.89447 2.52059 6.8155 2.52409 6.73997 2.54162C6.46529 2.61173 6.27645 2.7765 6.16658 3.04644ZM8.77945 12.1402C8.77945 11.7756 8.77945 11.418 8.77945 11.064C8.24383 11.064 7.71851 11.064 7.19662 11.064C7.19662 11.4286 7.19662 11.7791 7.19662 12.1402C7.72881 12.1402 8.25413 12.1402 8.77945 12.1402Z" fill="currentColor"/>
        <path d="M10.4207 14.6152C10.4207 14.4329 10.4207 14.2647 10.4207 14.0824C10.5958 14.0824 10.764 14.0824 10.946 14.0824C10.946 14.2577 10.946 14.4294 10.946 14.6152C10.7743 14.6152 10.6061 14.6152 10.4207 14.6152Z" fill="currentColor"/>
        <path d="M12.0207 14.0824C12.0207 14.2612 12.0207 14.4329 12.0207 14.6187C11.849 14.6187 11.6807 14.6187 11.5022 14.6187C11.5022 14.4399 11.5022 14.2682 11.5022 14.0824C11.6739 14.0824 11.8421 14.0824 12.0207 14.0824Z" fill="currentColor"/>
    </g>
</svg>
