<?xml version="1.0" encoding="utf-8"?>
<!-- Generator: Adobe Illustrator 22.0.0, SVG Export Plug-In . SVG Version: 6.00 Build 0)  -->
<svg version="1.1" id="Calque_1" xmlns="http://www.w3.org/2000/svg" xmlns:xlink="http://www.w3.org/1999/xlink" x="0px" y="0px"
	 viewBox="0 0 615 619" style="enable-background:new 0 0 615 619;" xml:space="preserve">
<style type="text/css">
	.st0{fill:#E6E6EA;}
	.st1{fill:#B8B7C4;}
</style>
<g>
	<path class="st0" d="M588.6,242.8c-25-96.2-100.8-178.3-197-209c-31.5-10.1-64.8-14.6-97.9-13.4c-131.6,5-247,106.1-271.4,235.1
		c-22.1,117.1,32,240.9,134.5,302.4C270,625.7,419,608,511.9,514c48.6-49.2,80.1-115.1,85-184.3
		C598.9,300.2,595.9,270.9,588.6,242.8z"/>
	<g>
		<path d="M205.6,310c0.1,28.1-23.6,51.4-51.7,50.7c-27.1-0.6-49.3-23.3-49.4-50.4c-0.1-28.2,23.5-51.3,51.6-50.7
			C183.2,260.2,205.5,282.9,205.6,310z" fill="currentColor"/>
		<path d="M357.5,312.2c-1.2,28-26,50.3-53.9,48.5c-27.1-1.8-48.3-25.4-47.2-52.5c1.1-28.1,25.8-50.3,53.8-48.4
			C337.3,261.5,358.7,285.2,357.5,312.2z" fill="currentColor"/>
		<path d="M458,259.6c28.1-0.5,51.7,22.7,51.5,50.8c-0.2,27.1-22.6,49.7-49.6,50.3c-28.1,0.5-51.7-22.7-51.5-50.9
			C408.6,282.6,430.8,260.1,458,259.6z" fill="currentColor"/>
	</g>
</g>
</svg>
