<?xml version="1.0" encoding="utf-8"?>
<!-- Generator: Adobe Illustrator 22.0.0, SVG Export Plug-In . SVG Version: 6.00 Build 0)  -->
<svg version="1.1" id="Calque_1" xmlns="http://www.w3.org/2000/svg" xmlns:xlink="http://www.w3.org/1999/xlink" x="0px" y="0px"
	 viewBox="0 0 948 816" style="enable-background:new 0 0 948 816;" xml:space="preserve">
<g>
	<path d="M642.2,790.4c-112.2,0-224.3,0-336.5,0c0-10.1,0-20.1,0-31.1c16.6,0,31.7,0,47.1,0c2.8-30.8,5.5-60.7,8.2-91.3
		c-4.9,0-8.7,0-12.5,0c-90.5,0-181,0.1-271.5,0c-35.1,0-61.9-26.5-61.9-61.4c-0.1-173.3-0.1-346.7,0-520c0-33.9,26.8-60.9,60.5-60.9
		c265.4-0.1,530.8-0.1,796.2,0c26.7,0,49.2,16.4,57.9,41.8c0.9,2.7,2,5.2,3,7.8c0,181,0,362,0,543c-0.5,0.8-1.3,1.5-1.6,2.3
		c-10,32.1-30.5,47.3-64,47.3c-89.7,0-179.4,0-269.1,0c-3.7,0-7.3,0-11.3,0c2.9,31.3,5.6,61.3,8.5,92.1c16,0,31.1,0,47,0
		C642.2,770.8,642.2,780.6,642.2,790.4z M45.7,514.4c286.2,0,571.1,0,856.6,0c0-4.1,0-7.6,0-11c0-136.4,0-272.7,0-409.1
		c0-27-11.3-38.2-38.3-38.2c-260,0-519.9,0-779.9,0c-27.1,0-38.4,11.2-38.4,38.2c0,136.4,0,272.7,0,409.1
		C45.7,506.8,45.7,510.3,45.7,514.4z M902.2,546.2c-286,0-571,0-855.7,0c-0.4,1.2-0.7,1.8-0.7,2.4c-0.1,16.6-0.1,33.1-0.1,49.7
		c0,28.3,10.9,39.2,39.3,39.2c259.3,0,518.6,0,777.9,0c3.2,0,6.4,0.1,9.6-0.1c16.5-1.1,29.1-13,29.6-29.4
		C902.8,587.7,902.2,567.3,902.2,546.2z M564.1,759.3c-2.9-30.9-5.6-60.9-8.4-90.8c-55,0-109,0-163.6,0c-2.8,30.4-5.5,60.3-8.3,90.8
		C444.2,759.3,503.6,759.3,564.1,759.3z"/>
	<path d="M488.5,606.4c-9.9,0-19.3,0-29.2,0c0-10,0-19.6,0-29.7c9.7,0,19.1,0,29.2,0C488.5,586.2,488.5,595.8,488.5,606.4z"/>
</g>
</svg>
