<?xml version="1.0" encoding="utf-8"?>
<!-- Generator: Adobe Illustrator 22.0.0, SVG Export Plug-In . SVG Version: 6.00 Build 0)  -->
<svg version="1.1" id="Calque_1" xmlns="http://www.w3.org/2000/svg" xmlns:xlink="http://www.w3.org/1999/xlink" x="0px" y="0px"
	 viewBox="0 0 866 764" style="enable-background:new 0 0 866 764;" xml:space="preserve">
<g>
	<path d="M714,747c-174.6,0-349.1,0-523.7,0c1-1.4,1.7-3,2.9-4.1c18.3-17.5,28.7-39.2,35.5-63.3c30.4-108.1,61-216.1,91.9-324.1
		c2.7-9.6,6.5-19.3,12-27.5c15.1-22.4,37.4-30.8,64.1-30.7c125.1,0.3,250.1,0.1,375.2,0.1c3.8,0,7.5,0.1,11.3,0.4
		c20.6,1.6,38.5,9.9,50.2,26.8c7.3,10.5,10.7,23.7,15.9,35.7c0,6.4,0,12.7,0,19.1c-0.5,1-1.3,1.9-1.6,2.9
		c-24.4,101.9-48.8,203.9-73,305.8c-4.8,20.3-14.6,37.2-32.8,47.7C733.3,740.9,723.3,743.4,714,747z" fill="currentColor"/>
	<path d="M306.5,17c4.7,0.9,9.5,1.8,14.2,2.7c14.3,3,26,10.6,36.8,20.1c14.1,12.4,28.2,24.8,42.5,37c20.7,17.6,45.1,24.9,72,24.9
		c46.2,0,92.5,0.1,138.7,0c33.1-0.1,58.1,13.6,72.8,43.4c4.3,8.8,7.1,19.2,7.4,29c0.9,30.6,0.3,61.2,0.3,91.8
		c-12.1,3.9-13.8,3-17.1-8.5c-8.9-30.9-40.2-55.6-72.4-56.6c-7.6-0.2-11.4-1.9-13.6-10.1c-9.4-34.7-41.7-59.1-79.5-59.2
		c-116.2-0.4-232.3-0.6-348.5,0.1c-54.4,0.3-98,45.8-98.1,100.8c-0.2,163.3-0.1,326.5-0.1,489.8c0,3.3,0,6.7,0,11.6
		C38.5,719,24.5,699.5,19,674.2c-1.6-7.5-2.1-15.4-2.1-23.2c-0.1-184.1-0.1-368.1-0.1-552.2c0-40.4,21.9-69.1,59.6-78.7
		c5.5-1.4,11.2-2,16.8-3C164.3,17,235.4,17,306.5,17z" fill="currentColor"/>
	<path d="M98.4,747c-2.1-0.8-4.2-1.7-6.8-2.7c0-3.8,0-7.8,0-11.8c0-165.3,0-330.5,0-495.8c0-30.7,12.5-54.6,40.6-67.9
		c10.1-4.8,22.2-7.3,33.3-7.4c113.5-0.5,227.1-0.4,340.6-0.3c24.4,0,44.8,13.6,52.3,34.3c0.5,1.3,0.7,2.6,1.2,5c-4.1,0-7.5,0-10.8,0
		c-99.1,0-198.2-0.1-297.3,0c-52.5,0.1-92.2,32.4-102,83.1c-1.6,8.1-1.5,16.7-1.6,25c-0.1,139-0.1,277.9-0.1,416.9
		c0,14.1,0,14.1-13.9,17.9c-4.4,1.2-8.8,2.4-13.2,3.6C113.5,747,106,747,98.4,747z" fill="currentColor"/>
	<path d="M178.3,714.9c-0.2-4.4-0.5-7.1-0.5-9.9c0-132.6,0.1-265.3-0.1-397.9c0-31.1,11.5-55.5,39.8-69.2c10.5-5.1,23.2-7.1,35-7.5
		c29.7-1,59.5-0.3,89.3-0.3c83.8,0,167.6-0.1,251.4,0c26.1,0,45.3,13.4,52.6,37.4c-3.7,0-7.1,0-10.4,0c-79.5,0-158.9,0.1-238.4,0
		c-20.9,0-40.7,3.6-58.7,14.8c-24.1,14.9-38.4,36.5-46,63.5c-31,110.1-62.3,220.1-93.5,330.1C194.9,689.8,189.5,702.9,178.3,714.9z"
		fill="currentColor"/>
</g>
</svg>
