<?xml version="1.0" encoding="utf-8"?>
<!-- Generator: Adobe Illustrator 22.0.0, SVG Export Plug-In . SVG Version: 6.00 Build 0)  -->
<svg version="1.1" id="Calque_1" xmlns="http://www.w3.org/2000/svg" xmlns:xlink="http://www.w3.org/1999/xlink" x="0px" y="0px"
	 viewBox="0 0 914 914" style="enable-background:new 0 0 914 914;" xml:space="preserve">
<g>
	<path d="M171.7,153.4c5,3,9.1,5.6,13.3,8.1C297,227,409,292.4,520.8,358.1c6.7,4,11.6,3.8,18.2,0.1
		c58.4-32.4,116.9-64.3,176.6-97.1c-2.9-1.9-5-3.4-7.3-4.8c-79.9-46.5-159.7-93-239.6-139.4c-2-1.2-5-1.9-5.8-3.7
		c-1.7-3.6-4.1-8.7-2.7-11.3c1.4-2.6,6.9-3.9,10.8-4.2c2.5-0.2,5.3,2.2,7.8,3.6c85.2,49.5,170.3,99.1,255.6,148.5
		c5.8,3.3,7,7.8,7,13.7c-0.1,25.7,0.1,51.4-0.2,77c-0.1,6,1.7,9.4,6.9,12.4c32.9,18.8,65.5,38.1,98.5,56.8c6.6,3.8,9.4,8.2,9.4,16
		c-0.2,72.7-0.2,145.3-0.1,218c0,6.4-0.3,11.6-8.5,12c-2.4,0.1-4.7,2.2-7,3.5C714,732.3,587.5,805.3,461.4,879
		c-13.5,7.9-23.1,8.2-37,0.1c-118.3-69.6-237.2-138.4-356-207.1c-7.6-4.4-10.4-9.3-10.4-18c0.3-71.8,0.3-143.6,0-215.4
		c0-8.4,2.7-13.3,10-17.3c23-12.7,45.5-26.2,68.4-39c5.8-3.2,8.1-6.7,8-13.6c-0.3-69.4-0.1-138.9-0.4-208.3c0-8.1,2.6-12.7,9.5-16.7
		C217.1,107.3,280.5,70.7,343.8,34c6.7-3.9,12-4.1,18.5-0.1c11.4,7,23.3,13.3,35,19.8c4.5,2.5,8,5.4,5,11c-3.1,5.8-8.2,6.4-13.4,3.5
		c-9.1-5.1-18.3-10.4-27-16.3c-5.6-3.8-9.8-3.7-15.7-0.2c-55.6,32.5-111.5,64.6-167.2,96.9C176.8,149.9,174.8,151.4,171.7,153.4z
		 M520.4,586.4c0.2-2.6,0.4-3.7,0.4-4.8c0-66-0.1-131.9,0.2-197.9c0-6-3.1-8-7.3-10.5c-114.5-66.3-229-132.7-343.5-199.1
		c-2.4-1.4-4.8-2.6-8.1-4.4c0,4.2,0,6.8,0,9.4c0,63.9,0.1,127.8-0.2,191.7c0,6.5,2.3,9.6,7.7,12.8c88.4,50.9,176.7,102.1,265,153.2
		C462.8,553.1,491,569.4,520.4,586.4z M436,866.6c0.3-2.7,0.5-3.8,0.5-4.9c0-65.9-0.1-131.8,0.2-197.8c0-6-3.2-7.9-7.3-10.3
		C315,587.1,200.7,520.6,86.3,454.1c-2.4-1.4-4.9-2.6-8.4-4.4c0,4.3,0,7.5,0,10.6c0.6,62.7,1.2,125.4,1.5,188.1
		c0,6.9,2.4,10.1,8.1,13.5c87,50.9,173.9,102.1,260.8,153.2C377.1,832,406,848.9,436,866.6z M511.8,603.3
		c-15.5-8.9-29.5-16.8-43.3-24.8C365.9,519,263.3,459.4,160.9,399.6c-5.9-3.4-10-3.4-15.7,0.1c-16.7,10-33.9,19.4-50.9,29
		c-2.1,1.2-4,2.7-6.3,4.2c1.2,1.1,1.8,1.8,2.5,2.2c117,67.8,234,135.7,351,203.3c1.9,1.1,5.3,1.5,7,0.5
		C469.2,627.6,489.6,615.9,511.8,603.3z M838,435c-3.4,1.6-5.7,2.6-7.9,3.9c-55.9,32.5-111.7,65.1-167.7,97.5
		c-5.2,3-7.2,6.2-7.2,12.3c0.2,64.1,0.1,128.3,0.2,192.4c0,2.5,0.3,5,0.6,8.6c3.9-2.1,6.9-3.7,9.9-5.4c55-31.8,109.9-63.7,165-95.2
		c5.6-3.2,7.4-6.6,7.4-13c-0.2-63.8-0.2-127.7-0.2-191.5C838,441.7,838,438.9,838,435z M454.4,864.7c2.2-1.1,3.2-1.5,4.2-2.1
		c57.8-33.4,115.6-66.7,173.2-100.4c2.8-1.7,5.1-6.9,5.1-10.5c0.3-64.2,0.2-128.4,0.2-192.6c0-2.7-0.4-5.3-0.7-9.1
		c-60.3,34.9-119.4,69-178.3,103.3c-1.9,1.1-3.6,4.5-3.6,6.9C454.3,727.9,454.4,795.6,454.4,864.7z M719.7,273.2
		c-2,0.3-2.6,0.3-3,0.5c-58.3,33.6-116.6,67.4-175,100.8c-4.9,2.8-4.9,6.4-4.9,10.9c0,64.2,0,128.4,0,192.6c0,2.5,0,5,0,8.9
		c4.2-2.3,7.3-3.8,10.2-5.4c55-31.8,109.9-63.7,165.1-95.2c5.9-3.4,7.8-7.1,7.8-13.8c-0.2-63.3-0.1-126.6-0.1-189.9
		C719.7,279.5,719.7,276.6,719.7,273.2z M827.3,420.4c-30.1-17.4-59.2-34.3-88.8-51.4c0,34.8,0,68.3,0,103
		C768.4,454.6,797.3,437.8,827.3,420.4z" fill="currentColor"/>
	<path d="M446.2,86.5c0,7.8-6,12.2-12.1,9.5c-7.4-3.3-14.9-6.9-21.3-11.8c-2.5-1.9-3.7-8.1-2.6-11.2c0.9-2.4,7.2-5.2,9.8-4.2
		c8.1,3.1,15.6,7.7,23,12.3C444.8,82.2,445.5,85.3,446.2,86.5z" fill="currentColor"/>
	<path d="M350.4,379.1c0,17.5,0,35,0,52.5c0,2.3,0,4.7-0.2,7c-0.5,5.4-3.8,9.6-8.9,8.4c-3.5-0.9-8.2-5.3-8.6-8.6
		c-1.2-9.2-0.5-18.6-0.5-27.9c0-27.7,0-55.4,0-83.1c0-2,0-4.1,0-6.1c0.3-5.6,2.6-9.8,8.7-9.9c6.7-0.2,9.3,4.2,9.3,10.2
		C350.4,340.6,350.4,359.9,350.4,379.1C350.4,379.1,350.4,379.1,350.4,379.1z" fill="currentColor"/>
	<path d="M260.5,327.7c0,18.3,0,36.7,0,55c0,6.2-0.5,12.4-8.7,12.3c-7.5-0.2-9.3-5.7-9.3-12.2c0-37.3,0.1-74.5,0-111.8
		c0-6.7,1.9-12,9.5-11.8c7.2,0.2,8.5,5.6,8.5,11.7C260.5,289.9,260.5,308.8,260.5,327.7z" fill="currentColor"/>
	<path d="M216,300.5c0,18.9,0.1,37.9-0.1,56.8c-0.1,8.5-5.8,13.7-11.8,10.2c-3.1-1.8-5.8-7.2-5.9-11c-0.5-27.1-0.3-54.2-0.3-81.3
		c0-10.5,0-21,0-31.5c0-6.1,1.5-11.4,8.9-11.4c7.3,0,9.1,5.1,9.1,11.3C216,262.6,216,281.6,216,300.5z" fill="currentColor"/>
	<path d="M486.5,458.3c0,18.6-0.1,37.3,0,55.9c0,6.1-1,11.8-8.3,11.8c-7.3,0-9.6-5.3-9.6-11.9c0-37.6,0-75.1,0-112.7
		c0-6.3,2-11.3,9.1-11.3c7.3,0,8.8,5.2,8.8,11.4C486.4,420.4,486.5,439.3,486.5,458.3z" fill="currentColor"/>
	<path d="M377.3,404.8c0-18.9,0.1-37.8-0.1-56.7c-0.1-6.3,1.5-11.5,8.6-11.7c7.7-0.2,9.3,5.1,9.3,11.8c-0.1,37.5-0.1,75.1,0,112.6
		c0,6.2-1.3,11.5-8.7,11.3c-6.9-0.2-9.1-5-9.1-11.4C377.4,442,377.3,423.4,377.3,404.8z" fill="currentColor"/>
	<path d="M440.1,431.2c0,18.4,0,36.8,0,55.1c0,6.2-0.6,12.5-8.6,12.6c-8.2,0.1-9.5-6-9.5-12.8c0.1-36.8,0-73.5,0-110.3
		c0-6.1,0.4-12.3,8.6-12.5c8.6-0.1,9.4,6.1,9.4,12.7C440.1,394.5,440.1,412.8,440.1,431.2z" fill="currentColor"/>
	<path d="M305.5,352.8c0,18.3-0.1,36.7,0,55c0,6.4-0.8,12.1-8.8,12.3c-8.1,0.2-9.1-5.5-9.1-11.9c0.1-37.3,0.1-74.5,0-111.8
		c0-6.5,1-12,9.1-11.8c8.1,0.2,8.8,6,8.8,12.3C305.5,315.5,305.5,334.1,305.5,352.8z" fill="currentColor"/>
	<path d="M131.7,579c0,18.3,0,36.7,0,55c0,5.1-0.3,10.1-6.6,11.8c-6.7,1.7-11.3-2.1-11.5-10.2c-0.3-13.4-0.1-26.8-0.1-40.2
		c0-24.2-0.2-48.3,0.2-72.5c0.1-3.9,1.7-9.1,4.6-11.3c6.2-4.7,13.2,0.5,13.3,9.7C131.9,540.5,131.7,559.7,131.7,579z" fill="currentColor"/>
	<path d="M355.8,709c0,18.6,0,37.3,0,55.9c0,5.2-0.5,10.2-6.6,11.8c-6.6,1.8-11.3-2.2-11.5-10.3c-0.3-13.4-0.1-26.8-0.1-40.2
		c0-24.2-0.2-48.4,0.2-72.5c0.1-3.9,1.7-9.1,4.6-11.2c6.1-4.6,13.2,0.6,13.3,9.7C356,671.1,355.8,690,355.8,709z" fill="currentColor"/>
	<path d="M293.1,682.1c0-18.6,0.1-37.3,0-55.9c0-6.1,0.9-11.8,8.2-11.9c7.3-0.1,9.6,5.1,9.6,11.8c-0.1,37.6-0.1,75.1,0,112.7
		c0,6.4-1.8,11.3-8.9,11.4c-7.2,0.1-9-4.9-8.9-11.3C293.2,720,293.1,701,293.1,682.1z" fill="currentColor"/>
	<path d="M176.3,605.7c0,18.7-0.1,37.3,0,56c0,6.3-1.7,11.4-8.8,11.4c-7,0-9-4.9-9-11.3c0.1-37.9,0.1-75.8,0-113.7
		c0-6.5,2.2-11.1,9.3-10.9c6.7,0.2,8.5,4.8,8.5,10.9C176.2,567.2,176.3,586.5,176.3,605.7z" fill="currentColor"/>
	<path d="M221.4,630.7c0,18.4,0,36.7,0,55.1c0,6.3-0.9,12.1-8.9,12.3c-8.2,0.2-9-5.6-9-12c0-37.3,0.1-74.6,0-111.9
		c0-6.5,1.3-12.2,9.2-11.9c7.8,0.3,8.8,6.1,8.8,12.5C221.3,593.4,221.4,612.1,221.4,630.7z" fill="currentColor"/>
	<path d="M248,656.8c0-17.5,0-35,0-52.4c0-2-0.1-4.1,0.1-6.1c0.5-5.8,3.4-9.2,9.5-9c5.8,0.2,8.2,3.9,8.3,9.2
		c0.1,39,0.1,78.1,0,117.1c0,5.9-2.9,9.6-9,9.4c-6.6-0.1-8.9-4.5-8.9-10.6C248,695.2,248,676,248,656.8z" fill="currentColor"/>
	<path d="M402.2,736.7c0,18.6-0.1,37.2,0.1,55.9c0,6.4-1.7,11.3-8.9,11.3c-7.1,0-9-4.9-9-11.3c0.1-37.8,0.1-75.7,0-113.5
		c0-5.8,1.4-10.8,8.3-10.9c7-0.1,9.5,4.4,9.5,10.9C402.1,698.3,402.2,717.5,402.2,736.7z" fill="currentColor"/>
	<path d="M667.8,631.9c0-24.8,0.1-49.6-0.1-74.3c-0.1-6,2-9.7,7.2-12.7c43.9-25.3,87.7-50.8,131.6-76.1c10.3-5.9,17.2-2,17.3,9.6
		c0.6,49.3,1,98.5,1.9,147.8c0.1,7-2.3,11.3-8.3,14.7c-44.1,25-88,50.2-132,75.3c-10.9,6.2-17.4,2.4-17.4-10
		C667.8,681.4,667.8,656.6,667.8,631.9z M766.2,512c-11.8,6.9-21.8,13.3-32.3,18.8c-5.4,2.9-7.1,6.4-7.1,12.4
		c0.2,39.9,0.1,79.8,0.1,119.7c0,2.8,0.3,5.6,0.5,9.9c12.8-7.5,24.6-14.2,36.1-21.4c1.5-0.9,2.5-3.8,2.5-5.8
		C766.2,601.7,766.2,557.7,766.2,512z M784.1,639c4.9-2.7,8-5,11.5-6.3c8.6-3.3,10.7-9.3,10.5-18.3c-0.5-38.4-0.2-76.9-0.2-115.3
		c0-3,0-6,0-10.5c-5.5,3.2-9,5.8-13,7.4c-7.4,2.9-9.1,8-9,15.6c0.5,25.3,0.2,50.7,0.2,76C784.1,604.2,784.1,620.7,784.1,639z
		 M707,546.3c-4.9,2.7-8,5-11.5,6.3c-8.2,3.2-10.3,8.8-10.2,17.5c0.5,38.8,0.2,77.6,0.2,116.4c0,3,0,5.9,0,10
		c5.5-3.1,9.1-5.7,13.1-7.4c7-2.9,8.7-7.7,8.5-15.1c-0.6-18.7-0.2-37.3-0.2-56C707,594.7,707,571.4,707,546.3z" fill="currentColor"/>
	<path d="M465,747c0-24.5,0.2-49-0.1-73.5c-0.1-7.1,2.5-11.2,8.6-14.6c43.6-24.7,87.1-49.7,130.6-74.6c12.5-7.1,18.6-3.6,18.6,10.6
		c0,48.7-0.1,97.5,0.1,146.2c0,7.1-2.4,11.3-8.4,14.7c-43.9,24.9-87.6,50-131.4,74.9c-11.4,6.5-18,2.7-18-10.2
		C465,796.1,465,771.6,465,747z M526.1,789.7c11.9-7,22-13.4,32.5-19c5.5-2.9,6.9-6.7,6.9-12.5c-0.2-39.9-0.1-79.9-0.1-119.8
		c0-2.7-0.3-5.5-0.6-9.5c-11.6,6.8-21.9,13.3-32.6,19c-4.8,2.6-6.3,5.6-6.2,11c0.3,28.3,0.1,56.5,0.1,84.8
		C526.1,758.5,526.1,773.3,526.1,789.7z M484.7,812.9c4.4-2.5,7.2-4.5,10.3-5.6c9.7-3.6,11.9-10.3,11.7-20.2
		c-0.6-37.8-0.2-75.7-0.2-113.6c0-3.1,0-6.2,0-10.8c-4.5,2.5-7.6,4.7-10.9,6c-8.8,3.4-11.3,9.3-11.1,18.8
		c0.6,38.1,0.3,76.3,0.3,114.4C484.7,805,484.7,808.1,484.7,812.9z M605,605.3c-4.7,2.7-7.7,5-11.2,6.3c-8.7,3.3-10.5,9.4-10.4,18.3
		c0.5,38.2,0.2,76.3,0.2,114.5c0,3.1,0,6.2,0,11c7.4-4.2,13.5-7.4,19.3-11.1c1.3-0.8,2-3.4,2-5.2C605,695,605,651,605,605.3z" fill="currentColor"/>
	<path d="M708.8,392.4c0,24.2-0.2,48.4,0.1,72.7c0.1,7.1-2.5,11.3-8.5,14.7c-44.6,25.3-89.1,50.9-133.7,76.3
		c-9.1,5.2-15.6,1.6-15.7-8.9c-0.1-50.5-0.2-101,0.2-151.4c0-4,3.5-9.6,6.9-11.6c44.6-26,89.4-51.5,134.2-77
		c9.7-5.5,16.2-1.4,16.3,10.1C708.9,342.2,708.8,367.3,708.8,392.4z M610.3,510c11.7-6.8,21.7-13.1,32.2-18.7
		c5.6-3,7.6-6.7,7.5-13.1c-0.3-40-0.1-79.9-0.2-119.9c0-2.7-0.2-5.5-0.4-9.3c-12.6,7.4-24,13.9-35.1,20.9c-2,1.2-3.9,4.5-3.9,6.8
		C610.2,420.4,610.3,464.2,610.3,510z M592.5,383c-4.5,2.5-7.3,4.5-10.5,5.7c-9.2,3.5-11.6,9.8-11.4,19.6
		c0.6,37.9,0.3,75.7,0.3,113.6c0,3.1,0,6.2,0,11.2c7.5-4.3,13.6-7.4,19.3-11.2c1.5-1,2.2-3.9,2.2-6
		C592.5,472.2,592.5,428.6,592.5,383z M667.8,475.6c4.5-2.4,7.4-4.4,10.6-5.6c8.9-3.4,11.1-9.5,11-18.9
		c-0.6-38.2-0.3-76.4-0.3-114.5c0-3.1,0-6.2,0-10.9c-7.1,4.1-13,7.2-18.4,10.9c-1.5,1-2.8,3.7-2.8,5.7
		C667.8,386.1,667.8,430.1,667.8,475.6z" fill="currentColor"/>
</g>
</svg>
