<svg width="30" height="30" viewBox="0 0 32 32" fill="none" xmlns="http://www.w3.org/2000/svg">
    <g clip-path="url(#clip0)">
        <path d="M18.2999 25.3C17.6999 25.3 17.1999 25.3 16.5999 25.3C16.4999 25.3 16.3999 25.3 16.3999 25.1C16.3999 24.6 16.3999 24.1 16.3999 23.6V23.5C16.9999 23.5 17.5999 23.5 18.1999 23.5C18.3999 23 18.4999 22.5 18.6999 22C18.8999 21.5 19.1999 21.1 19.3999 20.6C18.9999 20.2 18.5999 19.8 18.0999 19.3C18.4999 18.9 18.9999 18.5 19.3999 18C19.7999 18.4 20.2999 18.8 20.6999 19.3C21.4999 18.7 22.4999 18.3 23.4999 18.1C23.4999 17.5 23.4999 16.9 23.4999 16.2C24.0999 16.2 24.6999 16.2 25.2999 16.2C25.2999 16.8 25.2999 17.4 25.2999 18.1C26.2999 18.3 27.2999 18.6 28.0999 19.3C28.4999 18.9 28.9999 18.4 29.3999 18C29.7999 18.4 30.1999 18.8 30.6999 19.3C30.2999 19.7 29.7999 20.2 29.3999 20.6C29.9999 21.5 30.3999 22.4 30.5999 23.5C31.1999 23.5 31.7999 23.5 32.3999 23.5C32.3999 24.1 32.3999 24.7 32.3999 25.3C31.7999 25.3 31.1999 25.3 30.5999 25.3C30.3999 26.4 30.0999 27.3 29.3999 28.2C29.7999 28.6 30.2999 29.1 30.6999 29.5C30.2999 29.9 29.7999 30.3 29.3999 30.8C28.9999 30.4 28.4999 29.9 28.0999 29.5C27.2999 30.1 26.2999 30.5 25.2999 30.7C25.2999 31.3 25.2999 31.9 25.2999 32.6C24.6999 32.6 24.0999 32.6 23.4999 32.6C23.4999 32 23.4999 31.4 23.4999 30.8C22.9999 30.7 22.4999 30.5 22.0999 30.4C21.5999 30.2 21.1999 30 20.7999 29.7C20.3999 30.1 19.8999 30.5 19.3999 30.9C18.9999 30.5 18.5999 30.1 18.0999 29.6C18.2999 29.4 18.4999 29.2 18.6999 29C18.8999 28.8 19.0999 28.6 19.2999 28.4C19.3999 28.4 19.3999 28.3 19.2999 28.2C18.6999 27.4 18.3999 26.6 18.1999 25.7C18.2999 25.5 18.2999 25.4 18.2999 25.3C18.2999 25.4 18.2999 25.3 18.2999 25.3ZM24.3999 19.9C21.9999 19.9 19.9999 21.9 19.9999 24.4C19.9999 26.9 21.9999 28.9 24.3999 28.9C26.7999 28.9 28.7999 26.9 28.7999 24.5C28.7999 22 26.8999 19.9 24.3999 19.9Z" fill="currentColor"/>
        <path d="M25.1 5.1C25.1 5.2 25.1 5.2 25.1 5.3C25.1 8.2 25.1 11 25.1 13.9C25.1 14 25.1 14 25.1 14.1C24.4 14.1 23.8 14.1 23.1 14.1C23.1 11.9 23.1 9.6 23.1 7.3C17.7 7.3 12.3 7.3 7 7.3C7 13.6 7 20 7 26.3C9.3 26.3 11.5 26.3 13.8 26.3C13.8 27 13.8 27.7 13.8 28.3H13.7C10.8 28.3 8 28.3 5.1 28.3H5C5 20.5 5 12.8 5 5C11.7 5.1 18.4 5.1 25.1 5.1Z" fill="currentColor"/>
        <path d="M21.6 12.5C17.2 12.5 12.9 12.5 8.5 12.5C8.5 11.8 8.5 11.2 8.5 10.5H8.6C12.9 10.5 17.1 10.5 21.4 10.5C21.5 10.5 21.6 10.5 21.6 10.7C21.6 11.3 21.6 11.8 21.6 12.4C21.6 12.4 21.6 12.4 21.6 12.5Z" fill="currentColor"/>
        <path d="M8.5 15.7C11.8 15.7 15.1 15.7 18.4 15.7C18.4 16.4 18.4 17.1 18.4 17.7C15.1 17.7 11.8 17.7 8.5 17.7C8.5 17.1 8.5 16.4 8.5 15.7Z" fill="currentColor"/>
        <path d="M15.6 21.1C15.6 21.8 15.6 22.4 15.6 23.1C13.2 23.1 10.9 23.1 8.5 23.1C8.5 22.4 8.5 21.8 8.5 21.1C10.8 21.1 13.2 21.1 15.6 21.1Z" fill="currentColor"/>
    </g>
    <defs>
        <clipPath id="clip0">
            <rect width="38" height="38" fill="white"/>
        </clipPath>
    </defs>
</svg>
