<svg width="24" height="24" viewBox="0 0 24 24" fill="currentColor" xmlns="http://www.w3.org/2000/svg">
<path d="M2 10C2 6.68303 4.683 4.00003 8 4.00003L7.143 5.71403M22 14C22 17.317 19.317 20 16 20L16.857 18.286M17 6.50003H17.009M7 17.5H7.009M17.25 2.51603C19.08 1.76103 20.692 2.01203 21.565 2.17203C21.814 2.21803 22 2.46203 22 2.74503V9.20503C22 9.54303 21.738 9.79503 21.44 9.74303C20.544 9.58403 18.997 9.38803 17.25 10.108C15.372 10.883 13.482 11.028 12.45 10.996C12.194 10.988 12 10.746 12 10.456V3.99603C12 3.66303 12.255 3.40103 12.551 3.40603C13.601 3.42603 15.431 3.26603 17.25 2.51603ZM7.25 13.516C9.08 12.761 10.691 13.012 11.565 13.172C11.814 13.218 12 13.462 12 13.745V20.205C12 20.543 11.738 20.795 11.44 20.743C10.544 20.584 8.997 20.388 7.25 21.109C5.372 21.883 3.482 22.029 2.45 21.996C2.194 21.988 2 21.746 2 21.456V14.995C2 14.662 2.255 14.4 2.551 14.405C3.601 14.425 5.431 14.266 7.25 13.516Z" stroke="white" stroke-width="1.5" stroke-linecap="round" stroke-linejoin="round"/>
</svg>
