<?xml version="1.0" encoding="utf-8"?>
<!-- Generator: Adobe Illustrator 22.0.0, SVG Export Plug-In . SVG Version: 6.00 Build 0)  -->
<svg version="1.1" id="Calque_1" xmlns="http://www.w3.org/2000/svg" xmlns:xlink="http://www.w3.org/1999/xlink" x="0px" y="0px"
	 viewBox="0 0 1080 1080" style="enable-background:new 0 0 1080 1080;" xml:space="preserve">
<g>
	<path d="M458.3,37c2.2,0.9,4.4,1.9,6.6,2.6c32.6,10.8,49.3,43.9,37.8,76.3c-7,19.7-15.2,39-23.2,59.3c13.7,2.8,27,5.4,40.2,8.4
		c24.3,5.4,39.4,25.3,36.9,48.4c-2.5,23.6-21.9,39.8-47.2,39.7c-5.6,0-11.1,0-18.2,0c6.2,15.7,12,30.5,17.9,45.2
		c4.1,10.4,8.5,20.6,12.3,31.1c4.9,13.5-2.2,23.9-16.6,24.2c-15.7,0.3-31.4,0.1-47.5,0.1c-5,38.9,6,78.5-8.4,116.1
		c12.6,2,25.8,3,38.4,6.3c33.9,8.8,62.3,26.9,82.5,55.7c18.6,26.5,35.2,54.4,53.5,83c-9.6,6.1-18.6,11.8-27.8,17.7
		c-26.1-33.7-41.1-75-75.3-104.2c-57.1,104.1-113.5,207-170.6,311c34.2,0,67.1,0,101.5,0c-15.1-14.2-22-30.6-17-50.3
		c5-19.5,18.8-30.3,38.6-35.4c0-32.3,0-64.7,0-97.5c11.3,0,21.6,0,33.6,0c0,12.2-0.4,24.6,0.2,37c0.2,4.9,1.5,10.4,4.1,14.6
		c21.2,35.3,42,70.9,64.7,105.2c7.8,11.7,20.6,20.1,33.2,31.9c4-26.8,7.5-50.4,11-74c10-68.4,19.7-136.8,30-205.1
		c4.1-27.2,24.9-44,52.7-44.2c4.5,0,9.1-0.3,13.6,0c15.5,1.1,28.4-0.2,39.4-15.2c11.8-16,31.4-19.9,51.1-18.3
		c7.6,0.6,11.4-1.3,14.2-9.3c8.1-22.9,25.5-36.4,49.2-40.5c29.9-5.2,50.3,14.7,51.3,49.7c4.1,0,8.3-0.1,12.4,0
		c18.9,0.8,32.2,9.6,40.1,27c1.3,2.8,5.7,6.3,8.4,6.1c30.5-1.7,50.6,11.6,61,40.1c0,7,0,14,0,21c-6.6,42.7-13.1,85.4-19.5,128.1
		c-0.3,1.7,0.9,3.9,1.9,5.5c5.8,9.3,11.7,18.5,17.6,27.8c0,6.3,0,12.6,0,18.9c-0.7,1.9-1.8,3.6-2.2,5.6
		c-6.4,31.4-12.7,62.9-18.9,94.4c-5.1,25.9-23.1,43.5-47.1,44.4c-19.9,0.8-39.8,0.8-59.7,0c-27.5-1-48-26.6-42.9-53.4
		c6.7-35.3,13.6-70.5,21.1-105.7c5.7-26.9,24.8-41.8,52.3-41.9c14.6-0.1,29.2,0,44.1,0c0.5-2.6,0.8-4.2,1-5.9
		c5.9-40,11.7-80.1,17.8-120.1c1.3-8.5,2-17.9-6.6-21.1c-9-3.3-19.6-2.6-29.4-3.1c-0.9,0-2.3,3.9-2.9,6.1c-2.6,9.4-5,18.9-7.3,28.3
		c-2.5,10.3-8.9,15.2-19.5,15.2c-66.3-0.1-132.7,0-199-0.1c-14.6,0-21.3-9.2-18-23.6c2-8.6,4.1-17.2,6.4-26.7
		c-10.8,0-20.2-0.1-29.6,0c-12.4,0.2-18.1,5.5-20,18.1c-0.9,5.9-1.6,11.7-2.5,17.6c-18.5,126-37.1,251.9-55.6,377.9
		c-2,13.8,5.1,22.2,19.3,22.2c95.7,0.1,191.4,0.1,287,0c12.4,0,18.2-5.5,20.2-18c1.7-11.3,3.4-22.6,5.3-34.7
		c11.4,1.8,21.9,3.4,32.3,5.1c-5.3,45.1-4.2,66.5-46.1,81.3c-273.2,0-546.3,0-819.5,0c-2.2-0.8-4.4-1.7-6.7-2.3
		c-36.6-9.2-61.4-31.4-74.2-66.9c-2-5.5-3.4-11.1-5.1-16.7c0-105.5,0-211,0-316.5c11,0,22,0,33.5,0c0,5.7,0,9.8,0,14
		c0,93.9,0,187.8,0,281.8c0,45.4,27.6,73.1,73,73.1c77.9,0,155.7,0,233.6,0c3.7,0,7.4,0,11.3,0c0-39.7,0-78.2,0-117.4
		c-4.5,0-8.3,0-12.1,0c-60.8,0-121.5,0-182.3,0c-17.7,0-22.9-5.3-22.9-23.2c0-61.4,0-122.9,0-184.3c0-3.3,0-6.6,0-9.9
		c11.9,0,22.2,0,33.5,0c0,61.4,0,122.4,0,183.3c0.8,0.5,1.7,1,2.5,1.4c2.2-2.4,5.1-4.4,6.6-7.1c28.1-51,56-102.1,84.2-153.1
		c2.7-4.8,2.2-7.7-1.5-11.7C248,634.6,200,581.5,151.6,528.8c-2.6-2.8-8.6-4.5-12.4-3.8c-32.6,6.3-54.3,25.7-64.8,57.1
		c-2.6,7.8-3.5,16.1-5.3,24.9c-10.7,0-21.5,0-32.3,0c0-4.9,0-9.8,0-14.7c4.9-20,10.9-39.5,23.9-56.1c19.5-25,45.1-39.8,76.3-45.5
		c0.2-2.7,0.4-4.7,0.4-6.8c0-95.6,0.1-191.2-0.1-286.9c0-4.4-1.1-9-2.8-13.1c-8.5-21.7-17.6-43.2-26-65
		c-11.3-29.4,0.5-61.8,27.2-75.4c5.2-2.6,10.9-4.5,16.3-6.6C254.3,37,356.3,37,458.3,37z M281,213.6c-1.7,5-3.4,9.6-4.9,14.2
		c-1.6,4.6-3,9.3-4.6,13.9c-3,9.1-9.2,13.6-18.9,13.3c-3.8-0.1-7.7-0.1-11.5,0c-14.2,0.2-24.8,7.6-28,19.2
		c-3.3,12.3,1.5,23.8,13.2,31.4c14.8,9.6,15.9,19.4,3.2,32.1c-17,17.1-33.8,34.3-51.2,51c-5.6,5.3-7.5,10.8-7.3,18.3
		c0.4,24.1,0.2,48.2,0.2,72.3c0,3.3,0,6.6,0,10.4c74.2,0,146.8,0.1,219.4-0.1c14.7-0.1,27.8-10,30.3-24.4
		c2.4-13.8,1.6-28.1,2.3-42.9c-18.1,0-34,0-50,0c0-11.4,0-22,0-33.3c16.7,0,32.6,0,49.6,0c0-10.8-0.1-20.8,0-30.9
		c0.2-13,6.3-19,19.5-19.2c12.7-0.2,25.5,0,39.5,0c-9.2-23-17.8-44.7-26.6-66.2c-0.9-2.1-3.6-4.4-5.8-4.8
		c-14.6-2.8-29.4-5.1-44.1-7.5c1.6,23.2-4.6,36.3-20.2,42.6c-13.7,5.6-29.9,1.8-38.5-10.3c-3.8-5.4-7.7-12.9-7-19
		c1.1-10.1,5.8-19.8,9-29.8C327.6,234.4,304.8,224.2,281,213.6z M491.3,528.7c-17.1-1.9-32.4-3.5-47.7-5.5c-8-1-12.3,1.9-16.3,9.2
		c-57.4,105.4-115.2,210.5-172.8,315.7c-1.6,3-3.1,6-5.3,10.5c18.3,0,35.3-0.4,52.2,0.2c7.3,0.2,11-2.3,14.5-8.6
		C372.2,747,428.8,644,485.3,540.9C486.9,537.9,488.3,534.8,491.3,528.7z M471.3,87.3c-6-12.5-14.9-16.8-26.6-16.8
		c-92.9,0.1-185.7,0-278.6,0.1c-22.3,0-33.7,16.7-25.6,37.5c6.9,17.9,14.6,35.4,21.2,53.4c2.7,7.3,6.1,9.9,14.1,9.9
		c69.1-0.4,138.2-0.2,207.3-0.2c3.3,0,6.6-0.3,10.7-0.5c-1.7-5.9-3.1-10.8-4.8-16.7c-61.5,0-122.8,0-183.8,0c0-11.5,0-21.8,0-33.1
		c4.3,0,8,0,11.8,0c56.2,0,112.4-0.1,168.6,0.1c6.2,0,9.9-1.5,13.4-7c11.2-17.4,27.7-25.9,48.3-26.6
		C454.9,87.1,462.4,87.3,471.3,87.3z M945.1,892.1c7.3,0,14.7,0,22,0c13.9-0.1,18.9-4,21.7-17.4c6.7-32.8,13.3-65.6,19.8-98.4
		c2.4-12-2.4-18.1-14.6-18.2c-16.4-0.2-32.8-0.2-49.2,0c-11,0.1-16.7,4.9-18.9,15.8c-6.9,33.8-13.7,67.7-20.3,101.5
		c-2,10.1,3,16.3,13.3,16.7C927.6,892.3,936.4,892.1,945.1,892.1z M590.8,1009c0-8.3-0.9-16.4,0.2-24.1c3.2-24.9,7.1-49.7,10.9-74.6
		c1.7-11.2-26.3-34.2-37-30.3c-0.3,0.1-0.6,0.3-1,0.4c-16.8,6.7-33.6,13.7-50.5,20c-5.6,2.1-7.1,5-7,10.7
		c0.3,30.4,0.1,60.8,0.2,91.1c0,2.3,0.6,4.6,0.9,6.7C536,1009,563.9,1009,590.8,1009z M762.7,590.3c4.9,0,8.7,0,12.5,0
		c40.5,0,81,0.1,121.5-0.1c11.7,0,27.2,3.6,34.2-2.4c7.7-6.6,7.5-22.3,10.7-34c0.1-0.3,0.2-0.7,0.3-1c1.6-8.3-1.6-12.8-10.4-12.8
		c-10.5,0-20.9,0.2-31.4-0.1c-13.4-0.4-20.2-9.4-17.3-22.4c0.8-3.4,2.4-6.7,2.5-10.1c0.1-5.2,0.6-14-1.6-14.9
		c-5.1-2-12.9-2.1-17.2,0.8c-6.3,4.1-10.8,11.2-15.2,17.6c-2,3-2.1,7.3-3,11c-3.7,14.7-8.1,18-23.5,18.1c-9.1,0-18.2-0.2-27.2,0.1
		c-12.4,0.4-21.6,6.7-25.9,18C767.7,568,765.8,578.8,762.7,590.3z M472.6,893c-17.3,0-33.5,0-49.3,0c0,39.1,0,77.4,0,115.8
		c16.7,0,32.9,0,49.3,0C472.6,969.9,472.6,931.6,472.6,893z M317.7,661c13-16.8,18.3-33,13.1-53.5c-6.9-27.5-13.1-55.8,0.2-83.8
		c-14.3,0-28.4,0-44.3,0c3.9,5.9,6.8,11,10.4,15.5c7,8.8,9.1,17.8,6.6,29.2c-4.2,19.4-6.8,39.2-9.9,58.8c-0.4,2.8-0.4,6.7,1.2,8.6
		C302.2,644.4,309.9,652.4,317.7,661z M348.1,205.8c52,21.5,106.1,31.8,162,32.4c6.9,0.1,11.9-2.5,12.8-9.5
		c1.2-8.6-5.1-10.9-12-12.9C457.4,200.6,402.6,204.9,348.1,205.8z M194.9,324.3c-1.2-1.8-1.9-2.9-2.7-4
		c-29.5-40.4-9.4-90.6,40.1-97.7c12.5-1.8,13.7-8.2,15-17.2c-25.6,0-50.5,0-75.3,0c0,47.4,0,94.1,0,142.1
		C180.1,339.2,187.2,332.1,194.9,324.3z M192.3,523.2c24.6,27,47.3,52,71.6,78.8c2.4-14.6,4.5-26.9,6.1-39.1
		c0.3-2.4-1.3-5.3-2.7-7.5c-5.8-9.1-11.6-18.2-18.1-26.8c-1.9-2.6-5.9-5-9-5.1C225.3,522.9,210.4,523.2,192.3,523.2z M543.3,852.5
		c-19-15.3-36.3-29.3-53.8-43c-7.2-5.7-15.7-4.9-20.3,1.6c-5,7.1-3.8,13.9,2.5,19.5c12,10.6,24.2,21,36.6,31.1
		c1.9,1.5,5.8,2.2,8.1,1.4C524.9,860.2,533.1,856.6,543.3,852.5z M464.5,121.6c-26.2-2.8-40.3,4.9-41.7,22.2
		c-1.2,13.6,8,24.5,22.5,26C451.6,153.9,458,137.9,464.5,121.6z M361.7,582.7c10.9-19.9,21.3-38.9,32.6-59.5
		c-8.5,0-15.3-0.3-22.1,0.2c-2.1,0.2-5.2,2.3-5.8,4.3C360.2,545.2,351.6,562.6,361.7,582.7z"/>
	<path d="M270.9,975.6c-10.8,0-21.1,0-32,0c0-10.9,0-21.5,0-32.6c10.6,0,20.9,0,32,0C270.9,953.3,270.9,963.9,270.9,975.6z"/>
	<path d="M305.8,942.9c10.9,0,21.2,0,32.2,0c0,10.7,0,21.2,0,32.4c-10.6,0-21.1,0-32.2,0C305.8,964.7,305.8,954.4,305.8,942.9z"/>
</g>
</svg>
