<svg width="36" height="33" viewBox="0 0 56 35" fill="none" xmlns="http://www.w3.org/2000/svg">
<path d="M6.55204 7.18795C6.80827 4.73792 7.88808 2.72025 9.97451 1.31509C11.3838 0.378312 12.9577 -0.0900754 14.6415 0.018014C17.8627 0.216178 21.3949 2.30591 22.0172 7.16993C22.7859 7.22398 23.5546 7.27802 24.3416 7.35008C26.7757 7.58427 28.4778 9.4218 28.5144 11.7998C28.5327 12.4303 28.2399 12.8626 27.6176 12.9527C26.9953 13.0428 26.5744 12.7185 26.4097 12.106C26.3365 11.8178 26.2999 11.5115 26.2267 11.2233C26.007 10.3045 25.4214 9.74606 24.5063 9.5479C23.9206 9.4218 23.2984 9.38577 22.6944 9.38577C17.1489 9.36775 11.5851 9.36775 6.03958 9.38577C2.83674 9.38577 2.12296 10.0883 2.12296 13.259C2.12296 16.2855 2.10466 19.33 2.14126 22.3565C2.14126 23.2212 2.21447 24.1039 2.39749 24.9506C3.01976 27.833 5.2343 29.4904 8.67507 29.6706C9.9196 29.7426 11.1824 29.7066 12.427 29.7246C13.3238 29.7426 13.8362 30.1389 13.7813 30.8235C13.7081 31.6162 13.1774 31.9044 12.4453 31.8684C10.5236 31.7963 8.58356 31.8504 6.69845 31.5621C3.11126 31.0037 0.38427 28.3194 0.164646 24.7705C-0.109884 20.2848 -0.0366757 15.7811 0.0914382 11.2773C0.182948 9.07951 1.99484 7.56626 4.20938 7.35008C4.95977 7.27802 5.71015 7.24199 6.55204 7.18795ZM19.7112 7.18795C19.583 4.30556 17.0757 2.10774 14.0559 2.1798C11.2923 2.25186 8.83979 4.5938 8.85809 7.18795C12.4819 7.18795 16.1057 7.18795 19.7112 7.18795Z" fill="currentColor"/>
<path d="M26.0802 15.2406C28.313 15.2406 30.5276 15.2046 32.7604 15.2406C34.8468 15.2766 35.9267 16.3215 35.9633 18.3572C35.9999 21.5098 36.0365 24.6624 35.9633 27.815C35.8901 30.8595 34.2978 32.4629 31.1864 32.5529C27.7823 32.643 24.3598 32.643 20.9373 32.5529C17.7528 32.4809 16.2154 30.8956 16.1788 27.743C16.1422 24.5543 16.1422 21.3837 16.1788 18.1951C16.1971 16.3575 17.2586 15.2766 19.1254 15.2406C21.4498 15.2226 23.7558 15.2586 26.0802 15.2406ZM26.0985 17.3664C23.9023 17.3664 21.706 17.3844 19.5281 17.3664C18.6862 17.3484 18.3018 17.6906 18.3018 18.5373C18.3202 21.6539 18.2835 24.7705 18.3385 27.8871C18.3751 29.7426 19.1437 30.4272 21.0105 30.4272C24.3598 30.4452 27.7091 30.4452 31.0583 30.4272C32.98 30.4092 33.7487 29.6165 33.767 27.7069C33.767 24.6804 33.767 21.6539 33.767 18.6274C33.767 17.5465 33.6023 17.3844 32.4859 17.3664C30.3629 17.3484 28.2398 17.3664 26.0985 17.3664Z" fill="currentColor"/>
<path d="M26.0254 25.401C23.39 25.401 21.1937 23.4194 21.1205 21.0234C21.1022 20.3388 21.3035 19.7984 22.0539 19.7083C22.8409 19.6182 23.1703 20.1046 23.2984 20.8252C23.573 22.4466 24.5613 23.2572 26.1719 23.2212C27.6726 23.1852 28.6426 22.2844 28.8439 20.6991C28.9355 19.9785 29.3015 19.5642 30.0336 19.6182C30.8206 19.6903 31.0585 20.2668 31.0219 20.9694C30.8755 23.4734 28.6975 25.401 26.0254 25.401Z" fill="currentColor"/>
</svg>
