<?xml version="1.0" encoding="utf-8"?>
<!-- Generator: Adobe Illustrator 22.0.0, SVG Export Plug-In . SVG Version: 6.00 Build 0)  -->
<svg version="1.1" id="Calque_1" xmlns="http://www.w3.org/2000/svg" xmlns:xlink="http://www.w3.org/1999/xlink" x="0px" y="0px"
	 viewBox="0 0 986 986" style="enable-background:new 0 0 986 986;" xml:space="preserve">
<g>
	<path d="M778.9,942c-12.3,0-24.6,0-36.8,0c-19.2-4.6-38.3-9.3-55.9-13.6c-3.6,4.5-7.1,9-10.7,13.6c-3.5,0-7,0-10.5,0
		c-8.6-5.5-9.3-14-8.8-23c0.3-4.9,0.2-9-4.8-12.8c-71.6-54.1-93.9-145.4-55.4-226.3c2.4-5,2-8-2-12c-36.5-36.4-80.3-57.2-131.3-64.3
		c-13.4-1.9-23.9,0-31.6,12c-3,4.6-7.3,8.3-11,12.5c-4.8,5.5-11,7.5-17.3,4.2c-24-12.5-47.7-12.5-71.7-0.2c-6.7,3.4-13.1,1.4-18-4.4
		c-2.3-2.7-4.6-5.3-6.9-7.9c-17.8-19.4-17.8-19.3-43.6-15.7C151.7,619.5,72.2,710.6,72.1,822.6c-0.1,33.3-0.2,66.6,0.1,99.9
		c0.1,8.3-1.8,14.9-8.9,19.5c-6.4,0-12.9,0-19.3,0c0-47.4,0-94.7,0-142.1c0.5-1.9,1.3-3.8,1.5-5.8c10.6-99.4,81-183.4,177-210.1
		c19.3-5.4,39.4-7.8,60-11.7c0-16.6,0.2-34.4-0.2-52.2c0-2.3-2.3-5.1-4.3-6.8c-22.6-18.4-40-40.8-53-66.8
		c-20.2-40.3-28-83.2-26.7-128.1c0.1-3.2-1.1-7.8-3.3-9.4c-16.8-11.7-20.4-30.3-8.4-47.1c6.8-9.5,13.7-18.9,21.1-28
		c4.3-5.3,5.3-10,3.2-16.7c-12.8-41.6-25-83.3-37.4-124.9c-7.2-24.1-2.1-36.8,19.5-48.4c115.8,0,231.5,0,347.3,0
		c21.6,11.7,26.7,24.2,19.5,48.4c-12.3,41.4-24.5,82.8-37.2,124.1c-2.1,6.8-1.8,11.9,3,17.6c7.7,9.2,14.7,18.9,21.6,28.7
		c11.5,16.4,7.6,35.1-9,46.2c-1.7,1.2-3.2,3.9-3.4,6.1c-0.5,5.7-0.2,11.6-0.2,18.1c2.4-0.7,3.8-1,5.1-1.5
		c37.7-15.6,75.4-31.4,113.3-46.6c4.6-1.9,11.2-2.3,15.7-0.5c77.5,31.5,154.9,63.7,232.4,95.3c9.2,3.8,13,8.9,13,18.9
		c-0.3,83.3-0.1,166.6-0.3,249.9c0,9,1.4,16.9,5.9,24.9c5.4,9.6,9.8,20,13.1,30.5c3.9,12.4,6.1,25.3,9,38.1c0,11.7,0,23.4,0,35.1
		c-0.5,1.9-1.3,3.9-1.6,5.8c-9.5,72.9-61.1,132.6-131.9,152.3C798.8,938,788.8,939.8,778.9,942z M759.9,914
		c84.5,0.2,153.6-68.8,154-153.9c0.5-84.4-69-154.5-153.3-154.7c-85.1-0.2-155,68.5-155.3,152.7C604.9,844.6,673.5,913.7,759.9,914z
		 M367,311c-43.8,0-87.6,0.2-131.5-0.2c-7.1-0.1-9.3,2.2-9,9c0.8,13.4,0.2,26.9,1.8,40.2c4.7,41.2,18.7,78.9,45.8,110.8
		c23.5,27.5,52.5,45.6,89.7,46.5c40.5,1,71.9-17.9,96.7-48.2c35.1-42.9,47.3-93.4,46.4-147.9c-0.1-7.7-2-10.5-10.3-10.4
		C453.4,311.3,410.2,311,367,311z M367.2,71.9c-53.2,0-106.3,0-159.5,0c-9.9,0-10.7,1-7.8,10.7c12.2,41.1,24.7,82.1,36.7,123.2
		c1.5,5.3,4,6.6,9.1,6.6c80.6-0.1,161.3-0.1,241.9,0c5.1,0,7.6-1.1,9.2-6.5c12-41.1,24.4-82.2,36.7-123.3c3-9.9,2.2-10.8-8.5-10.8
		C472.4,71.9,419.8,71.9,367.2,71.9z M885.7,416c-12.8,5.3-24.3,10.2-36,14.6c-4.6,1.7-6,4.3-5.9,9.1c0.2,21.6,0,43.2,0.2,64.9
		c0.1,7.6-2.9,12.7-9.7,16.1c-26.9,13.3-53.7,26.9-80.8,40c-11.9,5.8-21.7-0.6-21.8-14.1c-0.2-19-0.1-38-0.1-57c0-3,0-6.1,0-10.4
		c-11.7,4.8-21.9,9-32,13.3c-7.8,3.2-18.7,4.5-22.5,10.4c-4.1,6.2-1.7,16.8-1.7,25.5c-0.1,22.7,0,45.4,0,68.9
		C752.1,563,821.8,573,885.7,627C885.7,556.2,885.7,486.7,885.7,416z M206.4,282.3c107.6,0,213,0,320.4,0
		c-9.9-13.2-18.4-25.2-27.7-36.7c-2.1-2.6-6.5-4.9-9.9-4.9c-81.8-0.3-163.5-0.2-245.3-0.2c-2.2,0-5.5-0.2-6.5,1.1
		C227.2,254.5,217.4,267.8,206.4,282.3z M464.8,507.6c-0.8-0.4-1.5-0.8-2.3-1.2c-3.8,4.4-10.7,8.6-11,13.3
		c-1.3,18-0.5,36.1-0.5,54.8c64,4.6,118.4,29.3,161.8,72.3c10.1-9.1,20-17.6,29.4-26.8c2.7-2.7,5.1-7.1,5.1-10.8
		c0.3-33-0.1-66.1,0.2-99.1c0.1-6.5-2.4-9.1-7.9-11.4c-31.7-12.8-63.2-25.9-94.8-38.8c-11.8-4.8-23.6-9.6-35.4-14.4
		c-4.9,8.5-9.4,16.3-14.2,24.6c2.9,1.3,5.5,2.5,8.2,3.6c38.2,15.3,76.4,30.5,114.6,45.8c13.7,5.5,15.2,7.7,15.2,22.9
		c0,15.2,0.1,30.4,0,45.6c-0.1,14.3-8.9,20.4-22,15.2c-45.3-18-90.5-36.2-135.7-54.2c-7.4-3-11-8.1-10.7-16.2
		C465,524.4,464.8,516,464.8,507.6z M710.6,457.5c-60.6-27.8-119.4-54.8-178.5-81.9c-3.8,14.7-7.5,29-11.2,43.3
		c0.8,0.7,1.3,1.5,2.1,1.8c45,18.5,90,37,135,55.4c2,0.8,4.7,1.1,6.6,0.3C679.5,470.5,694.2,464.3,710.6,457.5z M556.6,355.1
		c1.5,1.1,2.1,1.8,2.8,2.2c60.7,27.8,121.3,55.6,182,83.4c2,0.9,4.8,1.9,6.6,1.3c14.4-5.6,28.5-11.5,43.8-17.8
		c-2.3-1.2-3-1.7-3.8-2.1c-65.2-26-130.5-52-195.8-77.8c-2.6-1-6.3-1-9,0C574.6,347.4,566.1,351.2,556.6,355.1z M422.8,534.3
		c-55,14.9-55,14.9-112.2,0c0,10.3,0.8,20.5-0.2,30.5c-1.3,12.9,2.5,22.7,12,31.6c5.3,4.9,9.3,6.9,15.7,3.6
		c18.4-9.4,36.9-10.4,55.8-0.7c3.5,1.8,10.2,3.4,12,1.6c6.4-6.3,14.8-13.5,16.2-21.5C424.7,565.1,422.8,549.9,422.8,534.3z
		 M625.2,326.9c68,27.1,134.1,53.4,200.3,79.6c2,0.8,4.8,1.4,6.7,0.7c9.7-3.6,19.2-7.7,30.1-12.1c-2.4-1.4-3.3-2-4.3-2.4
		c-63.9-26.3-127.9-52.6-191.9-78.8c-2.2-0.9-5.3-1.4-7.4-0.6C648.2,317.3,637.7,321.8,625.2,326.9z M759.7,524.7
		c1.4,0,2.4,0.3,3.1,0c16.5-8.1,32.9-16.2,49.2-24.5c1.7-0.9,3.5-3.4,3.6-5.1c0.3-16.3,0.2-32.5,0.2-50.3
		c-18.5,7.6-35.9,14.7-53.2,22c-1.4,0.6-2.7,3.1-2.8,4.7C759.7,489.1,759.7,506.9,759.7,524.7z M492.8,499.8
		c0,6.3,0.5,11.6-0.1,16.7c-0.8,6.9,1.7,10.2,8.3,12.7c21.6,8.1,42.8,16.9,64.2,25.4c12.9,5.2,25.8,10.3,39.8,15.9
		c0-6.4-0.5-11.6,0.1-16.7c0.9-7-1.8-10.2-8.4-12.7c-21.6-8.1-42.8-16.9-64.2-25.5C519.7,510.5,506.7,505.3,492.8,499.8z" fill="currentColor"/>
	<path d="M268.6,766.2c0.1,27.2-21.6,49.3-48.6,49.5c-26.9,0.2-49.5-21.9-49.6-48.7c-0.1-27.4,22.2-49.6,49.6-49.5
		C246.7,717.6,268.5,739.5,268.6,766.2z M219.9,787.6c11.6-0.2,20.9-9.8,20.6-21.5c-0.3-11.6-10-20.9-21.6-20.5
		c-11.1,0.3-20.4,9.9-20.3,21.1C198.6,778.1,208.4,787.8,219.9,787.6z" fill="currentColor"/>
	<path d="M745.2,796.4c21.6-21.6,42-42,62.5-62.4c8.3-8.3,16.4-16.6,24.8-24.8c7.1-6.9,14.9-7.4,21-1.6c6.2,5.9,5.9,14.3-1.3,21.6
		c-31.5,31.7-63.1,63.3-94.7,94.9c-8.2,8.2-15.2,8.1-23.5-0.2c-17.7-17.4-35.2-35-52.7-52.6c-7.2-7.3-7.6-15.6-1.3-21.6
		c6-5.7,13.9-5.4,21,1.6C715.4,765.9,729.9,780.8,745.2,796.4z" fill="currentColor"/>
</g>
</svg>
