<svg version="1.1" id="Calque_1" xmlns="http://www.w3.org/2000/svg" xmlns:xlink="http://www.w3.org/1999/xlink" x="0px" y="0px"
     viewBox="0 0 319.1 435.4" style="enable-background:new 0 0 319.1 435.4;" xml:space="preserve">
    <g>
	<path d="M314.8,45.6c0-7.5-2.3-13.7-7.4-19c-7.5-7.8-14.7-15.7-24.9-20.2C193.2,6.4,104,6.6,14.8,6.2C5.7,6.1,4.2,8.6,4.2,17
		c0.3,126.6,0.2,253.2,0.2,379.8c1.9,2.7,2.6,6.2,4.8,8.5c9.8,10.2,17.1,23.8,34.3,23.8c86.1-0.1,172.2-0.2,258.3,0.1
		c9.8,0,13.1-3.5,13.1-13.1C314.7,292.6,314.7,169.1,314.8,45.6z M222,35.4c20.5,20.6,41.3,41.5,62,62.4c-17,0-35.5-0.2-54.1,0.1
		c-6.1,0.1-8.2-2.2-8.1-8.2C222.2,71.2,222,52.6,222,35.4z M299.5,405.2c0,6.7-1.8,8.6-8.6,8.6c-80.5-0.2-161-0.1-241.5-0.2
		c-12.1,0-30.9-21.1-30.9-34c0-58,0-116.1,0-174.1c0-57.1,0.2-114.2-0.2-171.3C18.1,24,19.7,20,31.4,20.1
		c54.3,0.7,108.6,0.6,162.9,0.1c10.4-0.1,14.6,1.7,14,13.4c-1.1,21.5,0.1,43.1-0.5,64.6c-0.3,10.6,4,13.9,14.1,13.7
		c22.9-0.5,45.9,0.1,68.8-0.3c6.6-0.1,8.7,1.6,8.7,8.5C299.2,215.2,299.3,310.2,299.5,405.2z M298,84
		c-20.4-20.8-41.1-41.8-61.7-62.8C288.6,13,306.5,38.9,298,84z" fill="currentColor"/>
        <path d="M159,140c-28,0-56.1,0.1-84.1-0.1c-5.8,0-14.1,1.4-13.8-7.4c0.3-8.6,8.6-6.9,14.3-6.9
		c55.6-0.1,111.2-0.1,166.8-0.1c1.9,0,3.7-0.1,5.6,0.1c4.4,0.4,8.9,1.4,9.1,6.7c0.2,6.2-4.7,7.5-9.6,7.5
		c-13.5,0.2-27.1,0.1-40.6,0.1C190.7,140,174.9,140,159,140z" fill="currentColor"/>
        <path d="M160.3,167.7c27.6,0,55.1-0.1,82.7,0.1c5.8,0,13.9-1.4,13.7,7.5c-0.2,7.7-7.6,6.8-13.1,6.8
		c-56.5,0.1-113.1,0.1-169.6,0c-5.5,0-12.9,0.9-13-6.9c-0.1-8.9,8-7.4,13.8-7.5C103.3,167.7,131.8,167.7,160.3,167.7z" fill="currentColor"/>
        <path d="M160.4,209.9c27.6,0,55.1-0.1,82.7,0.1c5.8,0,13.9-1.3,13.7,7.6c-0.2,7.7-7.6,6.7-13.1,6.7
		c-56.5,0.1-113.1,0.1-169.6,0c-5.5,0-12.9,0.8-13-6.9c-0.1-8.8,8-7.4,13.8-7.4C103.4,209.8,131.9,209.9,160.4,209.9z" fill="currentColor"/>
        <path d="M157.5,266.4c-27.1,0-54.2,0.1-81.3-0.1c-6.1,0-15.2,2.2-15.1-7.5c0.1-8.5,8.6-6.8,14.4-6.8
		c55.6-0.1,111.2-0.1,166.8-0.1c1.4,0,2.8,0,4.2,0c4.8,0.2,10.2,0.7,10.4,6.8c0.2,7.1-5.8,7.4-11.1,7.5c-12.6,0.1-25.2,0.1-37.8,0.1
		C191.1,266.4,174.3,266.4,157.5,266.4z" fill="currentColor"/>
        <path d="M158.7,308.5c-28,0-56.1,0.1-84.1-0.1c-5.8,0-13.9,1.2-13.6-7.7c0.3-7.6,7.7-6.6,13.2-6.6
		c56.5-0.1,113.1-0.1,169.6,0c5.5,0,12.7-0.8,12.9,7c0.2,7.9-7,7.3-12.6,7.3C215.7,308.6,187.2,308.5,158.7,308.5z" fill="currentColor"/>
        <path d="M158.5,336.3c28,0,56.1-0.1,84.1,0.1c5.8,0,14.1-1.6,14.1,7.1c0.1,8.7-8.2,7.2-14,7.2
		c-56.1,0.1-112.1,0.1-168.2,0c-5.8,0-13.9,1.2-13.4-7.8c0.4-7.5,7.9-6.5,13.3-6.5C102.4,336.2,130.4,336.3,158.5,336.3z" fill="currentColor"/>
        <path d="M159.2,55.6c-15-0.2-27.8,12-28.4,27c-0.6,15.5,12.2,28.9,27.7,29.1c15,0.2,27.8-12,28.4-27
		C187.6,69.2,174.8,55.8,159.2,55.6z M159.9,97.4c-8.3,0.5-14.4-4-14.9-13c-0.5-9,4.9-13.4,13.7-14.8c8,1,13.9,5.1,14,13.9
		C172.8,91.6,167.8,96.9,159.9,97.4z" fill="currentColor"/>
	<path d="M269.8,425.3c-7.4,0-14.8,0-22.1,0c-3.8,0-5.1-1.4-5-5.2c0.4-13.5,11.8-25.2,25.5-26c14.1-0.9,26.9,9.1,28.9,22.7
		c0.2,1.2,0.4,2.5,0.4,3.7c0.1,3.2-1.4,4.8-4.6,4.8C285.1,425.3,277.4,425.3,269.8,425.3z" fill="currentColor"/>
        <path d="M269.9,386c-8.6,0-15.6-7.1-15.6-15.8c0.1-8.5,7.1-15.5,15.6-15.5c8.6,0,15.7,7.1,15.7,15.7C285.6,379,278.6,386,269.9,386
		z" fill="currentColor"/>
</g>
</svg>
