<?xml version="1.0" encoding="utf-8"?>
<!-- Generator: Adobe Illustrator 22.0.0, SVG Export Plug-In . SVG Version: 6.00 Build 0)  -->
<svg version="1.1" id="Calque_1" xmlns="http://www.w3.org/2000/svg" xmlns:xlink="http://www.w3.org/1999/xlink" x="0px" y="0px"
	 viewBox="0 0 487 471" style="enable-background:new 0 0 487 471;" xml:space="preserve">
<g>
	<path d="M475.5,374.4c-1.3,5.6-2.3,11.4-3.9,16.9c-13.5,48.2-58.8,79.8-108.7,75.9c-48.3-3.8-88.5-42.1-94.5-90.1
		c-7-56,29.8-106.1,85.6-116.3c54.3-9.9,109.3,27.8,119.4,82c0.6,3.2,1.3,6.5,2,9.7C475.5,359.8,475.5,367.1,475.5,374.4z
		 M363.5,307.6c0,10.2-0.1,19.9,0,29.5c0,2.6-0.6,4-3.1,5.4c-11.2,6-15.7,18.3-11.1,29.7c4.6,11.5,16.7,17.6,28.9,14
		c2.9-0.9,4.5-0.4,6.5,1.6c6.8,7.1,13.7,14,20.6,20.9c4-3.9,7.6-7.5,11.2-11c-0.3-0.5-0.3-0.8-0.6-1.1c-6.5-6.5-12.8-13.1-19.4-19.4
		c-2.4-2.3-3.2-4.2-2.1-7.7c3.1-10.3-1.1-20.9-10.4-26.1c-3.8-2.1-4.7-4.6-4.6-8.6c0.3-9.1,0.1-18.2,0.1-27.3
		C373.9,307.6,368.9,307.6,363.5,307.6z M363.5,283c-0.2,4.1,3.4,8.1,7.6,8.3c4,0.2,8.1-3.4,8.3-7.6c0.2-4.1-3.4-8.1-7.6-8.3
		C367.8,275.2,363.8,278.9,363.5,283z M315.3,315.4c4.1,0.1,8-3.6,8.2-7.8c0.1-4.1-3.6-8-7.8-8.2c-4.1-0.1-8,3.6-8.2,7.8
		C307.4,311.3,311.2,315.3,315.3,315.4z M435.4,307.7c0.1-4.1-3.6-8-7.7-8.2c-4.1-0.2-8,3.6-8.2,7.7c-0.1,4.1,3.6,8.1,7.7,8.2
		C431.3,315.5,435.3,311.8,435.4,307.7z M299.4,363.5c0-4.1-3.8-8-7.9-8c-4.1,0-8,3.8-8,7.9c0,4.1,3.8,8,7.9,8
		C295.6,371.4,299.4,367.6,299.4,363.5z M459.4,363.4c0-4.1-3.8-8-8-7.9c-4.1,0-7.9,3.8-7.9,8c0,4.1,3.8,8,8,7.9
		C455.6,371.4,459.5,367.5,459.4,363.4z M323.4,419.7c0.2-4.1-3.6-8-7.7-8.2c-4.1-0.2-8,3.6-8.2,7.7c-0.2,4.1,3.6,8.1,7.7,8.2
		C319.3,427.5,323.3,423.8,323.4,419.7z M427.6,411.5c-4.1-0.1-8,3.7-8.1,7.8c-0.1,4.1,3.7,8,7.8,8.1c4.1,0.1,8-3.7,8.1-7.9
		C435.5,415.4,431.7,411.5,427.6,411.5z M379.4,443.6c0.1-4.1-3.7-8-7.8-8.1c-4.1-0.1-8,3.7-8.1,7.8c-0.1,4.1,3.7,8,7.8,8.1
		C375.4,451.5,379.4,447.7,379.4,443.6z" fill="currentColor"/>
	<path d="M454.5,3.4c3.4,2.5,5.1,5.5,5.1,10c-0.1,87.8-0.1,175.6-0.1,263.4c0,1.3,0,2.6,0,4.6c-5.4-4.7-10.4-8.7-15-13.2
		c-1-1-1-3.4-1-5.1c0-57.8,0-115.6,0-173.4c0-2,0-3.9,0-6.3c-114.8,0-229.2,0-344.3,0c7.5-27.1,14.9-53.6,22.2-80.1
		C232.5,3.4,343.5,3.4,454.5,3.4z M131.7,59.1c101.5,0,202.5,0,303.4,0c0-10.8,0-21.1,0-31.4c-101.3,0-202.3,0-303.4,0
		C131.7,38.2,131.7,48.5,131.7,59.1z" fill="currentColor"/>
	<path d="M253.7,339.3c-0.6,5.5-1.1,10.5-1.8,16.1c-1.9,0-3.6,0-5.4,0c-74.8,0-149.6,0-224.5,0c-8,0-10.6-2.4-10.6-10.3
		c0-71,0-142,0-213c0-11,6-19.7,15.8-22.7c0,76.5,0,152.9,0,229.8C103,339.3,178.2,339.3,253.7,339.3z" fill="currentColor"/>
	<path d="M123.7,323.1c0-21.3,0-42.2,0-63.3c21.1,0,42,0,63.3,0c0,20.9,0,42,0,63.3C166.2,323.1,145.2,323.1,123.7,323.1z" fill="currentColor"/>
	<path d="M107.1,323.2c-21.3,0-42.2,0-63.3,0c0-21.1,0-42,0-63.3c20.9,0,42,0,63.3,0C107.1,280.7,107.1,301.8,107.1,323.2z" fill="currentColor"/>
	<path d="M283.8,179.7c21.3,0,42.2,0,63.4,0c0,21.2,0,42.1,0,63.3c-21,0-42,0-63.4,0C283.8,222.1,283.8,201,283.8,179.7z" fill="currentColor"/>
	<path d="M203.9,179.7c21.2,0,42.2,0,63.3,0c0,21.1,0,42,0,63.3c-20.9,0-41.9,0-63.3,0C203.9,222.1,203.9,201.1,203.9,179.7z" fill="currentColor"/>
	<path d="M123.8,243.1c0-21.3,0-42.2,0-63.4c21.2,0,42.1,0,63.3,0c0,21,0,42,0,63.4C166.1,243.1,145.1,243.1,123.8,243.1z" fill="currentColor"/>
	<path d="M107.1,243.2c-21.2,0-42.1,0-63.3,0c0-21.1,0-42,0-63.3c20.9,0,41.9,0,63.3,0C107.1,200.7,107.1,221.7,107.1,243.2z" fill="currentColor"/>
	<path d="M363.9,99.7c21.2,0,42.1,0,63.3,0c0,21.1,0,42,0,63.3c-20.9,0-41.9,0-63.3,0C363.9,142.1,363.9,121.1,363.9,99.7z" fill="currentColor"/>
	<path d="M283.6,163c0-21.2,0-42,0-63.2c21.1,0,42.2,0,63.5,0c0,20.9,0,42,0,63.2C325.9,163,304.8,163,283.6,163z" fill="currentColor"/>
	<path d="M267.3,99.7c0,21.2,0,42.1,0,63.3c-21.1,0-42.1,0-63.4,0c0-21,0-42.1,0-63.3C224.9,99.7,245.8,99.7,267.3,99.7z" fill="currentColor"/>
	<path d="M363.8,179.6c21.2,0,42.1,0,63.4,0c0,25.7,0,51.3,0,77.5c-19.9-10-40.9-14.7-63.4-13.5
		C363.8,222.4,363.8,201.3,363.8,179.6z M387.3,217c-3.5-4.3-6.4-7.9-9.4-11.6c-4.4,4.5-7.9,8-11.1,11.2
		c7.1,7.1,14.1,14.1,20.8,20.8c11.9-11.9,24.3-24.2,36.3-36.2c-3.1-3.4-6.5-7.1-10.2-11.1C405.1,198.8,396.7,207.4,387.3,217z" fill="currentColor"/>
	<path d="M187.1,163.2c-21.2,0-42.1,0-63.3,0c0-21.1,0-42,0-63.3c20.9,0,41.9,0,63.3,0C187.1,120.7,187.1,141.7,187.1,163.2z
		 M126.7,136.6c7.1,7.1,14.1,14.1,20.9,20.8c12-12,24.3-24.3,36.2-36.2c-3.2-3.4-6.6-7.1-10.6-11.5c-8.7,8.8-17.2,17.3-26.5,26.7
		c-3-3.7-5.9-7.3-8.8-11C133.4,129.9,129.9,133.4,126.7,136.6z" fill="currentColor"/>
	<path d="M267.5,259.8c0,14.4,0.4,28.4-0.2,42.3c-0.2,4-3.6,7.8-4.7,11.9c-2,7.9-6.4,10.1-14.6,9.7c-14.6-0.9-29.2-0.2-44.1-0.2
		c0-21.4,0-42.3,0-63.6C224.8,259.8,245.8,259.8,267.5,259.8z M217.8,286.3c-4.1,3.9-7.7,7.4-10.6,10.2c7.1,7.1,14.1,14.1,20.3,20.4
		c11.9-11.9,24.2-24.1,36.3-36.2c-3-3.2-6.4-6.8-10.9-11.6c-8.6,9.1-16.9,18-26,27.6C223.5,292.8,220.5,289.4,217.8,286.3z" fill="currentColor"/>
	<path d="M59.5,147.3c7.8,0,14.7,0,22,0c4.4-15.9,8.8-31.7,13.3-47.6c4.1,0,8,0,12.3,0c0,21.1,0,42.2,0,63.5c-21,0-41.9,0-63.2,0
		c0-17.8,0-35.6,0-53.9C62.1,116.6,59.5,132.4,59.5,147.3z" fill="currentColor"/>
	<path d="M98.6,26.6c-8.4,30.1-16.7,60.2-25.4,91.3c-7.2-16.3-19.1-24.6-36.4-26.6c20.7-22.2,40.8-43.7,60.8-65.2
		C98,26.3,98.3,26.5,98.6,26.6z" fill="currentColor"/>
	<path d="M283.8,280.7c0-6.8,0-13.7,0-20.9c8.8,0,17.6,0,26.2,0C301.3,266.7,292.6,273.7,283.8,280.7z" fill="currentColor"/>
</g>
</svg>
