<svg width="38" height="33" viewBox="0 0 38 33" fill="none" xmlns="http://www.w3.org/2000/svg">
<path d="M14.4871 17C12.1121 19.375 9.73711 21.75 7.59961 23.8875C7.59961 23.8875 7.36211 24.125 7.12461 23.8875C4.98711 21.75 2.61211 19.6125 0.474609 17.2375V17C1.89961 17 3.32461 17 4.74961 17C5.46211 17 5.69961 17 5.69961 16.2875C5.69961 9.39998 10.6871 2.51248 18.9996 1.08748C27.7871 -0.337516 36.0996 5.83748 37.5246 14.625C38.7121 22.9375 33.7246 30.5375 25.4121 32.4375C19.9496 33.8625 15.1996 32.4375 10.9246 28.875C10.4496 28.4 10.4496 28.1625 10.9246 27.6875C11.6371 27.2125 12.1121 26.2625 12.8246 26.025C13.5371 25.7875 14.0121 26.975 14.7246 27.45C22.3246 32.4375 32.5371 28.1625 33.9621 19.1375C35.1496 11.5375 29.4496 4.88748 21.8496 4.64998C16.1496 4.64998 9.73711 8.92498 9.26211 16.2875C9.02461 17 9.26211 17 9.97461 17C11.3996 17 12.8246 17 14.4871 17Z" fill="#2BA3A3"/>
<path d="M19.9492 14.3875C19.9492 13.2 19.9492 11.775 19.9492 10.5875C19.9492 10.1125 19.9492 9.875 20.6617 9.875C22.5617 9.875 22.5617 9.875 22.5617 11.775C22.5617 13.4375 22.5617 15.1 22.5617 16.7625C22.5617 17.2375 22.7992 17.7125 23.2742 17.95C24.9367 18.9 26.5992 19.85 28.2617 20.8C28.7367 21.0375 28.7367 21.275 28.4992 21.75C27.5492 23.175 27.5492 23.4125 26.1242 22.4625C24.2242 21.275 22.5617 20.325 20.6617 19.1375C19.9492 18.9 19.9492 18.6625 19.9492 18.1875C19.9492 16.7625 19.9492 15.575 19.9492 14.3875Z" fill="#2BA3A3"/>
</svg>
