<?xml version="1.0" encoding="utf-8"?>
<!-- Generator: Adobe Illustrator 22.0.0, SVG Export Plug-In . SVG Version: 6.00 Build 0)  -->
<svg version="1.1" id="Calque_1" xmlns="http://www.w3.org/2000/svg" xmlns:xlink="http://www.w3.org/1999/xlink" x="0px" y="0px"
	 viewBox="0 0 866 600" style="enable-background:new 0 0 866 600;" xml:space="preserve">
<g>
	<path d="M11,405.5c0-130.7,0-261.3,0-392.3c181.9,0,363.8,0,545.6,0c10.1,4.3,12.2,12.4,12.2,22.6c-0.2,120-0.1,240-0.1,360.1
		c0,2.9,0,5.9,0,9.7C382.2,405.5,196.6,405.5,11,405.5z" fill="currentColor"/>
	<path d="M855,486.3c-5.3,7.7-12.5,10.3-21.8,10c-18.1-0.6-36.1-0.2-52-0.2c-7-15.2-11.8-30-19.9-42.6c-20.5-31.9-51-47.1-88.7-47.9
		c-21.4-0.4-42.8-0.1-64.3-0.1c-3,0-6,0-10,0c0-3.6,0-6.5,0-9.4c0-79.1,0.1-158.2-0.2-237.2c0-7.9,2.1-10.3,10-10
		c16.7,0.6,33.3,0.2,50.7,0.2c0,4.3,0,7.6,0,10.8c0,45.3-0.1,90.6,0,135.9c0.1,25,12.5,41.9,34.6,47.9c2.1,0.6,4.3,1,6.4,1
		c51.6,0,103.2,0,154.8-0.1C855,391.8,855,439,855,486.3z" fill="currentColor"/>
	<path d="M855,314.8c-49.7,0.1-99.4,0.2-149,0.1c-10.6,0-16.8-5.4-16.9-16.1c-0.3-49.1,0-98.3,0-147.4c0-0.5,0.4-0.9,0.8-1.6
		c16.3,0,32.6-0.4,48.9,0.3c3.7,0.2,7.9,3.6,10.7,6.7c33.3,37.2,66.5,74.6,99.6,111.9c1.9,2.2,3.9,4.3,5.8,6.5
		C855,288.5,855,301.6,855,314.8z" fill="currentColor"/>
	<path d="M668.7,586.8c-9.6-2.9-19.8-4.6-28.7-9.1c-30.2-15.3-44.8-45.1-40.3-79.4c3.7-28.1,27.8-53.6,57.7-60.9
		c34.5-8.5,73.8,12.1,86.6,45.3c13.7,35.4,0,76-32.4,93.2c-9.7,5.1-20.9,7.4-31.4,11C676.4,586.8,672.6,586.8,668.7,586.8z
		 M674.2,555.8c24.8-0.1,45-20.3,44.8-44.9c-0.2-25-20.1-44.7-45.1-44.6c-24.9,0.1-45,20.1-44.9,44.9
		C629.2,535.9,649.3,555.8,674.2,555.8z" fill="currentColor"/>
	<path d="M185.7,586.8c-10-3.3-20.7-5.4-30-10.2c-27.2-14-42.8-45.2-38.6-74.9c4.6-32.3,27.7-57.8,58.7-64.6
		c40.4-8.9,81.5,17.3,89.8,58.7c8.1,41-16.4,78.7-58,88.9c-3.4,0.8-6.9,1.4-10.3,2C193.4,586.8,189.6,586.8,185.7,586.8z
		 M191.8,555.8c24.8,0,45-20.1,45.1-44.8c0.1-24.7-20.1-44.7-45-44.8c-24.9,0-44.9,19.9-44.9,44.8
		C146.9,535.9,166.9,555.8,191.8,555.8z" fill="currentColor"/>
	<path d="M478,495.8c-35.4,0-69.9,0-105,0c0-19.8,0-39.4,0-59.7c34.8,0,69.6,0,105,0C478,455.8,478,475.4,478,495.8z" fill="currentColor"/>
	<path d="M600.5,436c-17.1,17.6-26.6,37.3-30.3,59.7c-20.7,0-40.6,0-61.2,0c0-19.9,0-39.5,0-59.7C538.8,436,568.7,436,600.5,436z" fill="currentColor"/>
	<path d="M341.9,495.7c-15.3,0-30.3,0-44.8,0c-3.8-10.9-6.6-22-11.5-31.9c-4.8-9.7-11.9-18.3-18.3-27.7c24.5,0,49.3,0,74.6,0
		C341.9,455.5,341.9,475.1,341.9,495.7z" fill="currentColor"/>
	<path d="M41.1,435.6c25.8,0,50.4,0,76.9,0c-16.1,17.8-26.7,37.1-30.1,60.2c-11.5,0-22.5,0.5-33.3-0.2c-7.7-0.5-12.9-5.9-13.3-13.5
		C40.7,466.9,41.1,451.6,41.1,435.6z" fill="currentColor"/>
	<path d="M674.1,525.9c-8.4,0-15.2-6.9-15.1-15.1c0.1-7.9,6.7-14.5,14.7-14.6c8.5-0.2,15.2,6.3,15.3,14.7
		C689.2,519.2,682.5,525.9,674.1,525.9z" fill="currentColor"/>
	<path d="M207,510.9c0.1,8.2-6.8,15-15.2,15c-8.4,0-15-6.8-14.8-15.2c0.2-8.1,6.6-14.5,14.6-14.6C199.9,496,206.9,502.7,207,510.9z"
		/>
</g>
</svg>
