<?xml version="1.0" encoding="utf-8"?>
<!-- Generator: Adobe Illustrator 22.0.0, SVG Export Plug-In . SVG Version: 6.00 Build 0)  -->
<svg version="1.1" id="Calque_1" xmlns="http://www.w3.org/2000/svg" xmlns:xlink="http://www.w3.org/1999/xlink" x="0px" y="0px"
	 viewBox="0 0 1080 1080" style="enable-background:new 0 0 1080 1080;" xml:space="preserve">
<g>
	<path d="M1050.6,731.3c-6.6,18.3-17.2,32.8-37.3,37.5c-5.3,1.2-10.8,1.5-16.3,1.5c-125.9,0.1-251.7,0.1-377.6-0.1
		c-7,0-11.9,1.8-16.8,7.1c-56.4,61.6-126,98-209.3,106.3c-169.3,16.7-320-93-356.6-258.9C-1.3,451.8,110.6,274.2,284.3,236
		c124.5-27.3,231.5,7.3,319.2,100.1c4.5,4.7,8.8,6.4,15.1,6.4c123.8-0.2,247.6,0.4,371.4-0.5c30.4-0.2,50.7,10.5,60.7,39.4
		C1050.6,498.1,1050.6,614.7,1050.6,731.3z M721.4,375.4c-39.4,0-77.8-0.3-116.1,0.2c-10.4,0.1-15.7,7.9-15.7,20.3
		c0,107-0.1,213.9,0,320.9c0,14.5,6.2,20.7,20.8,20.7c128.9,0.1,257.8,0.1,386.7,0c14.3,0,20.5-6.4,20.5-20.9
		c0.1-106.6,0.1-213.3,0-319.9c0-15.3-6-21.3-21.1-21.4c-16.5-0.1-32.9,0-49.4,0c-20.1,0-40.3,0-61.5,0c0,33.4,0,65.7,0,98
		c-55.4,0-109.7,0-164.4,0C721.4,440.6,721.4,408.7,721.4,375.4z M445.9,704.2c4.4-43.4,8.9-86.8,13.3-130.8
		c-67.7,0-132.7,0-198.3,0c1.3,44.4,4.4,87.8,13.9,130.8C331.5,704.2,387.3,704.2,445.9,704.2z M259.1,539.4c67.6,0,132.5,0,200.2,0
		c-4.5-44.1-9-87.5-13.4-130.8c-58.7,0-114.5,0-173.3,0C268.1,451.9,263.7,495.2,259.1,539.4z M65.3,573.3c-0.3,1.4-0.8,2.4-0.7,3.3
		c2.2,44.2,14.9,85.3,36.6,123.6c1.4,2.5,6.6,4.1,10.1,4.2c28.4,0.3,56.9,0.2,85.3,0.2c14.3,0,28.7,0,42.3,0
		c-4.5-44.3-8.8-87.6-13.2-131.3C172.7,573.3,119.1,573.3,65.3,573.3z M238.8,408.8c0.2,0.1-0.4-0.4-1.1-0.4
		c-43.2-0.1-86.3-0.3-129.5,0.1c-2.8,0-6.8,3.1-8.1,5.7c-6.5,12.8-13.1,25.6-18.1,39c-10.3,27.6-17,56-17.6,86.1
		c54.7,0,108.6,0,161.2,0C230.1,495.3,234.5,452.2,238.8,408.8z M435.7,738c-51.8,0-102,0-152.3,0c4.9,28.5,24.1,72.1,40.7,92.6
		c23.2,28.8,47.2,29,70-0.1C415.5,803.4,426.3,771.4,435.7,738z M435.8,375c-2.4-8.1-4.3-15.7-6.9-23c-9.8-27.8-20.3-55.4-41.4-77.1
		c-19.2-19.7-37.8-19.9-56.8,0.2c-26.4,28-37.5,63.5-48.2,99.9C334.2,375,384.5,375,435.8,375z M479.6,408.6
		c4.5,44.3,8.8,87.6,13.1,130.6c21.1,0,42.4,0,63.3,0c0-44.1,0-87.4,0-130.6C529.9,408.6,504.6,408.6,479.6,408.6z M479.6,703.9
		c25.1,0,50.9,0,76.5,0c0-44,0-87.2,0-130.3c-22.1,0-43.4,0-63.4,0C488.3,617.5,483.9,660.6,479.6,703.9z M292.9,267.9
		c-69,17.3-123.3,52.3-167.1,107c42.1,0,82,0,122.3,0C258,338,269.9,302.2,292.9,267.9z M292.9,844.8
		c-23.1-34.2-34.8-70.5-44.8-106.4c-41.1,0-80.9,0-122,0C169.8,792.5,223.9,827.5,292.9,844.8z M573.9,352.6
		c-40.4-42.1-88.9-70.6-146-84.2c8.6,17.9,17.7,34.7,24.9,52.4c7.2,17.6,12.4,36,18.6,54.6c27.7,0,55.4,0.1,83.2-0.2
		c2.2,0,5.1-1.7,6.4-3.5C565.4,365.8,569.3,359.4,573.9,352.6z M425.6,845c59.7-14.5,108.3-42.9,148.4-85c-4.5-6.4-7.9-12-12.1-16.9
		c-2.3-2.6-6.1-5.4-9.2-5.4c-25-0.4-50-0.1-75-0.4c-5.4-0.1-8,1.5-9.3,6.8C459.5,779.1,446.9,812.5,425.6,845z M852.6,376
		c-33.1,0-65.4,0-97.6,0c0,22.1,0,43.5,0,64.7c32.9,0,65,0,97.6,0C852.6,419,852.6,397.9,852.6,376z" fill="currentColor"/>
	<path d="M822.2,35.8c3.5,2,6.9,4.3,10.5,6.1c64.9,32.5,129.7,64.9,194.6,97.3c3,1.5,5.9,3.2,10.7,5.9
		c-73.1,36.6-144.7,72.4-217.7,108.9c0-15.1,0-28.6,0-43.2c-148.5,0-296.1,0-444.1,0c0-11.3,0-21.4,0-32.2c158.7,0,317.2,0,476.7,0
		c0,6.8,0,13.5,0,21.9c37.4-18.7,73.2-36.6,111.2-55.6c-38-19-73.8-36.9-110.8-55.4c0,8.1,0,14.5,0,21.7c-115.2,0-229.9,0-345.2,0
		c0-10.1,0-20.2,0-31.5c103.3,0,207,0,312.1,0c0-15.3,0-29.6,0-43.8C820.8,35.8,821.5,35.8,822.2,35.8z" fill="currentColor"/>
	<path d="M1050.6,902.1c-158.7,0-317.4,0-477.1,0c0-7.4,0-14.1,0-22.6c-37.4,18.7-73.3,36.6-111.1,55.5
		c37.7,18.8,73.3,36.7,110.3,55.2c0-7.8,0-14.4,0-21.6c115.7,0,230.4,0,345.6,0c0,10.4,0,20.6,0,31.8c-103.7,0-207.3,0-311.9,0
		c0,14.7,0,28.2,0,43.8C533.3,1007.7,461.7,971.8,388,935c73.5-36.8,145-72.5,217.7-108.9c0,14.7,0,28.2,0,43c149,0,296.9,0,444.9,0
		C1050.6,880.1,1050.6,891.1,1050.6,902.1z" fill="currentColor"/>
	<path d="M1050.6,1000.8c-10.5,0-21,0-32.2,0c0-10.9,0-21.2,0-32.9c10.7,0,21.4,0,32.2,0C1050.6,978.9,1050.6,989.9,1050.6,1000.8z"
		 fill="currentColor"/>
	<path d="M442.1,79.5c10.6,0,20.7,0,31.6,0c0,10.4,0,20.7,0,31.7c-10.3,0-20.7,0-31.6,0C442.1,100.9,442.1,90.8,442.1,79.5z" fill="currentColor"/>
	<path d="M408,111.4c-10.5,0-20.6,0-31.5,0c0-10.2,0-20.6,0-31.6c10.2,0,20.5,0,31.5,0C408,90.2,408,100.5,408,111.4z" fill="currentColor"/>
	<path d="M952.1,999.9c0-10.7,0-20.6,0-31.2c10.5,0,20.9,0,31.9,0c0,10.2,0,20.5,0,31.2C973.3,999.9,962.8,999.9,952.1,999.9z" fill="currentColor"/>
	<path d="M820.6,637.9c0-10.7,0-20.9,0-31.6c54.7,0,108.9,0,163.6,0c0,10.5,0,20.7,0,31.6C930,637.9,875.8,637.9,820.6,637.9z" fill="currentColor"/>
	<path d="M852.5,704c-10.7,0-20.8,0-31.6,0c0-10.4,0-20.8,0-31.8c10.4,0,20.7,0,31.6,0C852.5,682.7,852.5,692.8,852.5,704z" fill="currentColor"/>
	<path d="M886.6,672.2c10.5,0,20.6,0,31.5,0c0,10.2,0,20.6,0,31.6c-10.2,0-20.5,0-31.5,0C886.6,693.4,886.6,683,886.6,672.2z" fill="currentColor"/>
	<path d="M952.4,672.1c10.6,0,20.7,0,31.6,0c0,10.4,0,20.7,0,31.7c-10.3,0-20.7,0-31.6,0C952.4,693.5,952.4,683.4,952.4,672.1z" fill="currentColor"/>
	<path d="M391.6,638.2c-10.6,0-20.7,0-31.6,0c0-10.4,0-20.7,0-31.7c10.3,0,20.7,0,31.6,0C391.6,616.8,391.6,626.9,391.6,638.2z" fill="currentColor"/>
	<path d="M294.1,606c10.8,0,20.6,0,31.3,0c0,10.4,0,20.8,0,31.9c-10,0-20.3,0-31.3,0C294.1,627.6,294.1,617.3,294.1,606z" fill="currentColor"/>
	<path d="M424.6,474.7c0,10.6,0,20.7,0,31.6c-10.4,0-20.7,0-31.7,0c0-10.3,0-20.7,0-31.6C403.2,474.7,413.3,474.7,424.6,474.7z" fill="currentColor"/>
	<path d="M326.7,506.1c0-10.6,0-20.6,0-31.4c10.7,0,21,0,31.9,0c0,10.4,0,20.5,0,31.4C348.5,506.1,338.2,506.1,326.7,506.1z" fill="currentColor"/>
</g>
</svg>
