<?xml version="1.0" encoding="utf-8"?>
<!-- Generator: Adobe Illustrator 22.0.0, SVG Export Plug-In . SVG Version: 6.00 Build 0)  -->
<svg version="1.1" id="Calque_1" xmlns="http://www.w3.org/2000/svg" xmlns:xlink="http://www.w3.org/1999/xlink" x="0px" y="0px"
	 viewBox="0 0 866 836" style="enable-background:new 0 0 866 836;" xml:space="preserve">
<g>
	<path d="M776.7,604c4.7,0,8.9-0.1,13.1,0c8.8,0.2,13.5,4.8,13.5,13.5c0,62.6,0,125.2,0,187.8c0,9.1-4.6,13.6-13.8,13.6
		c-228.5,0-457.1,0-685.6,0c-10,0-14.2-4.7-14.2-15.6c0-200.3,0-400.6,0-600.9c0-2.4,0-4.7,0-7.7c-8.4,0-16.1,0-23.9,0
		c-9.5-0.1-14-4.6-14-14c0-23.6,0-47.2,0-70.8c0-7.8,3.3-11.9,11.1-13.6C132.6,81.2,202.4,66,272.2,50.9
		c51.8-11.3,103.6-22.8,155.6-33.4c7.5-1.5,16.1,0.8,23.9,2.5C543,39.7,634.1,59.7,725.3,79.5c25.9,5.6,51.9,11.2,77.8,16.9
		c8.1,1.8,11.2,5.8,11.2,14.1c0,23.4,0,46.8,0,70.2c0,9.5-4.5,14-13.9,14.1c-7.8,0.1-15.5,0-23.6,0
		C776.7,331.3,776.7,467.3,776.7,604z M201.5,793.9c42.7,0,85.1,0,127.8,0c0-2.7,0-4.9,0-7.1c0-55.7,0-111.5,0-167.2
		c0-11,4.5-15.5,15.5-15.5c28.2,0,56.5,0,84.7,0c2.2,0,4.3,0,6.7,0c0.1-1.7,0.3-2.8,0.3-3.9c0.1-57,0.2-114.1,0.2-171.1
		c0-10.4,4.2-15.1,14.6-15.1c73,0,146,0,219,0c11.7,0,15.7,4,15.7,15.7c0,55.7,0,111.5,0,167.2c0,2.2,0,4.3,0,6.7
		c22.1,0,43.6,0,65,0c0-136.4,0-272.5,0-408.5c-212.4,0-424.3,0-636.5,0c0,199.8,0,399.2,0,598.8c20.7,0,41,0,61.9,0
		c0-2.7,0-5.1,0-7.5c0-110,0-220,0-330c0-12.4,4-16.4,16.3-16.4c33.2,0,66.5,0,99.7,0c32.3,0,64.6,0.1,96.9,0.1
		c5.7,0,10.2,1.9,12.6,7.4c3.9,9.3-2.2,17.3-13.3,17.3c-60,0-120,0-180,0c-2.3,0-4.7,0-7.1,0C201.5,575,201.5,684.4,201.5,793.9z
		 M789.7,170c0-15.7-0.1-30.9,0.1-46c0.1-4.1-1.1-5.6-5.3-6.5C670.6,92.9,556.8,68.1,442.9,43.4c-5.1-1.1-10.8-1.8-15.8-0.7
		c-50.3,10.6-100.4,21.7-150.7,32.6c-65.3,14.2-130.5,28.4-195.8,42.4c-3.5,0.8-4.5,2.2-4.4,5.6c0.2,9.3,0.1,18.6,0.1,27.9
		c0,6.2,0,12.5,0,18.9C314.3,170,551.5,170,789.7,170z M354.3,629.1c0,55.2,0,109.9,0,165c66.6,0,132.8,0,199.4,0
		c0-55.1,0-110,0-165.3c-17.2,0-33.9,0.2-50.5-0.1c-5.4-0.1-6.4,1.8-6.4,6.7c0.2,23,0.2,46.1,0.1,69.1c0,10.9-4.4,15.2-15.2,15.2
		c-18.2,0-36.4,0-54.6,0c-11.7,0-16.1-4.5-16.1-16.2c0-22.9,0-45.7,0-68.6c0-1.8,0-3.6,0-5.8C391.8,629.1,373.3,629.1,354.3,629.1z
		 M604.5,439c0,2.1,0,3.8,0,5.4c0,23.4,0,46.8,0,70.2c0,10.1-4.5,14.6-14.6,14.6c-18.8,0.1-37.5,0-56.3,0
		c-10.7,0-14.9-4.2-14.9-14.8c0-23,0-46.1,0-69.1c0-2,0-4,0-6.4c-19.3,0-37.9,0-56.8,0c0,55.1,0,109.9,0,164.7
		c66.7,0,132.9,0,199.3,0c0-55,0-109.7,0-164.7C642.3,439,623.8,439,604.5,439z M579.2,793.9c66.8,0,133,0,199.2,0
		c0-55.2,0-109.9,0-164.8c-19,0-37.6,0-56.7,0c0,2.5,0,4.5,0,6.5c0,22.9,0,45.7,0,68.6c0,11-4.5,15.4-15.6,15.4
		c-18.4,0-36.8,0-55.2,0c-10.4,0-15-4.5-15-14.9c0-23.2,0-46.4,0-69.7c0-2-0.2-3.9-0.3-6c-19.1,0-37.6,0-56.4,0
		C579.2,684.1,579.2,738.8,579.2,793.9z M471.9,694.9c0-22.4,0-43.9,0-65.8c-12,0-23.7,0-35.3,0c-0.3,0.7-0.6,1-0.6,1.3
		c-0.1,20.4-0.2,40.8-0.1,61.3c0,1.1,1.8,3.1,2.7,3.1C449.5,695,460.4,694.9,471.9,694.9z M660.8,695c10.7,0,21-0.2,31.3,0.1
		c4,0.1,5-1.4,4.9-5.2c-0.2-18.9-0.1-37.8-0.1-56.8c0-1.2-0.3-2.5-0.4-4c-12.1,0-23.9,0-35.8,0C660.8,651.1,660.8,672.7,660.8,695z
		 M579.5,504.4c0-22.1,0-43.8,0-65.4c-12.1,0-23.9,0-35.8,0c0,22,0,43.6,0,65.4C555.7,504.4,567.2,504.4,579.5,504.4z" fill="currentColor"/>
	<path d="M272.6,371.9c-27.1,0-54.2,0-81.3,0c-10.1,0-14.7-4.5-14.7-14.5c0-34.5,0-69.1,0-103.6c0-9.3,4.7-14.2,13.9-14.2
		c54.8-0.1,109.5-0.1,164.3,0c9.2,0,13.8,4.6,13.8,13.7c0.1,35.1,0,70.2,0,105.3c0,8.7-4.7,13.3-13.5,13.3
		C327.6,371.9,300.1,371.9,272.6,371.9z M343.7,346.9c0-27.5,0-54.7,0-82.1c-47.5,0-94.8,0-142,0c0,27.7,0,54.9,0,82.1
		C249.2,346.9,296.3,346.9,343.7,346.9z" fill="currentColor"/>
	<path d="M593.6,371.9c-27.1,0-54.2,0-81.3,0c-10.6,0-14.9-4.2-14.9-14.8c0-34.3-0.1-68.7,0-103c0-10.1,4.5-14.5,14.7-14.5
		c54,0,108.1,0,162.1,0c10.8,0,15.3,4.5,15.3,15.1c0,33.8,0,67.6,0,101.4c0,11.9-4.1,15.9-16.2,15.9
		C646.7,371.9,620.1,371.9,593.6,371.9z M522.3,346.9c47.7,0,94.8,0,142.2,0c0-27.5,0-54.7,0-82.3c-47.4,0-94.6,0-142.2,0
		C522.3,292.1,522.3,319.3,522.3,346.9z" fill="currentColor"/>
</g>
</svg>
