<?xml version="1.0" encoding="utf-8"?>
<!-- Generator: Adobe Illustrator 22.0.0, SVG Export Plug-In . SVG Version: 6.00 Build 0)  -->
<svg version="1.1" id="Calque_1" xmlns="http://www.w3.org/2000/svg" xmlns:xlink="http://www.w3.org/1999/xlink" x="0px" y="0px"
	 viewBox="0 0 500 500" style="enable-background:new 0 0 500 500;" xml:space="preserve">
<style type="text/css">
	.st0{fill:#8DA54D;}
	.st1{fill:#FAC142;}
</style>
<g>
	<g>
		<path class="st0" d="M375.7,486.4c-83.7,0-167.4,0-251.1,0c-0.4-0.2-0.8-0.6-1.2-0.6c-25.2-3-50.9-26.1-50.7-61.9
			c0.5-109.7,0.2-219.4,0.2-329.1c0-35.8,25.5-61.5,61.2-61.5c47.4,0,94.8,0,142.2,0c10,0,13.3,3.3,13.3,13.3
			c0,19.4-0.1,38.8,0,58.2c0.1,24.5,16.7,41,41.2,41.1c27.8,0,55.7,0.1,83.5-0.1c6,0,10.5,1.8,13,7.4c0,93.9,0,187.7,0,281.6
			c-0.3,0.7-0.7,1.4-0.8,2.1c-4.4,24.4-21.6,42.7-45.6,48.2C379.2,485.4,377.4,485.9,375.7,486.4z M250.1,72.7c-2.4,0-4,0-5.7,0
			c-36.5,0-72.9,0-109.4,0c-15.2,0-22.7,7.5-22.7,22.6c0,109.7,0,219.4,0,329.1c0,14.9,7.5,22.4,22.4,22.4c76.9,0,153.9,0,230.8,0
			c14.9,0,22.4-7.5,22.4-22.4c0-78,0-156,0-234c0-1.6,0-3.3,0-5.2c-2.3,0-4,0-5.6,0c-17.4,0-34.8,0.1-52.2-0.1
			c-4.9,0-9.9-0.3-14.7-1.2c-39-7.4-65.2-39.1-65.3-78.9C250.1,94.4,250.1,83.9,250.1,72.7z"/>
		<path class="st0" d="M427.4,105c-2.6,5.6-7.1,7.3-13.1,7.2c-17.8-0.4-35.7,0.2-53.4-0.8c-17.2-1-30-13.2-31.1-30.4
			c-1.2-19.3-0.8-38.7-0.8-58c0-4.1,2.3-7.2,6.4-8.7c4.3-1.6,7.8-0.2,10.9,2.9c12.1,12.1,24.1,24.1,36.2,36.2
			c12.9,12.9,25.9,25.8,38.8,38.8c2.2,2.3,4.1,4.9,6.2,7.3C427.4,101.4,427.4,103.2,427.4,105z"/>
	</g>
	<g>
		<path class="st1" d="M263.3,272.7c0,3.1,0,5.7,0,8.4c0,10.7,0,21.3,0,32c0,5.9-2.9,8.8-8.9,8.9c-9.3,0-18.5,0-27.8,0
			c-5.9,0-8.9-3-8.9-8.9c0-12.1,0-24.1,0-36.2c0-1.3,0-2.5,0-4.2c-8.5,0-16.7,0-24.8,0c-1.5,0-3.1,0.1-4.6-0.2
			c-5.9-1.1-8.4-7.4-4.6-12.1c2.1-2.7,4.6-5,6.9-7.5c14.5-15.7,28.9-31.4,43.4-47c4.5-4.9,8.7-4.9,13.2,0
			c16.3,17.6,32.6,35.3,48.9,52.9c2.5,2.7,4.1,5.5,2.5,9.2c-1.6,3.8-4.8,4.8-8.6,4.7C281.2,272.6,272.6,272.7,263.3,272.7z"/>
	</g>
	<path class="st1" d="M231.5,428.6c-0.9-1-1.6-2.1-2.6-3.1c-25-23.8-50-47.6-75-71.4c-0.9-0.8-1.9-1.5-3.2-2.4
		c7.3-7.6,14.1-14.8,21.1-22.1c19.6,18.6,39,37.1,58.8,55.9c34.7-38.7,69.3-77.2,104.2-116c7.4,6.7,14.8,13.2,22.4,20.1
		c-4.1,4.7-8.2,9.2-12.2,13.7C308.4,343.9,272,384.5,235.5,425c-1,1.1-1.7,2.4-2.6,3.6C232.5,428.6,232,428.6,231.5,428.6z"/>
</g>
</svg>
