<?xml version="1.0" encoding="utf-8"?>
<!-- Generator: Adobe Illustrator 22.0.0, SVG Export Plug-In . SVG Version: 6.00 Build 0)  -->
<svg version="1.1" id="Calque_1" xmlns="http://www.w3.org/2000/svg" xmlns:xlink="http://www.w3.org/1999/xlink" x="0px" y="0px"
	 viewBox="0 0 593 672.5" style="enable-background:new 0 0 593 672.5;" xml:space="preserve">
<g>
	<path d="M471.6,153.2c-1,5.6-2.1,12.5-3.5,19.3c-2.9,14.5-3.6,28.9-0.5,43.4c1.9,8.7,5.5,16.7,11.1,23.5
		c13.1,16.2,12.3,33.5,5.6,51.7c-4.3,11.8-11.9,20.4-23.3,25.8c-9.1,4.3-17.8,9.1-24.8,16.7c-9,9.8-14.7,21.2-17.2,34.2
		c-1.9,9.5-3.7,19-10.4,26.6c-9.5,10.7-21.1,18.1-35,21.7c-8.1,2.1-15.8-0.2-23.4-3.1c-25.4-9.5-48.8-6.5-69.5,11.6
		c-8.8,7.7-18.5,10.3-29.9,8.2c-12.3-2.2-24.2-5.6-35.3-11.3c-7.6-3.9-12.9-9.7-15.8-17.7c-6.5-17.9-17.9-31.5-35-39.8
		c-6.3-3-13.4-4.8-20.3-5.8c-13-2-23.2-7.7-30.2-18.9c-6.9-10.9-13.1-22.2-11.6-35.8c0.6-5.5,2.2-10.9,3.9-16.2
		c4.9-16.2,6.5-32.5,0.4-48.5c-2.7-7.3-7.1-14-11.2-20.7c-11-17.9-10.4-41.5,2.7-58.1c3.3-4.2,8.4-7.4,13.2-9.8
		c28.4-14,44.8-37.3,52.4-67.2c5-19.8,21.1-35.1,41.4-36.8c6-0.5,12.4,0.7,18.3,2.4c15.4,4.5,30.9,6.9,46.8,3.2
		c9.5-2.2,18.2-6.1,26.5-11.1c7.6-4.6,15.2-9.4,24.4-9.9c19.7-1.1,41.5,5,52,26.3c4.6,9.3,9.9,18.3,17.6,25.6
		c11,10.4,24.5,15.9,38.7,20.1c7.8,2.3,16.1,4.8,22.7,9.2C465.8,121.6,470.8,135.9,471.6,153.2z M140.6,230.9
		c0.8,83.5,67.1,149.1,150.2,147.7c79.9-1.4,145.4-66,144.8-148.9C435,148,367.8,81.9,284.5,83.8
		C206.6,85.6,141.2,148.8,140.6,230.9z"/>
	<path d="M521.3,582.4c-33.2-15.7-65.6-31-98.4-46.4c-10.4,35-20.8,69.6-31.5,105.4c-23.4-53.8-46.3-106.6-69.6-160.1
		c49.6-5.2,93.5-23.6,132.4-54.7C476.7,478.7,498.8,530.1,521.3,582.4z"/>
	<path d="M201.5,641.4c-10.6-35.6-21-70.3-31.4-105.4c-32.7,15.4-65.1,30.7-98.4,46.4c22.4-49.9,44.5-99,66.8-148.6
		c19.2,14.5,39.3,26.8,61.7,35.2c22.3,8.4,45.5,12.8,69.6,15.9C247.1,537,224.5,588.7,201.5,641.4z"/>
	<path d="M416.5,230.7c0,70.8-57.3,128.8-127.4,128.8c-71.6,0-128.9-56.9-129.1-128.2C159.7,160.5,217.3,103,288.4,103
		C358.8,103,416.4,160.5,416.5,230.7z M235.3,214.4c-8.2,8.2-16.4,16.3-24.1,24.1c19.9,20,39.8,39.9,59,59.3
		c36.5-36.5,73.2-73.2,109.6-109.5c-7.8-7.8-15.9-16-24.5-24.6c-28.2,28.3-56.6,56.7-85.2,85.3C258.4,237.3,246.9,225.9,235.3,214.4
		z"/>
</g>
</svg>
