<?xml version="1.0" encoding="utf-8"?>
<!-- Generator: Adobe Illustrator 22.0.0, SVG Export Plug-In . SVG Version: 6.00 Build 0)  -->
<svg version="1.1" id="Calque_1" xmlns="http://www.w3.org/2000/svg" xmlns:xlink="http://www.w3.org/1999/xlink" x="0px" y="0px"
	 viewBox="0 0 716 914" style="enable-background:new 0 0 716 914;" xml:space="preserve">
<style type="text/css">
	.st0{fill:#007E8E;}
	.st1{fill:#152C1D;}
</style>
<path class="st0" d="M678.8,172.3c0,216.5,0,433,0,649.4c-4,18.4-14.8,30.5-32.9,36c-165.4,0-330.7,0-496.1,0
	c-26.4-11.1-32.6-20.7-32.6-50.1c0-9.8,0-19.6,0-29.9c-13.1,0-25,0.1-37,0c-26.3-0.1-43.1-16.9-43.1-43c0-175.4,0-350.9-0.1-526.3
	c0-7.3,2.4-12.8,7.6-17.9c42-41.7,83.9-83.5,125.5-125.6c6-6.1,12.3-8.5,20.7-8.5c120.7,0.2,241.4,0.1,362.1,0.1c2.1,0,4.2,0,6.3,0
	c20.7,0.7,37.3,16.4,38.5,36.9c0.7,11.4,0.2,22.9,0.4,34.4c0,2.7,0.3,5.5,0.4,8.6c13.7,0,26.4-0.2,39.2,0
	c18.1,0.3,32.6,10.7,38.2,27C676.9,166.4,677.9,169.3,678.8,172.3z M64.3,216.6c-0.2,2.9-0.4,4.7-0.4,6.5c0,170.3,0,340.5,0,510.8
	c0,12.5,4.8,17,17.9,17c157.2,0,314.5,0,471.7,0c13.4,0,17.7-4.4,17.7-17.9c0-210.7,0-421.4,0-632c0-13.9-4.2-17.9-18.4-17.9
	c-115.5,0-231,0-346.5,0c-2.8,0-5.5,0-9,0c0,3.9,0,6.7,0,9.5c0,27.4,0.2,54.8-0.1,82.1c-0.2,25.4-16.4,41.5-41.7,41.8
	c-20.9,0.2-41.7,0-62.6,0.1C83.8,216.6,74.4,216.6,64.3,216.6z M145.2,777.7c-0.6,1.4-1,1.9-1,2.3c-0.1,10.4-0.2,20.9-0.2,31.3
	c0,15.9,3.8,19.7,19.9,19.7c127.2,0,254.5,0,381.7,0c29.7,0,59.4,0,89.2,0c11.9,0,16.5-4.7,16.8-16.5c0-1.3,0-2.6,0-3.9
	c0-209.1,0-418.2,0-627.3c0-2.9,0.7-6.3-0.6-8.4c-2.6-4.1-6.2-10.2-9.7-10.5c-14.1-1.2-28.3-0.5-43.2-0.5c0,3.9,0,7.3,0,10.6
	c0,99.1,0,198.2,0,297.2c0,86.8,0,173.6,0,260.5c0,9.5-0.9,18.7-6.3,26.9c-9.1,13.6-22.2,18.7-38.2,18.7
	c-132.7-0.1-265.4-0.1-398.1-0.1C152.1,777.7,148.7,777.7,145.2,777.7z M170.6,105.6c-28.1,28.1-56.2,56.3-84.1,84.1
	c23.4,0,47.8,0.2,72.2-0.1c7.2-0.1,11.7-4.9,11.8-12.1C170.7,153.2,170.6,129,170.6,105.6z"/>
<path class="st1" d="M317.3,310.1c-59.9,0-119.9,0-179.8,0c-2.6,0-5.2,0.1-7.8-0.1c-7-0.7-12.2-6.3-12.3-13
	c-0.1-6.3,4.6-12.1,11.1-13.3c2.5-0.5,5.2-0.3,7.8-0.3c120.9,0,241.9,0,362.8,0c2.6,0,5.3-0.2,7.8,0.3c6.9,1.3,11.3,7.1,10.9,14
	c-0.4,6.6-5.2,11.5-12,12.2c-2.6,0.3-5.2,0.1-7.8,0.1C437.7,310.1,377.5,310.1,317.3,310.1z"/>
<path class="st1" d="M317.3,577.4c-59.7,0-119.4,0-179.1,0c-2.3,0-4.7,0.1-7-0.1c-8.4-0.6-14.2-6.6-13.8-14
	c0.4-7.3,6-12.3,14.3-12.5c6.8-0.2,13.6-0.1,20.3-0.1c115.2,0,230.4,0,345.6,0c14.3,0,20.4,4.1,20.2,13.5
	c-0.2,9.3-6.3,13.2-20.7,13.2C437.1,577.4,377.2,577.4,317.3,577.4z"/>
<path class="st1" d="M251.4,350.4c38.1,0,76.2,0,114.2,0c2.6,0,5.3-0.2,7.8,0.3c6.4,1.1,10.1,5.4,10.8,11.7c0.7,6-2.1,10.9-7.8,13.1
	c-3.3,1.3-7.1,1.5-10.7,1.5c-76.7,0.1-153.4,0.1-230,0.1c-1.6,0-3.1,0.1-4.7-0.1c-8.1-0.7-13.7-6.1-13.7-13.3
	c-0.1-7.5,5.7-13.2,14.3-13.3C171.6,350.3,211.5,350.4,251.4,350.4L251.4,350.4z"/>
<path class="st1" d="M384.7,443.7c-38.1,0-76.1,0-114.2,0c-3.1,0-6.3,0.1-9.3-0.6c-6-1.4-9.4-5.4-9.9-11.5
	c-0.5-6.5,2.3-11.2,8.4-13.4c2.9-1,6.1-1.1,9.2-1.1c76.9-0.1,153.8-0.1,230.7,0c2.6,0,5.2,0.1,7.8,0.6c6.7,1.5,10.8,6.9,10.3,13.6
	c-0.5,6.9-4.3,11-11.1,12.1c-2.8,0.5-5.7,0.4-8.6,0.4C460.3,443.7,422.5,443.7,384.7,443.7z"/>
<path class="st1" d="M318.2,510.4c-25.8,0-51.6,0-77.3,0c-10.6,0-16.5-4.9-16.5-13.4c0.1-8.4,6.1-13.3,16.7-13.3
	c51.3,0,102.6,0,153.9-0.1c6.2,0,12.1,1.3,14.3,7.3c1.4,3.9,1.6,10.1-0.6,12.9c-2.7,3.5-8.5,6.1-13.1,6.2
	C369.8,510.7,344,510.4,318.2,510.4z"/>
<path class="st1" d="M170.4,644c-12.5,0-25,0.1-37.5,0c-9.5-0.1-15.3-5.1-15.6-12.9c-0.3-8,5.9-13.7,15.5-13.8
	c25.2-0.2,50.5-0.2,75.7,0c9.9,0.1,15.6,5.5,15.4,13.7c-0.2,8-5.7,12.8-15.3,12.9C195.9,644.1,183.2,644,170.4,644z"/>
<path class="st1" d="M164.2,443.6c-10.7,0-21.3,0.2-32-0.1c-8.9-0.2-14.5-5.4-14.8-12.9c-0.3-7.7,5.7-13.6,14.8-13.7
	c21.3-0.2,42.6-0.2,64,0c9.1,0.1,14.9,6,14.7,13.7c-0.2,7.6-5.7,12.6-14.7,12.8C185.5,443.8,174.8,443.6,164.2,443.6z"/>
<path class="st1" d="M471.3,350.4c10.7,0,21.3-0.1,32,0c9,0.1,14.3,5,14.5,12.8c0.2,8-5.4,13.7-14.5,13.8c-21.3,0.2-42.6,0.2-63.9,0
	c-9.1-0.1-14.8-5.7-14.6-13.8c0.2-7.7,5.6-12.7,14.6-12.8C450,350.3,460.6,350.4,471.3,350.4z"/>
<path class="st1" d="M150.8,510.4c-6.5,0-13,0.2-19.6,0c-8-0.3-13.7-5.8-13.8-13.1c-0.1-7.2,5.6-13.2,13.5-13.4
	c13.3-0.3,26.6-0.3,39.9,0c7.9,0.2,13.5,6.3,13.4,13.5c-0.1,7.3-5.8,12.7-13.9,13C163.8,510.5,157.3,510.4,150.8,510.4z"/>
<path class="st1" d="M484.5,510.4c-6.5,0-13,0.2-19.5,0c-8.2-0.3-13.4-5.6-13.5-13.2c0-7.5,5.2-13.1,13.4-13.3
	c13-0.3,26.1-0.3,39.1,0c8.6,0.2,14,5.8,13.9,13.6c-0.2,7.6-5.4,12.5-13.8,12.9c-0.5,0-1,0-1.6,0
	C496.5,510.4,490.5,510.4,484.5,510.4L484.5,510.4z"/>
<path class="st1" d="M284.6,644.1c-3.1-0.2-6.3-0.1-9.3-0.6c-6.8-1.2-10.6-5.8-10.8-12.4c-0.2-6.7,3.2-11.8,9.9-13
	c5.6-1,11.4-1,17.1-0.6c7.7,0.5,12.8,6.2,12.9,13.1c0,7.3-5.4,12.6-13.5,13.3c-2.1,0.2-4.2,0-6.2,0C284.6,644,284.6,644,284.6,644.1
	z"/>
</svg>
