<svg xmlns="http://www.w3.org/2000/svg" viewBox="0 0 476.13 480.05">
    <title>Fichier 2</title>
    <g id="Calque_2" data-name="Calque 2">
        <g id="Arbre">
            <path d="M363.13,480.05c-4.89-1-9.8-1.77-14.64-2.89-68.65-15.94-101.77-94.29-65.26-154.72,2.34-3.88,1.76-5.81-1.21-8.67-9.25-8.89-18.27-18-27.25-27.19-2-2-3.52-2.61-6.38-1.27-8.29,3.87-16.73,3.52-25.16-.05-1.29-.54-3.73-.4-4.63.47-10.75,10.44-21.3,21.09-32.18,31.95,18.7,29.46,23.16,60.7,11.15,93.57-8.88,24.32-25.26,42.46-48.06,54.64-44.79,23.94-101.38,10.29-130.78-31.4A102.24,102.24,0,0,1,32.94,300.36
                c38.2-35.3,101.59-37.79,143.79,5.18,4-4.2,7.88-8.43,11.89-12.58a124.68,124.68,0,0,1,9.93-9.85
                c6.82-5.64,10.39-10.75,6.77-21-5.06-14.37,4.4-29.9,19.12-35.64,2.82-1.1,3.92-2.28,3.75-5.29-.25-4.3-.06-8.64-.06-13.32-35.49-4-63.14-20.56-81.54-51.18-13-21.66-17.44-45.33-12.9-70.19
                C143.43,33.25,188.16-2.16,242.16.1c50.74,2.12,92.56,42.52,97.55,95.37C345.1,152.55,300.77,204.6,244.14,208
                c0,5.05-.15,10.17.13,15.25.06,1,1.6,2.28,2.74,2.76,18.56,7.87,25.67,25.38,17.93,43.93-.54,1.28-.39,3.7.48,4.6,9.92,10.3,20.05,20.41,30.36,30.8,2.39-2.24,4.35-4.23,6.46-6.06,30.27-26.25,64.91-34.37,102.84-21.64
                s60.81,39.93,69.17,79.15c.65,3.08,1.25,6.17,1.88,9.25v20a24.64,24.64,0,0,0-.91,3.31,103.58,103.58,0,0,1-75.14,86.71
                c-6.22,1.7-12.63,2.67-18.95,4ZM236,16.07c-48.18-.13-87.61,39.21-87.89,87.7-.27,48.18,39.24,88.11,87.35,88.27,48.74.17,88.56-39.14,88.62-87.47A88,88,0,0,0,236,16.07Zm-135.87,272a88,88,0,0,0-88,88.58c.07,48.29,40,87.59,88.71,87.39,47.9-.2,87.34-39.9,87.27-87.85
                C188.05,327.48,148.55,287.91,100.15,288.07Zm272.09,0a88,88,0,0,0-88.1,88.48c0,48.31,39.87,87.65,88.61,87.49,47.91-.16,87.39-39.81,87.37-87.76C460.1,327.57,420.62,287.94,372.24,288.07
                ZM236.05,272a16,16,0,1,0-15.9-15.93A16.07,16.07,0,0,0,236.05,272Z" fill="currentColor" />

            <path d="M244.09,159.31c0,3,.17,6.05,0,9a7.92,7.92,0,0,1-7.72,7.68c-4.34.12-8.45-3.16-8-7.74.67-6.78-1.78-9.88-8-12.86-10.29-5-15.38-14.39-16.14-25.85-.35-5.45,2.73-9.15,7.41-9.46s7.91,2.94,8.53,8.43c1.1,9.67,8,15.95,16.87,15.47a16.07,16.07,0,0,0,15.09-16.24c-.16-8.88-6.9-15.25-16.66-15.72-16.14-.78-28.41-11.61-31-27.37-2.35-14.23,6-28.69,20.17-34.23,3-1.15,3.82-2.59,3.56-5.43a28.78,28.78,0,0,1,.05-5.49c.45-4.41,3.77-7.56,7.94-7.4,4.43.17,8.11,2.81,7.65,6.93-.87,7.81,2.69,11,9.16,14.26C262.43,58.16,267,67.18,268,77.77c.55,5.79-2.35,9.72-7.13,10.21s-8.14-2.85-8.8-8.66
                C251,69.82,243.9,63.47,235,64.1a16.09,16.09,0,0,0-14.85,16c0,8.71,6.71,15.43,15.9,16,17.15,1,29.31,11.53,31.81,27.62,2.3,14.81-6.5,28.76-21.84,34.65
                C245.57,158.49,245.14,158.76,244.09,159.31Z" fill="currentColor" />

            <path d="M108.56,376v16c4.87,0,9.49-.05,14.1,0,5.86.08,9.45,3.18,9.42,8s-3.62,7.88-9.49,8
                c-4.49,0-9,0-14.3,0,0,6.12,0,12,0,17.95,0,1.84,0,3.67,0,5.5-.22,5.16-3.33,8.49-7.85,8.51s-7.88-3.34-8-8.44c-.21-6.32-.06-12.65-.08-19,0-1.31-.12-2.61-.21-4.54-4.92,0-9.69.05-14.46,0-5.88-.08-9.45-3.14-9.45-8s3.54-7.9,9.45-8
                c4.49-.07,9-.08,13.48-.13.15,0,.29-.12.82-.34V376.05c-4.81,0-9.59.05-14.36,0-5.87-.07-9.43-3.18-9.39-8s3.58-7.83,9.51-7.92c2.44,0,4.89,0,8.29,0-3.76-5.69-7-10.64-10.28-15.59-4.22-6.38-8.51-12.72-12.64-19.17-3-4.7-2.26-9.21,1.7-11.84
                s8.43-1.6,11.55,3c7.07,10.49,14,21.08,21,31.62.9,1.36,1.9,2.64,3.23,4.48L122.2,319.9a55.92,55.92,0,0,1,3.41-4.92,7.88,7.88,0,0,1,10.72-1.74,7.7,7.7,0,0,1,2.34,10.57
                c-3.44,5.7-7.26,11.16-10.93,16.71-4.11,6.22-8.23,12.43-12.94,19.54,3.56,0,6.3-.1,9,0,5,.24,8.38,3.62,8.26,8.15-.11,4.32-3.37,7.59-8.15,7.75
                C119,376.17,114,376,108.56,376Z" fill="currentColor" />
            <path d="M340.16,400.28c-6.41-.85-15.46,2-15.72-7.94-.28-10.35,9-7.77,15.45-8.46V368.25c-6.3-.81-15.22,2-15.61-8.72-.2-5.38,3.25-6.89,15.74-7.75.69-3,1.27-6.28,2.14-9.42,5.45-19.6,19.55-30.31,39.78-30.31,2.84,0,5.68.15,8.5,0,18-1.14,29.82,15.5,29.62,31.93A7.87,7.87,0,0,1,412.2,352
                c-4.16.05-7.33-2.91-8-7.38a45.5,45.5,0,0,0-1.62-8.27c-2.14-6-5.73-8.28-12.11-8.31h-8.5
                c-14.64,0-23.57,8.3-25.11,24,7.11,0,14.17-.12,21.23.07,2.24.06,5.31.23,6.48,1.63,1.8,2.16,3.35,5.51,3.1,8.18-.38,4-3.76,6.08-7.94,6.1-7.63,0-15.27,0-23.23,0v16
                c7.2,0,14.31,0,21.42,0,6.42,0,10.05,2.81,10.2,7.75.17,5.11-3.64,8.21-10.22,8.23-7,0-13.93,0-20.92,0,.79,14.77,10.25,24,24.2,24h7.49c9.59,0,14.23-4.15,15.38-13.8a30.81,30.81,0,0,1,.27-3.48
                c1-4.26,3.71-6.78,8.12-6.61s7.35,2.82,7.58,7.17
                c.84,15.79-10.47,33.18-28.25,32.73-3.16-.08-6.32,0-9.49,0-21.86,0-37.11-12.77-41.08-34.39Z" fill="currentColor"/>
        </g>
    </g>
</svg>