<?xml version="1.0" encoding="utf-8"?>
<!-- Generator: Adobe Illustrator 22.0.0, SVG Export Plug-In . SVG Version: 6.00 Build 0)  -->
<svg version="1.1" id="Calque_1" xmlns="http://www.w3.org/2000/svg" xmlns:xlink="http://www.w3.org/1999/xlink" x="0px" y="0px"
	 viewBox="0 0 866 886" style="enable-background:new 0 0 866 886;" xml:space="preserve">
<g>
	<path d="M855,266.6c-6.2,14.1-17.2,18.3-32.3,18.3c-260.1-0.3-520.1-0.3-780.2,0c-14.9,0-25.4-4.7-31.5-18.3c0-20.9,0-41.8,0-62.6
		c4.2-10,12.2-15.3,22-19.4c98.4-40.6,196.8-81.4,295.1-122.3C361,48.7,393.7,34.8,426.4,21c4.4,0,8.8,0,13.2,0
		c0.4,0.4,0.7,0.9,1.1,1.1c130.5,54.1,261,108.2,391.5,162.1c10,4.1,18.4,9.4,22.8,19.7C855,224.9,855,245.7,855,266.6z M434,161.1
		c-9.1,0-18.1,0-27.2,0c-40.1,0-80.2-0.1-120.2,0.1c-19.4,0.1-31.8,17.4-24.5,34.1c5,11.4,14.6,15.4,26.6,15.4
		c96.1-0.1,192.2-0.1,288.3-0.1c1.9,0,3.9,0.1,5.8-0.1c13.1-1.3,23.2-12,23.3-24.5c0.1-12.1-9.5-22.9-22.2-24.7
		c-2.7-0.4-5.5-0.2-8.2-0.2C528.4,161.1,481.2,161.1,434,161.1z" fill="currentColor"/>
	<path d="M11,780.9c8.1-16.9,21.2-23.3,40.2-23.3c254.7,0.4,509.4,0.5,764.2-0.1c19.4,0,31.9,6.3,39.6,23.4c0,22,0,44,0,65.9
		c-3.8,8.3-9.7,14.4-18.1,18.1c-269.2,0-538.5,0-807.7,0c-8.3-3.8-14.4-9.8-18.1-18.1C11,824.9,11,802.9,11,780.9z" fill="currentColor"/>
	<path d="M91,589.1c0-84.8,0-169.2,0-254.3c41,0,81.8,0,123.2,0c0,84.4,0,169.1,0,254.3C173.5,589.1,132.8,589.1,91,589.1z" fill="currentColor"/>
	<path d="M651.7,334.5c41.2,0,81.8,0,123.1,0c0,84.9,0,169.5,0,254.7c-40.9,0-81.7,0-123.1,0C651.7,504.6,651.7,419.9,651.7,334.5z"
		fill="currentColor"/>
	<path d="M507.5,570.9c-1.3,31.1-13.6,53.3-38.8,67c-8.3,4.5-11.9,8.6-11.4,18.3c0.7,14.1-11.3,24.6-25.5,24.1
		c-13.2-0.5-23.9-11-23.3-24.7c0.3-8.7-2.2-12.9-10.4-17.2c-24.9-13.2-38.3-34.7-39.2-63.1c-0.5-15.1,9.4-26.1,23.2-26.7
		c14.6-0.6,24.9,9.1,26.2,24.6c1.1,13.7,10.4,23.6,23.2,24.7c11.6,1,22.7-7.7,25.7-20c3.5-14.7-8.6-28.7-25.3-29.4
		c-37.1-1.6-64.8-25.3-72-61.6c-6-30.4,9.8-63.6,38.5-77.8c8.5-4.2,10.4-8.8,10.2-17.3c-0.4-14.6,11.5-25.2,26-24.5
		c13.2,0.6,23.6,11.2,22.9,25.1c-0.4,8.7,2.5,12.5,10.1,16.6c25.7,13.8,39.3,35.9,39.6,65.4c0.1,13.7-10.3,24.2-23.6,24.7
		c-13.9,0.4-24.6-9.3-25.7-23.4c-1.2-15.1-10.3-25.1-23.6-26c-11.6-0.7-22.7,8.1-25.4,20.4c-3.2,14.7,9,28.4,25.8,29
		c33.5,1.3,60.8,22.2,69.7,54C506.1,559.6,506.7,566.5,507.5,570.9z" fill="currentColor"/>
	<path d="M247.7,713.1c-63.6,0-126.1,0-190.1,0c0-7.4,0-14.6,0-21.9c0-8.5-0.2-17,0-25.5c0.4-16.5,10.6-26.4,27.1-26.4
		c45.5,0,91.1,0,136.6,0c14.5,0,25.3,8.7,26.1,23C248.4,678.8,247.7,695.6,247.7,713.1z" fill="currentColor"/>
	<path d="M618.4,712.8c0-17.4-0.8-34.4,0.3-51.3c0.9-13.9,11.6-22.3,25.8-22.3c45.8-0.1,91.6-0.1,137.5,0c14.5,0,25.2,8.8,26,23
		c0.9,16.6,0.2,33.3,0.2,50.5C744.9,712.8,682.2,712.8,618.4,712.8z" fill="currentColor"/>
</g>
</svg>
