<?xml version="1.0" encoding="utf-8"?>
<!-- Generator: Adobe Illustrator 22.0.0, SVG Export Plug-In . SVG Version: 6.00 Build 0)  -->
<svg version="1.1" id="Calque_1" xmlns="http://www.w3.org/2000/svg" xmlns:xlink="http://www.w3.org/1999/xlink" x="0px" y="0px"
	 viewBox="0 0 1080 1080" style="enable-background:new 0 0 1080 1080;" xml:space="preserve">
<style type="text/css">
	.st0{fill:#207D8F;}
	.st1{fill:#6E9CA8;}
</style>
<path class="st0" d="M1035,100.9c0,33.6,0,67.4,0,101c-6.2,11.7-16,15.1-29,14.9c-39.8-0.5-79.7-0.3-119.6-0.3c-4.4,0-8.7,0-14.2,0
	c0,5.5,0,9.8,0,14.2c0,226.8,0,453.4,0,680.2c0,4.8,0.1,9.6-0.3,14.4c-2.6,38.2-19.7,67.8-53.7,85.7c-13.6,7.2-29.4,10.3-45.4,15.9
	c0,14,3.3,31.1-14.4,40.8c-4.2,0-8.2,0-12.3,0c-21.7-11.2-43.5-22.6-65.3-33.5c-2.3-1.1-6.3-1.5-8.4-0.3
	c-20.3,11-40.2,22.4-60.3,33.8c-4.2,0-8.2,0-12.3,0c-20.9-8.7-14.1-28.5-16.8-44.9c-5,0-9.1,0-13.2,0c-139.1,0-278.3-0.9-417.4,0.4
	c-62,0.6-109.2-46.9-107.5-107.3c1.3-46,0.3-92.1,0.3-138.1c0-21.9,6.9-28.7,29.1-28.7c40.2,0,80.4,0,120.6,0c4,0,8.1,0,13.1,0
	c0-5.7,0-10.1,0-14.5c0-204.1,0-408.2,0-612.3c0-7.6-0.1-15.2,1.1-22.6c8.8-52.2,50.6-87.6,103.7-87.6c106.5-0.1,213,0,319.5,0
	c98.9,0,197.9,0,296.8,0c34.4,0,62.5,13.4,84.2,40.2C1025,66.8,1029.8,83.8,1035,100.9z M773.1,982.2c5.8-1,9.8-1.4,13.7-2.6
	c28.3-8.6,43.8-31.2,43.8-64.5c0-228.8,0-457.6,0-686.4c0-3.7,0-7.3,0-12.1c-5.3,0-9.3,0-13.4,0c-138.5,0-276.9,0-415.4,0
	c-25.7,0-31-5.5-31.1-31.6c-0.3-26.5,0.6-52.9-1.5-79.2c-2.4-29.2-29-51.4-58.7-51.7c-28.5-0.3-54.3,20.9-59.2,49.1
	c-1.3,7.1-1.5,14.4-1.5,21.5c-0.1,263.2-0.1,526.4,0,789.4c0,22.6-3.7,43.7-16,62.9c-0.6,1-0.6,2.4-0.8,3.4c117.2,0,233.8,0,351.1,0
	c0-34.6,0.1-68.7-0.1-102.7c0-3.5-2.3-7.1-3.9-10.3c-20.3-40.3-18.5-79.7,6.4-117.2c33.3-49.6,100.3-63.1,151.4-31.6
	c50.5,31.1,67.9,96.8,39.6,148.9c-1.8,3.3-4.2,6.8-4.2,10.2C773,912.2,773.1,946.4,773.1,982.2z M993.2,174.6
	c0-18.9,0.1-36.8,0-54.6C992.8,79.2,967.7,54,926.7,54c-174.5-0.1-349.1,0-523.6,0c-2.9,0-5.7,0.4-10.5,0.8
	c28.3,37.2,17,79.6,20.4,119.8C606.4,174.6,799.2,174.6,993.2,174.6z M88.3,791.7c-0.6,1.6-1,2.3-1,2.9c-0.1,42.6-0.4,85.2,0,127.7
	c0.1,17.1,6.3,32.4,19.7,43.7c19.7,16.9,42.3,19.7,65.6,10c23.9-10,35.3-29.7,35.5-55.4c0.4-41.2,0.1-82.5,0-123.7
	c0-1.6-0.4-3.3-0.6-5.3C167.5,791.7,128,791.7,88.3,791.7z M748.8,813.8c-0.3-38.9-31.5-69.9-70.4-69.8
	c-38.7,0.1-70.2,31.6-70.2,70.2c0,38.9,32.1,70.7,71.1,70.3C718,884.1,749,852.4,748.8,813.8z M626.9,1010.8
	c7.1-3.8,13-6.9,18.9-10.2c32.8-17.8,26.8-18,59.8-1c8.1,4.2,16.1,8.1,24.6,12.3c0-33.3,0-65,0-97.9c-34.9,16.9-69,15.7-103.3,0.5
	C626.9,947.2,626.9,978.3,626.9,1010.8z"/>
<path class="st1" d="M541.3,420.8c69,0,138.1,0,207.1,0.1c5,0,10.3,0.4,15.2,1.6c9.1,2.3,15.1,10.8,15,19.8
	c-0.1,8.9-6.6,17.4-15.5,19.4c-4.7,1-9.6,1.4-14.2,1.4c-139.1,0.1-278.2,0-417.3,0c-19.4,0-29.6-7.2-29.7-20.9
	c-0.1-13.7,10.1-21.3,29.4-21.3C401,420.8,471.2,420.8,541.3,420.8z"/>
<path class="st1" d="M539.1,554.9c-69,0-138.1,0-207,0c-4.2,0-8.3,0-12.3-0.5c-9.8-1.3-16.8-8.7-17.8-18.5
	c-1-9.4,4.9-18.5,14.4-21.2c4.5-1.3,9.4-1.5,14.2-1.5c139.7-0.1,279.6-0.1,419.3,0c4.8,0,9.7,0.3,14.2,1.5
	c9.4,2.6,15.2,11.8,14.4,21.2c-1,9.7-7.9,17.3-17.8,18.5c-4,0.5-8.2,0.5-12.3,0.5C678.5,554.9,608.8,554.9,539.1,554.9z"/>
<path class="st1" d="M540.4,370.8c-30.2,0-60.3,0.1-90.6-0.1c-17.5-0.1-27.7-12.1-23.3-26.8c2.4-7.9,7.6-13,15.7-14.2
	c4-0.6,8.2-0.8,12.3-0.8c56.9,0,113.9,0,170.8,0c19.5,0,29.6,7.1,29.7,20.7c0.1,13.9-10.3,21.3-30.4,21.3
	C596.6,370.8,568.5,370.8,540.4,370.8z"/>
<path class="st1" d="M386.6,772.1c-18.9,0-37.8,0.1-56.7-0.1c-4.8,0-9.7-0.4-14.2-1.8c-9.2-2.9-13.9-10.3-13.7-19.5
	c0.1-9.2,4.9-16.4,14.2-19.3c3.9-1.1,8.1-1.5,12.2-1.5c39.4-0.1,79-0.1,118.4,0c3.8,0,7.6,0.5,11.2,1.4c8.9,2.3,15.4,10.5,15.5,19.5
	c0.1,8.9-6,17.5-15,19.8c-4.3,1.1-8.8,1.5-13.2,1.5C425.7,772.1,406.2,772.1,386.6,772.1z"/>
<path class="st1" d="M387.9,692.6c-20.5,0-41.2,0.1-61.7,0c-15-0.1-24.4-8.3-24.4-20.7c0-12.3,9.4-20.9,24.3-21
	c41.2-0.1,82.4-0.1,123.6,0c14.6,0.1,24.3,9.1,23.9,21.4c-0.3,12-9.4,20-23.8,20.3C429.1,692.8,408.6,692.6,387.9,692.6z"/>
</svg>
