<?xml version="1.0" encoding="utf-8"?>
<!-- Generator: Adobe Illustrator 22.0.0, SVG Export Plug-In . SVG Version: 6.00 Build 0)  -->
<svg version="1.1" id="Calque_1" xmlns="http://www.w3.org/2000/svg" xmlns:xlink="http://www.w3.org/1999/xlink" x="0px" y="0px"
	 viewBox="0 0 778 1056" style="enable-background:new 0 0 778 1056;" xml:space="preserve">
<g>
	<path d="M174.4,1043c-11.2-2-22.6-3.4-33.7-6c-72.9-17.6-125.2-81.7-126.4-156.6c-0.9-56.4-3-113.1,1-169.2
		c8.1-114.4,60.1-206.8,152.1-275.3c76.2-56.8,162.9-79.9,257.4-71.5c161.5,14.4,297.3,135,331.1,293.8c5,23.3,7.6,47.4,8.2,71.2
		c1.2,50.7,1.3,101.4,0.2,152c-1.8,83.6-67.8,152.6-151.3,159.7c-3,0.3-5.9,1.2-8.8,1.8C461,1043,317.7,1043,174.4,1043z
		 M388.8,960.2c69.6,0,139.2,0.2,208.8-0.1c49-0.2,85.7-37.1,85.9-86c0.1-47,0.4-93.9-0.2-140.9c-0.2-15.8-1.6-31.8-4.5-47.3
		c-30.3-160.2-178.6-263.8-339.2-237.4C201.1,471.4,96.1,594.1,95.3,734.2c-0.3,45.3,0.9,90.6-0.3,135.8
		c-1.5,52.5,40.9,91.8,90.1,90.6C252.9,959.1,320.9,960.3,388.8,960.2z"  fill="currentColor"/>
	<path d="M395.4,13c20.3,2.7,41.1,3.9,61,8.5c79.5,18.4,142.1,60.6,181.4,133.7c16.4,30.5,23.9,63.6,24,98.3
		c0.1,47.6,0,95.3,0,142.9c0,1.3-0.3,2.7-0.6,5.2c-2.7-1.7-4.8-2.9-6.8-4.2c-22.4-14.4-44.7-28.9-67.4-42.9c-4.9-3-7-5.9-7-11.7
		c0.3-26.7-0.5-53.4,0.3-80.1c1.5-51.3-19.8-91.2-58.8-122.9C443,76,313.4,81.8,242.7,152.5c-29.2,29.2-45.1,64.1-44.3,106.1
		c0.5,27.7-0.1,55.4,0.3,83.1c0.1,6.6-2,9.9-7.8,13.3c-24.6,14.5-48.7,29.8-73.4,45c0-0.1-0.5-1.3-0.5-2.5c0.1-51-0.8-102.1,0.6-153
		c1.7-61.2,28.1-112,72-153.5c50.3-47.5,110.9-71.7,179.7-76.2c4.7-0.3,9.3-1.2,13.9-1.9C387.3,13,391.4,13,395.4,13z"  fill="currentColor"/>
	<path d="M389,904.2c-66.9,0-133.7,0-200.6,0c-26.7,0-36.6-9.9-36.6-36.6c0-46.6-0.5-93.2,0.4-139.8
		c2.3-110.2,90.7-208.8,200.2-224.2c126.7-17.8,239.7,58.8,268.6,182.9c4.2,17.9,5.3,36.7,5.7,55.2c0.8,42.5,0.3,85.1,0.2,127.7
		c0,24.6-10.4,34.9-35.2,34.9C524.1,904.3,456.5,904.2,389,904.2z M361.1,723.9c-6.6-7.3-12.5-14.1-18.7-20.7
		c-6.5-6.8-13.1-13.6-20.1-20c-16.7-15.4-41-15-56.5,0.6c-15.6,15.8-16,40.2-0.2,56.4c22.6,23.2,45.5,46.2,68.8,68.8
		c15.3,14.9,38.9,15.7,54,0.9c42.5-41.6,84.7-83.4,126-126.1c20.3-20.9,10-55.9-17.8-64.7c-16.5-5.2-30.5-0.6-42.5,11.4
		C423.6,661.1,393.1,691.7,361.1,723.9z"  fill="currentColor"/>
</g>
</svg>
