<?xml version="1.0" encoding="utf-8"?>
<!-- Generator: Adobe Illustrator 22.0.0, SVG Export Plug-In . SVG Version: 6.00 Build 0)  -->
<svg version="1.1" id="Calque_1" xmlns="http://www.w3.org/2000/svg" xmlns:xlink="http://www.w3.org/1999/xlink" x="0px" y="0px"
	 viewBox="0 0 593 672.5" style="enable-background:new 0 0 593 672.5;" xml:space="preserve">
<style type="text/css">
	.st0{fill:#211F20;}
	.st1{fill:#FF0000;}
</style>
<path class="st0" d="M545.1,336.1c0,103.4,0,206.8,0,310.2c0,10.6-3,13.6-13.5,13.6c-117.5,0-234.9,0-352.4,0.1
	c-4.8,0-8.6-1.3-11.9-4.8c-38.1-38.4-76.4-76.6-114.5-114.7c-3.3-3.3-4.8-6.8-4.8-11.5C48,361.4,48,193.8,48,26.1
	c0-10.6,2.9-13.5,13.5-13.5c155.6,0,311.2,0,466.8,0c1.7,0,3.3,0,5,0c8.2,0,11.8,3.7,11.8,11.8C545.1,128.2,545.1,232.2,545.1,336.1
	z M68.2,521.7c2.3,0,4.1,0,5.9,0c33.1,0,66.3,0,99.4,0c9.5,0,12.7,3.4,12.7,12.9c0,33.1,0,66.3,0,99.4c0,1.9,0,3.8,0,5.7
	c113.4,0,226,0,338.7,0c0-202.5,0-404.8,0-607c-152.4,0-304.4,0-456.7,0C68.2,195.7,68.2,358.4,68.2,521.7z M165.9,624
	c0-27,0-54.6,0-82.2c-27.7,0-55.2,0-82,0C111.2,569.2,138.6,596.6,165.9,624z"/>
<path class="st0" d="M461.3,168.3c-2.6,0-4.8,0-7.3,0c0-3,0-6.1,0-9.1c-6.2-1-11.7-3.2-15.6-7.9c-3.4-4.1-5-8.9-5.9-14.3
	c4.4-0.5,8.8-1,13.2-1.5c1.3,4.7,3.4,8.6,8,11.3c0.1-1.1,0.1-1.8,0.1-2.6c0-5.4-0.1-10.9,0.1-16.3c0.1-1.8-0.5-2.6-2.3-3.2
	c-4.8-1.5-9.1-3.9-12.5-7.9c-8.4-10.2-6.6-31.2,13-34.6c0.5-0.1,0.8-0.1,1.5-0.2c0.1-1.6,0.1-3.2,0.2-4.9c2.4,0,4.8,0,7.3,0
	c0,1.6,0,3.2,0,4.9c10.6,1.5,17.1,7.1,19.1,17.8c-4.3,0.6-8.4,1.2-12.7,1.7c-1-3.3-2.3-6.4-6-7.9c-0.1,0.5-0.2,0.8-0.2,1.2
	c0,5.7,0.1,11.3-0.1,16.9c0,1.3,0.5,1.7,1.6,2.1c3.3,1.2,6.7,2.4,9.8,3.9c5.7,2.9,8.7,7.9,9.5,14.2c1.7,13.4-5.9,24.1-19.1,26.5
	c-1.5,0.3-1.9,0.9-1.8,2.3C461.4,163.2,461.3,165.7,461.3,168.3z M461.4,147.2c4.6-0.5,8-4.4,8.4-9.2c0.3-5.3-2.7-8.9-8.4-10.2
	C461.4,134.2,461.4,140.7,461.4,147.2z M453.8,93.5c-3.8,1.1-6.4,4.6-6.5,8.6c0,3.8,2.6,7.3,6.5,8.5
	C453.8,104.9,453.8,99.3,453.8,93.5z"/>
<path class="st0" d="M298.6,253.9c56.7,0,113.3,0,169.9,0c1.8,0,3.7,0,5.5,0.2c4.8,0.6,8.2,4.2,8.4,8.9s-2.5,8.9-7.1,10.2
	c-2.1,0.5-4.2,0.6-6.4,0.6c-113.6,0-227.3,0-340.9,0c-8.6,0-12.9-3.6-12.8-10.2c0.1-5,3.5-8.8,8.4-9.5c2-0.2,4-0.2,6-0.2
	C186,253.9,242.4,253.9,298.6,253.9z"/>
<path class="st0" d="M298.8,364.2c56.7,0,113.3,0,169.9,0c9.3,0,13.7,3.1,13.8,9.7c0.1,6.8-4.6,10.2-14,10.2
	c-113.3,0-226.6,0-339.9,0c-8.8,0-13.1-3.3-13.2-9.9c-0.1-5.2,3.4-9.3,8.6-9.9c2-0.2,4-0.2,6-0.2
	C186.1,364.2,242.4,364.2,298.8,364.2z"/>
<path class="st0" d="M299,218.4c-57.5,0-114.9,0-172.5,0c-6.9,0-10.9-3.4-11.2-9.1c-0.3-5.5,3.3-9.9,8.8-10.6c1.3-0.1,2.7-0.1,4-0.1
	c113.8,0,227.6,0,341.4,0c1.5,0,3-0.1,4.4,0.1c5.2,0.8,8.8,5.5,8.4,10.6c-0.4,5.1-4.2,8.8-9.5,9.1c-3.5,0.2-7,0-10.4,0
	C408.1,218.4,353.5,218.4,299,218.4z"/>
<path class="st0" d="M298.6,328.8c-57.4,0-114.6,0-172,0c-7.1,0-11.2-3.6-11.5-9.5c-0.1-5.3,3.5-9.7,8.8-10.2
	c1.2-0.1,2.3-0.1,3.5-0.1c114.2,0,228.3,0,342.4,0c0.8,0,1.7,0,2.5,0c5.9,0.3,10.2,4.6,9.9,10.2c-0.1,5.7-4.2,9.7-10.4,9.7
	c-26.8,0.1-53.7,0-80.5,0C360.6,328.8,329.7,328.8,298.6,328.8z"/>
<path class="st0" d="M201.8,122.7c24.5,0,49,0,73.6,0c1.7,0,3.3,0,5,0.2c4.4,0.6,7.9,4.1,8.4,8.6c0.5,4.7-2.2,9.1-6.6,10.4
	c-1.7,0.5-3.6,0.8-5.3,0.8c-49.8,0-99.7,0.1-149.6,0c-6.1,0-10-2.6-11.5-7c-2-6.6,2.3-12.8,9.5-12.9c11.5-0.2,22.9-0.1,34.3-0.1
	C173.6,122.7,187.7,122.7,201.8,122.7z"/>
<path class="st0" d="M202.3,436.9c24.3,0,48.7,0,72.9,0c1.7,0,3.3,0,5,0.2c4.4,0.6,7.9,4.2,8.2,8.6c0.5,4.7-2.2,9.1-6.6,10.4
	c-2,0.6-4.2,0.7-6.4,0.7c-49,0-98.1,0-147.1,0c-1.8,0-3.7,0-5.5-0.4c-5.2-1.1-8.2-5.3-7.7-10.4c0.4-5,3.9-8.6,9.1-8.8
	c6.4-0.3,12.9-0.1,19.4-0.2C163.2,436.8,182.8,436.8,202.3,436.9z"/>
<g>
	<path class="st1" d="M388.4,481.4c-10.4,13.6-21.5,25.8-22.8,43.8c-0.6,8.2,2.8,11.5,10,12.9c7.7,1.5,15.4,3.2,24,5
		c-3.2,14.6-6.3,28.5-9.5,43.1c-2.5-0.3-4.8-0.5-8.4-0.8c2.4-11.7,4.8-23,7.3-34.8c-14-6.3-28.8-3.7-43.8-4.4c0.5,3.2,1,5.8,1.5,9.1
		c15.4,3.2,24.4,13.5,29.5,28.9c-2.6,1-4.9,2-7.1,2.9c-13.9-25.2-26.5-29.5-48.6-16c-1.5-1.9-3.2-4-5.7-7.3
		c7.6-3.3,14.9-6.6,22.7-10c0-5.7-3.9-7.5-9.5-7.5c-10,0-20.1,0-30.9,0c0.7-6.1,1.3-11.4,1.9-17.2c-3.3-0.4-6.2-0.7-9.7-1.1
		c-0.2-2.3-0.4-4.6-0.6-7.5c14.6,0,28.7,0,43.5,0c0.2,2.2,0.4,4.4,0.6,6.7c-1.2,0.5-1.9,1.1-2.6,1.1c-5.2,0.1-10.4,0.5-15.5,0.1
		c-6.6-0.5-8.2,2.4-6.9,8.8c15.6,0,31.2,0,47.8,0c2.5-18.7,5-37.4,7.7-57.2c-15.8,0-30.8-0.1-45.6,0.2c-1.7,0.1-3.2,3.4-5.2,4.1
		c-1.8,0.6-4.2-0.2-7-0.5c0.6-4.3,1.2-8.2,1.8-12.3c21.9,0,43.4,0,65.7,0c-0.6,5.5-1.1,10.7-1.8,17.1c6.1-6.7,11.3-12.5,17.6-19.4
		c18.1,20.3,40.1,30.5,66.4,28.1c2.3,12.6-1.5,20.2-12,21.4c-14,1.6-28.7,5.2-42.2-5.5c-1.5,3-3,5.8-4.7,9.2
		c4.7,2.3,8.8,4.3,12.9,6.4c9.9,5,12,9.7,9.1,20.5c-1.8,6.8-3.7,13.6-5.5,20.5c-0.1,0.2,0.3,0.5,0.9,1.5
		c17.1-9.5,22.7-24.4,21.1-43.1c1.5-0.5,2.7-1,3.9-1.3c1-0.2,2.2-0.1,3.4-0.1c0.4,0.7,1,1.4,1,2.1c3,23.5-8.3,42.5-30.5,52
		c-2.1,0.9-3.2,4.2-5.3,5c-1.9,0.8-4.5-0.3-7.9-0.6c3.4-12.8,6.2-24.9,10-36.8c2.1-6.5,0.8-10.1-5.5-12.8
		c-6.5-2.7-12.6-6.2-19.3-9.7c4.4-8.8,8.6-17,13.3-26.5c11.4,13.6,26.3,12.1,40.9,11.4c2.6-0.1,5.1-1.9,7.3-4.8
		c-10.6-1.6-22-1.4-31.5-5.4C404.9,496.7,397.3,488.3,388.4,481.4z"/>
	<path class="st1" d="M465.9,575.4c-9.9-5.7-17-1.2-24.2,4.1c-2-1.7-3.8-3.2-6.8-5.7c4.8-3,8.5-6.2,12.8-7.8c5.1-1.8,7-4.7,6.6-9.6
		c-1-10.4-2.1-20.8-3.1-31.2c-0.8-0.2-1.6-0.3-2.4-0.5c2.1-1.4,4.2-2.7,6.6-4.2c8.7,13.7,8.8,28.2,7.1,41.6
		c6.4,5.5,12.1,10.3,18.4,15.6c-17.9,9.2-33.5,17.4-49.3,25.2c-2,1-4.8,0.7-7.2,0.7c-20.2,0.1-40.3,0-60.9,0
		c-4.4,13.5-12.7,22.1-27.7,21.7c-10.5-0.3-18.7-5.3-22.4-14.9c-2.2-5.6-5.2-7.7-11.7-6.8c0.3-5.8,0.6-11.1,1-17.4
		c-4.1-0.2-8.6-0.5-13.6-0.7c-0.3-2.4-0.5-4.7-0.8-7.6c11.5,0,22.6,0,34.3,0c0,2.3,0,4.7,0,7.6c-5.5,0.6-13.3-1.4-11.1,9.7
		c2.4,0,5,0,7.7,0c33.8,0,67.6,0.1,101.4-0.2c4.6-0.1,9.5-1.6,13.8-3.6C444.8,586.5,454.8,581.1,465.9,575.4z M320.5,603.8
		c3.5,9.8,9.1,13.7,18.3,12.8c7.7-0.7,12.4-5,15-12.8C342.3,603.8,331.7,603.8,320.5,603.8z"/>
	<path class="st1" d="M410,431.7c10.9,0.1,19.8,9,19.7,19.8c-0.1,10.8-9,19.6-19.9,19.6c-11,0-19.6-8.7-19.5-19.8
		C390.3,440.3,399.1,431.6,410,431.7z M421.1,451.5c0.1-5.9-5.5-11.5-11.5-11.3c-5.7,0.1-10.8,5.3-10.8,11.1s4.9,11,10.6,11.3
		C415.3,462.9,421,457.5,421.1,451.5z"/>
	<path class="st1" d="M472.7,590.8c1.9-1.1,4-2.3,6.1-3.5c7.4,11.9,3.4,27.1-8.8,34.5c-13.3,8-28.6,3.6-37.3-11.3
		c2.3-1.2,4.4-2.4,6.6-3.6c9.3,10,16.9,12.4,25.2,8.2C472.7,610.8,475.3,603.2,472.7,590.8z"/>
	<path class="st1" d="M289.1,501.9c0-2.9,0-5.2,0-7.9c17.3,0,34.1,0,51.8,0c0.1,2.4,0.2,4.9,0.3,8c-10.2,0-19.6,0-29.4,0
		c-0.8,3.1-1.4,5.7-2.3,8.9c-2.2-0.1-4.4-0.3-7.2-0.4c-0.3-2.6-0.5-5-0.7-8C297.9,502.2,293.9,502.1,289.1,501.9z"/>
</g>
</svg>
