<?xml version="1.0" encoding="utf-8"?>
<!-- Generator: Adobe Illustrator 22.0.0, SVG Export Plug-In . SVG Version: 6.00 Build 0)  -->
<svg version="1.1" id="Calque_1" xmlns="http://www.w3.org/2000/svg" xmlns:xlink="http://www.w3.org/1999/xlink" x="0px" y="0px"
	 viewBox="0 0 431.9 423" style="enable-background:new 0 0 431.9 423;" xml:space="preserve">
<g>
	<path d="M7.4,255.3c67.5,0,135,0,202.9,0c0,24.6,0,49,0,74c-67.6,0-135.2,0-202.9,0C7.4,304.6,7.4,279.9,7.4,255.3z M180.3,291.8
		c0,8.6,0,17.2,0,25.8c0,4.3,2.1,6.7,5.4,6.7c3.3-0.1,5.2-2.5,5.2-6.9c0-17.1,0-34.2,0-51.2c0-4.4-2-6.8-5.4-6.6
		c-4.2,0.2-5.3,3.1-5.3,6.8C180.3,274.9,180.3,283.3,180.3,291.8z M149.1,291.8c0,8.6,0,17.2,0,25.8c0,4.3,2.1,6.7,5.4,6.7
		c3.3-0.1,5.2-2.5,5.2-6.9c0-17.1,0-34.2,0-51.2c0-4.4-2-6.8-5.4-6.6c-4.2,0.2-5.3,3.1-5.3,6.8C149.1,274.9,149.1,283.3,149.1,291.8
		z M129.5,292.1c0-8.6,0-17.2,0-25.8c0-4.5-1.9-6.7-5.3-6.7c-3.5,0-5.3,2.3-5.3,6.7c0,17.1,0,34.2,0,51.2c0,4.3,2,6.8,5.3,6.8
		c3.3,0,5.3-2.5,5.3-6.8C129.5,309.1,129.5,300.6,129.5,292.1z M88.5,291.7c0,8.6,0,17.2,0,25.8c0,4.3,2,6.8,5.4,6.7
		c3.3,0,5.3-2.5,5.3-6.8c0-17.1,0-34.2,0-51.2c0-4.5-1.9-6.7-5.4-6.7c-3.4,0-5.3,2.3-5.3,6.7C88.5,274.8,88.5,283.3,88.5,291.7z
		 M57.3,291.8c0,8.6,0,17.2,0,25.8c0,4.3,2.1,6.7,5.4,6.7c3.3-0.1,5.2-2.5,5.3-6.9c0-17.1,0-34.2,0-51.2c0-4.4-2-6.8-5.4-6.6
		c-4.2,0.2-5.3,3.1-5.3,6.8C57.4,274.9,57.3,283.3,57.3,291.8z M37.7,291.8c0-8.3,0-16.6,0-24.9c0-5-1.7-7.2-5.2-7.3
		c-3.6-0.1-5.5,2.3-5.5,7c0,16.9,0,33.9,0,50.8c0,3.8,1.1,6.5,5.2,6.9c3.4,0.3,5.4-2.4,5.5-7.1C37.7,308.8,37.7,300.3,37.7,291.8z"
		 fill="currentColor"/>
	<path d="M221.3,413c0-24.2,0-48.3,0-73.1c67.9,0,135.6,0,203.2,0c0,24.4,0,48.7,0,73.1C356.8,413,289,413,221.3,413z M404.9,376.4
		c0-8.3,0-16.6,0-24.9c0-4.9-1.7-7.2-5.2-7.3c-3.6-0.1-5.4,2.3-5.4,7c0,16.8,0,33.5,0,50.3c0,4.8,1.8,7.2,5.2,7.3
		c3.7,0.1,5.4-2.3,5.5-7.5C404.9,393,404.9,384.7,404.9,376.4z M363.9,376.5c0,8.5,0,16.9,0,25.4c0,3.7,0.9,6.6,5.2,6.9
		c3.6,0.3,5.5-2.2,5.5-6.9c0-16.9,0-33.8,0-50.8c0-3.7-0.9-6.6-5.2-6.9c-3.6-0.3-5.5,2.2-5.5,6.9C363.9,359.6,363.9,368,363.9,376.5
		z M332.7,376.5c0,8.5,0,16.9,0,25.4c0,4.7,2,7.2,5.5,6.9c4.2-0.3,5.2-3.2,5.2-6.9c0-16.9,0-33.8,0-50.8c0-4.7-2-7.2-5.5-6.9
		c-4.2,0.3-5.2,3.2-5.2,6.9C332.7,359.5,332.7,368,332.7,376.5z M313.1,377c0-8.6,0-17.2,0-25.8c0-4.7-1.9-7.2-5.5-7
		c-4.2,0.3-5.2,3.1-5.2,6.8c0,16.9,0,33.8,0,50.8c0,4.7,1.9,7.2,5.5,7c4.2-0.3,5.2-3.1,5.2-6.8C313,393.6,313.1,385.3,313.1,377z
		 M282.8,376.9c0-8.6,0-17.2,0-25.8c0-3.7-0.9-6.6-5.2-6.9c-3.6-0.3-5.5,2.2-5.5,6.9c0,16.9,0,33.8,0,50.8c0,3.7,0.9,6.6,5.2,6.9
		c3.6,0.3,5.5-2.2,5.5-6.9C282.8,393.5,282.8,385.2,282.8,376.9z M251.6,376.7c0-8.6,0-17.2,0-25.8c0-4.5-1.9-6.7-5.3-6.8
		c-3.4,0-5.4,2.3-5.4,6.7c0,17.1,0,34.1,0,51.2c0,4.4,1.9,6.7,5.3,6.8c3.4,0,5.4-2.3,5.4-6.7C251.6,393.7,251.6,385.2,251.6,376.7z"
		 fill="currentColor"/>
	<path d="M7.4,339.9c67.5,0,135,0,203.2,0c0,24.5,0,48.8,0,73.1c-67.7,0-135.5,0-203.2,0C7.4,388.6,7.4,364.3,7.4,339.9z M180.3,376
		c0,8.6,0,17.2,0,25.8c0,4.7,2,7.2,5.5,6.9c4.2-0.3,5.2-3.2,5.2-6.9c0-16.9,0-33.8,0-50.8c0-4.7-2-7.2-5.5-6.9
		c-4.2,0.3-5.2,3.2-5.2,6.9C180.3,359.4,180.3,367.7,180.3,376z M149.1,376c0,8.6,0,17.2,0,25.8c0,4.7,2,7.2,5.5,6.9
		c4.2-0.3,5.2-3.2,5.2-6.9c0-16.9,0-33.8,0-50.8c0-4.7-2-7.2-5.5-6.9c-4.2,0.3-5.2,3.2-5.2,6.9C149.2,359.4,149.1,367.7,149.1,376z
		 M118.8,376c0,8.6,0,17.2,0,25.8c0,4.7,2,7.2,5.5,6.9c4.2-0.3,5.2-3.2,5.2-6.9c0-16.9,0-33.8,0-50.8c0-4.7-2-7.2-5.5-6.9
		c-4.2,0.3-5.2,3.2-5.2,6.9C118.9,359.4,118.8,367.7,118.8,376z M99.2,376.5c0-8.5,0-16.9,0-25.4c0-4.7-2-7.2-5.5-6.9
		c-4.2,0.3-5.2,3.2-5.2,6.9c0,16.9,0,33.8,0,50.8c0,4.7,2,7.2,5.5,6.9c4.2-0.3,5.2-3.2,5.2-6.9C99.2,393.4,99.2,385,99.2,376.5z
		 M68.9,376.6c0-8.6,0-17.2,0-25.8c0-4.4-1.9-6.7-5.4-6.7c-3.4,0-5.3,2.3-5.3,6.8c0,17.1,0,34.1,0,51.2c0,4.4,1.9,6.7,5.4,6.7
		c3.4,0,5.3-2.3,5.3-6.8C68.9,393.6,68.9,385.1,68.9,376.6z M37.7,376.4c0-8.5,0-16.9,0-25.4c0-3.7-0.9-6.6-5.2-6.9
		c-3.6-0.3-5.5,2.2-5.5,6.9c0,16.9,0,33.8,0,50.8c0,3.7,1,6.6,5.2,6.9c3.6,0.3,5.5-2.2,5.5-6.9C37.7,393.4,37.7,384.9,37.7,376.4z"
		 fill="currentColor"/>
	<path d="M138.3,95c29.6,23.8,59.3,47.6,88.9,71.3c2.3,1.8,4.6,3.5,7.2,5.4c0,23.8,0,48.1,0,72.6c-67.6,0-134.9,0-202.6,0
		c0-24.3,0-48.7,0-72.4c32.2-25.8,64.1-51.4,96-77c0,0-0.1-0.2-0.1-0.2c0.4,0.9,0.8,2.5,1.3,2.6c2.7,0.3,5.5,0.3,8.2,0
		c0.5,0,0.9-1.7,1.3-2.6L138.3,95z M215.1,170.4c-1.1-1.1-1.6-1.6-2.2-2c-25.6-20.7-51.3-41.3-76.9-62.1c-2.4-1.9-3.8-1.6-6,0.2
		c-18.3,14.9-36.7,29.7-55.1,44.5c-7.8,6.3-15.6,12.6-24.1,19.5C106,170.4,160.1,170.4,215.1,170.4z M204.4,207.1
		c0,8.7,0,17.5,0,26.2c0,3.6,1.4,6.1,5.2,6.5c3.3,0.3,5.5-2.4,5.5-6.6c0-17.2,0-34.4,0-51.5c0-4.4-1.9-6.7-5.4-6.6
		c-3.4,0-5.2,2.3-5.3,6.8C204.3,190.2,204.4,198.7,204.4,207.1z M183.9,207.6c0-8.4,0-16.9,0-25.3c0-4.9-1.7-7.2-5.2-7.2
		c-3.5-0.1-5.4,2.3-5.4,7.1c0,16.9,0,33.8,0,50.7c0,4.6,2.1,7.4,5.5,7.1c4-0.4,5.3-3.1,5.2-6.9C183.8,224.5,183.9,216,183.9,207.6z
		 M142.9,207.1c0,8.7,0,17.5,0,26.2c0,3.6,1.4,6.1,5.2,6.5c3.3,0.3,5.5-2.4,5.5-6.6c0-17.2,0-34.4,0-51.5c0-4.4-1.9-6.7-5.4-6.7
		c-3.4,0-5.3,2.3-5.3,6.8C142.8,190.2,142.9,198.7,142.9,207.1z M123.3,207.4c0-8.4,0-16.9,0-25.3c0-4.7-1.9-7.2-5.4-7
		c-4.2,0.3-5.3,3.1-5.3,6.8c0,17,0.1,34.1,0,51.1c0,3.8,1.2,6.5,5.3,6.9c3.4,0.3,5.4-2.5,5.4-7.1
		C123.3,224.3,123.3,215.8,123.3,207.4z M93,207.1c0-8.3,0-16.6,0-24.9c0-4.9-1.8-7.2-5.3-7.2c-3.5,0-5.4,2.3-5.4,7.1
		c0,16.9,0,33.8,0,50.7c0,4.6,2.1,7.4,5.5,7c4-0.4,5.3-3.1,5.2-6.9C92.9,224.3,93,215.7,93,207.1z M61.8,207.3c0-8.6,0-17.2,0-25.8
		c0-3.6-1.2-6.1-5.1-6.5c-3.4-0.3-5.5,2.2-5.5,6.5c0,17.2,0,34.4,0,51.5c0,4.3,2.1,6.8,5.3,6.8c3.3,0,5.3-2.5,5.3-6.8
		C61.8,224.5,61.8,215.9,61.8,207.3z" fill="currentColor"/>
	<path d="M127.8,76.1c-7.1-2.9-11.4-7.8-11.7-15.7c-0.1-3.3,1.3-5.5,4.7-5.9c3.4-0.3,5.4,1.6,5.8,4.8c0.4,3.5,1.9,6,5.4,6.6
		c3.3,0.6,5.9-1,7-4.1c1.2-3.3,0.2-7.3-3.1-7.7c-8.9-1.1-8.5-7-8.2-13.3c0-0.6-0.1-1.1-0.2-1.9c-4.2-1.2-11.4,1.9-11.3-5.8
		c0.1-7.3,6.9-4.5,11.5-5.6c0-3.8,0-7.6,0-11.4c0-3.6,1.4-6.2,5.3-6.2c3.9,0,5.4,2.5,5.4,6.1c0,3.8,0,7.6,0,11.5
		c4.6,1.2,11.7-1.8,11.5,5.9c-0.2,7.3-7,4.4-12.2,5.7c1,1.8,1.4,4.1,2.7,4.8c6.5,3.8,10.1,9.1,9.6,16.7c-0.4,7.6-4.9,12.5-11.7,15.3
		l0.1,0.2c0-2.9,0-5.8,0-8.7c-3.9,0-7.2,0-10.8,0c0,3.1,0,5.9,0,8.7L127.8,76.1z" fill="currentColor"/>
	<path d="M138.3,76.1c0,6.3,0,12.6,0,18.9c0,0,0.1-0.2,0.1-0.2c-3.6-3.4-7.2-3.3-10.8,0c0,0,0.1,0.2,0.1,0.2c0-6.3,0-12.6,0-18.9
		c0,0-0.1,0.2-0.1,0.2c3.6,0,7.2,0,10.8,0L138.3,76.1z" fill="currentColor"/>
</g>
</svg>
