<?xml version="1.0" encoding="utf-8"?>
<!-- Generator: Adobe Illustrator 22.0.0, SVG Export Plug-In . SVG Version: 6.00 Build 0)  -->
<svg version="1.1" id="Calque_1" xmlns="http://www.w3.org/2000/svg" xmlns:xlink="http://www.w3.org/1999/xlink" x="0px" y="0px"
	 viewBox="0 0 735 931.5" style="enable-background:new 0 0 735 931.5;" xml:space="preserve">
<g>
	<path d="M48.8,914.1c-19.2-8-25.3-22.4-25.3-42.9c0.5-215.7,0.4-431.3,0.1-647c0-10.2,3-17.4,10.2-24.6
		C92.1,142,150,83.9,207.9,25.8c5.8-5.8,11.7-8.5,20-8.4c44.6,0.3,89.3,0.2,133.9,0.2c1.5,0,2.9,0,4.4,0c8.8,0.4,14.3,5.5,14.3,13.2
		c-0.1,7.7-5.6,13-14.5,13c-36.5,0.1-73,0.1-109.4,0.1c-6.9,0-13.9,0-21.8,0c0,4,0,7.1,0,10.2c0,42.3,0,84.6,0,126.9
		c0,30.2-17.6,47.8-47.8,47.8c-41.7,0.1-83.5,0-125.2,0c-3.5,0-6.9,0-11.6,0c0,3.8,0,6.9,0,10c0,211.9,0,423.7,0,635.6
		c0,12.8,0.7,13.5,13.4,13.5c68,0,136,0,204,0c2,0,4.1,0.1,6.1,0c7.4-0.3,14.1,0.5,17.3,8.6c3.2,8.3-1.9,13-7.4,17.6
		C205.3,914.1,127.1,914.1,48.8,914.1z M71.9,202.3c0.8,0.1,2.5,0.3,4.1,0.3c37.3,0,74.7,0.1,112,0c14.5-0.1,20.4-6.3,20.5-21.1
		c0.1-36.8,0-73.5,0-110.3c0-2.1-0.4-4.2-0.5-5C162.8,111.4,117.4,156.8,71.9,202.3z" fill="currentColor"/>
	<path d="M327.3,914.1c-6.5-4-11-9.3-8.3-17.3c2.7-8,9.5-9.1,17.1-9.1c111.5,0.1,223,0.1,334.4,0.1c14,0,14.5-0.5,14.5-14.1
		c0-272,0-544,0-816c0-13.4-0.6-14-13.7-14c-81.1,0-162.3,0-243.4,0c-2.3,0-4.7,0.1-7,0c-8.3-0.5-13.6-5.5-13.7-12.9
		c-0.1-7.4,5.1-12.7,13.3-13.3c1.7-0.1,3.5,0,5.3,0c82.6,0,165.2,0,247.8,0c24.9,0,37.7,12.8,37.7,37.7c0,273.7-0.1,547.5,0.2,821.2
		c0,19-8.8,30.4-25.1,37.7C566.6,914.1,447,914.1,327.3,914.1z" fill="currentColor"/>
	<path d="M367.2,768c-78.8,0-157.6,0-236.4,0c-22.9,0-32.4-9.5-32.4-32.5c0-94.2,0-188.5,0-282.7c0-22.7,9.7-32.3,32.7-32.3
		c157.6,0,315.1,0,472.7,0c23.3,0,32.8,9.5,32.8,33c0,94,0,187.9,0,281.9c0,23.1-9.4,32.6-32.3,32.6C525.3,768,446.3,768,367.2,768z
		 M125.3,580.7c111.2,0,221.6,0,332.3,0c0-18,0-35.3,0-53.1c-111,0-221.4,0-332.3,0C125.3,545.4,125.3,562.7,125.3,580.7z
		 M457.6,447.5c-111.4,0-221.7,0-332.3,0c0,18,0,35.4,0,53c111,0,221.4,0,332.3,0C457.6,482.7,457.6,465.3,457.6,447.5z M125.3,661
		c111.3,0,221.7,0,332.3,0c0-18,0-35.3,0-53c-111,0-221.4,0-332.3,0C125.3,625.7,125.3,643.1,125.3,661z M125.2,741.1
		c111.3,0,221.7,0,332.3,0c0-17.9,0-35.3,0-52.6c-111.1,0-221.4,0-332.3,0C125.2,706.2,125.2,723.2,125.2,741.1z M609.9,580.9
		c0-18.1,0-35.5,0-53.1c-42,0-83.5,0-124.8,0c0,18,0,35.4,0,53.1C526.8,580.9,567.9,580.9,609.9,580.9z M484.9,688.4
		c0,18,0,35.2,0,52.6c41.9,0,83.4,0,125,0c0-17.9,0-35,0-52.6C568.1,688.4,526.9,688.4,484.9,688.4z M609.2,500.4
		c0-18.1,0-35.8,0-53c-42.2,0-83.2,0-124.2,0c0,18,0,35.4,0,53C526.9,500.4,568.2,500.4,609.2,500.4z M484.9,661
		c42.3,0,83.5,0,124.9,0c0-18,0-35.4,0-53c-41.9,0-83.2,0-124.9,0C484.9,625.8,484.9,643.1,484.9,661z" fill="currentColor"/>
	<path d="M253.5,308.4c-40.8,0-81.6-0.1-122.4,0c-7.3,0-13.4-1.5-15.8-9.3c-2.3-7.5,2.1-14.9,10-16.6c2.8-0.6,5.8-0.4,8.7-0.4
		c80.2,0,160.3,0,240.5,0c1.7,0,3.5-0.1,5.2,0c8.9,0.5,14.3,5.6,14.2,13.3c-0.1,7.7-5.5,12.8-14.5,12.9
		c-36.7,0.1-73.4,0.1-110.2,0.1C264,308.4,258.7,308.4,253.5,308.4z" fill="currentColor"/>
	<path d="M256.2,375.3c-40,0-80,0-119.9,0c-3.2,0-6.5,0.1-9.6-0.5c-6.2-1.1-9.7-5.3-10.1-11.5c-0.5-6.6,2.5-11.4,8.9-13.3
		c2.7-0.8,5.7-0.9,8.6-0.9c81.1,0,162.3,0,243.4,0c2.9,0,5.9,0.1,8.7,0.8c6.4,1.8,9.7,6.4,9.4,13c-0.3,6.6-4.1,10.8-10.7,12
		c-3.1,0.5-6.4,0.4-9.6,0.4C335.6,375.4,295.9,375.3,256.2,375.3z" fill="currentColor"/>
	<path d="M541.8,176.9c26,0,51.9,0,77.9,0c10.8,0,17,5,16.8,13.4c-0.2,8.1-6.2,12.8-16.5,12.8c-51.9,0-103.9,0-155.8,0
		c-10.9,0-16.8-4.9-16.7-13.4c0.2-8.2,6-12.8,16.4-12.8C489.9,176.8,515.8,176.9,541.8,176.9z" fill="currentColor"/>
	<path d="M541,846.4c-26.5,0-53.1,0-79.6,0c-6.3,0-11.7-1.4-14.5-7.6c-3.5-7.5,0.5-15.9,8.6-17.9c3.1-0.8,6.4-0.8,9.5-0.8
		c50.2,0,100.3,0,150.5,0c2.6,0,5.3-0.1,7.8,0.4c7.4,1.3,11.5,6,11.2,13.3c-0.3,7.3-4.6,12-12.2,12.3c-10.2,0.4-20.4,0.2-30.6,0.2
		C574.8,846.4,557.9,846.4,541,846.4z" fill="currentColor"/>
	<path d="M540.1,375.3c-25.1,0-50.2,0-75.2,0c-2.9,0-5.9,0.1-8.7-0.5c-6.2-1.1-9.7-5.1-10.2-11.4c-0.5-6.6,2.3-11.5,8.8-13.4
		c3.3-1,6.9-1,10.4-1c50.2-0.1,100.3,0,150.5,0c2.6,0,5.3-0.1,7.8,0.4c7.3,1.3,11.5,6,11.2,13.3c-0.3,7.3-4.7,11.8-12.2,12.3
		c-5.5,0.3-11.1,0.2-16.6,0.2C583.8,375.4,562,375.3,540.1,375.3z" fill="currentColor"/>
	<path d="M539.2,308.4c-25.7,0-51.3,0-77,0c-10.7,0-16.2-4.4-16.4-12.7c-0.2-8.5,5.8-13.5,16.7-13.5c51.9,0,103.8,0,155.8,0
		c10.2,0,16.3,4.9,16.5,12.9c0.2,8.4-5.8,13.3-16.8,13.3C591.7,308.5,565.4,308.4,539.2,308.4z" fill="currentColor"/>
	<path d="M541.7,110.1c26,0,51.9,0,77.9,0c11.1,0,17,4.8,16.9,13.2c-0.1,8-6.3,13-16.4,13c-52.2,0.1-104.4,0.1-156.7,0
		c-13,0-20.6-10.8-13.7-19.8c2.6-3.5,8.7-6,13.3-6.1C489.2,109.8,515.4,110.1,541.7,110.1z" fill="currentColor"/>
</g>
</svg>
