<svg width="24" height="24" viewBox="0 0 24 24" fill="none" xmlns="http://www.w3.org/2000/svg">
<path d="M7.99797 16H11.998M7.99797 11H15.998M7.49997 3.5C5.94397 3.547 5.01697 3.72 4.37497 4.362C3.49597 5.242 3.49597 6.657 3.49597 9.488V15.994C3.49597 18.826 3.49597 20.241 4.37497 21.121C5.25297 22 6.66797 22 9.49597 22H14.496C17.325 22 18.739 22 19.617 21.12C20.497 20.241 20.497 18.826 20.497 15.994V9.488C20.497 6.658 20.497 5.242 19.617 4.362C18.976 3.72 18.048 3.547 16.492 3.5" stroke="white" stroke-width="1.5" stroke-linecap="round" stroke-linejoin="round"/>
<path d="M7.49597 3.75C7.49597 2.784 8.27997 2 9.24597 2H14.746C15.2101 2 15.6552 2.18437 15.9834 2.51256C16.3116 2.84075 16.496 3.28587 16.496 3.75C16.496 4.21413 16.3116 4.65925 15.9834 4.98744C15.6552 5.31563 15.2101 5.5 14.746 5.5H9.24597C8.78184 5.5 8.33672 5.31563 8.00853 4.98744C7.68035 4.65925 7.49597 4.21413 7.49597 3.75Z" stroke="white" stroke-width="1.5" stroke-linecap="round" stroke-linejoin="round"/>
</svg>
