<?xml version="1.0" encoding="utf-8"?>
<!-- Generator: Adobe Illustrator 22.0.0, SVG Export Plug-In . SVG Version: 6.00 Build 0)  -->
<svg version="1.1" id="Calque_1" xmlns="http://www.w3.org/2000/svg" xmlns:xlink="http://www.w3.org/1999/xlink" x="0px" y="0px"
	 viewBox="0 0 1026 886" style="enable-background:new 0 0 1026 886;" xml:space="preserve">
<g>
	<path d="M240,703.8c-6.8,3.9-13.4,7.7-19.9,11.5c-13.1,7.5-26.2,15-39.3,22.6c-1.5,0.9-3.2,1.5-2.1,4c0.2,0.4-0.7,1.8-1.4,2.2
		c-26.8,15.9-53.7,31.8-80.6,47.6c-0.1,0.1-0.2,0-0.9,0.2c-3-5.2-6.2-10.5-9.3-15.9c-19.8-35.4-36.6-72.1-49-110.7
		c-8.8-27.2-15.2-55-19.4-83.3c-4.3-28.8-5.2-57.7-4.1-86.6c1.2-31,5.6-61.8,12.7-92.1c9.8-42,24.9-82.1,45.1-120.2
		c15.2-28.6,32.7-55.8,53.7-80.5c13.1-15.5,26.8-30.7,41.3-44.9c30.3-29.6,64.3-54.6,101.3-75.3c28.2-15.8,57.6-28.8,88.3-38.8
		c28.4-9.3,57.3-16.1,86.9-20.1c18.8-2.5,37.6-4.4,56.6-4.5c13.2,0,26.5-0.8,39.6,0.3c21.3,1.8,42.6,4.3,63.8,7.5
		c23.7,3.7,46.8,10.1,69.5,17.7c47.3,16,91.2,38.5,131.7,67.6c24.6,17.7,47.5,37.4,68.5,59.2c30.5,31.8,56.5,66.9,77.7,105.6
		c20.7,37.6,36.7,77.1,46.5,118.8c4.9,20.8,8.6,42,11.7,63.1c3.9,26.7,4.3,53.8,3.1,80.7c-2,44.4-9.7,87.9-23.4,130.2
		c-8,24.9-17.6,49.1-29.5,72.4c-8.6,16.7-18.4,32.9-27.7,49.3c-0.4,0.6-0.9,1.2-1.5,2.1c-7.3-4.6-14.4-9-21.6-13.5
		c-19.6-12.4-39.3-24.7-58.9-37.2c-0.9-0.6-1.2-2-1.9-2.9c-0.7-0.8-1.5-1.6-2.4-2.1c-18.5-10.7-37-21.3-55.5-31.9
		c-1.2-0.7-2.3-1.4-3.7-2.3c3.8-6.4,7.4-12.5,11-18.6c3.8-6.3,7.7-12.6,11.2-19c1.5-2.7,2.7-3.2,5.5-1.6
		c17.8,10.2,35.6,20.2,53.4,30.3c4.2,2.4,4.2,2.4,6.2-1.9c15.8-33.2,27.3-67.8,33.2-104.1c2.3-14.4,3.6-28.9,5.3-43.4
		c0.1-0.7,0-1.5,0-2.6c-1.7,0-3.2,0-4.7,0c-21.2,0-42.5-0.1-63.7,0.1c-3.4,0-4.5-1-4.5-4.4c0.2-13.4,0.2-26.8,0-40.1
		c-0.1-3.5,1.1-4.4,4.5-4.4c21.2,0.1,42.5,0,63.7,0.1c3.7,0,5.2-0.9,4.7-4.8c-2.2-17-3.7-34.2-6.6-51.1
		c-5.5-32.4-15.7-63.4-29.6-93.1c-0.3-0.6-0.6-1.1-0.8-1.7c-1.1-3.5-3-3.9-6.1-2c-4.1,2.6-8.5,4.7-13.2,7.3
		c-8.2-13.8-16.2-27.3-24.4-41.1c5.7-3.7,11.1-7.2,17-11.1c-29.9-45.3-68-81.7-113.4-111.8c-12,20.4-23.9,40.4-36,60.9
		c-13.6-8.1-27.2-16.1-41.1-24.3c1.7-3,3.2-5.8,4.8-8.6c9.1-16.2,18.2-32.4,27.5-48.5c1.7-3,1.3-4.3-1.9-5.8
		c-31.9-15.2-65.2-26.4-100-32.7c-14.4-2.6-29.1-3.9-43.7-5.5c-6.9-0.8-6.9-0.5-6.9,6.4c0,20.5-0.1,41,0.1,61.5c0,3.7-0.8,5-4.7,4.9
		c-13.4-0.2-26.7-0.2-40.1,0c-3.1,0-4.1-1-4.1-4.1c0.1-21.5,0.1-43,0.1-64.5c0-5.2-0.1-5.2-5.3-4.5c-11.4,1.4-22.9,2-34.1,4.1
		c-17.6,3.4-35.1,7.3-52.4,11.9c-20.4,5.4-39.8,13.7-59,22.7c-3.1,1.5-3.3,2.9-1.7,5.6c10.2,17.8,20.2,35.6,30.2,53.4
		c0.7,1.2,1.3,2.4,2.1,3.8c-13.8,8.2-27.3,16.2-41.1,24.3c-11.9-20.2-23.8-40.2-36-60.9C246,214.2,208,250.7,177.7,296.2
		c20.9,12,41.5,23.9,62.5,36c-8.1,13.7-16.1,27.2-24.4,41.1c-6.6-3.6-12.9-7-19.2-10.5c-13.2-7.3-26.5-14.5-39.6-21.9
		c-2.9-1.7-4.2-1.1-5.6,1.8c-12.9,27.4-23,55.9-28.6,85.6c-3.5,18.1-5.7,36.4-8.2,54.6c-1.5,10.7-1.3,10.7,9.3,10.7
		c19.6,0,39.2,0.1,58.9-0.1c3.4,0,4.5,0.9,4.5,4.4c-0.2,13.5-0.2,27,0,40.5c0,3.2-1,4.1-4.1,4c-21.2-0.1-42.5-0.1-63.7-0.1
		c-1.5,0-3,0-5.2,0c0.4,5.5,0.5,10.8,1.1,16.1c2.4,21.3,6.3,42.4,11.9,63.1c6.7,24.7,15.5,48.7,26.2,72c1.3,2.8,2.6,2.6,4.9,1.4
		c17.7-10.1,35.4-20.1,53.1-30.1c4.4-2.5,4.4-2.5,7,1.7c6.5,10.9,13.1,21.9,19.6,32.8C238.6,700.8,239.2,702.1,240,703.8z" fill="currentColor"/>
	<path d="M827.1,338.5c-8.1,6.1-16.1,12.1-24.2,18.2c-51.5,38.5-102.9,77-154.4,115.5c-11.4,8.5-22.8,17-34.3,25.5
		c-2.5,1.9-3.5,3.6-3,7.1c3.9,30.3-4.5,57.1-24.9,79.8c-14.8,16.5-33.3,27-55.2,30.9c-29.7,5.4-56.5-1.4-80.1-20
		c-20.5-16.2-32.9-37.5-36.6-63.3c-4.1-28.9,3.2-55,21.8-77.6c15.9-19.3,36.4-31.2,61-34.9c27.1-4.1,52.1,1.8,74.3,18.1
		c2.8,2,4.9,2.1,7.8,0.8c30.7-13.3,61.4-26.5,92.1-39.7c44.1-19,88.2-38,132.4-57c4.6-2,9.3-3.6,13.7-6
		C821.7,333.9,824.4,335,827.1,338.5z" fill="currentColor"/>
	<path d="M512.9,867.3c-64.6,0-129.2,0-193.8,0c-5.4,0-5.4,0-5.4-5.3c0-29.6,0-59.2,0-88.9c0-4.9,0-4.9,5-4.9
		c129.5,0,258.9,0,388.4,0c5,0,5,0,5,4.9c0,29.7,0,59.5,0,89.2c0,4.9,0,4.9-5,4.9C642.4,867.3,577.6,867.3,512.9,867.3z" fill="currentColor"/>
</g>
</svg>
