<?xml version="1.0" encoding="iso-8859-1"?>
<!-- Generator: Adobe Illustrator 21.0.0, SVG Export Plug-In . SVG Version: 6.00 Build 0)  -->
<svg version="1.1" id="Layer_1" xmlns="http://www.w3.org/2000/svg" xmlns:xlink="http://www.w3.org/1999/xlink" x="0px" y="0px"
	 viewBox="0 0 274 329" style="enable-background:new 0 0 274 329;" xml:space="preserve">
<title>GUINDYTECHNOLOGY_STD</title>
<g>
	<path style="fill:#439539;" d="M87,307.5c0.7,0.4,1.5,0.6,2.3,0.6c1.3,0,2.1-0.7,2.1-1.7s-0.5-1.5-1.9-2c-1.6-0.6-2.6-1.4-2.6-2.8
		c0-1.6,1.3-2.7,3.2-2.7c0.8,0,1.5,0.1,2.2,0.5l-0.4,1c-0.6-0.3-1.2-0.5-1.9-0.5c-1.4,0-1.9,0.8-1.9,1.5c0,0.9,0.6,1.4,2,1.9
		c1.7,0.6,2.6,1.5,2.6,2.9s-1.1,2.9-3.5,2.9c-0.9,0-1.8-0.2-2.6-0.6L87,307.5z"/>
	<path style="fill:#439539;" d="M102.9,304.7c-0.1-1.4-0.2-3.1-0.1-4.3l0,0c-0.4,1.2-0.8,2.4-1.3,3.8l-1.8,4.9h-1l-1.6-4.8
		c-0.5-1.4-0.9-2.7-1.2-3.9l0,0c0,1.2-0.1,2.9-0.2,4.4l-0.3,4.3h-1.3l0.7-10h1.7l1.7,4.9c0.4,1.2,0.8,2.3,1,3.4h0.1
		c0.2-1,0.6-2.1,1-3.4l1.8-4.9h1.6l0.6,10H103L102.9,304.7z"/>
	<path style="fill:#439539;" d="M107.9,306l-1,3.1h-1.3l3.4-10h1.6l3.4,10h-1.4l-1.1-3.1H107.9z M111.2,305l-1-2.9
		c-0.2-0.7-0.4-1.2-0.5-1.8l0,0c-0.1,0.6-0.3,1.2-0.5,1.8l-1,2.9H111.2z"/>
	<path style="fill:#439539;" d="M115.4,299.2c0.8-0.1,1.7-0.2,2.5-0.2c1-0.1,2.1,0.2,2.9,0.8c0.5,0.5,0.8,1.2,0.8,1.9
		c0,1.2-0.8,2.2-1.9,2.6l0,0c0.8,0.4,1.4,1.1,1.5,2c0.2,0.9,0.4,1.9,0.8,2.8h-1.3c-0.3-0.8-0.5-1.6-0.7-2.4c-0.3-1.4-0.8-1.9-2-2
		h-1.2v4.3h-1.3L115.4,299.2z M116.7,303.8h1.3c1.4,0,2.3-0.8,2.3-1.9c0-1.3-0.9-1.9-2.3-1.9c-0.4,0-0.9,0-1.3,0.1V303.8z"/>
	<path style="fill:#439539;" d="M125.5,300.2h-3.1v-1.1h7.4v1.1h-3.1v8.9h-1.3v-8.9H125.5z"/>
	<path style="fill:#439539;" d="M135.4,299.1v10h-1.3v-10H135.4z"/>
	<path style="fill:#439539;" d="M139.6,300.2h-3.1v-1.1h7.5v1.1h-3.1v8.9h-1.3L139.6,300.2L139.6,300.2z"/>
	<path style="fill:#439539;" d="M148.1,307.5c0.7,0.4,1.5,0.6,2.3,0.6c1.3,0,2.1-0.7,2.1-1.7s-0.5-1.5-1.9-2
		c-1.6-0.6-2.7-1.4-2.7-2.8c0-1.6,1.3-2.7,3.2-2.7c0.8,0,1.5,0.1,2.2,0.5l-0.4,1c-0.6-0.3-1.2-0.5-1.9-0.5c-1.4,0-1.9,0.8-1.9,1.5
		c0,0.9,0.6,1.4,2,1.9c1.7,0.6,2.6,1.5,2.6,2.9s-1.1,2.9-3.5,2.9c-0.9,0-1.8-0.2-2.6-0.6L148.1,307.5z"/>
	<path style="fill:#439539;" d="M160.8,304.4h-3.9v3.6h4.4v1.1h-5.6v-10h5.4v1.1H157v3.2h3.9L160.8,304.4z"/>
	<path style="fill:#439539;" d="M162.9,299.2c0.8-0.1,1.7-0.2,2.5-0.2c1-0.1,2.1,0.2,2.9,0.8c0.5,0.5,0.8,1.2,0.8,1.9
		c0,1.2-0.8,2.2-1.9,2.6l0,0c0.8,0.4,1.4,1.1,1.5,2c0.2,0.9,0.4,1.9,0.8,2.8h-1.3c-0.3-0.8-0.5-1.6-0.7-2.4c-0.3-1.4-0.8-1.9-2-2
		h-1.2v4.3H163L162.9,299.2z M164.2,303.8h1.3c1.4,0,2.3-0.8,2.3-1.9c0-1.3-0.9-1.9-2.3-1.9c-0.4,0-0.9,0-1.3,0.1V303.8z"/>
	<path style="fill:#439539;" d="M173.4,309.1l-3.3-10h1.4l1.6,4.9c0.4,1.4,0.8,2.6,1.1,3.8l0,0c0.3-1.2,0.7-2.4,1.1-3.7l1.7-5h1.4
		l-3.6,10L173.4,309.1z"/>
	<path style="fill:#439539;" d="M180.8,299.1v10h-1.3v-10H180.8z"/>
	<path style="fill:#439539;" d="M190.1,308.8c-0.8,0.3-1.7,0.5-2.6,0.5c-2.6,0.2-4.8-1.8-5-4.4c0-0.2,0-0.5,0-0.7
		c-0.2-2.8,1.9-5.1,4.7-5.3c0.2,0,0.4,0,0.5,0c0.8,0,1.6,0.1,2.4,0.5l-0.3,1.1c-0.6-0.3-1.3-0.4-2-0.4c-2.4,0-3.9,1.5-3.9,4.1
		c0,2.5,1.4,4,3.9,4c0.7,0,1.4-0.1,2.1-0.4L190.1,308.8z"/>
	<path style="fill:#439539;" d="M196.9,304.4H193v3.6h4.4v1.1h-5.6v-10h5.4v1.1H193v3.2h3.9V304.4z"/>
	<path style="fill:#439539;" d="M198.8,307.5c0.7,0.4,1.5,0.6,2.3,0.6c1.3,0,2.1-0.7,2.1-1.7s-0.5-1.5-1.9-2
		c-1.6-0.6-2.6-1.4-2.6-2.8c0-1.6,1.3-2.7,3.2-2.7c0.8,0,1.5,0.1,2.2,0.5l-0.4,1c-0.6-0.3-1.2-0.5-1.9-0.5c-1.4,0-1.9,0.8-1.9,1.5
		c0,0.9,0.6,1.4,2,1.9c1.7,0.6,2.6,1.5,2.6,2.9s-1.1,2.9-3.5,2.9c-0.9,0-1.8-0.2-2.6-0.6L198.8,307.5z"/>
	<path d="M34.8,290.3c-2.8,1-5.7,1.5-8.7,1.5c-4.3,0-7.8-1.1-10.6-3.7c-2.7-2.8-4.1-6.6-3.9-10.5c0-8.4,5.8-14.6,15.3-14.6
		c2.4-0.1,4.8,0.4,7,1.3l-0.9,3c-2-0.9-4.1-1.3-6.2-1.2c-6.9,0-11.3,4.3-11.3,11.4s4.3,11.4,10.9,11.4c1.7,0.1,3.3-0.2,4.9-0.8v-8.4
		h-5.7v-2.9h9.3L34.8,290.3z"/>
	<path d="M41.7,276.1v9.1c0,3.5,1.5,4.9,3.6,4.9c2.3,0,3.8-1.5,3.8-4.9v-9.1h2v9c0,4.7-2.5,6.7-5.8,6.7c-3.2,0-5.6-1.8-5.6-6.6v-9.1
		H41.7z"/>
	<path d="M57,276.1v15.4h-2v-15.4H57z"/>
	<path d="M60.9,291.6v-15.4h2.2L68,284c1,1.6,2,3.3,2.8,5l0,0c-0.2-2.1-0.2-3.9-0.2-6.4v-6.5h1.9v15.4h-2l-4.9-7.8
		c-1.1-1.7-2-3.4-2.9-5.2h-0.1c0.1,1.9,0.2,3.8,0.2,6.4v6.6L60.9,291.6z"/>
	<path d="M76.5,276.4c1.4-0.2,2.8-0.3,4.2-0.3c2.9,0,4.9,0.7,6.3,1.9c1.5,1.4,2.3,3.5,2.2,5.5c0.1,2.2-0.7,4.4-2.2,6
		c-1.4,1.5-3.8,2.2-6.8,2.2c-1.2,0-2.4-0.1-3.6-0.2L76.5,276.4z M78.5,290c0.7,0.1,1.3,0.1,2,0.1c4.3,0,6.6-2.4,6.6-6.5
		c0-3.6-2-6-6.2-6c-0.8,0-1.6,0.1-2.3,0.2L78.5,290z"/>
	<path style="fill:#439539;" d="M95.2,291.6V285l-4.9-8.9h2.3l2.2,4.3c0.6,1.2,1.1,2.1,1.5,3.2l0,0c0.4-1,1-2,1.6-3.2l2.2-4.3h2.3
		l-5.2,8.9v6.6H95.2z"/>
	<path d="M125.9,278.1h-4.7v-1.7h11.4v1.7h-4.7v13.7h-2V278.1z"/>
	<path d="M142.8,284.6h-6v5.6h6.7v1.6h-8.7v-15.4h8.3v1.7h-6.3v4.9h6V284.6z"/>
	<path d="M157.3,291.3c-1.3,0.5-2.7,0.8-4.1,0.7c-4.4,0-7.6-2.8-7.6-7.8c-0.2-4.2,3-7.9,7.2-8.1c0.3,0,0.6,0,0.8,0
		c1.3-0.1,2.5,0.2,3.7,0.7l-0.5,1.6c-1-0.4-2-0.7-3.1-0.6c-3.6,0-6,2.3-6,6.4c0,3.8,2.2,6.2,5.9,6.2c1.1,0,2.2-0.2,3.2-0.6
		L157.3,291.3z"/>
	<path d="M162.3,276.4v6.5h7.5v-6.5h2v15.4h-2v-7.2h-7.5v7.2h-2v-15.4H162.3z"/>
	<path d="M175.7,291.8v-15.4h2.2l4.9,7.8c1,1.6,2,3.3,2.8,5l0,0c-0.2-2.1-0.2-3.9-0.2-6.4v-6.5h1.9v15.4h-2l-4.9-7.8
		c-1.1-1.7-2-3.4-2.9-5.2h-0.1c0.1,1.9,0.2,3.8,0.2,6.4v6.6h-1.9V291.8z"/>
	<path d="M204.4,283.9c0,5.3-3.2,8.1-7.2,8.1s-6.9-3.2-6.9-7.8c0-4.9,3-8.1,7.2-8.1S204.4,279.4,204.4,283.9z M192.4,284.2
		c0,3.3,1.8,6.3,4.9,6.3s5-2.9,5-6.4c0-3.1-1.6-6.3-4.9-6.3S192.4,280.8,192.4,284.2L192.4,284.2z"/>
	<path d="M207.4,276.4h2v13.8h6.6v1.6h-8.6V276.4z"/>
	<path d="M231,283.9c0,5.3-3.2,8.1-7.2,8.1s-6.9-3.2-6.9-7.8c0-4.9,3-8.1,7.2-8.1S231,279.4,231,283.9z M219,284.2
		c0,3.3,1.8,6.3,4.9,6.3s4.9-2.9,4.9-6.4c0-3.1-1.6-6.3-4.9-6.3S219,280.8,219,284.2z"/>
	<path d="M245.8,291.1c-1.5,0.6-3.1,0.8-4.8,0.9c-4,0.4-7.5-2.5-7.9-6.5c0-0.4,0-0.8,0-1.3c0-4.6,3.2-8,8.4-8c1.3,0,2.6,0.2,3.9,0.7
		l-0.5,1.6c-1.1-0.5-2.2-0.7-3.4-0.7c-3.8,0-6.2,2.3-6.2,6.2s2.4,6.2,6,6.2c0.9,0.1,1.8-0.1,2.7-0.4v-4.6h-3.1v-1.6h5.1L245.8,291.1
		z"/>
	<path d="M253.2,291.8v-6.5l-4.9-8.9h2.3l2.2,4.3c0.6,1.2,1,2.1,1.5,3.2l0,0c0.4-1,1-2,1.6-3.2l2.2-4.3h2.3l-5.2,8.9v6.6h-2V291.8z"
		/>
</g>
<path style="fill:none;stroke:#000000;stroke-width:7.47;" d="M230.7,155.8c0,52.3-42.4,94.7-94.7,94.7s-94.7-42.4-94.7-94.7
	S83.7,61.1,136,61.1l0,0C188.3,61.1,230.7,103.5,230.7,155.8L230.7,155.8z"/>
<path style="fill:none;stroke:#000000;stroke-width:2.17;" d="M223,155.8c0,48-39,87-87,87s-87-39-87-87s39-87,87-87
	S223,107.7,223,155.8z"/>
<path style="fill:#E4E5E6;stroke:#439539;stroke-width:1.03;" d="M86.1,167.2h19.6l4.5,2.1l1.4-1.4l0.3-2.8l1.4-0.3l1-0.7l2.1-2.4
	l2.8-0.7l1-0.3h1.4c0,0,2.8,1.4,3.8,2.1c1.1,0.6,2.3,1.2,3.4,1.7l4.1,1.4l1,0.3c2.1,0.7,6.9,3.1,6.9,3.1h2.1l3.1,0.7l4.5,1.7l1,1.4
	l-2.1,1.4l-1.7,0.3l-2.4,0.7H143c0,0,0.7,0-2.4-0.3s-11.7-2.4-11.7-2.4h-2.1l-2.1-1.4l-3.4-2.1l-2.8-1l-1.7,3.4l-2.1,0.7l-1.7,1
	h-5.9l-1.7,1l-2.8-0.7v6.6l-6.9-1.4l-4.1-0.7l-1-0.7l-1-0.3h-2.8l-0.7,1l-1,1H81v12.6h3.4l1-1l0.7-0.7l1.7-0.7l0.7,0.3l4.1,1.7h7.2
	l1,1l1,0.3l0.6,0.4l0.4,0.3h-6.6c-0.6,0.5-1.4,0.6-2.1,0.4l-1.4-0.4l-5.5-2.4l-6.9,5.2l3.8,1.7l1,2.8l5.9-3.8l1.4-0.3h5.5l1.4-0.7
	h4.5c1.1,0.5,2.3,0.8,3.4,1h5.9l2.1-2.1l-1.4-1.7h-1.2l-1.4-1.7l1-1.4l4.8,0.4h39l4.1,2.1l1.4,0.3h3l1.7,4.5h2.1l1-0.7l1.7-0.7
	l2.4,0.3l3.1,2.1l1.4,0.7l2.1,1.7c0,0,2.8,0.7,4.1-0.3c1.1-0.7,2.2-1.3,3.5-1.7h11c1.4,0.1,2.8,0.5,4.1,1h2.1l0.7-17.2l-3.5-2.1
	l-1.4-0.7v-2.4c0,0-0.7,0.3-0.7-1.7c0-2.1-3.1-2.8-3.1-2.8l-1.4,0.7l-1.4,1.7l-2.1-3.1l-0.7-1l-1.4-3.5l-0.7-1.7l3.1,0.3v-11.7
	l-3.6-3.6v-5.4l-1.6-1.6v-3.2l-4.8-4.8h-2.4l0.7-3.1l-2.1-1l-0.7-1l-1.7-1.4h-2.6L172,128l-1.7-2.8v-3.1l-3.5-2.1l-2.8-2.8
	c0,0-2.4-13.4-12.1-12.4l-13.1-12.1h-11c0,0-2.8-5.9-5.5-4.1s-0.3,0.7-0.3,0.7l-3.4,4.1l-14.5-0.3l-2.8,1.4h-5.9l-5.9,4.1l-0.4,3.1
	v4.1l-2.1,2.4l0.7,4.5l-1,1.7l-1.4,1.7l-1,2.8c0,0,0.3,2.1-2.1,4.5s-20.5,15.3-18.3,15.9c1.4,0.4,8.6,0.4,8.6,0.4l5.2,10
	c0,0,0,3.1,1.4,4.1s2.1,7.6,2.1,7.6l2.1,4.1L86.1,167.2z"/>
<path d="M148.3,59.5V47c0-7.1-5.7-12.8-12.8-12.8c-7.1,0-12.8,5.7-12.8,12.8l0,0v12.4h25.6V59.5z"/>
<path style="fill:none;stroke:#000000;stroke-width:4.27;" d="M156.1,31.4c0,11.2-9.1,20.3-20.3,20.3s-20.3-9.1-20.3-20.3
	s9.1-20.3,20.3-20.3l0,0C147.1,11.1,156.1,20.2,156.1,31.4z"/>
<polygon style="fill:#FFFFFF;stroke:#231F20;stroke-width:2.13;stroke-linecap:round;stroke-linejoin:round;" points="134.9,77.3 
	147.3,132.2 202.2,144.5 147.3,156.9 134.9,211.8 122.6,156.9 67.7,144.5 122.6,132.2 "/>
<polygon style="fill:#FFFFFF;" points="134.9,77.3 147.3,132.2 202.2,144.5 147.3,156.9 134.9,211.8 122.6,156.9 67.7,144.5 
	122.6,132.2 "/>
<polygon style="fill:#D1D3D4;" points="67.7,144.5 122.6,156.9 134.9,211.8 147.3,156.9 202.2,144.5 201.6,144.4 68.3,144.4 "/>
<polygon style="fill:#D1D3D4;" points="135,77.4 134.9,77.3 122.6,132.2 67.7,144.5 122.6,156.9 134.9,211.8 135,211.7 "/>
<path d="M144.1,58.4V42.9c0-0.9-0.8-1.7-1.7-1.7c-0.9,0-1.7,0.8-1.7,1.7v14.8C141.9,57.9,143,58.1,144.1,58.4z"/>
<path style="fill:#231F20;" d="M112.9,150.3c-2.1,0.7-4.3,1.1-6.5,1.1c-5.4,0.5-10.3-3.5-10.8-8.9c-0.1-0.6-0.1-1.2,0-1.7
	c0-6.3,4.3-10.9,11.4-10.9c1.8,0,3.6,0.3,5.2,1l-0.7,2.2c-1.5-0.6-3.1-1-4.6-0.9c-5.1,0-8.5,3.2-8.5,8.5s3.2,8.5,8.1,8.5
	c1.2,0.1,2.5-0.1,3.6-0.6v-6.3h-4.3v-2.2h6.9L112.9,150.3z"/>
<path style="fill:#231F20;" d="M117.4,139.8v6.8c0,2.6,1.1,3.7,2.7,3.7c1.7,0,2.8-1.1,2.8-3.7v-6.8h1.5v6.7c0,3.5-1.9,5-4.4,5
	s-4.1-1.4-4.1-4.9v-6.8H117.4z"/>
<path style="fill:#231F20;" d="M128.5,139.8v11.5H127v-11.5H128.5z"/>
<path style="fill:#231F20;" d="M131.1,151.3v-11.5h1.6l3.7,5.8c0.8,1.2,1.5,2.4,2.1,3.7l0,0c-0.1-1.5-0.2-2.9-0.2-4.7v-4.8h1.4v11.5
	h-1.5l-3.7-5.8c-0.8-1.2-1.5-2.5-2.1-3.8h-0.1c0.1,1.4,0.1,2.8,0.1,4.7v4.9L131.1,151.3L131.1,151.3z"/>
<path style="fill:#231F20;" d="M142.3,139.9c1-0.2,2.1-0.2,3.2-0.2c1.7-0.1,3.3,0.4,4.7,1.4c1.1,1.1,1.7,2.6,1.6,4.1
	c0.1,1.7-0.5,3.3-1.7,4.5c-1.4,1.2-3.2,1.8-5.1,1.6c-0.9,0-1.8,0-2.7-0.1V139.9z M143.8,150.1c0.5,0.1,1,0.1,1.5,0.1
	c3.2,0,4.9-1.8,4.9-4.9c0-2.7-1.5-4.4-4.7-4.4c-0.6,0-1.2,0-1.7,0.1L143.8,150.1L143.8,150.1z"/>
<path style="fill:#439539;" d="M155.9,151.3v-4.9l-3.6-6.6h1.7l1.6,3.2c0.4,0.9,0.8,1.6,1.1,2.4l0,0c0.3-0.8,0.7-1.5,1.2-2.4
	l1.7-3.2h1.7l-3.9,6.6v4.9H155.9z"/>
<path style="fill:#231F20;" d="M111.5,130c1.7,0.8,3.1,1.8,4.4,3.2l-4.6,0.9"/>
</svg>
