<svg version="1.1" id="Calque_1" xmlns="http://www.w3.org/2000/svg" xmlns:xlink="http://www.w3.org/1999/xlink" x="0px" y="0px"
     viewBox="0 0 358.2 384.1" style="enable-background:new 0 0 358.2 384.1;" xml:space="preserve">
<g>
    <path style="fill:#2BA3A3" d="M68.3,368.9c-1.2,0-2.3,0-3.5,0C48.3,359.2,31.7,349.5,15,340c-3.8-2.2-5.2-4.8-5.2-9.1c0.2-17.7,0.2-35.5,0-53.2
	c-0.1-4.5,1.4-7.2,5.4-9.3c8.8-4.7,17.3-9.9,26-15c-17.3-41.1-17.3-82,0-123c-9.2-5.3-18.2-10.6-27.3-15.7c-3-1.7-4.2-3.9-4.1-7.2
	c0.1-18.5,0.1-37.1,0-55.6c0-3.5,1.2-5.7,4.3-7.5c16-9.1,32-18.3,47.8-27.6c3.3-1.9,6-1.9,9.2,0.1c15.1,8.9,30.2,17.6,45.4,26.3
	c3.4,2,7.2,3.5,6.7,8.8c37.3-14,74.2-14,110-0.5c1.8-2.5,2.8-5.1,4.7-6.3c16.6-9.9,33.4-19.5,50.2-29c1.6-0.9,4.4-0.9,6.1-0.1
	c4.7,2.2,9.1,5,13.5,7.7c3,1.8,3.9,4.7,2.3,7.3c-1.5,2.6-4.5,3.2-7.5,1.6c-3-1.7-6.1-3.3-9-5.2c-1.7-1.1-3-0.9-4.7,0
	c-11.9,7-23.9,13.8-35.8,20.8c-0.8,0.5-1.6,1.1-2.7,1.8c13.4,7.7,26.4,15.3,39.5,22.7c0.8,0.5,2.4,0.2,3.4-0.3
	c4.8-2.6,9.4-5.3,14.1-8c8.2-4.8,16.5-9.5,24.8-14.3c-0.3-0.4-0.4-0.6-0.6-0.7c-2.3-1.4-4.6-2.7-6.8-4c-3.6-2.1-4.6-4.8-3.1-7.6
	c1.6-2.9,4.6-3.4,8.4-1.2c4.4,2.5,8.9,4.9,13.1,7.7c2.1,1.4,3.6,3.6,5.3,5.4c0,20.1,0,40.1,0,60.2c-1.8,1.8-3.3,4.1-5.3,5.4
	c-4.8,3.1-9.9,5.8-14.9,8.7c-3.9,2.2-7.7,4.5-11.6,6.7c8.7,19.8,13.1,40.3,13.1,61.6c0,21.3-4.4,41.7-13.1,61.3
	c9,5.2,17.8,10.1,26.5,15.4c2.1,1.3,3.6,3.6,5.4,5.4c0,20.1,0,40.1,0,60.2c-1.7,1.8-3.2,4.2-5.3,5.4c-16.6,9.8-33.3,19.4-50,29.1
	c-1.2,0-2.3,0-3.5,0c-15.8-9.2-31.6-18.3-47.3-27.5c-3.7-2.1-8.3-3.5-7.8-9.3c-37.3,14-74,13.9-111.1,0c0.3,4.7-2.6,6.6-5.9,8.3
	c-3.3,1.8-6.6,3.7-9.9,5.6C94.5,353.6,81.4,361.2,68.3,368.9z M307.6,135.6c-3.7,2.1-7.3,3.9-10.5,6.1c-3.9,2.7-7.3,2.6-11.4,0.1
	c-15.3-9.1-30.8-18-46.3-26.8c-3.4-1.9-4.8-4.4-4.8-8.3c0.2-13.5,0-27,0.1-40.4c0-2.5-0.8-3.6-3.1-4.5c-35-13.6-70-13.7-105.1-0.1
	c-2.5,1-3.3,2.2-3.2,4.7c0.1,13.5,0,27,0.1,40.4c0,3.8-1.3,6.2-4.7,8c-16,9.1-32,18.3-47.8,27.6c-2.9,1.7-5.5,1.8-8.4,0.1
	c-3.9-2.4-7.9-4.6-12.2-7c-15.6,37.7-15.5,75,0,112.6c4.5-2.6,8.4-5.1,12.7-7.2c1.7-0.8,4.2-1.4,5.7-0.7c4.9,2.3,9.5,5.1,14.1,8
	c2.5,1.6,3.1,4.7,1.5,7c-1.7,2.5-4,3-6.6,1.8c-1.5-0.7-3-1.3-4.2-2.4c-4.7-4.1-8.9-3.3-14,0c-11,6.9-22.4,13.1-33.8,19.7
	c0.5,0.4,0.7,0.7,1,0.8c12.8,7.4,25.5,14.8,38.3,22c0.9,0.5,2.6,0.3,3.6-0.2c6.4-3.6,12.8-7.3,19.2-11c6.5-3.8,13.1-7.6,19.9-11.5
	c-3.2-1.9-6-3.5-8.7-5.1c-3.6-2.2-4.6-4.8-2.9-7.7c1.6-2.8,4.6-3.3,8.1-1.3c4.7,2.7,9.3,5.6,14.1,8.1c3.8,1.9,5.2,4.6,5.2,8.8
	c-0.2,13.4,0,26.7-0.1,40.1c0,2.4,0.7,3.6,3.1,4.5c35,13.6,70,13.7,105.1,0.1c2.4-0.9,3.3-2.1,3.3-4.7c-0.1-13.6,0-27.2-0.1-40.8
	c0-3.3,1-5.6,4-7.3c16.4-9.3,32.7-18.8,49.1-28.3c2.6-1.5,4.9-1.5,7.4,0c4,2.4,8.1,4.7,12.5,7.2
	C323.2,210.4,323.2,173.2,307.6,135.6z M250.2,274.5c13.6,7.9,26.6,15.4,39.7,22.8c0.9,0.5,2.6,0.2,3.6-0.4
	c12.3-7,24.5-14.1,36.8-21.1c0.6-0.4,1.2-0.9,2-1.5c-13.3-7.7-26.3-15.2-39.4-22.7c-0.7-0.4-2.1-0.5-2.8-0.1
	C276.9,259.1,263.7,266.7,250.2,274.5z M107.4,49.9c-0.5-0.4-0.7-0.7-1-0.9c-12.6-7.3-25.3-14.6-37.9-22c-1.8-1.1-2.9-0.5-4.3,0.3
	c-11.9,6.9-23.9,13.8-35.9,20.7c-0.8,0.5-1.6,1.1-2.6,1.8c13.4,7.7,26.4,15.3,39.5,22.7c0.9,0.5,2.6,0.1,3.6-0.5
	C78,67,87.2,61.6,96.4,56.3C100,54.2,103.7,52.1,107.4,49.9z M296.5,354.8c13.2-7.6,25.8-14.9,38.3-22.1c2.1-1.2,2.9-2.5,2.8-4.9
	c-0.1-13.6,0-27.2-0.1-40.8c0-1-0.1-2-0.2-3.1c-0.6,0.2-0.9,0.2-1.2,0.4c-12.7,7.3-25.3,14.6-37.9,22c-0.9,0.5-1.6,2.1-1.7,3.3
	c-0.2,6.4-0.1,12.9-0.1,19.3C296.5,337.3,296.5,345.7,296.5,354.8z M337.6,59.2c-0.8,0.3-1.3,0.3-1.6,0.5
	c-12.6,7.2-25.1,14.4-37.6,21.8c-1,0.6-1.8,2.6-1.8,3.9c-0.1,13.6-0.1,27.2-0.1,40.8c0,1.1,0,2.2,0,3.6c0.9-0.4,1.3-0.5,1.7-0.8
	c12.5-7.2,25-14.3,37.3-21.6c1.1-0.7,2-2.7,2-4.1c0.2-11.9,0.1-23.7,0.1-35.6C337.6,64.9,337.6,62.2,337.6,59.2z M61.4,354.8
	c0-15.8,0-30.7-0.1-45.7c0-1-1.1-2.4-2.1-3c-12.3-7.2-24.7-14.3-37-21.5c-0.5-0.3-1-0.4-1.6-0.6c-0.1,0.5-0.3,0.9-0.3,1.2
	c0,14.6-0.1,29.3,0.1,43.9c0,1.1,1.1,2.5,2,3.1c6.5,3.9,13.1,7.7,19.7,11.5C48.4,347.2,54.6,350.8,61.4,354.8z M112.9,284
	c-0.7,0.1-1,0.1-1.3,0.3c-12.8,7.3-25.6,14.7-38.2,22.1c-0.9,0.6-1.5,2.4-1.5,3.7c-0.1,13.4-0.1,26.7-0.1,40.1c0,1.3,0,2.6,0,4.3
	c0.9-0.4,1.3-0.6,1.7-0.8c12.5-7.2,25-14.3,37.3-21.7c1.1-0.7,2-2.7,2-4.1c0.2-11.2,0.1-22.3,0.1-33.5
	C112.9,291,112.9,287.6,112.9,284z M286.1,354.7c0-15.7,0.1-30.7-0.1-45.7c0-1.1-1.3-2.6-2.4-3.2c-11.7-6.9-23.5-13.6-35.2-20.4
	c-1-0.6-2-1-3-1.6c-0.2,0.6-0.3,1-0.3,1.3c0,14.6-0.1,29.3,0.1,43.9c0,1.1,1.3,2.6,2.3,3.2c8.4,5,16.9,9.9,25.4,14.7
	C277.1,349.5,281.3,352,286.1,354.7z M286.1,130c0-15.6,0.1-30.5-0.1-45.3c0-1.2-1.3-2.9-2.4-3.5c-11.2-6.6-22.5-13.1-33.7-19.6
	c-1.5-0.8-2.9-1.7-4.5-2.6c-0.2,0.8-0.4,1.1-0.4,1.4c0,14.6-0.1,29.3,0,43.9c0,1.1,1.1,2.5,2,3.1c4.1,2.6,8.3,4.9,12.5,7.3
	C268.3,119.7,276.9,124.7,286.1,130z M71.8,130c13.2-7.6,25.7-14.9,38.3-22c2.2-1.3,2.9-2.7,2.9-5.2c-0.1-13.4-0.1-26.7-0.1-40.1
	c0-1.1-0.1-2.2-0.2-3.2c-0.4-0.1-0.6-0.2-0.6-0.2c-13,7.4-25.9,14.9-38.9,22.4c-0.7,0.4-1.4,1.6-1.4,2.4
	C71.8,99.2,71.8,114.3,71.8,130z M61.1,129.8c0.2-0.7,0.3-1,0.3-1.3c0-14.6,0.1-29.3-0.1-43.9c0-1.2-1.3-2.8-2.5-3.5
	c-11.8-7-23.7-13.8-35.5-20.6c-0.8-0.5-1.7-0.9-2.7-1.3c-0.1,0.7-0.3,1-0.3,1.4c0,14.5-0.1,29,0.1,43.5c0,1.2,1.3,2.9,2.4,3.5
	c9.1,5.4,18.3,10.7,27.5,16C53.8,125.6,57.4,127.7,61.1,129.8z" fill="#FFFFFF"/>
    <path style="fill:#2BA3A3" d="M178.7,272.4c-46.6,0-83.4-39.7-80.1-86.4c2.7-39,33.8-70.9,72.8-74.4c42.8-3.9,78.9,25.7,86.5,64.3
	c0.2,0.9,0.4,1.8,0.5,2.7c0.5,3.6-1,6-4,6.5c-3,0.5-5.3-1.2-6.2-4.6c-0.8-3.1-1.3-6.3-2.3-9.4c-9.4-30.4-37.9-51.1-70.3-49.3
	c-33.8,1.8-60.8,26.1-65.9,58.4c-6.3,39.7,20.5,76,60,81.3c36.8,5,71-19.9,78.2-56.9c0.1-0.7,0.2-1.4,0.4-2c0.9-3,3.1-4.5,5.9-4
	c2.8,0.5,4.8,2.7,4.1,5.8c-1.2,5.7-2.5,11.5-4.6,16.9C241.8,252.4,212.2,272.4,178.7,272.4z" fill="#FFFFFF"/>
</g>
</svg>
