<svg version="1.1" id="Calque_1" xmlns="http://www.w3.org/2000/svg" xmlns:xlink="http://www.w3.org/1999/xlink" x="0px" y="0px"
     viewBox="0 0 318 389.8" style="enable-background:new 0 0 318 389.8;" xml:space="preserve">
    <g>
        <path d="M7.3,214.6c0.9-4.4,1.4-8.9,2.7-13.2c9.8-32.1,31.2-51.6,64.3-58c3.2-0.6,6.6-0.8,9.9-0.8c13.8,0.1,27.8-0.9,41.4,0.7
            c28.5,3.3,49.1,19,62,44.5c1.8,3.6,3.1,7.6,4.6,11.3c-50,19.9-73.8,56.2-70.9,109.9c-0.4,0-1.1,0.2-1.8,0.2c-36.8,0-73.6,0-110.4,0
            c-0.6,0-1.2-0.1-1.8-0.1C7.3,277.5,7.3,246.1,7.3,214.6z" fill="currentColor"/>
        <path d="M219.8,385.3c-6-0.8-12.1-1.1-17.9-2.5c-36.1-8.3-62.4-36.5-68.5-73.1c-5.7-34.4,10.2-70.1,39.6-88.7
            c31.9-20.2,70.7-19.6,101,2.9c27.5,20.3,39.7,48.5,35.9,82.4c-4.4,38.9-31.8,68.3-70.1,76.9c-5.4,1.2-11,1.4-16.4,2.1
            C222.2,385.3,221,385.3,219.8,385.3z M259.8,355.5c1.7-0.9,3.2-1.3,4.2-2.2c4.5-4.2,8.8-8.6,13.1-13c2.6-2.7,2.6-5.5,0.2-8.4
            c-1.2-1.5-2.3-3.1-3.7-4.4c-1.9-1.9-2.3-3.5-0.8-6c1.6-2.5,1.7-6.5,3.8-7.9c2.2-1.6,6-1,9.1-1.4c3.4-0.5,5.3-2.3,5.4-5.8
            c0.1-6.2,0.1-12.3,0-18.5c-0.1-3.4-1.9-5.3-5.4-5.9c-2.6-0.4-5.2-0.4-7.8-0.9c-0.9-0.2-2-1.1-2.5-1.9c-1.3-2.6-2.5-5.3-3.4-8.1
            c-0.3-0.9-0.2-2.3,0.4-3.1c1.5-2.2,3.3-4,4.9-6.1c2-2.6,1.9-5.6-0.3-7.9c-4.2-4.3-8.5-8.6-12.8-12.9c-2.4-2.4-5.2-2.5-7.9-0.5
            c-1.5,1.1-3.1,2.3-4.4,3.7c-2.2,2.4-4.2,1.8-7.1,1c-6.7-1.8-8.8-5.8-8.7-12.3c0.1-4-2.3-5.9-6.4-6c-5.7-0.1-11.5-0.1-17.2,0
            c-4.3,0.1-6.2,2-6.6,6.2c-0.1,1.6-0.6,3.2-0.5,4.8c0.2,3-0.9,4.5-3.9,5.3c-2.8,0.7-5.6,3.4-8,3c-2.6-0.4-4.7-3.5-7.1-5.3
            c-3.2-2.5-6-2.4-8.9,0.5c-3.1,3-6.2,6.1-9.2,9.2c-7,7-7.1,7.5-0.5,15c2.2,2.5,3.3,4.6,1.2,7.7c-1.1,1.6-1.8,3.6-2.3,5.6
            c-0.5,1.7-1.3,2.2-3,2.3c-2.6,0.1-5.2,0.4-7.8,0.9c-2.9,0.5-4.9,2.2-5,5.2c-0.2,6.6-0.1,13.1,0,19.7c0.1,2.9,2,4.7,5,5.1
            c2.1,0.3,4.2,0.5,6.3,0.6c2.6,0,4.2,0.9,4.9,3.6c0.8,2.9,3.5,5.8,3.1,8.3c-0.4,2.7-3.6,4.9-5.5,7.4c-2.3,3-2.3,5.7,0.4,8.4
            c4.2,4.3,8.5,8.6,12.9,12.8c2.5,2.4,5.1,2.5,7.9,0.4c2.1-1.6,4-3.4,6.1-4.9c0.8-0.5,2.2-0.6,3.1-0.3c2.7,0.9,5.2,2.3,7.8,3.1
            c1.8,0.6,2.3,1.6,2.3,3.3c0.1,2.3,0.4,4.6,0.6,6.9c0.4,3.4,2.3,5.5,5.7,5.5c6.4,0.1,12.7,0.1,19.1,0c3.2-0.1,5.1-2.1,5.5-5.3
            c0.2-1.2,0.5-2.4,0.4-3.6c-0.6-4.8,2.1-6.4,6-8.3c4.9-2.4,8.2-1.9,11.7,1.9C255.7,353.4,257.8,354.3,259.8,355.5z" fill="currentColor"/>
        <path d="M153.5,56.7c0,27.7-22,51.6-52.6,52C74.1,109,49.7,85.8,49.1,58.9C48.4,29,70.6,5.2,99.8,4.5
            C129.3,3.8,152.7,26.6,153.5,56.7z" fill="currentColor"/>
        <path d="M182.1,252.2c2.7,2.2,4.8,4,6.9,5.7c2.3,1.9,4.6,1.8,7.3,0.6c4.9-2.3,9.9-4.4,15-6.3c2.7-1,4.3-2.5,4.6-5.3
            c0.3-2.8,0.6-5.6,0.9-8.5c2.8,0,5.5,0,8.6,0c0.3,2.7,0.7,5.5,0.9,8.3c0.3,3,1.9,4.6,4.6,5.6c5.1,1.9,10,4,15,6.3
            c2.7,1.2,5,1.3,7.3-0.6c2.1-1.7,4.2-3.4,6.4-5.3c1.9,2,3.8,4,5.8,6.2c-1.6,1.9-3.2,4-5,6.1c-2.1,2.5-2.1,4.9-0.7,7.8
            c2.3,4.7,4.3,9.5,6.1,14.4c1.1,3,2.8,4.8,6,5c2.5,0.2,5,0.5,8,0.8c0,2.5,0.1,4.9-0.1,7.4c0,0.5-1.1,1.3-1.8,1.4
            c-2.2,0.4-4.4,0.5-6.6,0.7c-2.6,0.3-4.1,1.6-5.1,4.1c-2.1,5.3-4.3,10.6-6.7,15.8c-1.1,2.5-1.1,4.7,0.6,6.8c1.8,2.2,3.5,4.3,5.4,6.6
            c-2.1,2-4.2,4-6.2,5.9c-2-1.7-4.1-3.4-6.2-5.2c-2.3-1.9-4.6-1.9-7.3-0.6c-4.9,2.3-9.9,4.4-14.9,6.3c-2.7,1-4.3,2.4-4.6,5.3
            c-0.3,2.8-0.6,5.6-1,8.5c-2.9,0-5.6,0-8.6,0c-0.2-2.5-0.5-5-0.7-7.5c-0.5-4-1.8-5.2-5.6-6.6c-4.6-1.6-9.2-3.6-13.6-5.7
            c-3.5-1.7-5.2-1.8-8.3,0.7c-2,1.6-3.9,3.2-6,4.9c-2-2-3.9-4-6-6.2c1.7-2.1,3.4-4.2,5.1-6.2c1.9-2.3,2-4.5,0.7-7.3
            c-2.3-5-4.4-10.1-6.4-15.2c-1-2.6-2.6-4.2-5.5-4.4c-2.1-0.1-4.2-0.5-6.3-0.6c-1.6-0.1-2.1-0.7-2-2.3c0.1-2.1,0-4.2,0-6.6
            c2.6-0.3,5.1-0.5,7.5-0.8c3.9-0.4,5.2-1.7,6.5-5.2c1.7-4.7,3.6-9.4,5.8-13.9c1.8-3.7,1.9-5.3-0.8-8.5c-1.6-1.9-3.2-3.9-4.8-5.9
            c0.5-0.6,0.9-1,1.3-1.5C179.2,255.5,180.6,254,182.1,252.2z M220.8,336.6c21.7,0.2,39.5-17.4,39.7-39.2
            c0.2-21.8-17.5-39.7-39.4-39.8c-21.4-0.1-39.3,17.5-39.5,38.8C181.4,318.7,198.6,336.4,220.8,336.6z" fill="currentColor"/>
        <path d="M249.2,297.3c-0.2,15.7-13,28.2-28.5,28c-15.4-0.2-28.2-13.4-27.9-28.8c0.3-15.6,13.2-27.9,28.9-27.6
            C236.9,269.3,249.4,282.1,249.2,297.3z" fill="currentColor"/>
    </g>
</svg>
