<?xml version="1.0" encoding="utf-8"?>
<!-- Generator: Adobe Illustrator 22.0.0, SVG Export Plug-In . SVG Version: 6.00 Build 0)  -->
<svg version="1.1" id="Calque_1" xmlns="http://www.w3.org/2000/svg" xmlns:xlink="http://www.w3.org/1999/xlink" x="0px" y="0px"
	 viewBox="0 0 804 816" style="enable-background:new 0 0 804 816;" xml:space="preserve">
<g>
	<path d="M460.4,792.2c-1,0-2,0-3,0c-10.2-2.2-20.4-4.5-30.6-6.5c-121.4-23.4-242.8-46.8-364.2-70.2c-14.9-2.9-29.8-5.8-44.6-8.7
		c0-199.6,0-398.4,0-597.7c147.5-28.4,294.8-56.8,442.9-85.3c0,4.2,0,7.4,0,10.6c0,249.4,0,498.8,0,748.1
		C460.8,785.7,460.5,789,460.4,792.2z M377.6,558.1c-1.9-3.5-3.2-5.8-4.6-8.1c-27.9-45.6-55.7-91.3-83.8-136.8
		c-2.7-4.4-2.8-7.5,0-12c27.3-44.8,54.4-89.7,81.6-134.6c1.3-2.2,2.6-4.4,4.5-7.7c-24.8,0-48.1-0.1-71.3,0.2c-1.9,0-4.7,1.9-5.6,3.7
		c-18,35.9-40.8,69.4-53.9,107.7c-0.3,0.7-0.7,1.4-1.6,3.3c-2.3-6.4-3.6-11.8-5.9-16.7c-14.6-31.5-29.4-62.9-44.4-94.2
		c-1-2.1-5-3.8-7.6-3.9c-23.3-0.3-46.5-0.2-69.8-0.1c-1.6,0-3.3,0.3-5.6,0.6c1.6,3,2.8,5.4,4.1,7.7c26.3,45.1,52.5,90.3,79,135.3
		c2.6,4.5,2.6,7.6-0.3,12c-29.1,45.2-57.9,90.6-86.7,135.9c-1.4,2.2-2.7,4.5-4.6,7.8c21.8,0,42.6-0.9,63.1,0.3
		c12.8,0.8,19.4-3.2,24.9-14.8c16.1-34.2,37.7-65.7,51-101.6c2.4,6.8,4,13.7,7.1,19.7c16,30.8,32.3,61.5,48.7,92.1
		c1,1.9,4,4.1,6,4.1C326.7,558.2,351.4,558.1,377.6,558.1z" fill="currentColor"/>
	<path d="M786.1,684.1c-6.2,15.4-17.9,19.8-33.9,19.7c-84-0.5-168.1-0.2-252.1-0.2c-2.9,0-5.9,0-9.2,0c0-29.6,0-58.5,0-88.3
		c29,0,58.1,0,87.7,0c0-20,0-39.2,0-59.3c-29,0-58.1,0-87.7,0c0-20.1,0-39.2,0-59.2c29.2,0,58.3,0,87.8,0c0-20,0-39.1,0-58.9
		c-29.2,0-58.1,0-87.6,0c0-20,0-39.3,0-59.3c29,0,57.9,0,87.4,0c0-19.8,0-38.9,0-58.9c-28.8,0-57.9,0-87.5,0c0-19.9,0-39,0-58.9
		c29.5,0,58.9,0,88.8,0c0-20.2,0-39.6,0-59.8c-29.4,0-58.8,0-88.7,0c0-29.7,0-58.6,0-88.7c2.6,0,5.4,0,8.3,0
		c84.3,0,168.6,0.3,252.9-0.2c16-0.1,27.7,4.3,33.9,19.7C786.1,315.9,786.1,500,786.1,684.1z M609.2,259.6c39.6,0,78.4,0,117.4,0
		c0-19.7,0-38.8,0-58.3c-39.3,0-78.1,0-117.4,0C609.2,220.9,609.2,240,609.2,259.6z M726.6,556.3c-39.6,0-78.5,0-117.4,0
		c0,19.7,0,38.8,0,58.3c39.3,0,78.1,0,117.4,0C726.6,595.1,726.6,576,726.6,556.3z M609.4,319.6c0,19.9,0,39.1,0,58
		c39.4,0,78.3,0,117.1,0c0-19.7,0-38.8,0-58C687.2,319.6,648.5,319.6,609.4,319.6z M726.6,496.2c0-19.5,0-38.6,0-58.1
		c-39.3,0-78.2,0-117.4,0c0,19.6,0,38.7,0,58.1C648.5,496.2,687.4,496.2,726.6,496.2z" fill="currentColor"/>
</g>
</svg>
