<svg width="19" height="18" viewBox="0 0 19 18" fill="none" xmlns="http://www.w3.org/2000/svg">
    <g>
        <path d="M16.8425 10.7833C17.2775 10.6625 17.495 10.6033 17.5808 10.4883C17.6667 10.3733 17.6667 10.19 17.6667 9.82162V8.17829C17.6667 7.80996 17.6667 7.62579 17.5808 7.51162C17.495 7.39662 17.2775 7.33662 16.8425 7.21746C15.2175 6.76996 14.2 5.03662 14.6192 3.38912C14.735 2.93579 14.7925 2.70912 14.7375 2.57662C14.6825 2.44412 14.5242 2.35162 14.2083 2.16829L12.7708 1.33662C12.4608 1.15662 12.3058 1.06662 12.1667 1.08662C12.0275 1.10496 11.87 1.26496 11.5558 1.58496C11.2652 1.87886 10.9192 2.1122 10.5377 2.27145C10.1563 2.43069 9.74708 2.51269 9.33375 2.51269C8.92042 2.51269 8.51119 2.43069 8.12976 2.27145C7.74834 2.1122 7.40229 1.87886 7.11167 1.58496C6.7975 1.26496 6.64083 1.10496 6.50167 1.08579C6.3625 1.06662 6.2075 1.15662 5.8975 1.33579L4.46 2.16912C4.14333 2.35246 3.985 2.44412 3.93083 2.57662C3.87583 2.70996 3.93333 2.93579 4.04833 3.38912C4.4675 5.03662 3.45 6.76996 1.82417 7.21746C1.38917 7.33746 1.17167 7.39662 1.08583 7.51162C1 7.62662 1 7.80996 1 8.17829V9.82246C1 10.19 1 10.3741 1.08583 10.4891C1.17167 10.6033 1.38917 10.6625 1.82417 10.7825C3.44917 11.23 4.46667 12.9633 4.0475 14.6108C3.93167 15.0641 3.87417 15.2908 3.92917 15.4233C3.98417 15.5558 4.1425 15.6483 4.45833 15.8316L5.89583 16.6641C6.20583 16.8433 6.36083 16.9333 6.5 16.9141C6.63917 16.895 6.79667 16.735 7.11083 16.415C7.4015 16.1207 7.7477 15.887 8.12936 15.7275C8.51101 15.5681 8.92053 15.486 9.33417 15.486C9.7478 15.486 10.1573 15.5681 10.539 15.7275C10.9206 15.887 11.2668 16.1207 11.5575 16.415C11.8717 16.735 12.0283 16.895 12.1675 16.9141C12.3067 16.9333 12.4617 16.8433 12.7725 16.6641L14.2092 15.8308C14.5258 15.6475 14.6842 15.5558 14.7383 15.4233C14.7933 15.29 14.7358 15.0641 14.6208 14.6108C14.2008 12.9633 15.2175 11.23 16.8425 10.7825" stroke="currentColor" stroke-width="1.25" stroke-linecap="round" stroke-linejoin="round" fill="currentColor"/>
        <path d="M9.75033 5.6665L7.66699 8.99984H11.0003L8.91699 12.3332" stroke="white" stroke-width="1.25" stroke-linecap="round" stroke-linejoin="round"/>
    </g>
</svg>
