<?xml version="1.0" encoding="utf-8"?>
<!-- Generator: Adobe Illustrator 22.0.0, SVG Export Plug-In . SVG Version: 6.00 Build 0)  -->
<svg version="1.1" id="Calque_1" xmlns="http://www.w3.org/2000/svg" xmlns:xlink="http://www.w3.org/1999/xlink" x="0px" y="0px"
	 viewBox="0 0 866 886" style="enable-background:new 0 0 866 886;" xml:space="preserve">
<g>
	<path d="M587.2,863c-15.4-3.2-31.3-5.2-46.2-10c-94.2-30.3-153.2-93.9-171.6-191.2c-24.5-129.2,58.5-246.1,175.7-278.7
		c133.9-37.2,276.6,50.3,302.9,186.8c1.7,9.1,3.3,18.2,4.9,27.3c0,14.8,0,29.5,0,44.3c-0.5,1.8-1.4,3.5-1.6,5.3
		c-10.3,95.9-80,179.2-172.9,206c-15.3,4.4-31.3,6.8-47,10.1C616.8,863,602,863,587.2,863z M595.5,599.2c-1.1-9.5-2.1-18.2-3-26.8
		c-0.5-4.9-1.1-9.8-0.9-14.7c0.5-14.9,7.6-25.9,20.6-33c16.7-9.1,33.7-6,49.2,8.7c10.5,10,24.7,10.5,34.6,1.3
		c10.1-9.4,10.7-24.6,0.7-35.3c-21.6-22.9-48.5-32.9-79.3-27.6c-50.8,8.6-81.6,53.2-73.8,104.3c1.1,7.4,1.5,14.9,2.4,23.1
		c-8.4,0-15.8-0.3-23.1,0.1c-14.9,0.8-24.7,11.2-24.5,25.3c0.2,13.8,10.8,23.5,25.8,23.7c6.4,0.1,12.8,0,19,0c0.2,1.9,0.4,2.5,0.3,3
		c-3.9,27.3-12.8,52.9-25.9,77.1c-5.1,9.4-6.3,18.6-0.3,27.8c6.5,10.1,16.6,13.2,31.1,9.3c30.5-8.2,61.5-13.3,93.1-8.9
		c15.9,2.2,31.5,6.3,47.2,9.8c14.4,3.1,26.7-3.8,30.6-17.5c3.5-12.4-3.3-26.1-16.8-29.3c-21.7-5.1-43.6-9.8-65.7-12.2
		c-18.3-2-36.9-0.4-55.2-0.4c4.3-18.9,8.8-38.4,13.4-58.7c3.1,0,6.6,0,10.1,0c7.9,0,15.9,0.1,23.8,0c14.7-0.2,25.6-10.4,25.8-24.1
		c0.2-13-10.3-24.1-24.4-24.8C618.9,598.8,607.7,599.2,595.5,599.2z" fill="currentColor"/>
	<path d="M278.8,23c11.4,2.2,23,3.9,34.3,6.5c93.7,21.5,167.4,99.9,184.1,195.1c7.3,41.8,4.3,82.6-10.1,122.5
		c-1.2,3.4-4.3,7-7.5,8.6c-59.3,30-103.7,74.6-133.7,133.8c-1.7,3.4-5.5,6.8-9.1,8.1c-137.2,48.8-289.2-37.2-318.7-180
		c-1.9-9-3.4-18.1-5.1-27.1c0-15.3,0-30.6,0-45.9c1.1-6.1,2.1-12.2,3.4-18.3c19.8-97.4,76.9-161.8,171.2-193
		c15.1-5,31.3-6.9,46.9-10.2C249.2,23,264,23,278.8,23z M280.8,400.3c4.8-0.5,8-1,11.2-1.2c44-3.8,75.5-38.3,73.7-80.8
		c-1.7-42.4-35.9-75-79.4-75.5c-19.4-0.2-38.8,0.1-58.2-0.1c-17.5-0.2-30.8-13.1-30.9-29.5c-0.1-16.5,13-29.2,30.7-29.4
		c17.2-0.2,34.4,0.4,51.6-0.2c14.3-0.4,26,4.1,36.3,13.9c10.7,10.3,25.6,10.1,35.2,0.1c9.5-9.9,9.1-24.8-1.2-35.3
		c-11.7-11.9-25.5-20.6-41.9-24.4c-8.4-2-17-3-26.3-4.6c0-8.6,0.3-17.3-0.1-26c-0.6-15.3-11.2-25.6-25.4-25.2
		c-13.7,0.3-23.3,11-23.5,26.1c-0.1,8.6,0,17.3,0,25.7c-7.2,0.9-13.2,1.4-19.1,2.4c-38,6-66,39.3-65.2,77.6
		c0.8,39.9,30.1,73.5,68.9,76.8c21.4,1.9,43.1,0.9,64.7,1.3c4.9,0.1,10,0.2,14.5,1.6c13.6,4.2,21.9,17.9,19.9,32
		c-2,14.4-14.2,25.2-29.7,25.4c-18,0.3-36.1-0.2-54.1,0.2c-12.1,0.3-23.1-2.3-33.5-8.7c-12.2-7.4-26.6-3.8-33.7,7.5
		c-7.2,11.6-4.4,26.4,7.8,33.7c9.5,5.6,19.9,10.2,30.4,13.4c9,2.7,18.7,2.8,29,4.1c0,6.7-0.1,13.4,0,20.2c0.1,4.4-0.3,8.9,0.7,13
		c2.5,10.6,13.7,18.6,24.5,18.1c11.4-0.5,21.6-8.5,22.8-19.8C281.7,422,280.8,411.3,280.8,400.3z" fill="currentColor"/>
	<path d="M88.6,659.4c-6,6.2-11.9,12.5-18.1,18.5C59.1,689,44.2,689.7,34,679.7c-10.6-10.4-10.1-25.3,1.6-37
		c20.2-20.3,40.5-40.6,60.9-60.9c12.2-12.1,26-12.3,38.1-0.2c20.6,20.4,41.1,40.9,61.4,61.4c11.3,11.4,11.7,26.1,1.4,36.5
		c-10.1,10.2-25.2,9.8-36.5-1.4c-6.2-6.1-11.9-12.7-18.6-19.9c-6.8,44.3,6.3,87.7,46.5,111.7c15.3,9.2,32,13.6,49.7,14.3
		c15.7,0.6,26.4,11.1,26,25.5c-0.5,14.2-11.4,23.9-26.7,23.8c-71.3-0.2-133.4-53-144.3-123.2c-2.1-13.4-2.2-27.2-3.1-40.8
		c-0.2-3.1,0-6.3,0-9.4C89.9,659.9,89.2,659.7,88.6,659.4z" fill="currentColor"/>
	<path d="M776.8,227.4c6.7-6.9,12.6-13.2,18.7-19.3c11.4-11.2,26.2-11.9,36.5-1.8c10.6,10.4,10.1,25.3-1.5,37
		c-20.2,20.4-40.5,40.7-60.9,60.9c-12.2,12.1-26.1,12.2-38.2,0.2c-20.6-20.4-41-40.9-61.4-61.4c-11.2-11.3-11.7-26.1-1.3-36.4
		c10.2-10.2,25.2-9.7,36.5,1.4c6.2,6.1,11.9,12.6,18.6,19.7c8.6-56-16.4-107.2-73-122.5c-7.8-2.1-16.1-2.8-24.2-3.3
		c-14.5-0.9-25.1-11.1-25.1-24.9c0-14.2,11-24.5,26-24.6c71.3-0.4,134.3,52.8,145,123.3C774.9,192,775.3,208.8,776.8,227.4z" fill="currentColor"/>
</g>
</svg>
