<?xml version="1.0" encoding="utf-8"?>
<!-- Generator: Adobe Illustrator 22.0.0, SVG Export Plug-In . SVG Version: 6.00 Build 0)  -->
<svg version="1.1" id="Calque_1" xmlns="http://www.w3.org/2000/svg" xmlns:xlink="http://www.w3.org/1999/xlink" x="0px" y="0px"
	 viewBox="0 0 834 900" style="enable-background:new 0 0 834 900;" xml:space="preserve">
<style type="text/css">
	.st0{fill:#26A182;}
	.st1{fill:#515760;}
</style>
<path class="st0" d="M809.9,101.5c0,26.7,0,53.5,0,80.2c-4.9,9.3-12.7,12-23,11.8c-31.6-0.4-63.3-0.2-94.9-0.2c-3.5,0-6.9,0-11.3,0
	c0,4.4,0,7.8,0,11.3c0,180,0,359.9,0,539.9c0,3.8,0.1,7.6-0.2,11.4c-2.1,30.3-15.6,53.8-42.6,68c-10.8,5.7-23.3,8.2-36,12.6
	c0,11.1,2.6,24.7-11.4,32.4c-3.3,0-6.5,0-9.8,0c-17.2-8.9-34.5-17.9-51.8-26.6c-1.8-0.9-5-1.2-6.7-0.2
	c-16.1,8.7-31.9,17.8-47.9,26.8c-3.3,0-6.5,0-9.8,0c-16.6-6.9-11.2-22.6-13.3-35.6c-4,0-7.2,0-10.5,0c-110.4,0-220.9-0.7-331.3,0.3
	c-49.2,0.5-86.7-37.2-85.3-85.2c1-36.5,0.2-73.1,0.2-109.6c0-17.4,5.5-22.8,23.1-22.8c31.9,0,63.8,0,95.7,0c3.2,0,6.4,0,10.4,0
	c0-4.5,0-8,0-11.5c0-162,0-324,0-486c0-6-0.1-12.1,0.9-17.9c7-41.4,40.2-69.5,82.3-69.5c84.5-0.1,169.1,0,253.6,0
	c78.5,0,157.1,0,235.6,0c27.3,0,49.6,10.6,66.8,31.9C802,74.4,805.8,87.9,809.9,101.5z M602,801c4.6-0.8,7.8-1.1,10.9-2.1
	c22.5-6.8,34.8-24.8,34.8-51.2c0-181.6,0-363.2,0-544.8c0-2.9,0-5.8,0-9.6c-4.2,0-7.4,0-10.6,0c-109.9,0-219.8,0-329.7,0
	c-20.4,0-24.6-4.4-24.7-25.1c-0.2-21,0.5-42-1.2-62.9c-1.9-23.2-23-40.8-46.6-41c-22.6-0.2-43.1,16.6-47,39
	c-1,5.6-1.2,11.4-1.2,17.1c-0.1,208.9-0.1,417.8,0,626.6c0,17.9-2.9,34.7-12.7,49.9c-0.5,0.8-0.5,1.9-0.6,2.7c93,0,185.6,0,278.7,0
	c0-27.5,0.1-54.5-0.1-81.5c0-2.8-1.8-5.6-3.1-8.2c-16.1-32-14.7-63.3,5.1-93c26.4-39.4,79.6-50.1,120.2-25.1
	c40.1,24.7,53.9,76.8,31.4,118.2c-1.4,2.6-3.3,5.4-3.3,8.1C601.9,745.4,602,772.6,602,801z M776.7,160c0-15,0.1-29.2,0-43.3
	c-0.3-32.5-20.2-52.5-52.8-52.5c-138.5-0.1-277.1,0-415.6,0c-2.3,0-4.5,0.3-8.3,0.6c22.5,29.5,13.5,63.2,16.2,95.1
	C469.7,160,622.7,160,776.7,160z M58.5,649.8c-0.5,1.3-0.8,1.8-0.8,2.3c-0.1,33.8-0.3,67.6,0,101.4c0.1,13.6,5,25.7,15.6,34.7
	c15.6,13.4,33.6,15.6,52.1,7.9c19-7.9,28-23.6,28.2-44c0.3-32.7,0.1-65.5,0-98.2c0-1.3-0.3-2.6-0.5-4.2
	C121.3,649.8,90,649.8,58.5,649.8z M582.7,667.3c-0.2-30.9-25-55.5-55.9-55.4c-30.7,0.1-55.7,25.1-55.7,55.7
	c0,30.9,25.5,56.1,56.4,55.8C558.3,723.1,582.9,698,582.7,667.3z M486,823.7c5.6-3,10.3-5.5,15-8.1c26-14.1,21.3-14.3,47.5-0.8
	c6.4,3.3,12.8,6.4,19.5,9.8c0-26.4,0-51.6,0-77.7c-27.7,13.4-54.8,12.5-82,0.4C486,773.2,486,797.9,486,823.7z"/>
<path class="st1" d="M418,355.4c54.8,0,109.6,0,164.4,0.1c4,0,8.2,0.3,12.1,1.3c7.2,1.8,12,8.6,11.9,15.7s-5.2,13.8-12.3,15.4
	c-3.7,0.8-7.6,1.1-11.3,1.1c-110.4,0.1-220.8,0-331.2,0c-15.4,0-23.5-5.7-23.6-16.6s8-16.9,23.3-16.9
	C306.7,355.4,362.4,355.4,418,355.4z"/>
<path class="st1" d="M416.3,461.8c-54.8,0-109.6,0-164.3,0c-3.3,0-6.6,0-9.8-0.4c-7.8-1-13.3-6.9-14.1-14.7
	c-0.8-7.5,3.9-14.7,11.4-16.8c3.6-1,7.5-1.2,11.3-1.2c110.9-0.1,221.9-0.1,332.8,0c3.8,0,7.7,0.2,11.3,1.2
	c7.5,2.1,12.1,9.4,11.4,16.8c-0.8,7.7-6.3,13.7-14.1,14.7c-3.2,0.4-6.5,0.4-9.8,0.4C526.9,461.8,471.6,461.8,416.3,461.8z"/>
<path class="st1" d="M416.4,535.2c-55.3,0-110.6,0-166-0.1c-3.8,0-7.7-0.2-11.3-1.2c-7.2-2.1-11.7-9.1-11.2-16.2
	c0.5-7.6,6.1-13.9,13.7-15.1c3.2-0.5,6.5-0.4,9.8-0.4c110.4,0,220.7,0,331.1,0c2.7,0,5.5-0.1,8.2,0.2c8.9,0.9,15.4,7.6,15.6,16
	c0.2,8.3-6.1,15.4-15,16.6c-2.7,0.4-5.4,0.3-8.2,0.3C527.6,535.2,472,535.2,416.4,535.2z"/>
<path class="st1" d="M417.3,315.7c-24,0-47.9,0.1-71.9-0.1c-13.9-0.1-22-9.6-18.5-21.3c1.9-6.3,6-10.3,12.5-11.3
	c3.2-0.5,6.5-0.6,9.8-0.6c45.2,0,90.4,0,135.6,0c15.5,0,23.5,5.6,23.6,16.4c0.1,11-8.2,16.9-24.1,16.9
	C461.9,315.7,439.6,315.7,417.3,315.7z"/>
<path class="st1" d="M295.2,700.1c-15,0-30,0.1-45-0.1c-3.8,0-7.7-0.3-11.3-1.4c-7.3-2.3-11-8.2-10.9-15.5s3.9-13,11.3-15.3
	c3.1-0.9,6.4-1.2,9.7-1.2c31.3-0.1,62.7-0.1,94,0c3,0,6,0.4,8.9,1.1c7.1,1.8,12.2,8.3,12.3,15.5c0.1,7.1-4.8,13.9-11.9,15.7
	c-3.4,0.9-7,1.2-10.5,1.2C326.3,700.1,310.8,700.1,295.2,700.1z"/>
<path class="st1" d="M296.3,637c-16.3,0-32.7,0.1-49,0c-11.9-0.1-19.4-6.6-19.4-16.4c0-9.8,7.5-16.6,19.3-16.7
	c32.7-0.1,65.4-0.1,98.1,0c11.6,0.1,19.3,7.2,19,17c-0.2,9.5-7.5,15.9-18.9,16.1C329,637.1,312.7,637,296.3,637z"/>
</svg>
