<?xml version="1.0" encoding="utf-8"?>
<!-- Generator: Adobe Illustrator 22.0.0, SVG Export Plug-In . SVG Version: 6.00 Build 0)  -->
<svg version="1.1" id="Calque_1" xmlns="http://www.w3.org/2000/svg" xmlns:xlink="http://www.w3.org/1999/xlink" x="0px" y="0px"
	 viewBox="0 0 471.3 556.5" style="enable-background:new 0 0 471.3 556.5;" xml:space="preserve">
<g>
	<path d="M64.9,10.1c113.8,0,227.6,0,341.5,0c4,1.2,8,2.1,11.9,3.5c21.6,7.7,41.1,29.2,41,61.4c-0.3,135.4-0.1,270.9-0.1,406.3
		c0,2.8-0.1,5.6-0.3,8.4c-2.2,31.6-28.8,56.6-60.4,56.6c-108.6,0.1-217.1,0-325.7,0c-10.9,0-21.1-2.8-30.3-8.5
		c-20.7-12.8-30.4-31.7-30.4-56c0.1-127.2,0-254.5,0-381.7c0-9.4-0.2-18.9,0.1-28.3c0.7-26.2,13-45.1,36.5-56.4
		C53.8,13,59.5,11.9,64.9,10.1z M235.5,188.8c26.9,0,53.7,0,80.6,0c13.4,0,26.9,0.3,40.3-0.4c16.8-0.9,30.9-13.1,34.2-29.6
		c1.4-6.7,1.1-13.9,1.2-20.8c0.1-9.2,0.8-18.6-0.5-27.7c-2.7-19.6-19.2-33-39.7-33.1c-41-0.1-82,0-123,0c-36.3,0-72.6-0.1-108.9,0
		C96.3,77.2,79.6,94,79.4,117.3c-0.1,11.2-0.1,22.3,0.1,33.5c0.1,3.6,0.7,7.3,1.8,10.8c5.3,17.1,20,27.1,39.6,27.2
		C159.1,188.8,197.3,188.8,235.5,188.8z M146.3,389.3c-5.5-5.7-10.3-10.9-15.2-15.8c-7.5-7.4-18-7.7-24.7-0.8
		c-6.8,6.9-6.4,16.7,1,24.2c5,5.1,10.1,9.9,15.8,15.5c-5.8,5.6-11.1,10.6-16.3,15.7c-4.1,4-6,9-5,14.7c1.1,6.3,4.7,10.9,10.8,13
		c6.4,2.2,12.5,1,17.4-3.8c5.3-5.3,10.3-10.8,16.3-16.9c5.6,5.9,10.2,11.3,15.4,16.1c2.4,2.3,5.6,4.3,8.8,5.1
		c7.4,1.9,14.3-1.4,17.9-7.6c3.7-6.4,3.1-14.2-2.3-19.8c-5.3-5.5-11.1-10.5-17.3-16.3c6.3-6.1,11.8-10.9,16.8-16.2
		c6.8-7.1,6.7-17.4,0.1-23.9c-6.6-6.4-16.9-6.2-23.9,0.7C156.9,378.2,152,383.4,146.3,389.3z M162.8,295c3.6,0,6.4,0,9.2,0
		c11.2-0.1,18.7-6.8,18.8-16.7c0-10-7.5-16.8-18.5-16.9c-2.9,0-5.8,0-9,0c-0.2-4.9-0.1-9.3-0.7-13.5c-1-8.6-8.6-14.7-17.2-14.2
		c-8.8,0.5-15.3,7.1-15.6,15.9c-0.1,3.8,0,7.6,0,11.8c-3.8,0-6.9,0-10,0c-10.6,0.1-18.3,7.3-18.2,16.9c0.1,9.6,7.8,16.5,18.4,16.7
		c3.1,0,6.2,0,9.7,0c0,4.1-0.1,7.5,0,11c0.2,9.4,6.8,16.4,15.9,16.7c9,0.4,16.3-6.1,17.1-15.5C163,303.4,162.8,299.6,162.8,295z
		 M325.4,423.7c-9.4,0-18.8-0.1-28.2,0c-9.2,0.1-16.2,6.7-16.6,15.4c-0.4,9.5,5.8,17.3,15.4,17.5c19.3,0.5,38.7,0.4,58,0
		c9.2-0.2,16.1-8.2,15.8-16.9c-0.3-9-7.7-16-17.2-16.1C343.5,423.6,334.4,423.7,325.4,423.7z M325.1,300.4c8.7,0,17.4,0,26.1,0
		c0.3,0,0.7,0,1,0c9.6-0.2,16.9-6.8,17.4-15.9c0.5-8.8-6.6-17-16-17.2c-19.2-0.4-38.3-0.4-57.5,0c-9.7,0.2-16,7.7-15.6,17.3
		c0.3,8.8,7.4,15.6,16.8,15.7C306.6,300.5,315.9,300.4,325.1,300.4z M324.9,400.9c8.7,0,17.4,0,26.1,0c0.3,0,0.7,0,1,0
		c9.9-0.1,17.3-6.9,17.6-16.2c0.3-9.1-7-16.8-16.9-16.9c-18.6-0.3-37.3-0.3-55.9,0c-10.1,0.2-16.6,7.5-16.4,17.2
		c0.2,9.1,7.4,15.8,17.2,15.9C306.8,401,315.8,400.9,324.9,400.9z"/>
</g>
</svg>
