<?xml version="1.0" encoding="utf-8"?>
<!-- Generator: Adobe Illustrator 22.0.0, SVG Export Plug-In . SVG Version: 6.00 Build 0)  -->
<svg version="1.1" id="Calque_1" xmlns="http://www.w3.org/2000/svg" xmlns:xlink="http://www.w3.org/1999/xlink" x="0px" y="0px"
	 viewBox="0 0 834 1080" style="enable-background:new 0 0 834 1080;" xml:space="preserve">
<g>
	<path d="M36.2,540.1c0-106.7,0-213.3,0-320c0-53.3,0-106.7-0.1-160c0-8.2,1.1-16.2,8.5-20.9c3.9-2.5,8.9-4.3,13.4-4.3
		c112.4-0.2,224.8-0.2,337.2-0.2c74.6,0,149.3,0.1,223.9-0.1c9.3,0,16.3,3,22.7,9.5c48.9,49.2,98,98.2,147.1,147.1
		c6,6,8.8,12.6,8.8,21.1c-0.1,86.7,0.1,173.4,0.1,260.1c0,121.8-0.1,243.6-0.2,365.4c0,59.9,0,119.8,0,179.7c0,4.4,0,8.9-1,13.1
		c-2.2,9.1-10.3,14.7-20.8,14.8c-35.3,0.1-70.7,0.1-106,0.1c-119.8,0-239.7,0-359.5,0c-84.1,0-168.1,0-252.2,0
		c-12.9,0-21.8-8.8-21.8-22c-0.1-43.9,0.1-87.8,0.1-131.7c0-61.5-0.1-122.9-0.1-184.4C36.2,651.6,36.2,595.8,36.2,540.1z
		 M79.1,1002.6c225.7,0,450.5,0,675.6,0c0-257.6,0-514.7,0-772.1c-2.1-0.1-3.8-0.3-5.5-0.3c-40.8,0-81.6-0.1-122.5,0
		c-16.6,0-24.7-7.8-24.7-24.4c0-40.4,0-80.8,0-121.2c0-2.3,0-4.7,0-7c-174.7,0-348.7,0-522.9,0C79.1,386,79.1,694.1,79.1,1002.6z
		 M644.7,187.4c26.5,0,52.6,0,76.8,0c-25.3-25.4-51.3-51.6-76.8-77.2C644.7,135.1,644.7,161.1,644.7,187.4z"/>
	<path d="M417,458.5c-81.9,0-163.7,0-245.6,0c-4,0-7.9,0-11.8-0.1c-13.4-0.5-22.7-9.5-22.3-21.7c0.3-12,9.6-20.7,22.6-20.8
		c16.5-0.2,32.9-0.1,49.4-0.1c154.3,0,308.6,0,462.8,0c1.3,0,2.6-0.1,3.9,0c11.8,0.8,20.7,10.1,20.6,21.5
		c-0.1,11.2-8.6,20.4-20.3,21c-9.6,0.5-19.3,0.1-29,0.1C570.6,458.5,493.8,458.5,417,458.5L417,458.5z"/>
	<path d="M417,718.1c-68.2,0-136.5,0-204.7,0c-17.3,0-34.7-0.1-52-0.2c-13.4-0.1-22.8-8.8-22.9-21c-0.1-12,9.4-21.3,22.7-21.5
		c22.4-0.3,44.8-0.2,67.2-0.2c77,0,154.1,0.1,231.1,0.1c71.5,0,143.1,0,214.6,0c11.2,0,19.2,5.1,22.5,14c3.2,8.6,1.2,18.1-6.5,23.6
		c-4,2.9-9.6,4.9-14.5,4.9c-57.9,0.3-115.9,0.2-173.8,0.2c-27.9,0-55.7,0-83.6,0C417,718,417,718,417,718.1z"/>
	<path d="M416.9,545.7c85.6,0,171.2,0,256.8,0c13.3,0,22.9,8.9,23.1,21c0.2,12-9.7,21.5-22.6,21.5c-171.4,0-342.8,0-514.2-0.1
		c-17.2,0-27.8-15.9-20.3-30.7c4.2-8.3,11.4-11.6,20.5-11.6c36,0.1,72,0,108,0C317.7,545.7,367.3,545.7,416.9,545.7z"/>
	<path d="M416.3,847.6c-81.4,0-162.8,0-244.2,0c-4.4,0-8.8,0-13.2-0.1c-12.2-0.1-21.5-9.2-21.6-21c-0.1-11.7,9.3-21.1,21.4-21.2
		c52-0.1,104,0,156,0c104,0,208,0,312,0c16.2,0,32.5-0.1,48.7,0c12,0.1,21.4,9.6,21.2,21.3c-0.1,11.6-9.2,20.8-21,20.8
		C589.2,847.7,502.7,847.6,416.3,847.6z"/>
</g>
</svg>
