<?xml version="1.0" encoding="utf-8"?>
<!-- Generator: Adobe Illustrator 22.0.0, SVG Export Plug-In . SVG Version: 6.00 Build 0)  -->
<svg version="1.1" id="Calque_1" xmlns="http://www.w3.org/2000/svg" xmlns:xlink="http://www.w3.org/1999/xlink" x="0px" y="0px"
	 viewBox="0 0 834.7 846.5" style="enable-background:new 0 0 834.7 846.5;" xml:space="preserve">
<g>
	<path d="M435.3,38.9c10,2,20.2,3.3,30,6c80.8,21.9,132.9,73.6,150.9,155c17,77.1-6.6,143.5-65.1,197c-3.3,3-6.8,5.8-11,9.4
		c5,1.9,9.3,3.4,13.6,5.1c16.3,6.5,24.1,22.5,18.7,38.2c-5.4,15.8-21.3,24-38.1,18.6c-25.2-8.1-50.6-15.3-77-18.4
		c-28.7-3.4-57.3-3.3-85.9,0.8c-50.7,7.3-97.4,25.3-139.7,54.2c-49.4,33.7-87.8,77.3-112.6,131.7c-10.1,22.1-17.1,45.7-24,69.1
		c-7,23.7,7.6,41.8,32.5,41.9c34.5,0.2,69-0.1,103.6,0.1c12.7,0.1,21.7,6.7,26.9,18.2c4.9,11,2.3,24.1-6.1,32.6
		c-5.7,5.7-12.5,9-20.7,9c-37.5,0-75,0.4-112.6-0.2c-39.7-0.6-76.3-33-84-73.1c-0.3-1.6-1.1-3.1-1.6-4.7c0-8.5,0-17,0-25.5
		c0.5-0.8,1.2-1.7,1.3-2.6c6.5-34,17.4-66.7,33.2-97.4c47.8-93.2,120.4-158.7,219.3-194.5c2.4-0.9,4.7-2,6.9-3
		c-9.4-9.1-19-17.2-27.3-26.5c-45.1-51-63.1-110.7-48.8-177.2C235.5,120,287.4,67.3,369.3,44.9c9.8-2.7,20-4,30-6
		C411.3,38.9,423.3,38.9,435.3,38.9z M273.2,243.1c0,78.1,64.9,143.8,142.1,143.9c80.9,0.1,145.7-63.6,146.1-143.6
		c0.4-78.8-64.8-144.2-143.9-144.5C338.6,98.7,273.2,164,273.2,243.1z" fill="currentColor"/>
	<path d="M323.8,656.3c1.7,2.5,2,2.9,2.2,3.3c12.4,17.5,28.3,24.9,50.4,22.2c18-2.1,36.5-0.5,54.7-0.4c18.2,0.1,31.3,12.9,31.1,30.3
		c-0.1,17-13.2,29.6-31,29.7c-31.8,0.1-63.6-0.1-95.3,0.1c-9.3,0-17.1-3.2-23.5-9.7c-17-17.3-34.2-34.5-51-52
		c-12.6-13.1-12.9-29.7-0.5-43c16.6-17.7,33.7-35,50.6-52.3c6.6-6.8,14.7-9.7,24.3-9.7c62.3,0.1,124.6,0,186.9,0.2
		c5.7,0,8.2-1.8,10.1-7.1c14.3-40.5,40.9-59.1,83.7-59.1c28.8,0,57.5-0.1,86.3,0c36.3,0.1,64.2,19.2,78,52.7
		c14.1,34.1,22.7,69.4,20.4,106.5c-2.3,37.6-10.5,73.9-31.1,105.8c-14.5,22.4-37,33.2-63.7,33.5c-32.5,0.5-65.1,0.3-97.6,0
		c-33-0.3-62.8-21.3-74.3-52.5c-4.3-11.7-7.9-23.7-11.1-35.7c-4.4-16.6,4.7-32,21.1-36.7c15.2-4.4,31.1,4.1,36.3,19.7
		c3.2,9.5,5.7,19.1,9,28.5c4.1,11.8,11.2,16.7,23.8,16.7c29.3,0.1,58.5,0.1,87.8,0c12.9,0,19-4.3,23.9-16.5
		c11.7-29.3,18.9-59.4,14.8-91.4c-2.6-20.4-8.1-40.1-16.7-58.8c-3.9-8.5-11.3-11.9-20.1-11.9c-30.3-0.2-60.5-0.2-90.8,0
		c-11.9,0.1-17.8,4.6-21.8,15.9c-3.1,8.9-5.8,18-8.6,27.1c-4.7,15.1-15.2,23-31.1,23c-63.8,0-127.6,0.2-191.4-0.2
		c-9.2-0.1-16.2,1.7-22,9.2C333.9,648.7,328.5,652.2,323.8,656.3z" fill="currentColor"/>
	<path d="M710,657.3c0,16.7-13.1,29.9-29.8,30c-17,0.1-30.3-13.3-30.2-30.3c0.1-16.6,13.4-29.7,30.1-29.6
		C696.8,627.4,710,640.7,710,657.3z" fill="currentColor"/>
</g>
</svg>
