<?xml version="1.0" encoding="utf-8"?>
<!-- Generator: Adobe Illustrator 22.0.0, SVG Export Plug-In . SVG Version: 6.00 Build 0)  -->
<svg version="1.1" xmlns="http://www.w3.org/2000/svg" xmlns:xlink="http://www.w3.org/1999/xlink" x="0px" y="0px"
	 viewBox="0 0 1080 1080" style="enable-background:new 0 0 1080 1080;" xml:space="preserve">
<g id="Fond">
</g>
<g id="Etoiel_3">
</g>
<g id="Trait">
</g>
<g id="Etoile_2">
</g>
<g id="_x2B_">
</g>
<g id="Triangle">
</g>
<g id="Pointillé_2">
</g>
<g id="Pointillé">
</g>
<g id="Tel">
	<g>
		<path d="M498.1,1028.2c-24.1-4.9-48.4-9.1-72.3-14.7c-62.7-14.9-119.2-42.9-170.2-82c-9-6.9-24.4-13.8-13.8-28.1
			c10.6-14.3,21.3-1.8,30.6,5.1c74.1,56,157.3,86.6,250.3,90.4c5.6,0.2,11.1,0,18.4,0c-1.3-6.3-2.2-11-3.2-15.7
			c-5-22.9-0.4-42.4,18.1-58.4c20.4-17.7,21.5-43.6,3.7-63.7c-5.9-6.7-12.3-12.9-18.1-19.6c-18.8-21.9-20.6-45.4-5.8-70.2
			c18.7-31.2,13.5-44.2-20.9-56.2c-80.1-27.8-57.2-8-101.8-82.9c-4.5-7.6-8.7-15.5-13.5-23c-9-13.9-15.6-13.8-25.2,0.2
			c-2.9,4.2-5.2,8.7-8.2,12.8c-11.8,16-29.8,21.5-47,14.6c-18.2-7.3-28.5-24.5-23.9-44.5c6.9-30.3,14.2-60.6,23.8-90.1
			c3.2-9.8,12.3-19,21-25.4c11.1-8.2,24.6-13.1,36.9-19.7c16.6-8.9,19.1-20.3,4.2-32.1c-9.3-7.4-22.4-11.5-34.4-13.6
			c-53.6-9.3-94.5-41.8-135.4-73.7c-10.7-8.4-15.7-24-24.2-37.6c-25.2,31.5-44.5,66.9-57.6,105c-56.3,163.6-29.7,312.4,81.5,445.6
			c1.6,1.9,3.4,3.8,5.1,5.7c7.3,8,13.9,16.8,3.3,26.1c-9.9,8.7-17.4,0.8-24.1-6.5C133,808.1,94.2,728.9,78.7,638.2
			c-2.8-16.1-5.1-32.3-7.7-48.5c0-19.1,0-38.1,0-57.2c4.6-26.8,7.8-54,14.2-80.4c28.6-118.8,94.5-212,194.8-281.6
			c7.2-5,13.4-14.8,15.3-23.4c9.5-43.1,33-74.1,75-88.7c42.2-14.7,80.5-5.2,112.7,25c8.9,8.3,17,11,28.5,10.2
			c71.5-4.7,140.5,6.3,206.7,34c10,4.2,22.7,7.6,17.2,22.1c-5.6,14.6-17.4,8.8-27.4,4.6c-62-25.7-126.4-36.5-195.4-32.6
			c1.7,10.7,3.8,20.2,4.8,29.9c4.3,43.8-10.1,82.7-32.8,118.9c-10.8,17.1-23.2,33.4-36.4,48.8c-24.1,28.1-57.7,28.9-82.7,1.8
			c-29.6-32.1-52.1-68.7-65-110.8c-1.3-4.1-2.5-8.3-5.7-18.4c-28.4,26.1-54.4,49.6-79.8,73.8c-2.6,2.5-2.2,9.5-1.3,14
			c5.1,24.8,18,43.8,40.6,56.8c37.3,21.4,72.1,46.9,117.3,51.4c21.5,2.1,36,17.8,44,38.1c8.4,21.5,1.6,40.7-17.8,52.5
			c-1.6,1-3.3,2.2-5,2.6c-62.1,15.5-55.3,72.4-69.5,116.5c-1,3.1,3.2,10.2,6.6,11.6c3.3,1.3,9.3-1.4,12.8-4.1c3.3-2.5,5-7.2,7.4-11
			c21.6-33.5,54.6-32.8,75.1,1.9c12,20.2,22.8,41.1,35.7,60.7c4.7,7.2,13.1,13.5,21.1,16.8c17.5,7.3,36.1,11.9,54,18.6
			c36.9,13.7,49.9,51.6,29.8,85.4c-15.9,26.7-15.5,32.1,6.1,54.6c13.4,13.9,26,27.7,27.8,48.4c2.2,25.4-2.3,47.7-23.4,64.9
			c-14.6,12-15.9,33.8-3.9,47.7c2.3,2.7,7.7,4.4,11.4,4.1C734,983.9,869.7,886,929.4,760.6c-19.6-15.1-39.5-30.4-57.3-44.1
			c-20.8,30.8-39.4,61.8-61.4,90c-26.9,34.5-61.1,33.8-90,0.5c-36-41.5-62.5-87.7-67.8-145.7c-33.7,7.9-53.6-15.5-75.7-32.5
			c-17.8-13.8-19.9-35.4-7.6-54.6c4.8-7.5,10.1-14.7,15.8-21.4c21.7-25.6,35.7-54.1,42.4-87.8c10.4-52.2,48.8-80.3,101.7-77.6
			c22,1.1,36.7-5.8,45.3-26.3c11.9-28.5,30.3-47.7,63.1-54.5c11.5-2.4,21.4-19.8,28.3-32.4c2.1-3.8-6.9-16.2-13.3-21.8
			c-25.5-21.8-52.4-42-77.8-64c-5.8-5-12.3-16.8-10.2-22c5.3-12.8,16.2-7.7,25.3-1.7c125.9,83,197.8,199.3,215.3,349.2
			c0.7,6.2,2.3,12.4,3.5,18.5c0,19.1,0,38.1,0,57.2c-1.1,4.8-2.8,9.6-3.4,14.5C981.4,793.5,883.5,927,704.7,996.9
			c-39,15.3-81.7,21.1-122.8,31.3C554,1028.2,526,1028.2,498.1,1028.2z M891.9,300.2c-14.4,11.7-27.3,29.7-43.4,33.4
			c-26.7,6.1-40.1,21.1-50,43.6c-12.5,28.4-34.8,39.6-65.7,38.3c-45.4-2-70.2,17.3-78.8,62.1c-5.9,30.7-17.1,58.1-37.7,81.8
			c-7.5,8.6-14.2,17.9-20.5,27.5c-2.6,3.9-4.8,9.4-4.2,13.8c1.4,10.1,40.1,35.5,50.1,32c7.1-2.4,15.6-8.3,18.4-14.8
			c23.5-55.1,75.5-84.5,129.7-71.9c57.6,13.4,92.3,63.4,87.4,125.1c-0.4,5.5,1,13.4,4.7,16.4c19.5,16.2,39.9,31.1,60.2,46.6
			C1007.1,598.5,984.4,409.2,891.9,300.2z M849,668.4c0.8-59.7-39.6-99.9-87.3-96.7c-49.3,3.3-85.7,48.1-79,97.5
			c6.8,49.8,33,89.8,65.8,126c9.3,10.3,22.3,12.1,32.1,1.9C817.6,758.2,845,714.2,849,668.4z M322.6,175.9
			c3.6,46.8,31.4,91.2,69.1,130.3c9.6,10,22.7,7.8,32.1-2.6c32.7-36.3,58.8-76.3,65.5-126.1c6.6-49.5-28.5-93-77.3-96.3
			C363.2,78,323,116.4,322.6,175.9z" fill="currentColor"/>
		<path d="M765.6,705.1c-27.6,0-49.8-21.9-50-49.2c-0.2-27.7,23.4-51.1,51-50.6c27.3,0.6,48.9,23,48.7,50.6
			C815.1,683.7,793.4,705.1,765.6,705.1z M743.8,661c5.5,4.1,12.9,13.6,21.7,15.2c12.6,2.2,23-8.1,20.7-20.5
			c-1.4-7.9-11.4-18-19.4-20.2C754.1,632,746.2,641.3,743.8,661z" fill="currentColor"/>
		<path d="M356.5,163.3c0.5-27.4,23.2-49.5,50.3-49c27.1,0.5,49.4,23.2,49.3,50.3c-0.1,27.9-23.9,50.9-51.6,49.8
			C377,213.4,356,191.1,356.5,163.3z M401.6,188.9c3.1,0,6.2,0,9.3,0c5.5-8.3,14.2-16.1,15.7-25c1.9-11.6-6.8-19.9-19.6-20.3
			c-13.8-0.4-23.1,8.1-21.5,20.5C386.5,172.8,395.9,180.6,401.6,188.9z" fill="currentColor"/>
	</g>
</g>
<g id="Mail_...">
</g>
<g id="Osez...">
</g>
<g id="Texte_GT">
</g>
<g id="Eclat_sur_O">
</g>
<g id="Fond_23">
</g>
<g id="Fleur_2">
</g>
<g id="Fleur_1">
</g>
<g id="_x32_023">
</g>
<g id="Logo_GT">
</g>
</svg>
