<?xml version="1.0" encoding="utf-8"?>
<!-- Generator: Adobe Illustrator 22.0.0, SVG Export Plug-In . SVG Version: 6.00 Build 0)  -->
<svg version="1.1" id="Calque_1" xmlns="http://www.w3.org/2000/svg" xmlns:xlink="http://www.w3.org/1999/xlink" x="0px" y="0px"
	 viewBox="0 0 834.7 846.5" style="enable-background:new 0 0 834.7 846.5;" xml:space="preserve">
<g>
	<path d="M611.8,825.5c-11.6-2.7-23.3-4.9-34.7-8.3c-78.8-23.7-132.8-96.4-132.9-178.5c0-31.2,0-62.5,0-94.2c9,0,17.5,0,26.8,0
		c0,10.5-0.1,20.8,0,31c0.4,26.5-0.7,53.1,1.7,79.5c6.2,69.8,60,127.8,128.4,140.4c90.9,16.8,174.6-42.1,189.8-133.6
		c13.9-83.9-45.1-167.6-129.4-181.5c-20.5-3.4-41.7-2.8-62.5-3.4c-20-0.5-40.1-0.1-60.5-0.1c0-9.1,0-17.3,0-26.3
		c2.4-0.2,4.8-0.5,7.2-0.5c30.2,0,60.3-0.1,90.5,0c85.8,0.4,164.3,66.2,179.9,150.6c1,5.7,2.3,11.3,3.5,17c0,12.8,0,25.7,0,38.5
		c-0.6,2.1-1.3,4.2-1.6,6.4c-12.4,75.2-54.1,126.4-125.7,152.6c-13.4,4.9-27.9,6.9-41.9,10.2C637.5,825.5,624.6,825.5,611.8,825.5z"
		 fill="currentColor"/>
	<path d="M184.4,825.5c-17.2-4.5-35-7.3-51.4-13.8C1.5,760.2-26.4,584.2,82.4,493.9c35-29.1,75.3-43.9,120.9-43.8
		c30.7,0,61.4,0,92.8,0c0,8.8,0,17.2,0,26.8c-2.9,0-5.9,0-8.8,0c-27.1,0-54.2-0.1-81.3,0C124.6,477.2,60.5,530.1,44.7,610
		c-16.5,83.4,42.5,170,126.5,185.4c87.4,16,167.9-35.9,188.2-122.1c3-12.6,4-25.9,4.3-39c0.6-26.8,0.2-53.6,0.2-80.4c0-3,0-6,0-9.5
		c9,0,17.3,0,26.8,0c0,2.6,0,5.3,0,7.9c0,29.6,0.1,59.2,0,88.8c-0.3,87.3-66.3,165.6-152.2,181c-5.1,0.9-10.2,2.2-15.3,3.3
		C210.1,825.5,197.3,825.5,184.4,825.5z" fill="currentColor"/>
	<path d="M819.6,228.9c-2.7,11.6-4.9,23.3-8.3,34.7c-23.8,78.9-96.3,132.7-178.5,132.9c-26.8,0.1-53.5,0-80.8,0c0-9,0-17.5,0-26.8
		c25,0,49.8,0.6,74.6-0.2c14.4-0.4,29.1-1.7,43.1-4.9c77.7-17.8,130.2-92.3,121.9-171.6c-8.7-82.7-76.2-144.3-158.9-145.1
		c-81.8-0.7-152,62.1-160.3,143.5c-1,9.9-1.4,19.9-2.1,30.3c-8.4,0-16.7,0-25.6,0c-1.8-21.6,0.5-42.7,6.2-63.5
		c19.9-72.2,81.9-126,156.2-135.6c1.6-0.2,3.1-1,4.6-1.6c13.4,0,26.8,0,40.2,0c1.8,0.6,3.6,1.4,5.4,1.7
		C728.1,34.4,778.3,72.8,805.8,139c6.7,16.2,9.3,34.1,13.8,51.3C819.6,203.2,819.6,216,819.6,228.9z" fill="currentColor"/>
	<path d="M223,21c9.7,2.2,19.5,4,29.1,6.6c73.8,20,127.6,81.9,136.9,157.6c1.5,11.8,1.5,23.8,2.2,36.3c-9.6,0-18.1,0-25.6,0
		c-2.3-17.4-3-34.8-7-51.4C340.9,96.8,274.2,46.3,198.8,47.9C118.6,49.7,51.1,112.2,43.3,192c-8.5,86.2,50.1,162.2,135.5,175.6
		c9.9,1.5,20,1.8,30,1.9c24.5,0.3,49,0.1,74,0.1c0,8.9,0,17.2,0,26.8c-2.5,0-5.2,0-7.8,0c-24.8,0-49.7,0.1-74.5,0
		c-84.5-0.3-160.7-60.8-180.1-143C-5.5,143.7,66.6,38.4,178.2,22.6c1.6-0.2,3.1-1.1,4.6-1.6C196.2,21,209.6,21,223,21z" fill="currentColor"/>
	<path d="M529.6,376.4c-5.3,10.7-10.6,20.8-15.3,31.1c-1.8,3.9-3,8.4-3,12.7c-0.3,23.1-0.1,46.2-0.1,69.9c4.6,0,8.4,0,12.8,0
		c0,9,0,17.5,0,26.5c-70.9,0-141.8,0-213.2,0c0-8.3,0-16.8,0-25.9c4-0.2,8-0.4,12.7-0.7c0-25.2,0.4-50-0.3-74.8
		c-0.1-5.1-4-10.2-6.4-15.2c-3.7-7.7-7.6-15.4-11.7-23.7c21.8-9.3,42.9-18.7,64.2-27.4c6.1-2.5,8.7-5.5,8-12.2
		c-0.7-6.4-0.1-12.8-0.2-19.3c-0.2-16.6,7.1-29,21.5-37c4-2.2,5.7-4.4,5.4-9c-0.4-7.2-0.1-14.4-0.1-22c9,0,17.2,0,26.8,0
		c0,7.3-0.4,14.8,0.2,22.1c0.3,2.9,2.3,6.8,4.7,8.2c14.7,8.8,22.3,21.3,22,38.6c-0.1,7,0.3,14-0.1,20.9c-0.3,4.8,1.7,6.8,5.8,8.5
		c19.5,8.1,39,16.6,58.4,24.9C524.2,373.9,526.7,375,529.6,376.4z M343.1,389.5c-0.3,1.1-0.6,2.2-0.9,3.3c3.1,1.2,6.1,3.5,9.2,3.5
		c44.1,0.2,88.1,0.1,132.2,0.2c4.9,0,8-1.1,8.2-7.2c-23.9-10.3-47.9-20.6-71.9-30.8c-1.3-0.6-3.4-0.5-4.7,0.1
		C391.1,368.9,367.1,379.2,343.1,389.5z M376.6,490c0-22.7,0-44.6,0-66.3c-8.9,0-17.2,0-25.7,0c0,22.3,0,44.2,0,66.3
		C359.6,490,367.8,490,376.6,490z M404.4,423.6c0,22.6,0,44.3,0,66.2c8.9,0,17.4,0,25.8,0c0-22.4,0-44.3,0-66.2
		C421.4,423.6,413.1,423.6,404.4,423.6z M458.1,423.6c0,22.4,0,44.3,0,66c9,0,17.5,0,25.9,0c0-22.3,0-44,0-66
		C475.4,423.6,467.1,423.6,458.1,423.6z M430.7,330.6c-1.2-8,4.5-19.9-7.6-26c-3.5-1.8-10.4-1-13.6,1.5c-9.2,7.1-4.6,17.4-5.1,24.5
		C413.5,330.6,421.5,330.6,430.7,330.6z" fill="currentColor"/>
	<path d="M551.5,557.3c-4.9,0-8.5,0-12.8,0c0-8.7,0-17.2,0-26.6c26.3,0,52.6,0,79.6,0c0-9.2,0-17.5,0-26.3c9.1,0,17.5,0,26.7,0
		c0,8.3,0,16.6,0,25.8c27,0,53.3,0,80.2,0c0,9.4,0,17.9,0,26.9c-4.1,0-7.9,0-12.8,0c0,15.8-0.1,31.1,0.2,46.3c0,1.5,2.9,3.6,4.9,4.3
		c6.8,2.3,13.8,4.2,21.2,6.4c2.2,24.4-2.7,47.2-13.4,68.8c-5.6,11.3-3.7,16.1,8.2,20.8c1.6,0.6,3.2,1,5.2,1.7c0,8.4,0,16.9,0,26
		c-12.4,0.6-22.8-3.8-30.8-12.3c-19.2-20.5-28.3-16.6-44.8-0.1c-18.2,18.2-44.7,17.7-63.1-0.6c-17.1-17-25.8-18.6-43.5,0.3
		c-8.1,8.6-18.5,13.2-31.3,12.9c0-8.7,0-17.2,0-25.8c3-1.2,6.2-2.2,9-3.9c9.6-5.7,10.1-8,5.1-17.6c-10.5-20.2-15.3-41.7-14.7-64.5
		c0.1-4.5,1.7-6,5.9-7.3c21.1-6,21-6.2,21-28.4C551.5,575.4,551.5,566.8,551.5,557.3z M578.7,557.7c0,14,0,27,0,40.9
		c12.3-3.5,24.3-6.1,35.8-10.3c12.1-4.4,23.5-4.2,35.6,0.1c11.3,4.1,23.2,6.6,34.9,9.9c0-14.3,0-27.5,0-40.7
		C649.2,557.7,614.2,557.7,578.7,557.7z M618.1,697.1c0-27.1,0-53.9,0-81.4c-22.2,6.4-43.7,12.5-67.3,19.3
		c3.9,11.9,7.4,22.9,11.1,33.8c2.4,7,6.2,10.4,14.8,9.7c7.1-0.6,15.1,1.4,21.7,4.4C605.3,686.2,611.2,692,618.1,697.1z M645.6,699.2
		c13.7-16,29-23.5,48.4-20.9c1.2,0.2,3.3-1,4-2.2c7.4-12.8,12.7-26.3,13.3-41.8c-22.1-6.3-43.6-12.4-65.6-18.7
		C645.6,643.3,645.6,669.9,645.6,699.2z" fill="currentColor"/>
	<path d="M618.5,88.1c0-4.8,0-8.6,0-12.9c9.1,0,17.5,0,26.6,0c0,4.2,0,8,0,12.9c6.6,0,12.7,0.5,18.7-0.1c29.9-3.1,51,17.5,48.8,49
		c-1.5,20.8-0.9,41.9-0.1,62.8c0.8,19.8-4.8,35.7-23.4,45.7c7.6,26.8,15.1,53.2,22.8,80.3c-8.6,2.5-16.6,4.8-25.7,7.5
		c-3.1-10.3-6.1-20.3-9.2-30.4c-30.1,0-59.9,0-90.3,0c-2.9,9.8-5.9,19.6-9,30.2c-8.6-2.5-16.8-4.8-25.8-7.3
		c6.4-22.4,12.6-44.3,18.8-66.1c0.7-2.4,1.3-4.9,2.2-7.2c2-4.9,0.8-7.6-3.9-10.7c-11.6-7.8-17.5-19.1-17.5-33.3
		c0-26.8-0.1-53.6,0-80.4c0.1-22.3,17.5-39.6,39.9-39.9C600.1,88,608.7,88.1,618.5,88.1z M685.6,168.2c0-11.5,0-22,0-32.6
		c0-2.2,0.1-4.5-0.1-6.7c-0.7-8.4-5.5-13.8-13.8-13.9c-26.5-0.3-53.1-0.3-79.6,0c-7.7,0.1-13.1,4.6-13.5,12.2
		c-0.7,13.5-0.2,27.1-0.2,41C614.4,168.2,649.4,168.2,685.6,168.2z M578.3,195.6c0,4.5-0.1,8.1,0,11.7c0.4,9.2,5.5,14.7,14.7,14.8
		c26,0.2,51.9,0.2,77.9,0c9.2-0.1,14.2-5.5,14.6-14.8c0.2-3.8,0-7.6,0-11.6C649.4,195.6,614.3,195.6,578.3,195.6z M661.8,249.4
		c-20.4,0-40.1,0-60,0c-2.4,8.8-4.8,17.2-7.2,25.8c25.3,0,49.6,0,74.7,0C666.7,266,664.2,257.6,661.8,249.4z" fill="currentColor"/>
	<path d="M245.6,517.1c-4.5,27.2-8.7,53.3-13,79.3c11.6,2.2,15.8,0.3,20.8-9.5c6.3-12.4,12.3-25,18.9-37.3c1.3-2.4,4.6-5.4,7-5.4
		c20.1-0.4,40.2-0.2,61.6-0.2c-3,12.2-5.9,23.6-8.7,35c-5.6,22.4-11.1,44.9-16.8,67.2c-5.2,20.2-20,31.7-40.6,31.7
		c-50.3,0-100.5,0-150.8,0c-23.8,0-41.5-17.1-41.5-39.9c-0.1-23.3,17.6-41.4,41.8-40.1c13.4,0.8,19.6-4.1,24.7-15.7
		c8.9-20.1,19.3-39.6,29.3-59.1c1.3-2.5,4.4-5.7,6.8-5.7C204.7,517,224.5,517.1,245.6,517.1z M306.1,571.4
		c-13.9-1.5-13.9-1.5-19.2,9c-3.2,6.5-6.5,12.9-9.7,19.4c-8.2,16.7-21.4,24.7-40.2,24.6c-37.4-0.3-74.8-0.1-112.1,0
		c-9.6,0-15.9,5.7-15.8,13.6c0.1,7.6,6.3,13.2,15.4,13.2c49.7,0.1,99.3,0,149,0.1c6.7,0,12.8-2.2,14.6-8.9
		C294.3,619,300,595.5,306.1,571.4z M204.8,597.2c2.9-17.5,5.8-35,9.1-54.9c-7.2,1.8-15,1.4-16.8,4.5c-9.3,16-17,32.9-25.7,50.3
		C183,597.2,193.4,597.2,204.8,597.2z" fill="currentColor"/>
	<path d="M149.1,99.7c9.3,1.2,17.5,2.2,26.9,3.4c-8.9,71.6-17.8,142.7-26.8,214.7c-9.1-1.2-17.5-2.3-26.9-3.6
		C131.3,242.7,140.1,171.8,149.1,99.7z" fill="currentColor"/>
	<path d="M256.4,103.2c9.2-1.2,17.6-2.3,26.9-3.5c9,71.7,17.8,142.6,26.8,214.5c-8.8,1.2-17.2,2.4-26.9,3.7
		C274.3,246.2,265.4,175.1,256.4,103.2z" fill="currentColor"/>
	<path d="M95.9,731.1c0-8.7,0-16.8,0-25.5c71,0,142,0,213.6,0c0,8.1,0,16.5,0,25.5C238.6,731.1,167.6,731.1,95.9,731.1z" fill="currentColor"/>
	<path d="M203.3,154.5c0-17.9,0-35.1,0-52.6c8.6,0,16.9,0,25.7,0c0,17.4,0,34.7,0,52.6C220.7,154.5,212.3,154.5,203.3,154.5z" fill="currentColor"/>
	<path d="M229.2,315.6c-8.6,0-16.8,0-25.7,0c0-17.3,0-34.7,0-52.6c8.3,0,16.8,0,25.7,0C229.2,280.4,229.2,297.8,229.2,315.6z" fill="currentColor"/>
	<path d="M203.4,182.1c8.9,0,16.9,0,25.6,0c0,17.5,0,34.9,0,52.8c-8.3,0-16.7,0-25.6,0C203.4,217.5,203.4,200.2,203.4,182.1z" fill="currentColor"/>
</g>
</svg>
