<svg width="15" height="14" viewBox="0 0 15 14" fill="none" xmlns="http://www.w3.org/2000/svg">
    <g>
        <path d="M0 7.79469C0.0580248 7.61094 0.0967081 7.4143 0.180522 7.24345C0.528671 6.53426 1.10247 6.13453 1.89548 6.09585C2.27264 6.07973 2.65625 6.09585 3.03341 6.12486C3.36544 6.15065 3.65234 6.31183 3.92312 6.52781C3.89411 6.56327 3.87155 6.59551 3.84253 6.62452C3.19781 7.3047 2.83677 8.11705 2.7175 9.04545C2.59178 10.0093 2.6627 10.9732 2.66592 11.9402C2.66592 12.0821 2.63046 12.1272 2.49184 12.124C1.95028 12.1175 1.40871 12.1272 0.867149 12.1208C0.470646 12.1175 0.151509 11.8693 0.0290124 11.4889C0.0225652 11.4664 0.00967081 11.4438 0 11.4245C0 10.2156 0 9.00676 0 7.79469Z" fill="currentColor"/>
        <path d="M7.38215 13.0653C6.46988 13.0653 5.5576 13.0653 4.64532 13.0653C4.08119 13.0653 3.66212 12.7365 3.56219 12.2111C3.53962 12.0886 3.53962 11.9596 3.53962 11.8307C3.53962 11.0602 3.5235 10.2898 3.55252 9.51934C3.62666 7.47236 5.20622 6.22804 6.78579 6.09588C7.47886 6.03785 8.18161 5.99594 8.84889 6.19581C10.2415 6.61488 11.0829 7.57873 11.3891 8.99712C11.4439 9.25178 11.4503 9.51934 11.4503 9.78368C11.4568 10.5187 11.4536 11.2569 11.4503 11.9951C11.4503 12.1143 11.4374 12.2401 11.3988 12.3529C11.2182 12.8719 10.999 13.0008 10.4252 13.0266C9.41302 13.075 8.39759 13.075 7.38538 13.0943C7.38215 13.0847 7.38215 13.075 7.38215 13.0653Z" fill="currentColor"/>
        <path d="M7.50136 2.74937e-05C8.92619 0.0064747 10.048 1.13474 10.0448 2.56279C10.0416 3.95539 8.88751 5.10299 7.49169 5.09977C6.08298 5.09655 4.94182 3.9425 4.94827 2.52411C4.95794 1.12184 6.09587 -0.00641972 7.50136 2.74937e-05Z" fill="currentColor"/>
        <path d="M12.3335 12.1014C12.3335 11.605 12.3335 11.1215 12.3335 10.6412C12.3368 10.0061 12.3368 9.37428 12.2239 8.74568C12.0757 7.91721 11.7049 7.21124 11.1279 6.60843C11.1118 6.59231 11.0957 6.57297 11.0731 6.54396C11.2504 6.36021 11.4728 6.24094 11.7114 6.18614C12.3755 6.0314 13.046 5.99917 13.7004 6.21837C14.4643 6.47626 14.9898 7.22091 14.9962 8.02681C15.0027 9.10027 14.9995 10.1737 14.9962 11.2472C14.9962 11.7243 14.6094 12.1143 14.1162 12.124C13.5843 12.1369 13.0524 12.1272 12.5205 12.1272C12.4593 12.1272 12.4045 12.1111 12.3335 12.1014Z" fill="currentColor"/>
        <path d="M2.34993 1.87291C3.26221 1.87935 3.96174 2.59177 3.95206 3.50727C3.94562 4.37765 3.21064 5.09973 2.33704 5.09651C1.4441 5.09651 0.728459 4.36153 0.734907 3.45247C0.73813 2.57243 1.46022 1.86968 2.34993 1.87291Z" fill="currentColor"/>
        <path d="M12.6558 1.87296C13.5616 1.87618 14.2644 2.58537 14.2612 3.49121C14.2579 4.37125 13.5294 5.09979 12.6461 5.09656C11.7596 5.09334 11.0376 4.3648 11.0408 3.46864C11.044 2.57893 11.7596 1.87296 12.6558 1.87296Z" fill="currentColor"/>
    </g>
</svg>
