<?xml version="1.0" encoding="utf-8"?>
<!-- Generator: Adobe Illustrator 22.0.0, SVG Export Plug-In . SVG Version: 6.00 Build 0)  -->
<svg version="1.1" id="Calque_1" xmlns="http://www.w3.org/2000/svg" xmlns:xlink="http://www.w3.org/1999/xlink" x="0px" y="0px"
	 viewBox="0 0 1080 1080" style="enable-background:new 0 0 1080 1080;" xml:space="preserve">
<style type="text/css">
	.st0{fill:#E07D00;}
	.st1{fill:#7D0000;}
</style>
<path class="st0" d="M1063.6,254.8c0,16.3,0,32.7,0,49.1c-0.7,2.1-1.8,4.2-2.1,6.5c-12.9,104.2-86.6,190.7-187.5,219.5
	c-11.2,3.2-22.6,5.4-34.8,8.2c0,4.7,0,9.3,0,14c0,132.1,0.1,264.2,0,396.1c0,52-30.6,94.5-78.2,110.1c-5.8,1.8-11.7,3.6-17.5,5.3
	c-210.3,0-420.7,0-631,0c-0.5-0.5-1.1-1.3-1.7-1.4c-64.5-17-94.2-55.3-94.2-121.9c0-193.1,0-386.2,0-579.3
	c0-72.7,47.1-120,119.7-120c130.8,0,261.7,0,392.4,0c4.5,0,9.1,0,13.4,0c0.9-4,1.8-6.6,2.2-9.2c21.9-119.8,124.4-210,244.4-214.9
	c124.7-5.1,233.9,74.5,265.7,194C1058.3,225,1060.5,240,1063.6,254.8z M315.6,315.5c-61.2,0-120.8,0-180.3,0
	c-30.2,0-44.1,14-44.1,44.4c0,194.8,0,389.5,0,584.3c0,30.2,14.1,44.4,44.1,44.4c194.8,0,389.5,0,584.3,0c30.9,0,44.6-13.8,44.6-45
	c0-130.9,0-261.8,0-392.7c0-4.2,0-8.6,0-12.5C641.6,512.6,567.6,439,540,317.3c0,3.7,0,7.2,0,10.9c0,44.4,0.1,88.8,0,133.3
	c-0.1,32.9-27.5,49.9-57.2,35.4c-16.1-7.8-31.9-16.5-48.1-23.8c-3.8-1.7-9.9-1.7-13.7,0c-17.4,7.9-34,17.3-51.4,25.2
	c-26.6,12.2-53.6-5-54-34.4c-0.4-24.9-0.1-49.9-0.1-74.8C315.6,365.1,315.6,341,315.6,315.5z M614.8,277.3
	C614.5,380.8,698,465,801.2,465.1c102.8,0.1,187-83.1,187.5-185.5C989.3,176,905.9,91.6,802.8,91.2
	C699.3,90.7,615,174.2,614.8,277.3z M464.4,402c0-28.2,0-57,0-85.7c-25,0-49.3,0-73.5,0c0,29.4,0,57.8,0,86
	c12.4-4.1,24.4-11.2,36.2-11.1C439.6,391.2,452,398.1,464.4,402z"/>
<path class="st0" d="M278.3,951.3c-35.8,0-71.6,0-107.5,0c-27.3,0-42.1-14.7-42.3-41.6c-0.1-34.6-0.1-69.3,0-104
	c0.1-26.3,15-41.3,41.3-41.3c72-0.1,144.1,0,216.1,0c26.3,0,41.6,15,41.6,41c0.1,35,0.1,70.1,0,105.2c-0.1,25.5-15.1,40.7-40.7,40.8
	C350.9,951.3,314.5,951.3,278.3,951.3z M203.9,875.7c50,0,99.3,0,148.1,0c0-12.6,0-24.5,0-36c-49.8,0-98.8,0-148.1,0
	C203.9,851.7,203.9,863.3,203.9,875.7z"/>
<path class="st0" d="M614.6,839.1c-24.1,0-48.3,0.1-72.4,0c-22.8-0.1-39.5-16.1-39.6-37.3c-0.1-21.3,16.5-37.4,39.2-37.5
	c48.7-0.1,97.3-0.1,146,0c22.6,0.1,39.2,16.5,39,37.8c-0.3,20.8-16.7,36.7-38.7,36.9C663.8,839.2,639.1,839.1,614.6,839.1z"/>
<path class="st0" d="M614.3,951.3c-23.7,0-47.5,0.1-71.2,0c-23.7-0.1-40.6-15.9-40.4-37.5c0.1-21.7,16.9-37.1,40.7-37.1
	c47.5-0.1,95.1-0.1,142.5,0c24,0,40.8,15.4,41.1,37c0.3,22.1-16.7,37.7-41.3,37.8C661.8,951.3,638.1,951.3,614.3,951.3z"/>
<path class="st1" d="M802,226.1c9-9.3,16.7-18,25-26.1c15.9-15.5,38.5-16.1,53.3-1.6c15.3,14.9,15.3,37.8-0.5,54.3
	c-8,8.3-16.7,16.1-27.9,26.9c6.1,4.5,11.2,7.5,15.3,11.6c27.9,27.7,32,48.2,13.4,66.6c-18.4,18.2-38.6,14-66.6-14.2
	c-3.8-3.8-6.8-8.4-11.6-14.2c-9.9,10.3-17.6,18.7-25.9,26.9c-16.3,16.1-39,16.6-54.3,1.4c-15.1-15-14.5-37.8,1.4-54.1
	c7.9-8,15.9-15.9,26.9-26.7c-8.4-7.1-16.7-13.4-24.1-20.7c-18.7-18.3-20.3-40.6-4.5-56.6c16.2-16.5,38.5-14.7,57.5,4.2
	C786.9,210.4,793.9,217.6,802,226.1z"/>
</svg>
