<?xml version="1.0" ?><svg height="64" id="svg8" version="1.1" viewBox="0 0 16.933333 16.933334" width="64" xmlns="http://www.w3.org/2000/svg" xmlns:cc="http://creativecommons.org/ns#" xmlns:dc="http://purl.org/dc/elements/1.1/" xmlns:inkscape="http://www.inkscape.org/namespaces/inkscape" xmlns:rdf="http://www.w3.org/1999/02/22-rdf-syntax-ns#" xmlns:sodipodi="http://sodipodi.sourceforge.net/DTD/sodipodi-0.dtd" xmlns:svg="http://www.w3.org/2000/svg"><defs id="defs2"/><g id="layer1"><path d="M 8.4666669,0 C 7.296636,0 6.30058,0.76426973 5.9526084,1.8195417 5.0897797,2.1740907 4.3124746,2.7066205 3.6705771,3.3827663 3.3554068,3.2496393 3.009291,3.1760589 2.6463501,3.1760589 1.1883224,3.1760589 0,4.3645719 0,5.8224301 0,7.008427 0.78667432,8.0147478 1.8650025,8.3489113 1.8972915,8.8649426 1.990308,9.3753645 2.1414714,9.8697607 1.9779734,9.9775427 1.8058271,10.108256 1.6582967,10.265605 1.52124,10.411784 1.4031219,10.586324 1.3497884,10.796843 c -0.053328,0.210519 -0.027686,0.454908 0.095601,0.683168 l 0.3984254,0.689886 c 0.1649989,0.285799 0.4457621,0.465367 0.749825,0.514185 l 1.1389486,2.25156 c 0.01924,0.03804 0.046989,0.07077 0.081649,0.0956 l 1.2133625,0.867138 v 0.76585 c -5.821e-4,0.14618 0.1173774,0.265117 0.2635499,0.265619 0.1469355,5.82e-4 0.2661965,-0.118675 0.2656168,-0.265619 v -0.388093 l 0.1111043,0.07958 c 0.1188099,0.08344 0.2829044,0.05552 0.3674195,-0.06253 0.085171,-0.118667 0.058153,-0.28425 -0.060461,-0.36949 L 4.1759726,14.639017 3.1558797,12.621553 c 0.3011204,-0.144685 0.5967778,-0.331582 0.8940025,-0.502816 l 1.0557494,1.035604 c 0.035173,0.0341 0.078779,0.05762 0.1266074,0.06821 l 2.2396564,0.520386 c 0.090917,0.05981 0.188426,0.110676 0.291972,0.15193 l -0.3519165,1.933231 c -0.015258,0.08557 0.012684,0.173417 0.074414,0.234613 l 0.7927165,0.792723 c 0.1034222,0.103862 0.2712316,0.103862 0.374654,0 l 0.7932333,-0.792723 c 0.061731,-0.06119 0.089155,-0.149039 0.073897,-0.234613 L 9.1689496,13.89487 c 0.1036498,-0.04128 0.2014927,-0.09206 0.2924887,-0.15193 l 2.2391397,-0.520386 c 0.04713,-0.01093 0.09042,-0.03443 0.125057,-0.06821 l 1.056266,-1.035604 c 0.291108,0.1699 0.605943,0.352625 0.895036,0.502816 l -1.019576,2.017464 c -0.600428,0.428794 -1.199511,0.856991 -1.798856,1.284686 -0.11927,0.08463 -0.147286,0.250313 -0.06253,0.36949 0.08463,0.119274 0.249799,0.147293 0.36897,0.06253 l 0.111621,-0.07958 v 0.388093 c -5.82e-4,0.146944 0.11868,0.266199 0.265617,0.265619 0.146173,-5.02e-4 0.264126,-0.119439 0.26355,-0.265619 v -0.766367 l 1.212845,-0.866621 c 0.03465,-0.02482 0.06293,-0.05756 0.08217,-0.0956 l 1.138949,-2.25156 c 0.303897,-0.04892 0.584905,-0.228521 0.749825,-0.514185 l 0.398425,-0.690402 c 0.123025,-0.228518 0.148932,-0.472134 0.0956,-0.682652 -0.05333,-0.210522 -0.173519,-0.385059 -0.310575,-0.531238 -0.14699,-0.156773 -0.318147,-0.2867383 -0.480591,-0.3942939 0.151073,-0.4946523 0.243792,-1.0055961 0.275952,-1.521883 1.0784,-0.3341175 1.865003,-1.3409498 1.865003,-2.526998 0,-1.4578582 -1.188839,-2.6463712 -2.646867,-2.6463712 -0.362785,0 -0.70865,0.073689 -1.02371,0.2067074 C 12.62103,2.7070589 11.842986,2.173521 10.980725,1.819025 10.632614,0.76399311 9.6365261,0 8.4666669,0 Z m 0,1.0604089 c 0.1454097,5e-4 0.2625328,0.1186521 0.2630331,0.2640687 H 9.2593834 C 9.4055551,1.3239008 9.5244975,1.4418503 9.5250002,1.5880295 9.5255823,1.7349718 9.4063171,1.8542279 9.2593834,1.8536485 H 8.7297 l 0.00103,0.5271038 c 0.4349602,0.00129 0.7942683,0.358367 0.7942683,0.7932396 0,0.4348735 -0.3604281,0.7927229 -0.7953002,0.7927229 C 8.7291973,4.1121312 8.6120766,4.2297638 8.4666669,4.2302665 8.3204949,4.2308486 8.2015528,4.1128932 8.2010501,3.9667148 H 7.6739503 C 7.5270148,3.967294 7.4077514,3.8480382 7.4083335,3.7010956 7.4088362,3.5549164 7.5277783,3.4369653 7.6739503,3.4375439 H 8.2010501 V 2.9099232 C 7.7661817,2.9100582 7.4083335,2.5513824 7.4083335,2.1172004 c 0,-0.4341838 0.3587822,-0.7915728 0.7927166,-0.7927228 5.024e-4,-0.146179 0.1194448,-0.2646449 0.2656168,-0.2640687 z M 8.1994996,1.8536485 c -0.1502103,0.00678 -0.2619994,0.1178108 -0.2619994,0.2635519 0,0.1504367 0.1131718,0.2639972 0.2635499,0.2635519 z M 12.782683,3.646835 c -0.688695,0.4785374 -1.140499,1.2758995 -1.140499,2.1755951 0,1.457859 1.186254,2.6443043 2.644283,2.6443043 0.08185,0 0.162894,-0.00405 0.242879,-0.011369 -0.03285,0.3861606 -0.102223,0.7681717 -0.207739,1.1410247 -0.352558,-0.1471243 -0.786153,-0.025083 -0.994255,0.3353827 l -0.368453,0.6325242 c -0.263764,0.05551 -0.410133,0.206429 -0.521932,0.379308 -0.155522,0.269383 -0.133359,0.597195 0.02946,0.841816 l -0.957048,0.939485 -1.46761,0.340034 c 0.139779,-0.28561 0.223025,-0.620493 0.257348,-0.996846 0.543059,-0.226611 0.880626,-0.795058 0.802018,-1.392175 C 11.018299,10.046736 10.49595,9.5666365 9.869682,9.5281769 9.4707757,9.1743579 8.9691382,8.9979725 8.4666669,8.9979722 c -0.501201,0 -1.001498,0.175593 -1.3999147,0.5276207 H 6.0859336 C 5.9397677,9.5250373 5.8208337,9.6429723 5.8203167,9.7891449 v 0.2656191 c 0,0.58349 0.3198575,1.108688 0.8128702,1.384423 -0.01184,0.06611 -0.01805,0.133323 -0.018087,0.202573 0,0.553212 0.085477,1.03395 0.2759522,1.42318 L 5.4239585,12.724906 4.4679445,11.786455 c 0.1624531,-0.2387 0.1857137,-0.557552 0.027905,-0.842849 C 4.365711,10.724066 4.1621855,10.601627 3.9739173,10.564814 L 3.6054647,9.9317729 C 3.397417,9.5713842 2.9642412,9.449418 2.611727,9.5963902 2.5060431,9.2235001 2.4363909,8.8415721 2.4034709,8.4553654 c 0.080088,0.00734 0.1609297,0.011369 0.2428792,0.011369 1.4580278,0 2.6448,-1.1864453 2.6448,-2.6443043 0,-0.8991079 -0.4515303,-1.695921 -1.1394655,-2.1745617 0.4871064,-0.4901038 1.0534862,-0.8933577 1.6753502,-1.1927015 -0.00445,0.062528 -0.00672,0.1254989 -0.00672,0.1891373 0,1.4578585 1.1883221,2.6468881 2.6463501,2.6468881 1.4580281,0 2.6463501,-1.1890296 2.6463501,-2.6468881 0,-0.063811 -0.0023,-0.1269579 -0.0067,-0.189654 0.621896,0.2993155 1.189223,0.7022209 1.676376,1.1921848 z M 8.7297,2.9099232 v 0.5276207 c 0.1513086,0 0.2661336,-0.1131063 0.2661336,-0.263552 0,-0.1504427 -0.1138791,-0.2636189 -0.2661336,-0.2640687 z m 5.5578,1.5890629 c 0.05838,0 0.117095,0.01936 0.165365,0.057878 l 1.321883,1.0583418 c 0.11349,0.091319 0.132161,0.2571419 0.04134,0.3710398 -0.09131,0.1134979 -0.257142,0.1321562 -0.371037,0.041342 l -0.09974,-0.079582 v 0.667148 c -5.03e-4,0.1454109 -0.118122,0.2630493 -0.26355,0.263552 H 13.49375 C 13.347584,6.8792606 13.228662,6.7613261 13.228134,6.615153 V 5.948005 l -0.09974,0.079582 C 13.0145,6.118404 12.848667,6.099744 12.757357,5.986245 12.666537,5.8723471 12.684687,5.7065229 12.798177,5.6152052 l 1.324476,-1.058341 C 14.170922,4.518345 14.22912,4.4989861 14.2875,4.4989861 Z M 2.6463501,4.7635716 C 2.7925237,4.7640743 2.9104821,4.8830121 2.9099,5.0291905 V 5.5568112 H 3.4395834 C 3.586519,5.5562291 3.7057802,5.6754878 3.7052002,5.8224301 3.7046975,5.9686096 3.5857559,6.0865642 3.4395834,6.0859821 H 2.9099 V 6.6172202 C 2.9093973,6.7626369 2.7917606,6.8802692 2.6463501,6.8807719 2.5001787,6.881354 2.381236,6.7633994 2.3807333,6.6172202 V 6.0859821 H 1.8515666 C 1.7061572,6.0854794 1.5885168,5.9678471 1.5880168,5.8224301 1.58744,5.6762514 1.7053942,5.5573139 1.8515666,5.5568112 H 2.3807333 V 5.0291905 C 2.3801539,4.8822487 2.4994137,4.7629895 2.6463501,4.7635716 Z m 11.6401169,0.3379666 -0.531234,0.4247837 0.0021,0.8232122 h 1.058333 l 0.0026,-0.8232122 z M 9.2728192,6.4084459 8.1369712,7.320542 7.7736858,6.9572538 c -0.1031923,-0.1025764 -0.2699112,-0.1025764 -0.3731038,0 -0.1038725,0.1034211 -0.1038725,0.2712355 0,0.3746572 l 0.5291667,0.5296876 c 0.095219,0.094849 0.2462609,0.1028359 0.3513998,0.019122 L 9.6030317,6.8223784 C 9.7171457,6.7316439 9.7362846,6.5657506 9.645923,6.4513386 9.6005094,6.3899125 9.533029,6.3593872 9.464022,6.3541856 9.395015,6.3489849 9.3244704,6.3691099 9.2728192,6.4084459 Z M 8.4666669,9.523526 c 0.4059682,0 0.8113345,0.1555495 1.1224122,0.4666417 0.070129,0.069712 0.1699882,0.09222 0.2588988,0.06718 0.3736071,0.02731 0.6779561,0.309651 0.7276041,0.686785 0.03669,0.278724 -0.0747,0.544239 -0.278019,0.713657 -0.0576,-0.311348 -0.22625,-0.595325 -0.4991945,-0.791689 -0.3217045,-0.231443 -0.7659129,-0.347785 -1.3317016,-0.347785 -0.1469353,-5.82e-4 -0.2661968,0.118676 -0.2656168,0.265619 5.027e-4,0.146179 0.1194448,0.264128 0.2656168,0.263552 0.4924978,0 0.8243036,0.104963 1.0231935,0.248049 0.197521,0.142102 0.2822922,0.317158 0.2966225,0.557076 -0.00177,0.619771 -0.1276831,1.091588 -0.3436482,1.388557 -0.062315,0.08569 -0.1309558,0.159504 -0.2371948,0.242364 -0.2122879,0.146698 -0.4406355,0.21084 -0.738973,0.210842 -0.300514,2e-6 -0.5309267,-0.06491 -0.7405233,-0.211359 C 7.6223452,13.201866 7.5529029,13.127691 7.4899824,13.041169 7.2725128,12.742134 7.1447839,12.268983 7.1447836,11.642793 7.1449241,11.390607 7.2494449,11.196595 7.5271894,11.042825 7.6549461,10.972124 7.7016302,10.811507 7.631059,10.683671 7.560357,10.555909 7.3992199,10.509743 7.271391,10.580317 7.0970166,10.676858 6.9535552,10.80352 6.8455772,10.949807 6.5431084,10.760554 6.3494834,10.427184 6.3494834,10.054764 h 0.7276042 c 0.090944,0.02882 0.194359,0.0073 0.2666503,-0.064596 0.311077,-0.3110919 0.716961,-0.4666414 1.122929,-0.466642 z m -5.3180217,0.671799 0.2635496,0.45889 -0.2284098,0.131259 c -0.126779,0.07278 -0.1705215,0.234482 -0.097668,0.361222 0.072779,0.126789 0.2344822,0.170528 0.3612184,0.09767 l 0.230477,-0.13281 c 0.124882,-0.07247 0.29167,-0.02872 0.3612181,0.09767 0.071178,0.129353 0.033228,0.285648 -0.097669,0.361221 l -0.916223,0.529171 C 2.7673052,12.248486 2.4515654,12.164197 2.3027019,11.906345 L 1.9084107,11.224728 c -0.066838,-0.124285 -0.070186,-0.207262 -0.047026,-0.298692 0.02316,-0.09143 0.086304,-0.195591 0.1834514,-0.29921 0.1943041,-0.207235 0.5129456,-0.396876 0.7420735,-0.52917 0.031551,-0.01592 0.065257,-0.02468 0.099219,-0.02739 0.1018848,-0.0081 0.2062013,0.03978 0.2625165,0.125059 z M 14.034286,10.073367 c 0.04282,-3.44e-4 0.0826,0.0075 0.111621,0.02429 0.229127,0.132294 0.547771,0.321935 0.742073,0.529171 0.09715,0.103619 0.158737,0.207778 0.181901,0.299209 0.02316,0.09143 0.01979,0.174407 -0.04702,0.298692 l -0.392741,0.681616 c -0.148862,0.257852 -0.464602,0.342141 -0.722436,0.193272 l -0.960665,-0.561211 c -0.09476,-0.08206 -0.119345,-0.214636 -0.05323,-0.329181 0.07557,-0.130896 0.23084,-0.17324 0.361735,-0.09767 l 0.230477,0.13281 c 0.126733,0.07286 0.288436,0.02911 0.361218,-0.09767 0.07286,-0.12674 0.02912,-0.288439 -0.09767,-0.361222 l -0.22841,-0.131259 0.26355,-0.45889 c 0.04605,-0.07976 0.155404,-0.121174 0.249597,-0.121957 z m -3.980119,4.7429 c -0.1469356,-5.82e-4 -0.2661966,0.119195 -0.2656169,0.266136 5.027e-4,0.14618 0.1194448,0.264128 0.2656169,0.263552 h 0.792716 c 0.146174,5.82e-4 0.265631,-0.117372 0.266134,-0.263552 5.82e-4,-0.146941 -0.119198,-0.266714 -0.266134,-0.266136 z" id="path846" style="opacity:1;fill:currentColor;fill-opacity:1;stroke:none;stroke-width:0.5291667;stroke-linecap:round;stroke-linejoin:round;stroke-miterlimit:4;stroke-dasharray:none;stroke-dashoffset:0;stroke-opacity:1"/></g></svg>