<?xml version="1.0" encoding="utf-8"?>
<!-- Generator: Adobe Illustrator 22.0.0, SVG Export Plug-In . SVG Version: 6.00 Build 0)  -->
<svg version="1.1" id="Calque_1" xmlns="http://www.w3.org/2000/svg" xmlns:xlink="http://www.w3.org/1999/xlink" x="0px" y="0px"
	 viewBox="0 0 834 1080" style="enable-background:new 0 0 834 1080;" xml:space="preserve">
<g>
	<path d="M430.2,893.9c-8.9,0-16.4,0-25,0c0-10.3,0-20.5,0-31.2c-21.3-3.3-39.6-10.8-53.2-27c-11.5-13.7-17.1-30.1-19.9-48.6
		c14.9-1.6,29.7-3.3,44.9-5c4.3,16,11.5,29.4,27.3,38.3c0.1-3.7,0.4-6.2,0.4-8.9c0-18.5-0.3-36.9,0.1-55.4c0.1-6.2-1.5-9-7.7-10.8
		c-16.4-5-31.2-13.2-42.4-26.7C326,683.9,332.1,612.6,399,601c1.5-0.3,3-0.4,5.2-0.7c0.3-5.5,0.4-10.9,0.7-16.7c8.4,0,16.1,0,24.7,0
		c0,5.5,0,10.8,0,16.7c35.9,5,58.1,24.1,64.9,60.7c-14.6,1.9-28.7,3.8-43.4,5.8c-3.4-11.2-8-21.7-20.4-27c-0.3,1.6-0.7,3-0.7,4.1
		c0,19.2,0.1,38.4-0.1,57.6c0,4.3,1.8,5.8,5.5,7.1c11.2,4.1,22.8,8.1,33.4,13.4c19.5,9.9,29.6,26.9,32.4,48.2
		c5.9,45.7-20.1,81.9-65,90.3c-5.2,1-6.4,3.1-6.2,7.7C430.3,876.4,430.2,884.8,430.2,893.9z M430.6,822.2
		c15.5-1.6,27.5-15.1,28.5-31.3c1-17.9-9.2-30.4-28.5-34.7C430.6,778,430.6,799.9,430.6,822.2z M404.5,639.2
		c-13,3.7-22,15.8-22.2,29.1c0,12.9,9,25,22.2,28.8C404.5,678,404.5,658.9,404.5,639.2z"/>
	<path d="M39.8,540.5c0-146.1,0-292.2,0-438.5c0-51.7,28.1-80.1,80.5-80.1c133.8,0,267.2,0,401-0.3c16.4,0,28.4,5,40.1,16.7
		c72.2,73.2,145.1,145.8,218,218.3c10.4,10.4,14.8,20.8,14.8,35.7c-0.3,228.4-0.3,456.8-0.3,685.3c0,53-27.8,81.1-80.8,81.1
		c-198.1,0-396.3,0-594.4,0c-50.8,0-78.9-28.7-78.9-79.8C39.8,832.6,39.8,686.5,39.8,540.5z M86.8,540.8c0,142.3,0,284.6,0,427.2
		c0,40.7,3.2,43.9,42.9,43.9c194.3,0,388.7,0,583,0c26.2,0,33.8-7.6,33.8-33.8c0-58.4,0-117,0-175.4c0-166.6,0-333.5-0.3-500.1
		c0-6.3-2.8-13.9-7.3-18.3c-68.5-69.1-137.6-138.2-206.7-206.7c-4.4-4.4-12-7.6-18-7.6c-133.1-0.3-266.3-0.3-399.4-0.3
		c-18.3,0-26.5,8.2-27.8,26.5c-0.3,4.4,0,8.5,0,12.9C86.8,252.7,86.8,396.6,86.8,540.8z"/>
	<path d="M346.2,351.8c44.8,0,89.9,0,134.7,0c19.2,0,30.3,9.1,30,24c-0.3,15.1-11,23.3-30.6,23.3c-87.1,0-174.2,0.3-261.5,0.3
		c-4.7,0-9.8,0-14.5-0.6c-14.8-1.9-23.3-11-22.7-24.6c0.6-12.9,10.1-22.1,24.9-22.1c31.2-0.3,62.8,0,94,0
		C315.9,352.1,331,352.1,346.2,351.8C346.2,352.1,346.2,351.8,346.2,351.8z"/>
	<path d="M558.2,257.8c35,0,68.5,0,101.6,0c4.7,0,9.8-0.3,14.5,0c14.2,0.6,24.3,10.1,24.9,22.4c0.6,13.6-9.1,24.3-24.6,24.3
		c-46.4,0.3-93.1,0.3-139.4,0c-15.5,0-24.3-8.8-24.3-24.3c-0.3-46.4-0.3-93.1,0-139.4c0-14.5,10.1-24.3,23-24.3
		c13.9,0,23.7,9.1,24,24.9c0.6,32.5,0.3,64.7,0.3,97.2C558.2,244.9,558.2,250.5,558.2,257.8z"/>
	<path d="M275.5,163.5c22.1,0,44.2,0,66.6,0c17,0,27.1,9.1,27.1,23c0,13.6-9.1,23.3-25.2,23.7c-46.1,0.6-91.8,0.6-137.9,0
		c-15.8-0.3-24.9-10.4-24.9-24.3c0.3-13.6,10.1-22.4,25.9-22.7C230.1,163.5,252.8,163.5,275.5,163.5L275.5,163.5z"/>
	<path d="M277.1,257.8c21.5,0,43.2,0,64.7,0c17,0,27.4,8.8,27.4,23s-9.5,23.7-26.8,24c-44.5,0.3-89.3,0.3-134.4,0
		c-17-0.3-26.8-9.8-26.5-24c0-14.2,10.1-22.7,27.4-23C231.6,257.5,254.4,257.8,277.1,257.8L277.1,257.8z"/>
	<path d="M605.8,352.1c8.2,0,16.1-0.6,24.3,0c12.9,0.9,21.1,8.8,21.8,21.8c0.6,12.6-5.7,23-18.9,24c-18.3,1.3-36.6,1.3-54.9,0
		c-13.3-0.9-19.9-10.7-19.2-23.7c0.3-12.9,8.2-20.8,21.5-22.1C588.5,351.5,597.3,352.1,605.8,352.1z"/>
</g>
</svg>
