<svg width="17" height="18" viewBox="0 0 17 18" fill="none" xmlns="http://www.w3.org/2000/svg">
<path d="M7.66667 5.66699C11.3486 5.66699 14.3333 4.5477 14.3333 3.16699C14.3333 1.78628 11.3486 0.666992 7.66667 0.666992C3.98477 0.666992 1 1.78628 1 3.16699C1 4.5477 3.98477 5.66699 7.66667 5.66699Z" stroke="white" stroke-opacity="0.5" stroke-width="1.25" stroke-linecap="round" stroke-linejoin="round"/>
<path d="M3.5 8.03516C4.00167 8.18516 4.56167 8.31016 5.16667 8.40182M1 9.00016C1 10.2752 3.545 11.3268 6.83333 11.481M3.5 13.8685C4.00167 14.0185 4.56167 14.1435 5.16667 14.2352" stroke="white" stroke-opacity="0.5" stroke-width="1.25" stroke-linecap="round" stroke-linejoin="round"/>
<path d="M7.66667 17.3337C3.985 17.3337 1 16.2145 1 14.8337V3.16699M14.3333 3.16699V8.16699M12.6667 17.3337V16.262C12.2137 16.2652 11.7667 16.1584 11.3641 15.9508C10.9614 15.7433 10.6152 15.4411 10.355 15.0703M12.6667 16.2612C13.1196 16.2643 13.5666 16.1576 13.9693 15.95C14.3719 15.7424 14.7181 15.4403 14.9783 15.0695M12.6667 10.9045C13.6308 10.9045 14.48 11.3778 14.9783 12.0962C15.282 12.5322 15.4447 13.0515 15.4447 13.5828C15.4447 14.1141 15.282 14.6327 14.9783 15.0687L16 15.7253M10.355 12.0978C10.6152 11.727 10.9614 11.4249 11.3641 11.2173C11.7667 11.0098 12.2137 10.903 12.6667 10.9062V9.83366M16 11.4412L14.9783 12.0978M9.33333 15.7253L10.355 15.0687C10.0514 14.6327 9.88861 14.1141 9.88861 13.5828C9.88861 13.0515 10.0514 12.533 10.355 12.097M9.33333 11.442L10.355 12.0987" stroke="currentColor" stroke-opacity="0.5" stroke-width="1.25" stroke-linecap="round" stroke-linejoin="round"/>
</svg>
