<svg width="25" height="24" viewBox="0 0 15 14" fill="none" xmlns="http://www.w3.org/2000/svg">
    <g>
        <path d="M7.38215 13.0653C6.46988 13.0653 5.5576 13.0653 4.64532 13.0653C4.08119 13.0653 3.66212 12.7365 3.56219 12.2111C3.53962 12.0886 3.53962 11.9596 3.53962 11.8307C3.53962 11.0602 3.5235 10.2898 3.55252 9.51934C3.62666 7.47236 5.20622 6.22804 6.78579 6.09588C7.47886 6.03785 8.18161 5.99594 8.84889 6.19581C10.2415 6.61488 11.0829 7.57873 11.3891 8.99712C11.4439 9.25178 11.4503 9.51934 11.4503 9.78368C11.4568 10.5187 11.4536 11.2569 11.4503 11.9951C11.4503 12.1143 11.4374 12.2401 11.3988 12.3529C11.2182 12.8719 10.999 13.0008 10.4252 13.0266C9.41302 13.075 8.39759 13.075 7.38538 13.0943C7.38215 13.0847 7.38215 13.075 7.38215 13.0653Z" fill="currentColor"/>
        <path d="M7.50136 2.74937e-05C8.92619 0.0064747 10.048 1.13474 10.0448 2.56279C10.0416 3.95539 8.88751 5.10299 7.49169 5.09977C6.08298 5.09655 4.94182 3.9425 4.94827 2.52411C4.95794 1.12184 6.09587 -0.00641972 7.50136 2.74937e-05Z" fill="currentColor"/>
    </g>
</svg>
