<?xml version="1.0" encoding="utf-8"?>
<!-- Generator: Adobe Illustrator 22.0.0, SVG Export Plug-In . SVG Version: 6.00 Build 0)  -->
<svg version="1.1" id="Calque_1" xmlns="http://www.w3.org/2000/svg" xmlns:xlink="http://www.w3.org/1999/xlink" x="0px" y="0px"
	 viewBox="0 0 555.3 556.5" style="enable-background:new 0 0 555.3 556.5;" xml:space="preserve">
<style type="text/css">
        .color-fixed{fill:#848789;}
    </style>
<g>
	<path d="M14.7,164.5c0-29.3,0.1-58.6-0.1-88c0-4.1,1.3-6.2,5-8c36.7-17.5,73.2-35.2,109.9-52.6c2.3-1.1,6-1.2,8.3-0.2
		c39,17.5,77.9,35.2,116.9,52.8c3.7,1.6,5.1,3.7,5.1,7.9c-0.1,59-0.1,118,0,176.9c0,4.5-1.1,6.2-5.9,6c-10.5-0.3-21-0.3-31.5,0
		c-4.7,0.1-5.9-1.5-5.9-6c0.1-47,0.1-94,0.1-141c0-7.1,0-7.1-7-7.1c-48.5,0-97,0-145.5,0c-6.5,0-6.5,0-6.5,6.5c0,47,0,94,0,141
		c0,6.5,0,6.5-6.7,6.5c-10.3,0-20.7-0.2-31,0.1c-4.2,0.1-5.5-1.3-5.4-5.4C14.7,224.2,14.7,194.4,14.7,164.5z" fill="currentColor"/>
	<path d="M295.7,446.5c0-29.3,0.1-58.6-0.1-88c0-4.1,1.3-6.2,5-8c36.7-17.5,73.2-35.2,109.9-52.6c2.3-1.1,6-1.2,8.3-0.2
		c39,17.5,77.9,35.3,116.9,52.8c3.7,1.7,5.1,3.7,5.1,7.9c-0.1,59-0.1,118,0,176.9c0,4.5-1.2,6.2-5.9,6c-10.5-0.3-21-0.3-31.5,0
		c-4.8,0.2-5.8-1.6-5.8-6.1c0.1-47,0.1-94,0.1-141c0-7.1,0-7.1-7-7.1c-48.5,0-97,0-145.5,0c-6.5,0-6.5,0-6.5,6.6
		c0,46.7,0,93.3,0,140c0,7.5,0,7.5-7.7,7.5c-10,0-20-0.2-30,0.1c-4.2,0.1-5.4-1.3-5.4-5.5C295.7,506.2,295.7,476.3,295.7,446.5z" fill="currentColor"/>
	<path class="color-fixed" d="M264,446c-10,10-19.6,19.7-29.6,29.7c-1.1-1.1-2.4-2.2-3.7-3.5c-43.8-43.8-87.7-87.6-131.4-131.5c-3.6-3.6-5.9-4-9.1,0
		c-2.8,3.5-6.2,6.5-9.9,10.4c-0.3-1.9-0.6-2.9-0.6-3.9c0-16.8,0.1-33.7-0.1-50.5c0-4.1,1.2-5.5,5.4-5.5c17.8,0.2,35.6,0.1,53.4,0.1
		c0.3,0.5,0.7,0.9,1,1.4c-3.6,3.3-7.2,6.7-10.9,9.9c-3.2,2.7-3,4.7-0.1,7.7c24.1,23.9,48.1,48,72.1,72.1
		c20.6,20.6,41.3,41.2,61.9,61.8C262.9,444.7,263.4,445.3,264,446z"/>
	<path class="color-fixed" d="M302.8,122.1c6.5-6.5,12.7-12.5,18.8-18.6c3.5-3.5,7-7.1,10.9-11c1.6,1.5,2.9,2.7,4.1,3.9c43.7,43.7,87.4,87.4,131.1,131.1
		c4.9,4.9,4.9,4.9,9.7,0c3-3.1,5.9-6.3,9.6-10.2c0.3,2.2,0.6,3.2,0.6,4.2c0,16.8-0.1,33.7,0.1,50.5c0,4.2-1.3,5.5-5.4,5.4
		c-16.8-0.2-33.7-0.1-50.5-0.1c-1,0-1.9-0.1-4.7-0.3c4.6-4.3,8.1-7.8,11.8-11c3.2-2.7,2.9-4.8,0-7.7c-27.2-27-54.2-54.1-81.4-81.2
		c-17.3-17.3-34.6-34.6-52-51.9C304.9,124.4,304.1,123.6,302.8,122.1z"/>
	<path d="M188.3,230.3c2,0,4,0,6,0c7.4,0,7.4,0,7.4,7.7c0,3.8-0.1,7.6,0,11.4c0.1,2.7-1,3.9-3.8,3.9c-6.3-0.1-12.6,0.2-18.9-0.2
		c-1.3-0.1-3.4-2.1-3.6-3.4c-0.6-5.1-0.5-10.3-0.8-15.4c-0.2-3,1.2-4.2,4.2-4.1C181.9,230.4,185.1,230.3,188.3,230.3z" fill="currentColor"/>
	<path d="M469.5,535.4c-12.4,0-12.4,0-13.4-12c-0.9-11.1-0.9-11.1,10.2-11.1c4,0,8,0.2,11.9,0c3.5-0.2,4.7,1.3,4.6,4.7
		c-0.2,4.6-0.2,9.3,0,13.9c0.1,3.1-1,4.6-4.3,4.5C475.5,535.2,472.5,535.4,469.5,535.4z" fill="currentColor"/>
	<path d="M434.4,535.4c-12.8,0-12.8,0-12.7-12.8c0.1-11.5-1.5-10.1,9.9-10.2c4.2,0,8.3,0.1,12.5,0c2.8-0.1,3.9,1.2,3.9,3.9
		c-0.1,5.1-0.1,10.3,0,15.4c0,2.8-1.4,3.8-4,3.7C440.7,535.3,437.6,535.4,434.4,535.4z" fill="currentColor"/>
	<path d="M400.3,535.4c-12.7,0-12.8,0-12.7-12.8c0.1-11.6-1.6-10,10.4-10.2c3.8,0,7.6,0.1,11.4,0c2.8-0.1,4.4,0.8,4.3,3.9
		c-0.1,5.1-0.1,10.3,0,15.4c0.1,2.9-1.3,3.8-4,3.7C406.6,535.3,403.5,535.4,400.3,535.4z" fill="currentColor"/>
	<path d="M366.2,535.4c-12.8,0-12.8,0-12.7-12.9c0.1-11.5-1.4-10,10-10.1c3.8,0,7.6,0.1,11.4,0c3.3-0.2,4.9,0.9,4.8,4.5
		c-0.2,4.8-0.1,9.6,0,14.4c0.1,2.9-1,4.3-4.1,4.2C372.5,535.2,369.4,535.4,366.2,535.4z" fill="currentColor"/>
	<path d="M434.6,502.4c-13,0-13,0-13-13.1c0-11.2-1.3-9.8,9.7-9.9c4,0,8,0.2,12-0.1c3.5-0.2,4.7,1.4,4.6,4.7
		c-0.2,4.6-0.1,9.3,0,13.9c0.1,3.2-1.1,4.6-4.3,4.4C440.6,502.2,437.6,502.4,434.6,502.4z" fill="currentColor"/>
	<path d="M400.6,502.4c-13,0-13,0-12.9-13.1c0.1-11.3-1.3-9.8,9.7-9.9c4,0,8,0.2,11.9-0.1c3.6-0.2,4.7,1.3,4.5,4.7
		c-0.2,4.5-0.3,9,0,13.4c0.3,4.1-1.5,5.3-5.3,5C405.9,502.2,403.2,502.4,400.6,502.4z" fill="currentColor"/>
	<path d="M366.3,502.4c-12.8,0-12.9,0-12.8-12.8c0.1-11.8-1.3-10.1,10.4-10.2c4,0,8,0.1,11.9,0c2.8-0.1,3.9,1.1,3.8,3.9
		c-0.1,5.1-0.1,10.3,0,15.4c0.1,2.8-1.3,3.8-4,3.8C372.6,502.3,369.4,502.4,366.3,502.4z" fill="currentColor"/>
	<path d="M85.8,197.3c12.9,0,12.9,0,12.9,12.7c-0.1,11.8,1.6,10.2-10.3,10.3c-0.3,0-0.7,0-1,0c-4.8-0.4-9.6-0.9-14.5-1.3
		c-0.1-6.4-0.3-12.9-0.2-19.3c0-0.8,2-2.1,3.1-2.2C79.2,197.2,82.5,197.3,85.8,197.3z" fill="currentColor"/>
	<path d="M153.6,253.4c-13,0-13,0-13-13.1c0.1-11.2-1.4-9.8,9.7-9.9c4,0,8,0.1,12-0.1c3.5-0.2,4.7,1.3,4.6,4.7
		c-0.2,4.6-0.2,9.3,0,13.9c0.1,3.2-1.1,4.6-4.3,4.4C159.6,253.2,156.6,253.4,153.6,253.4z" fill="currentColor"/>
	<path d="M119.4,253.4c-12.8,0-12.8,0-12.7-12.8c0.1-11.7-1.6-10.1,10.3-10.2c4,0,8,0.1,11.9,0c2.8-0.1,3.9,1.1,3.8,3.9
		c-0.1,5.1-0.1,10.3,0,15.4c0.1,2.8-1.2,3.9-3.9,3.8C125.7,253.3,122.5,253.4,119.4,253.4z" fill="currentColor"/>
	<path d="M85.6,253.4c-13.1,0-13.2,0-13.1-13c0.1-11.4-1.4-9.9,10.1-10c4.1,0,8.3-0.3,12.4,0.2c1.3,0.1,3.3,2.2,3.4,3.4
		c0.4,5.3,0.4,10.6,0,15.9c-0.1,1.2-2.1,3.1-3.5,3.4C91.9,253.7,88.7,253.4,85.6,253.4z" fill="currentColor"/>
	<path d="M119.3,220.4c-12.7,0-12.7,0-12.6-12.9c0.1-11.6-1.4-10,10-10.1c3.6,0,7.3,0.2,10.9-0.1c3.8-0.2,5.5,0.9,5.3,5
		c-0.3,4.5-0.2,9,0,13.4c0.1,3.4-1,4.9-4.5,4.7C125.2,220.2,122.3,220.4,119.3,220.4z" fill="currentColor"/>
	<path d="M153.4,220.4c-12.7,0-12.8,0-12.7-12.9c0.1-11.6-1.4-10,10-10.1c4,0,8,0.1,12,0c3.3-0.1,4.4,1.3,4.3,4.5
		c-0.1,4.8-0.1,9.6,0,14.4c0.1,2.9-1.1,4.3-4.1,4.2C159.7,220.3,156.5,220.3,153.4,220.4z" fill="currentColor"/>
	<path d="M86.1,187.3c-13.6,0-13.7,0-13.6-13.6c0-10.7-0.9-9.3,9.3-9.4c4,0,8,0.2,12-0.1c3.6-0.2,5.3,0.9,5,4.7
		c-0.3,4.3-0.2,8.7,0,13c0.2,3.8-1.2,5.6-5.1,5.4C91.1,187.2,88.6,187.3,86.1,187.3z" fill="currentColor"/>
	<path d="M366.6,446.3c13.1,0,13.1,0,13.1,13c0,10,0,10-10,10c-3.8,0-7.6,0-11.5-0.1c-3.1-0.1-4.9-1.4-4.7-4.9c0.2-4.5,0.2-9,0-13.5
		c-0.2-3.5,1.3-4.8,4.7-4.6C360.9,446.5,363.8,446.3,366.6,446.3z" fill="currentColor"/>
	<path d="M401.1,446.3c12.6,0,12.7,0,12.6,12.5c-0.1,12,1.7,10.4-10.6,10.5c-3.8,0-7.6-0.4-11.5-0.5c-2.6-0.1-4-1-4-3.8
		c0.1-5,0.1-10,0-15c-0.1-2.9,1.4-3.8,4-3.7C394.8,446.4,397.9,446.3,401.1,446.3z" fill="currentColor"/>
	<path d="M119.9,164.3c12.8,0,12.8,0,12.8,12.9c-0.1,11.4,1.6,10.1-10,10.1c-4,0-8-0.5-12-0.5c-2.9,0-4.2-1.2-4.2-4.2
		c0.1-4.8,0.1-9.7,0-14.5c-0.1-2.8,1.1-3.9,3.9-3.8C113.6,164.4,116.8,164.3,119.9,164.3z" fill="currentColor"/>
</g>
</svg>
