<?xml version="1.0" encoding="utf-8"?>
<!-- Generator: Adobe Illustrator 22.0.0, SVG Export Plug-In . SVG Version: 6.00 Build 0)  -->
<svg version="1.1" id="Calque_1" xmlns="http://www.w3.org/2000/svg" xmlns:xlink="http://www.w3.org/1999/xlink" x="0px" y="0px"
	 viewBox="0 0 716 672.5" style="enable-background:new 0 0 716 672.5;" xml:space="preserve">
<style type="text/css">
	.st0{fill:#8BA51D;}
	.st1{fill:#006EC2;}
</style>
<path class="st0" d="M124.5,658.6c-5.7-3.9-7.5-9.3-7.1-16.1c0.5-7.3,0.1-14.6-1.5-22.8c-7.5,8.3-15,16.6-22.8,25.2
	c-5.9-6.4-10.5-11.5-15.7-17.2c0.9-0.9,2.5-2.8,4.2-4.5c15.9-15.9,31.8-31.7,47.6-47.7c22.7-22.8,23.8-50.3,3.2-75.1
	c-5.5-6.7-5.3-11.6,1.3-18.2c15.5-15.6,31.1-31.2,46.6-46.7c4.5-4.5,6.8-9.4,3.9-15.6c-3.9-8.3-13.6-9.7-20.8-2.6
	c-14.5,14.3-28.8,28.8-43.3,43.2c-1.8,1.8-3.6,3.5-5.7,5.5c-5.1-5.3-10-10.4-16-16.7c5.1-4.6,10.6-9.1,15.5-14.3
	c1.9-2.1,3.2-5.5,3.4-8.4c0.5-7.6,0.2-15.2,0.2-23.3c-12.9,0-25.4-0.9-37.6,0.3c-10.9,1-17.9,11.1-17.9,23
	c-0.1,31.5-0.1,63,0.1,94.5c0,6-1.6,10.6-6,14.8c-6.5,6.2-12.5,13-19,19.9c-5.6-6-10.2-11.1-16.7-18.1c4.6-3.9,10.2-8,14.9-13
	c2.4-2.5,4.2-6.6,4.3-10c0.3-28.9,0.2-57.9,0.2-86.8c0-28.3,18.8-47,47-47.1c9.9,0,19.9,0,30.8,0c0-2.8,0-5.2,0-7.6
	c0-47.9,0-95.8,0-143.8c0-11.9,3.4-15.3,15.2-15.3c100.9,0,201.9,0,302.8,0c11.9,0,15.4,3.4,15.4,15.2c0,138,0,276,0.1,413.9
	c0,6.6-1.7,11.6-7.1,15.4C337.5,658.6,231,658.6,124.5,658.6z M140.4,236.6c0,57.4,0,114.3,0,173.6c3.5-4.1,5.4-6.7,7.7-9
	c14.6-14,35.4-14.2,49.3-0.6c14,13.7,13.9,35.1-0.4,49.8c-10.2,10.5-20.6,20.7-30.9,31c-3.7,3.7-7.6,7.2-10.8,10.1
	c3.6,7.4,7.3,13.2,9.4,19.5c9.9,29.7,3.7,56-17.9,78.7c-2.5,2.6-6.5,5.5-6.6,8.4c-0.7,12.6-0.3,25.3-0.3,37.8
	c96.8,0,192.7,0,288.6,0c0-133.3,0-266.1,0-399.2C332.3,236.6,236.5,236.6,140.4,236.6z"/>
<path class="st1" d="M573.2,81.1c0,21.1,0,41.7,0,62.3c0,11.4-3.6,15-14.9,15c-41.9,0-83.8,0-125.7,0c-11.4,0-15-3.6-15-14.9
	c0-20.6,0-41.2,0-62.4c-29.5,0-58.7,0-88.7,0c0,21.7,0,43.5,0,65.7c-7.6,0-14.5,0-22,0c0-21.7,0-43.6,0-65.8
	c-9.6-1.8-11.9-8-11.6-16.4c0.4-12.5,0-25,0.1-37.5c0.1-9.1,4-13.3,13.1-13.3c124.6,0,249.1,0,373.7,0c9.1,0,13.2,4.1,13.3,13.1
	c0.1,12.7,0,25.5,0,38.2c0,10.2-1.3,12.1-10.9,16.1c0,43.9,0,87.9,0,132.2c9.1,1.8,11.3,8,11,16.4c-0.4,11.6-0.4,23.2,0,34.7
	c0.3,8.4-1.9,14.6-11,16.5c0,44.3,0,88.2,0,132.5c9.1,1.8,11.3,8,11,16.4c-0.4,11.6-0.1,23.2-0.1,34.7c0,10.8-1.1,12.5-11.1,16.9
	c0,34.6,0,69.3,0,104c0,12.7,0.1,25.5,0,38.2c-0.1,8.2-4.3,12.4-12.5,12.4c-65.1,0.1-130.1,0-195.2,0c-0.9,0-1.8-0.2-3-0.3
	c0-7,0-13.9,0-21.5c62.4,0,125,0,188.1,0c0-44.8,0-88.9,0-133.3c-29.2,0-58.3,0-88.4,0c0,2.3,0,4.8,0,7.2c0,18.8,0,37.5,0,56.3
	c0,10-3.9,13.9-13.8,14c-28.4,0.1-56.9,0-85.8,0c0-7.5,0-14.5,0-22.1c25.6,0,51,0,76.9,0c0-18.6,0-36.8,0-55.4
	c-25.4,0-50.8,0-76.7,0c0-7.5,0-14.5,0-22.3c25.3,0,50.9,0,76.8,0c0-7.6,0-14.5,0-22.1c-25.4,0-50.9,0-76.9,0c0-7.8,0-14.8,0-22.3
	c62.6,0,125,0,187.9,0c0-44.6,0-88.6,0-133.1c-29.2,0-58.4,0-88.4,0c0,18.2,0,36.2,0,54.2c0,3.9,0.2,7.9-0.1,11.8
	c-0.4,6.9-4.5,11.3-11.5,11.3c-29.1,0.1-58.3,0.1-88,0.1c0-7.3,0-14.4,0-21.9c25.4,0,50.8,0,76.7,0c0-18.6,0-36.8,0-55.7
	c-25.4,0-50.9,0-76.8,0c0-7.6,0-14.5,0-22.1c25.4,0,51,0,77,0c0-7.8,0-14.8,0-22.3c-25.5,0-50.9,0-76.8,0c0-7.5,0-14.5,0-22.3
	c62.5,0,125.1,0,188.1,0c0-44.7,0-88.6,0-133C632.5,81.1,603.3,81.1,573.2,81.1z M550.4,135.9c0-18.7,0-36.9,0-54.7
	c-37.2,0-73.8,0-110.2,0c0,18.5,0,36.5,0,54.7C477.1,135.9,513.5,135.9,550.4,135.9z M550.7,36.7c-37.2,0-73.8,0-110.3,0
	c0,7.5,0,14.5,0,21.4c37,0,73.5,0,110.3,0C550.7,50.8,550.7,44,550.7,36.7z M672.8,458.2c0-7.7,0-14.5,0-21.5c-33.3,0-66.2,0-99.1,0
	c0,7.5,0,14.5,0,21.5C607,458.2,639.7,458.2,672.8,458.2z M672.9,258.2c0-7.6,0-14.5,0-21.6c-33.3,0-66.2,0-99.2,0
	c0,7.4,0,14.4,0,21.6C606.9,258.2,639.6,258.2,672.9,258.2z M573.7,36.5c0,7.6,0,14.6,0,21.4c33.4,0,66.4,0,99.1,0
	c0-7.4,0-14.3,0-21.4C639.7,36.5,606.9,36.5,573.7,36.5z M417.3,36.7c-33.5,0-66.4,0-99.1,0c0,7.5,0,14.5,0,21.4
	c33.3,0,66.1,0,99.1,0C417.3,50.8,417.3,44,417.3,36.7z"/>
<path class="st1" d="M162.3,191.3c0-7.3,0-14.2,0-21.4c66.4,0,132.5,0,199.2,0c0,6.8,0,13.9,0,21.4
	C295.4,191.3,229.1,191.3,162.3,191.3z"/>
<path class="st1" d="M618.1,369.9c7.4,0,14.2,0,21.4,0c0,7.2,0,14,0,21.4c-6.9,0-13.9,0-21.4,0C618.1,384.4,618.1,377.4,618.1,369.9
	z"/>
<path class="st1" d="M618.1,169.9c7.4,0,14.2,0,21.4,0c0,7.2,0,14,0,21.4c-6.9,0-13.9,0-21.4,0C618.1,184.4,618.1,177.4,618.1,169.9
	z"/>
<path class="st1" d="M406.2,169.9c0,7.1,0,14,0,21.3c-7,0-14,0-21.5,0c0-6.9,0-13.9,0-21.3C391.7,169.9,398.5,169.9,406.2,169.9z"/>
<path class="st1" d="M618.1,570c7.4,0,14.2,0,21.4,0c0,7.1,0,14,0,21.4c-6.9,0-13.9,0-21.4,0C618.1,584.5,618.1,577.5,618.1,570z"/>
<path class="st1" d="M295.3,270.1c0,2.2,0.2,4.1,0,5.9c-0.6,4.2,1,6.4,5,8.5c11.5,5.9,16.9,15.8,17.3,29.1c-7.3,0-14.4,0-21.5,0
	c-2.8-8.7-5.8-11.1-13.3-10.6c-5,0.3-9.1,2.9-9.2,7.7c0,3.4,2.3,8.1,5.1,10.1c5.8,4.1,12.6,6.8,19,9.9c12.1,5.8,19.4,15.1,19.6,28.7
	c0.3,13.8-6.6,23.3-18.6,30.2c-3,1.7-3.3,7.9-5.2,13c-5.4,0-12.5,0-19.6,0c-0.2-0.3-0.7-0.7-0.6-1c0.7-7.2-1.4-11.8-8.5-15.6
	c-9.8-5.2-13.7-15.1-13.9-26.8c7.3,0,14.3,0,21.7,0c1.1,6.7,4.5,11,12.3,10.7c5-0.2,8.6-2.3,10-7.1c1.4-4.8-0.7-8.7-5-11
	c-6.1-3.3-12.3-6.4-18.6-9.4c-12.4-5.8-19.9-15.1-20.3-29c-0.3-13.8,6.7-23.2,18.6-30.1c3-1.7,3.3-7.9,5.2-13
	C280.4,270.1,287.4,270.1,295.3,270.1z"/>
<path class="st1" d="M395,525.7c0,7.3,0,14.2,0,21.4c-66.4,0-132.5,0-199.2,0c0-6.9,0-13.9,0-21.4C262,525.7,328.2,525.7,395,525.7z
	"/>
<path class="st1" d="M195.6,502.5c0-7.3,0-14.1,0-21.4c66.6,0,132.8,0,199.4,0c0,7.2,0,14,0,21.4
	C328.8,502.5,262.5,502.5,195.6,502.5z"/>
<path class="st1" d="M361.6,591.6c-55.6,0-110.5,0-165.9,0c0-7.2,0-14,0-21.4c55.1,0,110.3,0,165.9,0
	C361.6,577.1,361.6,584.1,361.6,591.6z"/>
<path class="st1" d="M273.4,458c0-7.4,0-14.2,0-21.4c40.5,0,80.7,0,121.4,0c0,6.9,0,13.9,0,21.4C354.6,458,314.3,458,273.4,458z"/>
<path class="st1" d="M361.8,325.7c0,7.2,0,14,0,21.3c-7.3,0-14.3,0-21.6,0c0-7.1,0-13.9,0-21.3C347.1,325.7,354.1,325.7,361.8,325.7
	z"/>
<path class="st1" d="M250.4,458.4c-7.3,0-14,0-21.2,0c0-7,0-14.1,0-21.6c6.8,0,13.8,0,21.2,0C250.4,443.7,250.4,450.7,250.4,458.4z"
	/>
<path class="st1" d="M206.8,325.5c7.2,0,14,0,21.4,0c0,7,0,14,0,21.5c-7,0-14,0-21.4,0C206.8,339.9,206.8,333.1,206.8,325.5z"/>
</svg>
