<?xml version="1.0" encoding="utf-8"?>
<!-- Generator: Adobe Illustrator 22.0.0, SVG Export Plug-In . SVG Version: 6.00 Build 0)  -->
<svg version="1.1" id="Calque_1" xmlns="http://www.w3.org/2000/svg" xmlns:xlink="http://www.w3.org/1999/xlink" x="0px" y="0px"
	 viewBox="0 0 670 596" style="enable-background:new 0 0 670 596;" xml:space="preserve">
<g>
	<g>
		<path d="M406.5,484.2c-75.1,0-150.3-0.1-225.4,0.1c-8.1,0-14-6.3-14.1-13c-0.2-7.7,6.1-13.6,14.3-13.6c106.2,0,212.4,0,318.7,0
			c43.7,0,87.5,0,131.2,0c5.4,0,9.7,1.7,12.7,6.3c2.8,4.3,2.8,8.8,0.5,13.2c-2.4,4.6-6.2,7.1-11.5,7.1c-26.4,0-52.8,0-79.3,0
			C504.6,484.2,455.6,484.2,406.5,484.2C406.5,484.2,406.5,484.2,406.5,484.2z" fill="currentColor"/>
		<path d="M313.2,564.1c-43.8,0-87.7-0.1-131.5,0.1c-7.8,0-12.7-4.8-14-9.4c-2.6-9.1,3.6-17.3,13.3-17.3c11.4-0.1,22.7,0,34.1,0
			c76.7,0,153.5,0,230.2,0c7.5,0,13,4.2,14.1,10.8c1.2,6.9-2.1,12.9-8.7,15.1c-1.9,0.6-4,0.7-6.1,0.7
			C400.8,564.1,357,564.1,313.2,564.1z" fill="currentColor"/>
	</g>
	<g>
		<path d="M406.5,244.9c74.8,0,149.6,0,224.4,0c4.8,0,9,0.9,12.1,4.8c3.2,4,3.8,8.5,2,13.1c-1.9,5.1-5.9,7.9-11.3,8.5
			c-2.8,0.3-5.6,0.1-8.4,0.1c-102.4,0-204.8,0-307.2,0c-45.6,0-91.2,0-136.7,0c-7.1,0-12.2-3.9-13.9-10.4c-1.5-5.6,1-11.8,6.5-14.5
			c2.6-1.3,5.8-1.6,8.7-1.6c55.8-0.1,111.5-0.1,167.3-0.1C368.8,244.9,387.6,244.9,406.5,244.9z" fill="currentColor"/>
		<path d="M313.3,351.2c-43.6,0-87.3,0-130.9,0c-4.8,0-9.1-0.8-12.2-4.7c-3.3-4.1-4.3-8.7-2.1-13.7c2.3-5.2,6.6-7.9,12.2-8.3
			c1-0.1,1.9,0,2.9,0c46.8,0,93.6,0,140.3,0c40.3,0,80.5,0,120.8,0c5.3,0,9.8,1.4,13,5.9c2.9,4.2,3.2,8.8,1.1,13.2
			c-2.1,4.3-5.6,7.3-10.6,7.4c-17,0.1-34,0.1-51,0.1C369,351.2,341.1,351.2,313.3,351.2z" fill="currentColor"/>
	</g>
	<g>
		<path d="M406.5,31.9c71.6,0,143.1,0,214.7,0c3.6,0,7.2,0.3,10.7,0c7.2-0.6,14.3,6.2,14,13.4c-0.3,7.7-5.9,13.3-14.2,13.3
			c-69.2,0-138.4,0-207.6,0c-65.6,0-131.2,0-196.8,0c-15.5,0-31,0-46.4,0c-7.1,0-12.4-4.5-13.8-11.3c-1.2-5.9,2.5-12.3,8.8-14.5
			c2.1-0.7,4.5-0.7,6.7-0.7C257.3,31.9,331.9,31.9,406.5,31.9C406.5,31.9,406.5,31.9,406.5,31.9z" fill="currentColor"/>
		<path d="M313.6,138.4c-43.9,0-87.9,0-131.8,0c-7,0-12-3.2-13.9-9c-2.8-8.4,3-17,11.9-17.5c3.8-0.2,7.6-0.1,11.4-0.1
			c84.5,0,169.1,0,253.6,0c4.9,0,9.2,1.2,12.2,5.3c3.1,4.1,3.5,8.6,1.6,13.2c-1.9,4.7-5.5,7.4-10.6,8c-1.6,0.2-3.2,0.2-4.9,0.2
			C400,138.4,356.8,138.4,313.6,138.4z" fill="currentColor"/>
	</g>
	<circle cx="75" cy="85.1" r="51" fill="currentColor"/>
	<circle cx="75" cy="298.1" r="51" fill="currentColor"/>
	<circle cx="75" cy="510.9" r="51" fill="currentColor"/>
</g>
</svg>
