<?xml version="1.0" encoding="utf-8"?>
<!-- Generator: Adobe Illustrator 22.0.0, SVG Export Plug-In . SVG Version: 6.00 Build 0)  -->
<svg version="1.1" id="Calque_1" xmlns="http://www.w3.org/2000/svg" xmlns:xlink="http://www.w3.org/1999/xlink" x="0px" y="0px"
	 viewBox="0 0 834 818" style="enable-background:new 0 0 834 818;" xml:space="preserve">
<g>
	<path d="M814.6,192.4c0,12.4,0,24.8,0,37.3c-0.5,1.6-1.4,3.2-1.6,4.9c-9.8,79.1-65.8,144.8-142.4,166.7c-8.5,2.4-17.2,4.1-26.4,6.2
		c0,3.6,0,7.1,0,10.6c0,100.3,0.1,200.6,0,300.8c0,39.5-23.2,71.8-59.4,83.6c-4.4,1.4-8.9,2.7-13.3,4c-159.7,0-319.5,0-479.2,0
		c-0.4-0.4-0.8-1-1.3-1.1c-49-12.9-71.5-42-71.5-92.6c0-146.6,0-293.3,0-439.9c0-55.2,35.8-91.1,90.9-91.1c99.3,0,198.7,0,298,0
		c3.4,0,6.9,0,10.2,0c0.7-3,1.4-5,1.7-7c16.6-91,94.5-159.5,185.6-163.2c94.7-3.9,177.6,56.6,201.8,147.3
		C810.6,169.8,812.3,181.2,814.6,192.4z M246.6,238.5c-46.5,0-91.7,0-136.9,0c-22.9,0-33.5,10.6-33.5,33.7c0,147.9,0,295.8,0,443.7
		c0,22.9,10.7,33.7,33.5,33.7c147.9,0,295.8,0,443.7,0c23.5,0,33.9-10.5,33.9-34.2c0-99.4,0-198.8,0-298.2c0-3.2,0-6.5,0-9.5
		C494.2,388.2,438,332.3,417,239.9c0,2.8,0,5.5,0,8.3c0,33.7,0.1,67.4,0,101.2c-0.1,25-20.9,37.9-43.4,26.9
		c-12.2-5.9-24.2-12.5-36.5-18.1c-2.9-1.3-7.5-1.3-10.4,0c-13.2,6-25.8,13.1-39,19.1c-20.2,9.3-40.7-3.8-41-26.1
		c-0.3-18.9-0.1-37.9-0.1-56.8C246.6,276.2,246.6,257.9,246.6,238.5z M473.8,209.5C473.6,288.1,537,352,615.4,352.1
		c78.1,0.1,142-63.1,142.4-140.9c0.4-78.6-62.9-142.7-141.2-143C538,67.8,474,131.2,473.8,209.5z M359.6,304.2c0-21.4,0-43.3,0-65.1
		c-19,0-37.4,0-55.8,0c0,22.3,0,43.9,0,65.3c9.4-3.1,18.5-8.5,27.5-8.4C340.8,296,350.2,301.2,359.6,304.2z"/>
	<path d="M218.3,721.3c-27.2,0-54.4,0-81.6,0c-20.7,0-32-11.2-32.1-31.6c-0.1-26.3-0.1-52.6,0-79c0.1-20,11.4-31.4,31.4-31.4
		c54.7-0.1,109.4,0,164.1,0c20,0,31.6,11.4,31.6,31.1c0.1,26.6,0.1,53.2,0,79.9c-0.1,19.4-11.5,30.9-30.9,31
		C273.4,721.3,245.8,721.3,218.3,721.3z M161.8,663.9c38,0,75.4,0,112.5,0c0-9.6,0-18.6,0-27.3c-37.8,0-75,0-112.5,0
		C161.8,645.7,161.8,654.5,161.8,663.9z"/>
	<path d="M473.7,636.1c-18.3,0-36.7,0.1-55,0c-17.3-0.1-30-12.2-30.1-28.3c-0.1-16.2,12.5-28.4,29.8-28.5c37-0.1,73.9-0.1,110.9,0
		c17.2,0.1,29.8,12.5,29.6,28.7c-0.2,15.8-12.7,27.9-29.4,28C511,636.2,492.3,636.1,473.7,636.1z"/>
	<path d="M473.4,721.3c-18,0-36.1,0.1-54.1,0s-30.8-12.1-30.7-28.5c0.1-16.5,12.8-28.2,30.9-28.2c36.1-0.1,72.2-0.1,108.2,0
		c18.2,0,31,11.7,31.2,28.1c0.2,16.8-12.7,28.6-31.4,28.7C509.5,721.3,491.5,721.3,473.4,721.3z"/>
	<path d="M616,170.6c6.8-7.1,12.7-13.7,19-19.8c12.1-11.8,29.2-12.2,40.5-1.2c11.6,11.3,11.6,28.7-0.4,41.2
		c-6.1,6.3-12.7,12.2-21.2,20.4c4.6,3.4,8.5,5.7,11.6,8.8c21.2,21,24.3,36.6,10.2,50.6c-14,13.8-29.3,10.6-50.6-10.8
		c-2.9-2.9-5.2-6.4-8.8-10.8c-7.5,7.8-13.4,14.2-19.7,20.4c-12.4,12.2-29.6,12.6-41.2,1.1c-11.5-11.4-11-28.7,1.1-41.1
		c6-6.1,12.1-12.1,20.4-20.3c-6.4-5.4-12.7-10.2-18.3-15.7c-14.2-13.9-15.4-30.8-3.4-43c12.3-12.5,29.2-11.2,43.7,3.2
		C604.5,158.7,609.8,164.2,616,170.6z"/>
</g>
</svg>
