<?xml version="1.0" encoding="utf-8"?>
<!-- Generator: Adobe Illustrator 22.0.0, SVG Export Plug-In . SVG Version: 6.00 Build 0)  -->
<svg version="1.1" id="Calque_1" xmlns="http://www.w3.org/2000/svg" xmlns:xlink="http://www.w3.org/1999/xlink" x="0px" y="0px"
	 viewBox="0 0 716 819.5" style="enable-background:new 0 0 716 819.5;" xml:space="preserve">
<style type="text/css">
	.st0{fill:#E27F43;}
	.st1{fill:#FFFFFF;}
	.st2{fill:#8EB743;}
</style>
<path class="st0" d="M27.5,807.1c-10.6-5.4-14.1-14-14.1-25.9c0.3-76.3,0.2-152.6,0.2-228.9c0-38.5,23.3-61.6,62-61.6
	c25.6,0,51.2,0.2,76.8-0.2c3.6-0.1,8-1.8,10.7-4.3c9-8.4,17.4-17.5,26.4-26.8c-2.4-1.2-4.6-2.4-6.8-3.5
	c-22.2-11.6-38.3-28.8-47.7-52c-2.1-5.3-4.5-7.4-10.4-7.6c-32-1.2-52.9-23.5-53.5-55.5c-0.4-18.9,1.7-36.6,15.9-50.9
	c1.8-1.8,1.6-5.7,1.9-8.7c0.3-3.1-0.2-6.2,0.1-9.3c0.9-9,0-15.1-10.8-18.9c-13.3-4.7-18.8-17-18.1-31.3c0.7-13,9.6-24.6,22.7-28.5
	c4.9-1.4,6.4-3.5,6.7-8.4c4.1-68.7,50.3-126.7,116.3-146.4c3.9-1.2,7.9-4.4,10.3-7.8c8.2-11.2,18.7-17.6,32.6-18.1
	c9.6-0.3,19.1-0.3,28.7,0c14.5,0.4,25.5,7,33.6,19.1c1.9,2.8,5.3,5.5,8.6,6.5C387.1,58.4,433,115.8,437.1,186
	c0.2,3.9,1.1,5.7,5.3,6.9c14.9,4.4,24.2,16.9,24.1,31.5c0,14.5-9.2,26.9-24.2,31.4c-4.3,1.3-5.2,3.2-5,7c0.2,3.1,0.3,6.2,0,9.3
	c-0.8,9.5,1.4,17.3,7.7,25.4c16.1,20.9,13.9,61.4-3,80.6c-10.9,12.4-24.7,18.4-41.1,18.4c-3.7,0-6.7,0-8.4,4.6
	c-9.8,26.2-27.8,45-53.1,56.8c-0.9,0.4-1.6,1.1-2.1,1.5c9.6,10,19,19.9,28.6,29.6c1,1,2.7,1.6,4.1,1.6c12.1,0.1,24.3,0.1,37.5,0.1
	c0-5.3-0.1-10.1,0-14.9c0.2-13.5,7.7-20.9,21.3-21c16.5-0.1,33.1,0,49.5,0c4.4-15.2,6.7-20.8,29.8-21.2c0.5-2,1.2-4.2,1.7-6.4
	c4.9-22,23.6-37,45.7-36.6c21.9,0.4,40.2,15.5,44.5,37.1c0.7,3.5,1,6.1,5.8,6.4c18,1.1,19.9,2.8,25.7,20.6c14.7,0,29.7,0.6,44.6-0.2
	c12.1-0.6,21.1,3.1,26.4,14.3c0,33.6,0,67.3,0,100.9c-3.3,5.8-7.8,9.9-15.1,7.8c-7.4-2.2-8.4-8.1-8.3-14.8c0.1-25.3,0.1-50.7,0.1-76
	c0-2.7,0-5.5,0-8.1c-6.4,0-11.7,0-17.3,0c0,3.7,0,6.8,0,9.9c0,85.4,0,170.7,0,256.1c0,16.3-5.6,22.1-21.8,22.1
	c-56.6,0-113.3,0-169.9,0c-16.8,0-22.1-5.4-22.1-22.4c0-85.6,0-171.2,0-256.8c0-3,0-6,0-8.8c-6.4,0-11.7,0-16.9,0
	c0,101.9,0,203.2,0,304.8c82.7,0,165.1,0,248,0c0-3.3,0-6.1,0-8.9c0-49.9,0-99.8-0.1-149.8c0-6.7,1-12.6,8.3-14.8
	c7.3-2.1,11.7,2,15.1,7.8c0,58.5,0,116.9,0,175.4c-4.7,4.7-9.3,9.3-14,14c-105.5,0-211.1,0-316.6,0c-4.8-4.3-8.8-9-6-16
	s9.1-7.5,15.6-7.3c8.4,0.2,16.9,0,25.2,0c0-90.5,0-180,0-269.4c-11,0-21.2,0-32.3,0c0,3.2,0,6,0,8.8c0,22.2,0,44.5,0,66.7
	c0,7.4-1.4,14-8.4,17.9c-7.3,4.1-13.8,1.7-20.2-2.5c-21-13.7-42-27.3-63.1-40.9c-2.3-1.5-4.6-2.8-7.7-4.7c0,75.4,0,149.4,0,224.1
	c15.4,0,30.4-0.1,45.3,0c8.4,0.1,14.2,4.8,13,11.7c-0.7,4.1-4.2,7.7-6.5,11.5C227.2,807.1,127.3,807.1,27.5,807.1z M151.8,514
	c-3.6,0-6.4,0-9.1,0c-22.8,0-45.5,0-68.3,0c-24.3,0-37.5,13.2-37.5,37.2c0,74.7,0,149.4,0,224.1c0,2.7,0,5.4,0,7.9
	c72.2,0,143.2,0,213.9,0c0-74.5,0-148.4,0-223.2c-3.5,2.1-6.1,3.7-8.7,5.3C221,579,200,592.6,179,606.3c-5.8,3.8-11.8,5.3-18.2,1.9
	c-6.6-3.5-9-9.5-9-16.8c0.1-19.1,0-38.3,0-57.4C151.8,527.6,151.8,521.2,151.8,514z M151.2,257.6c-0.4,1.3-0.8,2.1-0.8,2.8
	c0,36.2-1,72.4,0.4,108.6c1.5,41.2,32.2,71.9,73.3,74.1c26,1.4,52.2,0.3,78.3,0.2c4.1,0,8.3-0.7,12.3-1.7c37-8.5,60.7-38.7,61-78.3
	c0.3-33.1,0.1-66.2,0-99.3c0-2-0.3-4-0.5-6.4C300.4,257.6,226.1,257.6,151.2,257.6z M112.8,191.4c3.3,0,6.1,0,8.9,0
	c17.6,0,35.2,0,52.8,0c11.1,0,16.6,4,16.5,11.9c-0.1,7.7-5.1,11.3-16,11.4c-8.5,0-17.1,0-25.6,0c-18.4,0-36.7-0.1-55.1,0.1
	c-6.1,0-10.8,2.6-10.9,9.4c-0.1,6.8,4.5,9.4,10.6,9.7c1.5,0.1,3.1,0,4.7,0c109.7,0,219.3,0,329,0c10.6,0,15.7-3.2,15.6-9.7
	s-5.1-9.5-15.8-9.5c-62.1,0-124.2,0-186.2,0c-2.6,0-5.2,0.1-7.8-0.1c-6.7-0.5-10.6-4.2-10.9-10.8c-0.4-6.7,3.3-10.7,9.8-11.9
	c2.8-0.5,5.7-0.4,8.5-0.4c54.6,0,109.2,0,163.7,0c3,0,6,0,8.9,0c3.4-53.8-52.2-126.4-97.8-128.6c-0.3,1.7-0.7,3.5-1,5.2
	c-3.8,28.7-7.5,57.4-11.3,86.1c-1.3,10.1-5.2,13.5-15.3,13.5c-17.1,0.1-34.1,0.1-51.2,0c-8.4-0.1-12.6-3.7-13.7-11.8
	c-2.2-16.4-4.3-32.8-6.4-49.2c-2-14.8-4-29.6-6-44.5C157.3,76,112.3,131.6,112.8,191.4z M638.1,742.9c0-88.8,0-176.6,0-264.9
	c-2.7,0.2-4.9,0.3-7.7,0.5c0,3.4,0.1,6.2,0,9c-0.4,14.7-7.5,21.8-22.2,21.9c-35.7,0.1-71.4,0.1-107.1,0c-13.7,0-21.3-7.4-21.8-20.7
	c-0.1-3.3,0-6.6,0-10.1c-3,0-5.2,0-7.4,0c0,88.4,0,176.4,0,264.5C527.6,742.9,582.6,742.9,638.1,742.9z M281.2,143.9
	c1.6-12.2,3.1-23.7,4.6-35.2c2.3-17.2,4.8-34.3,6.9-51.5c1.7-14.1-4.7-21.4-18.4-21.5c-8.3-0.1-16.6-0.2-24.8,0.1
	c-9.9,0.4-16.3,7.3-15.9,17.2c0.3,5.7,1.2,11.3,1.9,16.9c3.2,24.5,6.5,49.1,9.8,74C257.2,143.9,268.8,143.9,281.2,143.9z
	 M303.8,467.3c-27.5,0-53.9,0-81.1,0c0,9.4-0.1,18.4,0.1,27.4c0,1.7,0.7,3.8,1.8,4.9c13.2,12.6,26.5,25.1,38.6,36.5
	c12.2-11.5,25.4-23.9,38.4-36.4c1.3-1.2,2-3.6,2.1-5.5C303.9,485.5,303.8,476.7,303.8,467.3z M351.3,581c0-24.8,0-47.5,0-70.2
	c0-1.5-0.3-3.4-1.2-4.3c-7.1-7.3-14.3-14.4-21.6-21.7c-0.8,1-1.1,1.2-1.1,1.4c-0.1,1.3-0.3,2.6-0.2,3.9c1.2,12-3.2,21.7-12.1,29.6
	c-7.9,7-15.6,14.3-24.2,22.2C311.7,555.4,330.7,567.7,351.3,581z M233.6,543.2c-13.3-18.9-39.7-28.7-33.6-59.7
	c-14.5,13.3-29.2,22.9-25.2,44c1.7,8.7,0.3,18,0.3,27c0,8.4,0,16.7,0,26.5C195.4,567.9,214.4,555.6,233.6,543.2z M606.9,457.8
	c-35,0-69.2,0-103.6,0c0,9.6,0,18.7,0,27.7c34.9,0,69.1,0,103.6,0C606.9,476.2,606.9,467.4,606.9,457.8z M399.3,372.2
	c15.1,2.2,29.6-7.9,31.6-23c1.2-9.1,1.2-18.6,0-27.7c-2.1-15.1-17.4-25.6-31.6-22.5C399.3,323.4,399.3,347.9,399.3,372.2z
	 M126.7,372.7c0-25.1,0-49.7,0-74.3c-15-1.2-28.1,7.4-30.8,21.6c-1.7,9.2-1.9,19.1-0.6,28.4C97.4,364,109.9,373.2,126.7,372.7z
	 M576.8,433.5c-1.8-12.4-10.7-19.9-22.5-19.6c-11.4,0.3-20,8.1-21,19.6C547.7,433.5,562,433.5,576.8,433.5z M413.7,257.8
	c-5,0-9.5,0-14,0c0,5.9,0,11.1,0,16.5c4.9,0.4,9.2,0.7,14,1.1C413.7,269.6,413.7,264,413.7,257.8z M112.5,275.4
	c5.2-0.5,9.7-0.9,14.1-1.3c0-5.9,0-10.9,0-16.4c-4.9,0-9.3,0-14.1,0C112.5,263.7,112.5,269,112.5,275.4z"/>
<path class="st1" d="M688.6,807.1c4.7-4.7,9.3-9.3,14-14c0,4.7,0,9.3,0,14C697.9,807.1,693.3,807.1,688.6,807.1z"/>
<path class="st2" d="M254.8,420.9c-10-0.1-25.7-6.3-38.8-18.7c-5.8-5.5-6.3-12-1.8-17.1c4.5-5,11.2-5,17.3-0.1
	c21.3,17.2,42.2,17.3,63.1,0.3c6.4-5.2,13.4-5.2,17.8,0.1c4.2,5,3.3,11.8-2.3,17.2C298,414.2,280.8,421,254.8,420.9z"/>
<path class="st2" d="M269.2,338c3.5,0.6,6.3,0.8,9,1.6c5.7,1.8,8.6,6,8.1,11.8c-0.5,5.6-3.8,9.9-9.8,10.3c-6.9,0.5-14,0.6-20.9,0
	c-5.8-0.5-9.3-4.6-9.5-10.5c-0.3-10.6-0.3-21.2,0-31.8c0.1-6.7,4.1-10.5,10.6-11.1c6.2-0.6,11.3,3.7,12.2,10.4
	c0.5,3.3,0.2,6.7,0.3,10.1C269.2,331.8,269.2,334.9,269.2,338z"/>
<path class="st2" d="M306.3,304.5c0-3.9-0.4-7.8,0.1-11.5c0.8-6.5,5-10.2,11.5-10.1c6.1,0.1,10.5,3.6,11,9.8
	c0.6,8.2,0.6,16.5,0.1,24.6c-0.5,6.5-5,10.2-11.5,10.1s-10.5-4-11.1-10.6C305.9,312.7,306.3,308.6,306.3,304.5L306.3,304.5z"/>
<path class="st2" d="M220.1,306c0,3.6,0.2,7.2-0.1,10.8c-0.5,6.3-4.3,10-10.4,10.6c-6.5,0.6-11.5-2.9-12.1-9.3
	c-0.9-8.6-0.8-17.5,0.1-26.1c0.6-6,5.4-9.5,11.6-9.1c6.4,0.4,10.4,4.2,10.9,10.8C220.3,297.7,220.1,301.8,220.1,306z"/>
<path class="st2" d="M585.6,640.8c9.6,0,19.1-0.1,28.7,0c8.1,0.1,12.7,4.4,12.8,11.4c0,6.8-4.7,11.7-12.6,11.7
	c-19.4,0.2-38.7,0.2-58.1,0c-7.9-0.1-12.5-5-12.3-12c0.1-7,4.7-11,13-11.2C566.5,640.7,576.1,640.8,585.6,640.8z"/>
<path class="st2" d="M585.2,619.8c-9.5,0-19.1,0.2-28.6,0c-7.8-0.2-12.2-4.1-12.5-10.8c-0.3-7,4.1-12.1,12-12.2
	c19.6-0.3,39.2-0.3,58.8,0c7.9,0.1,12.4,5.2,12.1,12.1c-0.3,6.6-4.7,10.8-12.4,10.9C604.8,620,595,619.8,585.2,619.8z"/>
<path class="st2" d="M585.3,576c-9.6,0-19.1,0.1-28.7,0c-7.9-0.1-12.6-4.7-12.6-11.6c0-6.9,4.8-11.5,12.7-11.6
	c19.1-0.2,38.2-0.1,57.3,0c7.9,0.1,12.8,4.6,13,11.3c0.2,7.2-4.7,11.8-13.1,11.9C604.4,576.1,594.8,576,585.3,576z"/>
<path class="st2" d="M585.1,707.9c-9.3,0-18.6,0.1-27.9,0c-8.5-0.1-13.3-4.6-13.2-11.8c0.1-6.8,4.9-11.3,12.9-11.3
	c19.1-0.1,38.2-0.1,57.3,0c7.9,0.1,12.8,4.6,12.8,11.5c0.1,6.9-4.7,11.6-12.6,11.7C604.7,708,594.9,707.9,585.1,707.9z"/>
<path class="st2" d="M508.1,556c4.4-5.1,7.3-9.1,10.9-12.4c5.3-4.9,12.1-4.5,16.5,0.3c4.1,4.4,4.3,11.1-0.4,16.1
	c-6.1,6.6-12.5,13-19.1,19.1c-5.3,4.9-11.2,4.6-16.6-0.4c-4.7-4.4-9.3-8.9-13.7-13.7c-5-5.4-5-11.9-0.5-16.6
	c4.6-4.7,11.1-4.9,16.6,0C503.8,550.2,505.2,552.4,508.1,556z"/>
<path class="st2" d="M506.8,684.6c4.4,0,8.8-0.3,13.2,0.1c6.6,0.5,11.2,5.5,11.2,11.6s-4.6,11.2-11.3,11.4c-9,0.3-18.1,0.4-27.1-0.1
	c-6.5-0.4-10.3-4.4-10.7-11.1c-0.3-6.3,4.1-11.3,10.7-11.8C497.5,684.4,502.2,684.6,506.8,684.6z"/>
<path class="st2" d="M506.2,619.7c-4.6,0-9.3,0.3-13.9-0.1c-6.3-0.6-9.8-4.5-10.1-10.7c-0.3-6.2,2.9-11.1,9-11.5
	c10.2-0.8,20.6-0.8,30.8,0c6.2,0.4,9.4,5.5,9,11.6c-0.3,6.1-3.8,10.2-10.1,10.7C516,620,511.1,619.7,506.2,619.7z"/>
<path class="st2" d="M506.7,640.9c4.4,0,8.8-0.1,13.2,0c6.7,0.3,10.7,4,11.2,10.5s-3.1,11.6-9.5,12.1c-10,0.8-20.1,0.8-30.1-0.1
	c-6.4-0.5-9.9-5.5-9.3-12.2c0.6-6.6,4.7-10.1,11.3-10.4C497.9,640.7,502.3,640.8,506.7,640.9z"/>
</svg>
