<svg width="21" height="22" viewBox="0 0 21 22" fill="none" xmlns="http://www.w3.org/2000/svg">
<path d="M2.45478 11.7789C1.697 11.7789 0.960567 11.7789 0.213459 11.7789C0.0533648 11.7789 0 11.7467 0 11.575C0.010673 10.9207 0 10.2555 0 9.60116C0 9.54752 0.0106736 9.49389 0.0106736 9.41879C0.821819 9.41879 1.63296 9.41879 2.39075 9.41879C2.59353 8.74296 2.74295 8.06712 2.9991 7.44492C3.25526 6.82272 3.60746 6.24344 3.92765 5.62124C3.394 5.09559 2.81766 4.52703 2.23065 3.95847C2.81766 3.37918 3.37266 2.8428 3.91698 2.30642C4.4613 2.85353 5.03764 3.42209 5.62465 4.00138C6.73464 3.17536 7.96203 2.66043 9.32817 2.45661C9.32817 1.64132 9.32817 0.826022 9.32817 0C10.118 0 10.8758 0 11.6656 0C11.6656 0.815294 11.6656 1.63059 11.6656 2.45661C13.0317 2.66043 14.2591 3.16463 15.3691 3.99065C15.9454 3.41136 16.5218 2.83207 17.0767 2.27424C17.6424 2.8428 18.1867 3.38991 18.7524 3.94774C18.1867 4.50557 17.6104 5.07413 17.0234 5.64269C17.8559 6.77982 18.3682 8.02421 18.571 9.40807C19.3821 9.40807 20.1933 9.40807 21.0044 9.40807C21.0044 10.1912 21.0044 10.9636 21.0044 11.7681C20.1933 11.7681 19.3928 11.7681 18.571 11.7681C18.3682 13.152 17.8665 14.3857 17.0341 15.5228C17.6104 16.0913 18.1974 16.6599 18.7738 17.2392C18.1974 17.8077 17.6531 18.3548 17.0981 18.8912C16.5431 18.3334 15.9668 17.7648 15.3904 17.1748C14.2804 18.0008 13.0424 18.5158 11.6762 18.7196C11.6762 19.5456 11.6762 20.3609 11.6762 21.1762C10.8971 21.1762 10.1286 21.1762 9.34952 21.1762C9.34952 20.3609 9.34952 19.5456 9.34952 18.7732C8.70914 18.5801 8.06876 18.4407 7.48175 18.2047C6.88406 17.9579 6.33974 17.6146 5.74206 17.2928C5.16572 17.8077 4.54668 18.3548 3.93833 18.8912C3.38333 18.3334 2.83901 17.797 2.252 17.207C2.51882 16.9495 2.80699 16.6813 3.08449 16.4132C3.36199 16.145 3.62881 15.8661 3.90631 15.5871C3.98102 15.5228 3.99169 15.4691 3.92765 15.3833C3.20189 14.3857 2.74295 13.27 2.51882 12.0578C2.50815 12.0149 2.50815 11.9612 2.49748 11.9076C2.4868 11.8969 2.46546 11.8432 2.45478 11.7789ZM10.5235 4.7094C7.32166 4.69867 4.69611 7.34838 4.68543 10.5988C4.68543 13.8493 7.26829 16.4668 10.4915 16.4883C13.6827 16.5097 16.3296 13.8707 16.3403 10.631C16.3617 7.38056 13.7575 4.72012 10.5235 4.7094Z" fill="white"/>
</svg>
