<?xml version="1.0" encoding="utf-8"?>
<!-- Generator: Adobe Illustrator 22.0.0, SVG Export Plug-In . SVG Version: 6.00 Build 0)  -->
<svg version="1.1" id="Calque_1" xmlns="http://www.w3.org/2000/svg" xmlns:xlink="http://www.w3.org/1999/xlink" x="0px" y="0px"
	 viewBox="0 0 615 900" style="enable-background:new 0 0 615 900;" xml:space="preserve">
<path d="M71.5,459.1c11.3,0,22.4,0,34.1,0c0,126.2,0,252.2,0,378.8c148.1,0,295.5,0,443.5,0c0-213.2,0-426.4,0-640.5
	c-97.2,0-194.5,0-292.2,0c0-12.2,0-23.4,0-34.9c2.1-0.1,3.9-0.3,5.8-0.3c96.2,0,192.4,0,288.6,0c19.7,0,33,13.3,33,33.1
	c0,190.5,0,381.1,0,571.6c0,24.2,0.1,48.3,0,72.5c0,20.7-12.9,33.8-33.5,33.8c-148.8,0-297.7,0-446.5,0c-20,0-33.1-13.4-33.1-33.6
	c0-125.3,0-250.6,0-375.9C71.2,462.3,71.4,460.9,71.5,459.1z"/>
<path d="M31,126.8c9.1,0,17.4,0,26.5,0c0,3.4,0,6.4,0,9.4c0,67.9,0,135.8,0,203.7c0,21.6,12.4,39.7,32.3,47.7
	c20.2,8.1,41.4,3.6,56.2-12.1c9.3-9.9,14.2-21.9,14.3-35.3c0.2-80.1,0.2-160.2,0-240.3c0-12.6-3.4-24.5-11.4-34.7
	c-12.2-15.5-29.6-15.5-41.7,0.1C99.4,75.3,96,86.9,96,99.4c-0.1,58.8-0.1,117.7,0.1,176.5c0,4.8,1.4,9.8,3.2,14.3
	c2.3,5.7,6,10.9,13,10.8c6.7-0.1,10.5-5,12.5-10.5c2-5.7,3.4-12,3.4-18c0.3-46,0.2-92.1,0.2-138.1c0-2.4,0-4.8,0-7.6
	c9,0,17.4,0,26.4,0c0.1,2,0.3,4,0.3,6c0,47.1,0,94.1,0,141.2c0,13.8-3.3,26.6-11.8,37.7c-16.7,21.8-45.7,21.8-62.4-0.1
	c-8.1-10.6-11.6-22.8-11.6-35.9c-0.1-58.6-0.2-117.2,0.1-175.9c0-20.8,6.1-39.9,20.6-55.5c22-23.7,55.2-23.3,76.9,0.7
	c14.4,16,20.1,35.3,20.2,56.4c0.1,75.5-0.1,151.1,0,226.6c0,14.5-0.5,28.8-6.3,42.5c-14.6,34.4-50.4,53.5-86.7,46.1
	C57,409,30.9,378,30.8,340.8c-0.1-69.4,0-138.7,0-208.1C30.7,130.9,30.9,129.1,31,126.8z"/>
<path d="M327.7,610.9c58,0,116,0,173.9,0c12.4,0,20.4,7.7,19.7,18.7c-0.6,8.3-6.1,14.4-14.7,16c-2,0.4-4.1,0.4-6.2,0.4
	c-115.1,0-230.3,0-345.4,0c-11.7,0-18.8-4.8-20.6-13.8c-2.1-10.6,4.8-20,15.5-21.1c2-0.2,4.1-0.1,6.2-0.1
	C213.3,610.9,270.5,610.9,327.7,610.9z"/>
<path d="M327.1,730.7c-58,0-115.9,0-173.9,0c-10.6,0-17.7-5.7-18.9-14.9c-1.4-11.2,6.3-19.8,18.3-19.8c28.5-0.1,56.9,0,85.4,0
	c87.3,0,174.5,0,261.8,0c1.4,0,2.9,0,4.3,0c10.1,0.4,17.2,7.6,17.2,17.3c0,9.8-7.1,17.2-17.2,17.3c-17.7,0.2-35.5,0.1-53.2,0.1
	C409.6,730.7,368.4,730.7,327.1,730.7z"/>
<path d="M328.3,526.1c57.8,0,115.5,0,173.3,0c11.5,0,18.7,5.8,19.6,15.5c1,11-6.7,19.2-18.3,19.2c-35.7,0.1-71.4,0-107.1,0
	c-80.7,0-161.3,0-242,0c-10.8,0-17.9-5.3-19.4-14.3c-1.8-11.5,5.9-20.3,18.2-20.4c27.2-0.1,54.5,0,81.7-0.1
	C265.6,526.1,297,526.1,328.3,526.1z"/>
<path d="M327.8,475.9c-57.2,0-114.3,0-171.5,0c-14.4,0-22.2-6.1-22.2-17.3c0-11.2,7.9-17.5,22.1-17.5c114.9,0,229.8,0,344.8,0
	c13,0,21,7.4,20.3,18.6c-0.6,9.4-7.6,16-17.7,16.1c-14.4,0.2-28.9,0.1-43.3,0.1C416.1,475.9,371.9,475.9,327.8,475.9L327.8,475.9z"
	/>
<path d="M327.5,393.7c-37.3,0-74.7,0.1-112,0c-12.9,0-21.1-10.5-17.8-22.2c2.2-7.6,8.6-12.4,17.2-12.4c14-0.1,28.1,0,42.1,0
	c60.9,0,121.7,0,182.6,0c13,0,21.3,10.2,18.1,21.9c-2.2,8.1-8.7,12.7-18.2,12.7C402.2,393.8,364.9,393.7,327.5,393.7z"/>
</svg>
