<svg width="14" height="14" viewBox="0 0 14 14" fill="none" xmlns="http://www.w3.org/2000/svg">
    <g>
        <path d="M4.66602 13.0833C5.14892 12.0675 5.61517 11.0851 6.08142 10.1026C6.49771 9.23671 6.91401 8.37082 7.31365 7.4966C7.39691 7.3051 7.44687 7.0803 7.45519 6.87216C7.46352 4.90724 7.46352 2.95065 7.46352 0.98574C7.46352 0.686007 7.46352 0.677684 7.77158 0.686009C9.48671 0.744291 10.9437 1.41869 12.1344 2.6426C14.6654 5.23195 14.6238 9.41156 11.9928 11.8927C10.0029 13.7743 7.66334 14.2323 5.07398 13.2748C4.94077 13.2331 4.81588 13.1582 4.66602 13.0833Z" fill="currentColor"/>
        <path d="M0.0120779 7.52985C2.15184 7.52985 4.27494 7.52985 6.448 7.52985C5.5155 9.47811 4.59965 11.4014 3.67548 13.3247C1.76052 12.6336 -0.171092 9.98599 0.0120779 7.52985Z" fill="currentColor"/>
        <path d="M6.7477 0.0199189C6.7477 0.194763 6.7477 0.352955 6.7477 0.519473C6.7477 2.42611 6.7477 4.32441 6.75603 6.23104C6.75603 6.44752 6.70607 6.5058 6.48127 6.5058C4.50803 6.49747 2.52647 6.49747 0.553231 6.49747C0.27015 6.49747 0.261822 6.49747 0.270148 6.19774C0.311778 4.416 1.05278 2.93398 2.33497 1.73505C3.48395 0.652686 4.86605 0.0698733 6.44797 0.00326611C6.51458 0.00326611 6.58118 0.00326611 6.64779 0.00326611C6.67277 -0.00505979 6.68942 0.00326713 6.7477 0.0199189ZM6.33141 0.394585C5.80688 0.377933 5.3323 0.511146 4.86605 0.661012C2.59308 1.38537 0.836311 3.56675 0.661467 5.85638C0.644815 6.06452 0.703096 6.13946 0.911244 6.13113C2.63471 6.12281 4.35817 6.12281 6.08163 6.12281C6.16489 6.12281 6.24815 6.10616 6.33141 6.09783C6.33141 4.1912 6.33141 2.30954 6.33141 0.394585Z" fill="currentColor"/>
    </g>
</svg>
