<?xml version="1.0" encoding="utf-8"?>
<!-- Generator: Adobe Illustrator 22.0.0, SVG Export Plug-In . SVG Version: 6.00 Build 0)  -->
<svg version="1.1" id="Calque_1" xmlns="http://www.w3.org/2000/svg" xmlns:xlink="http://www.w3.org/1999/xlink" x="0px" y="0px"
	 viewBox="0 0 716 819.5" style="enable-background:new 0 0 716 819.5;" xml:space="preserve">
<style type="text/css">
	.st0{fill:#334F7D;}
	.st1{fill:#D95141;}
</style>
<path class="st0" d="M302.6,68.9c1.5,0.6,3,1.3,4.5,1.8c22.1,7.3,33.4,29.7,25.6,51.7c-4.7,13.3-10.3,26.4-15.7,40.2
	c9.3,1.9,18.3,3.7,27.2,5.7c16.5,3.7,26.7,17.1,25,32.8c-1.7,16-14.8,27-32,26.9c-3.8,0-7.5,0-12.3,0c4.2,10.6,8.1,20.7,12.1,30.6
	c2.8,7,5.8,14,8.3,21.1c3.3,9.1-1.5,16.2-11.2,16.4c-10.6,0.2-21.3,0.1-32.2,0.1c-3.4,26.4,4.1,53.2-5.7,78.7c8.5,1.4,17.5,2,26,4.3
	c23,6,42.2,18.2,55.9,37.7c12.6,18,23.8,36.9,36.2,56.2c-6.5,4.1-12.6,8-18.8,12c-17.7-22.8-27.8-50.8-51-70.6
	c-38.7,70.5-76.9,140.3-115.6,210.7c23.2,0,45.5,0,68.8,0c-10.2-9.6-14.9-20.7-11.5-34.1c3.4-13.2,12.7-20.5,26.2-24
	c0-21.9,0-43.8,0-66.1c7.7,0,14.6,0,22.8,0c0,8.3-0.3,16.7,0.1,25.1c0.1,3.3,1,7,2.8,9.9c14.4,23.9,28.5,48,43.8,71.3
	c5.3,7.9,14,13.6,22.5,21.6c2.7-18.2,5.1-34.1,7.5-50.1c6.8-46.3,13.3-92.7,20.3-139c2.8-18.4,16.9-29.8,35.7-29.9
	c3,0,6.2-0.2,9.2,0c10.5,0.7,19.2-0.1,26.7-10.3c8-10.8,21.3-13.5,34.6-12.4c5.1,0.4,7.7-0.9,9.6-6.3c5.5-15.5,17.3-24.7,33.3-27.4
	c20.3-3.5,34.1,10,34.8,33.7c2.8,0,5.6-0.1,8.4,0c12.8,0.5,21.8,6.5,27.2,18.3c0.9,1.9,3.9,4.3,5.7,4.1c20.7-1.2,34.3,7.9,41.3,27.2
	c0,4.7,0,9.5,0,14.2c-4.5,28.9-8.9,57.9-13.2,86.8c-0.2,1.2,0.6,2.6,1.3,3.7c3.9,6.3,7.9,12.5,11.9,18.8c0,4.3,0,8.5,0,12.8
	c-0.5,1.3-1.2,2.4-1.5,3.8c-4.3,21.3-8.6,42.6-12.8,64c-3.5,17.5-15.7,29.5-31.9,30.1c-13.5,0.5-27,0.5-40.4,0
	c-18.6-0.7-32.5-18-29.1-36.2c4.5-23.9,9.2-47.8,14.3-71.6c3.9-18.2,16.8-28.3,35.4-28.4c9.9-0.1,19.8,0,29.9,0
	c0.3-1.8,0.5-2.8,0.7-4c4-27.1,7.9-54.3,12.1-81.4c0.9-5.8,1.4-12.1-4.5-14.3c-6.1-2.2-13.3-1.8-19.9-2.1c-0.6,0-1.6,2.6-2,4.1
	c-1.8,6.4-3.4,12.8-4.9,19.2c-1.7,7-6,10.3-13.2,10.3c-44.9-0.1-89.9,0-134.8-0.1c-9.9,0-14.4-6.2-12.2-16
	c1.4-5.8,2.8-11.7,4.3-18.1c-7.3,0-13.7-0.1-20.1,0c-8.4,0.1-12.3,3.7-13.6,12.3c-0.6,4-1.1,7.9-1.7,11.9
	c-12.5,85.4-25.1,170.7-37.7,256c-1.4,9.4,3.5,15,13.1,15c64.8,0.1,129.7,0.1,194.5,0c8.4,0,12.3-3.7,13.7-12.2
	c1.2-7.7,2.3-15.3,3.6-23.5c7.7,1.2,14.8,2.3,21.9,3.5c-3.6,30.6-2.8,45.1-31.2,55.1c-185.1,0-370.1,0-555.3,0
	c-1.5-0.5-3-1.2-4.5-1.6c-24.8-6.2-41.6-21.3-50.3-45.3c-1.4-3.7-2.3-7.5-3.5-11.3c0-71.5,0-143,0-214.4c7.5,0,14.9,0,22.7,0
	c0,3.9,0,6.6,0,9.5c0,63.6,0,127.2,0,190.9c0,30.8,18.7,49.5,49.5,49.5c52.8,0,105.5,0,158.3,0c2.5,0,5,0,7.7,0c0-26.9,0-53,0-79.5
	c-3,0-5.6,0-8.2,0c-41.2,0-82.3,0-123.5,0c-12,0-15.5-3.6-15.5-15.7c0-41.6,0-83.3,0-124.9c0-2.2,0-4.5,0-6.7c8.1,0,15,0,22.7,0
	c0,41.6,0,82.9,0,124.2c0.5,0.3,1.2,0.7,1.7,0.9c1.5-1.6,3.5-3,4.5-4.8c19-34.6,37.9-69.2,57-103.7c1.8-3.3,1.5-5.2-1-7.9
	c-32.7-35.8-65.2-71.8-98-107.5c-1.8-1.9-5.8-3-8.4-2.6c-22.1,4.3-36.8,17.4-43.9,38.7c-1.8,5.3-2.4,10.9-3.6,16.9
	c-7.2,0-14.6,0-21.9,0c0-3.3,0-6.6,0-10c3.3-13.6,7.4-26.8,16.2-38c13.2-16.9,30.6-27,51.7-30.8c0.1-1.8,0.3-3.2,0.3-4.6
	c0-64.8,0.1-129.5-0.1-194.4c0-3-0.7-6.1-1.9-8.9c-5.8-14.7-11.9-29.3-17.6-44c-7.7-19.9,0.3-41.9,18.4-51.1c3.5-1.8,7.4-3,11-4.5
	C164.4,68.9,233.5,68.9,302.6,68.9z M182.5,188.6c-1.2,3.4-2.3,6.5-3.3,9.6c-1.1,3.1-2,6.3-3.1,9.4c-2,6.2-6.2,9.2-12.8,9
	c-2.6-0.1-5.2-0.1-7.8,0c-9.6,0.1-16.8,5.1-19,13c-2.2,8.3,1,16.1,8.9,21.3c10,6.5,10.8,13.1,2.2,21.7
	c-11.5,11.6-22.9,23.2-34.7,34.6c-3.8,3.6-5.1,7.3-4.9,12.4c0.3,16.3,0.1,32.7,0.1,49c0,2.2,0,4.5,0,7c50.3,0,99.5,0.1,148.7-0.1
	c10-0.1,18.8-6.8,20.5-16.5c1.6-9.4,1.1-19,1.6-29.1c-12.3,0-23,0-33.9,0c0-7.7,0-14.9,0-22.6c11.3,0,22.1,0,33.6,0
	c0-7.3-0.1-14.1,0-20.9c0.1-8.8,4.3-12.9,13.2-13c8.6-0.1,17.3,0,26.8,0c-6.2-15.6-12.1-30.3-18-44.9c-0.6-1.4-2.4-3-3.9-3.3
	c-9.9-1.9-19.9-3.5-29.9-5.1c1.1,15.7-3.1,24.6-13.7,28.9c-9.3,3.8-20.3,1.2-26.1-7c-2.6-3.7-5.2-8.7-4.7-12.9
	c0.7-6.8,3.9-13.4,6.1-20.2C214,202.7,198.6,195.7,182.5,188.6z M325,402.1c-11.6-1.3-22-2.4-32.3-3.7c-5.4-0.7-8.3,1.3-11,6.2
	c-38.9,71.4-78.1,142.6-117.1,213.9c-1.1,2-2.1,4.1-3.6,7.1c12.4,0,23.9-0.3,35.4,0.1c4.9,0.1,7.5-1.6,9.8-5.8
	c38.1-69.9,76.5-139.7,114.8-209.6C322,408.3,322.9,406.2,325,402.1z M311.4,103c-4.1-8.5-10.1-11.4-18-11.4
	c-62.9,0.1-125.8,0-188.8,0.1c-15.1,0-22.8,11.3-17.3,25.4c4.7,12.1,9.9,24,14.4,36.2c1.8,4.9,4.1,6.7,9.6,6.7
	c46.8-0.3,93.6-0.1,140.5-0.1c2.2,0,4.5-0.2,7.2-0.3c-1.2-4-2.1-7.3-3.3-11.3c-41.7,0-83.2,0-124.5,0c0-7.8,0-14.8,0-22.4
	c2.9,0,5.4,0,8,0c38.1,0,76.2-0.1,114.2,0.1c4.2,0,6.7-1,9.1-4.7c7.6-11.8,18.8-17.5,32.7-18C300.3,102.9,305.4,103,311.4,103z
	 M632.4,648.3c4.9,0,10,0,14.9,0c9.4-0.1,12.8-2.7,14.7-11.8c4.5-22.2,9-44.4,13.4-66.7c1.6-8.1-1.6-12.3-9.9-12.3
	c-11.1-0.1-22.2-0.1-33.3,0c-7.5,0.1-11.3,3.3-12.8,10.7c-4.7,22.9-9.3,45.9-13.8,68.8c-1.4,6.8,2,11,9,11.3
	C620.6,648.4,626.5,648.3,632.4,648.3z M392.4,727.5c0-5.6-0.6-11.1,0.1-16.3c2.2-16.9,4.8-33.7,7.4-50.5
	c1.2-7.6-17.8-23.2-25.1-20.5c-0.2,0.1-0.4,0.2-0.7,0.3c-11.4,4.5-22.8,9.3-34.2,13.6c-3.8,1.4-4.8,3.4-4.7,7.2
	c0.2,20.6,0.1,41.2,0.1,61.7c0,1.6,0.4,3.1,0.6,4.5C355.2,727.5,374.1,727.5,392.4,727.5z M508.8,443.8c3.3,0,5.9,0,8.5,0
	c27.4,0,54.9,0.1,82.3-0.1c7.9,0,18.4,2.4,23.2-1.6c5.2-4.5,5.1-15.1,7.2-23c0.1-0.2,0.1-0.5,0.2-0.7c1.1-5.6-1.1-8.7-7-8.7
	c-7.1,0-14.2,0.1-21.3-0.1c-9.1-0.3-13.7-6.4-11.7-15.2c0.5-2.3,1.6-4.5,1.7-6.8c0.1-3.5,0.4-9.5-1.1-10.1
	c-3.5-1.4-8.7-1.4-11.7,0.5c-4.3,2.8-7.3,7.6-10.3,11.9c-1.4,2-1.4,4.9-2,7.5c-2.5,10-5.5,12.2-15.9,12.3c-6.2,0-12.3-0.1-18.4,0.1
	c-8.4,0.3-14.6,4.5-17.5,12.2C512.2,428.7,510.9,436,508.8,443.8z M312.3,648.9c-11.7,0-22.7,0-33.4,0c0,26.5,0,52.4,0,78.5
	c11.3,0,22.3,0,33.4,0C312.3,701,312.3,675,312.3,648.9z M207.3,491.7c8.8-11.4,12.4-22.4,8.9-36.2c-4.7-18.6-8.9-37.8,0.1-56.8
	c-9.7,0-19.2,0-30,0c2.6,4,4.6,7.5,7,10.5c4.7,6,6.2,12.1,4.5,19.8c-2.8,13.1-4.6,26.6-6.7,39.8c-0.3,1.9-0.3,4.5,0.8,5.8
	C196.8,480.5,202,485.9,207.3,491.7z M227.9,183.3c35.2,14.6,71.9,21.5,109.8,22c4.7,0.1,8.1-1.7,8.7-6.4c0.8-5.8-3.5-7.4-8.1-8.7
	C302,179.8,264.9,182.7,227.9,183.3z M124.1,263.6c-0.8-1.2-1.3-2-1.8-2.7c-20-27.4-6.4-61.4,27.2-66.2c8.5-1.2,9.3-5.6,10.2-11.7
	c-17.3,0-34.2,0-51,0c0,32.1,0,63.8,0,96.3C114.1,273.7,118.9,268.9,124.1,263.6z M122.4,398.3c16.7,18.3,32,35.2,48.5,53.4
	c1.6-9.9,3-18.2,4.1-26.5c0.2-1.6-0.9-3.6-1.8-5.1c-3.9-6.2-7.9-12.3-12.3-18.2c-1.3-1.8-4-3.4-6.1-3.5
	C144.7,398.1,134.6,398.3,122.4,398.3z M360.2,621.5c-12.9-10.4-24.6-19.9-36.5-29.1c-4.9-3.9-10.6-3.3-13.8,1.1
	c-3.4,4.8-2.6,9.4,1.7,13.2c8.1,7.2,16.4,14.2,24.8,21.1c1.3,1,3.9,1.5,5.5,0.9C347.7,626.7,353.3,624.2,360.2,621.5z M306.8,126.2
	c-17.8-1.9-27.3,3.3-28.3,15c-0.8,9.2,5.4,16.6,15.2,17.6C298.1,148.1,302.4,137.3,306.8,126.2z M237.1,438.6
	c7.4-13.5,14.4-26.4,22.1-40.3c-5.8,0-10.4-0.2-15,0.1c-1.4,0.1-3.5,1.6-3.9,2.9C236.1,413.2,230.3,425,237.1,438.6z"/>
<path class="st1" d="M175.6,704.9c-7.3,0-14.3,0-21.7,0c0-7.4,0-14.6,0-22.1c7.2,0,14.2,0,21.7,0
	C175.6,689.8,175.6,696.9,175.6,704.9z"/>
<path class="st1" d="M199.3,682.7c7.4,0,14.4,0,21.8,0c0,7.2,0,14.4,0,22c-7.2,0-14.3,0-21.8,0C199.3,697.5,199.3,690.5,199.3,682.7
	z"/>
</svg>
