<?xml version="1.0" encoding="utf-8"?>
<!-- Generator: Adobe Illustrator 22.0.0, SVG Export Plug-In . SVG Version: 6.00 Build 0)  -->
<svg version="1.1" id="Calque_1" xmlns="http://www.w3.org/2000/svg" xmlns:xlink="http://www.w3.org/1999/xlink" x="0px" y="0px"
	 viewBox="0 0 296.8 248" style="enable-background:new 0 0 296.8 248;" xml:space="preserve">
<g>
	<path d="M221.8,243.6c-3.6-2-4.5-5-4.5-9c0.1-25.4,0.1-50.9,0.1-76.3c0-1.1,0-2.1,0-3.5c-3.9,0-7.5,0-11.1,0
		c-3.1,0-5.8-0.7-7.2-3.7c-1.4-3-0.4-5.5,1.5-8c12.2-16.1,24.3-32.2,36.4-48.4c3.7-4.9,8.3-4.9,12,0c12.2,16.3,24.4,32.6,36.7,48.9
		c0.7,0.9,1.4,1.9,2,2.8c0,1.3,0,2.5,0,3.8c-1.9,3.7-4.9,4.9-8.9,4.7c-3.3-0.2-6.6,0-10.2,0c0,1.4,0,2.5,0,3.6
		c0,25.6,0,51.2,0.1,76.8c0,4-1.3,6.8-4.9,8.5C249.7,243.6,235.7,243.6,221.8,243.6z"/>
	<path d="M127.7,243.6c-3.6-1.5-4.9-4.3-4.9-8.2c0.1-19.4,0-38.8,0-58.1c0-1.1,0-2.1,0-3.5c-4,0-7.7,0-11.4,0c-3,0-5.6-0.9-7-3.7
		c-1.5-2.9-0.4-5.4,1.4-7.8c12.2-16.2,24.3-32.5,36.5-48.7c3.7-4.9,8.3-4.9,12,0c12.3,16.4,24.7,32.9,37,49.3c1.7,2.2,2.2,4.6,1,7.1
		c-1.2,2.5-3.4,3.7-6.2,3.7c-4,0-7.9,0-12.2,0c0,1.3,0,2.4,0,3.4c0,19.3-0.1,38.6,0.1,57.9c0,4-1.3,6.8-4.9,8.5
		C155.3,243.6,141.5,243.6,127.7,243.6z"/>
	<path d="M9.2,184.4c13.1-17.4,26.1-34.9,39.2-52.3c3.1-4.1,7.9-3.9,11.2,0.4c6.7,8.9,13.3,17.8,20,26.8
		c5.6,7.5,11.2,15.1,16.9,22.6c1.7,2.3,2.5,4.6,1.2,7.3c-1.3,2.8-3.7,3.8-6.7,3.8c-3.8,0-7.6,0-11.7,0c0,1.2,0,2.1,0,3.1
		c0,13-0.1,26.1,0.1,39.1c0,4-1.3,6.8-4.9,8.5c-13.8,0-27.5,0-41.3,0c-3.6-1.7-5-4.5-4.9-8.5c0.1-13,0.1-26,0.1-39.1
		c0-1,0-1.9,0-3.1c-3.7,0-7.1-0.1-10.6,0c-3.9,0.2-6.9-1.1-8.5-4.8C9.2,186.9,9.2,185.6,9.2,184.4z"/>
	<path d="M53.7,50.1c3.1,0.1,5.1,1.7,6.3,4.4c2.3,4.8,4.6,9.6,6.8,14.5c0.7,1.6,1.5,2.3,3.4,2.5c5.4,0.5,10.8,1.4,16.1,2.1
		c2.7,0.4,4.8,1.7,5.7,4.3c1,2.7,0.2,5.2-1.9,7.2c-3.9,3.8-7.9,7.5-11.9,11.2c-1.2,1.1-1.8,2.1-1.4,4c1.2,5.2,2,10.5,3,15.7
		c0.6,3,0,5.4-2.5,7.2c-2.5,1.9-5.2,1.6-7.9,0.1c-4.6-2.6-9.2-5.1-13.7-7.7c-1.4-0.8-2.5-0.9-3.9-0.1c-4.5,2.6-9,5-13.5,7.5
		c-2.8,1.6-5.5,2.3-8.4,0.2c-2.8-2.1-3-4.9-2.4-8c1-5,2.1-10.1,2.9-15.2c0.2-1.1-0.3-2.7-1.1-3.4c-3.7-3.7-7.6-7.3-11.4-10.8
		c-2.3-2.1-3.7-4.6-2.5-7.7c1.1-2.9,3.4-4.2,6.5-4.5c5.2-0.6,10.4-1.4,15.6-2c1.7-0.2,2.5-0.8,3.2-2.3c2.2-5,4.5-9.9,6.8-14.8
		C48.9,51.7,50.9,50.3,53.7,50.1z"/>
	<path d="M223.9,78.5c-5.1,0-8-3.4-7.2-7.6c1-5.6,2-11.2,3.2-16.8c0.3-1.6,0-2.5-1.2-3.5c-3.9-3.5-7.7-7.2-11.6-10.7
		c-2.4-2.1-3.5-4.7-2.5-7.8c0.9-2.9,3.2-4.1,6.2-4.5c5.2-0.6,10.4-1.4,15.6-2c1.7-0.2,2.7-0.8,3.5-2.4c2.2-4.9,4.5-9.7,6.8-14.5
		c1.2-2.7,3.1-4.4,6.2-4.4c3.1,0,5,1.8,6.2,4.4c2.3,4.8,4.6,9.6,6.8,14.5c0.7,1.7,1.7,2.2,3.5,2.4c5.4,0.6,10.8,1.4,16.2,2.1
		c2.9,0.4,4.8,1.9,5.7,4.7c0.9,2.7,0,5-2,6.9c-4,3.8-8.1,7.5-12.1,11.4c-0.8,0.8-1.3,2.4-1.1,3.5c0.8,5.1,1.9,10.1,2.9,15.2
		c0.6,3,0.5,5.8-2.2,7.8c-2.8,2.1-5.5,1.5-8.3-0.1c-4.4-2.5-8.9-4.9-13.3-7.4c-1.5-0.9-2.6-1-4.2-0.1c-4.5,2.7-9.1,5.2-13.8,7.6
		C225.9,77.9,224.5,78.3,223.9,78.5z"/>
	<path d="M187.5,58.9c-1.1,1.7-1.8,3.7-3.2,5.1c-3.8,3.9-8,7.4-11.8,11.2c-0.7,0.7-1.2,2.2-1.1,3.2c0.8,5.1,1.9,10.1,2.9,15.2
		c0.6,3.1,0.6,6.1-2.3,8.1c-2.8,2-5.6,1.3-8.4-0.3c-4.4-2.5-8.9-4.8-13.3-7.4c-1.6-0.9-2.7-0.8-4.2,0.1c-4.4,2.6-8.8,5-13.2,7.5
		c-2.7,1.5-5.4,2.2-8.1,0.2c-2.7-1.9-3.2-4.6-2.6-7.7c1.1-5.1,1.9-10.3,3-15.4c0.4-1.7-0.1-2.7-1.2-3.8c-3.9-3.6-7.8-7.3-11.7-11
		c-2.2-2-3.3-4.4-2.3-7.3c1-2.8,3.2-4.2,6.2-4.5c5.4-0.6,10.8-1.2,16.2-2.1c1-0.2,2.3-1.1,2.7-2c2.4-4.8,4.6-9.6,6.8-14.5
		c1.3-2.8,3.2-4.8,6.5-4.8c3.3,0,5,2,6.3,4.7c2.2,4.9,4.5,9.7,6.7,14.5c0.6,1.4,1.5,2,3,2.1c5.6,0.6,11.1,1.3,16.7,2.1
		C184.8,52.7,187.1,55.3,187.5,58.9z"/>
</g>
</svg>
