<svg version="1.1" id="Calque_1" xmlns="http://www.w3.org/2000/svg" xmlns:xlink="http://www.w3.org/1999/xlink" x="0px" y="0px"
     viewBox="0 0 358.2 384.1" style="enable-background:new 0 0 358.2 384.1;" xml:space="preserve">
    <g>
        <path d="M60,12.7c51.1,0,102.3,0,153.4,0c1.6,1.3,3.2,2.6,4.8,4c22.5,19.1,44.9,38.3,67.5,57.4c2.9,2.5,4.2,5.2,4.2,9
            c-0.1,39.7,0,79.4-0.1,119.1c0,2.4,0.6,3.8,2.8,4.9c3.8,1.8,7.4,4,11.1,5.9c13.4,7.3,26.8,14.7,40.3,21.7
            c7.7,4,11.3,10.2,10.9,18.7c-0.2,5.5-0.4,11-1.1,16.4c-3.6,25.5-14.1,48.2-29.2,68.8c-8.7,11.9-18.9,22.3-32,29.3
            c-3.5,1.9-7.9,3.3-11.9,3.3c-83.9,0.2-167.8,0.1-251.8,0.1c-15.5,0-25.6-10.1-25.6-25.6c0-89.6,0-179.3,0-268.9
            c0-15.6,10-25.6,25.5-25.7c3.6,0,7.1,0,10.9,0c0-5.3-0.2-10.1,0-14.9C40.1,27,44.4,20,52.5,15.6C54.9,14.3,57.5,13.6,60,12.7z
             M203.8,26.9c-1.3-0.1-2-0.1-2.7-0.1c-45.4,0-90.8,0-136.2,0c-7.3,0-11.1,4.1-11.1,11.8c0,89.4,0,178.9,0,268.3
            c0,8.2,3.8,11.9,12,11.9c10.6,0,21.2,0,31.9,0c4.3,0,7.2,2,7.9,5.5c1,4.8-2.2,8.6-7.4,8.6c-11.8,0.1-23.6,0-35.4-0.1
            c-1.4,0-2.8-0.2-4.2-0.5c-11.7-2.7-18.9-12.1-18.9-24.8c0-79.3,0-158.5,0-237.8c0-1.5,0-2.9,0-4.6c-3.8,0-7.2,0-10.6,0
            c-8,0-11.8,3.8-11.8,11.8c0,89.4,0,178.9,0,268.3c0,8.2,3.8,12,12,12c74.7,0,149.4,0,224.1,0c1.1,0,2.2-0.1,2.8-0.1
            c-6-7.2-12-14.3-17.8-21.6c-1.5-1.9-2.9-2.6-5.2-2.5c-23,0.1-46,0.1-69,0c-1.2,0-2.3,0-3.5-0.1c-3.3-0.4-5.8-2.9-6.2-6.1
            c-0.4-3.2,1.5-6.4,4.7-7.4c1.5-0.5,3.2-0.5,4.8-0.5c20,0,39.9,0,59.9,0c1.2,0,2.4-0.1,3.7-0.2c-0.1-0.6-0.1-0.8-0.2-1
            c-0.5-0.9-0.9-1.9-1.4-2.8c-9.7-19.2-15.6-39.4-15.7-61.1c0-9,3.5-15.2,11.6-19.4c17-8.8,33.7-18.1,50.5-27.1
            c2.4-1.3,3.3-2.6,3.2-5.4c-0.1-32.3-0.1-64.7-0.1-97c0-5.5,0-10.9,0-16.9c-1.6,0-3,0-4.4,0c-13.8,0-27.6,0.2-41.3-0.2
            c-12-0.4-22-8.7-25-20.4c-0.8-3.1-1.1-6.4-1.1-9.7C203.7,47.5,203.8,37.4,203.8,26.9z M340.9,254.9c1.2-4.2-1.5-6.7-5.9-9
            c-16.5-8.7-32.9-17.6-49.2-26.6c-2.2-1.2-3.8-1.3-6.1,0c-14.7,8.1-29.5,16-44.3,23.9c-12.3,6.6-12.1,6.6-10.5,20.5
            c2.7,24.4,12.4,45.9,26.6,65.7c7,9.7,15.4,18,25.4,24.8c4,2.7,7.1,2.9,11.2,0.1c13.5-9,23.7-21,32.1-34.6
            C332.3,300.2,340.1,279.2,340.9,254.9z M263.3,73.7c-15.4-13.1-30-25.6-45.1-38.5c0,9.5-0.3,18,0.1,26.5
            c0.3,6.5,5.8,11.8,12.1,11.9C241,73.9,251.6,73.7,263.3,73.7z" fill="currentColor"/>
        <path d="M164.7,188.8c-24,0-48.1,0-72.1,0c-1.3,0-2.6,0-3.8-0.1c-3.2-0.4-5.5-2.8-5.9-6c-0.4-3.3,1.3-6.4,4.5-7.4
            c1.5-0.5,3.2-0.6,4.8-0.6c48.3,0,96.6,0,144.9,0c1.7,0,3.5,0.1,5.2,0.7c3,1,4.6,4,4.3,7.3c-0.3,3.2-2.7,5.6-5.8,6
            c-1.1,0.2-2.3,0.1-3.5,0.1C213.1,188.8,188.9,188.8,164.7,188.8z" fill="currentColor"/>
        <path d="M164.7,104.2c23.6,0,47.1,0,70.7,0c0.9,0,1.9,0,2.8,0c5.2,0.1,8.3,2.6,8.4,6.9c0.1,4.4-3.1,7.3-8.4,7.3
            c-14.8,0.1-29.6,0-44.5,0c-33.7,0-67.4,0-101.2,0c-0.6,0-1.2,0-1.8,0c-5-0.2-8.2-3-8.1-7.3c0.1-4.1,3.1-6.9,8.1-6.9
            C115.5,104.1,140.1,104.2,164.7,104.2z" fill="currentColor"/>
        <path d="M133.1,82.9c-14.1,0-28.2,0-42.3,0c-4.1,0-6.7-1.7-7.7-4.8c-1.5-4.7,1.7-9.1,7-9.3c6.4-0.2,12.8-0.1,19.2-0.1
            c21.5,0,42.9,0,64.4,0c0.9,0,1.9,0,2.8,0.1c3.9,0.5,6.8,3.6,6.7,7.3c-0.1,3.8-3,6.7-7.1,6.7c-10.6,0.1-21.2,0.1-31.8,0.1
            C140.6,82.9,136.9,82.9,133.1,82.9z" fill="currentColor"/>
        <path d="M132.9,259.3c-14,0-28,0-42,0c-4.4,0-7.1-1.9-7.9-5.5c-1-4.7,2.2-8.6,7.5-8.6c13.4-0.1,26.8,0,40.3,0c14.8,0,29.6,0,44.5,0
            c5.9,0,9.5,4.8,7.3,9.7c-1.4,3.3-4.2,4.4-7.7,4.4C160.9,259.3,146.9,259.4,132.9,259.3C132.9,259.4,132.9,259.3,132.9,259.3z" fill="currentColor"/>
        <path d="M168.6,210c9.3,0,18.7-0.1,28,0c6,0.1,9.3,5.5,6.6,10.4c-1.4,2.6-3.8,3.7-6.7,3.7c-18.9,0-37.8,0.1-56.7,0
            c-4.7,0-7.8-3.2-7.6-7.3c0.1-4,3.1-6.7,7.7-6.8C149.5,210,159,210,168.6,210z" fill="currentColor"/>
        <path d="M115.7,139.4c8.2,0,16.3,0,24.5,0c5.2,0,8.2,2.6,8.2,7c0,4.4-3,7-8.2,7c-16.5,0-32.9,0-49.4,0c-4.9,0-8.2-2.9-8.1-7.2
            c0.1-4.1,3.2-6.8,8-6.9C99.1,139.4,107.4,139.4,115.7,139.4z" fill="currentColor"/>
        <path d="M215.1,153.5c-7.7,0-15.4,0-23.1,0c-5.1,0-8.2-2.7-8.1-7.1c0-4.4,3-7,8.2-7c15.4,0,30.8,0,46.2,0c5.2,0,8.3,2.6,8.3,6.9
            c0.1,4.5-3,7.2-8.4,7.2C230.5,153.5,222.8,153.5,215.1,153.5z" fill="currentColor"/>
        <path d="M96.8,210c2.4,0,4.9-0.1,7.3,0c3.9,0.2,6.6,3,6.9,6.6c0.2,3.5-2.4,7-6.2,7.2c-5.3,0.3-10.7,0.4-16.1,0
            c-3.8-0.3-6.2-3.7-5.9-7.4c0.3-3.6,2.8-6.2,6.6-6.4C91.9,209.9,94.3,210.1,96.8,210C96.8,210.1,96.8,210.1,96.8,210z" fill="currentColor"/>
        <path d="M137.2,325.8c0.1,4-2.9,7.1-6.9,7.1c-3.9,0-7.2-3.1-7.1-7c0-3.7,3.1-6.9,6.8-7C133.8,318.7,137.1,321.8,137.2,325.8z" fill="currentColor"/>
        <path d="M273.7,288.2c8.2-7.6,16-14.9,23.9-22.2c0.9-0.9,1.8-1.9,2.8-2.6c2.8-2.1,6.5-1.8,9,0.6c2.5,2.4,2.9,6,1,8.9
            c-0.6,0.9-1.3,1.6-2,2.4c-8.9,9.2-17.9,18.4-26.9,27.6c-4.5,4.6-7.9,4.7-12.6,0.2c-4.1-3.8-8.2-7.6-12.2-11.5
            c-3.3-3.1-3.6-7.3-1-10.3c2.8-3.1,7-3.2,10.5,0C269,283.8,271.8,286.5,273.7,288.2z" fill="currentColor"/>
    </g>
</svg>
