<?xml version="1.0" encoding="utf-8"?>
<!-- Generator: Adobe Illustrator 22.0.0, SVG Export Plug-In . SVG Version: 6.00 Build 0)  -->
<svg version="1.1" id="Calque_1" xmlns="http://www.w3.org/2000/svg" xmlns:xlink="http://www.w3.org/1999/xlink" x="0px" y="0px"
	 viewBox="0 0 500 500" style="enable-background:new 0 0 500 500;" xml:space="preserve">
<style type="text/css">
	.st0{fill:#EF7126;}
	.st1{fill:#085192;}
</style>
<g>
	<path class="st0" d="M303.3,492c-1.1-1.3-2-2.7-3.2-3.9c-31.5-30-63-60-94.5-90c-1.1-1.1-2.5-1.9-4-3.1
		c9.2-9.6,17.7-18.6,26.5-27.9c24.7,23.5,49.2,46.8,74.1,70.5c43.8-48.7,87.3-97.2,131.2-146c9.4,8.4,18.6,16.6,28.2,25.3
		c-5.2,5.9-10.3,11.6-15.4,17.3c-45.9,51.1-91.8,102.2-137.7,153.3c-1.2,1.4-2.2,3-3.2,4.5C304.5,492,303.9,492,303.3,492z"/>
	<path class="st1" d="M364.1,311.9c0-2.7,0-4.5,0-6.3c0-66.5,0-133-0.1-199.5c0-4.1-0.6-8.6-2.2-12.3c-2.4-5.9-7.7-9.6-14-9.9
		c-10.6-0.5-21.3-0.1-32.5-0.1c0,24.8,0,49.3,0,74.1c-63.1,0-125.7,0-189,0c0-24.6,0-49.2,0-74.1c-11.8,0-22.9-0.6-34,0.2
		C83.5,84.4,77.2,92,76.3,101c-0.1,1.1-0.1,2.2-0.1,3.3c0,109.4,0,218.8,0,328.2c0,10.6,5.1,18,14.2,20.3c2.5,0.6,5.3,0.6,8,0.6
		c35.3,0,70.6,0.1,105.9-0.1c3.4,0,5.8,1,8.3,3.4c11.6,11.3,23.4,22.4,35.7,34.2c-1.8,0.2-2.9,0.5-4,0.5c-49.2,0-98.4,0.2-147.5,0
		c-28.4-0.1-50.2-17-56.7-43.5c-1-4.2-1.5-8.7-1.5-13.1c-0.1-110.8-0.1-221.6,0-332.4c0-31.5,24.6-56.4,56.2-56.7
		c22.7-0.2,45.4-0.1,68.1,0c3.3,0,4.9-0.9,6.3-4C179.4,19.8,196.8,7.9,221,8c23.9,0.1,41.2,12,51.5,33.6c1.4,2.9,2.9,4.1,6.2,4.1
		c22.1-0.2,44.1-0.2,66.2-0.1c28,0.2,50.2,18.1,56.1,45.5c1,4.6,1.3,9.4,1.3,14.1c0.1,53.4,0.1,106.9,0,160.3c0,2.3-0.7,5.2-2.1,6.8
		c-11,12.6-22.2,24.9-33.4,37.3C366.2,310.2,365.5,310.6,364.1,311.9z M239.5,83.4c0-6.9,0.4-13.2-0.1-19.4
		c-0.8-11.1-9.3-18.9-19.5-18.3c-10.5,0.6-17.8,8.7-17.9,19.9c0,5.8,0,11.6,0,17.9c-12.9,0-25.2,0-37.5,0c0,12.5,0,24.4,0,36.5
		c37.6,0,74.9,0,112.5,0c0-12.2,0-24.2,0-36.6C264.6,83.4,252.5,83.4,239.5,83.4z"/>
	<path class="st1" d="M326.5,271.5c0,12.5,0,24.8,0,37.4c-45.2,0-90.3,0-135.7,0c0-12.4,0-24.8,0-37.4
		C236.1,271.5,281.2,271.5,326.5,271.5z"/>
	<path class="st1" d="M189.8,233.4c0-12.6,0-24.8,0-37.3c45.5,0,90.8,0,136.5,0c0,12.4,0,24.7,0,37.3
		C280.9,233.4,235.6,233.4,189.8,233.4z"/>
	<path class="st1" d="M114.5,271.4c12.6,0,25.2,0,38,0c0,12.5,0,24.9,0,37.5c-12.6,0-25.1,0-38,0
		C114.5,296.7,114.5,284.3,114.5,271.4z"/>
	<path class="st1" d="M114.3,346.9c12.5,0,24.7,0,37.2,0c0,12.5,0,24.9,0,37.6c-12.4,0-24.7,0-37.2,0
		C114.3,371.9,114.3,359.5,114.3,346.9z"/>
	<path class="st1" d="M114.5,196c12.4,0,24.6,0,37.1,0c0,12.5,0,24.8,0,37.4c-12.3,0-24.5,0-37.1,0
		C114.5,221.2,114.5,208.9,114.5,196z"/>
</g>
</svg>
