<?xml version="1.0" encoding="utf-8"?>
<!-- Generator: Adobe Illustrator 22.0.0, SVG Export Plug-In . SVG Version: 6.00 Build 0)  -->
<svg version="1.1" id="Calque_1" xmlns="http://www.w3.org/2000/svg" xmlns:xlink="http://www.w3.org/1999/xlink" x="0px" y="0px"
	 viewBox="0 0 431.9 418.1" style="enable-background:new 0 0 431.9 418.1;" xml:space="preserve">
<g>
	<path d="M422,239.2c-13.6,3.8-27.2,7.6-40.8,11.3c-42.2,11.6-84.4,23.2-126.6,34.8c-13.8,3.8-27.6,7.6-41.5,11.4
		c-0.6,0.2-1.2,0.3-2.1,0.5c-9.1-28.3-18.1-56.6-27.3-85.2c70.6-20.1,141.1-40.1,211.9-60.1c0.3,1,0.6,1.7,0.8,2.5
		c8.1,26.9,16.1,53.7,24.2,80.6c0.3,1.1,0.9,2.2,1.3,3.3C422,238.6,422,238.9,422,239.2z" fill="currentColor"/>
	<path d="M60.7,15.3c0,1.8,0.2,3.5,0.1,5.3c-0.1,1.8,0.8,1.9,2.2,1.9c9.7,0,19.4,0,29.1,0c5.9,0,11.8,0.1,17.6-0.1
		c2-0.1,2.4,0.9,2.7,2.4c6.5,25.8,13.1,51.6,19.6,77.4c14.5,57,29,114.1,43.4,171.1c0.7,2.9,0.7,2.9-2.2,3.9
		c-6.8,2.3-13.5,4.6-20.6,7.1c-0.3-0.9-0.6-1.7-0.8-2.5c-19.8-76.8-39.5-153.6-59.3-230.4c-0.7-2.6-1.3-5.2-2.1-7.7
		c-0.2-0.6-1-1.4-1.6-1.4c-8.8-0.1-17.5-0.1-26.6-0.1c-0.1,1.2-0.4,2.8-0.4,4.3c0.1,2.1-1,2.1-2.6,2.1c-15.3-0.3-30.7-0.6-46-0.9
		c-1.2,0-2.4,0-3.7,0c0-10.8,0-21.6,0-32.5C26.8,15.3,43.8,15.3,60.7,15.3z" fill="currentColor"/>
	<path d="M422,294.1c-14.9,4-29.7,8-44.6,12c-42.6,11.5-85.2,23.1-127.8,34.6c-0.6,0.2-1.2,0.3-2,0.4c-2.1-7.8-4.2-15.6-6.4-23.6
		c57.9-15.8,115.5-31.4,173.3-47.2c1.8,5.8,3.6,11.3,5.4,16.8c0.7,2,1.4,4,2.1,6C422,293.5,422,293.8,422,294.1z" fill="currentColor"/>
	<path d="M182.7,195.2c-8.1-29.8-16.1-59.2-24.2-89c46.7-13.1,93.3-26.1,140.1-39.2c1.6,5.6,3.1,11,4.6,16.4
		c6.7,23.9,13.3,47.7,20,71.6c0.4,1.5,0.4,2.3-1.4,2.8c-43.8,11.8-87.6,23.6-131.4,35.4C188,193.9,185.5,194.5,182.7,195.2z" fill="currentColor"/>
	<path d="M234.3,345.3c-0.3,13.7-3.1,25.6-10.7,36.1c-9.7,13.4-23.3,20.7-39.5,21.4c-15.8,0.7-30.4-3.8-41-16.9
		c-5.5-6.8-8.4-14.6-9.6-23.2c-1.4-10.1-1.4-20.3,0.7-30.3c4-18.5,15.8-29.9,33.3-36c3.9-1.4,8.1-2.3,12.2-3
		c2.5-0.4,5.2-0.3,7.7,0.3c11.9,2.7,22.8,7.4,31.6,16C229.3,319.7,234,332.1,234.3,345.3z M158.6,349.9c-0.2,0-0.4,0.1-0.6,0.1
		c0.9,3.8,1.3,7.9,2.8,11.4c4.2,9.5,12.5,12.6,22.2,13c8.6,0.3,14.4-3.7,17.4-11.7c2.1-5.7,2.6-11.6,1.9-17.6
		c-0.6-5.2-2.1-10-5.6-14c-3.5-4-7.9-7.2-13.2-6.9C164.7,325.1,158.2,337.9,158.6,349.9z" fill="currentColor"/>
</g>
</svg>
