<svg width="29" height="34" viewBox="0 0 29 34" fill="none" xmlns="http://www.w3.org/2000/svg">
<path d="M21.5986 16.438C23.4745 17.5677 25.0435 18.9713 26.2714 20.7172C28.0791 23.2848 28.9318 26.1604 29 29.2757C29 29.9604 29 30.6793 29 31.364C28.9659 33.0414 28.0109 34 26.3396 34C19.7226 34 13.1056 34 6.48869 34C5.19258 34 3.93059 34 2.63448 34C0.997294 34 0.0422703 33.0415 0.00816224 31.4325C-0.0259458 29.0361 0.0081618 26.6055 0.894971 24.3118C2.05464 21.1965 3.9988 18.7316 6.79566 16.9515C7.03442 16.7803 7.27318 16.6091 7.51193 16.4722C3.18021 11.6452 4.64685 5.62004 8.12588 2.50475C11.7413 -0.747478 17.0963 -0.85018 20.78 2.29935C24.1908 5.175 25.9985 11.2344 21.5986 16.438ZM24.2249 29.1388C24.0202 25.373 22.4854 22.4632 19.2451 20.6488C15.8684 18.7317 12.4235 18.9371 9.21733 21.0938C6.42047 22.9767 4.98794 25.6811 4.8515 29.1388C11.332 29.1388 17.7102 29.1388 24.2249 29.1388ZM14.6064 14.5551C17.1986 14.5551 19.3815 12.3984 19.4156 9.76235C19.4497 7.0921 17.1986 4.76419 14.6064 4.76419C12.0142 4.76419 9.69485 7.0921 9.66074 9.69388C9.62663 12.2614 11.9119 14.5551 14.6064 14.5551Z" fill="#1A3764"/>
</svg>
