<?xml version="1.0" encoding="utf-8"?>
<!-- Generator: Adobe Illustrator 22.0.0, SVG Export Plug-In . SVG Version: 6.00 Build 0)  -->
<svg version="1.1" id="Calque_1" xmlns="http://www.w3.org/2000/svg" xmlns:xlink="http://www.w3.org/1999/xlink" x="0px" y="0px"
	 viewBox="0 0 866 836" style="enable-background:new 0 0 866 836;" xml:space="preserve">
<g>
	<path d="M427.1,16.6c3.9,0,7.8,0,11.8,0c2.4,1.4,4.7,3.1,7.2,4.2C570.3,75,694.5,129.1,818.9,183c11.4,4.9,16.2,11.4,16.2,24.4
		c-0.4,141.1-0.4,282.3-0.1,423.4c0,11.8-4.5,18.6-15.2,23.3c-124.4,53.9-248.6,107.9-372.8,162.2c-9.3,4.1-17.4,4.4-27,0.2
		C296.2,762.3,172.4,708.7,48.8,654.6c-6.5-2.8-11.9-8.2-17.8-12.4c0-149,0-298.1,0-447.1c5.4-4,10.2-9.1,16.1-11.7
		C162.9,132.8,278.9,82.5,394.8,32C405.7,27.2,416.3,21.8,427.1,16.6z M450.1,777.1c3.8-1.4,6.2-2.2,8.5-3.2
		c111.5-48.5,223-97,334.7-145.2c7-3,7.8-7.2,7.8-13.5C801,489.7,801,364.3,801,238.8c0-3.4-0.3-6.8-0.5-11.1c-3.7,1.3-6.2,2-8.5,3
		c-27.5,11.9-54.9,24.1-82.5,35.8c-6.2,2.6-8.7,5.7-8.6,12.8c0.4,39.2,0.1,78.4,0.3,117.6c0,10.7-3.8,17.7-14.1,22.1
		c-31.2,13.2-62.2,27-93.3,40.4c-16,6.9-27.2-0.6-27.3-18.2c-0.1-19.6,0-39.2,0-58.8c0-17.2,0-34.5,0-53.2
		c-4.2,1.6-7.2,2.7-10.1,3.9c-32.3,14-64.4,28.5-96.9,41.9c-7.9,3.3-9.6,7.6-9.6,15.3c0.2,125.1,0.1,250.3,0.1,375.4
		C450.1,769,450.1,772.3,450.1,777.1z M64.8,226.8c0,5.6,0,9,0,12.5c0,125.1,0.1,250.2-0.2,375.4c0,7.6,1.9,11.3,9.3,14.5
		c106.8,46.1,213.4,92.6,320.1,139c6.8,3,13.6,5.9,21.8,9.4c0-4.7,0-7.8,0-11c0-125.8-0.1-251.5,0.2-377.3c0-7.3-2.1-10.8-8.9-13.8
		c-83.2-35.8-166.3-72-249.4-108.1C127.5,254.1,97.4,240.9,64.8,226.8z M539.5,303.7c-2.9-1.6-4.2-2.4-5.6-3.1
		c-110-47.8-219.9-95.7-330-143.3c-3.6-1.5-9-1.3-12.7,0.3c-30.9,13-61.7,26.4-92.4,39.8c-2.1,0.9-4,2.4-7,4.2
		c113.1,49.2,224.8,97.8,336.6,146.2c2.6,1.1,6.5,1.2,9,0.1C471,333.6,504.4,319,539.5,303.7z M341.4,92.1c3.8,1.9,6.7,3.5,9.6,4.8
		c100.6,43.8,201.6,86.9,301.7,131.9c21.8,9.8,40.5,13,60.7-0.5c2.4-1.6,5.3-2.4,8-3.6c17.2-7.5,34.4-15,53.7-23.5
		c-11.2-4.9-20.3-8.9-29.4-12.9C644.5,144.2,543.3,100.1,442,56.1c-3.9-1.7-9.3-3.4-12.7-2C400.2,66.2,371.3,79,341.4,92.1z
		 M639.8,260c-2.8-1.6-3.8-2.3-4.9-2.8C524.3,209,413.7,160.9,303.1,112.9c-2-0.8-4.7-1.8-6.4-1.1c-18.1,7.6-36,15.5-55.3,23.8
		c2.6,1.6,3.6,2.4,4.7,2.9c110.6,48.1,221.1,96.2,331.7,144.2c2.6,1.1,6.6,1.4,9.2,0.3C604.1,275.8,621,268.2,639.8,260z
		 M600.5,419.5c21.8-9.4,41.9-17.8,61.6-26.8c2.3-1.1,4.4-5.4,4.5-8.3c0.5-14.3,0.2-28.7,0.2-43.1c0-18.2,0-36.4,0-56.1
		c-21.9,9.5-42.5,18.4-62.9,27.6c-1.7,0.8-3.3,4-3.3,6.1C600.4,351.8,600.5,384.7,600.5,419.5z" fill="currentColor"/>
	<path d="M332.8,551.6c0,32,0.1,64,0,96.1c0,18.3-10.9,25.6-27.5,18.3c-53.5-23.3-106.9-46.7-160.5-69.9c-9.3-4-13.5-10.5-13.5-20.4
		c0.1-64.4,0-128.7,0.1-193.1c0-17.7,11.3-25.1,27.3-18.2c53.5,23.3,106.9,46.7,160.4,69.9c9.6,4.2,13.9,10.6,13.8,21.2
		C332.6,487.5,332.8,519.6,332.8,551.6z M166.5,404.7c-0.4,2.4-0.8,3.3-0.8,4.3c0,51,0.1,102-0.2,152.9c0,6,3.1,7.7,7.6,9.6
		c33.5,14.5,67,29.1,100.4,43.6c8,3.5,15.9,6.9,24.2,10.5c0.7-2,1.3-2.8,1.3-3.7c0.1-51.3,0.2-102.6-0.2-153.9
		c0-2.8-3.4-6.8-6.2-8.2c-9.9-5-20.2-9.1-30.4-13.5C230.6,432.7,199,418.9,166.5,404.7z" fill="currentColor"/>
	<path d="M182,500.4c0-14.4-0.1-28.7,0-43.1c0.1-15.3,10.9-22.8,24.9-16.9c21.3,8.9,42.4,18.4,63.6,27.5c8.1,3.5,11.9,9.4,11.9,18.3
		c-0.2,29,0.1,58.1-0.1,87.1c-0.1,15.7-11.2,22.8-25.8,16.6c-21-8.9-41.7-18.3-62.6-27.3c-8.1-3.5-12.1-9.1-11.9-18.2
		C182.2,529.7,182,515.1,182,500.4z M248.7,549.6c0-17.9,0.1-34.4-0.2-50.9c0-1.7-1.9-4.1-3.6-4.9c-9.4-4.3-18.9-8.2-29.6-12.8
		c0,17.4-0.1,33.6,0.1,49.7c0,1.9,1.3,4.7,2.7,5.4C227.8,540.7,237.6,544.8,248.7,549.6z" fill="currentColor"/>
</g>
</svg>
