<?xml version="1.0" encoding="utf-8"?>
<!-- Generator: Adobe Illustrator 22.0.0, SVG Export Plug-In . SVG Version: 6.00 Build 0)  -->
<svg version="1.1" id="Calque_1" xmlns="http://www.w3.org/2000/svg" xmlns:xlink="http://www.w3.org/1999/xlink" x="0px" y="0px"
	 viewBox="0 0 670 764" style="enable-background:new 0 0 670 764;" xml:space="preserve">
<g>
	<path d="M202.7,454.1c0-40.7,0-81.4,0-122.1c0-41.9-0.1-83.8,0-125.7c0-19.2,9.1-32.8,26.5-40.5c4.5-2,9.8-3.2,14.7-3.2
		c121.9-0.2,243.7-0.2,365.6-0.1c16.9,0,33.6,12.3,38,27.9c1.6,5.6,2.9,11.4,2.9,17.1c0.2,79.3,0.1,158.6,0.1,237.9
		c0,68.8,0,137.7,0,206.5c0,2.4-0.3,4.1-2.5,5.8c-38.4,28.8-76.6,57.8-115,86.6c-1.6,1.2-3.8,1.9-5.8,1.9
		c-54.7,0.1-109.5,0.1-164.2,0.1c-39.1,0-78.2-0.3-117.3,0.1c-24,0.2-43.5-20.1-43.3-42.6c0.3-21.7,0.2-43.5,0.2-65.3
		c0-61.5,0-123,0-184.6C202.9,454.1,202.8,454.1,202.7,454.1z M523.4,725c2.6-33.1,5.2-65.9,7.8-98.8c33,6.6,65.3,13.1,97.9,19.7
		c0-2.2,0-3.8,0-5.4c0-57.4,0-114.7,0-172.1c0-87.2-0.2-174.3,0.1-261.5c0-11.5-8.8-23.1-22.9-23.1c-119.8,0.2-239.7,0.1-359.5,0.1
		c-13.7,0-22.8,9.1-22.9,22.8c-0.1,34.4,0,68.8,0,103.3c0,107.7,0,215.4,0,323.1c0,23-0.1,45.9,0,68.9c0,13.8,8.9,23,22.2,23
		c44.4,0.1,88.9,0.2,133.3,0.2c46,0,92.1-0.1,138.1-0.1C519.3,725,521,725,523.4,725z" fill="currentColor"/>
	<path d="M170.7,599.1c0,7.1,0,13.7,0,20.8c-6.4,0-12.8,0-19.2,0c-33.8,0-67.5,0-101.3,0c-17.8,0-30.6-12.7-30.6-30.4
		c0-46,0.2-92,0.2-138.1c0-83.3-0.1-166.6-0.2-249.9c0-50,0.5-100.1-0.2-150.1c-0.3-20.4,14.2-34.3,34-34.1
		c59.8,0.6,119.6,0.3,179.4,0.3c69.3,0,138.6-0.1,207.8-0.1c18,0,30.9,13.1,30.9,31.1c-0.1,25,0,49.9,0,74.9c0,1.6,0,3.2,0,5.1
		c-6.6,0-13.1,0-20,0c0-1.6,0-3,0-4.4c0.1-18.3,0.1-36.5,0.3-54.8c0.1-17.6-13.3-30.9-31.3-30.9c-63.4,0-126.8,0-190.2,0
		c-51.8,0-103.6,0-155.4,0C54.4,38.5,42,51,42,71.5c0,31.8,0,63.5,0,95.3c0,100.5,0,201,0,301.5c0,33,0,65.9,0,98.9
		c0,19.4,12.6,32,32.1,32C106.1,599.1,138.1,599.1,170.7,599.1z" fill="currentColor"/>
	<path d="M161.4,115.5c-23.2,0-46.4-0.2-69.6,0.1c-10.7,0.2-14.9-6.5-14.3-14.4c0.3-3.7-0.1-7.5,0.1-11.2
		c0.3-7.5,4.6-11.9,12.1-11.9C124.3,78,159,78,193.7,78c12.8,0,25.6,0,38.4-0.1c8.8,0,13.1,4.3,13.2,13.2c0,4,0.2,8,0.1,12
		c-0.1,8.1-4.4,12.4-12.8,12.4C208.9,115.6,185.1,115.6,161.4,115.5C161.4,115.5,161.4,115.5,161.4,115.5z" fill="currentColor"/>
	<path d="M170.8,251.8c0,12.4,0,24.5,0,37c-1.2,0.1-2.3,0.3-3.5,0.3c-25.6,0-51.2,0-76.8,0c-7.9,0-12.7-4.6-13-12.5
		c-0.1-4.4-0.1-8.8,0-13.2c0.3-7.1,4.6-11.8,11.4-11.9c26.8-0.1,53.6,0,80.4,0C169.6,251.5,170,251.7,170.8,251.8z" fill="currentColor"/>
	<path d="M170.9,179.5c0,12.5,0,24.6,0,37.2c-1.6,0.1-3,0.2-4.4,0.2c-24.8,0-49.6,0-74.4,0c-10.3,0-14.6-4.3-14.6-14.6
		c0-3.7-0.1-7.5,0-11.2c0.3-7.1,4.7-11.8,11.4-11.8c26.8-0.1,53.6,0,80.4,0C169.8,179.3,170.3,179.4,170.9,179.5z" fill="currentColor"/>
	<path d="M170.7,319.7c0,12.5,0,24.6,0,36.9c-1.7,0.1-3.3,0.3-4.8,0.3c-24.9,0-49.9,0-74.8,0c-9,0-13.5-4.4-13.6-13.5
		c0-4-0.1-8,0-12c0.2-7.2,4.7-12,11.7-12c26.4-0.1,52.8,0,79.2,0C169,319.5,169.7,319.6,170.7,319.7z" fill="currentColor"/>
	<path d="M422,430.6c-41.1,0-82.1,0-123.2,0c-7.7,0-15.4,0.2-23.2,0.2c-8.5,0-14-5.4-14.1-14c-0.1-5.6-0.1-11.2,0-16.8
		c0.2-8.4,5.5-13.8,13.9-13.8c47-0.1,93.9,0,140.9,0c40.3,0,80.6,0,120.9,0c10.4,0,20.8,0,31.1,0c9.4,0,14.3,5,14.4,14.2
		c0,5.6,0,11.2,0,16.8c-0.1,8.6-5.2,13.6-14.2,13.6c-48.8,0-97.7,0-146.5,0C422,430.7,422,430.6,422,430.6z" fill="currentColor"/>
	<path d="M422.4,306c48.6,0,97.2,0,145.8,0c9.8,0,14.5,4.7,14.5,14.4c0,5.5,0,10.9,0,16.4c-0.1,8.7-5.1,13.7-14.1,13.7
		c-24.2-0.1-48.3-0.3-72.5-0.3c-72.5,0-144.9,0.2-217.4,0.2c-3.1,0-6.5-0.1-9.4-1.2c-5.2-2-7.7-6.5-7.8-12c-0.2-6-0.1-12,0-18
		c0.2-8,5.8-13.3,13.9-13.3C324.4,306,373.4,306,422.4,306z" fill="currentColor"/>
	<path d="M422.4,458.1c48.6,0,97.2,0.2,145.8-0.1c8.7-0.1,15.3,6.2,14.6,14.5c-0.4,4.8-0.4,9.6,0,14.4c0.8,9-4.4,15.9-15.8,15.7
		c-33.1-0.4-66.2-0.1-99.3-0.1c-31,0-61.9,0-92.9,0c-32.9,0-65.9,0-98.8,0c-9.1,0-14.4-5.2-14.4-14.3c0-5.3,0-10.7,0-16
		c0.1-8.7,5.4-13.9,14-13.9C324.5,458.1,373.4,458.1,422.4,458.1C422.4,458.1,422.4,458.1,422.4,458.1z" fill="currentColor"/>
	<path d="M355.5,225.7c26.1,0,52.3,0.3,78.4-0.1c9.3-0.1,15.9,6.2,15.1,15.3c-0.5,5.4,0,10.9-0.1,16.4c-0.1,7.4-5.1,12.6-12.5,12.7
		c-11.9,0.2-23.8,0.1-35.6,0.1c-41.1,0-82.2,0-123.3,0c-11.2,0-15.7-4.4-15.9-15.6c-0.1-5.1-0.1-10.1,0-15.2
		c0.1-8.1,5.5-13.5,13.6-13.5C301.9,225.7,328.7,225.8,355.5,225.7C355.5,225.8,355.5,225.7,355.5,225.7z" fill="currentColor"/>
</g>
</svg>
