<svg version="1.1" id="Calque_1" xmlns="http://www.w3.org/2000/svg" xmlns:xlink="http://www.w3.org/1999/xlink" x="0px" y="0px"
     viewBox="0 0 679.3 673.3" style="enable-background:new 0 0 679.3 673.3;" xml:space="preserve">
    <g>
	<path d="M165.8,122c25-1.5,49.5,2.6,73.6-3.8c15.5-4.2,29.2-11.8,40.7-23c24.4-23.8,53.3-35.7,87.6-34.8
		c20.9,0.5,17.7-3,27.8,17c4,7.9,6.4,18.7,12.9,22.8c6.3,4,16.9,1.1,25.6,1.1c27.1,0,54.1-0.6,81.2,0.2c15.4,0.5,31,2.1,46.2,5.2
		c28,5.6,40.1,39.8,23,63.2c-1.4,1.9-2.9,3.7-4.8,6c8.7,7.9,13.6,17.7,13.9,29.5c0.3,12-4.6,21.9-13,30.7c8.7,8,13.6,17.7,13.9,29.7
		c0.3,12.1-4.7,21.8-12.8,30.6c9.2,8.6,14.2,18.9,13.9,31.7c-0.5,19.5-18.5,38.5-38,38.9c-20.7,0.4-41.3,0.2-62,0.1
		c-6.7,0-10.5-3.9-10.5-10.2c0-6.2,3.8-10.1,10.5-10.2c19.6-0.1,39.2,0.1,58.8-0.2c10.2-0.1,19.4-8.7,20.5-18.5
		c1-8.5-5.8-17.8-15.1-20.4c-1.8-0.5-3.8-0.5-5.7-0.7c-6.1-0.7-9.5-4.1-9.7-9.8c-0.2-6.2,2.8-9.9,9.3-10.6
		c7.6-0.9,13.7-3.5,17.8-10.5c7.8-13.5-0.1-29-15.8-30.3c-8-0.7-11.6-4-11.4-10.7c0.2-6.1,3.4-9.3,9.5-9.9
		c7.1-0.7,13.1-3.1,17.1-9.6c8.7-13.9,0.9-29.9-15.5-31.2c-4.9-0.4-8.8-1.9-10.6-6.7c-2.5-6.7,1.4-13.1,8.7-13.8
		c8.2-0.8,14.5-4,18.5-11.6c6.6-12.3-0.5-28.2-14.4-28.9c-21.2-1.1-42.5-0.3-64.5-0.3c0,1.3,0,3.6,0,5.8c0,27.9,0,55.8,0,83.7
		c0,8-4.7,12.2-11.9,11.2c-5.5-0.7-8.5-4.7-8.5-11.5c0-27.7,0-55.4,0-83.1c0-2.3,0-4.6,0-7.2c-6.8,0-13.1,0-20.5,0
		c0,9.7-0.1,19.6,0,29.5c0.1,5.3-2,9.2-7.2,10.7c-6.9,2-13-2.4-13.2-9.7c-0.2-10-0.1-20-0.1-30.9c-9.3,0-18.1-0.4-27,0.1
		c-7.3,0.4-11.5-2.9-14.5-9c-4.4-9.2-9.2-18.2-13.6-27.4c-1.6-3.3-3.5-4.5-7.3-4.6c-29.1-0.7-54,8.7-75.2,29.1
		c-22.4,21.6-49.5,32.5-80.8,32.4c-15.5-0.1-31.1,0-47.1,0c0,61.6,0,123,0,184.9c2.2,0.1,4.3,0.3,6.3,0.3c17.7,0,35.4,0.7,53-0.2
		c25.8-1.3,50.3,3.9,74.3,12.7c13.5,5,27.5,7.1,41.9,6.9c18.7-0.2,37.5,0,56.2,0c8.4,0,12.2,3.4,12,10.5c-0.1,6.8-3.9,9.9-12,9.9
		c-16,0-32-0.6-47.9,0.1c-24,1.1-47.1-2.1-69.4-10.8c-18.1-7-36.9-9.3-56.3-8.7c-17.2,0.6-34.5,0.1-51.8,0.1c-2.1,0-4.2,0-6.9,0
		c0,3.9,0.1,7.3,0,10.6c-0.4,15.9-13.1,28.9-29,29c-28.3,0.2-56.7,0.3-85,0.1c-15.8-0.1-28.7-13.2-29-29c-0.2-8.3-0.1-16.6,0-24.9
		c0.1-6.7,4-10.5,10.2-10.5c6.2,0,10,3.9,10.1,10.6c0.1,7,0,14.1,0.1,21.1c0.1,8.8,3.6,12.3,12.5,12.3c25.4,0.1,50.7,0,76.1,0
		c10.5,0,13.7-3.2,13.7-13.8c0-75.4,0-150.8,0-226.3c0-4.9,0.1-9.8,0-14.7c-0.3-7.4-3.7-11.1-11.1-11.2c-26.6-0.1-53.3-0.1-79.9,0
		c-8.3,0-11.3,3.9-11.3,13.5c0,58.4,0,116.8,0,175.1c0,1.7,0,3.4,0,5.1c-0.1,7.7-3.7,11.9-10.2,12c-6.5,0.1-10.3-4.1-10.3-11.8
		c0-37.3,0-74.6,0-111.9c0-23.6,0-47.3,0-70.9c0-19.1,12.5-31.6,31.6-31.6c26.2-0.1,52.4-0.1,78.6-0.1c20.7,0,32.9,12.1,32.9,32.9
		C165.8,116.1,165.8,118.4,165.8,122z" fill="currentColor"/>
        <path d="M290.9,633.2c3.3,0,5.8,0,8.3,0c87.7,0,175.5,0,263.2,0c8.2,0,12.1,3,12.5,9.5c0.3,6.8-3.6,10.9-11,10.9
		c-23.9,0.1-47.7,0.1-71.6,0.1c-70.3,0-140.6-0.2-210.8,0.1c-10.9,0-14.9-5.6-13-16.4c5.8-32,12.2-63.8,16.8-96
		c2.6-18,2.3-36.5,3.2-54.8c0.4-8,4.1-12.2,10.8-12c6.5,0.2,9.8,4.2,9.6,12.3c-1.1,47.8-6.9,95-17.3,141.6
		C291.5,629.8,291.3,631,290.9,633.2z" fill="currentColor"/>
        <path d="M473.1,591.4c-2.1,8.1,3.9,19.8-10.4,21.2c-5.4,0.5-9.3-2.3-10.2-7.6c-0.7-4.3-0.1-8.9-0.1-13.4
		c-19.4-5.4-32.9-16.7-38.8-35.7c-1.4-4.4-1.9-9.2-2.1-13.8c-0.3-7,3.3-10.9,9.4-11.2c6.6-0.3,10.4,3.2,10.9,10.4
		c1.2,15.2,9.4,26,22.4,29.2c12.5,3.1,23.4,0.2,31.7-9.7c8.1-9.7,9.3-20.9,4.4-32.3c-5-11.7-14.7-17.6-27.2-17.9
		c-11.4-0.3-21.9-3.1-31.1-9.9c-16.2-12-22.8-28.6-20.3-48.1c2.7-20.3,14.7-33.9,33.7-41.5c2-0.8,4-1.3,6.8-2.2
		c0-3.7-0.2-7.7,0-11.7c0.3-5.9,4.1-9.4,9.9-9.5c6.1-0.1,10.1,3.4,10.4,9.6c0.2,3.8,0,7.6,0,11.6c19.4,5.2,32.7,16.6,38.7,35.7
		c1.4,4.4,1.9,9.2,2.1,13.8c0.3,6.9-3.3,10.9-9.4,11.2c-6.6,0.3-10.4-3.2-10.9-10.4c-1.2-15.2-9.4-25.9-22.4-29.2
		c-12.5-3.1-23.4-0.2-31.7,9.7c-8.1,9.7-9.4,20.9-4.4,32.3c5.1,11.7,14.7,17.6,27.2,17.9c12.1,0.3,23.2,3.4,32.6,11
		c15.4,12.5,21.6,29,18.5,48.2c-3.2,19.9-15.2,33.3-34,40.4C477.1,590.2,475.2,590.7,473.1,591.4z" fill="currentColor"/>
        <path d="M634.4,632.8c-3.3-18.2-7.5-36.2-9.7-54.5c-3.3-27-5.3-54.1-7.5-81.2c-1-12.3-0.6-24.7-2.3-36.9
		c-3.5-24.6-15.6-45.1-33.1-62.6c-7.4-7.4-8.5-12.5-3.6-17.4c5.3-5.3,10.8-4.5,18,2.9c25.8,26.4,39.7,57.9,40,95
		c0.5,53.4,7,106,19.5,157.9c3,12.5-1,17.6-13.8,17.6c-6.8,0-13.6,0-20.4,0c-7.8-0.1-11.9-3.6-12-10.1c-0.1-6.6,4.1-10.3,11.7-10.4
		c4,0,8.1,0,12.1-0.1C633.8,633.1,634.2,632.9,634.4,632.8z" fill="currentColor"/>
        <path d="M463.6,19.5c25.1,0,50.3,0,75.4,0c21.1,0,32.1,17.1,23.5,36.2c-2.7,6-5.5,12-8.4,17.9c-3.3,6.7-8.5,9-13.9,6.5
		c-5.7-2.7-7.5-8.5-4.6-15.1c2.3-5,4.8-10,7.1-15c3.5-7.6,1.9-10-6.5-10c-50.3,0-100.6,0-150.9,0c-9.5,0-14.4-6.4-11.3-14.3
		c2-4.9,5.9-6.1,10.8-6.1C411.2,19.6,437.4,19.5,463.6,19.5C463.6,19.5,463.6,19.5,463.6,19.5z" fill="currentColor"/>
        <path d="M84,142.2c0,17.1,0,33,0,49c0,8.5-3.3,12.4-10.2,12.4c-6.9,0-10.2-3.9-10.2-12.4c0-16.2-0.1-32.4,0-48.5
		c0.1-12.5,8.3-20.7,20.8-20.9c9.8-0.1,19.6-0.1,29.4,0c7.3,0.1,11.2,3.6,11.2,10.1c0,6.5-3.8,10.2-11,10.3
		C104.1,142.3,94.4,142.2,84,142.2z" fill="currentColor"/>
        <path d="M594.4,457.5c0,5.9-3.5,10.3-8.4,10.9c-6,0.8-9.9-2-12.3-7.7c-3-7.2-5.4-15.2-10.3-20.9
		c-5.6-6.6-13.3-11.6-20.8-16.2c-6.9-4.2-10.1-8.9-7.5-14.7c2.7-5.9,8.3-7.8,15.6-4.9c22.4,9.2,36.4,25.8,42.9,49
		C594.2,454.6,594.3,456.3,594.4,457.5z" fill="currentColor"/>
        <path d="M348.5,391.1c-2.6,4-4.2,7.3-6.5,9.8c-10.2,10.8-18.3,22.9-24.1,36.5c-3,7-7.2,9.1-13.4,6.7
		c-6.3-2.5-9.5-8.2-6.3-14.4c6.6-12.5,14.1-24.6,21.6-36.6c2.2-3.5,5.1-7.3,8.7-9.2c3.3-1.8,8.2-2.5,11.7-1.3
		C343.3,383.7,345.5,387.8,348.5,391.1z" fill="currentColor"/>
        <path d="M84,244.7c0,3.4,0.1,6.8,0,10.2c-0.3,6.5-4.2,10.2-10.5,10.1c-6-0.1-9.8-3.8-9.9-10c-0.1-7-0.2-14,0-21
		c0.2-6.2,4-9.8,10.1-9.8c6.1,0,9.9,3.5,10.2,9.7C84.1,237.5,83.9,241.1,84,244.7C84,244.7,84,244.7,84,244.7z" fill="currentColor"/>
        <path d="M445.7,367.3c-3,0-6,0.1-8.9,0c-6.3-0.2-10-3.9-10.1-9.9c-0.1-6.3,3.6-10.4,10.1-10.6c6.2-0.2,12.4-0.2,18.5,0
		c6.5,0.2,10.4,4.3,10.2,10.5c-0.2,6-3.9,9.6-10.2,9.9C452.1,367.3,448.9,367.2,445.7,367.3C445.7,367.2,445.7,367.3,445.7,367.3z"
        />
</g>
</svg>
