<svg width="26" height="26" viewBox="0 0 26 26" fill="none" xmlns="http://www.w3.org/2000/svg">
    <style type="text/css">
        .color-fixed{fill:#848789;}
    </style>
    <g>
        <path class="color-fixed" d="M19.2013 0.457428C19.418 0.498354 19.6371 0.522428 19.8489 0.580206C21.4547 1.02076 22.4778 2.04632 22.9087 3.65687C22.9424 3.77965 22.9906 3.81335 23.1109 3.80854C23.3758 3.80132 23.6406 3.79891 23.9054 3.81095C24.3772 3.83261 24.7119 4.19613 24.7047 4.66317C24.695 5.11576 24.3387 5.46724 23.8741 5.47687C23.6093 5.48169 23.3445 5.48409 23.0797 5.47687C22.9785 5.47446 22.9424 5.50817 22.9159 5.60687C22.4682 7.26798 21.4137 8.32724 19.7382 8.72206C17.5619 9.23243 15.3134 7.81928 14.803 5.64298C14.7717 5.51298 14.7259 5.47446 14.5911 5.47446C10.4721 5.47928 6.35058 5.47687 2.2315 5.47928C1.91613 5.47928 1.6465 5.39502 1.45873 5.13261C1.26854 4.8678 1.23965 4.5765 1.37928 4.2828C1.5165 3.99391 1.75243 3.83261 2.07502 3.81095C2.15688 3.80613 2.23873 3.80613 2.32299 3.80613C6.41558 3.80613 10.5106 3.80613 14.6032 3.80854C14.7284 3.80854 14.7717 3.77002 14.8006 3.65206C15.1858 2.00298 16.5556 0.753539 18.2432 0.505576C18.3371 0.491132 18.4309 0.47428 18.5224 0.457428C18.7487 0.457428 18.975 0.457428 19.2013 0.457428ZM18.8426 7.14521C20.2269 7.15002 21.3559 6.0378 21.3632 4.66076C21.3704 3.26446 20.2509 2.13058 18.8619 2.12817C17.468 2.12576 16.3534 3.24521 16.3485 4.64632C16.3461 6.01854 17.4656 7.14039 18.8426 7.14521Z"/>
        <path d="M17.5981 13.8402C15.5278 13.8402 13.455 13.8402 11.3846 13.8378C11.2739 13.8378 11.2281 13.8667 11.204 13.9774C10.8357 15.6073 9.45386 16.8808 7.79275 17.1336C5.9896 17.4056 4.25145 16.5245 3.42812 14.8995C3.27645 14.601 3.18738 14.2711 3.07905 13.951C3.05257 13.8691 3.02368 13.8402 2.93942 13.8402C2.66979 13.845 2.40016 13.8474 2.13294 13.8402C1.70201 13.8282 1.34812 13.52 1.30238 13.1204C1.25423 12.6847 1.49979 12.2995 1.90905 12.1984C2.04868 12.1647 2.20034 12.1671 2.3472 12.1647C2.5422 12.1598 2.7372 12.1598 2.9322 12.1647C3.02368 12.1671 3.05497 12.1382 3.07905 12.0467C3.45942 10.5782 4.35738 9.56225 5.78738 9.05188C8.09368 8.23096 10.6359 9.62485 11.2016 12.0058C11.2305 12.131 11.2811 12.1647 11.4063 12.1647C15.5229 12.1623 19.6372 12.1623 23.7539 12.1598C24.0885 12.1598 24.3726 12.2537 24.5628 12.5402C24.7409 12.8123 24.7553 13.106 24.6037 13.3924C24.44 13.7006 24.1679 13.8402 23.8237 13.8402C22.5598 13.8402 21.2959 13.8402 20.0344 13.8402C19.2231 13.8402 18.4118 13.8402 17.5981 13.8402ZM9.65368 13.0121C9.64886 11.611 8.53423 10.4867 7.14516 10.4891C5.75849 10.4915 4.63423 11.6254 4.63905 13.0169C4.64386 14.4084 5.77775 15.5182 7.18849 15.5134C8.52942 15.5086 9.65608 14.365 9.65368 13.0121Z" fill="#2BA3A3"/>
        <path class="color-fixed" d="M6.70935 20.5232C8.22842 20.5232 9.7475 20.5232 11.269 20.5256C11.3797 20.5256 11.4206 20.4967 11.4471 20.3836C11.9118 18.4528 13.674 17.1167 15.6577 17.1841C17.5282 17.2491 19.1316 18.5587 19.5697 20.386C19.5962 20.4991 19.6419 20.5256 19.7503 20.5256C21.1081 20.5232 22.4682 20.5232 23.826 20.5232C24.2593 20.5232 24.5868 20.7784 24.6831 21.1804C24.7986 21.6571 24.4447 22.1626 23.956 22.1843C23.4842 22.206 23.0099 22.1963 22.5356 22.1963C21.6064 22.1963 20.6771 22.1987 19.7479 22.1939C19.6371 22.1939 19.5914 22.2228 19.5649 22.336C19.1821 23.9898 17.8051 25.2489 16.1151 25.4969C13.9629 25.8122 11.9118 24.4208 11.4375 22.3143C11.4086 22.1867 11.3364 22.1987 11.2497 22.1987C8.32231 22.1987 5.39731 22.1987 2.4699 22.1987C2.34953 22.1987 2.22676 22.2011 2.10639 22.1939C1.62009 22.165 1.28305 21.8087 1.29268 21.3393C1.30231 20.8795 1.66824 20.5232 2.14731 20.5208C2.86713 20.516 3.58935 20.5184 4.30916 20.5184C5.11324 20.5232 5.91009 20.5232 6.70935 20.5232ZM15.4988 18.8573C14.1097 18.8621 12.9951 19.9911 13.0023 21.3898C13.0071 22.7573 14.1458 23.8815 15.5229 23.8743C16.9047 23.8695 18.0242 22.738 18.0242 21.3537C18.0193 19.9767 16.8806 18.85 15.4988 18.8573Z"/>
    </g>
</svg>
