<svg version="1.1" id="Calque_1" xmlns="http://www.w3.org/2000/svg" xmlns:xlink="http://www.w3.org/1999/xlink" x="0px" y="0px"
     viewBox="0 0 307 261.2" style="enable-background:new 0 0 307 261.2;" xml:space="preserve">
<g>
	<path d="M299.5,224.7c-0.3,1-0.7,2-1,2.9c-2.6,7.3-8.9,11.7-17.1,11.8c-9.8,0.1-19.6,0-29.4,0c-1.4,0-2.8-0.3-4.5-0.5
		c0-2.5,0-4.9,0-7.2c0-13,0.3-26,0-39c-0.3-14-2.2-28-9.1-40.4c-3.8-6.8-8.9-12.9-13.4-19.4c-0.5-0.8-1.2-1.4-2-2.3
		c5.4-4.5,11.3-7.3,18-8.1c9.7-1.2,19.5-1.8,28.9,0.6c16.3,4.3,26.1,15.1,29,31.8c0.1,0.4,0.3,0.9,0.5,1.3
		C299.5,179,299.5,201.8,299.5,224.7z" fill="currentColor"/>
    <path d="M151,257.6c-17.4,0-34.8,0.1-52.2-0.1c-2.9,0-5.9-0.4-8.7-1.2c-7.6-2.3-13.4-9.7-13.5-17.7c-0.2-16.7-0.7-33.5,0.1-50.1
		c1.5-32.1,20-53.1,45.7-62.8c13.1-4.9,27-4.9,40.8-4.2c9.2,0.5,18.2,1.5,26.5,5.8c25.7,13.3,39.8,34.3,40.7,63.4
		c0.5,15.1,0.1,30.2,0.1,45.3c0,4.2-0.9,8-2.8,11.8c-2.3,4.5-5.9,7.3-10.7,8c-6.5,0.9-13,1.7-19.5,1.8c-15.5,0.3-31,0.1-46.5,0.1
		C151,257.8,151,257.7,151,257.6z" fill="currentColor"/>
    <path d="M153.5,3.3c27.6,0,49.6,22.1,49.6,49.7c0,27.2-22.5,49.6-49.6,49.5c-27.3-0.1-49.7-22.6-49.6-49.9
		C104,25.2,126.1,3.3,153.5,3.3z" fill="currentColor"/>
    <path d="M84.2,130.4C73.9,141,66.8,152.7,63,166.4c-3.1,11.2-4,22.6-4,34.1c-0.1,11.7,0.2,23.4,0.4,35.1c0,1,0,2.1,0,3.4
		c-1.5,0.1-3,0.4-4.5,0.4c-9.7,0-19.4,0-29.1,0c-11.3,0-18.3-7.1-18.3-18.3c0-20,0-39.9,0-59.9c0-20,13.2-36.2,33.1-38.7
		c12.2-1.6,24.9-2.4,36.6,3.6C79.5,127.3,81.6,128.8,84.2,130.4z" fill="currentColor"/>
    <path d="M84.5,70.9c0.1,17.2-14,31.5-31.2,31.6c-17.1,0.1-31.5-14.2-31.5-31.3c0-17.4,13.8-31.3,31.2-31.4
		C70.4,39.7,84.4,53.6,84.5,70.9z" fill="currentColor"/>
    <path d="M254,39.8c17.4,0.1,31.3,14,31.2,31.4c-0.1,17.2-14.4,31.4-31.5,31.3c-17.2-0.1-31.3-14.4-31.2-31.6
		C222.6,53.5,236.5,39.7,254,39.8z" fill="currentColor"/>
</g>
</svg>
