<?xml version="1.0" encoding="utf-8"?>
<!-- Generator: Adobe Illustrator 22.0.0, SVG Export Plug-In . SVG Version: 6.00 Build 0)  -->
<svg version="1.1" id="Calque_1" xmlns="http://www.w3.org/2000/svg" xmlns:xlink="http://www.w3.org/1999/xlink" x="0px" y="0px"
	 viewBox="0 0 692 778" style="enable-background:new 0 0 692 778;" xml:space="preserve">
<g>
	<path d="M306.3,765c-12.9-6.3-14.5-17.2-13-30c8-69.6,15.7-139.3,23.6-209c2.1-18.4,4.3-36.9,6.5-56.4c-3.2,0-5.8,0-8.4,0
		c-45.5,0-91,0-136.5,0c-21,0-31.1-16-21.8-34.8C224.4,298.9,292,162.9,359.9,27.2c2.8-5.6,9.2-9.5,14-14.2c3.9,0,7.8,0,11.8,0
		c13.6,7.9,14.4,20.1,12.6,34.1c-4.1,32-7.5,64.1-11.2,96.1c-4.2,36.4-8.4,72.8-12.6,109.2c-2.6,22.8-5.2,45.6-7.9,69.1
		c3,0,5.7,0,8.3,0c47,0,94,0,140.9,0c20.2,0,28.2,13,19,31.1c-67.4,132.6-134.7,265.1-202.5,397.5c-3,5.9-9.4,9.9-14.3,14.9
		C314.2,765,310.3,765,306.3,765z"  fill="currentColor"/>
	<path d="M12.6,375.8c1.5-12.3,2.7-24.7,4.4-37c4.8-34.9,15.7-68,31.5-99.3c25.7-50.7,62.1-92.4,108.9-124.7
		c39.1-27,82.1-44.9,129-53.2c3.7-0.7,7.5-1.2,12.5-1.9c-4.4,9-8.3,16.9-12.2,24.7c-10.6,21.4-21.1,42.9-32.1,64.2
		c-1.8,3.5-5.4,6.9-9,8.6c-68.3,31.3-116.1,81.7-139.2,153.2c-26.7,82.5-13.4,159.9,37.6,230c29.4,40.4,68.5,68.6,115.3,86.1
		c3.2,1.2,6.6,1.6,6,6.6c-3,25.2-5.8,50.4-8.8,76.9c-9.3-3-18.2-5.3-26.6-8.6C174.3,680,127.2,646.8,89.3,601
		C51.5,555.4,28,503.2,17.5,445.1c-2.5-13.6-3.3-27.6-4.9-41.4C12.6,394.4,12.6,385.1,12.6,375.8z"  fill="currentColor"/>
	<path d="M679.4,402.2c-1.5,12.3-2.7,24.7-4.4,36.9c-4.8,35.7-16.1,69.4-32.4,101.3c-25.9,50.4-62.3,91.7-109,123.7
		c-38.6,26.4-80.9,44.1-127,52.3c-3.8,0.7-7.6,1.3-13,2.2c1.6-3.3,2.6-5.4,3.6-7.4c13.7-27,27.6-53.9,41.1-81.1
		c2.6-5.2,6-8.2,11.2-10.6C514.4,589.3,560.7,541,583.9,473c29.9-87.2,15.6-168.2-40.6-241.2c-28.4-36.9-65.3-62.9-108.9-79.3
		c-2.5-0.9-4.9-2-8-3.2c3.1-26.9,6.2-53.5,9.5-82c18.4,7.3,36.2,13.1,53,21.2c64.3,30.9,114,77.7,148.7,140
		c20.9,37.5,34.1,77.7,38.8,120.5c0.9,8.5,2,16.9,3,25.4C679.4,383.6,679.4,392.9,679.4,402.2z"  fill="currentColor"/>
</g>
</svg>
