<svg version="1.1" id="Calque_1" xmlns="http://www.w3.org/2000/svg" xmlns:xlink="http://www.w3.org/1999/xlink" x="0px" y="0px"
     viewBox="0 0 259.3 217.8" style="enable-background:new 0 0 259.3 217.8;" xml:space="preserve">
<g>
	<path d="M3.1,99c0.5-0.9,1.1-1.8,1.6-2.7c2.7-4.8,8-7.1,13.3-5.9c5.6,1.4,9.1,5.3,9.3,11c0.2,9.1,0.3,18.2,0.3,27.3
		c0,18.6,0,37.2,0,55.8c0,1,0,2,0,3.1c68.1,0,135.9,0,204.1,0c0-1,0-2,0-3.1c0.1-27.4,0.3-54.9,0.1-82.3c0-8.7,8.6-13.8,15.5-11.6
		c2.9,0.9,5.2,2.6,6.7,5.1c0.7,1.1,1.4,2.2,2.1,3.3c0,34.9,0,69.8,0,104.7c-0.3,0.4-0.6,0.7-0.8,1.2c-2.5,5.3-6.4,7.8-12.4,7.7
		c-6-0.2-12.1,0.1-18.1,0.1c-63.5,0-127,0-190.4,0c-6.5,0-13.1-0.1-19.6-0.1c-4.5,0-7.7-2.1-10-5.8c-0.6-1-1.2-2-1.7-3
		C3.1,168.8,3.1,133.9,3.1,99z" fill="currentColor"/>
    <path d="M42.3,5.2c11.8,7.1,24.2,13.3,37.1,18.2c28.3,10.9,57.8,17.3,87.9,20.3c16.1,1.6,32.3,2.1,48.5,3.1c0.5,0,1,0.1,1.6,0.1
		c0,5.4,0,10.7,0,16.3c-57.9,0-115.9,0-174.1,0c-0.2-6.4-0.4-12.8-0.6-19.1c-0.3-11.4-0.6-22.8-0.9-34.2c0-1.6,0-3.1,0-4.7
		C42,5.2,42.2,5.2,42.3,5.2z" fill="currentColor"/>
    <path d="M42.8,118.5c0-5.3,0-10.5,0-15.9c57.8,0,115.6,0,173.5,0c0,5.2,0,10.4,0,15.9C158.6,118.5,100.9,118.5,42.8,118.5z" fill="currentColor"/>
    <path d="M42.8,91.3c0-5.3,0-10.5,0-15.8c57.9,0,115.6,0,173.6,0c0,5.3,0,10.4,0,15.8C158.6,91.3,100.9,91.3,42.8,91.3z" fill="currentColor"/>
    <path d="M216.5,157.3c0,5.3,0,10.4,0,15.7c-57.9,0-115.6,0-173.6,0c0-5.2,0-10.4,0-15.7C100.7,157.3,158.4,157.3,216.5,157.3z" fill="currentColor"/>
    <path d="M42.8,145.7c0-5.3,0-10.3,0-15.4c57.8,0,115.6,0,173.7,0c0,4.7,0,9.5-0.1,14.2c0,0.4-0.8,0.9-1.3,1.1
		c-0.6,0.2-1.3,0.1-2,0.1c-55.7,0-111.5,0-167.2,0C45.1,145.7,44.1,145.7,42.8,145.7z" fill="currentColor"/>
</g>
</svg>
