<?xml version="1.0" encoding="utf-8"?>
<!-- Generator: Adobe Illustrator 22.0.0, SVG Export Plug-In . SVG Version: 6.00 Build 0)  -->
<svg version="1.1" id="Calque_1" xmlns="http://www.w3.org/2000/svg" xmlns:xlink="http://www.w3.org/1999/xlink" x="0px" y="0px"
	 viewBox="0 0 866 836" style="enable-background:new 0 0 866 836;" xml:space="preserve">
<g>
	<path d="M740.8,818.2c-12.1-3.7-24.9-5.9-36.1-11.4c-21.9-10.9-35.4-29.5-42-53.1c-0.6-2.1-1.2-4.2-2-7c-1.8,2-3,3.4-4.3,4.8
		c-8.1,9.1-18.7,7.8-23.9-3.2c-2.9-6.2-5-12.8-6.9-18c-7.1,1-14,2.7-21,2.7c-69.3,0.2-138.6,0.1-208,0.1c-3.3,0-6.6,0-10.6,0
		c-3.3,27-15.1,48.8-37.4,64.2c-14.8,10.2-31.3,15-49.3,14.8c-22-0.3-41.1-8.1-57.2-23c-16.1-14.9-24.4-33.9-27-55.2
		c-35.2-4.4-53.7-21.6-55.8-54.1c-0.8-13.3,1.4-27.2,4.6-40.2c7.5-30.6,21.9-58.5,38-85.4c1.1-1.9,4.2-3.7,6.4-3.7
		c66-0.2,132-0.2,198.9-0.2c-8.1,28.8-3,54.1,19.8,76.7c1-14.8,1.8-27.6,2.6-40.5c2.5-43.2,5-86.3,7.6-129.5
		c0.7-11.7-3.5-17.1-15.1-18.3c-20.9-2.2-41.9-4.4-62.8-6.8c-22.4-2.7-38.5-24.8-33.9-46.9c12.5-60.7,25.1-121.3,38-181.9
		c5.6-26.2,27.9-41.6,54.7-38.7c23,2.5,40.9,23.8,41.5,48.8c0.1,3.9,2,8.6,4.6,11.5c23.4,25.9,54.2,39.6,86.1,51.2
		c14.2,5.2,28.6,7.8,43.8,7.3c22.2-0.7,44.4-0.3,66.5-0.2c27.7,0.1,43.7,16.2,43.9,44c0.1,8.3,0.3,16.7-0.3,24.9
		c-1.4,21.2-17.4,36.4-38.5,37c-8.5,0.2-17.1,0-26.8,0c6.1,46.9,16.4,90.2,56.4,120.1c26.4,19.7,36.3,46.6,30.7,79
		c-0.2,1.4-0.4,2.7-0.5,4.1c0,0.5,0.2,1.1,0.2,1.6c10,1.3,20.4,1.4,30.1,4c44.2,11.8,71.3,40.4,81.3,85.1c0.3,1.3,1,2.5,1.6,3.7
		c0,5,0,10,0,15c-3.6,2.8-7.1,5.6-10.9,8.6c0.4,2.3,0.7,5,1.2,7.7c7,40.7-16.2,80.6-55.4,94.4c-7.4,2.6-15.4,3.9-23.1,5.7
		C747.5,818.2,744.2,818.2,740.8,818.2z M440.1,302.9c-2.9,12.5-6.2,25.5-8.8,38.7c-1.9,9.4,1,13.9,10,17.3
		c20.4,7.7,40.9,15.2,61.3,23c19.4,7.5,28.7,22.1,27,42.7c-1.5,17.1-3.4,34.2-5.2,51.2c-4.2,39.9-8.5,79.9-12.7,119.8
		c-1.5,14.5-2.9,29-4.4,43.9c17.5,0,33.9,0,50.4,0c0-97.2,0-193.8,0-288.6c-21.1-6.2-41.9-10.4-61.2-18.3
		C477.3,324.8,459.4,313.3,440.1,302.9z M769,698.2c-23.4-0.7-45.5,4.8-66.4,15.2c-16.7,8.3-19,13.5-14.3,31.7
		c8.1,31.7,38.9,50.3,70.9,43c30.6-7,50-38.5,43.1-70.2c-3.6-16.4-7.1-19.3-24.2-19.8C775.1,698.1,772,698.2,769,698.2z
		 M357.8,733.5c-38,0-76.1,0-114.1,0c-1.5,25.1,25.6,50.8,53.9,51.6C329.5,786,357.8,762,357.8,733.5z" fill="currentColor"/>
	<path d="M27,235.8c5.2-14.9,13.9-26.4,30.1-30.3c3.7-0.9,7.6-1.2,11.5-1.2c61-0.1,121.9-0.1,182.9,0c25,0,41.7,16.7,41.7,41.6
		c0.1,47.7,0.1,95.3,0,143c0,24.9-16.7,41.6-41.7,41.6c-58.5,0-117-0.6-175.4,0.3c-24.5,0.4-41-8.4-49.1-31.9
		C27,344.5,27,290.2,27,235.8z" fill="currentColor"/>
	<path d="M464.6,17.8c10.5,5.3,22.3,8.9,31.3,16.1c24.4,19.8,30.5,53,16.6,80.5c-13.8,27.4-44.4,41.7-74.7,34.8
		c-28.8-6.5-50.7-33-51.3-61.9c-0.6-32.4,18.9-59,49.6-67.5c1.8-0.5,3.5-1.3,5.3-2C449.1,17.8,456.8,17.8,464.6,17.8z" fill="currentColor"/>
	<path d="M412.7,523.6c-3.5,0-5.9,0-8.4,0c-67.1,0-134.2-0.1-201.2,0.1c-5.6,0-9.3-1.7-12.6-6c-10.6-14.2-16.9-29.8-17-47.6
		c0-9.9,4.7-14.9,14.7-14.9c69.9-0.1,139.7-0.1,209.6,0c9.2,0,14.7,4.7,14.8,13.3C413,486.4,412.7,504.4,412.7,523.6z" fill="currentColor"/>
</g>
</svg>
