<?xml version="1.0" encoding="utf-8"?>
<!-- Generator: Adobe Illustrator 22.0.0, SVG Export Plug-In . SVG Version: 6.00 Build 0)  -->
<svg version="1.1" id="Calque_1" xmlns="http://www.w3.org/2000/svg" xmlns:xlink="http://www.w3.org/1999/xlink" x="0px" y="0px"
	 viewBox="0 0 866 836" style="enable-background:new 0 0 866 836;" xml:space="preserve">
<style type="text/css">
	.st0{fill:#A6391B;}
	.st1{fill:#F9AA32;}
</style>
<path class="st0" d="M115.5,11.5c38.7,8.5,58.4,34.9,67.6,71.4c0.9,3.7,2.6,7.3,3.9,11c62.7,182.9,125.4,365.8,188.1,548.7
	c0.2,0.7,0.3,1.5,0.5,2.7c-9.4,3.3-18.9,6.6-29,10.1c-13-37.6-26.1-75.3-39.1-113c-53.3-155-106.6-310.1-160-465.1
	c-7.2-21-21.7-32.7-40.3-33.1c-18.8-0.4-34.8,9-40.6,26.9c-2.9,8.8-2.4,19-1.5,28.5c1.1,11.5-2.5,19.3-12.3,21.4
	c-8.6,1.9-16.3-4-19-14.5c-11.3-42.9,13.5-83.6,56.6-93c1.4-0.3,2.7-1.3,4-2C101.4,11.5,108.4,11.5,115.5,11.5z"/>
<path class="st0" d="M384.1,824.5c-23-6.8-42.6-17.9-53.9-40.5c-12.7-25.6-11.2-50.7,3.9-74c14.7-22.7,36.7-34.2,64.2-33.1
	c39.4,1.6,66.8,28.4,71.5,69.2c3.7,31.9-20.2,65.5-53.7,75.5c-2.9,0.9-5.7,2-8.6,3C399.7,824.5,391.9,824.5,384.1,824.5z"/>
<path class="st1" d="M338.3,365.2c106.2-36.6,211.2-72.8,317.7-109.5c34.9,101.1,69.5,201.6,104.5,303.1
	c-28.1,9.6-55.8,19.1-83.5,28.7c-70.7,24.3-141.4,48.6-212.1,72.9c-11,3.8-26-3.3-29.7-14c-31-89.7-62-179.3-93-269
	C340.8,373.7,339.8,370,338.3,365.2z M543,394.6c17.1,8.2,31.9,15.7,47.1,22.4c8.8,3.8,17.5,2.2,21.8-7.2c4.2-9.2,0.4-16.8-8.5-21.2
	c-26.4-13.1-52.9-26-79.4-38.8c-8.6-4.2-17.8-4.3-22.6,4.7c-14.5,27.4-28.3,55.2-41.2,83.5c-2.1,4.5,0.4,13.6,4.1,17.5
	c3.3,3.5,11.8,4.9,16.7,3.3c4.6-1.5,8.6-7.5,11.2-12.4c7-12.7,13.1-25.9,20.5-40.8c1.3,3.4,1.9,4.7,2.3,6
	c15.3,44.7,30.6,89.4,45.9,134.1c5.4,15.8,12.2,21.3,22.1,18.3c10.8-3.3,13.7-12.7,8.4-28.2c-7-20.5-14.1-41-21.2-61.5
	C561.4,448.3,552.6,422.4,543,394.6z"/>
<path class="st1" d="M349.3,113.8c7.1,19.1,13.6,36.9,20.3,54.6c4.9,12.9,12.7,17.5,22.6,13.5c8.8-3.5,11.4-12.5,7.1-24.8
	c-5.9-16.8-11.8-33.6-17.6-50.5c-0.2-0.7,0-1.5,0.1-3.5c28-9.7,56.4-19.6,86.2-30c21.9,64.1,43.5,127.2,65.3,191
	c-69,23.7-137,47-205.6,70.5c-22.2-64-43.9-126.7-65.9-190.4C291.3,134,319.7,124.1,349.3,113.8z"/>
<path class="st0" d="M500.7,731c-3.2-9.8-6.1-19-9.5-29.7c10.3-3.8,21.3-8,32.4-11.8c94.9-32.6,189.8-65.2,284.9-97.4
	c6.3-2.1,14.5-1.8,20.8,0.3c3.3,1.1,6.8,9.8,5.5,13.5c-2,5.8-7,12.6-12.5,14.7c-23.8,9.3-48.2,17-72.4,25.3
	c-80.3,27.6-160.5,55.1-240.8,82.7C506.2,729.6,503.3,730.3,500.7,731z"/>
</svg>
