<?xml version="1.0" encoding="utf-8"?>
<!-- Generator: Adobe Illustrator 22.0.0, SVG Export Plug-In . SVG Version: 6.00 Build 0)  -->
<svg version="1.1" id="Calque_1" xmlns="http://www.w3.org/2000/svg" xmlns:xlink="http://www.w3.org/1999/xlink" x="0px" y="0px"
	 viewBox="0 0 593 672.5" style="enable-background:new 0 0 593 672.5;" xml:space="preserve">
<style type="text/css">
	.st0{fill:#782D62;}
	.st1{fill:#91271A;}
</style>
<path class="st0" d="M149.2,8.6c4.9,2.8,8.1,6.6,6.2,12.5c-1.9,5.9-6.8,6.7-12.4,6.7c-20.5-0.1-40.9-0.1-61.4,0
	c-15.2,0-24.3,9-24.3,24.3c0,189.3,0,378.5,0,567.8c0,15.6,9,24.5,24.7,24.5c142.8,0,285.6,0,428.4,0c15.9,0,24.7-9,24.7-25.1
	c0-37.1,0-74.2,0.1-111.3c0-3.1,0.3-6.7,1.9-9.1c4.3-6.8,12.3-5.1,17.5,3.5c0,41.4,0,82.7,0,124.1c-6,28.8-26.3,37.7-52.4,37.4
	c-84.2-0.8-168.4-0.3-252.6-0.3c-56.3,0-112.6,0-168.8,0c-16.3,0-29.4-6.7-36.8-21.1c-3.6-7.1-5.6-15.8-5.6-23.8
	c-0.3-188.5-0.2-376.9-0.2-565.4c0-1.5,0-3,0.1-4.5c1.1-19.2,12.8-33.8,31.4-39c1-0.3,1.9-0.8,2.8-1.2C98.1,8.6,123.7,8.6,149.2,8.6
	z"/>
<path class="st0" d="M554.8,467.9c-3.1,2.5-5.9,6.2-9.4,7.4c-4.5,1.5-9.1-2.8-9.8-7.7c-0.3-2.5-0.2-5.1-0.2-7.7
	c0-135.1,0-270.2,0-405.3c0-7.2-0.8-14-6-19.6c-5.4-5.7-12.1-7.2-19.7-7.2c-105.3,0.1-210.5,0.1-315.8,0.1c-1.7,0-3.4-0.1-5.1,0
	c-5.4,0.2-10.4-0.3-12.7-6.2c-2.4-5.9,1.3-9.5,5.2-13c113,0,226,0,339,0c12.1,3.6,22.7,9.5,28.7,21.1c2.6,5,3.9,10.6,5.8,16
	C554.8,186.4,554.8,327.1,554.8,467.9z"/>
<path class="st1" d="M370.7,494.5c0-18,0-35.2,0-52.8c-80.5,0-160.8,0-242,0c0,9.1,0,18.2,0,27.3c0,6.2,0.3,12.4-0.1,18.5
	c-0.3,5.3,1.8,7.1,7,7.1c22.6-0.2,45.2-0.1,67.8-0.1c7.2,0,14.5-0.1,21.7,0c6.5,0.1,10.7,3.8,10.8,9.3c0.1,5.4-4.1,9.8-10.4,9.8
	c-31.3,0.1-62.7,0.3-94-0.1c-12.9-0.1-22-9.9-22-22.7c-0.1-66.3-0.1-132.6,0-198.9c0-13.1,9.4-22.4,22.8-22.5
	c28.4-0.2,56.7-0.1,85.1-0.1c79.5,0,159,0,238.6,0c19.2,0,27.2,8,27.2,27.1c0,63.5,0,127.1,0,190.6c0,18.1-8.5,26.6-26.6,26.6
	c-62.3,0-124.5,0-186.8,0c-1.5,0-3,0.1-4.5,0c-6.4-0.5-10.3-4.4-10-10.1c0.2-5.4,4-8.9,10.3-9c18.8-0.1,37.5-0.1,56.3-0.1
	C337.9,494.5,353.9,494.5,370.7,494.5z M129.1,360.9c0,20.6,0,40.5,0,60.6c80.7,0,161.1,0,241.5,0c0-20.4,0-40.4,0-60.6
	C290,360.9,209.7,360.9,129.1,360.9z M370.7,288.5c-3,0-5.5,0-8,0c-44.1,0-88.2,0-132.3,0c-31.3,0-62.7,0.1-94-0.1
	c-5.7,0-8,1.4-7.8,7.5c0.4,13.2,0.1,26.4,0.2,39.6c0,1.8,0.2,3.7,0.4,5.4c80.8,0,161.1,0,241.6,0
	C370.7,323.6,370.7,306.6,370.7,288.5z M463.7,360.8c-24.6,0-48.6,0-73.1,0c0,20.4,0,40.5,0,60.8c24.5,0,48.6,0,73.1,0
	C463.7,401.3,463.7,381.4,463.7,360.8z M390.6,494.5c23.2,0,45.7,0.1,68.3-0.2c1.7,0,4.9-2.6,4.9-4.1c0.4-16.1,0.2-32.2,0.2-48.5
	c-24.8,0-48.9,0-73.4,0C390.6,459.2,390.6,476.4,390.6,494.5z M464,341.1c0-16.4-0.1-32.1,0-47.9c0-4.8-3.1-4.7-6.5-4.7
	c-20.9,0-41.7,0-62.6,0c-1.4,0-2.8,0.3-4.2,0.5c0,17.6,0,34.7,0,52.1C415.1,341.1,439.1,341.1,464,341.1z"/>
<path class="st1" d="M372.9,563.6c9.2-0.2,15.7,4.6,21,11.5c2.7,3.5,5.1,7.3,7.9,10.9c3.2,4.2,6.8,4.1,10,0
	c2.6-3.4,4.9-6.9,7.5-10.3c12.2-16.3,30.5-16.3,42.8,0c2.1,2.7,3.6,5.9,6,8.3c2.3,2.2,5.1,4.3,8.1,5.4c5.3,1.9,8.7,5.9,7.9,10.8
	c-0.8,5.2-5.4,8.8-11.1,8.3c-8.2-0.7-14.4-4.9-19.2-11.3c-2.8-3.7-5.4-7.7-8.3-11.3c-3.1-3.9-6.5-3.8-9.6,0
	c-2.8,3.5-5.2,7.3-7.9,10.8c-12.2,15.9-30.2,15.9-42.4,0c-2.7-3.6-5.1-7.3-7.9-10.8c-3.1-3.9-6.5-3.8-9.6,0c-2.7,3.3-5,6.9-7.5,10.3
	c-4.7,6.4-10.5,11.1-18.7,12.2c-6.2,0.8-11.2-2.3-12.2-7.6c-1.1-5.5,2.2-9.4,8.4-11.4c2.6-0.8,5.2-2.7,7.1-4.8c3-3.3,5.1-7.3,8-10.8
	C358.2,567.4,364.6,563.4,372.9,563.6z"/>
<path class="st1" d="M429.4,173.3c18.9,0,37.9-0.2,56.8,0.2c3.2,0.1,7.4,2.5,9.2,5.1c1.4,2.1,1,6.9-0.6,9.3
	c-1.6,2.3-5.6,4.3-8.5,4.3c-37.9,0.3-75.8,0.2-113.7,0.1c-6.5,0-10.3-4.2-10.2-9.8c0.1-5.7,3.9-9.2,10.7-9.2
	C391.9,173.3,410.7,173.3,429.4,173.3z"/>
<path class="st1" d="M429.4,130.9c18.9,0,37.9-0.2,56.8,0.2c3.2,0.1,7.4,2.5,9.2,5.1c1.4,2.1,1,6.9-0.6,9.3
	c-1.6,2.3-5.6,4.3-8.5,4.3c-37.9,0.3-263,0.2-300.9,0.1c-6.5,0-10.3-4.2-10.2-9.8c0.1-5.7,3.9-9.2,10.7-9.2
	C204.7,130.8,410.7,130.9,429.4,130.9z"/>
<path class="st1" d="M429.4,88.5c18.9,0,37.9-0.2,56.8,0.2c3.2,0.1,7.4,2.5,9.2,5.1c1.4,2.1,1,6.9-0.6,9.3c-1.6,2.3-5.6,4.3-8.5,4.3
	c-37.9,0.3-334.1,0.2-372,0.1c-6.5,0-10.3-4.2-10.2-9.8c0.1-5.7,3.9-9.2,10.7-9.2C133.6,88.4,410.7,88.5,429.4,88.5z"/>
<path class="st1" d="M463.2,215.8c7.7,0,15.3-0.1,23,0c6.5,0.1,10.7,3.8,10.8,9.3c0.1,5.4-4.1,9.7-10.5,9.8
	c-15.8,0.2-31.5,0.2-47.3,0c-6.4-0.1-10.7-4.1-10.8-9.5c-0.1-5.7,4.3-9.5,11.1-9.6C447.4,215.7,455.3,215.8,463.2,215.8z"/>
</svg>
