<?xml version="1.0" encoding="utf-8"?>
<!-- Generator: Adobe Illustrator 22.0.0, SVG Export Plug-In . SVG Version: 6.00 Build 0)  -->
<svg version="1.1" id="Calque_1" xmlns="http://www.w3.org/2000/svg" xmlns:xlink="http://www.w3.org/1999/xlink" x="0px" y="0px"
	 viewBox="0 0 741 1080" style="enable-background:new 0 0 741 1080;" xml:space="preserve">
<style type="text/css">
	.st0{fill:#FF3F9F;}
	.st1{fill:#574FFF;}
</style>
<path class="st0" d="M76.4,551.3c14.1,0,27.9,0,42.5,0c0,157.3,0,314.3,0,472c184.5,0,368.2,0,552.6,0c0-265.7,0-531.3,0-798.1
	c-121.1,0-242.4,0-364.1,0c0-15.2,0-29.2,0-43.5c2.6-0.1,4.9-0.4,7.2-0.4c119.9,0,239.7,0,359.6,0c24.5,0,41.1,16.6,41.1,41.2
	c0,237.4,0,474.9,0,712.3c0,30.2,0.1,60.2,0,90.3c0,25.8-16.1,42.1-41.7,42.1c-185.4,0-371,0-556.4,0c-24.9,0-41.2-16.7-41.2-41.9
	c0-156.1,0-312.3,0-468.4C76,555.3,76.2,553.6,76.4,551.3z"/>
<path class="st1" d="M25.9,137.3c11.3,0,21.7,0,33,0c0,4.2,0,8,0,11.7c0,84.6,0,169.2,0,253.8c0,26.9,15.5,49.5,40.2,59.4
	c25.2,10.1,51.6,4.5,70-15.1c11.6-12.3,17.7-27.3,17.8-44c0.2-99.8,0.2-199.6,0-299.4c0-15.7-4.2-30.5-14.2-43.2
	c-15.2-19.3-36.9-19.3-52,0.1c-9.7,12.5-14,26.9-14,42.5c-0.1,73.3-0.1,146.7,0.1,219.9c0,6,1.7,12.2,4,17.8
	c2.9,7.1,7.5,13.6,16.2,13.5c8.3-0.1,13.1-6.2,15.6-13.1c2.5-7.1,4.2-15,4.2-22.4c0.4-57.3,0.2-114.8,0.2-172.1c0-3,0-6,0-9.5
	c11.2,0,21.7,0,32.9,0c0.1,2.5,0.4,5,0.4,7.5c0,58.7,0,117.3,0,175.9c0,17.2-4.1,33.1-14.7,47c-20.8,27.2-56.9,27.2-77.8-0.1
	c-10.1-13.2-14.5-28.4-14.5-44.7c-0.1-73-0.2-146,0.1-219.2c0-25.9,7.6-49.7,25.7-69.2c27.4-29.5,68.8-29,95.8,0.9
	c17.9,19.9,25,44,25.2,70.3c0.1,94.1-0.1,188.3,0,282.4c0,18.1-0.6,35.9-7.9,53c-18.2,42.9-62.8,66.7-108,57.4
	c-46.2-9.5-78.8-48.1-78.9-94.5c-0.1-86.5,0-172.8,0-259.3C25.5,142.4,25.8,140.1,25.9,137.3z"/>
<path class="st0" d="M395.6,740.5c72.3,0,144.5,0,216.7,0c15.5,0,25.4,9.6,24.5,23.3c-0.7,10.3-7.6,17.9-18.3,19.9
	c-2.5,0.5-5.1,0.5-7.7,0.5c-143.4,0-287,0-430.4,0c-14.6,0-23.4-6-25.7-17.2c-2.6-13.2,6-24.9,19.3-26.3c2.5-0.2,5.1-0.1,7.7-0.1
	C253.1,740.5,324.3,740.5,395.6,740.5z"/>
<path class="st0" d="M394.9,889.8c-72.3,0-144.4,0-216.7,0c-13.2,0-22.1-7.1-23.6-18.6c-1.7-14,7.9-24.7,22.8-24.7
	c35.5-0.1,70.9,0,106.4,0c108.8,0,217.4,0,326.2,0c1.7,0,3.6,0,5.4,0c12.6,0.5,21.4,9.5,21.4,21.6c0,12.2-8.8,21.4-21.4,21.6
	c-22.1,0.2-44.2,0.1-66.3,0.1C497.7,889.8,446.3,889.8,394.9,889.8z"/>
<path class="st0" d="M396.4,634.8c72,0,143.9,0,215.9,0c14.3,0,23.3,7.2,24.4,19.3c1.2,13.7-8.3,23.9-22.8,23.9
	c-44.5,0.1-89,0-133.5,0c-100.6,0-201,0-301.5,0c-13.5,0-22.3-6.6-24.2-17.8c-2.2-14.3,7.4-25.3,22.7-25.4
	c33.9-0.1,67.9,0,101.8-0.1C318.2,634.8,357.4,634.8,396.4,634.8z"/>
<path class="st0" d="M395.7,572.3c-71.3,0-142.4,0-213.7,0c-17.9,0-27.7-7.6-27.7-21.6c0-14,9.8-21.8,27.5-21.8
	c143.2,0,286.3,0,429.6,0c16.2,0,26.2,9.2,25.3,23.2c-0.7,11.7-9.5,19.9-22.1,20.1c-17.9,0.2-36,0.1-54,0.1
	C505.8,572.3,450.7,572.3,395.7,572.3L395.7,572.3z"/>
<path class="st0" d="M395.4,469.9c-46.5,0-93.1,0.1-139.6,0c-16.1,0-26.3-13.1-22.2-27.7c2.7-9.5,10.7-15.5,21.4-15.5
	c17.4-0.1,35,0,52.5,0c75.9,0,151.6,0,227.5,0c16.2,0,26.5,12.7,22.6,27.3c-2.7,10.1-10.8,15.8-22.7,15.8
	C488.4,470,442,469.9,395.4,469.9z"/>
</svg>
