<?xml version="1.0" encoding="utf-8"?>
<!-- Generator: Adobe Illustrator 22.0.0, SVG Export Plug-In . SVG Version: 6.00 Build 0)  -->
<svg version="1.1" id="Calque_1" xmlns="http://www.w3.org/2000/svg" xmlns:xlink="http://www.w3.org/1999/xlink" x="0px" y="0px"
	 viewBox="0 0 866 836" style="enable-background:new 0 0 866 836;" xml:space="preserve">
<g>
	<path d="M846.7,503.8c-0.1,50.5-23.3,115.5-98.2,134.9c-18.4,4.8-37.9,7.2-56.8,7.3c-172.3,0.5-344.5,0.4-516.8,0.2
		c-33.6,0-66-5.6-95.1-24.1c-22.7-14.4-38.2-34.6-48.3-59.3c-0.4-0.9-0.4-1.9-0.8-3.9c192.2,0,383.9,0,576.1,0c0-6.6,0-12.2,0-18.7
		c-3.5,0-6.7,0-9.8,0c-187.7,0-375.5,0-563.2,0.2c-7.3,0-10.9-1.7-11.5-9.4c-0.6-8.9-2-17.7-3.1-27.3
		C295.6,503.8,570.9,503.8,846.7,503.8z M643,549.6c0.1,13.7,11.5,25.2,25.1,25.2c14.1,0.1,25.7-11.5,25.6-25.5
		c-0.1-13.7-11.5-25.1-25.2-25.2C654.6,523.9,642.9,535.6,643,549.6z M773.1,549.3c-0.1-13.9-11.2-25.2-25-25.2
		c-14-0.1-25.8,11.6-25.7,25.5c0.1,13.6,11.6,25.1,25.2,25.2C761.8,574.9,773.2,563.5,773.1,549.3z" fill="currentColor"/>
	<path d="M738.4,288.3c0,65.6,0,130.3,0,195.7c-78.5,0-156.8,0-235.6,0c0-47.1,0-94.1,0-142.4c2.7,0,5.6,0,8.4,0
		c33.4,0,66.8,0,100.2,0c10.4,0,13.3-2.9,13.3-13.3c0-13.2,0-26.3,0-40C662.8,288.3,700.2,288.3,738.4,288.3z M620.3,375.8
		c-4,0-8-0.1-12,0c-7.8,0.2-11.1,3.2-11.3,10.7c-0.3,8.2-0.3,16.5-0.1,24.7c0.3,8,3.8,11.2,11.7,11.2c8,0.1,15.9,0.1,23.9,0.1
		c7.3,0,11.1-3.6,11.3-10.9c0.2-8.5,0.2-17,0-25.4c-0.2-7.1-3.6-10.2-10.9-10.4C628.8,375.7,624.6,375.8,620.3,375.8z M548.1,422.4
		c2,0,4,0,6,0c2,0,4,0,6,0c7.8-0.1,10.8-2.8,11.1-10.6c0.2-8.4,0.2-16.9,0.1-25.3c-0.1-7.3-3.3-10.4-10.5-10.6
		c-8.7-0.2-17.4-0.2-26.1-0.2c-6.3,0-9.7,3.6-9.9,9.7c-0.3,9.2-0.3,18.4,0,27.6c0.2,6.1,3.5,9.6,10,9.5
		C539.2,422.3,543.7,422.3,548.1,422.4z M716.3,399.2c0-4.5,0.1-9,0-13.5c-0.2-6.3-3.5-9.8-9.7-9.9c-9-0.2-17.9-0.2-26.9,0
		c-6.2,0.1-9.7,3.5-9.8,9.8c-0.1,9.2-0.2,18.4,0,27.7c0.1,5.7,3.5,8.8,9,9c9.5,0.3,18.9,0.3,28.4,0c5.8-0.2,9.1-3.6,9.2-9.6
		C716.4,408.1,716.3,403.7,716.3,399.2z" fill="currentColor"/>
	<path d="M417.7,171.3c15.9,0,31,0,47.2,0c0,8.6,0,17,0,25.3c0,10,3,13.1,12.7,13.1c10.5,0.1,20.9,0.1,31.4,0
		c8.9-0.1,12.2-3.4,12.3-12.2c0.1-8.5,0-16.9,0-26c15.7,0,31,0,47.2,0c0.2,2.1,0.6,4.4,0.6,6.8c0,45.8,0,91.7,0.1,137.5
		c0,4.6-0.4,7.4-6.3,7.3c-47.1-0.2-94.2-0.1-141.3-0.1c-1.2,0-2.4-0.3-4.1-0.5C417.7,272.2,417.7,222.1,417.7,171.3z" fill="currentColor"/>
	<path d="M154.1,484c0-25.2,0-49.8,0-74.8c51,0,101.7,0,153,0c0,24.7,0,49.4,0,74.8C256.4,484,205.6,484,154.1,484z" fill="currentColor"/>
	<path d="M483.3,33.4c-23.6,2-46.6,3.9-69.7,5.8c-40.7,3.4-81.4,6.8-122.1,9.9c-9.7,0.8-19.4,0.9-29.1,0.9
		c-33.6,0.1-67.3,0-100.9,0.1c-10.9,0-13.7,2.8-13.8,13.6c0,3.4,0,6.9,0,10.8c-10.6,0-20.4,0-30.8,0c0-18.4,0-36.7,0-55.5
		c122,0,244,0,366.5,0C483.3,23.6,483.3,28,483.3,33.4z" fill="currentColor"/>
	<path d="M326.6,403.5c0-21,0-41.1,0-61.5c52.4,0,104.3,0,156.8,0c0,20.6,0,40.8,0,61.5C431.1,403.5,379.1,403.5,326.6,403.5z" fill="currentColor"/>
	<path d="M326.9,484.1c0-20.7,0-40.9,0-61.4c52.4,0,104.2,0,156.9,0c0,7,0,13.6,0,20.2c0,12,0,23.9,0.2,35.9c0,3.8-0.8,6-5.4,5.9
		c-49.4-0.1-98.7-0.1-148.1-0.1C329.3,484.6,328.1,484.3,326.9,484.1z" fill="currentColor"/>
	<path d="M130.5,752.2c0-6.6,0-12.2,0-16.5c8.5-3.7,16.8-6,23.6-10.5c10.3-6.8,15.2-17.6,15.9-29.9c0.3-6.1,2.7-10.5,8.9-10.8
		c6.7-0.3,9.5,4,9.9,10.5c1.8,31.4,34.1,46.7,57.8,33.9c12.5-6.7,19.8-17.1,21.2-31.4c0.1-1.5,0.3-3,0.5-4.5
		c0.9-5.4,4.1-8.9,9.5-8.7c5.8,0.2,9,3.9,9.2,9.8c0.3,10.1,3.6,19.1,10.7,26.4c11.9,12.3,26.3,16.1,42.3,10.4
		c16-5.7,24.5-17.8,26.4-34.8c0.4-3.2,1.4-7.1,3.6-9.2c1.9-1.8,6.5-2.8,8.6-1.7c2.8,1.4,5.8,5,6.4,8.1c5.4,27.2,13,35.4,39.5,40.7
		c0.1,2.1,0.3,4.3,0.3,6.4c0.1,3.7,0,7.4,0,11.6c-20.9-0.5-36.4-9.5-48.9-26.1c-12.3,16.5-28.4,26-48.8,26.1
		c-20.6,0.1-36.8-9.2-49.4-26.1c-12.5,16.7-28.6,26.2-49.1,26.1c-20.2,0-36.4-9.1-48.9-26.2C167.1,742.2,151.6,751.8,130.5,752.2z"
		fill="currentColor"/>
	<path d="M736.4,798.6c0,6.2,0,12,0,18.4c-20.6-0.7-36.2-9.5-48.7-26.1c-12.4,16.5-28.4,26.1-48.9,26.1c-20.6,0.1-36.7-9.3-49-25.7
		c-27.7,35.6-74.4,32.8-98.9-0.1c-11.8,16-27.3,25-48,25.9c0-6.1,0-11.9,0-18.2c2.8-0.6,5.9-1.2,8.9-2c17.3-4.6,28.3-17.8,29.7-35.9
		c0.5-6,2.1-10.9,9.1-11.6c6-0.5,9.6,3.5,10.1,11.1c2.4,30.6,34.2,47.5,60.3,31.7c11.7-7.1,17.7-17.8,18.9-31.3
		c0.7-7.9,3.8-11.8,9.7-11.5c7,0.4,8.8,5.2,9.4,11.2c2.3,22.1,17.6,37,38.2,37.5c21.4,0.5,37.4-13.9,40.9-36.5
		c0.6-3.8,2.1-8.6,4.9-10.8c6-4.6,13.1,0.4,13.9,9.2c1.7,18.9,13,32.7,30.5,37.1C730.3,797.7,733.2,798,736.4,798.6z" fill="currentColor"/>
	<path d="M265.3,263.7c0,41.7,0,83.5,0,125.9c-14.8,0-29.5,0-45,0c0-9.4,0-18.3,0-27.2c0-10.2,1.1-20.6-0.2-30.6
		c-2.5-18.2,3.4-31.7,17.8-43.1c9.5-7.5,17.1-17.3,25.6-26C264,263.1,264.6,263.4,265.3,263.7z" fill="currentColor"/>
	<path d="M212.3,76c15.3,15.4,31.1,31.3,46.7,47.1c-14.8,14.8-30.1,30.2-46.7,46.9C212.3,137.7,212.3,106.6,212.3,76z" fill="currentColor"/>
	<path d="M501.9,150.8c-5.8,0-11.2,0-17.4,0c0-36,0-71.9,0-108.3c5.6,0,11.2,0,17.4,0C501.9,78.4,501.9,114.1,501.9,150.8z" fill="currentColor"/>
	<path d="M214.4,283.3c0-27.4,0-55.3,0-81.8c13.3,13.3,27.5,27.4,41.3,41.1C242.7,255.4,228.8,269.1,214.4,283.3z" fill="currentColor"/>
	<path d="M265.2,146.5c0,25.1,0,50,0,74.3c-12.4-12.6-24.9-25.1-37.3-37.6C239.6,171.7,252.2,159.2,265.2,146.5z" fill="currentColor"/>
	<path d="M683.9,277.9c0-12.5,0-24.6,0-37.4c5.8,0,11.6,0,18,0c0,12.1,0,24.4,0,37.4C696.4,277.9,690.6,277.9,683.9,277.9z" fill="currentColor"/>
	<path d="M236.7,69.3c0,0,0.9-0.2,1.8-0.2c8.7,0,17.4,0,26.6,0c0,10.2,0,19.9,0,29.1C255.7,88.6,246.2,79,236.7,69.3z" fill="currentColor"/>
	<path d="M484,190.5c0-6.6,0-12.6,0-19.1c6,0,11.6,0,17.9,0c0,6.2,0,12.4,0,19.1C495.9,190.5,490.1,190.5,484,190.5z" fill="currentColor"/>
	<path d="M675.6,551.3c-2.6,1.5-5.3,4.4-7.8,4.1c-2.2-0.2-6-4.3-5.6-5.9c0.6-2.5,3.8-5.9,6.3-6.1c2.2-0.3,4.8,3.1,7.3,4.9
		C675.7,549.3,675.6,550.3,675.6,551.3z" fill="currentColor"/>
	<path d="M757.6,549.1c-4.6,3.3-7.1,6.4-9.6,6.4c-2.2,0-6.3-3.7-6.1-5.4c0.3-2.6,3.3-6.2,5.7-6.7C749.8,543,752.7,546.1,757.6,549.1
		z" fill="currentColor"/>
	<path d="M616.3,403.4c0-3.2,0-5.8,0-8.8c3,0,5.5,0,8.4,0c0,3.1,0,5.7,0,8.8C622,403.4,619.4,403.4,616.3,403.4z" fill="currentColor"/>
	<path d="M551.9,403.1c-9.1,1.6-9.7,1.1-8-8C553.1,393.4,553.6,393.9,551.9,403.1z" fill="currentColor"/>
	<path d="M687.5,394.5c4.3,0,6.7,0,10.6,0c-0.6,3.2-0.6,6.4-1.9,8.8c-0.5,0.9-5.2,1-6.1,0C688.6,401.4,688.5,398.3,687.5,394.5z" fill="currentColor"/>
</g>
</svg>
