<?xml version="1.0" encoding="utf-8"?>
<!-- Generator: Adobe Illustrator 22.0.0, SVG Export Plug-In . SVG Version: 6.00 Build 0)  -->
<svg version="1.1" id="Calque_1" xmlns="http://www.w3.org/2000/svg" xmlns:xlink="http://www.w3.org/1999/xlink" x="0px" y="0px"
	 viewBox="0 0 866 886" style="enable-background:new 0 0 866 886;" xml:space="preserve">
<g>
<path d="M368.1,33c0.1,0.2,0.2,0.6,0.4,0.7C404.3,49,413.4,71,399,107.3c-4.9,12.4-9.8,24.8-15.2,38.3c9.8,1.9,19.1,3.8,28.4,5.6
	c23,4.5,35.4,18.7,34.4,39.5c-0.8,17.6-16,32.9-33.7,33.6c-6.2,0.2-12.4,0-19.6,0c7.9,19.9,15.4,38.8,22.9,57.7
	c6.7,16.9,1.8,24.3-16.2,24.3c-10.8,0-21.6,0-32.5,0.1c-0.5,0-1.1,0.2-2.9,0.6c0,15.5,0.2,31.3,0,47.1c-0.2,15.8,2.3,32-6.7,46.7
	c10.1,1.5,19.6,2.4,28.8,4.5c29.2,6.5,53.3,21.7,70.5,46c15.4,21.8,29,44.8,43.8,67.8c-8,5.1-15.4,9.8-22.9,14.6
	c-21.4-27.6-33.5-61.3-61.3-84.9c-46.5,84.8-92.5,168.6-139,253.4c27.9,0,54.5,0,83,0c-13.1-11.4-18.2-25.1-14.4-40.8
	c3.9-16.2,15.4-25.3,31.7-29.2c0-26.2,0-52.4,0-79.2c9.1,0,17.7,0,27.4,0c0,9.9-0.3,19.7,0.2,29.6c0.2,4,1.3,8.5,3.3,11.9
	c17.3,28.8,34.2,57.8,52.7,85.7c6.3,9.6,16.8,16.5,27,26.1c3.3-21.9,6.3-41.3,9.2-60.8c8.1-55.7,16-111.4,24.3-167
	c3.1-20.9,20.4-35.3,41.6-35.5c3.1,0,6.3-0.2,9.4,0c14.1,1.2,26,0.2,36-13.3c9.1-12.4,24.7-15.4,40.3-14c6.4,0.6,9.9-1,12.2-7.9
	c6.5-19.3,25.9-32.9,45.4-33.1c22.1-0.3,36.8,14.5,36.6,36.9c0,1.1,0,2.2,0,4.1c3.3,0,6.4,0,9.5,0c15.9,0.1,27.3,7.3,33.1,22.1
	c1.7,4.5,4,5.6,8.1,5.2c24.7-1.9,40.6,9.5,48.8,32.4c0,6.3,0,12.5,0,18.8c-0.8,3.8-1.9,7.5-2.5,11.4c-4.3,28.8-8.7,57.6-12.7,86.4
	c-0.4,3.1,0,6.8,1.5,9.4c4.2,7.2,9.1,14,13.8,20.9c0,5.7,0,11.4,0,17.1c-0.5,1-1.3,1.9-1.5,3c-5.3,26.2-10.5,52.3-15.6,78.5
	c-4.5,23.3-20,36.3-43.4,36.3c-14.2,0-28.5,0.2-42.7,0c-22.6-0.3-40.4-21.1-36.3-43.2c5.4-29.3,11.3-58.6,17.6-87.7
	c4.6-21,20.3-32.9,41.7-33c12.2,0,24.3,0,36.7,0c5.4-36.3,10.7-71.7,15.9-107.1c1.2-8.1-4.6-14.8-13.2-15.8
	c-3.7-0.4-7.4,0.1-11.1-0.3c-4.8-0.5-7.2,1.1-8.2,6.1c-1.3,7.2-3.4,14.4-5.2,21.5c-2.7,10.3-6.8,13.4-17.6,13.4
	c-53.2,0-106.5,0-159.7,0c-13.9,0-19.2-6.8-15.9-20.1c1.6-6.7,3.2-13.5,4.9-20.8c-4.1,0-6.9,0-9.7,0c-5.1,0-10.3-0.2-15.4,0.1
	c-8.4,0.4-13.7,5.2-15,13.6c-6.9,46.9-13.8,93.9-20.6,140.8c-8.8,60.4-17.5,120.9-26.4,181.3c-1.9,12.8,3.3,19.5,16.6,19.5
	c77.2,0.1,154.3,0.1,231.5,0c11.4,0,16.1-4.6,17.7-16.3c1.2-8.7,2.6-17.3,4.1-26.8c9.2,1.4,17.7,2.7,26.9,4
	c-0.8,6.5-1.9,12-2.2,17.6c-1.4,23.3-10.8,40.8-34.1,48.8c-223.8,0-447.6,0-671.4,0c-1.8-0.7-3.5-1.5-5.3-2
	c-30.9-8.7-51.3-28.2-60.4-59.1c-0.9-3-1.7-5.9-2.6-8.9c0-86,0-172,0-258c9,0,18,0,27.3,0c0,4.7,0,8.1,0,11.5
	c0,76.6,0,153.1,0,229.7c0,36.7,23,59.5,59.8,59.5c63.5,0,126.9,0,190.4,0c3,0,6,0,8.8,0c0-32.6,0-64,0-95.7c-53.3,0-106,0-158.6,0
	c-14.3,0-18.4-4-18.4-18.1c0-50.1,0-100.2,0-150.3c0-3,0-6,0-8.8c9.8,0,18.2,0,27.4,0c0,50.1,0,99.8,0,149.4
	c0.7,0.4,1.5,0.8,2.2,1.1c1.8-2.3,4.1-4.4,5.5-6.9c22.5-40.8,44.8-81.7,67.4-122.5c2.6-4.8,2.4-7.6-1.3-11.7
	c-39-42.6-77.8-85.4-116.9-128c-2.1-2.3-7-3.9-10.1-3.3C80,436,62.4,451.8,53.8,477.4c-2.1,6.3-2.9,13.1-4.3,20.3
	c-8.9,0-17.6,0-26.4,0c0-4.6,0-9.1,0-13.7c0.6-1.6,1.3-3.1,1.7-4.7c9-39.4,33.3-64.4,72.1-74.7c6.7-1.8,8.4-3.9,8.3-10.5
	c-0.3-58.9-1.6-117.8,0.4-176.6c1.4-39.8-3.8-77.2-22.2-112.6c-1.3-2.5-2.1-5.3-3-8c-8.4-25.7,4.5-52.2,29.8-61.6
	c1.8-0.7,3.4-1.6,5.2-2.4C199.5,33,283.8,33,368.1,33z M221.9,177.1c-2.7,7.9-5.2,15.5-7.7,23c-2.4,7-7,10.8-14.7,10.5
	c-3.4-0.1-6.8-0.1-10.2,0c-11,0.3-19.8,6.2-22.5,15.1c-3.1,10.1,1,19.9,10.9,26.2c11.6,7.4,12.5,15.8,2.8,25.6
	c-14.2,14.4-28.8,28.4-42.7,43.1c-2.9,3.1-5.2,8.1-5.3,12.3c-0.5,20.2-0.2,40.4-0.2,60.6c0,2.7,0,5.4,0,8.4c11.6,0,21.8,0,32.1,0
	c47.5,0,95.1,0,142.6,0c16.5,0,28.4-9.3,29.9-24.4c1-9.8,0.2-19.7,0.2-30.5c-13.9,0-27.1,0-40.3,0c0-9.4,0-17.8,0-27.2
	c13.6,0,26.8,0,39.7,0c0.5-1.5,0.8-2,0.8-2.5c0.1-7.4,0.1-14.8,0.1-22.2c0.1-11.4,4.7-16.1,15.9-16.2c10.3-0.1,20.7,0,32,0
	c-7.5-18.7-14.3-36.1-21.4-53.4c-0.7-1.7-2.1-4-3.6-4.2c-12.4-2.3-24.8-4.2-37.5-6.2c2.2,18-3.3,29.3-16.2,34.6
	c-11.1,4.6-24.2,1.6-31.4-8.4c-3.2-4.4-6.2-10.5-5.7-15.4c0.8-8.2,4.4-16.1,7-24.5C259.8,194.1,241.2,185.8,221.9,177.1z
	 M196.1,702.7c14.7,0,28.3-0.4,41.9,0.2c6.4,0.3,9.4-2.1,12.4-7.5c46-84.3,92.2-168.4,138.3-252.6c1.2-2.1,2.2-4.4,4.4-8.9
	c-13.9-1.6-26.5-3-38.9-4.6c-6.2-0.8-9.5,1.7-12.5,7.2c-46.9,86-94.1,171.9-141.2,257.8C199,696.7,197.9,699.2,196.1,702.7z
	 M376.4,73.3c-4.5-9.5-11.9-13-21.4-13c-75.7,0-151.4-0.1-227.1,0.1c-17.7,0-26.9,13.7-20.6,30.1c5.7,14.8,12.2,29.4,17.5,44.3
	c2.3,6.4,5.5,7.7,11.7,7.7c56.1-0.2,112.1-0.1,168.2-0.1c2.8,0,5.5,0,9.1,0c-1.6-5.2-2.9-9.4-4.4-14.2c-50.2,0-99.8,0-149.4,0
	c0-9.2,0-17.7,0-26.8c3.5,0,6.6,0,9.6,0c45.5,0,91-0.1,136.6,0.1c5.1,0,8.6-0.7,11.7-5.8c6.4-10.6,16.1-17.9,28.4-20
	C355.9,74,365.7,74.1,376.4,73.3z M762.4,730c6.2,0,12.5,0.1,18.7,0c11.1-0.1,15.5-3.7,17.6-14.4c5.3-26.7,10.6-53.3,16-80
	c1.9-9.7-1.9-14.8-11.7-14.9c-13.1-0.2-26.1-0.2-39.2,0c-9.4,0.1-14.4,4-16.2,13c-5.5,27.2-10.8,54.5-16.1,81.7
	c-1.9,9.7,2.1,14.3,12.1,14.6C749.9,730.1,756.1,730,762.4,730z M474.4,825.3c0-7.8-0.7-14.7,0.1-21.3c2.5-19.7,4.8-39.5,8.8-58.9
	c2.2-11-6.4-12.3-11.5-16.1c-5.4-3.9-9.3-12.4-18.6-8.7c-14.2,5.8-28.5,11.2-42.6,17.3c-2.3,1-4.8,4.7-4.8,7.2
	c-0.3,25.6-0.2,51.2-0.2,76.8c0,1.3,0.6,2.6,0.9,3.7C429.8,825.3,452.5,825.3,474.4,825.3z M752.6,483.7c2.6-10,5.2-19.9,7.6-29.8
	c1.8-7.3-0.9-10.6-8.5-10.9c-5.1-0.2-10.2,0-15.4,0c-24.4,0-26.9-3.3-21.8-27.6c0.8-3.6,0.3-9.5-2-11.3c-2.5-1.9-8.1-1.2-11.8,0.1
	c-3.5,1.2-7.5,3.8-9.3,7c-3.2,5.8-5.4,12.4-7.3,18.8c-3,9.8-6.8,13-17,13.1c-7.7,0.1-15.6-1.2-23,0.4c-6.8,1.5-15.5,4.3-18.7,9.5
	c-5.5,8.9-7.5,20-11.2,30.9C661.7,483.7,706.9,483.7,752.6,483.7z M378,825.4c0-32.1,0-63.3,0-94.9c-13.6,0-26.8,0-40.7,0
	c0,16.1,0,31.7,0,47.2c0,15.8,0,31.6,0,47.7C351.4,825.4,364.4,825.4,378,825.4z M252.6,542.3c4.4-12.1,15.1-20.1,11.3-33.4
	c-1.3-4.6-1.9-9.5-2.6-14.2c-3.2-20.8-10.1-41.7,1.1-62.3c0.3-0.6,0-1.6,0-2.4c-11.6,0-23,0-35.4,0c2.9,4.4,4.9,8.2,7.5,11.4
	c6.3,7.8,8.1,16,5.9,26.1c-3.5,15.5-5.4,31.3-7.7,47c-0.3,2.2-0.2,5.3,1.1,6.9C239.3,528.1,245.4,534.4,252.6,542.3z M277.6,169.6
	c-0.1,0.5-0.3,1-0.4,1.5c1.2,0.6,2.3,1.3,3.5,1.8c30.6,11.7,62.3,19,94.9,22.3c11.3,1.1,22.7,1.9,34,1.4c3.3-0.1,7.9-4.5,8.9-7.9
	c0.7-2.1-3.7-7.9-6.7-8.7c-16.8-4-33.7-9-50.8-10C333.4,168.5,305.5,169.6,277.6,169.6z M150.9,266.1c-0.6-0.8-1.6-2.1-2.6-3.4
	c-22.8-32-5.6-73.5,33.5-78.6c10.3-1.3,11.5-6.3,12.4-13.9c-20.8,0-41.1,0-61.4,0c0,38.6,0,76.5,0,114.2
	C138.7,278.5,144.4,272.7,150.9,266.1z M149.7,429.3c20.1,22,38.5,42.2,57.2,62.7c7.8-20.6,7.5-38.3-7.6-53.5
	c-1.6-1.6-2.3-4.1-3.9-5.6c-1.7-1.6-4-3.4-6-3.4C177,429.2,164.5,429.3,149.7,429.3z M435.4,697.7c-15.4-12.3-29.3-23.5-43.2-34.6
	c-5.7-4.5-11.5-4.9-16.6,0.7c-4.3,4.7-3.4,11.4,2.4,16.4c9.6,8.4,19.3,16.7,29.1,24.8c1.4,1.2,4.2,2.1,5.8,1.6
	C419.9,704.1,426.9,701.1,435.4,697.7z M371.5,101.7c-22.1-1.3-32.6,4.7-34,18.4c-1.1,10.3,6.2,19.1,18.1,21.2
	C360.7,128.5,366,115.4,371.5,101.7z M287.6,477.6c8.8-16.1,17.4-31.8,26.4-48.3c-5.8,0-10.1,0.4-14.3-0.1c-5.6-0.6-7.7,1.8-9.5,7
	C285.8,449.4,280.6,462.3,287.6,477.6z" fill="currentColor"/>
</g>
</svg>
