<?xml version="1.0" encoding="utf-8"?>
<!-- Generator: Adobe Illustrator 22.0.0, SVG Export Plug-In . SVG Version: 6.00 Build 0)  -->
<svg version="1.1" id="Calque_1" xmlns="http://www.w3.org/2000/svg" xmlns:xlink="http://www.w3.org/1999/xlink" x="0px" y="0px"
	 viewBox="0 0 431.9 355" style="enable-background:new 0 0 431.9 355;" xml:space="preserve">
<g>
	<path d="M422,218.6c0,35.7,0,71.4,0,107.1c-7.2,15.4-19.1,21-36.2,20.9c-113.2-0.5-226.4-0.5-339.6,0c-17.1,0.1-29.1-5.4-36.2-20.9
		c0-54.9,0-109.9,0-164.8c37.4,0.1,74.8,0.3,112.2,0.1c6.5,0,9.7,1.9,12,8c4.3,11.5,10.2,22.5,14.2,34.1
		c3.9,11.3,10.8,14.8,22.5,14.7c79.3-0.4,158.6-0.2,237.8-0.2C413.1,217.7,417.6,218.3,422,218.6z M90.3,274.1
		c-6.8,0-13.7-0.2-20.5,0.1c-6.8,0.3-10.9,4.3-11.3,10.9c-0.5,7.2,3.4,12.3,10.5,12.7c14.3,0.6,28.7,1,42.9-0.4
		c3.9-0.4,9.4-7.1,10.1-11.5c1.1-6.6-3.9-11.4-11.3-11.6C104,273.9,97.1,274.1,90.3,274.1z" fill="currentColor"/>
	<path d="M372.7,193.6c-4.2,0-7.3,0-10.3,0c-60.8,0-121.5-0.1-182.3,0.2c-6.8,0-10.5-1.7-13-8.3c-4.6-12.2-10.5-23.9-15.1-36
		c-3.4-9-9-12.7-18.7-12.5c-20.6,0.4-41.2,0.1-61.8,0.1c-3.7,0-7.4,0-12.5,0c0-10.7,0-20.6,0-30.4c0-22.7-0.1-45.3,0.1-68
		C59.3,19.8,70.4,8.5,89.3,8.4c84.8-0.1,169.6-0.1,254.4,0c16.3,0,28.7,10.8,28.8,26.1C372.9,87,372.7,139.5,372.7,193.6z
		 M231.6,72.6c28.8,0,57.6-0.1,86.5,0.1c8.6,0,14.4-3.4,14.3-12.3c-0.1-8.3-6-11.7-14-11.7c-57.6,0-115.3-0.1-172.9,0.2
		c-3.9,0-8.9,2.3-11.4,5.2c-2.1,2.5-2.9,8.8-1.2,11.1c2.7,3.5,7.9,7,12.2,7.1C174,72.9,202.8,72.6,231.6,72.6z M265.4,97
		c-17.8,0-35.7,0.2-53.5-0.1c-8.7-0.1-15.1,2.4-16,11.9c-0.7,7.4,5.7,12.3,15.7,12.4c35,0.1,70,0,105,0.1c8.5,0,15.2-2.6,15.9-12.1
		c0.6-7.6-5.4-12.1-15.6-12.1C299.7,96.9,282.6,97,265.4,97z" fill="currentColor"/>
</g>
</svg>
