<?xml version="1.0" encoding="utf-8"?>
<!-- Generator: Adobe Illustrator 22.0.0, SVG Export Plug-In . SVG Version: 6.00 Build 0)  -->
<svg version="1.1" id="Calque_1" xmlns="http://www.w3.org/2000/svg" xmlns:xlink="http://www.w3.org/1999/xlink" x="0px" y="0px"
	 viewBox="0 0 431.9 418.1" style="enable-background:new 0 0 431.9 418.1;" xml:space="preserve">
<g>
	<path d="M22.9,294.3c1.2-6.9,2.1-13.9,3.8-20.6c10.1-39.2,32.9-68.2,69.6-86c4.1-2,7-2,11,0.8c32.6,23.3,76.5,22.9,108.8-0.8
		c2.9-2.2,5.2-2.6,8.3-0.9c7,3.9,14.1,7.6,21.8,11.7c-7.2,5.1-13.5,9.5-19.9,14c-7.9,5.6-9.1,12.4-3.6,20.4
		c2.6,3.8,5.3,7.7,7.8,11.6c0.5,0.8,0.9,2.4,0.5,2.8c-0.6,0.7-2,1.2-3,1.1c-4.8-0.7-9.6-1.7-14.5-2.5c-8.1-1.4-14.1,2.8-15.6,10.9
		c-1.9,10.1-3.6,20.3-5.4,30.4c-0.5,2.7-1.1,5.4-1.5,8.2c-1.1,8.3,2.9,13.9,11.2,15.4c4.4,0.8,8.9,1.5,13.3,2.5
		c1.1,0.2,2.4,1.2,2.8,2.2c0.2,0.6-0.8,2.2-1.7,2.8c-3.9,3-8,5.7-11.9,8.6c-6.4,4.8-7.6,11.9-3.2,18.6c3.9,5.8,7.8,11.6,12.1,17.8
		c-41.2,0-81.7,0-121.6,0c0-11.8,0.1-23.6-0.1-35.4c0-3.7-2.7-6-6-5.9c-3.2,0-5.8,2.3-5.8,5.7c-0.1,10.8,0,21.6,0,32.4
		c0,1,0.4,1.9,0.7,3.6c-19.5,0-38.8,0-58.1,0C22.9,340.5,22.9,317.4,22.9,294.3z" fill="currentColor"/>
	<path d="M169.2,16c3.2,0.7,6.4,1.2,9.5,2c36,9.4,57.4,33.1,65.4,68.8c7.8,34.9-7.6,72.8-36.7,92.5c-39.7,26.8-91.7,15.1-117.7-26.5
		C63.2,110.2,76.9,52.7,119.8,27.3c9.6-5.7,20-9.3,31.1-10.6c0.8-0.1,1.7-0.4,2.5-0.7C158.6,16,163.9,16,169.2,16z" fill="currentColor"/>
	<path d="M304.2,402.1c-8.7-1.8-17.4-3.5-26.1-5.3c-3.1-0.6-6.2-1.2-9.3-1.7c-2.8-0.5-3.8-1.8-3.3-4.7c1.2-6.4,2.2-12.9,3.5-19.3
		c0.6-3.1-0.4-5-3-6.5c-2-1.1-4.1-2.1-5.7-3.6c-3.1-2.7-5.7-2.2-8.7,0c-5,3.6-10.2,6.9-15.2,10.5c-2.2,1.5-3.6,1.5-5.2-0.9
		c-6.8-10.3-13.6-20.5-20.6-30.6c-1.7-2.5-1.3-3.9,1-5.5c5.2-3.6,10.2-7.4,15.3-11c2.7-1.8,3.4-4.1,2.5-7.1c-0.7-2.3-1.1-4.6-1.4-7
		c-0.4-3.2-2-4.9-5.2-5.4c-6.3-1.1-12.5-2.6-18.9-3.6c-2.8-0.4-3.1-1.6-2.7-4.1c2.2-12.2,4.4-24.5,6.5-36.7c0.6-3.4,2.3-4.3,5.6-3.5
		c5.8,1.3,11.6,2.2,17.4,3.3c3.4,0.7,5.9,0,7.3-3.5c0.5-1.4,1.3-2.8,2.4-3.8c4-4.1,3.1-7.8-0.2-11.9c-3.5-4.4-6.3-9.4-9.5-14
		c-1.4-2-1.1-3.4,0.8-4.7c10.3-7.1,20.6-14.3,30.9-21.5c2.1-1.4,3.5-1.1,5,1.1c3.5,5.4,7.2,10.6,10.7,15.9c1.7,2.7,3.8,3.9,7,2.6
		c0.9-0.4,1.9-0.6,2.9-0.7c9.3-1.4,8.6-1,10.2-10.3c0.9-4.9,1.9-9.9,2.7-14.8c0.5-2.7,1.8-3.5,4.5-3c12,2.3,23.9,4.5,35.9,6.6
		c2.8,0.5,3.8,1.8,3.2,4.7c-1.3,6.5-2.3,13.1-3.5,19.6c-0.5,2.8,0.4,4.5,2.8,5.9c2.3,1.3,4.6,2.6,6.7,4.2c2.5,2,4.7,1.7,7.2,0
		c5.3-3.6,10.6-7.2,15.9-10.7c1-0.7,2.1-1.3,3.4-2c5,7.4,9.8,14.6,14.6,21.8c2.5,3.8,4.9,7.6,7.6,11.2c2,2.6,1.3,4.2-1.1,5.8
		c-5.2,3.5-10.2,7.3-15.5,10.8c-2.7,1.8-3.7,3.9-2.5,7c0.5,1.3,0.7,2.7,0.9,4c1.3,7.7,1.3,7.7,8.8,9.1c4.7,0.8,9.4,1.6,14.1,2.6
		c1.8,0.4,3.4,1.3,5.1,2c0,1.3,0,2.5,0,3.8c-0.3,0.8-0.6,1.6-0.8,2.5c-2,11-4.1,22-5.9,33c-0.6,3.6-2.3,4.3-5.5,3.7
		c-5.5-1.1-11.2-1.8-16.6-3.2c-4.4-1.1-6.9,0-8.6,4.2c-0.7,1.8-2,3.5-3.2,5.1c-2.2,2.6-1.9,4.9,0,7.5c3.7,5.2,7.1,10.7,10.7,15.9
		c1.7,2.4,1.5,3.9-0.9,5.6c-10.2,6.9-20.3,13.9-30.4,21c-2.2,1.5-3.6,1.2-4.9-1c-2.8-4.3-6.1-8.4-8.6-12.8
		c-2.8-5.1-6.3-7.6-12.1-5.1c-1.1,0.5-2.5,0.6-3.7,0.6c-3.6,0.2-5.3,2.1-5.9,5.6c-1,6.1-2,12.1-3.2,18.2c-0.3,1.5-1.4,2.8-2.2,4.1
		C306.2,402.1,305.2,402.1,304.2,402.1z M304.8,340.5c24.1,0.3,44.2-19.8,44.5-44.2c0.3-24.6-19.5-45.1-43.9-45.3
		c-24.1-0.3-44.2,19.9-44.4,44.7C260.8,320.1,280.4,340.2,304.8,340.5z" fill="currentColor"/>
	<path d="M338.9,296.1c-0.1,18.7-15.5,34.2-34,34.2c-18.4,0-33.9-16-33.8-34.8c0.1-18.8,15.8-34.5,34.3-34.4
		C323.9,261.2,339,277,338.9,296.1z" fill="currentColor"/>
</g>
</svg>
