<svg width="925" height="917" viewBox="0 0 925 917" fill="none" xmlns="http://www.w3.org/2000/svg">
<g opacity="0.08">
<path d="M632.826 367.505C631.757 368.218 631.4 368.93 631.044 370C619.996 374.989 608.591 378.553 596.83 381.761C596.83 381.404 596.83 381.048 596.83 380.691C595.048 375.702 593.623 371.425 590.415 367.149C588.633 365.01 585.426 363.941 583.287 366.079C582.575 366.792 581.862 367.862 580.793 368.574C580.436 367.505 580.436 366.792 579.724 365.723C579.011 363.585 576.872 362.159 574.734 362.516C575.09 360.021 575.447 357.526 575.803 354.675C576.516 349.686 569.745 349.329 567.606 352.537C563.686 357.883 559.766 363.229 556.202 368.574C558.696 361.447 561.191 354.675 562.26 347.191C562.973 343.271 558.34 339.35 554.776 342.914C542.303 356.813 532.68 372.138 521.988 387.107C527.69 369.643 538.382 353.962 544.441 336.499C545.866 332.223 540.164 329.371 536.957 332.222C524.127 344.34 514.86 358.595 505.594 373.564C513.435 356.1 523.057 339.706 530.542 321.887C532.324 317.967 525.909 314.403 523.057 317.61C514.148 327.946 506.307 338.637 498.823 350.042C506.663 332.935 514.148 315.472 518.068 296.94C519.137 291.95 513.078 289.456 509.871 293.376C493.477 315.472 487.418 343.983 470.668 365.367C475.301 336.856 491.339 311.552 498.466 283.753C499.536 279.12 493.121 275.913 490.27 280.189C481.003 296.227 474.232 312.977 466.391 329.728C473.163 307.632 486.349 286.961 491.339 264.152C492.408 259.519 485.636 255.955 483.142 260.588C472.094 281.971 462.827 304.78 449.641 325.095C453.561 302.998 463.897 282.684 470.668 261.301C472.094 256.668 464.966 253.46 462.471 257.737C455.343 272.349 448.928 287.317 440.731 301.573C442.157 282.328 453.205 263.439 456.412 244.55C457.125 239.917 451.067 236.71 448.215 240.987C439.662 255.242 435.742 272.705 425.406 285.892C428.614 266.29 442.513 248.827 441.444 228.157V227.8C449.997 231.008 458.907 233.502 467.817 233.859C468.53 234.215 469.599 234.215 470.668 233.859C474.945 233.859 479.221 233.502 483.142 232.79C509.158 227.8 530.898 209.268 543.728 186.102C544.797 185.39 545.51 184.321 545.51 182.895C553.707 166.857 557.984 149.038 557.627 131.575C559.053 131.218 560.122 130.149 560.478 128.724C560.835 128.724 561.191 128.724 561.548 128.724C575.09 124.447 588.633 120.17 602.889 117.319C618.214 114.112 613.224 156.166 613.224 163.294C612.868 193.23 617.501 223.523 621.065 253.46C623.203 272.349 626.411 290.881 628.905 309.413C631.044 317.61 640.31 362.159 632.826 367.505ZM552.638 393.878C551.212 394.234 550.143 394.591 548.717 394.947C554.063 387.463 559.409 379.979 564.399 372.495C564.042 374.277 563.686 376.059 563.686 377.84C562.973 382.83 569.745 383.186 571.883 379.979C572.596 379.266 572.952 378.553 573.665 377.484C573.665 377.841 573.665 377.84 573.665 378.197C574.378 381.761 578.654 382.473 581.149 380.335C582.575 378.909 584 377.484 585.426 376.059C586.495 378.197 587.208 380.335 587.92 382.473C587.92 382.83 588.277 383.186 588.633 383.543C576.516 387.463 564.755 390.314 552.638 393.878ZM541.233 397.442C534.105 399.937 526.978 402.431 519.85 404.926C529.472 392.452 538.382 378.909 547.648 366.079C544.441 374.989 541.233 383.543 539.451 392.809C539.451 394.947 540.164 396.373 541.233 397.442ZM472.45 423.458C471.381 423.815 470.668 424.528 469.955 425.597C436.455 369.287 401.885 313.334 372.304 254.529C373.73 254.886 375.155 254.529 376.225 253.46C381.214 248.471 385.134 242.768 389.055 237.423C386.56 247.045 384.778 257.024 385.134 267.359C385.134 271.28 389.767 273.418 392.619 270.567C398.321 265.221 402.597 259.162 406.518 252.747C402.954 263.439 399.746 274.131 397.964 285.179C397.252 289.456 401.885 292.663 405.449 289.456C416.497 279.12 422.555 265.934 429.327 252.747C423.981 267.716 415.784 281.971 417.209 298.722C417.566 302.642 421.486 304.424 424.694 301.929C428.614 298.722 432.178 294.802 435.029 290.525C432.891 299.435 432.178 308.344 433.96 317.61C434.673 321.531 440.018 321.531 442.157 318.68C442.87 317.611 443.582 316.541 444.295 315.472C442.157 324.026 440.731 332.579 440.375 341.845C440.375 345.409 445.364 348.26 447.859 345.052C451.779 340.063 455.343 335.074 458.551 330.084C455.7 338.994 454.274 347.903 454.274 357.526C454.274 361.803 460.333 363.941 462.471 359.665C463.184 358.239 463.897 356.813 464.966 355.388C463.184 362.872 461.758 370.712 461.758 378.909C461.758 382.83 466.391 384.612 469.242 382.117C475.301 376.415 480.291 370 484.567 362.872C479.578 374.633 474.588 386.394 471.024 398.511C469.599 403.144 476.727 406.351 479.221 402.075C486.349 389.245 493.477 376.415 501.318 363.941C495.259 376.415 489.913 389.245 487.418 403.5C486.349 408.49 492.408 410.985 495.615 407.064C505.594 392.809 514.148 377.84 523.77 363.585C516.999 377.128 510.94 390.671 509.515 406.352C509.515 407.421 509.871 408.49 510.584 409.203C497.754 413.479 485.28 418.825 472.45 423.458ZM413.646 412.41C405.805 398.155 397.252 384.255 387.985 370.713C369.097 342.201 349.495 313.69 322.766 291.594C332.032 270.923 342.367 250.609 350.564 229.226C381.927 297.653 421.486 361.803 459.976 426.309C441.444 429.873 425.05 433.081 413.646 412.41ZM299.244 202.853C306.728 193.23 314.569 184.32 321.34 174.342C323.835 178.262 325.973 182.182 327.399 186.102C332.388 200.358 335.952 214.614 341.655 228.513C339.873 233.502 337.734 238.135 335.596 242.768C324.192 228.869 311.718 215.683 299.244 202.853ZM329.894 129.08C330.25 129.08 330.25 129.08 329.894 129.08C340.229 154.384 349.852 180.4 361.613 204.991C361.613 205.348 361.969 205.348 361.969 205.348C357.336 208.555 352.703 211.763 348.07 215.326C347.001 216.039 346.644 217.108 346.644 217.821C342.011 203.922 339.16 188.597 332.745 175.767C329.181 168.639 324.904 161.868 320.628 155.097C313.143 141.554 317.064 134.069 329.894 129.08ZM322.053 87.7387C327.755 81.3237 334.17 70.2756 342.367 68.1373C347.001 66.7117 352.346 79.8981 353.772 82.7492C356.98 88.4514 359.831 94.5101 363.038 100.212C360.187 100.212 357.336 100.569 354.128 100.569C351.277 100.569 349.139 103.063 349.852 105.915C356.623 136.564 375.155 161.868 385.134 191.092C379.788 194.299 374.799 197.507 369.453 201.071C351.634 164.006 339.516 124.447 322.053 87.7387ZM371.948 108.409C375.155 108.409 378.363 108.053 381.927 108.053C383.709 108.053 384.778 107.34 385.491 105.915C398.321 142.266 414.715 177.193 430.752 212.119C418.635 204.635 407.587 195.012 398.677 186.102C397.252 184.677 395.113 184.321 393.331 185.39L392.975 185.746C383.352 159.373 366.958 135.851 359.831 108.409C362.682 108.409 365.176 108.053 368.028 108.053C369.097 109.122 370.522 109.122 371.948 108.409ZM416.14 221.385C408.3 232.077 402.597 244.194 394.757 254.886C396.182 242.056 400.815 229.582 404.023 216.752C405.092 212.832 399.746 208.911 396.539 212.475C391.193 218.534 386.916 224.949 382.64 231.364C385.134 222.811 388.342 214.257 391.193 205.704C392.975 200.358 384.421 197.863 382.64 203.209C377.294 218.178 371.948 232.433 369.097 248.114C364.82 239.205 360.543 229.939 356.267 221.029C356.267 220.672 355.91 220.672 355.91 220.316C363.394 214.614 391.906 192.517 396.182 196.794C403.667 204.635 412.576 211.05 421.486 217.465C425.763 220.316 430.752 223.167 435.742 225.662C435.385 226.018 435.029 226.375 434.673 226.731C425.05 239.561 419.704 254.886 411.151 268.429C415.427 253.817 420.773 239.561 423.981 224.593C425.406 219.603 418.991 217.108 416.14 221.385ZM397.964 58.5147C422.199 113.399 438.236 171.134 463.54 225.662C456.769 224.593 449.641 222.098 443.226 219.247C443.226 218.89 443.226 218.89 443.226 218.534C420.773 170.065 397.608 121.952 382.996 70.632C388.342 66.7118 392.975 62.435 397.964 58.5147ZM424.337 87.7387C428.97 82.7493 433.603 77.7597 439.306 73.8394C444.295 87.0259 449.285 99.856 454.63 112.686C469.242 148.681 480.291 185.39 494.546 221.741C494.546 222.098 494.903 222.098 494.903 222.454C488.131 225.305 481.003 226.731 474.232 226.731C452.849 182.182 438.236 135.139 420.417 89.1644C421.486 89.5208 422.912 89.1643 424.337 87.7387ZM431.109 17.1735C431.465 17.1735 431.821 17.1734 432.534 16.817C439.662 13.9659 446.79 11.4711 454.274 9.68919C459.264 8.26363 463.897 33.5675 464.609 36.775C470.668 57.802 478.509 78.1161 485.636 98.7868C497.754 133.713 504.525 170.421 521.988 203.209C516.286 208.912 509.871 214.257 502.743 218.534C490.626 187.528 481.36 155.453 468.886 124.447C454.63 89.1643 439.662 54.2381 431.109 17.1735ZM518.068 120.883C523.77 141.554 530.898 161.868 537.313 182.538C534.462 187.528 531.611 191.805 528.047 196.438C513.079 167.214 507.02 135.495 496.684 104.845C494.546 98.7868 492.408 92.7281 490.27 86.3131C510.94 87.7387 513.078 101.994 518.068 120.883ZM494.546 28.578C499.179 27.1525 503.812 25.7268 508.445 24.6576C527.334 20.0246 529.116 42.1209 531.967 53.5254C538.026 76.6907 545.154 99.8561 551.569 123.021C550.5 123.734 549.43 124.803 549.787 126.585C551.212 141.91 548.717 156.878 543.015 170.778C535.887 146.543 529.829 121.596 520.206 98.7868C515.93 88.4514 512.366 83.4621 506.307 80.6109C506.307 79.8982 506.307 79.1855 506.307 78.4727C502.03 61.7223 497.041 45.3284 494.546 28.578ZM548.361 67.4245C557.271 65.6425 567.25 61.0096 571.883 71.3449C577.942 84.8877 581.149 99.8561 586.495 114.112C577.942 116.25 569.745 119.101 561.191 121.596C561.191 121.596 560.835 121.596 560.835 121.952C556.558 104.489 552.638 85.9569 547.648 67.781C547.648 67.4246 548.005 67.4245 548.361 67.4245ZM642.448 347.547C641.736 328.659 638.884 309.77 636.746 291.237C632.826 261.657 628.905 232.433 626.054 202.853C622.847 172.56 625.698 141.91 621.778 111.617C621.421 109.835 619.283 108.053 617.501 108.409C610.017 108.766 602.532 110.191 595.048 111.617C590.772 100.212 587.564 88.4516 583.644 76.6907C581.862 71.3449 580.436 65.2862 576.872 61.0095C569.745 52.0997 556.202 56.3764 546.579 58.5147C546.223 58.5147 545.51 58.8711 545.154 59.2275C542.302 49.2486 538.739 39.6261 534.818 30.36C525.196 8.2638 508.089 15.3916 488.844 20.7374C486.349 21.4502 485.28 23.5885 485.636 26.0833C487.775 43.5464 492.764 60.653 497.397 77.4033C495.259 77.0469 492.764 77.0471 489.913 76.6907C488.844 76.6907 488.131 77.0469 487.418 77.4033C478.865 52.8124 470.668 28.5779 464.609 3.27421C463.897 0.779479 461.758 -0.289561 459.263 0.0668288C448.928 1.49239 440.018 4.69986 430.396 8.26376C428.97 8.62015 428.258 9.68937 427.545 10.7585C424.694 9.68937 420.773 11.8276 421.486 15.7479C425.406 32.4982 430.396 48.8921 436.098 64.9297C428.97 68.85 423.624 74.9086 418.279 80.9672C417.922 81.3236 417.922 81.6801 417.566 81.6801C413.289 70.632 408.656 59.9402 404.023 48.8921C402.954 46.7538 399.746 46.041 397.964 47.1102C390.837 52.456 384.065 58.1584 376.937 63.5042C375.155 64.5734 374.799 66.3553 375.155 68.1373C374.443 68.8501 374.086 70.2756 374.799 71.7012C377.294 80.9673 380.145 89.877 383.352 98.7868C382.996 98.7868 382.64 98.4304 382.283 98.7868C379.076 98.7868 375.868 99.1433 373.017 99.1433C368.74 89.8771 363.751 80.6109 358.761 71.7012C355.554 65.9989 352.346 60.2968 345.575 58.8712C333.458 55.6637 322.053 74.9088 315.282 82.0366C313.856 83.8185 313.856 85.6005 314.569 87.3824C313.856 88.4516 313.5 89.877 314.213 91.6589C318.846 101.281 323.122 111.26 327.043 120.883C312.431 126.585 306.016 130.506 308.51 147.256C309.58 154.384 313.5 160.799 317.42 167.57C315.995 167.57 314.925 168.283 313.856 169.352C306.372 180.044 297.819 190.023 289.622 200.714C288.552 202.14 288.909 204.635 290.334 206.06C304.59 220.672 318.489 235.997 331.676 251.678C325.974 264.508 319.558 276.982 314.213 290.168C313.856 290.881 313.856 291.594 313.856 292.307C313.5 293.732 313.5 295.158 314.925 296.227C350.208 324.738 373.017 364.297 397.964 401.718C406.518 414.549 410.082 430.23 424.337 437.714C435.742 443.416 452.848 437.001 464.966 434.15C467.46 436.288 471.381 434.863 472.45 432.368C473.163 432.368 473.519 432.368 474.232 432.012C503.456 420.964 532.324 408.846 562.26 399.936C588.99 392.096 615.719 386.75 640.666 374.989C643.874 373.564 643.517 370 641.379 367.861C643.517 361.803 642.805 353.25 642.448 347.547Z" fill="#E9C460"/>
<path d="M884.794 103.42C876.597 106.271 868.756 109.478 860.559 112.33C855.926 107.34 851.293 102.707 846.66 97.7173C833.83 83.4616 826.345 72.4135 825.276 103.42C824.92 110.904 824.564 118.388 824.207 125.873C817.436 128.367 810.308 130.862 803.536 133.357C776.094 142.979 781.797 147.613 803.18 152.602C809.239 154.028 814.941 155.453 821 156.879C819.574 165.076 818.861 172.917 818.505 181.114C816.723 206.418 828.484 203.21 836.681 192.875C843.452 184.321 850.936 175.768 858.064 167.214C866.618 169.709 875.171 172.204 883.724 174.699C908.315 181.827 923.284 178.619 901.9 155.81C896.198 149.394 890.139 143.336 884.081 137.277C889.07 131.575 893.703 125.873 897.98 119.814C908.315 105.202 906.89 95.5791 884.794 103.42Z" fill="#E9C460"/>
</g>
<g opacity="0.12">
<path d="M771.632 756.683C715.353 684.05 519.701 465.268 215.911 480.885" stroke="#E9C460" stroke-width="0.59" stroke-miterlimit="10" stroke-dasharray="2.01 2.01"/>
<path d="M786.071 756.683L788.428 779.813L767.36 770.237L786.071 756.683Z" fill="#E9C460"/>
<path d="M887.727 878.228C885.959 878.965 883.602 877.492 882.718 874.84C881.687 872.335 882.423 869.683 884.191 868.947C885.959 868.21 888.317 869.683 889.2 872.335C890.084 874.987 889.495 877.639 887.727 878.228ZM881.834 863.201C877.709 864.822 876.236 870.715 878.446 876.46C880.656 882.206 885.812 885.595 889.937 883.974C894.062 882.354 895.536 876.46 893.326 870.715C891.116 864.969 885.959 861.58 881.834 863.201Z" fill="#E9C460"/>
<path d="M866.364 788.211L886.99 842.133L873.288 847.437L846.917 795.725L866.364 788.211ZM880.802 860.549C885.958 858.634 892.441 862.759 895.24 870.125C895.387 870.567 895.535 871.009 895.682 871.598L925 860.254L910.267 833.146L893.03 839.776L869.605 778.929L750.27 835.208L781.061 915.502L793.879 910.64C793.731 910.198 793.437 909.756 793.289 909.314C790.49 902.095 792.405 894.582 797.562 892.666C802.718 890.751 809.201 894.876 812 902.243C812.147 902.685 812.295 903.127 812.442 903.716L876.971 878.965C876.824 878.523 876.529 878.081 876.382 877.639C873.73 869.978 875.645 862.464 880.802 860.549Z" fill="#E9C460"/>
<path d="M804.487 910.198C802.719 910.935 800.362 909.461 799.478 906.809C798.447 904.305 799.183 901.653 800.951 900.916C802.719 900.18 805.076 901.653 805.96 904.305C806.992 906.957 806.402 909.461 804.487 910.198ZM798.741 895.171C794.616 896.791 793.143 902.684 795.353 908.43C797.563 914.176 802.719 917.564 806.844 915.944C810.969 914.323 812.443 908.43 810.233 902.684C808.023 896.938 802.866 893.55 798.741 895.171Z" fill="#E9C460"/>
</g>
<g opacity="0.12">
<path d="M493.715 351.642C509.155 425.352 537.066 608.033 428.318 743.578" stroke="#E9C460" stroke-width="0.59" stroke-miterlimit="10" stroke-dasharray="2 2"/>
<path d="M421.934 751.223C326.919 862.198 186.698 859.006 70.8247 780.322" stroke="#E9C460" stroke-width="0.59" stroke-miterlimit="10" stroke-dasharray="2.01 2.01"/>
<path d="M492.453 345.777C492.602 346.446 492.75 347.039 492.899 347.707M69.1921 779.208C68.6725 778.837 68.0787 778.466 67.5591 778.095L69.1921 779.208ZM427.056 745.062C426.611 745.582 426.24 746.101 425.794 746.621C425.349 747.141 424.978 747.66 424.533 748.18L427.056 745.062Z" stroke="#E9C460" stroke-width="0.59" stroke-miterlimit="10"/>
<path d="M72.3837 774.012L60.7295 773.195L65.8514 783.736L72.3837 774.012Z" fill="#E9C460"/>
<path d="M56.2017 713.663C64.2928 714.182 71.122 710.322 78.9904 709.803C87.0073 709.283 97.3253 712.178 102.596 718.488C98.8099 719.824 95.2468 721.16 91.0899 721.754C91.0899 721.754 91.0899 721.754 91.0157 721.754C91.5353 720.269 92.1292 718.785 91.6838 717.374C91.3869 716.483 90.793 715.815 90.0507 715.37C86.7846 713.514 80.5492 715.815 81.6627 720.121C81.8854 720.863 82.1081 721.605 82.3308 722.422C77.8769 722.645 73.3489 722.57 68.8951 722.496C65.4805 717.745 60.7297 713.069 55.5336 715.667C53.0098 716.929 51.5994 718.859 50.8571 721.16C50.6344 721.902 50.4117 722.719 50.3375 723.61C48.8529 723.684 47.4425 723.758 45.9579 723.832C45.661 723.758 45.3641 723.758 45.1414 723.906C42.9887 724.055 40.7618 724.203 38.5349 724.352C38.3864 724.352 38.3122 724.426 38.1637 724.426C34.9718 720.195 30.8892 717.077 25.8415 721.383C24.5796 722.496 23.8373 723.906 23.4661 725.465C23.3919 725.391 23.2434 725.317 23.0208 725.243C22.2785 725.168 21.6104 725.02 20.9423 724.946C20.5712 724.871 20.1258 724.797 19.7546 724.723C19.8289 724.649 19.8289 724.575 19.8289 724.5C21.6846 718.191 28.1426 715.37 34.0068 713.811C41.5041 711.881 48.8529 713.143 56.2017 713.663ZM79.51 724.203C79.9554 724.203 80.475 724.203 80.9204 724.129C80.1039 724.575 79.3616 725.168 78.6192 725.614C78.9162 725.168 79.2873 724.723 79.51 724.203ZM82.9246 724.055C82.9246 724.055 82.9988 724.055 82.9246 724.055C83.37 725.168 83.8154 726.282 84.1865 727.47C83.4442 727.766 82.7762 728.286 82.0339 728.657C82.2565 727.247 82.6277 725.911 82.9246 724.575C83.0731 724.352 82.9988 724.203 82.9246 724.055ZM76.0212 727.247C75.8727 727.915 76.5408 728.36 77.1346 728.212C78.6192 727.766 79.7327 726.876 80.9946 726.059C80.6977 727.395 80.4008 728.731 80.3265 730.068C80.3265 730.661 80.9946 730.958 81.44 730.81C82.5534 730.439 83.37 729.696 84.4092 729.177C84.4092 729.919 84.335 730.736 84.2608 731.478C84.1865 732.369 85.3 732.74 85.7454 732.22C85.9681 733.334 86.1907 734.447 86.265 735.635C86.4134 738.233 84.4092 740.534 81.6627 739.124C79.9554 738.233 78.6192 736.897 77.4316 735.486C75.5016 733.259 74.2397 730.513 72.6808 727.989C72.6808 727.915 72.6066 727.841 72.6066 727.841C72.7551 727.915 72.9035 727.915 73.052 727.841C74.4624 727.395 75.5758 726.579 76.7635 725.762C76.3923 726.208 76.1696 726.653 76.0212 727.247ZM72.7551 724.203C73.8685 724.203 74.9077 724.203 76.0212 724.203C75.1304 724.797 74.2397 725.465 73.2747 725.911C73.2004 725.614 73.2004 725.243 73.2747 724.871C73.2747 724.5 73.052 724.278 72.7551 724.203ZM71.5674 725.02C71.5674 725.614 71.6416 726.059 71.7158 726.579C71.2704 725.836 70.7508 725.02 70.157 724.129C70.8251 724.129 71.5674 724.129 72.2354 724.129C71.8643 724.278 71.5674 724.575 71.5674 725.02ZM42.9145 725.614C42.3206 726.133 41.801 726.653 41.2072 727.098C41.2072 726.801 41.2072 726.505 41.2072 726.208C41.2072 726.133 41.2072 726.059 41.2072 725.985V725.911C41.2072 725.836 41.133 725.762 41.133 725.688C41.7268 725.688 42.3206 725.688 42.9145 725.614ZM47.9621 729.548C48.7787 728.286 49.6694 727.098 50.0406 725.762C50.1148 725.54 50.1148 725.391 50.0406 725.243C50.1148 725.243 50.189 725.243 50.2633 725.243C50.2633 725.391 50.2633 725.54 50.2633 725.688C50.189 726.876 50.189 728.063 50.189 729.177C49.0014 729.919 47.9621 730.958 46.8487 731.849C47.0714 731.033 47.5168 730.29 47.9621 729.548ZM48.0364 725.317C47.5168 725.688 46.9971 726.059 46.4775 726.505C45.9579 726.95 45.5125 727.321 44.9929 727.766C45.3641 727.024 45.8095 726.208 46.1806 725.465C46.8487 725.391 47.4425 725.317 48.0364 725.317ZM49.9664 731.329C49.8921 731.552 49.8179 731.701 49.8179 731.923C49.7437 732.294 49.8179 732.517 50.0406 732.666C49.9664 733.259 49.9664 733.853 49.8179 734.373C49.6694 736.303 48.1106 736.897 45.3641 736.154C44.9929 735.635 44.6218 735.041 44.3248 734.447C43.731 733.408 43.2856 732.294 42.6918 731.255C42.3206 730.587 41.8752 729.771 41.3556 728.954C42.0979 728.435 42.766 727.841 43.4341 727.247C43.2856 727.618 43.0629 727.915 42.9145 728.286C42.9145 728.36 42.8402 728.435 42.8402 728.583C42.6918 728.954 42.6176 729.325 42.5433 729.696C42.5433 729.919 42.5433 730.068 42.6176 730.216C42.6918 730.439 42.9145 730.587 43.1372 730.661C43.3599 730.736 43.5826 730.736 43.8795 730.587C45.0672 729.919 46.1064 729.028 47.0714 728.063C46.0322 729.696 44.9187 731.329 44.9929 733.408C44.9929 734.076 45.7352 734.299 46.2548 734.076C47.6652 733.482 48.7787 732.369 49.9664 731.329ZM32.5222 734.299C32.1511 733.259 31.8542 732.294 31.7057 731.107C31.9284 730.884 32.2253 730.736 32.448 730.513C32.6707 730.29 32.9676 730.142 33.1903 729.919C33.7841 730.661 34.2295 731.478 34.5265 732.369C34.6007 732.666 34.6749 732.963 34.7491 733.259C35.1945 734.967 35.4172 736.6 36.1595 738.159C35.4172 738.159 34.6749 738.307 33.9326 738.53C33.7099 737.491 33.3388 736.377 32.8934 735.338C32.8192 735.041 32.6707 734.67 32.5222 734.299ZM88.863 725.094C88.7888 727.395 90.0507 729.771 90.8672 731.849C91.9807 734.447 93.0199 737.045 93.3911 739.866C94.1334 745.062 88.7888 748.551 84.335 749.145C81.8854 749.442 79.8812 748.922 78.2481 747.809C78.0996 747.586 77.877 747.363 77.58 747.363C71.9385 742.909 69.9343 731.849 65.4805 727.321C61.5463 723.387 56.5729 727.618 56.7213 732.294C56.8698 737.491 56.2759 742.687 51.8963 746.25C47.7394 749.59 42.3206 744.171 39.9453 741.202C39.6483 740.831 39.4256 740.46 39.1287 740.089C38.3864 738.975 37.8668 737.862 37.4957 736.674C36.9018 735.115 36.5307 733.482 36.0853 731.775C36.0111 731.552 35.9368 731.329 35.8626 731.107C35.7884 730.884 35.6399 730.661 35.5657 730.439C34.8234 729.028 33.5615 727.692 32.0026 727.766C31.1119 727.841 30.6665 728.36 30.3696 729.103C30.0726 729.845 29.9984 730.661 29.9984 731.329C29.9242 732.517 30.3696 733.779 30.8892 734.893C31.0376 735.264 31.1861 735.635 31.3345 736.006C32.8934 739.718 31.1861 745.433 26.955 741.796C26.658 736.229 22.2042 725.836 27.9942 721.976C36.6791 716.187 40.3906 734.596 44.696 738.159C49.8179 742.464 51.3025 736.006 51.6737 731.181C51.7479 730.661 51.8221 730.142 51.8221 729.622C51.8221 729.474 51.8221 729.399 51.7479 729.251C51.7479 728.657 51.7479 728.212 51.7479 727.766C51.7479 727.098 51.7479 726.356 51.8221 725.614C52.1933 721.902 53.6036 717.894 56.7213 716.929C57.9832 716.558 59.4678 716.706 61.2494 717.523C63.1051 718.413 64.7382 719.898 66.1486 721.68C66.5939 722.273 67.0393 722.867 67.4847 723.461C67.5589 723.684 67.6332 723.906 67.9301 724.055C68.7466 725.317 69.5631 726.505 70.2312 727.692C72.6066 731.329 74.5366 735.264 77.6542 738.456C79.0646 739.866 83.5927 743.281 85.7454 741.425C88.1207 739.421 87.9723 735.635 87.4527 732.74C86.933 730.068 86.1165 727.544 85.2257 725.02C83.9638 721.605 81.8854 717.077 87.3042 716.558C91.0157 716.112 88.863 723.61 88.863 725.094ZM91.2384 723.461C92.8715 723.238 94.4303 722.867 95.9891 722.496C96.0634 722.57 96.1376 722.645 96.2118 722.719C95.2468 723.832 94.3561 724.946 94.0591 726.505C93.9107 727.098 94.5045 727.692 95.1726 727.47C97.1026 726.801 98.8099 725.836 100.517 724.797C99.6264 725.911 98.9583 727.098 98.4387 728.509C98.1418 729.251 98.7357 729.771 99.478 729.696C101.408 729.325 103.041 728.286 104.6 727.173C103.189 728.731 102.076 730.439 102.076 732.591C102.076 733.037 102.521 733.482 102.967 733.408C105.639 732.963 107.792 731.552 110.019 730.142C109.351 730.884 108.608 731.701 108.089 732.666C107.866 733.037 108.014 733.408 108.311 733.631C103.561 735.041 97.7707 734.818 93.688 734.299C93.6138 734.224 93.6138 734.076 93.5395 734.002C92.4261 731.107 91.0157 728.36 90.5703 725.243C90.4961 724.649 90.5703 724.129 90.7188 723.535C90.793 723.387 91.0157 723.461 91.2384 723.461ZM105.342 719.304C108.683 717.968 112.394 717.745 114.992 720.64C117.145 723.09 116.551 726.727 114.844 729.103C114.695 729.251 114.547 729.474 114.398 729.622C114.324 729.622 114.324 729.622 114.25 729.622C113.062 730.142 111.949 730.884 110.687 731.404C111.874 729.993 113.211 728.731 114.25 727.173C114.621 726.579 113.879 725.688 113.211 725.985C110.019 727.47 107.272 730.142 103.858 731.107C104.674 727.841 108.979 725.317 110.835 722.719C111.281 722.125 110.761 721.086 109.944 721.383C106.53 722.719 104.006 725.762 100.74 727.173C102.15 724.649 104.377 722.719 106.456 720.715C107.198 719.972 106.159 719.081 105.342 719.453C102.299 721.086 99.5522 723.387 96.4345 724.871C97.2511 723.61 98.4387 722.57 99.4037 721.457C99.478 721.383 99.478 721.308 99.5522 721.234C101.408 720.863 103.338 720.121 105.342 719.304ZM106.975 735.338C106.53 738.827 106.381 741.351 103.041 743.8C100.294 745.73 96.6572 745.656 93.3911 745.73C93.688 745.433 93.9107 745.062 94.1334 744.691C95.8407 742.093 95.0984 738.678 94.1334 735.783C97.9934 736.229 102.67 736.229 106.975 735.338ZM58.5771 736.897C58.5771 736.377 58.5771 735.783 58.5771 735.189C58.5771 733.631 57.8348 723.535 64.367 728.583C66.3712 730.142 67.4105 732.963 68.3012 735.189C68.4497 735.486 68.5239 735.709 68.6724 736.006C65.2578 735.635 61.9174 736.451 58.5771 736.897ZM67.4847 748.922C63.9217 749.145 60.4328 749.887 56.944 750.258C52.2675 750.778 47.591 750.926 42.9145 750.926C36.8276 750.926 20.4227 751.075 21.2392 741.647C22.7238 741.351 24.06 741.054 25.3219 740.831C25.3219 741.128 25.3961 741.499 25.3961 741.796C25.3961 741.87 25.3961 741.944 25.4704 741.944C25.4704 742.167 25.5446 742.39 25.6931 742.612C27.3261 744.097 30.2211 745.359 32.2995 743.8C33.6357 742.761 34.1553 741.499 34.2295 740.163C35.1945 739.866 36.1595 739.718 37.1245 739.792C37.1245 739.792 37.1245 739.792 37.1987 739.792C39.0545 742.835 41.3556 745.359 44.3991 747.289C51.3767 751.817 56.6471 744.765 58.3544 738.53C61.9174 738.159 65.4063 737.119 68.9693 737.565C69.192 737.565 69.3405 737.565 69.4889 737.491C71.0477 740.831 72.7551 743.949 75.2047 746.769C75.5016 747.141 75.8727 747.437 76.1696 747.734C73.4231 748.848 70.3055 748.774 67.4847 748.922ZM24.1342 734.596C24.2084 735.041 24.2827 735.412 24.3569 735.858C23.9115 736.229 23.4661 736.526 22.9465 736.897C23.3177 736.08 23.7631 735.338 24.1342 734.596ZM5.42818 739.569C4.38896 739.049 3.64666 738.381 3.05281 737.565C2.68166 737.045 2.38474 736.451 2.16205 735.783C0.974367 732.294 2.23628 727.841 5.13126 725.614C8.47163 723.09 12.7028 724.129 16.7854 725.391C18.9381 725.985 21.0165 726.653 22.8723 726.876C23.095 726.876 23.3177 726.801 23.4661 726.727C23.3177 728.36 23.3919 730.142 23.6888 731.923C23.5404 731.998 23.4661 731.998 23.3919 732.146C23.095 732.443 22.7981 732.74 22.5011 733.037C21.6104 733.928 20.7196 734.893 19.7546 735.635C20.2742 733.259 22.13 731.181 22.7238 728.806C22.7981 728.583 22.7238 728.36 22.6496 728.212C22.4269 727.766 21.6846 727.692 21.2392 728.063C19.235 729.919 17.6762 732.146 15.5977 733.853C16.2658 731.849 17.5277 730.068 18.27 727.989C18.6412 727.098 17.6019 726.43 16.8596 727.098C15.8946 727.989 15.0039 728.88 14.1131 729.845C14.5585 729.028 15.0039 728.286 15.3008 727.395C15.375 727.173 15.375 727.024 15.375 726.801C15.2266 726.282 14.707 725.985 14.1131 726.282C12.0347 727.321 10.4016 728.954 8.32316 729.845C8.47162 729.548 8.62008 729.251 8.76854 729.028C9.28815 728.212 10.0305 727.544 10.5501 726.876C10.7728 726.579 10.7728 726.208 10.6243 725.911C10.5501 725.836 10.4758 725.762 10.4016 725.688C10.1047 725.391 9.58507 725.317 9.28815 725.762C8.917 726.208 8.62008 726.579 8.24893 726.95C7.4324 727.989 6.69009 728.954 6.4674 730.29C6.39317 730.587 6.39318 730.81 6.39318 731.107C6.39318 731.255 6.39317 731.404 6.4674 731.478C6.61586 731.701 6.83855 731.775 7.06124 731.849C7.2097 731.849 7.28393 731.849 7.4324 731.849C9.43661 731.404 10.9212 730.29 12.5543 729.177C11.9605 730.216 11.3666 731.181 10.9212 732.22C10.7728 732.591 10.6243 732.963 10.4758 733.334C10.2532 734.076 11.2181 734.596 11.7378 734.15C12.777 733.408 13.742 732.443 14.6327 731.552C14.0389 732.814 13.5935 734.076 13.4451 735.486C13.4451 735.635 13.445 735.858 13.5193 736.006C13.742 736.451 14.1874 736.674 14.707 736.377C15.9689 735.635 17.0081 734.744 18.0473 733.705C18.4185 733.334 18.7154 733.037 19.0123 732.666C18.8639 733.037 18.6412 733.408 18.4927 733.779C18.0473 734.893 17.6762 736.006 17.7504 737.268C17.7504 737.416 17.8246 737.565 17.8989 737.713C18.0473 737.936 18.3443 738.084 18.6412 738.01C18.7896 738.01 18.9381 737.936 19.0865 737.862C19.9773 737.416 20.7196 736.823 21.3877 736.229C21.0908 736.897 20.7939 737.639 20.7196 738.381C20.6454 738.975 21.165 739.643 21.8331 739.346C22.6496 738.975 23.3177 738.53 23.9858 738.084V738.827C23.9115 739.049 23.9858 739.198 24.06 739.346C17.9731 740.608 11.0697 742.464 5.42818 739.569ZM18.4185 724.055C18.4185 724.129 18.4185 724.203 18.4185 724.203C17.2308 723.906 16.0431 723.535 14.8554 723.238C11.2924 722.422 7.80355 722.051 4.16627 724.129C1.41975 725.762 0.157827 728.731 0.0093665 731.775C-0.0648638 733.631 0.30629 735.486 0.974363 737.045C3.79511 743.8 12.4058 743.132 19.4577 741.87C19.235 750.852 31.6315 751.966 38.3122 752.337C44.0279 752.634 49.8179 752.337 55.4594 751.891C59.9132 751.52 64.2186 750.629 68.6724 750.332C71.7158 750.184 74.7593 750.036 77.5058 748.774C82.0338 751.743 87.8238 750.852 91.8322 747.141C91.9807 747.215 92.1292 747.289 92.2776 747.215C96.8057 746.992 100.963 747.066 104.748 744.32C108.237 741.796 108.089 738.456 108.608 734.67C110.538 734.076 112.32 733.259 113.804 732.146C113.953 732.146 114.101 732.072 114.25 731.923C114.472 731.701 114.621 731.552 114.769 731.404C115.809 730.439 116.625 729.325 117.293 727.989C119.223 723.758 116.922 718.859 112.839 717.151C110.316 716.038 107.272 716.855 104.748 717.671C104.6 717.745 104.377 717.82 104.229 717.894C104.229 717.82 104.154 717.745 104.08 717.597C99.1068 711.584 91.0899 709.06 83.5927 708.17C79.51 707.724 75.5758 708.318 71.6416 709.432C65.332 711.213 59.9132 712.252 53.381 711.733C51.2283 711.584 48.8529 711.362 46.2548 711.287C35.2688 711.065 21.8331 712.549 18.4185 724.055Z" fill="#E9C460"/>
<path d="M109.276 841.933C109.276 846.312 105.787 849.801 101.407 849.801C97.0279 849.801 93.5391 846.312 93.5391 841.933C93.5391 837.553 97.0279 834.064 101.407 834.064C105.787 834.064 109.276 837.553 109.276 841.933Z" fill="#E9C460"/>
</g>
</svg>
