<svg width="1729" height="1711" viewBox="0 0 1729 1711" fill="none" xmlns="http://www.w3.org/2000/svg">
<path d="M1729 0H0V1711H1729V0Z" fill="url(#paint0_radial_71_7761)"/>
<path d="M331.712 1711L864.5 855.5L129.995 1711H331.712ZM654.619 1711L864.5 855.5L508.934 1711H654.619ZM0 1582.36L864.5 855.5L0 1382.74V1582.36ZM0 1207.36L864.5 855.5L0 1063.2V1207.36ZM1729 1063.2L864.5 855.5L1729 1207.36V1063.2ZM930.298 1711L864.5 855.5L798.702 1711H930.298ZM0 920.613L864.5 855.5L0 790.387V920.613ZM1729 1382.74L864.5 855.5L1729 1582.36V1382.74ZM1599 1711L864.5 855.5L1397.29 1711H1599ZM1220.07 1711L864.5 855.5L1074.38 1711H1220.07ZM1729 128.642L864.5 855.5L1729 328.259V128.642ZM1397.29 0L864.5 855.5L1599 0H1397.29ZM1729 790.387L864.5 855.5L1729 920.613V790.387ZM1074.38 0L864.5 855.5L1220.07 0H1074.38ZM1729 503.636L864.5 855.5L1729 647.804V503.636ZM508.934 0L864.5 855.5L654.619 0H508.934ZM129.995 0L864.5 855.5L331.712 0H129.995ZM798.702 0L864.5 855.5L930.298 0H798.702ZM0 328.259L864.5 855.5L0 128.642V328.259ZM0 647.804L864.5 855.5L0 503.636V647.804Z" fill="url(#paint1_radial_71_7761)"/>
<defs>
<radialGradient id="paint0_radial_71_7761" cx="0" cy="0" r="1" gradientUnits="userSpaceOnUse" gradientTransform="translate(864.5 855.501) scale(1225.35 1212.59)">
<stop offset="0.2896" stop-color="#E6C459"/>
<stop offset="0.4329" stop-color="#E2BE55"/>
<stop offset="0.6273" stop-color="#D6AD4B"/>
<stop offset="0.8499" stop-color="#C2903A"/>
<stop offset="1" stop-color="#B2792C"/>
</radialGradient>
<radialGradient id="paint1_radial_71_7761" cx="0" cy="0" r="1" gradientUnits="userSpaceOnUse" gradientTransform="translate(864.499 855.499) scale(864.499 855.499)">
<stop offset="0.1015" stop-color="white"/>
<stop offset="0.4078" stop-color="#F9F9F9"/>
<stop offset="0.8223" stop-color="#E8E8E8"/>
<stop offset="1" stop-color="#DEDEDE"/>
</radialGradient>
</defs>
</svg>
