<svg width="60" height="63" viewBox="0 0 60 63" fill="none" xmlns="http://www.w3.org/2000/svg">
<path d="M59.9902 61.9084C59.492 62.6412 58.818 62.8659 57.9192 62.8659C39.2901 62.8464 20.661 62.8464 2.03191 62.8464C0.439596 62.8464 0 62.4165 0 60.8531C0 50.2713 -1.49206e-07 39.6991 0.00976866 29.1173C0.00976866 28.6092 0.117226 28.0718 0.312602 27.593C1.3481 25.0428 2.41289 22.4926 3.507 19.9717C3.65353 19.6297 3.98567 19.2877 4.30804 19.1021C5.33377 18.5256 6.40834 18.0273 7.62944 17.4117C7.4829 17.8123 7.41452 18.0371 7.31684 18.2716C5.95897 21.5644 4.56203 24.8474 3.20417 28.1499C3.00879 28.619 2.90133 29.1564 2.89157 29.6644C2.8818 39.4646 2.8818 49.2551 2.8818 59.0357C2.8818 59.3191 2.8818 59.6025 2.8818 59.9249C16.226 59.9249 29.4725 59.9249 42.8069 59.9249C42.8069 59.5829 42.8069 59.28 42.8069 58.9674C42.8069 49.0987 42.7971 39.2301 42.8264 29.3615C42.8264 28.6971 42.973 27.9936 43.2172 27.3878C45.3468 22.1897 47.5252 17.0209 49.6744 11.8228C49.8404 11.4222 49.9284 10.9629 49.9284 10.533C49.9577 8.7938 49.9479 7.05459 49.9381 5.32514C49.9381 3.91813 49.3422 3.13646 48.1602 2.94104C47.0661 2.75539 46.2162 3.3221 45.7375 4.59232C44.3308 8.29549 42.9339 12.0084 41.537 15.7116C40.8922 17.4215 39.8763 17.6462 38.6063 16.376C37.6881 15.4673 36.7698 14.5684 35.8808 13.6304C35.5487 13.2884 35.2947 13.2493 34.8649 13.4643C32.6669 14.5879 30.4591 15.6823 28.2416 16.7864C27.0303 17.3922 26.7275 17.3433 25.7506 16.3662C24.8616 15.4771 23.9433 14.5977 23.0837 13.6793C22.7027 13.2689 22.4194 13.2689 21.9407 13.5131C19.7428 14.6466 17.535 15.7311 15.3273 16.8353C14.2331 17.3824 13.8717 17.314 13.0218 16.4737C12.1035 15.565 11.1755 14.6661 10.2963 13.7281C9.91534 13.3275 9.62227 13.2396 9.09476 13.5229C6.90654 14.6661 4.67926 15.7311 2.48128 16.845C1.79746 17.187 1.14295 17.3629 0.507978 16.7962C-0.117226 16.2295 -0.0293064 15.565 0.24422 14.842C1.48486 11.6078 2.7255 8.37366 3.91729 5.11995C4.90394 2.40364 6.73071 0.683963 9.59297 0.117251C9.66135 0.10748 9.72973 0.0390836 9.79811 0C22.7418 0 35.6854 0 48.6291 0C48.6877 0.0488545 48.7463 0.117251 48.8147 0.136792C51.4914 0.87938 52.859 2.65768 52.8688 5.4033C52.8688 7.11321 52.8492 8.82312 52.8785 10.533C52.8883 10.9629 52.9762 11.4222 53.1423 11.8228C55.3012 17.0307 57.4699 22.2386 59.6483 27.4367C59.746 27.6712 59.8828 27.8861 60 28.1109C59.9902 39.3767 59.9902 50.6425 59.9902 61.9084ZM57.1182 59.9347C57.1182 59.6122 57.1182 59.3289 57.1182 59.0455C57.1182 49.2355 57.1182 39.4256 57.1084 29.6156C57.1084 29.1368 57.001 28.619 56.8154 28.1695C55.1547 24.1146 53.4549 20.0792 51.7747 16.034C51.677 15.7995 51.55 15.565 51.4132 15.2719C51.3058 15.5064 51.2178 15.6725 51.1495 15.8386C49.4204 19.9815 47.6815 24.1146 45.9818 28.2574C45.8157 28.658 45.7571 29.1173 45.7473 29.557C45.7375 39.3962 45.7375 49.2258 45.7375 59.0651C45.7375 59.3484 45.7669 59.622 45.7766 59.9249C49.5669 59.9347 53.2888 59.9347 57.1182 59.9347ZM4.18105 12.6533C4.39596 12.624 4.45458 12.624 4.49365 12.6045C5.99805 11.8521 7.50244 11.0997 8.99707 10.3474C10.0814 9.80998 10.4526 9.85883 11.3025 10.7089C12.2403 11.6371 13.1879 12.5458 14.0866 13.5034C14.4676 13.9138 14.7607 13.9138 15.2296 13.6695C17.3787 12.5654 19.5376 11.5003 21.7063 10.4255C22.9762 9.79044 23.2888 9.83929 24.2755 10.8164C25.184 11.7251 26.112 12.624 27.001 13.562C27.3331 13.9138 27.5969 13.9333 28.0169 13.7183C30.2345 12.5751 32.4715 11.471 34.6988 10.3571C35.7831 9.81975 36.1543 9.8686 37.0042 10.7284C37.7857 11.5199 38.5575 12.3309 39.4074 13.2103C40.7359 9.69273 42.0059 6.33154 43.2953 2.90196C42.9632 2.90196 42.6799 2.90196 42.3966 2.90196C37.7467 2.90196 33.0869 2.90196 28.437 2.90196C22.732 2.90196 17.027 2.90196 11.3123 2.90196C8.82123 2.90196 7.50244 3.83019 6.61348 6.18498C5.98828 7.82649 5.37284 9.468 4.74764 11.1193C4.56203 11.5785 4.39596 12.0573 4.18105 12.6533Z" fill="#F3C13E"/>
<path d="M22.8196 35.7028C26.0531 35.7028 29.2963 35.7028 32.5298 35.7028C33.7705 35.7028 34.2784 36.1914 34.2784 37.403C34.2882 41.9855 34.2882 46.5583 34.2784 51.1408C34.2784 52.3329 33.7412 52.8703 32.5396 52.8703C26.0922 52.8801 19.6448 52.8801 13.1974 52.8703C11.9763 52.8703 11.4194 52.3036 11.4194 51.0724C11.4097 46.5485 11.4097 42.0148 11.4194 37.4909C11.4194 36.2109 11.9665 35.7028 13.2657 35.7028C16.4504 35.7028 19.635 35.7028 22.8196 35.7028ZM31.3771 49.9195C31.3771 46.1381 31.3771 42.3959 31.3771 38.6146C25.7014 38.6146 20.0648 38.6146 14.3794 38.6146C14.3794 42.3959 14.3794 46.1381 14.3794 49.9195C20.0648 49.9195 25.7014 49.9195 31.3771 49.9195Z" fill="#F3C13E"/>
</svg>
