<svg width="128" height="128" viewBox="0 0 128 128" fill="none" xmlns="http://www.w3.org/2000/svg">
<path d="M53.3299 64.4498C40.256 51.4415 27.943 39.1944 15.63 26.9127C11.4796 22.7957 7.32917 18.6788 3.2479 14.4926C-0.729609 10.4794 -1.04089 5.22077 2.34864 2.0379C5.6344 -1.04117 10.6495 -0.626017 14.5233 3.24878C29.9837 18.6442 45.4095 34.0741 60.8007 49.5387C61.8037 50.542 62.53 51.7875 63.6368 53.2405C76.5378 40.2669 88.7816 27.9506 101.06 15.6343C105.176 11.4827 109.292 7.33115 113.477 3.24878C117.523 -0.69521 122.781 -1.04117 125.963 2.34927C129.041 5.63593 128.626 10.6524 124.752 14.5272C109.361 29.9918 93.9351 45.4217 78.4747 60.8171C77.4716 61.8204 76.2265 62.547 74.7739 63.654C87.744 76.5585 100.057 88.8056 112.37 101.053C116.52 105.17 120.671 109.287 124.752 113.473C128.695 117.521 129.041 122.779 125.651 125.962C122.366 129.041 117.35 128.626 113.477 124.751C98.0163 109.356 82.5905 93.9258 67.1993 78.4613C66.1963 77.458 65.5045 76.1433 64.4669 74.6211C51.4622 87.6985 39.2184 100.015 26.94 112.331C22.8241 116.483 18.7083 120.634 14.5233 124.717C10.4766 128.661 5.21936 129.007 2.03735 125.616C-1.04089 122.329 -0.625848 117.313 3.2479 113.438C18.6391 97.9736 34.0649 82.5437 49.5253 67.1483C50.5284 66.2142 51.8427 65.5222 53.3299 64.4498Z" fill="url(#paint0_linear_71_9504)"/>
<defs>
<linearGradient id="paint0_linear_71_9504" x1="64" y1="0" x2="64" y2="128" gradientUnits="userSpaceOnUse">
<stop stop-color="#985A25"/>
<stop offset="1" stop-color="#FEE85B"/>
</linearGradient>
</defs>
</svg>
