<svg width="28" height="29" viewBox="0 0 28 29" fill="none" xmlns="http://www.w3.org/2000/svg">
<g>
    <path d="M0.237642 27.7851C0.38765 27.2248 0.528834 26.6953 0.670018 26.1659C1.09798 24.5687 1.52595 22.976 1.9495 21.3744C1.97597 21.2774 1.94067 21.145 1.88773 21.0524C0.480302 18.5905 -0.172673 15.9433 0.0391025 13.1196C0.392062 8.47376 2.51865 4.80298 6.41885 2.26167C11.9647 -1.35176 19.196 -0.562013 23.886 4.10588C26.2905 6.49719 27.6538 9.40911 27.945 12.7887C28.4391 18.4758 25.5757 23.801 20.5019 26.4085C15.9797 28.7337 11.4353 28.5748 6.97476 26.135C6.83799 26.06 6.72769 26.0512 6.5821 26.0865C4.57022 26.6291 2.55394 27.1674 0.537658 27.7057C0.45383 27.7321 0.361178 27.7542 0.237642 27.7851ZM25.2007 14.0461C25.2184 7.86932 20.2284 2.84846 14.0472 2.8264C7.86599 2.79993 2.84072 7.7899 2.81425 13.9799C2.78778 20.1611 7.79098 25.1952 13.9766 25.2129C20.1622 25.2305 25.1831 20.2362 25.2007 14.0461Z" fill="#FFFFFF"/>
    <path d="M16.3371 11.0813C15.7723 14.3417 15.2076 17.5713 14.6429 20.8318C15.1194 20.8318 15.565 20.8318 16.0459 20.8318C15.9885 21.1759 15.9224 21.4848 15.8871 21.8024C15.865 22.0319 15.7812 22.098 15.5429 22.0936C14.162 22.0804 12.7766 22.0892 11.3956 22.0892C11.3162 22.0892 11.2368 22.0892 11.1133 22.0892C11.6824 18.8287 12.2516 15.5947 12.8207 12.3254C12.3486 12.3254 11.8986 12.3254 11.4133 12.3254C11.4883 11.8931 11.5545 11.4916 11.6251 11.0768C13.2002 11.0813 14.7576 11.0813 16.3371 11.0813Z" fill="#FFFFFF"/>
    <path d="M13.2482 8.32816C13.2614 7.17222 14.0953 6.14422 15.1586 5.97215C15.9748 5.83979 16.6498 6.28982 16.844 7.09721C17.1131 8.21786 16.2969 9.57676 15.1851 9.85471C14.1218 10.1238 13.235 9.42234 13.2482 8.32816Z" fill="#FFFFFF"/>
</g>
</svg>
