<svg width="116" height="147" viewBox="0 0 116 147" fill="none" xmlns="http://www.w3.org/2000/svg">
<path d="M0 133.517C0 93.4948 0 53.4724 0 13.4501C0.131818 13.0893 0.263636 12.7612 0.3625 12.4004C1.48295 7.74202 4.08636 4.16626 8.3375 1.93551C9.95227 1.08257 11.7977 0.623298 13.5114 0C20.333 0 27.1216 0 33.9432 0C34.0091 0.0656104 34.108 0.196831 34.1739 0.196831C43.1045 2.42758 47.4545 7.97166 47.4545 17.1571C47.4545 43.106 47.4545 69.0877 47.4545 95.0366C47.4545 107.109 47.5205 119.181 47.4216 131.286C47.3557 140.012 40.5011 146.869 31.7352 146.967C26.3636 147.033 20.9591 147.033 15.5875 146.967C8.83182 146.869 2.9 142.506 0.790909 136.141C0.494318 135.289 0.263636 134.403 0 133.517Z" fill="url(#paint0_linear_71_7792)"/>
<path d="M82.0573 0C88.8789 0 95.6675 0 102.489 0C102.687 0.0984155 102.852 0.229636 103.049 0.262441C110.958 1.93551 116 8.07007 116 16.173C116 54.391 116.033 92.5762 116 130.794C116 140.111 109.146 146.902 99.7868 146.967C95.0084 147 90.23 146.967 85.4516 146.967C75.2357 146.967 68.5459 140.341 68.5459 130.138C68.5459 106.19 68.5459 82.2426 68.5459 58.3276C68.5459 44.2214 68.5129 30.1152 68.5459 16.0089C68.5789 9.80875 71.3141 5.0848 76.7186 2.00112C78.3664 1.08257 80.2777 0.656104 82.0573 0Z" fill="url(#paint1_linear_71_7792)"/>
<defs>
<linearGradient id="paint0_linear_71_7792" x1="23.738" y1="0" x2="23.738" y2="147.016" gradientUnits="userSpaceOnUse">
<stop stop-color="#985A25"/>
<stop offset="1" stop-color="#FEE85B"/>
</linearGradient>
<linearGradient id="paint1_linear_71_7792" x1="92.2732" y1="0" x2="92.2732" y2="146.982" gradientUnits="userSpaceOnUse">
<stop stop-color="#985A25"/>
<stop offset="1" stop-color="#FEE85B"/>
</linearGradient>
</defs>
</svg>
