<svg width="27" height="25" viewBox="0 0 27 25" fill="none" xmlns="http://www.w3.org/2000/svg">
    <g>
<path d="M17.8263 18.1752C17.5852 18.1757 17.382 17.8907 17.407 17.5396C17.4077 17.1986 17.6212 16.9256 17.8624 16.9252C18.1035 16.9247 18.3067 17.2097 18.2817 17.5607C18.2567 17.9118 18.0604 18.1919 17.8263 18.1752ZM17.8651 16.1432C17.3072 16.1329 16.8518 16.7474 16.8319 17.5222C16.812 18.2971 17.2485 18.9397 17.8064 18.9501C18.3644 18.9604 18.8198 18.3459 18.8396 17.571C18.8595 16.7962 18.423 16.1535 17.8651 16.1432Z" fill="#E9C460"/>
<path d="M19.6796 6.67485L19.48 13.9411L17.6306 13.8976L17.0554 6.61157L19.6796 6.67485ZM17.8727 15.785C18.5648 15.8107 19.12 16.603 19.0906 17.5947C19.0864 17.6532 19.0822 17.7117 19.071 17.7874L23.028 17.8809L22.6208 14.0176L20.2962 13.958L20.504 5.75144L3.91064 6.54633L3.62245 17.37L5.34769 17.4222C5.35185 17.3637 5.33889 17.2981 5.34305 17.2396C5.36538 16.265 5.95028 15.4833 6.64238 15.509C7.33448 15.5348 7.88969 16.327 7.86026 17.3188C7.8561 17.3773 7.85194 17.4358 7.84068 17.5115L16.5396 17.7425C16.5437 17.684 16.5307 17.6183 16.5349 17.5598C16.5957 16.5409 17.1806 15.7592 17.8727 15.785Z" fill="#E9C460"/>
<path d="M6.60311 17.8821C6.36196 17.8826 6.15878 17.5976 6.18377 17.2465C6.18452 16.9055 6.39801 16.6325 6.63916 16.632C6.8803 16.6316 7.08349 16.9165 7.0585 17.2676C7.05064 17.6258 6.86139 17.8887 6.60311 17.8821ZM6.65903 15.8572C6.10109 15.8469 5.64571 16.4614 5.62583 17.2362C5.60596 18.0111 6.04243 18.6537 6.60036 18.664C7.1583 18.6743 7.61369 18.0599 7.63357 17.285C7.65344 16.5102 7.21696 15.8675 6.65903 15.8572Z" fill="#E9C460"/>
    </g>
</svg>
