<svg width="12" height="13" viewBox="0 0 12 13" fill="none" xmlns="http://www.w3.org/2000/svg">
    <g>
        <path d="M1.84973 0.924729C1.84973 0.612817 1.84973 0.308243 1.84973 0C2.15889 0 2.46077 0 2.76993 0C2.76993 0.308243 2.76993 0.612817 2.76993 0.92106C4.92494 0.92106 7.07267 0.92106 9.2295 0.92106C9.2295 0.616486 9.2295 0.313747 9.2295 0.00183478C9.54048 0.00183478 9.84418 0.00183478 10.1515 0.00183478C10.1515 0.306408 10.1515 0.609147 10.1515 0.924729C10.1897 0.924729 10.2243 0.924729 10.257 0.924729C10.4898 0.928399 10.7207 0.910051 10.9517 0.966929C11.5518 1.11555 11.9992 1.67882 11.9992 2.30265C12.001 4.46219 11.9992 6.62356 11.9992 8.78309C11.9992 9.41059 11.9992 10.0399 11.9992 10.6674C11.9992 11.427 11.4791 12.0123 10.7316 12.093C10.6371 12.104 10.5425 12.0985 10.4461 12.0985C7.43457 12.0985 4.42301 12.0985 1.41145 12.0985C0.694934 12.0985 0.114809 11.5995 0.0166056 10.8839C-0.010673 10.6876 0.00387558 10.4858 0.00387558 10.2876C0.00387558 8.97207 0.00387558 7.65837 0.00387558 6.34284C0.00387558 4.99978 0.00205701 3.65855 0.00569416 2.31549C0.00751274 1.63112 0.493072 1.05316 1.16231 0.944912C1.35871 0.913721 1.56058 0.928399 1.76062 0.922894C1.7879 0.922894 1.81518 0.924729 1.84973 0.924729ZM0.925893 4.653C0.925893 4.68603 0.925893 4.70988 0.925893 4.73557C0.925893 6.71713 0.925893 8.69686 0.925893 10.6784C0.925893 10.9738 1.11502 11.1665 1.40963 11.1683C2.12251 11.1701 2.8354 11.1701 3.54828 11.1701C4.64851 11.1701 5.74875 11.1683 6.84899 11.1683C8.09471 11.1683 9.34044 11.1701 10.5843 11.1683C10.6371 11.1683 10.6898 11.1646 10.7407 11.15C10.9535 11.0931 11.079 10.9151 11.079 10.6729C11.079 9.95919 11.0772 9.24546 11.0772 8.53173C11.0772 7.2694 11.0772 6.00891 11.079 4.74658C11.079 4.71722 11.079 4.68786 11.079 4.653C7.69099 4.653 4.3139 4.653 0.925893 4.653ZM9.22768 2.78336C9.22768 2.47145 9.22768 2.16688 9.22768 1.8623C7.07086 1.8623 4.92494 1.8623 2.76993 1.8623C2.76993 2.17238 2.76993 2.47512 2.76993 2.78153C2.46077 2.78153 2.1607 2.78153 1.84973 2.78153C1.84973 2.47328 1.84973 2.16871 1.84973 1.8568C1.69879 1.8568 1.55694 1.8568 1.41509 1.8568C1.11684 1.8568 0.927711 2.04761 0.927711 2.34852C0.927711 2.77969 0.927711 3.21087 0.927711 3.64204C0.927711 3.66406 0.92953 3.68607 0.931349 3.71726C0.964083 3.71726 0.99318 3.71726 1.02228 3.71726C1.58058 3.71726 2.13706 3.71726 2.69537 3.71726C3.59738 3.71726 4.50121 3.71726 5.40322 3.71726C6.3016 3.71726 7.19816 3.71726 8.09653 3.71726C9.06765 3.71726 10.037 3.71726 11.0081 3.71726C11.0644 3.71726 11.0808 3.70075 11.0808 3.64387C11.079 3.20169 11.0826 2.76134 11.0808 2.31916C11.079 2.09165 10.9353 1.89533 10.7226 1.86781C10.5389 1.84395 10.3497 1.8623 10.157 1.8623C10.157 2.16688 10.157 2.47145 10.157 2.77786C9.84418 2.78336 9.5423 2.78336 9.22768 2.78336Z" fill="#46C0E8"/>
    </g>
</svg>
