<svg width="20" height="20" viewBox="0 0 20 20" fill="none" xmlns="http://www.w3.org/2000/svg">
<path d="M10.0167 19.6894C4.66154 19.7039 0.339733 15.409 0.312811 10.0497C0.285891 4.67177 4.61184 0.314761 9.97941 0.31269C15.3387 0.308549 19.6667 4.60758 19.6874 9.95444C19.7081 15.3386 15.3988 19.6749 10.0167 19.6894ZM3.51016 3.89314C0.387362 6.96003 -0.103422 12.8494 3.94503 16.5749C8.0494 20.352 13.6738 19.1385 16.0863 16.4734C11.8928 12.28 7.70151 8.08656 3.51016 3.89314ZM13.8643 7.32657C14.4462 7.32657 14.9452 7.32035 15.4443 7.32864C15.9061 7.33485 16.2789 7.20232 16.2664 6.67011C16.254 6.17519 15.8895 6.05094 15.4547 6.05715C14.9411 6.06544 14.4275 6.05922 13.8643 6.05922C13.8643 5.48146 13.856 4.9824 13.8663 4.48333C13.8746 4.04638 13.7524 3.67363 13.2637 3.66328C12.7398 3.65293 12.6073 4.04017 12.6135 4.49989C12.6197 5.00932 12.6156 5.52081 12.6156 6.06129C12.0109 6.06129 11.5118 6.06751 11.0107 6.05922C10.5655 6.05301 10.2238 6.20211 10.2217 6.69289C10.2196 7.18782 10.5655 7.33278 11.0086 7.32657C11.5242 7.32035 12.0399 7.3245 12.6176 7.3245C12.6176 7.92296 12.6156 8.46138 12.6176 8.99772C12.6197 9.42224 12.8061 9.73907 13.2555 9.72665C13.7007 9.71422 13.8705 9.39739 13.8643 8.96873C13.8581 8.45309 13.8643 7.93332 13.8643 7.32657Z" fill="black"/>
<path d="M6.7112 13.9449C5.95949 13.9449 5.20571 13.9428 4.454 13.9449C4.03155 13.947 3.71472 13.7896 3.70851 13.3299C3.70022 12.8391 4.02327 12.6714 4.47264 12.6734C5.97813 12.6755 7.48154 12.6776 8.98703 12.6734C9.43226 12.6714 9.7698 12.8267 9.76359 13.3175C9.75738 13.8103 9.40948 13.9491 8.96839 13.947C8.21461 13.9428 7.4629 13.9449 6.7112 13.9449Z" fill="black"/>
</svg>
