<?xml version="1.0" encoding="utf-8"?>
<!-- Generator: Adobe Illustrator 22.0.0, SVG Export Plug-In . SVG Version: 6.00 Build 0)  -->
<svg version="1.1" id="Calque_1" xmlns="http://www.w3.org/2000/svg" xmlns:xlink="http://www.w3.org/1999/xlink" x="0px" y="0px"
	 viewBox="0 0 1080 1080" style="enable-background:new 0 0 1080 1080;" xml:space="preserve">
<style type="text/css">
	.st0{fill:#3C3B6E;}
	.st1{fill:#B62132;}
	.st2{fill:#B52131;}
	.st3{fill:#FFFFFF;}
	.st4{fill:#B52130;}
	.st5{fill:#B52132;}
	.st6{fill:#8C3139;}
	.st7{fill:#D45666;}
	.st8{fill:#F7F7F9;}
	.st9{fill:#F6F7F8;}
	.st10{fill:#F8F8FA;}
	.st11{fill:#F8F7F9;}
	.st12{fill:#F7F7FA;}
	.st13{fill:#F8F7F8;}
	.st14{fill:#F8F9FA;}
	.st15{fill:#F9F9FA;}
	.st16{fill:#F8F8F9;}
	.st17{fill:#F8F8FB;}
	.st18{fill:#F9F9FB;}
	.st19{fill:#F9FAFB;}
	.st20{fill:#FAFAFB;}
	.st21{fill:#F9F9F9;}
	.st22{fill:#F9FAFA;}
	.st23{fill:#FBFAFC;}
	.st24{fill:#FAFBFB;}
</style>
<g id="d6jet1_1_">
	<g>
		<path class="st0" d="M15,561.4c0-97.9,0-195.9-0.1-293.8c0-3.9,1-4.5,4.6-4.5c138.5,0.1,277,0.1,415.5,0.1
			c2.3,1.9,2.2,4.6,2.2,7.2c0.2,11.9-0.2,23.8,0.3,35.7c-0.6,11.1-0.1,22.3-0.3,33.4c0,3,0,5.9-0.5,8.8c-0.3,14.3-0.3,28.5,0,42.8
			c1.1,10.7,0.3,21.5,0.5,32.2c0.1,3.3-0.1,6.6,0.3,9.9c-0.4,14.4-0.4,28.7,0.1,43.1c-0.6,14.1-0.5,28.3-0.1,42.4
			c-0.5,11.8-0.1,23.7-0.3,35.5c0,2.8,0.2,5.6-1.9,7.9c-2.2,1.9-4.9,1.6-7.5,1.6c-10.5,0.1-21,0-31.5,0c-123.3,0-246.6,0-369.9-0.1
			C22.5,563.7,18.2,564.9,15,561.4z"/>
		<path class="st1" d="M1065,603.4c0,14.4,0,28.7,0,43.1c-1.5,1.8-3.5,2.2-5.7,2.2c-2.4,0-4.9,0.1-7.3,0.1
			c-341.4,0-682.7,0-1024.1-0.1c-4.4,0-9.2,1.5-13-2.2c0-14.4,0-28.7,0-43.1c1.5-1.8,3.5-2.2,5.7-2.2c2.4,0,4.9-0.1,7.3-0.1
			c341.4,0,682.7,0,1024.1,0.1C1056.4,601.2,1061.2,599.7,1065,603.4z"/>
		<path class="st2" d="M15,731.6c0-14.4,0-28.7,0-43.1c1.5-1.8,3.5-2.2,5.7-2.2c2.4,0,4.9-0.1,7.3-0.1c341.4,0,682.7,0,1024.1,0.1
			c4.4,0,9.2-1.5,13,2.2c0,14.4,0,28.7,0,43.1c-1.5,1.8-3.5,2.2-5.7,2.2c-2.4,0-4.9,0.1-7.3,0.1c-341.4,0-682.7,0-1024.1-0.1
			C23.6,733.8,18.8,735.3,15,731.6z"/>
		<path class="st3" d="M1065,603.4c-227.2,0-454.5,0-681.7,0c-122.8,0-245.6,0-368.4,0c0-14,0-28,0-42c2.3-0.1,4.5-0.2,6.8-0.2
			c135.8,0,271.6,0,407.3,0c2.1,0,4.2-0.1,6.3-0.2c1.3-1.3,3-1.7,4.8-1.7c1.7,0,3.5-0.1,5.2-0.1c203.1,0,406.2,0,609.3,0
			c3.6,0,7.5-1,10.4,2.2C1065,575.4,1065,589.4,1065,603.4z"/>
		<path class="st3" d="M1065,688.5c-190.3,0-380.6,0-571,0c-159.7,0-319.4,0-479.1,0c0-14,0-28,0-42c2.1-0.1,4.2-0.2,6.3-0.2
			c345.8,0,691.7,0,1037.5,0c2.1,0,4.2,0.1,6.3,0.2C1065,660.5,1065,674.5,1065,688.5z"/>
		<path class="st3" d="M15,731.6c2.1-0.1,4.2-0.3,6.3-0.3c345.9,0,691.7,0,1037.6,0c2.1,0,4.2,0.2,6.3,0.3c0,14,0,28,0,42
			c-1.5,1.8-3.5,2.2-5.7,2.2c-2.4,0-4.9,0.1-7.3,0.1c-341.4,0-682.7,0-1024.1-0.1c-4.4,0-9.2,1.5-13-2.2C15,759.6,15,745.6,15,731.6
			z"/>
		<path class="st4" d="M15,773.6c350,0,700.1,0,1050.1,0c0,14,0,28,0,42c-1.8,1-3.8,0.5-5.7,0.5c-346.3,0-692.5,0-1038.8,0
			c-1.9,0-3.9,0.5-5.7-0.5C15,801.6,15,787.6,15,773.6z"/>
		<path class="st5" d="M436.2,305.8c-1.5-1.8-0.9-4-1-6c-0.1-12.2-0.2-24.4-0.3-36.6c208.4,0,416.9,0,625.3-0.1
			c3.9,0,4.9,0.9,4.8,4.8c-0.3,12.8-0.1,25.5-0.1,38.3c-1.4,1.5-3.1,2.2-5.1,2.2c-2.3,0-4.5,0.1-6.8,0.1c-201.6,0-403.2,0-604.8,0
			c-2.4,0-4.9,0-7.3-0.1C439,308.3,437.1,307.9,436.2,305.8z"/>
		<path class="st2" d="M1065,561.4c-2.1-0.1-4.2-0.2-6.3-0.2c-205.4,0-410.7,0-616.1,0c-2.4,0-4.9-0.1-7.3-0.2
			c0-12.8-0.1-25.7-0.1-38.5c0-1.3,0.6-2.7,0.9-4c1.1-1.9,3-2.2,5-2.3c1.9-0.1,3.8-0.1,5.8-0.1c202.4,0,404.8,0,607.2,0
			c3.7,0,7.8-1.1,10.9,2.2C1065,532.7,1065,547.1,1065,561.4z"/>
		<path class="st2" d="M436.2,476c-1.7-4-1-8.3-0.9-12.4c0.3-10.1-1.2-20.2,0.7-30.2c1.1-1.9,3-2.2,5-2.3c1.9-0.1,3.8-0.1,5.8-0.1
			c202.4,0,404.9,0,607.3,0c3.7,0,7.8-1.1,10.9,2.2c0,14.4,0,28.7,0,43.1c-1.4,1.5-3.1,2.2-5.1,2.2c-2.3,0-4.5,0.1-6.8,0.1
			c-201.6,0-403.1,0-604.7,0c-2.4,0-4.9,0-7.3-0.1C439,478.4,437.2,478,436.2,476z"/>
		<path class="st3" d="M436.2,476c7.3,0,14.7,0.1,22,0.1c200.2,0,400.3,0,600.5,0c2.1,0,4.2,0.2,6.3,0.2c0,14,0,28,0,42
			c-204,0-408.1,0-612.1,0c-5.6,0-11.2,0.1-16.8,0.1c-1.7-2.3-0.7-5-0.7-7.5c-0.1-10-0.1-20.1,0-30.1
			C435.4,479.3,434.7,477.4,436.2,476z"/>
		<path class="st3" d="M436.2,305.8c5.9,0.1,11.9,0.2,17.8,0.2c201.9,0,403.8,0,605.8,0c1.7,0,3.5,0.1,5.2,0.2c0,14,0,28,0,42
			c-2.3,2.2-5.3,1.5-8,1.5c-43.6,0-87.1,0-130.7,0c-160.6,0-321.3,0-481.9-0.1c-3,0-6.4,1.1-8.9-1.6c0-12.8-0.1-25.6-0.1-38.4
			C435.4,308.4,435,306.9,436.2,305.8z"/>
		<path class="st3" d="M1065,433.3c-198.5,0-396.9,0-595.4,0c-11.2,0-22.4,0-33.6,0.1c-1.5-4.4-0.6-8.9-0.7-13.3
			c-0.1-9.6,0-19.2,0-28.8c1.1-1.4,2.7-1.4,4.3-1.5c1.7-0.1,3.5,0,5.2,0c203.5,0,407,0,610.5,0c3.2,0,6.7-1,9.6,1.5
			C1065,405.3,1065,419.3,1065,433.3z"/>
		<path class="st5" d="M1065,349.3c0,13.7,0,27.3,0,41c-1.8,1-3.8,0.5-5.7,0.5c-205.8,0-411.6,0-617.4,0c-7.3,0-6.4,0.7-6.5-6.4
			c0-10.1,0.2-20.3-0.1-30.4c-0.1-3.5,1.5-4.7,4.5-5c1.6-0.2,3.1-0.1,4.7-0.1c204.9,0,409.8,0,614.8,0
			C1061.3,348.8,1063.2,348.3,1065,349.3z"/>
		<path class="st6" d="M1065,349.3c-204,0-408.1,0-612.1,0c-20.8,0-16.4-1.1-16.8,16.6c-0.2,6.6,0.1,13.3-0.1,19.9
			c-0.1,3.1,1.1,4.5,4.2,4.4c3-0.1,5.9,0,8.9,0c205.3,0,410.5,0,615.8,0c0,0.4,0,0.7,0,1.1c-2.3-0.1-4.5-0.2-6.8-0.2
			c-206.2,0-412.4,0-618.6,0c-1.4,0-2.8,0.1-4.2,0.2c-0.8-14.4-0.8-28.8,0-43.1c7.7,0,15.4,0.1,23.1,0.1c202.2,0,404.3,0,606.5,0
			C1065,348.6,1065,349,1065,349.3z"/>
		<path class="st7" d="M15,815.6c350,0,700.1,0,1050.1,0c-0.2,0.3,0.5,1.1-0.5,1.1c-1.4,0-2.8,0-4.2,0c-346.9,0-693.8,0-1040.6-0.1
			C18.1,816.6,16.1,817.8,15,815.6z"/>
		<path class="st8" d="M35.8,464.9c10.1,2,15.9-0.7,16.7-11.1c1.6,9.3,5.8,14.2,15.9,10.8c-0.1,0.5-0.2,1-0.2,1.4
			c-2.9,2.3-7.3,4-8.2,6.9c-0.9,3,1.5,7.1,2.2,11.7c-6.5-8.3-12.9-7.1-19.3,0.8c0.4-5.3,3.9-9.1,2.5-12.3
			C44,470.2,40,468.4,35.8,464.9z"/>
		<path class="st8" d="M411.4,484.2c-4.7-1.7-7.2-6.2-10.7-5.8c-3.2,0.4-6.1,3.8-9.7,6.3c1.2-4.2,3.3-7.9,2.8-11.2
			c-0.5-3.7-5.9-4.3-8.4-7.9c4.1-0.3,8.6,0.7,11.2-1.1c2.5-1.8,2.9-6.4,4.8-11.5c1.2,9.8,5,15.3,15.6,12.2
			C408.7,469.9,405.4,475.6,411.4,484.2z"/>
		<path class="st9" d="M415.5,406.6c-7.1,4.5-10.9,9.7-5.1,18.7c-7.2-6.7-13.4-7.3-20,0.6c4.4-8.6,3.6-15-6.3-19.1
			c9.7,1.7,15.1-1.6,15.4-12c3.2,4.1,2.1,9.3,5.3,11C407.8,407.3,411.9,406.4,415.5,406.6z"/>
		<path class="st10" d="M69.5,317.2c10,1.8,15.4-1.4,16-12c1.4,10.1,6.4,14.1,16.5,11.9c-9.3,4.5-11.5,10.5-6,19.5
			c-6.9-7.1-13.2-8.6-20.1-0.1C80.1,327.7,79.4,321.2,69.5,317.2z"/>
		<path class="st8" d="M315.7,406.6c3.6-0.2,8.1,0.8,10.5-1c2.5-1.8,2.9-6.4,5.1-11.9c0.7,10.8,5.4,15.1,14.9,13.5
			c-2.9,2.4-7.2,4.2-8.2,7.2c-0.9,2.8,1.6,6.8,2.6,10.4c-0.4,0.1-0.9,0.3-0.9,0.2c-6.3-6.9-12.5-6.3-18.9,0.9
			c3.5-8.1,5.2-15.2-6.8-18.1C314.4,407.4,315,407,315.7,406.6z"/>
		<path class="st8" d="M251,425.8c5.6-9.1,2.5-14.7-5.2-19.1c3.7-0.3,8.3,0.7,10.9-1.1c2.4-1.7,2.8-6.4,4.6-10.2
			c0.9,9.5,5.9,13.2,15.8,11.2c-9.4,4.6-11,10.8-5.7,19.5C264.5,418.9,258.2,417.4,251,425.8z"/>
		<path class="st8" d="M191.7,395.9c1.3,3.3,1.7,7.6,4.1,9.8c2.5,2.3,7,0.2,12.1,1.3c-8.4,4.3-13,9.4-6.2,18.6
			c-7.4-6.6-13.6-8-20.1,0.5c3.8-8.6,3.8-15.1-6.4-19c9.4,1,15.4-1.4,15.1-11.8C190.8,395.4,191.2,395.6,191.7,395.9z"/>
		<path class="st8" d="M131.7,425.7c-3.8-2.5-7.1-6.2-10.2-6.1c-3.2,0-6.3,3.8-10.2,6.1c4.9-8.2,4-14.6-5.7-19.1
			c10.4,2.2,14.9-2.1,16.3-11.2c1.2,3.5,1.5,8.3,4,10.1c2.5,1.9,7.2,0.9,11.7,1.3c-3.4,2.8-7.7,4.7-8.7,7.7
			C127.9,417.3,130.4,421.3,131.7,425.7z"/>
		<path class="st11" d="M202.3,484.9c-7.2-8.2-13.6-7.6-20.4-0.2c4-8.4,4.1-15-6.2-19c9.5,1,15.8-1.2,16.3-11.3
			c1.4,3.5,1.9,8.1,4.5,10.1c2.3,1.8,6.9,0.7,11.3,1.3C199.2,469.9,196.3,475.7,202.3,484.9z"/>
		<path class="st10" d="M355.1,396.2c5.4-8.9,3-14.7-6.1-19.1c9.7,1.5,15.5-1.4,16-12c1.6,9.4,5.8,14.5,15.7,12.5
			c-2.9,2.3-7.2,4.2-8.2,7.2c-1,3,1.5,7.1,2.3,11.6C368.3,388.1,361.9,388.9,355.1,396.2z"/>
		<path class="st12" d="M35.9,407.3c4.7-1.6,9.4,0.8,12-1.8c2.3-2.3,2.5-6.5,4.3-10.2c0.7,9.8,5.9,13.2,15.8,11.5
			c-9.9,4.4-10.5,10.9-4.8,20c-4.8-3.3-7.9-7-11.2-7.1c-3.1-0.1-6.3,3.6-10.2,5.6C46.7,417,45.4,410.8,35.9,407.3z"/>
		<path class="st13" d="M331.3,453.8c1.2,9.9,6.2,13.5,16.1,11.6c-9.8,4.4-10.5,10.9-5.8,19.4c-6.8-7.3-13.1-8.3-20.3-0.1
			c4.8-8.7,3.5-14.9-6-19.1C325,467.2,330.4,464,331.3,453.8z"/>
		<path class="st10" d="M296.3,365.6c0.5,9.5,5.2,13.7,15.4,11.2c-8.1,4.7-12,10.2-5.8,18.3c-0.8,0.3-1.1,0.6-1.2,0.5
			c-3.4-1.7-5.9-6-9.5-5.6c-3.1,0.4-5.9,3.7-9.6,6.3c1.2-4.6,3.6-8.6,2.7-11.6c-0.9-2.8-5.3-4.6-8.4-7.1c2-1.4,4.2-1,6-0.7
			c4.7,0.7,6.9-1.2,7.7-5.8C293.9,369.3,294.1,367.1,296.3,365.6z"/>
		<path class="st14" d="M165.6,395.7c-3.2-2.1-6.3-5.6-9.5-5.7c-3-0.1-6,3.7-9.9,5.9c4.3-8.2,3.9-14.8-6.4-18.6
			c9.5,1,15.8-1.2,15.5-12.4c1,1.3,1.3,1.5,1.5,1.8c3.9,9.7,3.9,9.7,16.2,10.1c-8.2,4.6-13.4,9.7-5.5,18.7
			C166.9,395.6,166.3,395.6,165.6,395.7z"/>
		<path class="st15" d="M76.6,396.3c4.9-9,3.1-15.1-5.3-19.3c3.7-0.3,8.3,0.7,10.9-1.1c2.4-1.7,2.8-6.4,3.9-9.3c0.7-0.8,1-0.7,1-0.2
			c1.3,8.5,5.6,13,15.6,10.4c-8.7,4.5-11.7,10.3-6.2,19.4C89.7,388.9,83.5,388.1,76.6,396.3z"/>
		<path class="st10" d="M304.7,335.8c-6.7-7-13.1-7.2-20,0.9c4.3-8.7,4-15.3-6.4-19.3c9.5,1.1,15.8-1.2,15.7-11.6
			c0.8,0.5,1.2,0.7,1.3,0.8c1.2,8.7,5.8,12.7,15.8,9.6c-2.7,4.7-8.4,5.2-9,8.8C301.4,328.4,303.7,332.2,304.7,335.8z"/>
		<path class="st8" d="M112.5,483.3c1-3.5,3.5-7.4,2.6-10.2c-0.9-2.8-5.3-4.6-8.5-7.6c9.2,1.7,14.7-1.3,15.6-11.6
			c1.5,9.5,6,13.9,16,11.5c-8.3,4.8-11.3,10.4-5.4,18.3c-0.9,0.2-1.3,0.4-1.4,0.3c-6.1-5.9-12.2-7.6-18.4,1.1
			C112.8,484.4,112.7,483.9,112.5,483.3z"/>
		<path class="st11" d="M277.7,465.7c-3.4,2.7-7.7,4.5-8.7,7.3c-1,2.8,1.4,6.8,2.1,11.2c-6.4-6.7-12.6-7.4-19.1-0.6
			c0.9-3.5,3-7.2,2.4-10.4c-0.7-3.3-5.5-4.3-9.1-8.1c9.5,1.7,15.6-0.7,15.3-11.5c3.5,3.8,2.4,8.8,5.3,10.9
			C268.8,466.6,273,464.6,277.7,465.7z"/>
		<path class="st16" d="M139.3,317.2c9.8,1.6,15.4-1.3,15.9-12.2c1.3,10,6,14.5,15.7,11.5c-0.2,1.1-0.2,1.6-0.4,1.7
			c-2.8,2.3-7.1,4.1-8,7c-0.9,2.8,1.7,6.7,2.5,11.1c-6.6-7.6-13-7.2-19.7,0.2C150.1,327.7,148.7,321.5,139.3,317.2z"/>
		<path class="st15" d="M340.5,544c-7-7.9-13.2-7.3-19.9-0.7c1-3.6,3.3-7.4,2.6-10.6c-0.7-3.5-5.8-4.5-9.6-8.7
			c10.6,2.9,15.7-0.8,16.2-10.7c0.8,0.7,1.1,0.8,1.2,1c1.2,8.7,5.7,12.9,15.7,10.3C338.2,529.3,334.8,534.9,340.5,544z"/>
		<path class="st16" d="M225,305.7c1.4,9.7,6.3,13.3,15.4,10.8c-0.2,0.7-6.1,19-6.2,19.3c-3-2.1-6-5.7-9-5.7c-3,0-6,3.6-10,5.8
			c4.7-8.4,3-14.6-6.4-18.6C218.1,318.5,224.3,316.4,225,305.7z"/>
		<path class="st17" d="M96.5,455.5c-6.6-8.3-12.9-7.9-19.7-0.6c4.3-8.5,4.1-15-5.5-17.9c0.5-2.2,1.8-1.5,2.6-1.5
			c8.9-0.2,8.9-0.2,11.7-8.8c0.2-0.7,0.6-1.2,0.6-1.3c0.6-1,0.9-1,1-0.4c1.6,8.1,4.9,13.8,16,9.3c-3.1,4.8-8,5.6-9.2,8.9
			C92.8,446.8,96.4,450.3,96.5,455.5z"/>
		<path class="st18" d="M295.9,423.9c1.4,9.4,5.5,14.4,16,11.7c-8.3,4.6-11.6,10.3-5.8,19.3c-7-7-13.4-8-20.1,0.2
			c4.3-8.6,3.5-15-6.3-19.3C290.4,438.3,294.6,433.4,295.9,423.9z"/>
		<path class="st18" d="M380.5,317.2c-8.5,4.4-11.6,9.8-5.8,17.7c-1,0.4-1.4,0.6-1.5,0.6c-6-5.8-11.9-6.9-18.5,0.9
			c4.6-9,2.7-15-6.6-19.2c9.6,1.6,15.2-1.1,16.2-11.5C365.8,315.3,370.6,319.4,380.5,317.2z"/>
		<path class="st10" d="M216.2,395.9c5.1-8.9,2.5-14.5-6.4-18.7c9.2,1.1,15.4-1.1,15.9-11.8c2.1,8.7,5.5,14.8,15,10.8
			c1,2.1-0.4,2.4-1.1,3c-6.7,5.4-6.7,5.4-4.3,14.1c0.2,0.6,0.2,1.3,0.4,3.6C229.2,389.2,223.1,388.3,216.2,395.9z"/>
		<path class="st10" d="M235.5,454.4c-3.1-2.1-6.1-5.7-9.2-5.8c-3-0.1-6,3.5-9.1,5.5c-0.2-0.3-0.6-0.6-0.6-0.8
			c3.8-7.6,3.1-13.7-6.8-17.5c10.1,1.8,15.3-1.6,16.4-11.8c1.3,9.8,6.1,13.6,16,11.6C233.4,440.2,231.1,446,235.5,454.4z"/>
		<path class="st18" d="M244.7,524.9c10.2,2.3,14.8-1.9,16.1-11.8c1.4,9.9,6.2,14.1,16.3,11.6c-8.7,4.4-11.9,10.1-6.1,19.1
			c-6.8-6.5-13-8.1-19.9,0.1C255.5,535.2,254,529,244.7,524.9z"/>
		<path class="st19" d="M121.7,513.8c1.3,3.6,1.7,8.5,4.2,10.3c2.5,1.8,7.2,0.4,12.3,0.4c-4.1,3.3-8.4,5.2-9.4,8.2
			c-1,3,1.4,7.1,2.2,11.6c-6.4-7.9-12.8-7.6-19.6,0c4.4-8.6,3.8-15-6.1-18.2c1.9-2,3.8-1.5,5.2-1.2c5.7,1.2,8.1-1.7,9.1-6.7
			C120,516.6,120.3,515,121.7,513.8z"/>
		<path class="st17" d="M375.5,454.7c-7.1-7.4-13.3-7.3-20.1,0.4c5-8.9,3-14.8-6-19.2c9.8,2,14.8-1.7,15.9-11.6
			c1.5,9.5,5.9,14,16.2,11.4C373.2,440.2,369.7,445.6,375.5,454.7z"/>
		<path class="st10" d="M166.4,454.6c-3.9-2.4-7.1-5.9-10.3-5.9c-3,0-6,3.7-9.7,5.8c4.8-8.2,3.5-14.4-6.1-18.5
			c9.7,1.5,15.1-1.7,15.3-11.3c2.1,0.6,2.2,2.1,2.4,3.4c1,6.2,4.3,8.9,10.7,7.5c0.9-0.2,2,0,4.2,0c-3.8,3.1-8.1,4.9-9.1,7.8
			C162.8,446.2,165.2,450.2,166.4,454.6z"/>
		<path class="st18" d="M415.7,525.5c-3,2.3-7.3,4.2-8.4,7.2c-1,2.7,1.6,6.7,2.7,10.3c-0.6,0.1-1,0.3-1.1,0.2
			c-6-5.8-11.8-7-17.2,0.5c-0.7-0.5-1.2-0.8-1.2-0.8c3.7-7.6,3.3-13.9-6.6-17.7c9.6,1.4,15.2-1.5,15.3-11.5c0.9,0.6,1.5,0.8,1.6,1.1
			C402.1,523.4,406.7,527.1,415.7,525.5z"/>
		<path class="st15" d="M51.6,513.3c1.6,9.7,6.1,14.2,16.3,11.2c-7.6,4.8-13,9.8-5.9,19.5c-7.3-7.4-13.6-7.6-20.2,0.1
			c4.2-8.6,4-15.1-6.5-18.8C44.9,526.4,50.8,523.8,51.6,513.3z"/>
		<path class="st18" d="M174.5,525c10.3,1.9,15.6-1.6,16.5-12c1.1,10.2,6.3,14,16.4,11.9c-9.1,4.3-11.7,10.1-7,18.6
			c-3.2-2-6.3-5.6-9.5-5.7c-2.9-0.1-6,3.6-9.8,5.8C185.5,535.4,185,528.8,174.5,525z"/>
		<path class="st18" d="M60.8,306.4c-6.8-7.5-13-7.5-19.7,0.2c3.5-8.2,4.7-15.1-6.5-18.7c10.4,1.9,15-2.5,15.4-10.5
			c1.2-1.1,1.4-1,1.5-0.5c1.4,8.3,5.1,13.3,15.5,10.6C57.6,291.6,56.3,297.8,60.8,306.4z"/>
		<path class="st20" d="M319.6,306.7c4.5-8.6,4-15-5.3-19.1c3.7-0.2,8.4,1,10.8-0.9c2.5-2,2.9-6.8,4.9-12.2
			c1.2,10.2,4.8,15.9,16.1,12c-3.5,4.4-8.7,5.3-9.3,8.7c-0.6,3.2,1.7,6.9,2.6,11.1C332.7,299,326.3,299,319.6,306.7z"/>
		<path class="st15" d="M206.2,287.7c-9.8,4-10.2,10.4-6,18.9c-6.8-8-13.1-7.5-19.8-0.1c4.2-8.5,3.8-14.8-5.4-18.9
			c3.7-0.2,8.3,0.9,10.7-1c2.5-1.9,2.9-6.7,4.9-10.7C191.9,284.9,195.8,290.1,206.2,287.7z"/>
		<path class="st20" d="M66.9,347.9c-10.4,3.6-10,10.2-5.8,18.5c-6.7-7.2-13.1-8.4-20.2-0.1c4.8-8.7,3.7-15-6.7-18.5
			c5.2-1.6,9.9,0.8,12.5-1.7c2.3-2.3,2.7-6.6,4.2-10.8c1.6,4.2,2.1,8.4,4.4,10.8C57.8,348.6,62.3,346.3,66.9,347.9z"/>
		<path class="st19" d="M399.3,275.9c1.3,9.7,5.9,13.7,16,11.6c-9.2,4.3-10.7,10.4-5.9,19c-6.8-7.1-13-8-19.8,0
			c3.9-8.4,3.7-14.9-6.3-18.7C393,289.4,398.3,286.1,399.3,275.9z"/>
		<path class="st15" d="M276.3,288.2c-10,3.6-11,9.8-6.9,17.9c-3.1-2.1-6-5.5-9.3-5.9c-3.5-0.4-6,4.3-10.7,6.2
			c4.7-8.2,4.7-14.8-4.7-18.8c3.7-0.2,8.4,0.8,10.8-1.1c2.5-2,2.9-6.7,4.5-11.1c1.5,4.2,1.9,8.4,4.2,10.9
			C266.7,289.2,271.4,286.5,276.3,288.2z"/>
		<path class="st19" d="M110.5,306.7c4-8.4,4.3-15-6.1-18.9c9.7,1.4,15.4-1.7,15.3-12.4c1,1.2,1.5,1.5,1.5,1.9
			c1.4,8.2,5.5,12.6,14.7,10.6c-2.8,2.3-7.2,4.2-8,7.1c-0.9,3.1,1.5,7.1,2.9,12.6C123.7,299,117.3,298.8,110.5,306.7z"/>
		<path class="st21" d="M216.2,513.4c1-3.5,3.1-7.1,2.6-10.4c-0.6-3.5-5.5-4.4-8.9-8c9.1,1.4,15.2-0.9,15.1-11.6
			c3.5,3.7,2.5,8.5,5.3,10.7c2.9,2.3,7.1,0.2,12.1,1.4c-8.9,3.9-11.8,9.5-6.3,18.3c-7-6-13.3-8.4-19.3,1.3
			C216.6,514.6,216.4,514,216.2,513.4z"/>
		<path class="st18" d="M111.1,365.9c3.5-8,3.9-14.6-7-18.5c10.5,2,15.3-2.2,16.4-12.2c1.3,9.5,5.5,14.6,16.5,11.1
			c-3.6,4.4-8.7,5.1-9.3,8.7c-0.5,3.2,1.7,6.9,2.7,10.4c-0.4,0.1-0.7,0.3-0.9,0.2c-3.3-1.7-5.8-6.1-9.5-5.5
			C116.8,360.6,114.1,363.8,111.1,365.9z"/>
		<path class="st22" d="M156.3,483.4c1.1,9.9,5.9,13.9,16,11.8c-9.1,4.3-11,10.3-5.6,18.2c-1,0.1-1.4,0.3-1.5,0.2
			c-6.2-6.1-12.3-7.3-18.8,0.9c4.1-8.4,3.9-15-6.1-19.2C150.6,497.5,155.1,493.1,156.3,483.4z"/>
		<path class="st20" d="M86.7,483.5c1,9.9,5.8,13.8,16,11.8c-9.8,4.2-10.6,10.5-6,18.9c-6.8-6.5-13.1-8.6-20.1,0.2
			c4.4-8.6,3.8-15.1-6.2-19.1C80.7,497.5,85.3,493.2,86.7,483.5z"/>
		<path class="st19" d="M249,366.2c5.6-8.7,4.5-14.9-5.2-19c10.1,1.9,15.1-1.9,15.3-11.6c1,0.6,1.4,0.7,1.4,0.9
			c1.3,8.3,5.2,13.2,15.5,10.6c-9.5,4.4-11,10.5-6.5,18.7c-3.1-2.1-5.9-5.4-9.2-5.8C256.6,359.5,254.3,364.2,249,366.2z"/>
		<path class="st23" d="M389.4,366.2c4.6-8.6,3.6-14.7-6.1-18.6c9.3,1.1,15.1-1.5,16.2-11.1c1.4,3.4,1.9,8,4.4,9.9
			c2.4,1.8,6.9,0.7,10.8,1c-2.5,3.5-7.8,4.2-8.4,7.8c-0.4,3.3,1.7,6.9,2.4,11.1C402.5,358.8,396.2,358.4,389.4,366.2z"/>
		<path class="st24" d="M375.1,513.3c-6.7-6.6-13-6.5-18.9,0.9c-0.5-0.6-0.9-0.9-0.8-1c3.1-10.3,3.1-10.3-7-18.7
			c10.8,2.8,15.9-1,16.9-11.2c1.3,9.6,5.6,14.3,15.3,12.4c-2.8,2.4-7.1,4.3-8.1,7.3C371.6,505.8,374.1,509.8,375.1,513.3z"/>
		<path class="st15" d="M190.5,336c3.8,10.5,3.8,10.5,16.4,11.4c-9.1,4.1-12.2,9.7-6.6,18.5c-7.1-6.6-13.3-7.8-19.9,0.5
			c3.6-8.4,4.5-15.3-7.8-18.2c5.9-1.9,10.3,0.4,13.2-1.9C188.7,344.1,187.9,339.3,190.5,336z"/>
		<path class="st20" d="M312.5,348.1c5.7-2,10.3,0.7,12.9-2c2.3-2.4,2.7-6.7,4.6-10.9c0.9,9.5,5.1,14.6,16,12
			c-10.2,4.1-10.7,10.4-6.9,18.5c-3.1-2-6.2-5.6-9.3-5.6c-3.2,0.1-6.4,3.6-10.7,6.4C323.1,358.3,324.3,351.5,312.5,348.1z"/>
		<path class="st19" d="M280,495.1c9.8,2.5,14.4-1.7,14.9-10.3c1.6-0.8,1.4,0.1,1.5,0.4c3.6,9.6,3.6,9.6,16.1,10.2
			c-9.8,4.4-12.1,10.3-6.5,19c-7-6.9-13.3-8.3-20.1-0.7c1-3.6,3.3-7.4,2.6-10.6C287.8,499.7,283,498.6,280,495.1z"/>
	</g>
</g>
</svg>
