<svg width="17" height="17" viewBox="0 0 17 17" fill="none" xmlns="http://www.w3.org/2000/svg">
    <g>
<path d="M0 11.3614C0.0158434 11.3333 0.0316869 11.3052 0.0475303 11.277C0.261417 10.8872 0.705033 10.8189 1.01002 11.1404C1.25955 11.4016 1.4972 11.6709 1.73882 11.9362C2.08737 12.3179 2.43593 12.7038 2.78448 13.0856C3.30732 13.6603 3.94897 13.9456 4.7253 13.9416C6.36906 13.9335 8.01281 13.9376 9.65657 13.9376C9.98136 13.9376 10.2071 13.7688 10.2586 13.5035C10.3299 13.1378 10.0447 12.8243 9.67638 12.8283C8.24254 12.8404 6.81267 12.8324 5.37884 12.8324C5.21645 12.8324 5.05405 12.8243 4.89166 12.8364C4.77679 12.8444 4.74115 12.7962 4.74511 12.6837C4.75303 12.4626 4.74511 12.2456 4.74907 12.0246C4.75699 11.7031 4.93127 11.5302 5.24814 11.5302C6.06407 11.5302 6.88001 11.5262 7.69595 11.5302C8.05638 11.5343 8.3891 11.4579 8.71389 11.3052C9.0664 11.1404 9.41496 10.9636 9.77144 10.8109C10.6309 10.4451 11.4944 10.4411 12.35 10.8269C12.7777 11.0198 13.1897 11.2489 13.6095 11.4659C13.6491 11.486 13.6927 11.5544 13.6927 11.5986C13.6966 12.9811 13.6966 14.3636 13.6966 15.7662C13.3719 15.8466 13.051 15.9309 12.7262 15.9993C11.9895 16.156 11.2488 16.3168 10.5082 16.4454C10.1002 16.5137 9.68034 16.5097 9.26445 16.5418C9.20503 16.5458 9.14958 16.5579 9.09017 16.5659C7.97717 16.5659 6.86417 16.5659 5.7472 16.5659C5.70364 16.5579 5.66403 16.5418 5.62046 16.5378C4.48369 16.4172 3.51724 15.939 2.76072 15.0669C2.13094 14.3395 1.53285 13.5799 0.930802 12.8283C0.613933 12.4345 0.312908 12.0286 0.00396085 11.6307C-3.83639e-09 11.5383 0 11.4499 0 11.3614Z" fill="#E9C460"/>
<path d="M13.7681 10.2844C13.4196 10.1116 13.0987 9.93071 12.7621 9.79005C11.4669 9.2475 10.1954 9.33591 8.94777 9.96286C8.77745 10.0473 8.60714 10.1317 8.43682 10.212C8.13975 10.3527 7.83477 10.4291 7.4981 10.421C6.75345 10.4049 6.00485 10.413 5.26021 10.417C4.51161 10.421 3.93332 10.8189 3.72736 11.4981C3.67191 11.6789 3.67191 11.8759 3.6521 12.0648C3.64418 12.1612 3.6521 12.2577 3.6521 12.3983C3.40257 12.125 3.18472 11.8879 2.97084 11.6508C2.58663 11.2288 2.20243 10.8028 1.81823 10.3808C1.59246 10.1357 1.32708 9.95483 0.998329 9.87847C0.919112 9.85837 0.871582 9.83024 0.871582 9.72575C0.875543 8.00565 0.875543 6.28154 0.875543 4.56144C0.875543 4.54537 0.879504 4.52929 0.883465 4.50116C2.57079 4.50116 4.25811 4.50116 5.96128 4.50116C5.96128 4.56144 5.96128 4.62173 5.96128 4.67799C5.96128 5.26475 5.96128 5.85151 5.96128 6.43828C5.96128 6.89241 6.17517 7.10943 6.62671 7.10943C7.71198 7.10943 8.80122 7.10943 9.88649 7.10943C9.90234 7.10943 9.91818 7.10943 9.93402 7.10943C10.3301 7.09738 10.544 6.88036 10.544 6.48248C10.548 5.88367 10.544 5.28887 10.544 4.69005C10.544 4.62976 10.544 4.56948 10.544 4.50116C12.263 4.50116 13.9662 4.50116 15.6812 4.50116C15.6812 6.0404 15.6812 7.57563 15.6812 9.14301C14.794 9.05861 14.1048 9.36806 13.7681 10.2844Z" fill="#E9C460"/>
<path d="M15.7048 3.35578C13.9819 3.35578 12.2827 3.35578 10.5557 3.35578C10.5557 3.29952 10.5557 3.24727 10.5557 3.19502C10.5557 2.33498 10.5597 1.47493 10.5518 0.614881C10.5518 0.478238 10.5874 0.438049 10.726 0.438049C12.148 0.442068 13.566 0.442068 14.9879 0.442068C15.3721 0.442068 15.6652 0.715354 15.6969 1.10519C15.7048 1.17753 15.7009 1.24585 15.7009 1.31819C15.7048 1.99337 15.7048 2.66453 15.7048 3.35578Z" fill="#E9C460"/>
<path d="M0.883446 3.34775C0.883446 2.57612 0.875524 1.82056 0.887407 1.06099C0.895329 0.663118 1.1409 0.442078 1.53303 0.442078C2.95497 0.442078 4.37692 0.442078 5.79887 0.442078C5.85036 0.442078 5.90581 0.446097 5.96523 0.450115C5.96523 1.41867 5.96523 2.37919 5.96523 3.34775C4.27394 3.34775 2.58661 3.34775 0.883446 3.34775Z" fill="#E9C460"/>
<path d="M16.6117 13.3267C16.6117 14.1425 16.6117 14.9624 16.6117 15.7782C16.6117 16.1922 16.4137 16.3931 16.0097 16.3931C15.7918 16.3931 15.5779 16.3931 15.3601 16.3931C15.0195 16.3931 14.8056 16.1841 14.7977 15.8345C14.7937 15.6938 14.7977 15.5492 14.7977 15.4085C14.7977 13.9054 14.7977 12.4023 14.8016 10.8993C14.8016 10.7707 14.8254 10.634 14.8769 10.5175C14.9521 10.3406 15.0987 10.2402 15.3007 10.2402C15.5502 10.2402 15.7998 10.2402 16.0453 10.2402C16.4058 10.2402 16.6117 10.4492 16.6157 10.8229C16.6117 11.6588 16.6117 12.4948 16.6117 13.3267Z" fill="#E9C460"/>
<path d="M9.45453 3.35176C8.66632 3.35176 7.88207 3.35176 7.08594 3.35176C7.08594 2.39124 7.08594 1.43072 7.08594 0.454125C7.12159 0.450106 7.16119 0.442068 7.2008 0.442068C7.90187 0.442068 8.60691 0.442068 9.30798 0.438049C9.41492 0.438049 9.46245 0.458144 9.46245 0.58273C9.45849 1.47091 9.45849 2.35909 9.45849 3.24727C9.46245 3.28344 9.45849 3.31157 9.45453 3.35176Z" fill="#E9C460"/>
<path d="M7.08594 4.48911C7.87811 4.48911 8.6584 4.48911 9.46245 4.48911C9.46245 4.7222 9.46245 4.95128 9.46245 5.18036C9.46245 5.40542 9.46245 5.63048 9.46245 5.85554C9.46245 5.92386 9.46641 5.98816 9.36739 5.98816C8.61087 5.98816 7.85434 5.98816 7.08594 5.98816C7.08594 5.4858 7.08594 4.99549 7.08594 4.48911Z" fill="#E9C460"/>
    </g>
</svg>
