<svg width="60" height="60" viewBox="0 0 60 60" fill="none" xmlns="http://www.w3.org/2000/svg">
<path d="M59.9824 29.1643C60.4525 45.7226 47.3939 59.5299 30.8355 59.9826C14.2772 60.4527 0.487298 47.3941 0.0171878 30.8358C-0.452922 14.2775 12.6057 0.470161 29.164 0.0174625C45.7223 -0.452648 59.5297 12.606 59.9824 29.1643Z" fill="#9B0E0E"/>
<path d="M44.3121 29.5996C44.5385 37.5044 38.3051 44.1033 30.4003 44.3123C22.4955 44.5386 15.8966 38.3053 15.6876 30.4005C15.4613 22.4957 21.6946 15.9141 29.5994 15.6878C37.5042 15.4614 44.0858 21.6947 44.3121 29.5996Z" fill="#EAE9CE"/>
<path d="M57.1964 17.3419C54.428 19.9884 52.6868 24.4109 52.8261 29.3558C52.9654 34.3007 54.9503 38.6187 57.8581 41.1085C59.3381 37.4173 60.1042 33.3778 59.9823 29.1643C59.8604 24.9333 58.8854 20.946 57.1964 17.3419Z" fill="#EAE9CE"/>
<path d="M2.80332 42.6582C5.57175 40.0116 7.3129 35.5891 7.17361 30.6442C7.03432 25.6994 5.04941 21.3813 2.14169 18.8915C0.661711 22.5827 -0.104394 26.6222 0.0174862 30.8358C0.121955 35.0668 1.11441 39.054 2.80332 42.6582Z" fill="#EAE9CE"/>
<path d="M17.3594 2.80326C20.0059 5.57169 24.4284 7.31284 29.3733 7.17355C34.3182 7.03426 38.6362 5.04935 41.1261 2.14163C37.4348 0.66165 33.3954 -0.104455 29.1644 0.0174251C24.9508 0.121894 20.9461 1.11435 17.3594 2.80326Z" fill="#EAE9CE"/>
<path d="M42.6583 57.1968C40.0117 54.4283 35.5892 52.6872 30.6444 52.8265C25.6995 52.9658 21.3814 54.9507 18.8916 57.8584C22.5828 59.3384 26.6223 60.1045 30.8359 59.9826C35.0669 59.8607 39.0541 58.8857 42.6583 57.1968Z" fill="#EAE9CE"/>
</svg>
