<svg width="22" height="22" viewBox="0 0 22 22" fill="none" xmlns="http://www.w3.org/2000/svg">
    <g>
        <path d="M12.146 21.56C11.382 21.56 10.6251 21.56 9.86111 21.56C9.755 21.5181 9.64889 21.4552 9.54278 21.4413C5.05082 20.7987 1.61288 17.6908 0.580083 13.3327C0.495196 12.9765 0.396161 12.6203 0.304199 12.2641C0.304199 11.419 0.304199 10.574 0.304199 9.72888C0.353717 9.57522 0.417382 9.42157 0.438604 9.26094C1.69777 1.43872 11.2335 -2.25589 17.5222 2.66792C20.8399 5.26602 22.2193 8.72316 21.5048 12.8228C20.8116 16.7759 18.4206 19.4927 14.5936 20.9035C13.8084 21.1898 12.9666 21.3435 12.146 21.56ZM1.98073 10.9511C2.00902 15.9517 5.99166 19.9257 11 19.9257C15.9589 19.9257 20.0335 15.9098 20.0264 11.0209C20.0193 6.04126 15.9942 2.05332 10.9929 2.0603C5.99873 2.06729 1.95243 6.06221 1.98073 10.9511Z" fill="white"/>
        <path d="M10.1721 10.0222C10.1721 9.03046 10.1721 8.0457 10.1721 7.06793C10.1721 6.51618 10.3277 6.08316 10.9785 6.04824C11.5444 6.02031 11.8274 6.36951 11.8345 7.08888C11.8415 8.06666 11.8345 9.05142 11.8345 10.127C12.8814 10.127 13.8647 10.1409 14.855 10.12C15.4493 10.106 15.9091 10.2527 15.9586 10.9162C16.001 11.426 15.5837 11.7194 14.8692 11.7194C13.9001 11.7263 12.9309 11.7194 11.8345 11.7194C11.8345 12.5924 11.8345 13.4235 11.8345 14.2546C11.8345 14.513 11.8557 14.7714 11.8274 15.0298C11.7708 15.5047 11.5091 15.812 10.9927 15.8051C10.4692 15.7981 10.2004 15.4838 10.1862 15.0089C10.1579 14.1428 10.1792 13.2768 10.1721 12.4108C10.1721 12.2082 10.1438 12.0057 10.1296 11.7263C9.09684 11.7263 8.10649 11.7333 7.11614 11.7263C6.40874 11.7194 5.99845 11.412 6.04797 10.8952C6.11164 10.2806 6.529 10.113 7.10906 10.12C8.05697 10.134 9.00488 10.12 9.95279 10.113C9.99523 10.113 10.0377 10.0781 10.1721 10.0222Z" fill="white"/>
    </g>
</svg>
