<svg width="10" height="13" viewBox="0 0 10 13" fill="none" xmlns="http://www.w3.org/2000/svg">
    <g>
<path d="M4.96066 12.874C3.61283 12.874 2.26739 12.874 0.919554 12.874C0.233645 12.874 -0.0181746 12.6102 0.00101162 11.9195C0.0705618 9.44924 2.15467 7.32676 4.66087 7.17087C7.23903 7.01019 9.56057 8.83768 9.9275 11.3199C9.96108 11.5453 9.99466 11.7732 9.99945 12.001C10.0138 12.5934 9.74523 12.8716 9.15526 12.874C7.75706 12.8764 6.35886 12.874 4.96066 12.874Z" fill="#E9C460"/>
<path d="M4.98708 5.71031C3.41381 5.70792 2.13792 4.41524 2.14751 2.83477C2.15711 1.28069 3.44738 -0.00239493 4.99667 3.35663e-06C6.57474 0.00240164 7.86022 1.29028 7.85543 2.86355C7.85063 4.44162 6.56995 5.71271 4.98708 5.71031Z" fill="#E9C460"/>
    </g>
</svg>
