<?xml version="1.0" encoding="utf-8"?>
<!-- Generator: Adobe Illustrator 22.0.0, SVG Export Plug-In . SVG Version: 6.00 Build 0)  -->
<svg version="1.1" id="Calque_1" xmlns="http://www.w3.org/2000/svg" xmlns:xlink="http://www.w3.org/1999/xlink" x="0px" y="0px"
	 viewBox="0 0 1080 1080" style="enable-background:new 0 0 1080 1080;" xml:space="preserve">
<style type="text/css">
	.st0{fill:#FFFFFF;}
	.st1{fill:#2B3988;}
	.st2{fill:#EE2C35;}
</style>
<g id="skKgwA_1_">
	<g>
		<path class="st0" d="M704.9,864.7c-107.7,0-215.3,0-323,0c-5.9-6.6-5.5-14.8-5.5-22.8c-0.1-199-0.1-398,0-596.9
			c0-8-0.4-16.2,5.5-22.8c107.7,0,215.3,0,323,0c5.9,6.6,5.5,14.8,5.5,22.8c0.1,199,0.1,398,0,596.9
			C710.4,849.9,710.8,858.1,704.9,864.7z"/>
		<path class="st1" d="M382,222.2c0.2,6.8,0.6,13.7,0.6,20.5c0,200.5,0,401,0,601.5c0,6.8-0.4,13.7-0.6,20.5
			c-101.8,0-203.6-0.2-305.4,0.3c-10.8,0-14.6-0.9-14.5-13.6c0.5-205.3,0.5-410.6,0-615.9c0-12.6,3.7-13.6,14.5-13.6
			C178.4,222.4,280.2,222.2,382,222.2z"/>
		<path class="st2" d="M704.9,864.7c-0.2-15.4-0.6-30.8-0.6-46.2c0-191.9,0-383.8,0-575.7c0-6.8,0.4-13.7,0.6-20.5
			c101.8,0,203.6,0.2,305.4-0.3c10.8,0,14.6,0.9,14.5,13.6c-0.5,205.3-0.5,410.6,0,615.9c0,12.6-3.7,13.6-14.5,13.6
			C908.5,864.5,806.7,864.7,704.9,864.7z"/>
	</g>
</g>
</svg>
