<svg width="21" height="20" viewBox="0 0 21 20" fill="none" xmlns="http://www.w3.org/2000/svg">
    <g>
<path d="M7.06494 0.799988C7.39741 0.883105 7.72988 0.966222 8.06234 1.13246C9.47533 1.79739 10.2234 2.87791 10.3065 4.37402C10.3065 4.95583 10.3065 5.53765 10.3065 6.11947C10.7221 6.11947 11.1377 6.11947 11.5533 6.11947C11.8857 6.11947 12.1351 6.11947 12.4675 6.11947C12.8 6.11947 12.9662 6.28571 12.9662 6.61817C12.9662 7.36623 12.9662 8.03116 12.9662 8.77921H11.8857V7.19999H10.3065V8.77921H9.22598V7.19999H3.9065V8.77921H2.82598V7.19999H1.24675V16.7584H8.64416V17.839H1.16364C1.16364 18.0052 1.16364 18.1714 1.16364 18.3377C1.16364 18.7532 1.41299 18.9195 1.74546 18.9195C2.49351 18.9195 3.24156 18.9195 3.9065 18.9195H8.56104V20C8.47793 20 8.39481 20 8.22858 20C6.06754 20 3.9065 20 1.74546 20C0.83117 20 0 19.3351 0 18.2545C0 14.4312 0 10.6078 0 6.78441C0 6.28571 0.166234 6.11947 0.664936 6.11947C1.32987 6.11947 1.91169 6.11947 2.57663 6.11947C2.57663 6.11947 2.57663 6.11947 2.65974 6.11947C2.65974 5.70389 2.65974 5.20519 2.65974 4.7896C2.65974 2.71168 3.82338 1.29869 5.81819 0.883105C5.81819 0.883105 5.9013 0.883105 5.9013 0.799988H7.06494ZM9.22598 6.11947C9.22598 5.53765 9.22598 4.95583 9.22598 4.45713C9.14286 3.21038 8.31169 2.12986 7.14806 1.96362C5.9013 1.71427 4.73767 2.29609 4.15585 3.45973C3.74026 4.2909 3.98961 5.20518 3.9065 6.11947H9.22598Z" fill="#46C0E8"/>
<path d="M15.1272 9.85973C16.7064 9.85973 18.2025 9.85973 19.7818 9.85973C20.2805 9.85973 20.4467 10.026 20.4467 10.5247C20.4467 13.1013 20.4467 15.6779 20.4467 18.2545C20.4467 19.3351 19.6155 20 18.7012 20C16.2908 20 13.8805 20 11.4701 20C10.5558 20 9.72461 19.3351 9.72461 18.2545C9.72461 15.6779 9.72461 13.1013 9.72461 10.4415C9.72461 9.94284 9.89084 9.77661 10.3895 9.77661C12.0519 9.85973 13.548 9.85973 15.1272 9.85973ZM10.8882 16.7584H19.3662V10.9402H10.8882V16.7584ZM19.4493 17.839H10.8882C10.8051 18.7532 10.9714 18.9195 11.8025 18.9195H16.6233C17.3714 18.9195 18.0363 18.9195 18.7844 18.9195C19.1999 18.9195 19.3662 18.7532 19.3662 18.3377C19.4493 18.1714 19.4493 18.0052 19.4493 17.839Z" fill="#46C0E8"/>
<path d="M12.4675 12.0208H13.548C13.548 12.4364 13.548 12.7688 13.548 13.1844C13.6312 14.0156 14.213 14.5974 15.0442 14.6805C15.7922 14.7636 16.5403 14.1818 16.7065 13.4338C16.7896 13.2675 16.7065 13.0182 16.7896 12.7688C16.7896 12.5195 16.7896 12.2701 16.7896 12.0208H17.787C17.9532 13.5169 17.7039 14.6805 16.5403 15.3454C14.8779 16.3428 12.8 15.2623 12.5506 13.3506C12.4675 12.9351 12.4675 12.4364 12.4675 12.0208Z" fill="#46C0E8"/>
    </g>
</svg>
