<svg width="147" height="147" viewBox="0 0 147 147" fill="none" xmlns="http://www.w3.org/2000/svg">
<path d="M147 12.6328C147 53.2014 147 93.7986 147 134.367C146.885 134.683 146.77 134.97 146.684 135.286C145.478 140.282 142.579 143.87 137.841 145.88C136.721 146.368 135.516 146.627 134.367 147C93.7986 147 53.2014 147 12.6328 147C12.518 146.914 12.4031 146.799 12.2883 146.77C4.42148 144.99 0 139.506 0 131.439C0 92.7937 0 54.1488 0.0287109 15.5039C0.0287109 14.0684 0.143555 12.6328 0.459375 11.2547C2.0959 4.42149 7.92422 0.028715 15.2168 4.06802e-06C43.0664 4.06802e-06 70.8873 4.06802e-06 98.7369 4.06802e-06C109.877 4.06802e-06 121.017 -0.0287069 132.185 4.06802e-06C138.76 0.028715 144.301 4.07696 146.311 10.1924C146.541 11.025 146.77 11.8289 147 12.6328Z" fill="url(#paint0_linear_71_7789)"/>
<defs>
<linearGradient id="paint0_linear_71_7789" x1="73.5" y1="-0.0127563" x2="73.5" y2="147" gradientUnits="userSpaceOnUse">
<stop stop-color="#985A25"/>
<stop offset="1" stop-color="#FEE85B"/>
</linearGradient>
</defs>
</svg>
