<svg width="52" height="25" viewBox="0 0 52 25" fill="none" xmlns="http://www.w3.org/2000/svg">
    <g>
        <path d="M31.3769 9.1983C33.9353 9.1983 36.4833 9.28034 39.0417 9.17779C42.6401 9.04448 46.2489 8.89066 49.7641 7.98827C50.2009 7.87547 50.6273 7.71139 51.1057 7.55758C51.1057 7.71139 51.1057 7.83445 51.1057 7.9575C51.0017 10.275 50.8873 12.6028 50.7833 14.9203C50.7209 16.3354 50.6377 17.7608 50.5753 19.1759C50.5649 19.4631 50.4921 19.6271 50.1593 19.6579C48.6617 19.8322 47.1745 20.0989 45.6769 20.2014C43.2121 20.3552 40.7369 20.4988 38.2617 20.4783C35.6201 20.4578 32.9785 20.2937 30.3473 20.1296C26.6761 19.904 23.0569 19.3605 19.4377 18.7145C19.3753 18.7042 19.3129 18.6837 19.1777 18.6427C19.3337 17.9762 19.4793 17.3096 19.6457 16.6533C19.8433 15.8432 20.0305 15.0331 20.2593 14.2333C20.3113 14.0589 20.5193 13.8539 20.6961 13.7923C21.9545 13.4027 23.2129 13.659 24.4505 13.9564C26.1041 14.3563 27.7369 14.8485 29.3905 15.2382C30.8257 15.5766 32.2817 15.4843 33.7169 15.1767C34.5905 14.9818 35.1625 14.4794 35.2665 13.5565C35.4225 12.0491 35.4745 11.4748 34.0081 10.5211C33.2905 10.0494 32.4273 9.77255 31.6369 9.40339C31.5537 9.36237 31.4601 9.33161 31.3769 9.30084C31.3769 9.27008 31.3769 9.22906 31.3769 9.1983Z" fill="#62AD48"/>
        <path d="M33.3631 7.98827C32.3127 7.98827 31.2623 8.02929 30.2223 7.9575C29.9623 7.937 29.6399 7.5986 29.5047 7.33198C29.1719 6.67569 28.6519 6.34754 27.9551 6.16296C27.5495 6.05016 27.1647 5.7938 26.8111 5.54769C25.9167 4.92217 25.2823 4.92217 24.5335 5.59896C23.8575 6.21424 23.7639 7.0346 24.4399 7.66012C24.9495 8.13183 25.5631 8.54201 26.2079 8.78812C27.6535 9.35212 29.1615 9.77256 30.6175 10.3058C31.3143 10.5622 31.9799 10.9108 32.6247 11.2697C32.9679 11.4646 33.2903 11.7414 33.5607 12.0286C33.9559 12.4387 34.1223 12.9515 33.8831 13.5052C33.6543 14.0487 33.1759 14.3051 32.6351 14.2948C31.7823 14.2743 30.8983 14.2435 30.0767 14.0384C28.0799 13.536 26.1039 12.9412 24.1175 12.3772C23.3479 12.1619 22.5679 12.1311 21.8087 12.3977C19.8535 13.0848 17.9295 12.7156 15.9847 12.3567C14.5911 12.1003 13.1871 11.885 11.7831 11.6389C11.6479 12.1516 11.8767 12.3054 12.3135 12.3977C14.5079 12.9002 16.6919 13.4232 18.9487 13.9564C18.5639 15.1049 18.1999 16.2227 17.8151 17.3814C17.6799 17.3506 17.5759 17.3404 17.4719 17.2994C15.0487 16.3355 12.6359 15.3715 10.2127 14.4179C9.92151 14.3051 9.79671 14.1717 9.82791 13.8333C10.0983 10.5622 10.3583 7.30122 10.6183 4.03002C10.6599 3.46602 10.7431 2.89177 10.7431 2.32777C10.7431 1.88683 10.8783 1.76377 11.3255 1.76377C14.1127 1.77403 16.8895 1.7125 19.6767 1.74326C22.0791 1.76377 24.4919 1.87657 26.8943 1.9381C27.6743 1.95861 28.3607 2.19446 28.8911 2.77897C30.4303 4.45046 31.9487 6.1322 33.4775 7.80369C33.4463 7.87547 33.4047 7.937 33.3631 7.98827Z" fill="#62AD48"/>
        <path d="M5.77213 18.653C4.09773 18.3351 2.51693 18.0275 0.894531 17.7198C1.37293 11.9875 1.85133 6.29628 2.34013 0.512726C3.67133 0.697307 4.96093 0.881889 6.31293 1.06647C6.13613 6.94231 5.94893 12.7669 5.77213 18.653Z" fill="#62AD48"/>
        <path d="M6.84277 16.7046C7.12357 11.7312 7.39397 6.80899 7.67477 1.86631C8.49637 1.86631 9.26597 1.86631 10.1084 1.86631C10.0044 2.78922 9.91077 3.71213 9.80677 4.63503C9.38037 8.49074 8.95397 12.3362 8.54837 16.1919C8.50677 16.6123 8.37157 16.7456 7.96597 16.7046C7.61237 16.6841 7.25877 16.7046 6.84277 16.7046Z" fill="#62AD48"/>
        <path d="M29.4111 21.3294C29.3591 22.1293 29.2239 22.8368 28.7871 23.4623C28.4127 23.9956 27.9239 23.9956 27.5599 23.4521C27.0919 22.765 26.9671 21.9754 26.9463 21.0936C27.7679 21.1756 28.5479 21.2474 29.4111 21.3294Z" fill="#62AD48"/>
        <path d="M24.5654 20.7962C25.2102 20.8782 25.803 20.95 26.5414 21.0525C26.3646 21.6986 26.2606 22.3036 26.011 22.8471C25.7718 23.3906 25.2934 23.3906 24.971 22.8778C24.5966 22.2523 24.5446 21.5653 24.5654 20.7962Z" fill="#62AD48"/>
        <path d="M22.7656 20.5295C23.296 20.6116 23.7952 20.6731 24.2736 20.7449C24.3048 20.7962 24.336 20.8167 24.336 20.8474C24.3152 21.5653 23.9512 22.1395 23.5352 22.119C23.0776 22.0985 22.7448 21.4525 22.7656 20.5295Z" fill="#62AD48"/>
    </g>
</svg>
