<svg width="45" height="33" viewBox="0 0 45 33" fill="none" xmlns="http://www.w3.org/2000/svg">
    <g>
        <path d="M0 25.4242V27.7588C0 27.7588 6.80581 27.627 8.31644 27.627C9.82494 27.627 12.1031 32.6393 13.5561 32.6393C15.0083 32.6393 29.1349 32.6393 31.0711 32.6393C33.0074 32.6393 35.6001 27.627 37.3674 27.627C39.1334 27.627 44.9999 27.627 44.9999 27.627V25.2924L0 25.4242Z" fill="#EE6F24"/>
        <path d="M15.7702 13.3562C15.9631 13.716 16.0936 13.8176 16.2652 14.0621L16.6998 14.5866C16.7815 14.7624 16.9107 14.9004 16.9682 15.0913C17.1104 15.4586 17.2649 15.8438 17.3116 16.2668C17.4523 17.0983 17.4406 17.9649 17.4044 18.7256C17.3034 20.2445 17.1557 21.3568 17.1557 21.3568C17.1557 21.3568 17.968 20.5686 18.6134 19.0113C18.774 18.6254 18.934 18.1901 19.0357 17.7052C19.1379 17.222 19.2397 16.6933 19.217 16.1206C19.217 15.5583 19.1483 14.9355 18.923 14.332C18.8345 14.0231 18.6456 13.7387 18.4994 13.4394C18.417 13.2932 18.3044 13.1647 18.2056 13.0274L18.0497 12.8249L17.9707 12.7288L17.9529 12.7041C17.961 12.7151 17.9783 12.7303 18.0078 12.7659L17.9989 12.7528L17.9707 12.7164C17.8348 12.5324 17.5663 12.2667 17.5354 12.1513C17.4716 12.0147 17.3802 11.9021 17.3184 11.6941C17.1708 11.3343 17.0569 10.9224 16.9964 10.5001C16.87 9.65817 16.8864 8.78756 16.9208 8.02545C17.0231 6.50123 17.1556 5.38879 17.1556 5.38879C17.1556 5.38879 16.3522 6.18317 15.7067 7.73706C15.3834 8.51028 15.0978 9.47698 15.084 10.6127C15.0977 11.1722 15.108 11.7881 15.3414 12.3959C15.4145 12.6882 15.5889 13.0287 15.7702 13.3562Z" fill="#EE6F24"/>
        <path d="M20.5548 7.96482C20.7497 8.32873 20.878 8.42896 21.0498 8.67338L21.4837 9.19521C21.5668 9.36824 21.6952 9.51315 21.7528 9.70261C21.8943 10.0658 22.0495 10.4524 22.0954 10.874C22.2361 11.7082 22.2252 12.5768 22.1881 13.3349C22.0899 14.8564 21.9408 15.9647 21.9408 15.9647C21.9408 15.9647 22.7524 15.1772 23.3978 13.622C23.5591 13.2341 23.7185 12.8008 23.8194 12.3098C23.9245 11.8306 24.0247 11.3032 24.0014 10.7305C24.0014 10.1696 23.9354 9.544 23.7069 8.9405C23.6182 8.63284 23.4301 8.34587 23.2839 8.0479C23.1994 7.90158 23.0883 7.77322 22.9872 7.63588L22.8333 7.4333L22.7537 7.33449L22.7379 7.30979C22.7448 7.32208 22.7633 7.33863 22.7832 7.3599L22.7551 7.32622C22.6212 7.13947 22.3513 6.87791 22.3219 6.75983C22.2588 6.6245 22.166 6.5134 22.1042 6.30112C21.9558 5.94276 21.8411 5.52944 21.7835 5.10985C21.6579 4.26524 21.6736 3.39605 21.7072 2.63252C21.8081 1.1096 21.942 0 21.942 0C21.942 0 21.1379 0.794378 20.4925 2.34413C20.1704 3.11593 19.8836 4.08677 19.8691 5.21977C19.8849 5.778 19.8931 6.39663 20.1253 7.00709C20.2004 7.2995 20.3728 7.64002 20.5548 7.96482Z" fill="#EE6F24"/>
        <path d="M26.468 12.8542C26.6603 13.2154 26.7894 13.3184 26.9596 13.5601L27.3935 14.0833C27.4759 14.2578 27.605 14.3985 27.6627 14.5907C27.8055 14.9546 27.9593 15.3405 28.0059 15.7634C28.1461 16.5956 28.1351 17.4648 28.0994 18.2215C28.0004 19.7457 27.8521 20.8527 27.8521 20.8527C27.8521 20.8527 28.6638 20.0658 29.3091 18.5085C29.4711 18.1241 29.6292 17.6846 29.7307 17.2013C29.8336 16.7171 29.934 16.1912 29.9119 15.6172C29.9119 15.0563 29.8459 14.4335 29.618 13.8299C29.5302 13.5195 29.3406 13.234 29.1951 12.9359C29.1113 12.791 29.0001 12.6641 28.9013 12.5253L28.7474 12.3241L28.6678 12.2239L28.6486 12.1971C28.6596 12.2088 28.6733 12.2266 28.7022 12.2616L28.6966 12.2506L28.6678 12.2101C28.5305 12.0255 28.2614 11.7645 28.2339 11.6464C28.1678 11.5111 28.0773 11.3971 28.0142 11.1877C27.8687 10.8293 27.7533 10.4145 27.6928 9.99502C27.5666 9.15111 27.5843 8.28121 27.6187 7.5191C27.7161 5.99618 27.8521 4.88516 27.8521 4.88516C27.8521 4.88516 27.0473 5.68096 26.4047 7.23473C26.0806 8.00795 25.7937 8.97264 25.7812 10.1061C25.7924 10.6658 25.8005 11.2857 26.0341 11.892C26.1109 12.1862 26.2839 12.5267 26.468 12.8542Z" fill="#EE6F24"/>
    </g>
</svg>
