<svg width="68" height="57" viewBox="0 0 68 57" fill="none" xmlns="http://www.w3.org/2000/svg">
<path d="M36.3844 0C37.2824 0.816456 38.0772 1.83961 39.1094 2.40803C40.0177 2.9041 41.2047 2.88343 42.3917 3.12114C42.144 4.87807 40.5441 3.71022 39.7803 4.28898C38.9133 7.68915 37.6746 9.0947 35.3626 9.27039C33.1227 9.44608 31.1513 8.21623 30.4597 6.2216C29.7269 4.09261 30.532 1.89128 32.4931 0.651098C32.8337 0.434065 33.1743 0.217033 33.5253 0C34.4852 0 35.4348 0 36.3844 0Z" fill="#28CB9F"/>
<path d="M0.0103218 46.0626C2.72496 46.0626 5.43959 46.0316 8.15422 46.104C8.58774 46.1143 9.00061 46.6104 9.4238 46.8791C9.34123 47.0858 9.25865 47.2821 9.16576 47.4888C6.11051 47.4888 3.05525 47.4888 0 47.4888C0.0103218 47.0134 0.0103218 46.538 0.0103218 46.0626Z" fill="#28CB9F"/>
<path d="M67.9999 45.6492C67.2052 45.8869 66.6581 46.0419 66.1317 46.197C63.0248 41.1535 60.1244 39.531 55.7893 40.3577C51.867 41.1019 49.5446 44.0886 48.6982 49.5455C43.5063 49.5455 38.2938 49.5455 32.9368 49.5455C32.8336 46.476 31.8633 43.7786 29.2829 41.8666C27.5901 40.6161 25.6806 40.1097 23.5956 40.2337C18.734 40.5024 15.9987 43.6546 15.1523 50.3723C14.4504 49.8658 13.7073 49.6075 13.4079 49.0907C11.5087 45.7319 9.65081 42.3524 7.88578 38.9212C6.40977 36.0688 7.99932 33.268 11.1165 33.2577C19.2501 33.206 27.394 33.2473 35.5276 33.2473C35.7546 33.2473 35.9714 33.3094 36.3327 33.3507C36.3327 37.0713 36.3327 40.7401 36.3327 44.6467C39.1092 44.6467 41.7619 44.6881 44.4043 44.6054C44.8069 44.5951 45.292 44.0783 45.5603 43.6752C47.2531 41.1639 48.9459 38.6525 50.5148 36.0584C50.8348 35.521 50.8761 34.5805 50.649 33.9708C49.6891 31.4181 48.595 28.917 47.5112 26.416C47.3047 25.9509 47.0157 25.4548 46.6338 25.1345C45.7977 24.4317 45.5397 23.6256 46.3138 22.8608C47.1705 22.0237 48.0376 22.375 48.7291 23.2638C50.1019 25.0518 51.4851 26.8294 52.9508 28.731C53.8488 27.3048 54.8913 26.2093 56.6563 26.4263C57.1104 26.478 57.8949 26.6227 57.9362 26.8397C58.1736 28.0902 58.2355 29.3718 58.3491 30.643C58.4729 31.9865 58.3594 33.1853 56.4602 33.2577C58.2974 35.645 59.6702 38.0944 62.6945 39.2106C65.3885 40.2337 66.9058 42.7244 67.9999 45.6492Z" fill="#28CB9F"/>
<path d="M35.1662 21.1865C34.8875 22.7471 34.6088 24.3077 34.2888 26.0956C35.7855 26.0956 37.1893 26.0646 38.593 26.1059C41.1941 26.168 42.7734 27.7595 42.794 30.3743C42.8147 33.7021 42.8147 37.0299 42.794 40.3681C42.7837 42.2904 41.9786 43.2102 40.3787 43.1998C38.8614 43.1895 37.8912 42.1354 37.8395 40.3784C37.7983 38.9522 37.8292 37.526 37.8292 36.0998C37.8292 34.7356 37.8292 33.3817 37.8292 31.7798C35.3726 31.7798 33.0193 31.7901 30.6762 31.7798C26.6094 31.7591 24.8444 29.4028 26.0004 25.5065C27.2287 21.3622 28.4983 17.2179 29.6853 13.0633C30.1498 11.4304 30.9755 10.4486 32.7922 10.5106C34.774 10.5829 36.9209 10.0765 37.757 12.7843C38.3143 14.5929 38.6446 16.9906 39.9245 17.8897C41.2148 18.7992 43.5785 18.2101 45.4674 18.2204C47.2634 18.2308 48.182 19.1299 48.3265 20.4114C47.0466 21.1555 45.9938 21.8066 44.91 22.375C44.5177 22.5817 44.0223 22.6748 43.5681 22.6851C42.0818 22.7264 40.5955 22.6541 39.1194 22.7161C37.6228 22.7678 36.2603 22.6541 35.1662 21.1865Z" fill="#28CB9F"/>
<path d="M31.4296 48.8944C31.4399 52.9663 28.1886 56.2838 24.1631 56.3251C20.1685 56.3665 16.8036 53.0386 16.7727 49.008C16.7417 44.8534 20.0653 41.4636 24.1321 41.4842C28.1576 41.5152 31.4296 44.8327 31.4296 48.8944ZM26.1965 49.2354C26.1862 48.977 26.1862 48.729 26.1758 48.4706C25.4739 48.0159 24.8134 47.2924 24.0599 47.1788C22.9761 47.0134 22.171 47.9022 22.4393 48.9357C22.6251 49.6281 23.5335 50.5479 24.1734 50.5996C24.803 50.6409 25.5152 49.7211 26.1965 49.2354Z" fill="#28CB9F"/>
<path d="M64.9548 48.946C64.9445 53.018 61.6106 56.3561 57.5954 56.3251C53.5596 56.2941 50.2876 52.956 50.2979 48.8737C50.3082 44.8121 53.6421 41.4636 57.6573 41.4842C61.6622 41.5152 64.9652 44.8947 64.9548 48.946ZM59.6907 49.2767C59.6907 49.0287 59.701 48.7807 59.701 48.5223C59.0095 48.0469 58.287 47.1581 57.6573 47.2304C57.0174 47.3028 56.0162 48.3053 56.0162 48.9047C56.0162 49.5041 57.0071 50.5273 57.647 50.5893C58.2663 50.6513 58.9992 49.7521 59.6907 49.2767Z" fill="#28CB9F"/>
<path d="M7.20459 20.9075C7.20459 20.2254 7.20459 19.6983 7.20459 19.0472C12.83 19.0472 18.445 19.0472 24.153 19.0472C24.153 19.6259 24.153 20.2047 24.153 20.9075C18.5792 20.9075 12.9745 20.9075 7.20459 20.9075Z" fill="#28CB9F"/>
<path d="M24.2149 22.6231C24.2149 23.2742 24.2149 23.8116 24.2149 24.473C18.5792 24.473 12.9848 24.473 7.25619 24.473C7.2149 23.8839 7.17361 23.3155 7.13232 22.6231C12.83 22.6231 18.4347 22.6231 24.2149 22.6231Z" fill="#28CB9F"/>
<path d="M24.174 26.1576C24.174 26.8397 24.174 27.4185 24.174 28.0799C18.5486 28.0799 12.9851 28.0799 7.24622 28.0799C7.21525 27.4598 7.18429 26.8604 7.15332 26.1576C12.8613 26.1576 18.4247 26.1576 24.174 26.1576Z" fill="#28CB9F"/>
<path d="M7.20459 31.6248C7.20459 30.9323 7.20459 30.4053 7.20459 29.7645C12.8403 29.7645 18.445 29.7645 24.153 29.7645C24.153 30.3639 24.153 30.9323 24.153 31.6248C18.5689 31.6248 12.9745 31.6248 7.20459 31.6248Z" fill="#28CB9F"/>
<path d="M7.56599 44.5847C5.86289 44.5847 4.14947 44.5847 1.76514 44.5847C2.38444 43.9129 2.6941 43.2928 3.04504 43.2618C4.33527 43.1378 5.64613 43.1482 6.93636 43.2515C7.31827 43.2825 7.64856 43.7993 8.00983 44.099C7.86532 44.2643 7.72082 44.4193 7.56599 44.5847Z" fill="#28CB9F"/>
</svg>
