<svg width="458" height="236" viewBox="0 0 458 236" fill="none" xmlns="http://www.w3.org/2000/svg">
<path d="M438.28 41.7343C435.863 34.2772 431.792 27.7099 426.237 22.2018L426.067 22.0747C420.427 16.6513 413.769 12.7533 406.178 10.5077C401.301 9.06714 396.212 8.34686 390.954 8.34686C388.537 8.34686 386.035 8.51633 383.532 8.81292L352.957 12.6262L350.752 34.2348L345.408 13.0923L299.396 18.7698L292.357 35.2941L293.417 14.0244L242.613 27.3709L235.234 44.5731L230.951 27.4557L182.733 33.4722L181.758 41.014C179.765 39.9548 177.687 39.065 175.482 38.3023C171.114 36.8618 166.491 36.0991 161.699 36.0991C159.706 36.0991 157.671 36.2262 155.55 36.4804C150.037 37.1583 144.694 38.726 139.605 41.1411L140.75 32.2858L87.1047 45.4628L86.7231 44.5307L40.8807 50.3354L25.1899 169.691L124.381 157.362L125.356 149.904C127.434 151.006 129.639 151.981 131.887 152.743C136.255 154.226 140.92 154.946 145.669 154.946C147.62 154.946 149.613 154.819 151.734 154.565C157.289 153.887 162.717 152.277 167.848 149.82L167.467 152.828L287.31 137.956V137.744L307.454 135.245L314.62 118.424L318.522 133.846L340.955 131.05L340.913 131.516L382.515 126.347L383.024 126.262C389.936 124.991 396.721 122.576 403.125 119.102C409.401 115.67 415.253 111.263 420.469 105.967L420.554 105.84C426.194 100.035 430.774 93.5526 434.124 86.6463C437.602 79.5282 439.722 72.0711 440.486 64.4869C441.334 56.4366 440.57 48.8101 438.28 41.7343Z" fill="white"/>
<path d="M43.6796 53.1318L28.837 166.047L121.54 154.523L122.812 144.947L126.84 147.108C128.791 148.167 130.827 149.015 132.905 149.735C136.976 151.091 141.259 151.769 145.669 151.769C147.535 151.769 149.359 151.642 151.352 151.387C156.526 150.752 161.657 149.227 166.491 146.939L171.708 144.439L171.114 149.142L284.299 135.075V134.863L305.248 132.279L315.384 108.509L320.897 130.33L344.475 127.406L344.433 127.872L382.43 123.127C389.003 121.94 395.449 119.61 401.598 116.305C407.62 113.043 413.175 108.806 418.222 103.721L418.307 103.637C423.692 98.0862 428.103 91.9002 431.326 85.2905C434.633 78.5113 436.669 71.3932 437.39 64.1903C438.153 56.6485 437.432 49.4032 435.27 42.7512C433.022 35.8025 429.205 29.6589 424.032 24.4898L423.904 24.3626C418.688 19.3206 412.412 15.6768 405.33 13.6007C398.63 11.6093 391.378 11.1009 383.957 12.033L355.883 15.5073L352.109 52.4962L343.076 16.5242L301.601 21.6933L288.328 52.7928L290.024 18.1767L244.945 30.0402L234.513 54.4452L228.576 30.9723L185.575 36.3109L184.345 45.9713L180.316 43.8528C178.408 42.8359 176.5 42.0309 174.549 41.3529C170.52 39.9971 166.195 39.3192 161.784 39.3192C159.918 39.3192 158.01 39.4463 156.017 39.7005C150.885 40.3361 145.839 41.819 141.047 44.107L135.788 46.6068L137.103 36.5652L85.3236 49.2761L84.8147 48.0898L43.6796 53.1318ZM23.1968 171.725L38.0818 47.4966L88.7586 41.1835L89.0131 41.819L144.524 28.1759L143.464 36.1838C147.281 34.828 151.225 33.8959 155.169 33.3874C157.459 33.0908 159.579 32.9637 161.699 32.9637C166.831 32.9637 171.792 33.7687 176.5 35.3364C177.39 35.633 178.281 35.972 179.171 36.3109L179.892 30.6334L233.325 23.9813L236.04 34.7009L240.323 24.6592L296.725 9.87216L296.343 17.7953L297.191 15.8463L347.826 9.57557L349.437 16.0158L350.073 9.78742L383.151 5.67755C391.42 4.66067 399.52 5.25385 407.069 7.45708C415.126 9.82979 422.293 13.982 428.272 19.7867L428.442 19.9562C434.379 25.8456 438.705 32.8366 441.291 40.7598C443.709 48.2592 444.514 56.3519 443.666 64.7835C442.86 72.749 440.613 80.5874 437.008 88.0021C433.488 95.2474 428.739 101.984 422.844 108.043L422.717 108.17C417.289 113.678 411.182 118.297 404.651 121.856C397.951 125.499 390.827 128.042 383.575 129.355L382.896 129.482L337.351 135.117L337.393 134.651L316.147 137.278L313.857 128.211L309.659 138.083L290.363 140.498V140.71L163.862 156.429L164.074 154.819C160.173 156.218 156.186 157.192 152.158 157.701C149.91 157.955 147.832 158.124 145.712 158.124C140.623 158.124 135.619 157.319 130.912 155.752C129.894 155.413 128.918 155.031 127.943 154.65L127.222 160.243L23.1968 171.725Z" fill="#010101"/>
<path d="M119.631 55.9706L108.393 141.303L89.8189 143.591L71.4989 100.417L66.8341 146.473L45.9272 149.057L56.8259 66.3512L75.5276 64.0208L93.7204 107.153L98.3852 61.182L119.631 55.9706Z" fill="#010101"/>
<path d="M180.698 112.661C178.747 116.771 176.203 120.542 172.938 124.017C169.63 127.618 165.94 130.541 161.954 132.702C157.968 134.863 153.812 136.219 149.486 136.77H149.359C145.118 137.278 141.174 136.939 137.527 135.711C133.88 134.482 130.657 132.49 127.943 129.694C125.399 126.94 123.575 123.72 122.388 119.991C121.201 116.263 120.819 112.195 121.201 107.789L123.151 88.5106C123.915 84.5702 125.272 80.7569 127.18 77.0707C129.088 73.4269 131.463 69.995 134.304 66.902C137.697 63.3429 141.387 60.5041 145.33 58.3009C149.317 56.14 153.43 54.7842 157.756 54.2334H157.883C162.166 53.6826 166.152 54.0639 169.842 55.2503C173.489 56.479 176.669 58.4704 179.341 61.3091C181.674 63.809 183.455 66.6901 184.642 69.9526C185.829 73.2151 186.381 76.8165 186.381 80.6722L186.126 83.0872L185.109 93.256L184.43 99.9081C183.879 104.357 182.649 108.552 180.698 112.661Z" fill="#010101"/>
<path d="M270.135 121.983L247.278 124.822L250.204 96.0525L237.312 126.093L218.949 128.338L211.783 99.9505L208.772 129.609L188.162 132.194L198.721 49.5304L217.465 47.2L230.866 100.417L255.632 42.4546L274.291 37.5397L270.135 121.983Z" fill="#010101"/>
<path d="M324.29 83.5957L309.192 85.46L295.028 118.72L275.224 121.178L311.822 35.2517L331.965 32.7519L351.812 111.645L332.008 114.102L324.29 83.5957Z" fill="#010101"/>
<path d="M422.717 62.6226C422.165 68.1731 420.596 73.554 418.052 78.7655C415.508 84.0194 412.073 88.8496 407.705 93.3408C403.676 97.4083 399.308 100.755 394.516 103.34C389.766 105.925 384.847 107.704 379.758 108.594L377.341 108.89L360.929 110.924L369.326 28.5573L385.738 26.5235C391.208 25.8456 396.339 26.2269 401.131 27.6251C405.923 29.0233 410.079 31.4384 413.642 34.8704C417.161 38.3871 419.706 42.497 421.233 47.2C422.802 51.9878 423.268 57.1145 422.717 62.6226Z" fill="#010101"/>
<path d="M385.526 47.1576L386.289 47.0729C387.265 46.9458 388.198 46.9034 389.088 46.9034C390.742 46.9034 392.226 47.1152 393.668 47.5389C395.365 48.0474 396.722 48.81 397.909 49.954C399.139 51.2251 399.987 52.581 400.538 54.2757C401.217 56.3942 401.429 58.7669 401.132 61.5634C400.793 64.7835 399.902 67.9188 398.333 71.0966C396.722 74.4438 394.516 77.4944 391.633 80.5027C389.003 83.172 386.162 85.3328 383.151 86.9853C382.558 87.3242 381.964 87.6208 381.37 87.875L385.526 47.1576Z" fill="white"/>
<path d="M314.409 68.1731L319.498 67.4104L317.462 60.1652L314.409 68.1731Z" fill="white"/>
<path d="M152.964 100.417C147.408 100.417 143.719 95.4169 144.779 89.2733C145.839 83.1296 151.225 78.1724 156.78 78.1724C162.336 78.1724 166.025 83.172 164.965 89.3156C163.905 95.4593 158.519 100.417 152.964 100.417ZM157.968 71.3508C148.596 71.3084 139.52 79.6977 137.739 90.0359C136.213 98.8912 148.341 121.983 148.341 122.025C148.341 122.025 170.139 99.2725 171.708 90.1207C173.489 79.7824 167.34 71.3508 157.968 71.3508Z" fill="#E9C460"/>
<path d="M39.4386 233.5L25.8259 212.442V233.5H19.1255V199.223H25.1049L38.7177 220.238V199.223H45.4181V233.5H39.4386Z" fill="white"/>
<path d="M74.1704 230.026C71.7532 232.441 68.8271 233.797 64.9256 233.797C61.0241 233.797 58.0132 232.441 55.6384 230.026C52.161 226.552 52.2458 222.272 52.2458 216.34C52.2458 210.409 52.161 206.129 55.6384 202.655C58.0556 200.24 61.0241 198.884 64.9256 198.884C68.8271 198.884 71.7532 200.24 74.1704 202.655C77.6478 206.129 77.6054 210.409 77.6054 216.34C77.6054 222.272 77.6478 226.594 74.1704 230.026ZM69.2087 206.722C68.2334 205.621 66.7491 204.901 64.9256 204.901C63.1021 204.901 61.533 205.621 60.6 206.722C59.2854 208.163 58.9462 209.773 58.9462 216.34C58.9462 222.95 59.2854 224.518 60.6 225.958C61.5754 227.06 63.1021 227.78 64.9256 227.78C66.7491 227.78 68.2334 227.06 69.2087 225.958C70.5234 224.518 70.905 222.908 70.905 216.34C70.905 209.773 70.5234 208.163 69.2087 206.722Z" fill="white"/>
<path d="M108.86 233.5V213.502L102.287 226.509H97.7491L91.176 213.502V233.5H84.4756V199.223H91.0911L100.039 217.781L108.945 199.223H115.56V233.5H108.86Z" fill="white"/>
<path d="M143.082 233.5L141.047 227.441H128.833L126.756 233.5H119.758L132.226 199.223H137.485L150.037 233.5H143.082ZM135.067 209.349L130.742 221.806H139.266L135.067 209.349Z" fill="white"/>
<path d="M175.736 230.238C173.488 232.483 170.223 233.5 166.661 233.5H154.278V199.223H166.661C170.223 199.223 173.446 200.24 175.736 202.485C179.595 206.341 179.213 211.044 179.213 216.213C179.213 221.382 179.595 226.382 175.736 230.238ZM171.071 207.316C169.926 205.917 168.357 205.197 166.067 205.197H161.021V227.526H166.067C168.4 227.526 169.926 226.806 171.071 225.408C172.343 223.882 172.513 221.425 172.513 216.213C172.513 211.002 172.343 208.841 171.071 207.316Z" fill="white"/>
<path d="M203.809 213.925V233.543H197.533V213.925H194.946V209.138H197.533V206.002C197.533 202.443 199.738 198.842 204.87 198.842H208.432V204.138H205.972C204.488 204.138 203.809 204.943 203.809 206.383V209.138H208.432V213.925H203.809Z" fill="white"/>
<path d="M229.89 230.704C228.364 232.356 225.777 233.797 222.087 233.797C218.398 233.797 215.853 232.356 214.327 230.704C212.079 228.331 211.485 225.492 211.485 220.916C211.485 216.383 212.079 213.544 214.327 211.171C215.853 209.519 218.355 208.078 222.087 208.078C225.819 208.078 228.364 209.519 229.89 211.171C232.138 213.544 232.731 216.383 232.731 220.916C232.731 225.492 232.138 228.373 229.89 230.704ZM225.013 214.857C224.292 214.137 223.317 213.756 222.087 213.756C220.815 213.756 219.924 214.137 219.204 214.857C217.889 216.171 217.762 218.332 217.762 220.916C217.762 223.501 217.889 225.746 219.204 227.018C219.924 227.738 220.857 228.119 222.087 228.119C223.359 228.119 224.292 227.738 225.013 227.018C226.328 225.704 226.455 223.501 226.455 220.916C226.455 218.332 226.328 216.171 225.013 214.857Z" fill="white"/>
<path d="M256.056 230.704C254.529 232.356 251.942 233.797 248.253 233.797C244.563 233.797 242.019 232.356 240.492 230.704C238.245 228.331 237.651 225.492 237.651 220.916C237.651 216.383 238.245 213.544 240.492 211.171C242.019 209.519 244.521 208.078 248.253 208.078C251.985 208.078 254.529 209.519 256.056 211.171C258.303 213.544 258.897 216.383 258.897 220.916C258.897 225.492 258.303 228.373 256.056 230.704ZM251.179 214.857C250.458 214.137 249.483 213.756 248.253 213.756C247.023 213.756 246.09 214.137 245.369 214.857C244.054 216.171 243.927 218.332 243.927 220.916C243.927 223.501 244.054 225.746 245.369 227.018C246.09 227.738 247.023 228.119 248.253 228.119C249.483 228.119 250.458 227.738 251.179 227.018C252.493 225.704 252.621 223.501 252.621 220.916C252.621 218.332 252.493 216.171 251.179 214.857Z" fill="white"/>
<path d="M278.744 233.5V231.127C277.005 233.034 275.182 233.797 272.51 233.797C270.05 233.797 267.718 232.949 266.361 231.551C263.859 229.051 263.816 224.73 263.816 220.959C263.816 217.188 263.859 212.908 266.361 210.409C267.76 209.01 270.008 208.163 272.468 208.163C275.012 208.163 276.963 208.841 278.574 210.663V199.265H284.85V233.543H278.744V233.5ZM274.333 213.756C270.559 213.756 270.093 216.849 270.093 220.916C270.093 224.984 270.559 228.119 274.333 228.119C278.108 228.119 278.617 224.984 278.617 220.916C278.617 216.849 278.108 213.756 274.333 213.756Z" fill="white"/>
<path d="M299.778 233.5C294.689 233.5 292.484 229.899 292.484 226.34V213.925H289.812V209.138H292.484V201.723H298.76V209.138H303.213V213.925H298.76V225.958C298.76 227.399 299.438 228.204 300.923 228.204H303.17V233.5H299.778Z" fill="white"/>
<path d="M322.551 215.239C321.575 214.264 320.77 213.756 319.243 213.756C317.335 213.756 315.214 215.196 315.214 218.374V233.5H308.938V208.417H315.045V210.832C316.232 209.392 318.649 208.121 321.363 208.121C323.823 208.121 325.562 208.756 327.3 210.493L322.551 215.239Z" fill="white"/>
<path d="M345.281 233.5V231.17C343.627 232.907 341.337 233.754 339.004 233.754C336.502 233.754 334.467 232.949 333.067 231.551C331.032 229.517 330.523 227.187 330.523 224.433V208.375H336.799V223.543C336.799 226.975 338.962 228.119 340.955 228.119C342.948 228.119 345.153 226.975 345.153 223.543V208.375H351.43V233.458H345.281V233.5Z" fill="white"/>
<path d="M368.435 233.797C363.431 233.797 357.197 231.085 357.197 220.959C357.197 210.832 363.431 208.163 368.435 208.163C371.913 208.163 374.5 209.222 376.747 211.553L372.506 215.79C371.192 214.391 370.089 213.798 368.478 213.798C366.993 213.798 365.806 214.307 364.915 215.451C363.94 216.637 363.516 218.332 363.516 221.001C363.516 223.67 363.94 225.365 364.915 226.594C365.848 227.695 366.993 228.246 368.478 228.246C370.132 228.246 371.234 227.653 372.506 226.255L376.747 230.45C374.5 232.695 371.87 233.797 368.435 233.797Z" fill="white"/>
<path d="M396.679 233.5L390.53 223.035L387.858 226.001V233.458H381.582V199.181H387.858V218.628L396.212 208.375H403.761L394.813 218.501L404.439 233.458H396.679V233.5Z" fill="white"/>
</svg>
