<svg width="78" height="39" viewBox="0 0 78 39" fill="none" xmlns="http://www.w3.org/2000/svg">
<path d="M51.3323 38.3678C51.1634 35.7392 50.9946 33.1106 50.8137 30.4699C50.5845 27.1782 50.3433 23.8864 50.1141 20.6067C49.9814 18.786 49.8488 16.9773 49.7161 15.1084C49.4025 15.0963 49.1613 15.0722 48.92 15.0722C41.8883 15.0722 34.8566 15.0842 27.8249 15.0601C27.1495 15.0601 26.9807 15.2651 26.9445 15.9042C26.6309 20.7876 26.257 25.6709 25.9313 30.5543C25.7504 33.1588 25.6057 35.7633 25.4368 38.3678C24.7252 38.3678 24.0136 38.3678 23.302 38.3678C23.2779 38.0181 23.2417 37.6563 23.2417 37.3067C23.2417 28.4322 23.2417 19.5456 23.2417 10.6711C23.2417 10.3455 23.2417 10.02 23.2417 9.59797C22.8919 9.59797 22.6145 9.59797 22.3492 9.59797C19.0203 9.59797 15.7034 9.59797 12.3745 9.59797C11.3252 9.59797 10.891 9.1036 10.9513 8.07869C10.9875 7.35523 11.3976 6.98144 12.085 6.86086C12.278 6.82468 12.4951 6.8488 12.6881 6.8488C30.2251 6.8488 47.7622 6.8488 65.2871 6.8488C66.5415 6.8488 67.0239 7.23465 67.0239 8.22338C67.0239 9.11566 66.5897 9.57385 65.6731 9.58591C63.7674 9.59797 61.8617 9.59797 59.9681 9.59797C57.8092 9.59797 55.6623 9.59797 53.3706 9.59797C53.3706 9.9597 53.3706 10.2732 53.3706 10.5867C53.3706 19.4853 53.3706 28.396 53.3706 37.2946C53.3706 37.6443 53.3344 38.006 53.3103 38.3557C52.659 38.3678 51.9957 38.3678 51.3323 38.3678ZM49.3301 9.6462C41.9969 9.6462 34.724 9.6462 27.4269 9.6462C27.3666 10.5505 27.2943 11.3946 27.234 12.2627C34.7119 12.2627 42.1054 12.2627 49.5352 12.2627C49.4749 11.3705 49.4025 10.5385 49.3301 9.6462Z" fill="#46C0E8"/>
<path d="M58.7988 38.3678C58.7988 32.9177 58.7988 27.4676 58.7988 21.9572C63.8042 21.9572 68.7373 21.9572 73.7909 21.9572C74.2493 14.6261 74.6955 7.36729 75.1539 0C76.1308 0 77.0595 0 78.0003 0C78.0003 12.7933 78.0003 25.5865 78.0003 38.3798C77.0354 38.3798 76.0705 38.3798 75.1056 38.3798C75.1056 38.199 75.1297 38.0301 75.1056 37.8493C74.8282 34.666 74.5508 31.4828 74.2734 28.2995C74.2131 27.552 74.1286 26.8044 74.0563 26.0809C70.257 26.0809 66.5663 26.0809 62.8152 26.0809C62.5378 28.3237 62.2725 30.5302 61.983 32.7368C61.7418 34.6178 61.4885 36.4988 61.2352 38.3798C60.4271 38.3678 59.619 38.3678 58.7988 38.3678Z" fill="#46C0E8"/>
<path d="M0 38.3678C0 25.6107 0 12.8536 0 0.0482273C0.844286 0.0482273 1.62827 0.0482273 2.50874 0.0482273C2.955 7.29493 3.40127 14.5537 3.85959 21.8848C8.49111 21.8848 13.0985 21.8848 17.8265 21.8848C17.8265 27.4314 17.8265 32.9056 17.8265 38.3678C17.3199 38.3678 16.8134 38.3678 16.3068 38.3678C16.3068 38.1628 16.3188 37.9578 16.2947 37.7649C15.9329 34.8228 15.571 31.8807 15.2092 28.9386C15.0886 27.974 14.9439 27.0094 14.8233 26.0809C11.0119 26.0809 7.32117 26.0809 3.58219 26.0809C3.35302 28.7457 3.12386 31.3743 2.88263 33.9908C2.74996 35.4498 2.59316 36.9088 2.43637 38.3678C1.62827 38.3678 0.820164 38.3678 0 38.3678Z" fill="#46C0E8"/>
<path d="M10.9039 20.5464C8.9741 20.5464 7.0443 20.5464 5.12657 20.5464C4.64412 20.5464 4.14961 20.5223 4.13755 19.8953C4.11342 19.2201 4.62 19.1839 5.13863 19.1839C9.02235 19.1839 12.894 19.1959 16.7777 19.1839C17.2722 19.1839 17.7667 19.2442 17.7788 19.835C17.8029 20.4861 17.2963 20.5585 16.7657 20.5585C14.8117 20.5344 12.8578 20.5464 10.9039 20.5464Z" fill="#46C0E8"/>
<path d="M65.7338 19.1839C67.6636 19.1839 69.5814 19.1839 71.5112 19.1839C72.0057 19.1839 72.4761 19.2201 72.4881 19.8471C72.5002 20.4741 72.0539 20.5464 71.5473 20.5464C67.6395 20.5464 63.7437 20.5344 59.8359 20.5464C59.3293 20.5464 58.8469 20.462 58.8469 19.8712C58.8348 19.2321 59.3535 19.1718 59.8841 19.1718C61.8381 19.1839 63.792 19.1839 65.7338 19.1839Z" fill="#46C0E8"/>
</svg>
