<?xml version="1.0" encoding="utf-8"?>
<!-- Generator: Adobe Illustrator 22.0.0, SVG Export Plug-In . SVG Version: 6.00 Build 0)  -->
<svg version="1.1" xmlns="http://www.w3.org/2000/svg" xmlns:xlink="http://www.w3.org/1999/xlink" x="0px" y="0px"
	 viewBox="0 0 1920 1080" style="enable-background:new 0 0 1920 1080;" xml:space="preserve">
<style type="text/css">
	.st0{display:none;}
	.st1{display:inline;}
	.st2{fill:#407BFF;}
	.st3{opacity:0.9;fill:#FFFFFF;}
	.st4{fill:#263238;}
	.st5{fill:#FFFFFF;}
	.st6{fill:#B45B52;}
	.st7{opacity:0.2;}
	.st8{fill:#9F2724;}
	.st9{opacity:0.8;fill:#263238;}
	.st10{fill:#EBEBEB;}
	.st11{fill:#E0E0E0;}
	.st12{fill:#F5F5F5;}
	.st13{fill:#FAFAFA;}
	.st14{fill:#28345F;}
	.st15{fill:#4B89D2;}
	.st16{display:inline;fill:#263238;}
	.st17{fill:#325B7E;}
</style>
<g id="Background_Complete">
</g>
<g id="Background_Simple" class="st0">
	<g class="st1">
		<path class="st2" d="M1097.7,358c-3.5-2.3-7.1-4.4-10.8-6.3c-32.1-16.5-76.4-20.4-107.3-2.3c-18.4,10.8-26.3,31.6-39.9,47.2
			c-17.2,19.7-44.3,30.9-68.3,42c-32.4,15-61.5,31.9-72.9,65.2c-9.5,27.7-4.6,60.5,18.2,82.6c21.7,21,50.5,36.8,79.5,46.9
			c25,8.7,48,8.2,66.5-10.4c12.1-12.1,19-27.9,26.5-43c8.4-17.1,19.4-38.4,38.4-47.1c18.1-8.3,41.3-5.2,60.5-10.5
			c31.8-8.8,54.4-37.3,57.9-68.1C1150.2,417.8,1130.3,379.5,1097.7,358z"/>
		<path class="st3" d="M1097.7,358c-3.5-2.3-7.1-4.4-10.8-6.3c-32.1-16.5-76.4-20.4-107.3-2.3c-18.4,10.8-26.3,31.6-39.9,47.2
			c-17.2,19.7-44.3,30.9-68.3,42c-32.4,15-61.5,31.9-72.9,65.2c-9.5,27.7-4.6,60.5,18.2,82.6c21.7,21,50.5,36.8,79.5,46.9
			c25,8.7,48,8.2,66.5-10.4c12.1-12.1,19-27.9,26.5-43c8.4-17.1,19.4-38.4,38.4-47.1c18.1-8.3,41.3-5.2,60.5-10.5
			c31.8-8.8,54.4-37.3,57.9-68.1C1150.2,417.8,1130.3,379.5,1097.7,358z"/>
	</g>
</g>
<g id="Shadow_1_">
</g>
<g id="_x34_03_Sign">
</g>
<g id="Character_1_" class="st0">
	<g class="st1">
		<path class="st4" d="M879.9,454.9l0.3,2l0.4,2.1c0.3,1.4,0.5,2.8,0.9,4.2c0.6,2.8,1.3,5.5,2.1,8.2c0.4,1.3,0.8,2.6,1.3,3.9
			c0.5,1.3,0.9,2.5,1.5,3.7c1.1,2.4,2.3,4.5,3.7,6.2l-2.7-1.8c0.6,0.3,1.3,0.6,2.3,0.5c1,0,2.4-0.4,3.7-1.1c1.4-0.7,2.9-1.6,4.3-2.7
			c0.7-0.5,1.4-1.1,2.1-1.7c0.4-0.3,0.7-0.6,1.1-0.9c0.3-0.3,0.7-0.6,1-0.9l0.5-0.4c1.6-1.3,3.9-1,5.2,0.6c0.9,1.1,1,2.7,0.5,3.9
			c-0.3,0.6-0.5,1.1-0.8,1.6c-0.3,0.5-0.5,1-0.8,1.5c-0.6,1-1.2,1.9-1.9,2.9c-1.4,1.9-2.9,3.7-4.9,5.3c-1,0.8-2,1.6-3.2,2.3
			c-1.2,0.7-2.5,1.3-4,1.8c-1.5,0.4-3.1,0.7-4.7,0.8c-1.7,0-3.4-0.3-5-0.7c-0.9-0.3-1.7-0.8-2.4-1.4l-0.4-0.4
			c-2.8-2.8-4.8-5.9-6.5-9c-1.7-3.1-3-6.2-4.1-9.4c-1.1-3.1-2-6.3-2.8-9.5c-0.4-1.6-0.7-3.2-1-4.8c-0.1-0.8-0.3-1.6-0.4-2.4
			c-0.1-0.8-0.2-1.6-0.3-2.6c-0.5-4.1,2.5-7.8,6.6-8.3c4-0.4,7.5,2.3,8.2,6.2L879.9,454.9z"/>
		<path class="st5" d="M901.7,476.1c-2.1,0.7-4.6,3.1-3.8,6c0.8,2.9,9.3,5,9.6-0.1C905,477,901.7,476.1,901.7,476.1z"/>
		<path class="st6" d="M900.5,478.9l0.9-1.4l9.3-2.5c0,0,1.4,6-5.4,8.2c-0.5,0.2-1,0.1-1.5-0.1l-2.7-1.4
			C900.3,481.1,899.9,479.8,900.5,478.9z"/>
		<path class="st4" d="M830.1,444.7c11.9-2.2,28.1-2.6,39.9-0.6c6,1,10.2,6.4,9.6,12.5c-0.7,7.7-1.5,14.5-2,19.9
			c0.5,13.6-0.6,36.2-0.6,41c0,0-49.7,0.7-49.7,0.7c-2.2-6.2-1.5-34.1-5.4-62.1C821.2,450.7,824.8,445.7,830.1,444.7z"/>
		<path class="st7" d="M855.6,517.5l-1-0.1c2.8-22.3,0-59.5,0-59.9l1-0.1C855.6,457.8,858.4,495.2,855.6,517.5z"/>
		<path class="st2" d="M860.1,445.3c-2-0.5-0.2-2.6-0.2-2.6s8.9,0,15,1.2c0.9,0.7-0.1,1.6-0.1,1.6S865.9,446.9,860.1,445.3z"/>
		<path class="st7" d="M857.3,442.5c0,0,2.9,5.9-1,11.3c3.1,0,6,2,6,2s1.4-5.1-2.6-12.8C859.3,442.3,857.3,442.5,857.3,442.5z"/>
		<path class="st2" d="M860.4,445.3c0.8,3.6-5.9,10.4-5.9,10.4s-11.9-6.2-12.6-9.8L860.4,445.3z"/>
		<path class="st7" d="M829.4,462.4c1.3,2.5-0.3,13-5,18.2c-0.3-4.6-0.7-9.4-1.2-14.2L829.4,462.4z"/>
		<path class="st6" d="M843.2,426.8l13.4,6.4c-1.4,3.8-2.1,7.8,1.9,9.7c2.3,1.1,3.3,4,1.9,6.3c-1.2,1.9-3.1,3.6-6.1,3.9
			c-4.7,0.5-9.3-2.5-11.9-5.3c-1.1-1.2,0-2.5,0.1-4.1C843,437.9,843.9,431.9,843.2,426.8z"/>
		<path class="st7" d="M849.3,428.1l7.3,5.2c-0.4,1.1-0.8,2.2-0.9,3.3c-3,1-7.7-1.6-7.8-4.2C847.8,431,849,428.7,849.3,428.1z"/>
		<path class="st4" d="M858.8,405.1c2.6,2.1,5.5,11.4,1.7,15.2C854.9,413.8,854.3,404.1,858.8,405.1z"/>
		<path class="st6" d="M839.4,415.9c1,8,1.2,12.7,5.5,16.5c6.5,5.7,16.1,1.3,17.5-6.8c1.3-7.3-0.6-19.1-8.7-21.7
			C845.9,401.3,838.4,407.9,839.4,415.9z"/>
		<path class="st4" d="M839.7,422.8c3.8,0.3,5.1-8.9,2.7-14c1.6,0.7,6.3,0,7.6-2.1c7.5,2.1,10.4,2.2,11.3-0.9
			c1-3.1-10.9-5.8-17.8-4.4c-6.9,1.5-4.8,6.4-4.8,6.4S827.2,411.5,839.7,422.8z"/>
		<path class="st6" d="M836.9,423.4c1.1,1.8,2.9,2.9,4.4,3.3c2.3,0.6,3.1-1.8,2.2-4.1c-0.9-2.1-3.1-5-5.3-4.5
			C836.1,418.6,835.6,421.3,836.9,423.4z"/>
		<path class="st4" d="M850.1,417.2c0,0.7,0.4,1.2,0.8,1.1c0.4,0,0.7-0.6,0.7-1.2s-0.4-1.2-0.8-1.1
			C850.4,416,850.1,416.6,850.1,417.2z"/>
		<path class="st4" d="M858.9,416.5c0,0.7,0.4,1.2,0.8,1.1c0.4,0,0.7-0.6,0.7-1.2c0-0.7-0.4-1.2-0.8-1.1
			C859.2,415.3,858.9,415.9,858.9,416.5z"/>
		<path class="st8" d="M857.5,417.2c0,0,1.7,3.7,3.5,5.3c-1.1,1.2-3.1,0.8-3.1,0.8L857.5,417.2z"/>
		<path class="st4" d="M853.5,412.1c0,0,0.1,0.1,0.1,0.2c0,0.2-0.1,0.4-0.3,0.5c-2.1,0.5-3.4-0.7-3.4-0.8c-0.2-0.1-0.2-0.4,0-0.5
			c0.1-0.2,0.4-0.2,0.5,0l0,0c0,0,1.1,1,2.7,0.6C853.2,411.9,853.4,412,853.5,412.1z"/>
		<path class="st4" d="M855.1,414c-0.1,0-0.1-0.1-0.1-0.1c-0.1-0.2,0-0.4,0.1-0.5c1.8-1.1,3.4-0.3,3.5-0.3c0.2,0.1,0.3,0.3,0.2,0.5
			c-0.1,0.2-0.3,0.3-0.5,0.2l0,0c-0.1,0-1.3-0.6-2.8,0.3C855.3,414,855.2,414,855.1,414z"/>
		<path class="st4" d="M862.6,410.3c-0.1,0-0.3,0-0.4-0.1c-1.3-1.1-2.6-0.7-2.7-0.7c-0.2,0.1-0.4-0.1-0.5-0.3
			c-0.1-0.2,0.1-0.4,0.3-0.5c0.1,0,1.8-0.5,3.4,0.8c0.2,0.1,0.2,0.4,0,0.5C862.7,410.3,862.6,410.3,862.6,410.3z"/>
		<g>
			<path class="st4" d="M906.2,510L906.2,510c-0.4-0.8-1.5-1.1-2.3-0.7l-12.2,6.6l-5.8-10.7c-0.4-0.8-1.5-1.1-2.3-0.7
				c-0.8,0.4-1.1,1.5-0.7,2.3l5.8,10.7l-42.2,22.8c-0.8,0.4-1.1,1.5-0.7,2.3v0c0.4,0.8,1.5,1.1,2.3,0.7l57.3-31
				C906.3,511.8,906.6,510.8,906.2,510z"/>
			<path class="st2" d="M905.3,566.2c-20-15-81.6-21-60.3-48.4l32-0.3c0,0,45,23.1,47.5,47.3c2.5,25.1,7,64.7,7,64.7l-12.4,4.4
				C919,633.8,900.9,585.3,905.3,566.2z"/>
			<path class="st7" d="M846.1,531.5c-0.7,1.6-1.4,3.3-2.1,5.1c5,5.7,14.8,10,25.4,14C866.2,544.8,858.9,538.4,846.1,531.5z"/>
			<path class="st4" d="M919.1,638.2l12.8-3.3c0.8-0.2,1.7-0.2,2.4,0.1c4.5,2,7.3,1.4,11.8,1.1c5.3-0.3,4.1,5.4,0.4,6.3
				c-6.2,1.6-5.7,1.3-11,2.6c-1.2,0.3-3.6,0.9-3.6,0.9l-2.1-1.3l-1,2c0,0-4,1-6.7,1.6c-0.7,0.2-1.5-0.3-1.6-1L919.1,638.2z"/>
			<path class="st4" d="M919.5,639.5c0.2-0.1,14.6-4.1,14.6-4.1l-2.2-11.1l-16,4.3L919.5,639.5z"/>
		</g>
		<g>
			<path class="st2" d="M829.8,599.8c0.6-36.4-7-73.5-2.5-81.7l37.1-0.5c0,0-11.1,60.7-14,85c-3,25.2-18,90.9-18,90.9l-12,0.2
				C820.4,693.7,821.8,626,829.8,599.8z"/>
			<path class="st4" d="M820,695.6l11-0.2c0.8,0,1.7,0.2,2.4,0.7c4,3,4.4,3.1,8.8,3.9c5.3,0.9,2.9,6.2-0.9,6.2
				c-6.4,0.1-5.8-0.1-11.3,0c-1.2,0-5.9,0-5.9,0l-0.9-1.7l-1,1.7h-1.6c-0.8,0-1.4-0.7-1.3-1.4L820,695.6z"/>
			<path class="st4" d="M819.9,696.9c0.2,0,13.8,0.6,13.8,0.6l0.9-12.5l-14.8,0.4L819.9,696.9z"/>
		</g>
		<path class="st5" d="M856.8,441.8c0,0,3.4,6.6-0.5,12c3.1,0,6.5,1.4,6.5,1.4s2.8-6.7-3.4-12.8C859,441.6,856.8,441.8,856.8,441.8z
			"/>
		<g>
			<path class="st4" d="M825.9,522c17.7,1.1,38.1,1.4,50.8,0c0.1,0,0.3-0.1,0.4-0.3c0.8-1.6,1.2-4.4,1.1-6.8c0-0.4-0.2-0.6-0.5-0.6
				c-16.8,0.7-33.5,0.6-51,0c-0.2,0-0.4,0.2-0.5,0.4c-0.6,2.1-0.9,4.3-0.8,6.6C825.5,521.7,825.7,522,825.9,522z"/>
			<path class="st7" d="M825.9,522c17.7,1.1,38.1,1.4,50.8,0c0.1,0,0.3-0.1,0.4-0.3c0.8-1.6,1.2-4.4,1.1-6.8c0-0.4-0.2-0.6-0.5-0.6
				c-16.8,0.7-33.5,0.6-51,0c-0.2,0-0.4,0.2-0.5,0.4c-0.6,2.1-0.9,4.3-0.8,6.6C825.5,521.7,825.7,522,825.9,522z"/>
		</g>
		<path class="st5" d="M856.2,524.7c-1.9,0-3.6-0.2-3.8-0.2l-0.9-0.1l0-0.9c0-0.2-0.1-5.4,0.2-9.5l0.1-0.8l0.8-0.1
			c3.8-0.4,7.4-0.1,7.6-0.1l0.9,0.1l0,0.9c0,0.2,0.2,5.9-0.3,9.6l-0.1,0.6l-0.6,0.2C859.1,524.6,857.6,524.7,856.2,524.7z
			 M853.6,522.6c1.5,0.1,3.8,0.2,5.4-0.1c0.3-2.6,0.3-6,0.3-7.6c-1.2,0-3.3-0.1-5.5,0.1C853.5,517.9,853.5,521.1,853.6,522.6z"/>
		<path class="st2" d="M836.9,514.3c0,0-0.3,5.6-0.7,9.2c-0.8,0.8-2.3,0.2-2.3,0.2s0.3-5.2,0.6-9.3
			C835.8,514,836.9,514.3,836.9,514.3z"/>
		<path class="st2" d="M873.6,514.3c0,0-0.3,5.6-0.7,9.2c-0.8,0.8-2.3,0.2-2.3,0.2s0.3-5.2,0.6-9.3
			C872.4,514,873.6,514.3,873.6,514.3z"/>
		<g>
			<path class="st2" d="M862,463.6c0.5,7.2,5.1,8.9,5.8,8.8c0.6,0,5-1.8,4.5-9.1c-1.8,0.1-3.6-0.7-5.3-2
				C865.5,462.8,863.9,463.6,862,463.6z"/>
		</g>
		<g>
			<path class="st4" d="M861,404.4c5.1,0.9,7.1,3.3-4.5,4.7c-11.6,1.4-20.2,0.3-20.2,0.3S851.8,404.4,861,404.4z"/>
			<path class="st2" d="M835.4,410c0,0,10.1-3.4,25.9-5.3c0.3-3.2-2.2-5.5-2.2-5.5s5.9-1,2.9-2.8c-2-1.2-6.8-1.3-12.1-4.7
				c-2.2,2-8.1,5.2-12.2,5.6c-1,1.7-3.6,6-7.9,7.7c0.1,1.9,4.3,2.4,4.3,2.4S834,408.7,835.4,410z"/>
			<path class="st9" d="M834.2,407.4c8.6-5.6,16.9-8,24.9-8.2c0,0,2.5,2.3,2.2,5.5c-15.9,1.9-25.9,5.3-25.9,5.3
				C834,408.7,834.2,407.4,834.2,407.4z"/>
		</g>
		<g>
			<path class="st5" d="M849.5,397.7c1,4.9,4.5,5.8,4.9,5.8c0.5,0,3.5-1.5,2.5-6.4c-1.3,0.1-2.7-0.3-4-1.1
				C852,397,850.9,397.6,849.5,397.7z"/>
		</g>
		<path class="st4" d="M855.3,413.1c1.1,0.2,3,8.7-2.9,9.2c-5,0.4-6.6-4.2-6.6-5.8C845.8,414.1,853.7,412.8,855.3,413.1z"/>
		<path class="st4" d="M857.9,413c-0.7,0.4,0.9,9.6,5,8.6c3.5-0.8,2.9-5.8,2.3-7.4C864.4,411.8,858.9,412.4,857.9,413z"/>
		<g class="st7">
			<path class="st5" d="M853.2,413.2l3.1,5.7c-0.3,1.1-0.8,2.1-1.7,2.7l-4.3-7.8C851.3,413.4,852.4,413.3,853.2,413.2z"/>
			<path class="st5" d="M849.1,414l4.4,8c-0.3,0.1-0.7,0.2-1.1,0.2c-0.3,0-0.5,0-0.7,0l-4.2-7.6C848,414.4,848.5,414.2,849.1,414z"
				/>
			<path class="st5" d="M862.9,412.6l2.8,5c-0.1,0.9-0.3,1.7-0.7,2.4l-4.2-7.6C861.5,412.4,862.2,412.5,862.9,412.6z"/>
			<path class="st5" d="M864.4,420.8c-0.2,0.2-0.5,0.4-0.9,0.6l-4.8-8.7c0.3-0.1,0.7-0.1,1.1-0.2L864.4,420.8z"/>
		</g>
		<g>
			<g>
				<path class="st2" d="M919,467.9c0.5-0.2-0.3-2.3-0.9-2l-69.9,29.3c-0.2-0.3-0.5-0.4-0.8-0.3l-2.9,1.2c-0.3,0.1-0.5,0.5-0.4,0.8
					l-9.2,3.9c-2.1,0.9-3.9,2.2-5.4,3.8l-4.1,4.6c-0.2,2.2-2,3.9-4.2,3.9l-0.6,0l-21.1,12.8c-1.6,1-2.4,2.9-1.9,4.7
					c0.9,3.5,2.2,6.4,3.7,8.6c1.4,2.2,4.5,2.5,6.4,0.7l21.4-20.6c0.9-0.9,1.5-2,1.6-3.3l0.3-2.6l4.6-5.2c1.3,2.2,4.1,3.2,6.6,2.2
					c2.7-1.1,3.9-4.2,2.8-6.9c0-0.1-0.1-0.1-0.1-0.2l1.7-0.7c0.2,0.3,0.5,0.4,0.8,0.3l2.9-1.2c0.3-0.1,0.5-0.5,0.4-0.8l40.8-17.1
					c0.5-0.2,0.7-0.7,0.5-1.2l0,0l22-9.2c0.3-0.1-0.2-1.4-0.5-1.2l-1.6,0.7l-0.1-1.8L919,467.9z M841.6,509.4
					c-2.1,0.9-4.4-0.1-5.4-2.1l0.6-0.7l0.3-0.1c0.3,0.4,0.6,0.7,0.9,1c1.1,0.9,2.5,1.3,3.9,1.1l-0.1-1.1c-1.1,0.1-2.2-0.2-3.1-0.9
					c-0.2-0.2-0.4-0.3-0.6-0.5l5.5-2.3c0,0.1,0.1,0.1,0.1,0.2C844.8,506.1,843.8,508.5,841.6,509.4z M909.8,473.6l-18.4,7.7
					l-0.6-1.5l18.9-7.9L909.8,473.6z"/>
				<path class="st7" d="M919,467.9c0.5-0.2-0.3-2.3-0.9-2l-69.9,29.3c-0.2-0.3-0.5-0.4-0.8-0.3l-2.9,1.2c-0.3,0.1-0.5,0.5-0.4,0.8
					l-9.2,3.9c-2.1,0.9-3.9,2.2-5.4,3.8l-4.1,4.6c-0.2,2.2-2,3.9-4.2,3.9l-0.6,0l-21.1,12.8c-1.6,1-2.4,2.9-1.9,4.7
					c0.9,3.5,2.2,6.4,3.7,8.6c1.4,2.2,4.5,2.5,6.4,0.7l21.4-20.6c0.9-0.9,1.5-2,1.6-3.3l0.3-2.6l4.6-5.2c1.3,2.2,4.1,3.2,6.6,2.2
					c2.7-1.1,3.9-4.2,2.8-6.9c0-0.1-0.1-0.1-0.1-0.2l1.7-0.7c0.2,0.3,0.5,0.4,0.8,0.3l2.9-1.2c0.3-0.1,0.5-0.5,0.4-0.8l40.8-17.1
					c0.5-0.2,0.7-0.7,0.5-1.2l0,0l22-9.2c0.3-0.1-0.2-1.4-0.5-1.2l-1.6,0.7l-0.1-1.8L919,467.9z M841.6,509.4
					c-2.1,0.9-4.4-0.1-5.4-2.1l0.6-0.7l0.3-0.1c0.3,0.4,0.6,0.7,0.9,1c1.1,0.9,2.5,1.3,3.9,1.1l-0.1-1.1c-1.1,0.1-2.2-0.2-3.1-0.9
					c-0.2-0.2-0.4-0.3-0.6-0.5l5.5-2.3c0,0.1,0.1,0.1,0.1,0.2C844.8,506.1,843.8,508.5,841.6,509.4z M909.8,473.6l-18.4,7.7
					l-0.6-1.5l18.9-7.9L909.8,473.6z"/>
			</g>
			<path class="st2" d="M892.1,479.6l-19.4,8.1c-0.7,0.3-1,1-0.8,1.7l0.8,2.2c0.3,0.7,1.1,1.1,1.8,0.8l19.4-8.1c0.7-0.3,1-1,0.8-1.7
				l-0.8-2.2C893.6,479.7,892.8,479.3,892.1,479.6z"/>
		</g>
		<path class="st6" d="M904.4,472.1l0.7-0.2c1.7-0.5,3.6,0.1,4.8,1.4l0.6,0.7c0.7,0.8,0.4,2-0.6,2.4l-6.6,2.7
			c-0.8,0.3-1.7-0.1-2-0.9l0,0C900.3,475.7,901.7,472.8,904.4,472.1z"/>
		<path class="st4" d="M834.6,458.3l-0.5,0.6l-0.6,0.7l-1.2,1.5c-0.8,1-1.6,2-2.3,3.1c-1.5,2.1-3,4.2-4.5,6.4
			c-1.5,2.2-2.8,4.4-4.1,6.6c-1.3,2.3-2.6,4.6-3.7,6.9l-0.9,1.8l-0.2,0.4c0,0,0,0.1-0.1,0.1c-0.1,0.1-0.1,0.2-0.2,0.3
			c-0.2,0.5-0.4,1.4-0.5,2.3c-0.1,1.9,0.1,4.3,0.6,6.8c0.9,4.9,2.6,10.1,4.3,15.1l0.1,0.2c0.7,2-0.4,4.1-2.4,4.8
			c-1.5,0.5-3.2,0-4.1-1.2c-1.9-2.4-3.5-4.8-5-7.4c-1.5-2.6-2.8-5.3-3.9-8.2c-1.1-2.9-2-6-2.3-9.6c-0.1-1.8-0.1-3.8,0.3-5.9
			c0.1-0.5,0.2-1.1,0.4-1.6l0.3-0.8l0.2-0.5l0.8-2.1c2.2-5.5,4.8-10.8,7.8-15.8c1.5-2.5,3.1-5,4.9-7.4c0.9-1.2,1.8-2.4,2.7-3.6
			c0.5-0.6,1-1.2,1.5-1.7l0.8-0.9l0.9-1c2.8-3,7.5-3.2,10.6-0.4c2.9,2.7,3.2,7.3,0.7,10.3L834.6,458.3z"/>
		<path class="st2" d="M842.4,446.1c2-0.7-0.5-2.9-0.5-2.9s-10.6,0.3-16.9,2c-0.9,0.9,0.1,2,0.1,2S836.5,448.2,842.4,446.1z"/>
		<path class="st7" d="M842.3,443c0,0,1.6,5.9,8.7,10.7c-3.1,0-7.5,3.1-7.5,3.1s-4.2-5.2-2.7-13.4C841.2,442.8,842.3,443,842.3,443z
			"/>
		<path class="st5" d="M842.5,442c0,0,1.9,6.4,8.5,11.8c-3.1,0-7.8,1.6-7.8,1.6s-3.9-3.7-2.4-11.9C841.2,442.8,842.5,442,842.5,442z
			"/>
		<path class="st6" d="M819.6,510.4l6.2,5.3l-8.2,5.4c0,0-5-5.5-2.5-8.7L819.6,510.4z"/>
		<path class="st5" d="M814.2,514.9c0,0-1.3-1-1.7-2.2c2-2.1,6-3.7,7.8-4.2c1.1,1,1.1,3.2,1.1,3.2S816.2,512.6,814.2,514.9z"/>
		<path class="st6" d="M826.5,524.2l-3.2,1.4c-1.3,0.6-2.8,0.1-3.5-1.1l-2.2-3.5l8.2-5.4l2.2,4.7C828.7,521.9,828,523.6,826.5,524.2
			z"/>
		<path class="st4" d="M851.5,426C851.5,426,851.5,426,851.5,426c3.4-2.1,6.5-0.7,6.6-0.7c0.1,0.1,0.2,0.2,0.1,0.3
			c-0.1,0.1-0.2,0.2-0.3,0.1c0,0-2.9-1.3-6.1,0.6c-0.1,0.1-0.3,0-0.3-0.1C851.4,426.3,851.4,426.1,851.5,426z"/>
		<polygon class="st5" points="835.2,463.5 848.6,463 848.6,461.9 835.1,462.4 		"/>
	</g>
</g>
<g id="Barricade">
	<g>
		<rect x="349.4" y="884.7" class="st10" width="1221.1" height="0.6"/>
		<rect x="477.6" y="908" class="st10" width="80.9" height="0.6"/>
		<rect x="704.4" y="901.3" class="st10" width="84.3" height="0.6"/>
		<rect x="535.3" y="919.8" class="st10" width="135.3" height="0.6"/>
		<rect x="1340.1" y="922" class="st10" width="105.5" height="0.6"/>
		<rect x="1254.1" y="906.7" class="st10" width="55.9" height="0.6"/>
		<rect x="827.2" y="916.5" class="st10" width="228.8" height="0.6"/>
		<path class="st10" d="M928.3,775.8H456.7c-7.7,0-13.9-6.3-13.9-13.9V98.9c0-7.7,6.3-13.9,13.9-13.9h471.6
			c7.7,0,13.9,6.3,13.9,13.9v662.9C942.2,769.5,936,775.8,928.3,775.8z M456.7,85.6c-7.4,0-13.3,6-13.3,13.3v662.9
			c0,7.4,6,13.3,13.3,13.3h471.6c7.3,0,13.3-6,13.3-13.3V98.9c0-7.3-6-13.3-13.3-13.3H456.7z"/>
		<path class="st10" d="M1456.5,775.8H984.9c-7.7,0-13.9-6.3-13.9-13.9V98.9c0-7.7,6.3-13.9,13.9-13.9h471.6
			c7.7,0,13.9,6.3,13.9,13.9v662.9C1470.5,769.5,1464.2,775.8,1456.5,775.8z M984.9,85.6c-7.3,0-13.3,6-13.3,13.3v662.9
			c0,7.4,6,13.3,13.3,13.3h471.6c7.4,0,13.3-6,13.3-13.3V98.9c0-7.3-6-13.3-13.3-13.3H984.9z"/>
	</g>
	<g>
		<g>
			<rect x="712.3" y="877.1" class="st11" width="132.2" height="7.6"/>
			<path class="st11" d="M773.6,680L730,877.1h96.8L783.3,680C782.2,674.8,774.7,674.8,773.6,680z"/>
			<g>
				<polygon class="st12" points="797.6,744.6 759.3,744.6 750.1,786.5 806.9,786.5 				"/>
				<polygon class="st12" points="808.5,793.9 748.4,793.9 743.7,815.1 813.2,815.1 				"/>
			</g>
		</g>
		<g>
			<polygon class="st11" points="526.5,884.7 546.2,884.7 604,561.4 584.4,561.4 			"/>
			<polygon class="st11" points="1041,884.7 1060.6,884.7 1118.4,561.4 1098.8,561.4 			"/>
			<g>
				<rect x="526.5" y="577.1" class="st10" width="649.7" height="117.5"/>
				<polygon class="st13" points="597,689.4 529.6,689.4 567,582.3 634.3,582.3 				"/>
				<polygon class="st13" points="731.7,689.4 664.3,689.4 701.7,582.3 769.1,582.3 				"/>
				<polygon class="st13" points="866.4,689.4 799,689.4 836.4,582.3 903.8,582.3 				"/>
				<polygon class="st13" points="1001.1,689.4 933.8,689.4 971.1,582.3 1038.5,582.3 				"/>
				<polygon class="st13" points="1135.8,689.4 1068.5,689.4 1105.8,582.3 1173.2,582.3 				"/>
			</g>
			<polygon class="st11" points="661.8,884.7 642.2,884.7 584.4,561.4 604,561.4 			"/>
			<polygon class="st11" points="1176.3,884.7 1156.6,884.7 1098.8,561.4 1118.4,561.4 			"/>
		</g>
		<g>
			<rect x="1267.7" y="874.8" class="st11" width="173.4" height="9.9"/>
			<path class="st11" d="M1347.6,618.4l-56.7,256.4h127l-56.7-256.4C1359.6,611.1,1349.2,611.1,1347.6,618.4z"/>
			<g>
				<polygon class="st12" points="1379.5,701 1329.3,701 1317.2,755.9 1391.7,755.9 				"/>
				<polygon class="st12" points="1393.8,765.6 1315.1,765.6 1308.9,793.4 1399.9,793.4 				"/>
			</g>
		</g>
		<g>
			<path class="st10" d="M1480.2,541.6v71.6c0,4.8-4.7,8.2-9.2,6.8L438,292.5c-2.9-0.9-4.9-3.7-4.9-6.8v-71.6c0-4.8,4.7-8.2,9.2-6.8
				l1033,327.4C1478.2,535.7,1480.2,538.5,1480.2,541.6z"/>
			<g>
				<polygon class="st13" points="1398.9,591.6 1455.8,609.6 1424.2,524.1 1367.4,506.1 				"/>
				<polygon class="st13" points="1285.2,555.5 1342,573.6 1310.5,488.1 1253.6,470 				"/>
				<polygon class="st13" points="1171.4,519.5 1228.3,537.5 1196.8,452 1139.9,434 				"/>
				<polygon class="st13" points="1057.7,483.5 1114.6,501.5 1083,416 1026.1,397.9 				"/>
				<polygon class="st13" points="943.9,447.4 1000.8,465.4 969.3,379.9 912.4,361.9 				"/>
				<polygon class="st13" points="830.2,411.4 887.1,429.4 855.5,343.9 798.7,325.8 				"/>
				<polygon class="st13" points="716.5,375.3 773.3,393.3 741.8,307.8 684.9,289.8 				"/>
				<polygon class="st13" points="602.7,339.3 659.6,357.3 628.1,271.8 571.2,253.8 				"/>
				<polygon class="st13" points="489,303.2 545.9,321.3 514.3,235.7 457.4,217.7 				"/>
			</g>
		</g>
	</g>
	<ellipse id="_x3C_Path_x3E__370_" class="st12" cx="960" cy="967.3" rx="473.5" ry="27.7"/>
	<path class="st14" d="M1146.8,946.2h-28.2V97.6c0-4.6,28.2-4.6,28.2,0L1146.8,946.2z"/>
	<polygon class="st7" points="1146.8,416.3 1118.6,422 1118.6,383 1146.8,383 	"/>
	<g>
		<path class="st5" d="M1338.1,407.8l-429.7-32c-6.6-0.5-11.6-6.3-11.1-12.9l19.1-256.4c0.5-6.6,6.3-11.6,12.9-11.1l429.7,32
			c6.6,0.5,11.6,6.3,11.1,12.9l-19.1,256.4C1350.4,403.3,1344.6,408.3,1338.1,407.8z"/>
		<path class="st15" d="M1323,410.3c-0.8,0-1.6,0-2.5-0.1l-395.1-29.4c-8.7-0.7-16.7-4.7-22.5-11.4c-5.8-6.7-8.6-15.2-7.9-23.9
			l16.5-221.9c0.7-8.8,4.7-16.7,11.4-22.5c6.7-5.8,15.2-8.6,23.9-7.9l395.1,29.4c8.8,0.7,16.7,4.7,22.5,11.4
			c5.8,6.7,8.6,15.2,7.9,23.9l-16.5,221.9c-0.7,8.7-4.7,16.7-11.4,22.5C1338.4,407.5,1330.9,410.3,1323,410.3z M944.3,100.3
			c-6.1,0-12,2.2-16.7,6.2c-5.2,4.5-8.4,10.7-8.9,17.5L902.2,346c-1,14.1,9.6,26.4,23.7,27.5l395.1,29.4c6.8,0.5,13.4-1.7,18.6-6.2
			c5.2-4.5,8.4-10.7,8.9-17.5l16.5-221.9c1-14.1-9.6-26.4-23.7-27.5l-395.1-29.4C945.6,100.4,944.9,100.3,944.3,100.3z"/>
	</g>
	<g>
		<g>
			<path class="st15" d="M1051.6,241.2l-49.6-4.4l2-22.4l54.9-54.5l23.7,2.1l-5.4,60.2l12.3,1.1l-1.9,21.1l-12.3-1.1l-1.6,18.3
				l-23.7-2.1L1051.6,241.2z M1053.5,220.1l2.8-30.8l-29,28.5L1053.5,220.1z"/>
			<path class="st15" d="M1098.9,214.1c1.7-18.6,6.2-31.4,13.6-38.2c7.4-6.8,17.9-9.6,31.6-8.4c6.6,0.6,11.9,1.9,16,3.9
				c4.1,2,7.4,4.4,9.8,7.3c2.4,2.8,4.3,5.8,5.6,8.8c1.3,3,2.2,6.5,2.8,10.4c1.2,7.5,1.4,15.2,0.7,23.1c-1.6,17.8-5.8,30.5-12.5,38.2
				c-6.8,7.7-17.5,10.9-32.2,9.6c-8.2-0.7-14.8-2.6-19.6-5.7c-4.8-3.1-8.7-7.3-11.5-12.7c-2-3.8-3.4-8.9-4.2-15.3
				C1098.3,228.7,1098.2,221.7,1098.9,214.1z M1125.9,216.6c-1.1,12.5-0.8,21.1,1,25.9c1.8,4.8,4.8,7.3,9,7.7
				c2.8,0.2,5.2-0.5,7.4-2.3c2.2-1.8,4-4.7,5.3-8.8c1.3-4.1,2.4-10.6,3.2-19.5c1.2-13,0.8-21.8-1-26.5c-1.8-4.7-4.9-7.2-9.3-7.6
				c-4.5-0.4-8,1.6-10.4,6C1128.8,195.9,1127,204.2,1125.9,216.6z"/>
			<path class="st15" d="M1013.5,279.1l37.9,3.4l-0.9,9.8l-23.7-2.1l-0.7,7.3l22,2l-0.8,9.3l-22-2l-0.8,9l24.4,2.2l-0.9,10.4
				l-38.5-3.5L1013.5,279.1z"/>
			<path class="st15" d="M1055.7,329l4.1-45.7l23.5,2.1c4.4,0.4,7.7,1.1,9.9,2c2.2,1,4,2.5,5.2,4.7c1.2,2.2,1.7,4.7,1.5,7.6
				c-0.2,2.5-1,4.7-2.2,6.4c-1.2,1.7-2.9,3.1-4.9,4.1c-1.3,0.6-3,1.1-5.1,1.4c1.6,0.7,2.8,1.4,3.5,2c0.5,0.4,1.2,1.3,2,2.6
				c0.9,1.3,1.5,2.3,1.7,3l5.7,13.9l-16-1.4l-6.3-14.6c-0.8-1.9-1.5-3.1-2.2-3.8c-1-0.8-2.1-1.3-3.4-1.4l-1.2-0.1l-1.7,18.6
				L1055.7,329z M1072.4,303.1l6,0.5c0.6,0.1,1.9,0,3.8-0.3c1-0.1,1.8-0.5,2.4-1.2c0.7-0.7,1-1.6,1.1-2.6c0.1-1.5-0.2-2.6-1.1-3.5
				c-0.9-0.9-2.6-1.4-5.2-1.7l-6.2-0.6L1072.4,303.1z"/>
			<path class="st15" d="M1105.4,333.4l4.1-45.7l23.5,2.1c4.4,0.4,7.7,1.1,9.9,2c2.2,1,4,2.5,5.2,4.7c1.2,2.2,1.7,4.7,1.5,7.6
				c-0.2,2.5-1,4.7-2.2,6.4c-1.2,1.7-2.9,3.1-4.9,4.1c-1.3,0.6-3,1.1-5.1,1.4c1.6,0.7,2.8,1.4,3.5,2c0.5,0.4,1.2,1.3,2,2.6
				c0.9,1.3,1.5,2.3,1.7,3l5.7,13.9l-16-1.4l-6.3-14.6c-0.8-1.9-1.5-3.1-2.2-3.8c-1-0.8-2.1-1.3-3.4-1.4l-1.2-0.1l-1.7,18.6
				L1105.4,333.4z M1122,307.5l6,0.5c0.6,0.1,1.9,0,3.8-0.3c1-0.1,1.8-0.5,2.4-1.2c0.7-0.7,1-1.6,1.1-2.6c0.1-1.5-0.2-2.6-1.1-3.5
				c-0.9-0.9-2.6-1.4-5.2-1.7l-6.2-0.6L1122,307.5z"/>
			<path class="st15" d="M1154.1,314.8c0.7-7.5,3.3-13.1,7.8-16.9c4.5-3.8,10.5-5.3,17.9-4.7c7.6,0.7,13.3,3.2,17,7.7
				c3.8,4.5,5.3,10.4,4.6,17.7c-0.5,5.3-1.8,9.6-3.9,12.9c-2.1,3.3-4.9,5.7-8.5,7.3c-3.6,1.6-7.9,2.2-13,1.7
				c-5.2-0.5-9.3-1.7-12.6-3.6c-3.2-1.9-5.7-4.8-7.5-8.5C1154.2,324.7,1153.6,320.1,1154.1,314.8z M1168.2,316.1
				c-0.4,4.6,0.1,8,1.7,10.2c1.5,2.2,3.8,3.4,6.7,3.7c3,0.3,5.5-0.5,7.3-2.3c1.8-1.8,3-5.3,3.4-10.4c0.4-4.3-0.2-7.5-1.8-9.7
				c-1.6-2.1-3.8-3.3-6.8-3.6c-2.8-0.3-5.2,0.5-7.1,2.4C1169.8,308.2,1168.6,311.5,1168.2,316.1z"/>
			<path class="st15" d="M1207.2,342.6l4.1-45.7l23.5,2.1c4.4,0.4,7.7,1.1,9.9,2c2.2,1,4,2.5,5.2,4.7c1.2,2.2,1.7,4.7,1.5,7.6
				c-0.2,2.5-1,4.7-2.2,6.4c-1.2,1.7-2.9,3.1-4.9,4.1c-1.3,0.6-3,1.1-5.1,1.4c1.6,0.7,2.8,1.4,3.5,2c0.5,0.4,1.2,1.3,2,2.6
				c0.9,1.3,1.5,2.3,1.7,3l5.7,13.9l-16-1.4l-6.3-14.6c-0.8-1.9-1.5-3.1-2.2-3.8c-1-0.8-2.1-1.3-3.4-1.4l-1.2-0.1l-1.7,18.6
				L1207.2,342.6z M1223.8,316.6l6,0.5c0.6,0.1,1.9,0,3.8-0.3c1-0.1,1.8-0.5,2.4-1.2c0.7-0.7,1-1.6,1.1-2.6c0.1-1.5-0.2-2.6-1.1-3.5
				c-0.9-0.9-2.6-1.4-5.2-1.7l-6.2-0.6L1223.8,316.6z"/>
		</g>
	</g>
	<g class="st0">
		<path class="st16" d="M966.7,349.7l3.1-41.8L998,310l-0.4,4.9l-22.6-1.7l-1,12.9l19.6,1.5l-0.4,4.9l-19.6-1.5l-1.4,19L966.7,349.7
			z"/>
		<path class="st16" d="M1001.9,331.9c0.5-6.9,2.8-12.2,6.8-15.9c4-3.6,9-5.2,14.9-4.8c3.9,0.3,7.3,1.5,10.2,3.5
			c3,2.1,5.1,4.8,6.5,8.2c1.4,3.4,1.9,7.2,1.6,11.4c-0.3,4.2-1.5,8-3.4,11.2c-2,3.2-4.6,5.6-7.8,7.1c-3.3,1.5-6.7,2.1-10.3,1.8
			c-3.9-0.3-7.4-1.5-10.3-3.6c-3-2.1-5.1-4.9-6.5-8.3C1002.2,339.1,1001.6,335.5,1001.9,331.9z M1007.6,332.4
			c-0.4,5,0.7,9.1,3.2,12.2c2.5,3.1,5.8,4.8,9.9,5.1c4.2,0.3,7.7-0.9,10.6-3.6c2.9-2.7,4.6-6.8,5-12.1c0.3-3.4-0.1-6.4-1.1-9
			c-1-2.6-2.5-4.7-4.6-6.3c-2.1-1.6-4.5-2.4-7.3-2.6c-3.9-0.3-7.4,0.8-10.4,3.3C1009.8,321.7,1008.1,326.1,1007.6,332.4z"/>
		<path class="st16" d="M1047.5,355.7l3.1-41.8l18.5,1.4c3.7,0.3,6.5,0.9,8.4,1.8c1.9,0.9,3.3,2.3,4.3,4.3c1,2,1.4,4.1,1.3,6.4
			c-0.2,3-1.4,5.4-3.4,7.3c-2.1,1.9-5.1,3-9.2,3.2c1.4,0.8,2.5,1.6,3.2,2.3c1.5,1.6,2.9,3.6,4.2,5.9l6.4,11.9l-7-0.5l-4.9-9.1
			c-1.4-2.6-2.6-4.6-3.6-6.1c-0.9-1.4-1.8-2.4-2.6-3c-0.8-0.6-1.6-1-2.4-1.3c-0.6-0.2-1.6-0.3-3.1-0.4l-6.4-0.5l-1.4,18.5
			L1047.5,355.7z M1054.8,332.8l11.9,0.9c2.5,0.2,4.5,0.1,6-0.3c1.5-0.4,2.6-1.2,3.4-2.3c0.8-1.1,1.3-2.3,1.4-3.7
			c0.1-2-0.4-3.7-1.8-5c-1.3-1.4-3.6-2.2-6.7-2.4l-13.2-1L1054.8,332.8z"/>
		<path class="st16" d="M1089.4,358.8l3.1-41.8l15.7,1.2c3.2,0.2,5.7,0.9,7.6,1.8c1.9,1,3.3,2.4,4.2,4.2c1,1.8,1.4,3.7,1.2,5.6
			c-0.1,1.8-0.7,3.4-1.8,4.9c-1.1,1.5-2.6,2.7-4.7,3.5c2.5,0.9,4.3,2.3,5.5,4.2c1.2,1.9,1.7,4,1.6,6.5c-0.1,2-0.7,3.7-1.6,5.4
			c-1,1.6-2.1,2.8-3.4,3.7c-1.3,0.8-2.9,1.4-4.7,1.7c-1.9,0.3-4.1,0.4-6.8,0.2L1089.4,358.8z M1095.3,354.3l10.4,0.8
			c1.8,0.1,3,0.2,3.8,0.1c1.3-0.1,2.4-0.4,3.3-0.9c0.9-0.5,1.7-1.2,2.3-2.2c0.6-1,1-2.1,1.1-3.5c0.1-1.6-0.2-2.9-0.9-4.1
			c-0.7-1.2-1.8-2.1-3.1-2.7c-1.4-0.6-3.4-1-6.1-1.1l-9.7-0.7L1095.3,354.3z M1096.7,335l9,0.7c2.4,0.2,4.2,0.2,5.3-0.1
			c1.4-0.3,2.5-0.9,3.3-1.8c0.8-0.9,1.2-2.1,1.3-3.6c0.1-1.4-0.1-2.6-0.7-3.7c-0.6-1.1-1.5-1.9-2.7-2.4c-1.2-0.5-3.3-0.8-6.3-1.1
			l-8.3-0.6L1096.7,335z"/>
		<path class="st16" d="M1129.4,361.8l3.1-41.8l5.5,0.4l-3.1,41.8L1129.4,361.8z"/>
		<path class="st16" d="M1144.7,363l3.1-41.8l14.4,1.1c3.2,0.2,5.7,0.6,7.4,1.2c2.4,0.7,4.3,1.9,5.9,3.4c2.1,2,3.5,4.5,4.4,7.5
			c0.9,3,1.2,6.3,0.9,10c-0.2,3.2-0.8,6-1.7,8.4c-0.9,2.4-2,4.4-3.3,5.9c-1.3,1.5-2.6,2.7-4.1,3.5c-1.4,0.8-3.2,1.4-5.1,1.7
			c-2,0.3-4.2,0.4-6.8,0.2L1144.7,363z M1150.6,358.4l8.9,0.7c2.8,0.2,4.9,0.1,6.5-0.3c1.6-0.4,2.9-1,3.9-1.9
			c1.4-1.2,2.6-2.9,3.5-5.1c0.9-2.2,1.5-4.8,1.7-8c0.3-4.4-0.1-7.8-1.4-10.2c-1.3-2.4-2.9-4.2-4.9-5.1c-1.4-0.7-3.8-1.1-7.1-1.4
			l-8.8-0.7L1150.6,358.4z"/>
		<path class="st16" d="M1186.9,366.1l3.1-41.8l14.4,1.1c3.2,0.2,5.7,0.6,7.4,1.2c2.4,0.7,4.3,1.9,5.9,3.4c2.1,2,3.5,4.5,4.4,7.5
			c0.9,3,1.2,6.3,0.9,10c-0.2,3.2-0.8,6-1.7,8.4c-0.9,2.4-2,4.4-3.3,5.9c-1.3,1.5-2.6,2.7-4.1,3.5c-1.4,0.8-3.2,1.4-5.1,1.7
			c-2,0.3-4.2,0.4-6.8,0.2L1186.9,366.1z M1192.7,361.6l8.9,0.7c2.8,0.2,4.9,0.1,6.5-0.3c1.6-0.4,2.9-1,3.9-1.9
			c1.4-1.2,2.6-2.9,3.5-5.1c0.9-2.2,1.5-4.8,1.7-8c0.3-4.4-0.1-7.8-1.4-10.2c-1.3-2.4-2.9-4.2-4.9-5.1c-1.4-0.7-3.8-1.1-7.1-1.4
			l-8.8-0.7L1192.7,361.6z"/>
		<path class="st16" d="M1229.1,369.2l3.1-41.8l30.2,2.2l-0.4,4.9l-24.7-1.8l-1,12.8l23.1,1.7l-0.4,4.9l-23.1-1.7l-1.1,14.2
			l25.6,1.9l-0.4,4.9L1229.1,369.2z"/>
		<path class="st16" d="M1267.8,372.1l3.1-41.8l5.7,0.4l19.5,34.4l2.4-32.8l5.3,0.4l-3.1,41.8l-5.7-0.4l-19.5-34.5l-2.4,32.8
			L1267.8,372.1z"/>
	</g>
	<g>
		<g>
			<g>
				<polygon class="st2" points="940.2,970.3 876.2,970.3 922.7,601.1 986.7,601.1 				"/>
				<polygon class="st17" points="940.2,970.3 876.2,970.3 922.7,601.1 986.7,601.1 				"/>
			</g>
			<polygon class="st4" points="870.5,970.3 876.2,970.3 922.7,601.1 917,601.1 			"/>
		</g>
		<g>
			<g>
				<polygon class="st2" points="1178.7,970.3 1114.7,970.3 1161.2,601.1 1225.1,601.1 				"/>
				<polygon class="st17" points="1178.7,970.3 1114.7,970.3 1161.2,601.1 1225.1,601.1 				"/>
			</g>
			<polygon class="st4" points="1109,970.3 1114.7,970.3 1161.2,601.1 1155.5,601.1 			"/>
		</g>
		<g>
			<g>
				<polygon class="st15" points="999.4,926.4 1231.3,926.4 1221.2,846 989.3,846 				"/>
				<polygon class="st4" points="999.4,926.4 995.6,926.4 985.5,846 989.3,846 				"/>
				<g>
					<polygon class="st5" points="1218.5,849.5 1227.7,922.9 1214,922.9 1177.2,849.5 					"/>
					<polygon class="st5" points="1153.9,849.5 1190.7,922.9 1140.3,922.9 1103.6,849.5 					"/>
					<polygon class="st5" points="1080.2,849.5 1117,922.9 1066.7,922.9 1029.9,849.5 					"/>
					<polygon class="st5" points="1006.5,849.5 1043.3,922.9 1002,922.9 992.8,849.5 					"/>
				</g>
			</g>
			<g>
				<polygon class="st15" points="1209.1,970.3 1273,970.3 1226.6,601.1 1162.6,601.1 				"/>
				<polygon class="st7" points="1183.3,765.6 1250.6,792 1231.3,638.7 1167.3,638.7 				"/>
				<polygon class="st4" points="1209.1,970.3 1203.4,970.3 1156.9,601.1 1162.6,601.1 				"/>
			</g>
			<g>
				<polygon class="st15" points="970.6,970.3 1034.6,970.3 988.1,601.1 924.1,601.1 				"/>
				<polygon class="st7" points="944.8,765.6 1012.1,792 992.8,638.7 928.9,638.7 				"/>
				<polygon class="st4" points="970.6,970.3 964.9,970.3 918.4,601.1 924.1,601.1 				"/>
			</g>
			<g>
				<polygon class="st15" points="919.3,748.6 1268.5,748.6 1253.3,627.6 904.1,627.6 				"/>
				<polygon class="st4" points="919.3,748.6 913.6,748.6 898.3,627.6 904.1,627.6 				"/>
				<g>
					<polygon class="st5" points="1249.3,632.8 1263.2,743.3 1242.5,743.3 1187.1,632.8 					"/>
					<polygon class="st5" points="1151.9,632.8 1207.4,743.3 1131.6,743.3 1076.2,632.8 					"/>
					<polygon class="st5" points="1041,632.8 1096.4,743.3 1020.6,743.3 965.2,632.8 					"/>
					<polygon class="st5" points="930,632.8 985.5,743.3 923.3,743.3 909.4,632.8 					"/>
				</g>
			</g>
		</g>
	</g>
	<path class="st15" d="M1233.3,256.7l-49.6-4.7l2.1-22.4l55.2-54.2l23.7,2.3l-5.7,60.2l12.3,1.2l-2,21.1l-12.3-1.2l-1.7,18.3
		l-23.7-2.3L1233.3,256.7z M1235.4,235.6l2.9-30.8l-29.1,28.3L1235.4,235.6z"/>
</g>
</svg>
