<svg width="33" height="43" viewBox="0 0 33 43" fill="none" xmlns="http://www.w3.org/2000/svg">
<path d="M16.0049 42.056C11.6563 42.056 7.31543 42.056 2.96682 42.056C0.753825 42.056 -0.0586381 41.1942 0.00326386 38.9379C0.227658 30.8683 6.95176 23.9347 15.0377 23.4254C23.3558 22.9005 30.8459 28.8704 32.0298 36.9792C32.1381 37.7157 32.2464 38.46 32.2619 39.2042C32.3083 41.1394 31.4417 42.0482 29.5382 42.056C25.0271 42.0639 20.516 42.056 16.0049 42.056Z" fill="#2BA3A3"/>
<path d="M16.0906 18.6541C11.0147 18.6463 6.89818 14.4235 6.92913 9.26048C6.96008 4.18368 11.123 -0.00782361 16.1216 1.09653e-05C21.213 0.00784554 25.3604 4.21501 25.3449 9.3545C25.3295 14.5097 21.1975 18.662 16.0906 18.6541Z" fill="#838586"/>
</svg>
