<svg width="34" height="18" viewBox="0 0 34 18" fill="none" xmlns="http://www.w3.org/2000/svg">
<g opacity="0.55">
<path d="M33.7531 8.93743C33.7531 8.97913 33.7531 9.02083 33.7531 9.06253C33.5498 9.28839 33.3465 9.51774 33.1432 9.74361C30.7183 12.4506 27.8359 14.5876 24.449 16.0784C22.8227 16.7942 21.1165 17.2841 19.3378 17.5204C18.8005 17.5934 18.2596 17.6455 17.7223 17.7081C17.2432 17.7081 16.764 17.7081 16.2812 17.7081C16.165 17.6872 16.0488 17.6525 15.929 17.649C14.2192 17.5621 12.5675 17.1973 10.9703 16.6309C7.30744 15.3313 4.20366 13.222 1.55365 10.4907C1.10351 10.0285 0.678782 9.53859 0.243164 9.06253C0.243164 9.02083 0.243164 8.97913 0.243164 8.93743C0.446453 8.71156 0.649741 8.48222 0.85303 8.25635C3.27797 5.5494 6.16031 3.40886 9.55087 1.9216C11.1772 1.20577 12.8834 0.715808 14.6621 0.479515C15.1994 0.406542 15.7403 0.354418 16.2775 0.29187C16.7567 0.29187 17.2359 0.29187 17.7187 0.29187C17.8349 0.31272 17.951 0.347469 18.0672 0.350943C19.777 0.437816 21.4287 0.802681 23.026 1.36909C26.6888 2.6687 29.7926 4.77797 32.4426 7.50924C32.8964 7.97488 33.3175 8.46137 33.7531 8.93743ZM12.6619 4.54515C12.6292 4.52083 12.6075 4.5104 12.5929 4.4965C12.3606 4.24631 12.1101 4.01002 11.8996 3.74592C11.7435 3.55133 11.6019 3.5409 11.3768 3.62778C8.4582 4.75017 5.95339 6.45287 3.74263 8.57256C3.59742 8.71156 3.45948 8.85403 3.32516 8.99303C5.00229 10.9633 10.0845 14.2853 11.5402 14.3757C9.51457 12.3672 8.80306 10.0007 9.38752 7.24168C9.89574 7.32507 10.3604 7.39805 10.8287 7.4745C9.89937 11.3977 12.7055 14.1359 15.1449 14.817C18.0527 15.6301 21.0839 14.4521 22.5613 11.9258C24.017 9.43434 23.4362 6.33473 21.102 4.37488C19.0074 2.61658 15.4136 2.20307 12.6619 4.54515ZM22.4125 3.57565C25.5235 6.4355 25.6833 11.3872 22.4561 14.3896C24.3474 14.0282 29.3497 10.734 30.6493 8.9965C29.2045 7.1687 24.7939 4.25673 22.4125 3.57565Z" fill="#2BA3A3"/>
<path d="M12.9814 7.81504C14.016 7.98184 15.0325 8.14516 16.1324 8.3189C15.4172 7.544 14.7493 6.82122 14.085 6.10191C15.2394 4.8996 17.5808 4.44438 19.414 5.6745C21.2182 6.88377 21.7664 9.205 20.6737 11.005C19.5447 12.871 17.1634 13.573 15.1522 12.6452C13.1847 11.7313 12.3425 9.55944 12.9814 7.81504Z" fill="#2BA3A3"/>
</g>
</svg>
