<?xml version="1.0" encoding="utf-8"?>
<!-- Generator: Adobe Illustrator 22.0.0, SVG Export Plug-In . SVG Version: 6.00 Build 0)  -->
<svg version="1.1" id="Calque_1" xmlns="http://www.w3.org/2000/svg" xmlns:xlink="http://www.w3.org/1999/xlink" x="0px" y="0px"
	 viewBox="0 0 44.1 39.4" style="enable-background:new 0 0 44.1 39.4;" xml:space="preserve">
<style type="text/css">
	.st0{fill:#2BA3A3;}
</style>
<g>
	<path class="st0" d="M41,13.9c0,8,0,16.1,0,24.1c-0.5,0.2-0.9,0.5-1.4,0.5c-1.7,0.1-3.4,0-5.1,0c-1.1,0-1.4-0.2-1.4-1.4
		c0-2.3,0-4.6,0-6.9c0-0.3,0-0.5,0-0.8c-0.4,0-0.6,0-0.9,0c-4.1,0-8.2,0-12.3,0c-0.5,0-0.9,0.2-1.2,0.5c-2.6,2.7-5.3,5.3-7.9,7.9
		c-0.4,0.4-0.9,0.6-1.5,0.6c-1.6,0-3.3,0-4.9,0c-1.2,0-1.5-0.2-1.5-1.4c0-7.5,0-14.9,0-22.4c0-0.7,0.2-1.2,0.8-1.6
		c5.7-4,11.4-8,17.2-12c1-0.7,1-0.7,2,0c5.6,3.9,11.3,7.9,16.9,11.8C40.3,13.3,40.7,13.7,41,13.9z M39.2,36.9c0-0.2,0-0.3,0-0.4
		c0-7.1,0-14.2,0-21.3c0-0.3-0.2-0.6-0.5-0.8C33.4,10.6,28,6.8,22.6,3.1c-0.5-0.3-0.8-0.3-1.3,0c-5.3,3.7-10.7,7.5-16,11.2
		c-0.4,0.3-0.6,0.6-0.6,1.2c0,6.9,0,13.8,0,20.7c0,0.3,0,0.5,0,0.8c1.5,0,2.8,0,4.3,0c0-0.4,0-0.7,0-1c0-5.3,0-10.7,0-16
		c0-1.2,0.2-1.4,1.4-1.4c7.7,0,15.4,0,23.1,0c1.2,0,1.4,0.2,1.4,1.4c0,5.4,0,10.7,0,16.1c0,0.3,0,0.6,0,0.9
		C36.4,36.9,37.8,36.9,39.2,36.9z"/>
	<path class="st0" d="M21.8,14.5c-0.8,0-1.6,0-2.4,0c-0.8,0-1.3-0.3-1.3-0.9c0-0.6,0.4-0.9,1.2-0.9c1.7,0,3.4,0,5,0
		c0.6,0,1.1,0.2,1.2,0.9c0.1,0.6-0.4,0.9-1.2,0.9C23.5,14.5,22.7,14.5,21.8,14.5z"/>
</g>
</svg>
