<svg width="72" height="72" viewBox="0 0 72 72" fill="none" xmlns="http://www.w3.org/2000/svg">
<path d="M52.875 68.625H61.875C63.0685 68.625 64.2131 68.1509 65.057 67.307C65.9009 66.4631 66.375 65.3185 66.375 64.125V12.375H52.875V68.625Z" fill="#DADCDE"/>
<path d="M61.875 68.625H10.125C8.93153 68.625 7.78693 68.1509 6.94302 67.307C6.09911 66.4631 5.625 65.3185 5.625 64.125V3.375H57.375V64.125C57.375 65.3185 57.8491 66.4631 58.693 67.307C59.5369 68.1509 60.6815 68.625 61.875 68.625Z" fill="#E9EEF2"/>
<path d="M41.625 48.375C47.2169 48.375 51.75 43.8419 51.75 38.25C51.75 32.6581 47.2169 28.125 41.625 28.125C36.0331 28.125 31.5 32.6581 31.5 38.25C31.5 43.8419 36.0331 48.375 41.625 48.375Z" fill="#9AA3A8"/>
<path d="M11.25 39.375H15.75V64.125H11.25V39.375Z" fill="#FFD33A"/>
<path d="M20.25 43.875H24.75V64.125H20.25V43.875Z" fill="#FFD33A"/>
<path d="M29.25 49.5H33.75V64.125H29.25V49.5Z" fill="#FFD33A"/>
<path d="M38.25 52.875H42.75V64.125H38.25V52.875Z" fill="#FFD33A"/>
<path d="M47.25 56.25H51.75V64.125H47.25V56.25Z" fill="#FFD33A"/>
<path d="M10.125 7.875H52.875V16.875H10.125V7.875Z" fill="#9AA3A8"/>
<path d="M66.375 11.25H58.5V3.375C58.5 3.07663 58.3815 2.79048 58.1705 2.5795C57.9595 2.36853 57.6734 2.25 57.375 2.25H5.625C5.32663 2.25 5.04048 2.36853 4.82951 2.5795C4.61853 2.79048 4.5 3.07663 4.5 3.375V64.125C4.50167 65.6163 5.09484 67.0461 6.14937 68.1006C7.2039 69.1552 8.63367 69.7483 10.125 69.75H61.875C63.3663 69.7483 64.7961 69.1552 65.8506 68.1006C66.9052 67.0461 67.4983 65.6163 67.5 64.125V12.375C67.5 12.0766 67.3815 11.7905 67.1705 11.5795C66.9595 11.3685 66.6734 11.25 66.375 11.25ZM10.125 67.5C9.23021 67.499 8.37238 67.143 7.73967 66.5103C7.10696 65.8776 6.75104 65.0198 6.75 64.125V4.5H56.25V64.125C56.2486 65.3427 56.6446 66.5277 57.3777 67.5H10.125ZM65.25 64.125C65.25 65.0201 64.8944 65.8785 64.2615 66.5115C63.6285 67.1444 62.7701 67.5 61.875 67.5C60.9799 67.5 60.1215 67.1444 59.4885 66.5115C58.8556 65.8785 58.5 65.0201 58.5 64.125V13.5H60.75V61.875C60.75 62.1734 60.8685 62.4595 61.0795 62.6705C61.2905 62.8815 61.5766 63 61.875 63C62.1734 63 62.4595 62.8815 62.6705 62.6705C62.8815 62.4595 63 62.1734 63 61.875V13.5H65.25V64.125Z" fill="black"/>
<path d="M41.625 27C39.4 27 37.2249 27.6598 35.3748 28.896C33.5248 30.1321 32.0828 31.8891 31.2314 33.9448C30.3799 36.0005 30.1571 38.2625 30.5912 40.4448C31.0253 42.627 32.0967 44.6316 33.6701 46.2049C35.2434 47.7783 37.2479 48.8497 39.4302 49.2838C41.6125 49.7179 43.8745 49.4951 45.9302 48.6436C47.9859 47.7921 49.7429 46.3502 50.979 44.5002C52.2152 42.6501 52.875 40.475 52.875 38.25C52.8716 35.2673 51.6853 32.4078 49.5762 30.2988C47.4672 28.1897 44.6076 27.0034 41.625 27ZM41.625 47.25C39.845 47.25 38.1049 46.7221 36.6249 45.7332C35.1448 44.7443 33.9913 43.3387 33.3101 41.6941C32.6289 40.0496 32.4507 38.24 32.7979 36.4942C33.1452 34.7484 34.0024 33.1447 35.261 31.886C36.5197 30.6274 38.1234 29.7702 39.8692 29.4229C41.615 29.0757 43.4246 29.2539 45.0691 29.9351C46.7137 30.6163 48.1193 31.7698 49.1082 33.2499C50.0972 34.7299 50.625 36.47 50.625 38.25C50.6223 40.6361 49.6732 42.9237 47.986 44.611C46.2988 46.2982 44.0111 47.2473 41.625 47.25Z" fill="black"/>
<path d="M41.625 34.875C41.9233 34.8753 42.2092 34.994 42.4201 35.2049C42.631 35.4158 42.7497 35.7017 42.75 36C42.75 36.2984 42.8685 36.5845 43.0795 36.7955C43.2905 37.0065 43.5766 37.125 43.875 37.125C44.1734 37.125 44.4595 37.0065 44.6705 36.7955C44.8815 36.5845 45 36.2984 45 36C44.9991 35.3023 44.7824 34.622 44.3795 34.0524C43.9767 33.4828 43.4075 33.0518 42.75 32.8185V32.625C42.75 32.3266 42.6315 32.0405 42.4205 31.8295C42.2095 31.6185 41.9234 31.5 41.625 31.5C41.3266 31.5 41.0405 31.6185 40.8295 31.8295C40.6185 32.0405 40.5 32.3266 40.5 32.625V32.8185C39.7497 33.0841 39.1175 33.6064 38.7149 34.2929C38.3123 34.9795 38.1654 35.7863 38.3 36.5708C38.4346 37.3552 38.8421 38.0668 39.4505 38.58C40.0589 39.0931 40.8291 39.3747 41.625 39.375C41.8475 39.375 42.065 39.441 42.25 39.5646C42.435 39.6882 42.5792 39.8639 42.6644 40.0695C42.7495 40.275 42.7718 40.5012 42.7284 40.7195C42.685 40.9377 42.5778 41.1382 42.4205 41.2955C42.2632 41.4528 42.0627 41.56 41.8445 41.6034C41.6262 41.6468 41.4 41.6245 41.1945 41.5394C40.9889 41.4542 40.8132 41.31 40.6896 41.125C40.566 40.94 40.5 40.7225 40.5 40.5C40.5 40.2016 40.3815 39.9155 40.1705 39.7045C39.9595 39.4935 39.6734 39.375 39.375 39.375C39.0766 39.375 38.7905 39.4935 38.5795 39.7045C38.3685 39.9155 38.25 40.2016 38.25 40.5C38.2509 41.1977 38.4676 41.878 38.8705 42.4476C39.2733 43.0172 39.8425 43.4482 40.5 43.6815V43.875C40.5 44.1734 40.6185 44.4595 40.8295 44.6705C41.0405 44.8815 41.3266 45 41.625 45C41.9234 45 42.2095 44.8815 42.4205 44.6705C42.6315 44.4595 42.75 44.1734 42.75 43.875V43.6815C43.5003 43.4159 44.1325 42.8936 44.5351 42.2071C44.9377 41.5205 45.0846 40.7137 44.95 39.9292C44.8154 39.1448 44.4079 38.4332 43.7995 37.92C43.1911 37.4069 42.4209 37.1253 41.625 37.125C41.3266 37.125 41.0405 37.0065 40.8295 36.7955C40.6185 36.5845 40.5 36.2984 40.5 36C40.5 35.7016 40.6185 35.4155 40.8295 35.2045C41.0405 34.9935 41.3266 34.875 41.625 34.875Z" fill="black"/>
<path d="M51.75 55.125H47.25C46.9516 55.125 46.6655 55.2435 46.4545 55.4545C46.2435 55.6655 46.125 55.9516 46.125 56.25V63H43.875V52.875C43.875 52.5766 43.7565 52.2905 43.5455 52.0795C43.3345 51.8685 43.0484 51.75 42.75 51.75H38.25C37.9516 51.75 37.6655 51.8685 37.4545 52.0795C37.2435 52.2905 37.125 52.5766 37.125 52.875V63H34.875V49.5C34.875 49.2016 34.7565 48.9155 34.5455 48.7045C34.3345 48.4935 34.0484 48.375 33.75 48.375H29.25C28.9516 48.375 28.6655 48.4935 28.4545 48.7045C28.2435 48.9155 28.125 49.2016 28.125 49.5V63H25.875V43.875C25.875 43.5766 25.7565 43.2905 25.5455 43.0795C25.3345 42.8685 25.0484 42.75 24.75 42.75H20.25C19.9516 42.75 19.6655 42.8685 19.4545 43.0795C19.2435 43.2905 19.125 43.5766 19.125 43.875V63H16.875V39.375C16.875 39.0766 16.7565 38.7905 16.5455 38.5795C16.3345 38.3685 16.0484 38.25 15.75 38.25H11.25C10.9516 38.25 10.6655 38.3685 10.4545 38.5795C10.2435 38.7905 10.125 39.0766 10.125 39.375V64.125C10.125 64.4234 10.2435 64.7095 10.4545 64.9205C10.6655 65.1315 10.9516 65.25 11.25 65.25H51.75C52.0484 65.25 52.3345 65.1315 52.5455 64.9205C52.7565 64.7095 52.875 64.4234 52.875 64.125V56.25C52.875 55.9516 52.7565 55.6655 52.5455 55.4545C52.3345 55.2435 52.0484 55.125 51.75 55.125ZM12.375 63V40.5H14.625V63H12.375ZM21.375 63V45H23.625V63H21.375ZM30.375 63V50.625H32.625V63H30.375ZM39.375 63V54H41.625V63H39.375ZM48.375 63V57.375H50.625V63H48.375Z" fill="black"/>
<path d="M52.875 6.75H10.125C9.82663 6.75 9.54048 6.86853 9.32951 7.07951C9.11853 7.29048 9 7.57663 9 7.875V16.875C9 17.1734 9.11853 17.4595 9.32951 17.6705C9.54048 17.8815 9.82663 18 10.125 18H52.875C53.1734 18 53.4595 17.8815 53.6705 17.6705C53.8815 17.4595 54 17.1734 54 16.875V7.875C54 7.57663 53.8815 7.29048 53.6705 7.07951C53.4595 6.86853 53.1734 6.75 52.875 6.75ZM51.75 15.75H11.25V9H51.75V15.75Z" fill="black"/>
<path d="M31.5 20.25H11.25C10.9516 20.25 10.6655 20.3685 10.4545 20.5795C10.2435 20.7905 10.125 21.0766 10.125 21.375C10.125 21.6734 10.2435 21.9595 10.4545 22.1705C10.6655 22.3815 10.9516 22.5 11.25 22.5H31.5C31.7984 22.5 32.0845 22.3815 32.2955 22.1705C32.5065 21.9595 32.625 21.6734 32.625 21.375C32.625 21.0766 32.5065 20.7905 32.2955 20.5795C32.0845 20.3685 31.7984 20.25 31.5 20.25Z" fill="black"/>
<path d="M11.25 27H24.75C25.0484 27 25.3345 26.8815 25.5455 26.6705C25.7565 26.4595 25.875 26.1734 25.875 25.875C25.875 25.5766 25.7565 25.2905 25.5455 25.0795C25.3345 24.8685 25.0484 24.75 24.75 24.75H11.25C10.9516 24.75 10.6655 24.8685 10.4545 25.0795C10.2435 25.2905 10.125 25.5766 10.125 25.875C10.125 26.1734 10.2435 26.4595 10.4545 26.6705C10.6655 26.8815 10.9516 27 11.25 27Z" fill="black"/>
<path d="M11.25 31.5H28.125C28.4234 31.5 28.7095 31.3815 28.9205 31.1705C29.1315 30.9595 29.25 30.6734 29.25 30.375C29.25 30.0766 29.1315 29.7905 28.9205 29.5795C28.7095 29.3685 28.4234 29.25 28.125 29.25H11.25C10.9516 29.25 10.6655 29.3685 10.4545 29.5795C10.2435 29.7905 10.125 30.0766 10.125 30.375C10.125 30.6734 10.2435 30.9595 10.4545 31.1705C10.6655 31.3815 10.9516 31.5 11.25 31.5Z" fill="black"/>
<path d="M31.5 24.75H29.25C28.9516 24.75 28.6655 24.8685 28.4545 25.0795C28.2435 25.2905 28.125 25.5766 28.125 25.875C28.125 26.1734 28.2435 26.4595 28.4545 26.6705C28.6655 26.8815 28.9516 27 29.25 27H31.5C31.7984 27 32.0845 26.8815 32.2955 26.6705C32.5065 26.4595 32.625 26.1734 32.625 25.875C32.625 25.5766 32.5065 25.2905 32.2955 25.0795C32.0845 24.8685 31.7984 24.75 31.5 24.75Z" fill="black"/>
<path d="M51.75 20.25H36C35.7016 20.25 35.4155 20.3685 35.2045 20.5795C34.9935 20.7905 34.875 21.0766 34.875 21.375C34.875 21.6734 34.9935 21.9595 35.2045 22.1705C35.4155 22.3815 35.7016 22.5 36 22.5H51.75C52.0484 22.5 52.3345 22.3815 52.5455 22.1705C52.7565 21.9595 52.875 21.6734 52.875 21.375C52.875 21.0766 52.7565 20.7905 52.5455 20.5795C52.3345 20.3685 52.0484 20.25 51.75 20.25Z" fill="black"/>
<path d="M11.25 36H21.375C21.6734 36 21.9595 35.8815 22.1705 35.6705C22.3815 35.4595 22.5 35.1734 22.5 34.875C22.5 34.5766 22.3815 34.2905 22.1705 34.0795C21.9595 33.8685 21.6734 33.75 21.375 33.75H11.25C10.9516 33.75 10.6655 33.8685 10.4545 34.0795C10.2435 34.2905 10.125 34.5766 10.125 34.875C10.125 35.1734 10.2435 35.4595 10.4545 35.6705C10.6655 35.8815 10.9516 36 11.25 36Z" fill="black"/>
</svg>
