<svg width="42" height="42" viewBox="0 0 42 42" fill="none" xmlns="http://www.w3.org/2000/svg">
<path d="M21.5 1.8C21.9 1.9 22.3 2 22.7 2.2C24.4 3 25.3 4.3 25.4 6.1C25.4 6.8 25.4 7.5 25.4 8.2C25.9 8.2 26.4 8.2 26.9 8.2C27.3 8.2 27.6 8.2 28 8.2C28.4 8.2 28.6 8.4 28.6 8.8C28.6 9.7 28.6 10.5 28.6 11.4H27.3V9.5H25.4V11.4H24.1V9.5H17.7V11.4H16.4V9.5H14.5V21H23.4V22.3H14.4C14.4 22.5 14.4 22.7 14.4 22.9C14.4 23.4 14.7 23.6 15.1 23.6C16 23.6 16.9 23.6 17.7 23.6H23.3V24.9C23.2 24.9 23.1 24.9 22.9 24.9C20.3 24.9 17.7 24.9 15.1 24.9C14 24.9 13 24.1 13 22.8C13 18.2 13 13.6 13 9C13 8.4 13.2 8.2 13.8 8.2C14.6 8.2 15.3 8.2 16.1 8.2C16.1 8.2 16.1 8.2 16.2 8.2C16.2 7.7 16.2 7.1 16.2 6.6C16.2 4.1 17.6 2.4 20 1.9C20 1.9 20.1 1.9 20.1 1.8H21.5ZM24.1 8.2C24.1 7.5 24.1 6.8 24.1 6.2C24 4.7 23 3.4 21.6 3.2C20.1 2.9 18.7 3.6 18 5C17.5 6 17.8 7.1 17.7 8.2H24.1Z" fill="currentColor"/>
<path d="M14.0004 40.2C13.8004 39.8 13.7004 39.4 13.6004 39L15.1004 38.4C14.0004 35.4 12.9004 32.4 11.8004 29.4L5.80039 31.6C6.70039 34.2 7.70039 36.8 8.60039 39.4L7.40039 39.8L4.80039 32.6L1.80039 33.7C1.70039 33.3 1.50039 32.9 1.40039 32.5C2.30039 32.2 3.10039 31.9 4.00039 31.6C4.20039 31.5 4.40039 31.4 4.40039 31.1C4.40039 30.9 4.70039 30.7 4.80039 30.6C7.20039 29.7 9.50039 28.9 11.9004 28C12.3004 27.8 12.6004 28 12.8004 28.4L12.9004 28.7C13.1004 28.5 13.4004 28.4 13.6004 28.3C15.5004 27.3 17.4004 26.4 19.6004 26.4C20.6004 26.4 21.7004 26.6 22.7004 26.8C24.7004 27.1 26.8004 27.5 28.8004 27.9C30.0004 28.1 30.9004 28.6 31.3004 29.9L33.8004 29C34.9004 28.6 36.0004 28.2 37.2004 27.8C38.6004 27.3 40.1004 28.1 40.5004 29.5C40.8004 30.6 40.3004 32 39.2004 32.5C37.5004 33.2 35.8004 33.8 34.1004 34.4C31.7004 35.3 29.2004 36.2 26.8004 37C25.7004 37.4 24.6004 37.4 23.5004 37.4C22.5004 37.3 21.6004 37.3 20.6004 37.2C19.1004 37.1 17.7004 37.6 16.3004 38.2C16.4004 38.4 16.4004 38.6 16.5004 38.8C16.6004 39.2 16.5004 39.5 16.2004 39.6C15.5004 39.7 14.8004 40 14.0004 40.2ZM21.7004 30.5C21.9004 30.5 22.0004 30.5 22.2004 30.6C24.3004 31 26.5004 31.3 28.6004 31.7C29.4004 31.8 30.0004 31.4 30.2004 30.7C30.3004 30 29.8004 29.4 29.1004 29.2C26.7004 28.8 24.2004 28.4 21.8004 27.9C18.8004 27.3 16.2004 28.3 13.8004 29.8C13.6004 29.9 13.5004 30.1 13.6004 30.3C14.0004 31.4 14.4004 32.5 14.8004 33.6C15.2004 34.7 15.6004 35.7 16.0004 36.8C16.2004 36.7 16.4004 36.7 16.6004 36.6C17.5004 36.3 18.4004 35.9 19.3004 35.9C20.8004 35.8 22.2004 36 23.7004 36C24.2004 36 24.8004 36.1 25.3004 36C26.4004 35.7 27.5004 35.4 28.6004 35C31.9004 33.8 35.2004 32.6 38.5004 31.4C38.8004 31.3 39.1004 31.1 39.3004 30.9C39.6004 30.5 39.6004 29.9 39.3004 29.4C39.0004 29 38.4004 28.8 37.8004 29C35.8004 29.7 33.8004 30.5 31.7004 31.2C31.6004 31.2 31.4004 31.4 31.4004 31.5C30.9004 32.6 29.9004 33.2 28.7004 33C27.0004 32.7 25.4004 32.4 23.7004 32.1C23.0004 32 22.4004 31.9 21.7004 31.7C21.5004 31.3 21.6004 30.9 21.7004 30.5Z" fill="currentColor"/>
<path d="M31.2012 12.7C33.1012 12.7 34.9012 12.7 36.8012 12.7C37.4012 12.7 37.6012 12.9 37.6012 13.5C37.6012 16.6 37.6012 19.7 37.6012 22.8C37.6012 24.1 36.6012 24.9 35.5012 24.9C32.6012 24.9 29.7012 24.9 26.8012 24.9C25.7012 24.9 24.7012 24.1 24.7012 22.8C24.7012 19.7 24.7012 16.6 24.7012 13.4C24.7012 12.8 24.9012 12.6 25.5012 12.6C27.5012 12.7 29.3012 12.7 31.2012 12.7ZM26.1012 21H36.3012V14H26.1012V21ZM36.4012 22.3H26.1012C26.0012 23.4 26.2012 23.6 27.2012 23.6H33.0012C33.9012 23.6 34.7012 23.6 35.6012 23.6C36.1012 23.6 36.3012 23.4 36.3012 22.9C36.4012 22.7 36.4012 22.5 36.4012 22.3Z" fill="currentColor"/>
<path d="M28 15.3H29.3C29.3 15.8 29.3 16.2 29.3 16.7C29.4 17.7 30.1 18.4 31.1 18.5C32 18.6 32.9 17.9 33.1 17C33.2 16.8 33.1 16.5 33.2 16.2C33.2 15.9 33.2 15.6 33.2 15.3H34.4C34.6 17.1 34.3 18.5 32.9 19.3C30.9 20.5 28.4 19.2 28.1 16.9C28 16.4 28 15.8 28 15.3Z" fill="currentColor"/>
</svg>
