<svg width="86" height="78" viewBox="0 0 86 78" fill="none" xmlns="http://www.w3.org/2000/svg">
<path d="M0.542969 30.4614C9.04676 21.5413 17.3798 12.7926 25.8371 3.90368C27.3113 5.28916 28.77 6.51897 30.0735 7.90446C30.958 8.85406 31.6563 8.79179 32.6805 8.13796C36.9789 5.44483 41.3239 2.84511 45.8396 0.0897064C47.1431 2.19128 48.4156 4.24616 49.7501 6.39443C55.1814 4.82214 60.5505 3.24985 66.1835 1.61529C72.6079 23.6896 78.9858 45.6394 85.4412 67.8227C81.81 68.8969 78.2875 69.971 74.7494 70.9984C67.068 73.2401 59.3867 75.4351 51.7209 77.739C50.526 78.0971 49.8277 77.8013 49.0208 77.023C36.3272 64.7871 23.6025 52.5824 10.8934 40.3777C7.51049 37.1241 4.11208 33.8862 0.542969 30.4614ZM72.4372 51.6484C56.8263 36.6571 41.4325 21.8838 25.9612 7.03269C18.4661 14.8941 11.1262 22.5999 3.70861 30.368C19.3041 45.3281 34.7288 60.1325 50.2001 74.9837C57.6642 67.1378 64.9731 59.4631 72.4372 51.6484ZM73.2131 41.7476C74.1287 46.7758 76.146 50.6988 79.172 54.1547C74.3459 37.5912 69.5199 21.0121 64.6783 4.37069C59.9609 5.77175 55.5383 7.07939 51.1467 8.37147C51.6433 10.2862 52.5899 10.582 54.1106 9.95933C55.3521 9.44561 56.6556 9.1187 57.9746 8.82292C58.3936 8.72952 59.1539 8.80735 59.2936 9.072C60.4264 11.0646 62.211 11.625 64.3214 11.5161C66.0749 17.5561 67.7974 23.4873 69.6595 29.9321C66.9905 27.597 64.6162 25.7756 61.2178 25.3398C62.7541 27.8928 64.0265 30.2901 65.5938 32.454C66.6801 33.964 68.1853 35.1627 69.5819 36.5793C69.4733 36.6571 69.0698 36.9996 68.5422 37.4355C69.8613 39.5993 71.1337 41.6853 72.5924 44.0983C72.8097 43.2109 72.9338 42.7595 73.2131 41.7476ZM71.6924 48.3481C71.8786 48.2236 72.0803 48.0835 72.2665 47.9589C63.2507 33.0611 54.2348 18.1633 45.1413 3.15645C40.998 5.67834 37.0565 8.09126 32.9287 10.6287C33.6736 11.3137 34.2167 11.8118 34.6978 12.2788C36.7927 11.0179 38.7169 9.85036 40.6722 8.66725C42.3481 10.4575 44.2568 11.158 46.5534 10.0372C49.8432 15.4857 53.0399 20.7941 56.5314 26.5851C53.3347 24.935 50.6501 23.892 47.2052 24.3279C50.8208 27.6281 53.6141 31.3798 58.3315 32.812C58.0522 33.1545 57.7418 33.5592 57.6642 33.6527C59.4333 35.583 61.0626 37.3732 62.8782 39.3658C62.9248 38.5875 62.9403 38.0893 62.9558 38.027C65.7801 41.3429 68.744 44.8455 71.6924 48.3481ZM82.7101 66.3283C82.0117 63.9465 81.391 61.8916 80.7393 59.6655C79.622 60.3193 78.5978 60.7396 77.7909 61.4246C76.9684 62.1407 75.7891 63.1214 75.7891 63.9776C75.7891 65.908 74.7494 66.3127 73.3217 66.6396C72.5769 66.8109 71.8475 67.0755 71.1027 67.2312C66.5404 68.243 62.4903 70.3135 58.3315 73.4736C66.7422 70.9984 74.6252 68.6945 82.7101 66.3283ZM56.9504 70.8895C57.0745 71.014 57.1832 71.123 57.3073 71.2475C60.8143 69.1148 64.3059 66.9665 67.8129 64.8338C71.351 62.67 74.889 60.5217 78.5357 58.2956C77.2633 56.2096 76.115 54.3415 74.889 52.3333C72.8872 54.6217 69.9078 56.1629 71.6613 59.7278C68.8991 61.4246 66.1215 62.8256 63.6852 64.6781C61.2644 66.5151 59.185 68.8035 56.9504 70.8895Z" fill="white"/>
<path d="M52.0027 35.2716C56.534 39.646 60.7083 43.6468 64.867 47.6476C65.2395 48.0056 65.6895 48.2703 66.0154 48.5038C64.6343 51.5394 64.6498 52.0531 66.0619 54.8864C61.779 59.3853 57.4495 63.9309 53.058 68.5388C50.9941 67.1378 48.9768 67.1066 47.037 68.6945C42.5213 64.3512 38.0832 60.1014 33.1641 55.3689C39.5264 56.7077 44.7714 55.6959 48.9147 51.2592C53.12 46.7914 53.9114 41.4985 52.0027 35.2716Z" fill="white"/>
<path d="M23.9266 46.1376C23.6938 46.0753 23.5386 46.0753 23.4611 45.9975C19.0385 41.7943 14.6314 37.5756 10.1312 33.2946C11.3726 31.302 11.8071 29.2627 9.89844 27.3012C14.3365 22.6466 18.666 18.101 23.0886 13.4775C25.1059 14.8163 27.1233 15.0809 29.0475 13.2596C33.6408 17.6807 38.1254 21.9772 42.9825 26.6318C36.7133 25.3709 31.4372 26.1959 27.2474 30.726C23.1197 35.1782 22.2662 40.3777 23.9266 46.1376Z" fill="white"/>
<path d="M30.7259 40.5645C29.4069 42.8062 29.2052 44.9078 31.3156 47.0405C33.1933 45.0634 35.1175 43.1331 36.9176 41.0782C37.2279 40.7202 36.9952 39.864 36.9486 39.2413C36.8555 38.0271 36.5917 36.8128 36.6227 35.6141C36.7158 32.0804 40.2074 30.259 43.6368 31.8157C44.3661 32.1426 45.2196 32.1893 45.8093 32.3139C46.2748 33.3569 46.6938 34.5556 47.3456 35.5986C48.2146 36.9996 48.3232 38.1205 46.88 39.1946C46.3214 39.5993 45.9024 40.1909 45.2196 40.6735C46.1352 38.4941 47.2835 36.3458 45.2662 34.4622C43.5282 36.05 41.7747 37.6067 40.0987 39.2413C39.8815 39.4592 39.9435 40.0508 39.9901 40.4555C40.1453 41.8566 40.3315 43.2576 40.5487 44.6431C41.1229 48.4571 36.871 51.3682 33.2553 49.5624C32.6346 49.251 32.0294 48.9086 31.3622 48.5505C30.8346 48.9241 30.3225 49.2822 29.7949 49.6402C29.6862 49.5312 29.5776 49.4378 29.4845 49.3289C29.8104 48.7996 30.1518 48.2859 30.4776 47.7566C27.0637 43.2888 27.0792 43.1487 30.7259 40.5645ZM31.9829 47.6943C33.7054 48.9864 35.2571 48.9086 36.7313 47.7721C38.0504 46.7603 38.2521 44.5964 37.3055 42.0901C35.552 43.9426 33.8295 45.7484 31.9829 47.6943ZM44.273 33.4036C42.8919 32.3917 41.6971 32.1738 40.5332 33.1389C38.8883 34.4933 39.1987 36.2368 39.509 38.4785C41.2626 36.626 42.7212 35.0693 44.273 33.4036Z" fill="white"/>
</svg>
