<svg width="26" height="22" viewBox="0 0 26 22" fill="none" xmlns="http://www.w3.org/2000/svg">
<path d="M0.125 1.69205C0.125 1.53475 0.125 1.3732 0.125 1.2159C0.303291 0.84603 0.577249 0.578193 0.990362 0.471909C2.39929 0.471909 3.80822 0.471909 5.21716 0.471909C5.79986 0.641964 6.05208 1.06285 6.1434 1.61553C6.18688 1.88337 6.24776 2.1512 6.30864 2.43179C6.43475 2.43179 6.55216 2.43179 6.66957 2.43179C12.7228 2.43179 18.7759 2.43179 24.8291 2.43179C25.4292 2.43179 25.8684 2.83993 25.8728 3.41386C25.8771 5.99445 25.8771 8.57078 25.8728 11.1514C25.8728 11.6913 25.4858 12.0739 24.9378 12.1292C23.942 12.2355 22.9462 12.3545 21.9547 12.465C20.6197 12.6181 19.2847 12.7711 17.9497 12.9199C16.6495 13.0687 15.3493 13.2175 14.0534 13.3621C12.7184 13.5151 11.3834 13.6682 10.0484 13.8212C9.65268 13.868 9.25261 13.9148 8.81341 13.97C9.10041 14.6758 9.12216 15.3305 8.64816 15.9809C8.8308 15.9809 8.93952 15.9809 9.04388 15.9809C13.562 15.9809 18.0802 15.9809 22.5983 15.9809C22.7157 15.9809 22.8331 15.9809 22.9506 15.9852C23.4637 16.0149 23.8637 16.4018 23.8985 16.8992C23.9333 17.3711 23.5767 17.8133 23.0767 17.8983C22.8766 17.9323 22.6766 17.9366 22.4548 17.9578C23.6333 18.536 24.0899 19.3055 23.8551 20.3003C23.655 21.1549 22.8375 21.7926 21.9243 21.8011C21.0372 21.8096 20.1936 21.1761 19.9892 20.3471C19.7326 19.3225 20.1849 18.5403 21.3894 17.9578C17.1104 17.9578 12.8619 17.9578 8.56989 17.9578C9.7527 18.502 10.2093 19.2673 9.99187 20.3046C9.81792 21.1379 8.97431 21.7926 8.06546 21.8053C7.17835 21.8181 6.35648 21.2016 6.13035 20.3514C5.86509 19.3438 6.30429 18.5743 7.55233 17.9408C7.40883 17.9408 7.32186 17.9408 7.23923 17.9408C6.30864 17.9323 5.85204 17.2861 6.20863 16.4443C6.40431 15.9809 6.67392 15.5473 6.887 15.0924C6.94788 14.9606 6.98267 14.7863 6.95658 14.6503C6.08252 10.654 5.19976 6.66191 4.33005 2.66137C4.28222 2.4488 4.19959 2.41904 4.00826 2.41904C3.12115 2.42754 2.2384 2.39778 1.35129 2.43179C0.738146 2.46155 0.346776 2.23198 0.125 1.69205Z" fill="#ECC759"/>
</svg>
