<?xml version="1.0" encoding="utf-8"?>
<!-- Generator: Adobe Illustrator 22.0.0, SVG Export Plug-In . SVG Version: 6.00 Build 0)  -->
<svg version="1.1" xmlns="http://www.w3.org/2000/svg" xmlns:xlink="http://www.w3.org/1999/xlink" x="0px" y="0px"
	 viewBox="0 0 1920 1920" style="enable-background:new 0 0 1920 1920;" xml:space="preserve">
<style type="text/css">
	.st0{fill:#439539;}
	.st1{fill:#E4E5E6;}
	.st2{fill:#FFFFFF;}
	.st3{fill:#D1D3D4;}
	.st4{fill:#231F20;}
</style>
<g id="SMART_IT_SERVICES">
	<g>
		<path class="st0" d="M686.3,1774.9c3.9,2.2,8.4,3.4,12.8,3.4c7.3,0,11.7-3.9,11.7-9.5s-2.8-8.4-10.6-11.2
			c-8.9-3.4-14.5-7.8-14.5-15.6c0-8.9,7.3-15.1,17.9-15.1c4.5,0,8.4,0.6,12.3,2.8l-2.2,5.6c-3.4-1.7-6.7-2.8-10.6-2.8
			c-7.8,0-10.6,4.5-10.6,8.4c0,5,3.4,7.8,11.2,10.6c9.5,3.4,14.5,8.4,14.5,16.2c0,7.8-6.1,16.2-19.6,16.2c-5,0-10.1-1.1-14.5-3.4
			L686.3,1774.9z"/>
		<path class="st0" d="M775.1,1759.2c-0.6-7.8-1.1-17.3-0.6-24l0,0c-2.2,6.7-4.5,13.4-7.3,21.2l-10.1,27.4h-5.6l-8.9-26.8
			c-2.8-7.8-5-15.1-6.7-21.8l0,0c0,6.7-0.6,16.2-1.1,24.6l-1.7,24H726l3.9-55.9h9.5l9.5,27.4c2.2,6.7,4.5,12.8,5.6,19h0.6
			c1.1-5.6,3.4-11.7,5.6-19l10.1-27.4h8.9l3.4,55.9h-7.3L775.1,1759.2z"/>
		<path class="st0" d="M803.1,1766.5l-5.6,17.3h-7.3l19-55.9h8.9l19,55.9h-7.8l-6.1-17.3H803.1z M821.5,1760.9l-5.6-16.2
			c-1.1-3.9-2.2-6.7-2.8-10.1l0,0c-0.6,3.4-1.7,6.7-2.8,10.1l-5.6,16.2H821.5z"/>
		<path class="st0" d="M845,1728.5c4.5-0.6,9.5-1.1,14-1.1c5.6-0.6,11.7,1.1,16.2,4.5c2.8,2.8,4.5,6.7,4.5,10.6
			c0,6.7-4.5,12.3-10.6,14.5l0,0c4.5,2.2,7.8,6.1,8.4,11.2c1.1,5,2.2,10.6,4.5,15.6h-7.3c-1.7-4.5-2.8-8.9-3.9-13.4
			c-1.7-7.8-4.5-10.6-11.2-11.2h-6.7v24h-7.3L845,1728.5z M852.2,1754.2h7.3c7.8,0,12.8-4.5,12.8-10.6c0-7.3-5-10.6-12.8-10.6
			c-2.2,0-5,0-7.3,0.6V1754.2z"/>
		<path class="st0" d="M901.4,1734.1h-17.3v-6.1h41.3v6.1h-17.3v49.7h-7.3v-49.7H901.4z"/>
		<path class="st0" d="M956.7,1727.9v55.9h-7.3v-55.9H956.7z"/>
		<path class="st0" d="M980.2,1734.1h-17.3v-6.1h41.9v6.1h-17.3v49.7h-7.3L980.2,1734.1L980.2,1734.1z"/>
		<path class="st0" d="M1027.6,1774.9c3.9,2.2,8.4,3.4,12.8,3.4c7.3,0,11.7-3.9,11.7-9.5s-2.8-8.4-10.6-11.2
			c-8.9-3.4-15.1-7.8-15.1-15.6c0-8.9,7.3-15.1,17.9-15.1c4.5,0,8.4,0.6,12.3,2.8l-2.2,5.6c-3.4-1.7-6.7-2.8-10.6-2.8
			c-7.8,0-10.6,4.5-10.6,8.4c0,5,3.4,7.8,11.2,10.6c9.5,3.4,14.5,8.4,14.5,16.2c0,7.8-6.1,16.2-19.6,16.2c-5,0-10.1-1.1-14.5-3.4
			L1027.6,1774.9z"/>
		<path class="st0" d="M1098.6,1757.6h-21.8v20.1h24.6v6.1h-31.3v-55.9h30.2v6.1h-22.9v17.9h21.8L1098.6,1757.6z"/>
		<path class="st0" d="M1110.3,1728.5c4.5-0.6,9.5-1.1,14-1.1c5.6-0.6,11.7,1.1,16.2,4.5c2.8,2.8,4.5,6.7,4.5,10.6
			c0,6.7-4.5,12.3-10.6,14.5l0,0c4.5,2.2,7.8,6.1,8.4,11.2c1.1,5,2.2,10.6,4.5,15.6h-7.3c-1.7-4.5-2.8-8.9-3.9-13.4
			c-1.7-7.8-4.5-10.6-11.2-11.2h-6.7v24h-7.3L1110.3,1728.5z M1117.6,1754.2h7.3c7.8,0,12.8-4.5,12.8-10.6c0-7.3-5-10.6-12.8-10.6
			c-2.2,0-5,0-7.3,0.6V1754.2z"/>
		<path class="st0" d="M1169,1783.8l-18.4-55.9h7.8l8.9,27.4c2.2,7.8,4.5,14.5,6.1,21.2l0,0c1.7-6.7,3.9-13.4,6.1-20.7l9.5-27.9h7.8
			l-20.1,55.9L1169,1783.8z"/>
		<path class="st0" d="M1210.3,1727.9v55.9h-7.3v-55.9H1210.3z"/>
		<path class="st0" d="M1262.2,1782.1c-4.5,1.7-9.5,2.8-14.5,2.8c-14.5,1.1-26.8-10.1-27.9-24.6c0-1.1,0-2.8,0-3.9
			c-1.1-15.6,10.6-28.5,26.3-29.6c1.1,0,2.2,0,2.8,0c4.5,0,8.9,0.6,13.4,2.8l-1.7,6.1c-3.4-1.7-7.3-2.2-11.2-2.2
			c-13.4,0-21.8,8.4-21.8,22.9c0,14,7.8,22.3,21.8,22.3c3.9,0,7.8-0.6,11.7-2.2L1262.2,1782.1z"/>
		<path class="st0" d="M1300.2,1757.6h-21.8v20.1h24.6v6.1h-31.3v-55.9h30.2v6.1h-23.5v17.9h21.8V1757.6z"/>
		<path class="st0" d="M1310.8,1774.9c3.9,2.2,8.4,3.4,12.8,3.4c7.3,0,11.7-3.9,11.7-9.5s-2.8-8.4-10.6-11.2
			c-8.9-3.4-14.5-7.8-14.5-15.6c0-8.9,7.3-15.1,17.9-15.1c4.5,0,8.4,0.6,12.3,2.8l-2.2,5.6c-3.4-1.7-6.7-2.8-10.6-2.8
			c-7.8,0-10.6,4.5-10.6,8.4c0,5,3.4,7.8,11.2,10.6c9.5,3.4,14.5,8.4,14.5,16.2c0,7.8-6.1,16.2-19.6,16.2c-5,0-10.1-1.1-14.5-3.4
			L1310.8,1774.9z"/>
	</g>
</g>
<g id="GUINDY_TECHNOLOGY">
	<g>
		<path d="M394.7,1678.8c-15.6,5.6-31.8,8.4-48.6,8.4c-24,0-43.6-6.1-59.2-20.7c-15.1-15.6-22.9-36.9-21.8-58.7
			c0-46.9,32.4-81.6,85.5-81.6c13.4-0.6,26.8,2.2,39.1,7.3l-5,16.8c-11.2-5-22.9-7.3-34.6-6.7c-38.5,0-63.1,24-63.1,63.7
			c0,39.7,24,63.7,60.9,63.7c9.5,0.6,18.4-1.1,27.4-4.5v-46.9h-31.8v-16.2h51.9L394.7,1678.8z"/>
		<path d="M433.3,1599.5v50.8c0,19.6,8.4,27.4,20.1,27.4c12.8,0,21.2-8.4,21.2-27.4v-50.8h11.2v50.3c0,26.3-14,37.4-32.4,37.4
			c-17.9,0-31.3-10.1-31.3-36.9v-50.8H433.3z"/>
		<path d="M518.8,1599.5v86h-11.2v-86H518.8z"/>
		<path d="M540.5,1686.1v-86h12.3l27.4,43.6c5.6,8.9,11.2,18.4,15.6,27.9l0,0c-1.1-11.7-1.1-21.8-1.1-35.7v-36.3h10.6v86h-11.2
			l-27.4-43.6c-6.1-9.5-11.2-19-16.2-29H550c0.6,10.6,1.1,21.2,1.1,35.7v36.9L540.5,1686.1z"/>
		<path d="M627.7,1601.1c7.8-1.1,15.6-1.7,23.5-1.7c16.2,0,27.4,3.9,35.2,10.6c8.4,7.8,12.8,19.6,12.3,30.7
			c0.6,12.3-3.9,24.6-12.3,33.5c-7.8,8.4-21.2,12.3-38,12.3c-6.7,0-13.4-0.6-20.1-1.1L627.7,1601.1z M638.9,1677.1
			c3.9,0.6,7.3,0.6,11.2,0.6c24,0,36.9-13.4,36.9-36.3c0-20.1-11.2-33.5-34.6-33.5c-4.5,0-8.9,0.6-12.8,1.1L638.9,1677.1z"/>
		<path class="st0" d="M732.1,1686.1v-36.9l-27.4-49.7h12.8l12.3,24c3.4,6.7,6.1,11.7,8.4,17.9l0,0c2.2-5.6,5.6-11.2,8.9-17.9
			l12.3-24h12.8l-29,49.7v36.9H732.1z"/>
		<path d="M903.6,1610.6h-26.3v-9.5h63.7v9.5h-26.3v76.5h-11.2V1610.6z"/>
		<path d="M998,1647h-33.5v31.3h37.4v8.9h-48.6v-86h46.4v9.5h-35.2v27.4H998V1647z"/>
		<path d="M1079,1684.4c-7.3,2.8-15.1,4.5-22.9,3.9c-24.6,0-42.5-15.6-42.5-43.6c-1.1-23.5,16.8-44.1,40.2-45.2c1.7,0,3.4,0,4.5,0
			c7.3-0.6,14,1.1,20.7,3.9l-2.8,8.9c-5.6-2.2-11.2-3.9-17.3-3.4c-20.1,0-33.5,12.8-33.5,35.7c0,21.2,12.3,34.6,33,34.6
			c6.1,0,12.3-1.1,17.9-3.4L1079,1684.4z"/>
		<path d="M1107,1601.1v36.3h41.9v-36.3h11.2v86h-11.2V1647H1107v40.2h-11.2v-86H1107z"/>
		<path d="M1181.8,1687.2v-86h12.3l27.4,43.6c5.6,8.9,11.2,18.4,15.6,27.9l0,0c-1.1-11.7-1.1-21.8-1.1-35.7v-36.3h10.6v86h-11.2
			l-27.4-43.6c-6.1-9.5-11.2-19-16.2-29h-0.6c0.6,10.6,1.1,21.2,1.1,35.7v36.9h-10.6V1687.2z"/>
		<path d="M1342.1,1643c0,29.6-17.9,45.2-40.2,45.2s-38.5-17.9-38.5-43.6c0-27.4,16.8-45.2,40.2-45.2S1342.1,1617.9,1342.1,1643z
			 M1275.1,1644.7c0,18.4,10.1,35.2,27.4,35.2c17.3,0,27.9-16.2,27.9-35.7c0-17.3-8.9-35.2-27.4-35.2
			C1284.6,1609,1275.1,1625.7,1275.1,1644.7L1275.1,1644.7z"/>
		<path d="M1358.9,1601.1h11.2v77.1h36.9v8.9h-48V1601.1z"/>
		<path d="M1490.7,1643c0,29.6-17.9,45.2-40.2,45.2c-22.3,0-38.5-17.9-38.5-43.6c0-27.4,16.8-45.2,40.2-45.2
			S1490.7,1617.9,1490.7,1643z M1423.7,1644.7c0,18.4,10.1,35.2,27.4,35.2c17.3,0,27.4-16.2,27.4-35.7c0-17.3-8.9-35.2-27.4-35.2
			C1432.6,1609,1423.7,1625.7,1423.7,1644.7z"/>
		<path d="M1573.4,1683.3c-8.4,3.4-17.3,4.5-26.8,5c-22.3,2.2-41.9-14-44.1-36.3c0-2.2,0-4.5,0-7.3c0-25.7,17.9-44.7,46.9-44.7
			c7.3,0,14.5,1.1,21.8,3.9l-2.8,8.9c-6.1-2.8-12.3-3.9-19-3.9c-21.2,0-34.6,12.8-34.6,34.6c0,21.8,13.4,34.6,33.5,34.6
			c5,0.6,10.1-0.6,15.1-2.2v-25.7H1546v-8.9h28.5L1573.4,1683.3z"/>
		<path d="M1614.7,1687.2v-36.3l-27.4-49.7h12.8l12.3,24c3.4,6.7,5.6,11.7,8.4,17.9l0,0c2.2-5.6,5.6-11.2,8.9-17.9l12.3-24h12.8
			l-29,49.7v36.9h-11.2V1687.2z"/>
	</g>
</g>
<g id="SENEGAL_MAP">
	<g id="Carte_SN">
		<path class="st1" d="M681.3,991.2h109.5l25.1,11.7l7.8-7.8l1.7-15.6l7.8-1.7l5.6-3.9l11.7-13.4l15.6-3.9l5.6-1.7h7.8
			c0,0,15.6,7.8,21.2,11.7c6.1,3.4,12.8,6.7,19,9.5l22.9,7.8l5.6,1.7c11.7,3.9,38.5,17.3,38.5,17.3h11.7l17.3,3.9l25.1,9.5l5.6,7.8
			l-11.7,7.8l-9.5,1.7l-13.4,3.9h-12.8c0,0,3.9,0-13.4-1.7c-17.3-1.7-65.4-13.4-65.4-13.4h-11.7l-11.7-7.8l-19-11.7l-15.6-5.6
			l-9.5,19l-11.7,3.9l-9.5,5.6h-33l-9.5,5.6l-15.6-3.9v36.9l-38.5-7.8l-22.9-3.9l-5.6-3.9l-5.6-1.7h-15.6l-3.9,5.6l-5.6,5.6h-22.9
			v70.4h19l5.6-5.6l3.9-3.9l9.5-3.9l3.9,1.7l22.9,9.5h40.2l5.6,5.6l5.6,1.7l3.4,2.2l2.2,1.7h-36.9c-3.4,2.8-7.8,3.4-11.7,2.2
			l-7.8-2.2l-30.7-13.4l-38.5,29l21.2,9.5l5.6,15.6l33-21.2l7.8-1.7h30.7l7.8-3.9h25.1c6.1,2.8,12.8,4.5,19,5.6h33l11.7-11.7
			l-7.8-9.5h-6.7l-7.8-9.5l5.6-7.8l26.8,2.2h217.9l22.9,11.7l7.8,1.7h16.8l9.5,25.1h11.7l5.6-3.9l9.5-3.9l13.4,1.7l17.3,11.7
			l7.8,3.9l11.7,9.5c0,0,15.6,3.9,22.9-1.7c6.1-3.9,12.3-7.3,19.6-9.5h61.4c7.8,0.6,15.6,2.8,22.9,5.6h11.7l3.9-96.1l-19.6-11.7
			l-7.8-3.9v-13.4c0,0-3.9,1.7-3.9-9.5c0-11.7-17.3-15.6-17.3-15.6l-7.8,3.9l-7.8,9.5l-11.7-17.3l-3.9-5.6l-7.8-19.6l-3.9-9.5
			l17.3,1.7v-65.4l-20.1-20.1v-30.2l-8.9-8.9v-17.9l-26.8-26.8h-13.4l3.9-17.3l-11.7-5.6l-3.9-5.6l-9.5-7.8H1169l-7.8-7.8l-9.5-15.6
			v-17.3l-19.6-11.7l-15.6-15.6c0,0-13.4-74.9-67.6-69.3L975.7,575h-61.4c0,0-15.6-33-30.7-22.9c-15.1,10.1-1.7,3.9-1.7,3.9
			l-19,22.9l-81-1.7l-15.6,7.8h-33l-33,22.9l-2.2,17.3v22.9l-11.7,13.4l3.9,25.1l-5.6,9.5l-7.8,9.5l-5.6,15.6
			c0,0,1.7,11.7-11.7,25.1C646.1,759.9,545,832,557.3,835.3c7.8,2.2,48,2.2,48,2.2l29,55.9c0,0,0,17.3,7.8,22.9s11.7,42.5,11.7,42.5
			l11.7,22.9L681.3,991.2z"/>
		<path class="st0" d="M674.2,1182.7l-6.4-17.9l-24.6-11l29.6-22.3h-23v-76.1h24.6l4.7-4.7l4.4-6.4l18,0.1l6.4,2.1l5.1,3.5l22.3,3.8
			l35.2,7.1v-37l18.1,4.5l9.2-5.4h33l9.4-5.4l10.6-3.5l10.1-20.2l18.6,6.7l19,11.7l11.1,7.4l11.5,0.1c0.5,0.1,48,11.7,64.9,13.3
			c7.7,0.7,11.8,1.1,14,1.7h11.6l13-3.8l9.2-1.6l8.8-5.8l-3.3-4.7l-24.3-9.2l-16.6-3.7h-12.1l-0.6-0.3c-0.3-0.1-26.8-13.4-38.2-17.2
			l-5.5-1.7l-23-7.9c-6.5-2.9-13.3-6.3-19.4-9.7c-5-3.5-17.6-9.9-20.5-11.4h-6.7l-5.2,1.6l-14.9,3.7l-11.7,13.2l-6.6,4.4l-5.8,1.2
			l-1.6,14.6l-10,10L790.2,994H680.5l-17-10.3l-12.4-24.6c-1.6-14.8-5.9-37.1-10.5-40.4c-8.1-5.8-8.9-20.7-9-24.5l-27.9-53.7
			c-8.5,0-39.8-0.3-47.1-2.3c-1.6-0.4-2.7-1.6-3-3.1c-1.3-6.6,17.2-22.3,70.1-63.3c15.9-12.3,29.7-23,33.9-27.2
			c12.1-12.1,11-22.3,10.9-22.7l-0.1-0.7l6.3-17.2l7.8-9.5l4.8-8.2l-4-25.5l11.9-13.6v-21.8l2.4-18.9l34.7-24.1h33.2l15.7-7.8
			l80.3,1.7l13.1-15.8c-0.3-0.2-0.6-0.6-0.8-1c-1.6-2.9,1.1-4.9,8.1-9.5c3.5-2.3,7.3-3,11.3-1.9c11,3,20.1,19,22.8,24.3h60.8
			l73.1,67.5c22.9-1.9,42,9.9,55.6,34.1c9.1,16.2,12.8,32.7,13.6,36.7l14.8,14.8l20.6,12.4v18.1l8.9,14.7l6.7,6.7h14.4l10.8,9l3.5,5
			l13.1,6.2l-3.6,16h11l28.5,28.5v17.9l8.9,8.9v30.2l20.1,20.1v69.7l-15.7-1.5l9.8,24.3l13.3,19.5l6.3-7.3l8.7-4.4l1,0.2
			c0.8,0.2,19.6,4.6,19.6,18.4c0,3.9,0.5,5.7,0.8,6.4l3.1-1.3v16l6.2,3.1l21.2,12.7l-4.1,100.5l-15.5-0.2
			c-8.2-3.2-15.4-4.9-22.1-5.4l-60.8,0c-7.4,2.3-13.5,5.9-18.4,9c-7.9,6.1-23.4,2.5-25.1,2l-1.1-0.6l-11.5-9.3l-7.5-3.8l-17.1-11.5
			l-12-1.5l-8.5,3.5l-6.1,4.2h-14.6l-9.5-25.1l-15.4-0.1l-8.5-1.9l-22.3-11.4H853.9l-25.4-2.1l-3.4,4.7l5.6,6.7h6.7l10.3,12.6
			l-14.4,14.4h-34.1c-8-1.4-14.3-3.2-19.6-5.6h-23.8l-7.8,3.9h-31.1l-7,1.5L674.2,1182.7z M1207.1,1175.6c4.4,1,15.1,2.4,19.8-1.3
			c5.6-3.6,12.3-7.4,20.5-10l0.8-0.1h61.4c7.3,0.5,14.9,2.3,23.4,5.6h8.4l3.7-91.6l-18.1-10.8l-9.2-4.6v-12.9
			c-0.1,0-0.2-0.1-0.3-0.2c-2.5-1.6-3.6-5.3-3.6-11.7c0-7.8-10.8-11.6-14.1-12.6l-6.3,3.1l-9.9,12l-18.1-26.6l-13.5-33.4l18.9,1.8
			v-61l-20.1-20.1v-30.2l-8.9-8.9v-17.9l-25.1-25.1h-15.8l4.2-18.6l-10.3-4.9l-4.1-5.9l-8.4-6.9h-14.7l-9.1-9.2l-9.9-16.3v-16.5
			l-18.7-11.3l-16.3-16.3l-0.2-0.9c-0.1-0.7-13.6-72.1-64.5-66.9l-1.3,0.1l-73.3-67.7h-62.1l-0.8-1.6c-2.6-5.6-11.4-20.5-19.9-22.9
			c-2.3-0.6-4.5-0.3-6.6,1.1c-0.9,0.6-1.7,1.1-2.4,1.6l1.3,1.7l-19.9,24l-81.7-1.7l-15.6,7.8h-32.7L703,609.6l-2.1,16l0,23.6
			l-11.6,13.2l3.9,24.8l-6.1,10.4l-7.8,9.5l-5.2,14.6c0.2,3.1-0.2,14.4-12.6,26.8c-4.5,4.5-18.4,15.2-34.4,27.7
			c-23.5,18.2-61.9,47.9-67.4,56.7c8.7,1.4,35.3,1.8,45.6,1.8h1.7l30.2,58l0,0.7c0,4.4,1.2,16.7,6.6,20.6c8.2,5.9,12,36.5,12.9,44
			l11.1,21.7l14.3,8.7l109.9,0.3l23.3,10.9l5.7-5.7l1.8-16.7l9.3-2l4.8-3.4l12.1-13.8l22.8-5.9h8.5l0.6,0.3
			c0.6,0.3,15.9,8,21.6,11.9c5.8,3.1,12.5,6.5,18.5,9.2l28.1,9.4c11,3.7,34.2,15.1,38.4,17.2l11.7,0.1l17.3,3.9l26.3,9.9l7.8,10.9
			l-15.3,9.9l-9.5,1.7l-13.9,4h-12.8v-1.8l-0.5,1.5c-0.3-0.1-2.2-0.4-13.2-1.5c-16.7-1.6-60.8-12.3-65.4-13.4h-12.3l-12.5-8.3
			l-18.7-11.5l-13-4.6l-8.9,17.8l-12.6,4.2l-9.9,5.8h-33l-9.8,5.8l-13.2-3.3v36.7l-42-8.5l-24-4.4l-5.2-3.6l-4.7-1.4h-13.7l-3,4.4
			l-6.8,6.8h-21.2v64.6h14.9l9.6-9.3l10.6-4.4l27.4,11.4H759l5.9,5.9l5.7,1.8l5.7,4l6.9,5.2h-44.5c-3.8,2.7-8.7,3.5-13.5,2.1
			l-7.8-2.2l-29.5-12.9l-33.3,25.1l17.9,8l4.8,13.4l30.9-19.7l8.4-1.7h30l7.8-3.9l27,0.3c5,2.3,11,4,18.3,5.4l31.2,0l9-9l-5.3-6.4
			H828l-10.1-12.2l7.8-10.9l28.4,2.4l218.3,0l23.2,11.9l7.2,1.5h18.4l9.5,25.1h8.8l5.4-3.7l10.2-4.2l14.8,1.8l17.9,12.1l8,4.1
			L1207.1,1175.6z M687.1,1120.8l32.3,14.1l7.5,2.1c3.3,0.9,6.7,0.3,9.1-1.7l0.8-0.7h25.8l-0.5-0.2l-5.3-5.3l-40.1-0.2l-25.7-10.7
			l-7.8,3.2l-9.7,9.7L687.1,1120.8z M558.1,832.5C558.1,832.5,558.1,832.5,558.1,832.5C558.1,832.5,558.1,832.5,558.1,832.5z"/>
	</g>
</g>
<g id="AIGUILLES">
	<g id="CT_etoile">
		<polygon class="st2" points="955.9,559 1025.2,865.7 1331.8,934.4 1025.2,1003.6 955.9,1310.3 887.2,1003.6 580.5,934.4 
			887.2,865.7 		"/>
		<path d="M955.9,1333.1L883,1007.8l-325.3-73.5L883,861.5l72.9-325.3l73.5,325.3l325.3,72.9l-325.3,73.5L955.9,1333.1z
			 M603.3,934.4l288.1,65.1l64.5,288.1l65.1-288.1l288.1-65.1L1021,869.8l-65.1-288.1l-64.5,288.1L603.3,934.4z"/>
	</g>
</g>
<g id="AIGUILLES_1_">
	<g id="Ombre_etoile_1_">
		<polygon class="st3" points="1309.8,934.4 1306.5,933.8 956.5,933.8 956.5,617 955.9,582 891.2,869.7 604.5,934.4 891.2,999.6 
			955.9,1289.3 956.5,1288.7 956.5,1286.8 1021.2,999.6 		"/>
	</g>
</g>
<g id="BOUSSOLE">
	<g id="Boussole">
		<g>
			<path d="M960,1477.3c-303.2,0-549.8-246.7-549.8-549.9c0-303.2,246.7-549.8,549.8-549.8s549.9,246.7,549.9,549.8
				C1509.9,1230.7,1263.2,1477.3,960,1477.3z M960,419.4c-280.2,0-508.1,227.9-508.1,508.1s227.9,508.1,508.1,508.1
				s508.1-227.9,508.1-508.1S1240.2,419.4,960,419.4z"/>
		</g>
		<g>
			<path d="M960,1419.5c-271.3,0-492-220.7-492-492s220.7-492,492-492s492,220.7,492,492S1231.4,1419.5,960,1419.5z M960,447.6
				c-264.6,0-479.9,215.3-479.9,479.9c0,264.6,215.3,479.9,479.9,479.9c264.6,0,479.9-215.3,479.9-479.9
				C1440,662.9,1224.7,447.6,960,447.6z"/>
		</g>
		<path d="M1028.7,389.6v-69.8c0-39.7-31.8-71.5-71.5-71.5c-39.7,0-71.5,31.8-71.5,71.5l0,0V389h143V389.6z"/>
		<g>
			<path d="M958.9,357.9c-69.1,0-125.3-56.2-125.3-125.3c0-69.1,56.2-125.3,125.3-125.3c69.1,0,125.3,56.2,125.3,125.3
				C1084.2,301.7,1028,357.9,958.9,357.9z M958.9,131.1c-55.9,0-101.5,45.5-101.5,101.5c0,56,45.5,101.5,101.5,101.5
				c55.9,0,101.5-45.5,101.5-101.5C1060.4,176.6,1014.9,131.1,958.9,131.1z"/>
		</g>
		<path class="st2" d="M1005.3,383.4v-86.6c0-5-4.5-9.5-9.5-9.5c-5,0-9.5,4.5-9.5,9.5v82.7C993,380.6,999.1,381.7,1005.3,383.4z"/>
	</g>
</g>
<g id="GUINDY">
	<g id="Guindy">
		<path class="st4" d="M833,966.8c-11.7,3.9-24,6.1-36.3,6.1c-30.2,2.8-57.5-19.6-60.3-49.7c-0.6-3.4-0.6-6.7,0-9.5
			c0-35.2,24-60.9,63.7-60.9c10.1,0,20.1,1.7,29,5.6l-3.9,12.3c-8.4-3.4-17.3-5.6-25.7-5c-28.5,0-47.5,17.9-47.5,47.5
			c0,29.6,17.9,47.5,45.2,47.5c6.7,0.6,14-0.6,20.1-3.4v-35.2h-24v-12.3h38.5L833,966.8z"/>
		<path class="st4" d="M858.1,908.1v38c0,14.5,6.1,20.7,15.1,20.7c9.5,0,15.6-6.1,15.6-20.7v-38h8.4v37.4
			c0,19.6-10.6,27.9-24.6,27.9s-22.9-7.8-22.9-27.4v-38H858.1z"/>
		<path class="st4" d="M920.1,908.1v64.2h-8.4v-64.2H920.1z"/>
		<path class="st4" d="M934.7,972.3v-64.2h8.9l20.7,32.4c4.5,6.7,8.4,13.4,11.7,20.7l0,0c-0.6-8.4-1.1-16.2-1.1-26.3v-26.8h7.8v64.2
			h-8.4L953.7,940c-4.5-6.7-8.4-14-11.7-21.2h-0.6c0.6,7.8,0.6,15.6,0.6,26.3v27.4L934.7,972.3L934.7,972.3z"/>
		<path class="st4" d="M997.2,908.7c5.6-1.1,11.7-1.1,17.9-1.1c9.5-0.6,18.4,2.2,26.3,7.8c6.1,6.1,9.5,14.5,8.9,22.9
			c0.6,9.5-2.8,18.4-9.5,25.1c-7.8,6.7-17.9,10.1-28.5,8.9c-5,0-10.1,0-15.1-0.6V908.7z M1005.6,965.6c2.8,0.6,5.6,0.6,8.4,0.6
			c17.9,0,27.4-10.1,27.4-27.4c0-15.1-8.4-24.6-26.3-24.6c-3.4,0-6.7,0-9.5,0.6L1005.6,965.6L1005.6,965.6z"/>
		<path class="st0" d="M1073.2,972.3V945l-20.1-36.9h9.5l8.9,17.9c2.2,5,4.5,8.9,6.1,13.4l0,0c1.7-4.5,3.9-8.4,6.7-13.4l9.5-17.9
			h9.5l-21.8,36.9v27.4H1073.2z"/>
		<path class="st4" d="M825.2,853.4c9.5,4.5,17.3,10.1,24.6,17.9l-25.7,5"/>
	</g>
</g>
</svg>
