<svg width="70" height="70" viewBox="0 0 70 70" fill="none" xmlns="http://www.w3.org/2000/svg">
<path d="M59.0625 66.7188H6.5625V3.28125H54.6875C55.8478 3.28125 56.9606 3.74219 57.7811 4.56266C58.6016 5.38313 59.0625 6.49593 59.0625 7.65625V66.7188Z" fill="#FBE9D8"/>
<path d="M59.0625 7.65625V12.0312H52.5V6.5625C52.4998 5.69233 52.154 4.85785 51.5387 4.24255C50.9234 3.62724 50.0889 3.28147 49.2188 3.28125H54.6875C55.8478 3.28125 56.9606 3.74219 57.7811 4.56266C58.6016 5.38313 59.0625 6.49593 59.0625 7.65625Z" fill="#E3D3C2"/>
<path d="M13.125 20.7812H21.875V29.5312H13.125V20.7812Z" fill="#BFB1A3"/>
<path d="M13.125 36.0938H21.875V44.8438H13.125V36.0938Z" fill="#BFB1A3"/>
<path d="M13.125 51.4062H21.875V60.1562H13.125V51.4062Z" fill="#BFB1A3"/>
<path d="M41.5625 44.8438H63.4375V66.7188H41.5625V44.8438Z" fill="#AD6643"/>
<path d="M41.5625 44.8438H63.4375V49.2188H41.5625V44.8438Z" fill="#734B39"/>
<path d="M55.7812 57.9688L52.5 55.7812L49.2188 57.9688V44.8438H55.7812V57.9688Z" fill="#E3D3C2"/>
<path d="M10.9375 10.9375H21.875C22.1651 10.9375 22.4433 10.8223 22.6484 10.6171C22.8535 10.412 22.9688 10.1338 22.9688 9.84375C22.9688 9.55367 22.8535 9.27547 22.6484 9.07035C22.4433 8.86523 22.1651 8.75 21.875 8.75H10.9375C10.6474 8.75 10.3692 8.86523 10.1641 9.07035C9.95898 9.27547 9.84375 9.55367 9.84375 9.84375C9.84375 10.1338 9.95898 10.412 10.1641 10.6171C10.3692 10.8223 10.6474 10.9375 10.9375 10.9375Z" fill="black"/>
<path d="M29.5312 14.2188C29.5312 13.9287 29.416 13.6505 29.2109 13.4454C29.0058 13.2402 28.7276 13.125 28.4375 13.125H10.9375C10.6474 13.125 10.3692 13.2402 10.1641 13.4454C9.95898 13.6505 9.84375 13.9287 9.84375 14.2188C9.84375 14.5088 9.95898 14.787 10.1641 14.9921C10.3692 15.1973 10.6474 15.3125 10.9375 15.3125H28.4375C28.7276 15.3125 29.0058 15.1973 29.2109 14.9921C29.416 14.787 29.5312 14.5088 29.5312 14.2188Z" fill="black"/>
<path d="M21.875 19.6875H13.125C12.8349 19.6875 12.5567 19.8027 12.3516 20.0079C12.1465 20.213 12.0312 20.4912 12.0312 20.7812V29.5312C12.0312 29.8213 12.1465 30.0995 12.3516 30.3046C12.5567 30.5098 12.8349 30.625 13.125 30.625H21.875C22.1651 30.625 22.4433 30.5098 22.6484 30.3046C22.8535 30.0995 22.9688 29.8213 22.9688 29.5312V20.7812C22.9688 20.4912 22.8535 20.213 22.6484 20.0079C22.4433 19.8027 22.1651 19.6875 21.875 19.6875ZM19.2344 21.875L14.2188 26.8907V21.875H19.2344ZM15.7656 28.4375L20.7812 23.4218V28.4375H15.7656Z" fill="black"/>
<path d="M25.1562 20.7812C25.1562 21.0713 25.2715 21.3495 25.4766 21.5546C25.6817 21.7598 25.9599 21.875 26.25 21.875H52.5C52.7901 21.875 53.0683 21.7598 53.2734 21.5546C53.4785 21.3495 53.5938 21.0713 53.5938 20.7812C53.5938 20.4912 53.4785 20.213 53.2734 20.0079C53.0683 19.8027 52.7901 19.6875 52.5 19.6875H26.25C25.9599 19.6875 25.6817 19.8027 25.4766 20.0079C25.2715 20.213 25.1562 20.4912 25.1562 20.7812Z" fill="black"/>
<path d="M52.5 24.0625H26.25C25.9599 24.0625 25.6817 24.1777 25.4766 24.3829C25.2715 24.588 25.1562 24.8662 25.1562 25.1562C25.1562 25.4463 25.2715 25.7245 25.4766 25.9296C25.6817 26.1348 25.9599 26.25 26.25 26.25H52.5C52.7901 26.25 53.0683 26.1348 53.2734 25.9296C53.4785 25.7245 53.5938 25.4463 53.5938 25.1562C53.5938 24.8662 53.4785 24.588 53.2734 24.3829C53.0683 24.1777 52.7901 24.0625 52.5 24.0625Z" fill="black"/>
<path d="M26.25 30.625H41.5625C41.8526 30.625 42.1308 30.5098 42.3359 30.3046C42.541 30.0995 42.6562 29.8213 42.6562 29.5312C42.6562 29.2412 42.541 28.963 42.3359 28.7579C42.1308 28.5527 41.8526 28.4375 41.5625 28.4375H26.25C25.9599 28.4375 25.6817 28.5527 25.4766 28.7579C25.2715 28.963 25.1562 29.2412 25.1562 29.5312C25.1562 29.8213 25.2715 30.0995 25.4766 30.3046C25.6817 30.5098 25.9599 30.625 26.25 30.625Z" fill="black"/>
<path d="M21.875 35H13.125C12.8349 35 12.5567 35.1152 12.3516 35.3204C12.1465 35.5255 12.0312 35.8037 12.0312 36.0938V44.8438C12.0312 45.1338 12.1465 45.412 12.3516 45.6171C12.5567 45.8223 12.8349 45.9375 13.125 45.9375H21.875C22.1651 45.9375 22.4433 45.8223 22.6484 45.6171C22.8535 45.412 22.9688 45.1338 22.9688 44.8438V36.0938C22.9688 35.8037 22.8535 35.5255 22.6484 35.3204C22.4433 35.1152 22.1651 35 21.875 35ZM19.2344 37.1875L14.2188 42.2032V37.1875H19.2344ZM15.7656 43.75L20.7812 38.7343V43.75H15.7656Z" fill="black"/>
<path d="M52.5 35H26.25C25.9599 35 25.6817 35.1152 25.4766 35.3204C25.2715 35.5255 25.1562 35.8037 25.1562 36.0938C25.1562 36.3838 25.2715 36.662 25.4766 36.8671C25.6817 37.0723 25.9599 37.1875 26.25 37.1875H52.5C52.7901 37.1875 53.0683 37.0723 53.2734 36.8671C53.4785 36.662 53.5938 36.3838 53.5938 36.0938C53.5938 35.8037 53.4785 35.5255 53.2734 35.3204C53.0683 35.1152 52.7901 35 52.5 35Z" fill="black"/>
<path d="M52.5 39.375H26.25C25.9599 39.375 25.6817 39.4902 25.4766 39.6954C25.2715 39.9005 25.1562 40.1787 25.1562 40.4688C25.1562 40.7588 25.2715 41.037 25.4766 41.2421C25.6817 41.4473 25.9599 41.5625 26.25 41.5625H52.5C52.7901 41.5625 53.0683 41.4473 53.2734 41.2421C53.4785 41.037 53.5938 40.7588 53.5938 40.4688C53.5938 40.1787 53.4785 39.9005 53.2734 39.6954C53.0683 39.4902 52.7901 39.375 52.5 39.375Z" fill="black"/>
<path d="M26.25 45.9375H35C35.2901 45.9375 35.5683 45.8223 35.7734 45.6171C35.9785 45.412 36.0938 45.1338 36.0938 44.8438C36.0938 44.5537 35.9785 44.2755 35.7734 44.0704C35.5683 43.8652 35.2901 43.75 35 43.75H26.25C25.9599 43.75 25.6817 43.8652 25.4766 44.0704C25.2715 44.2755 25.1562 44.5537 25.1562 44.8438C25.1562 45.1338 25.2715 45.412 25.4766 45.6171C25.6817 45.8223 25.9599 45.9375 26.25 45.9375Z" fill="black"/>
<path d="M21.875 50.3125H13.125C12.8349 50.3125 12.5567 50.4277 12.3516 50.6329C12.1465 50.838 12.0312 51.1162 12.0312 51.4062V60.1562C12.0312 60.4463 12.1465 60.7245 12.3516 60.9296C12.5567 61.1348 12.8349 61.25 13.125 61.25H21.875C22.1651 61.25 22.4433 61.1348 22.6484 60.9296C22.8535 60.7245 22.9688 60.4463 22.9688 60.1562V51.4062C22.9688 51.1162 22.8535 50.838 22.6484 50.6329C22.4433 50.4277 22.1651 50.3125 21.875 50.3125ZM20.7812 59.0625H14.2188V52.5H20.7812V59.0625Z" fill="black"/>
<path d="M26.25 52.5H37.1875C37.4776 52.5 37.7558 52.3848 37.9609 52.1796C38.166 51.9745 38.2812 51.6963 38.2812 51.4062C38.2812 51.1162 38.166 50.838 37.9609 50.6329C37.7558 50.4277 37.4776 50.3125 37.1875 50.3125H26.25C25.9599 50.3125 25.6817 50.4277 25.4766 50.6329C25.2715 50.838 25.1562 51.1162 25.1562 51.4062C25.1562 51.6963 25.2715 51.9745 25.4766 52.1796C25.6817 52.3848 25.9599 52.5 26.25 52.5Z" fill="black"/>
<path d="M37.1875 54.6875H26.25C25.9599 54.6875 25.6817 54.8027 25.4766 55.0079C25.2715 55.213 25.1562 55.4912 25.1562 55.7812C25.1562 56.0713 25.2715 56.3495 25.4766 56.5546C25.6817 56.7598 25.9599 56.875 26.25 56.875H37.1875C37.4776 56.875 37.7558 56.7598 37.9609 56.5546C38.166 56.3495 38.2812 56.0713 38.2812 55.7812C38.2812 55.4912 38.166 55.213 37.9609 55.0079C37.7558 54.8027 37.4776 54.6875 37.1875 54.6875Z" fill="black"/>
<path d="M37.1875 59.0625H26.25C25.9599 59.0625 25.6817 59.1777 25.4766 59.3829C25.2715 59.588 25.1562 59.8662 25.1562 60.1562C25.1562 60.4463 25.2715 60.7245 25.4766 60.9296C25.6817 61.1348 25.9599 61.25 26.25 61.25H37.1875C37.4776 61.25 37.7558 61.1348 37.9609 60.9296C38.166 60.7245 38.2812 60.4463 38.2812 60.1562C38.2812 59.8662 38.166 59.588 37.9609 59.3829C37.7558 59.1777 37.4776 59.0625 37.1875 59.0625Z" fill="black"/>
<path d="M63.4375 43.75H60.1562V7.65625C60.1546 6.20635 59.5779 4.8163 58.5527 3.79106C57.5275 2.76582 56.1374 2.18913 54.6875 2.1875H6.5625C6.27242 2.1875 5.99422 2.30273 5.7891 2.50785C5.58398 2.71297 5.46875 2.99117 5.46875 3.28125V66.7188C5.46875 67.0088 5.58398 67.287 5.7891 67.4921C5.99422 67.6973 6.27242 67.8125 6.5625 67.8125H63.4375C63.7276 67.8125 64.0058 67.6973 64.2109 67.4921C64.416 67.287 64.5312 67.0088 64.5312 66.7188V44.8438C64.5312 44.5537 64.416 44.2755 64.2109 44.0704C64.0058 43.8652 63.7276 43.75 63.4375 43.75ZM62.3438 48.125H56.875V45.9375H62.3438V48.125ZM48.125 48.125H42.6562V45.9375H48.125V48.125ZM50.3125 45.9375H54.6875V55.9251L53.1068 54.8713C52.9271 54.7514 52.716 54.6875 52.5 54.6875C52.284 54.6875 52.0729 54.7514 51.8932 54.8713L50.3125 55.9251V45.9375ZM57.9688 7.65625V10.9375H53.5938V6.5625C53.5945 5.7942 53.3917 5.03941 53.0059 4.375H54.6875C55.5574 4.37601 56.3914 4.72204 57.0066 5.33717C57.6217 5.95231 57.9677 6.78632 57.9688 7.65625ZM7.65625 4.375H49.2188C49.7987 4.37569 50.3547 4.60638 50.7648 5.01646C51.1749 5.42655 51.4056 5.98255 51.4062 6.5625V12.0312C51.4062 12.3213 51.5215 12.5995 51.7266 12.8046C51.9317 13.0098 52.2099 13.125 52.5 13.125H57.9688V43.75H41.5625C41.2724 43.75 40.9942 43.8652 40.7891 44.0704C40.584 44.2755 40.4688 44.5537 40.4688 44.8438V65.625H7.65625V4.375ZM42.6562 65.625V50.3125H48.125V57.9688C48.125 58.1667 48.1787 58.361 48.2805 58.5308C48.3822 58.7006 48.5281 58.8397 48.7027 58.9331C48.8772 59.0265 49.0739 59.0708 49.2716 59.0612C49.4694 59.0516 49.6608 58.9886 49.8255 58.8787L52.5 57.0958L55.1745 58.8787C55.3392 58.9886 55.5306 59.0516 55.7284 59.0612C55.9261 59.0708 56.1228 59.0265 56.2973 58.9331C56.4719 58.8397 56.6178 58.7006 56.7195 58.5308C56.8213 58.361 56.875 58.1667 56.875 57.9688V50.3125H62.3438V65.625H42.6562Z" fill="black"/>
<path d="M54.6875 61.25H50.3125C50.0224 61.25 49.7442 61.3652 49.5391 61.5704C49.334 61.7755 49.2188 62.0537 49.2188 62.3438C49.2188 62.6338 49.334 62.912 49.5391 63.1171C49.7442 63.3223 50.0224 63.4375 50.3125 63.4375H54.6875C54.9776 63.4375 55.2558 63.3223 55.4609 63.1171C55.666 62.912 55.7812 62.6338 55.7812 62.3438C55.7812 62.0537 55.666 61.7755 55.4609 61.5704C55.2558 61.3652 54.9776 61.25 54.6875 61.25Z" fill="black"/>
</svg>
