<svg width="80" height="80" viewBox="0 0 80 80" fill="none" xmlns="http://www.w3.org/2000/svg">
<path d="M44.8724 66.1778C43.8132 69.6445 41.7317 72.2074 38.4428 73.6889C35.9613 74.8074 33.3761 74.9926 30.7465 74.2593C25.3317 72.7407 21.9687 67.837 22.4428 62.0667C22.8502 57.0963 27.0354 52.0593 33.5909 51.7926C33.6058 51.5185 33.6354 51.2296 33.6354 50.9482C33.628 47.4074 33.6428 43.8593 33.5835 40.3185C33.5687 39.2519 33.8798 38.6444 34.8872 38.1185C40.7465 35.0667 46.5613 31.9259 52.3909 28.8148C53.3539 28.3037 54.3317 27.8296 55.265 27.2667C55.9687 26.8444 56.5687 26.8889 57.2724 27.2741C63.4058 30.6519 69.5613 34 75.7095 37.3556C76.5317 37.8074 77.3539 38.2593 78.1909 38.7037C78.7465 39 79.0058 39.4222 79.0058 40.0741C78.9909 46.7926 78.9909 53.5111 79.0058 60.2222C79.0058 60.8741 78.7613 61.2815 78.1909 61.5852C71.1539 65.3259 64.1243 69.0741 57.0946 72.8296C56.4502 73.1704 55.9021 73.1185 55.2946 72.7259C52.0428 70.6445 48.7687 68.5926 45.5021 66.5333C45.3169 66.4222 45.1243 66.3259 44.8724 66.1778ZM57.4354 69.8963C57.7317 69.7556 57.9095 69.6815 58.0798 69.5926C64.0428 66.4222 69.9984 63.237 75.9687 60.0815C76.4724 59.8148 76.665 59.5333 76.665 58.9482C76.6428 53.5482 76.6502 48.1482 76.6502 42.7407C76.6502 42.5037 76.628 42.2667 76.6132 41.9111C75.0872 42.7407 73.6724 43.5333 72.228 44.2815C71.7465 44.5259 71.5539 44.8222 71.5687 45.3778C71.6058 47.163 71.5761 48.9482 71.5835 50.7259C71.5835 51.3259 71.4798 51.8519 70.8872 52.1704C69.1909 53.0963 67.5169 54.0519 65.8132 54.9556C64.8872 55.4445 64.0576 54.9408 63.9687 53.9037C63.9465 53.6296 63.9613 53.3556 63.9613 53.0889C63.9613 51.7111 63.9613 50.3333 63.9613 48.8593C63.6872 48.9852 63.5095 49.0593 63.3465 49.1482C61.5835 50.1037 59.8354 51.0889 58.0576 52.0148C57.5613 52.2741 57.4206 52.5778 57.428 53.1111C57.4502 58.437 57.4428 63.763 57.4428 69.0889C57.4354 69.3185 57.4354 69.5407 57.4354 69.8963ZM55.0206 69.7185C55.0428 69.4593 55.0576 69.3408 55.0576 69.2222C55.0576 63.7704 55.0502 58.3185 55.0724 52.8667C55.0724 52.363 54.8058 52.1926 54.4428 51.9926C48.7095 48.7556 42.9835 45.5037 37.2576 42.2593C36.9095 42.0593 36.5317 41.9111 36.065 41.6815C36.065 45.2148 36.065 48.5926 36.065 52.0074C36.3095 52.0741 36.5539 52.1259 36.7835 52.2C41.2724 53.5852 44.0428 56.563 45.028 61.163C45.1984 61.9704 45.0206 62.963 45.4354 63.5778C45.8798 64.237 46.8354 64.5556 47.5613 65.0148C50.0132 66.563 52.465 68.1037 55.0206 69.7185ZM24.7687 63.1852C24.7539 68.2148 28.7835 72.2815 33.7909 72.2889C38.7687 72.2963 42.8206 68.2815 42.8576 63.2963C42.8946 58.3259 38.7909 54.1778 33.8206 54.1704C28.8724 54.163 24.7835 58.237 24.7687 63.1852ZM62.6428 46.8C62.2428 46.5704 61.9465 46.4 61.6502 46.2444C59.2502 44.9556 56.8502 43.6815 54.4576 42.3778C50.9169 40.4519 47.3909 38.5037 43.8428 36.6074C43.5835 36.4667 43.1243 36.4963 42.8428 36.6296C41.665 37.2 40.5169 37.8444 39.3613 38.4667C38.7243 38.8074 38.0872 39.163 37.3539 39.563C38.9613 40.4815 40.4724 41.3482 41.9909 42.2074C46.2724 44.637 50.5761 47.0296 54.8354 49.5111C55.8576 50.1037 56.6354 50.2445 57.6872 49.5556C59.2354 48.5482 60.9169 47.7482 62.6428 46.8ZM51.3243 32.0963C51.6354 32.2815 51.828 32.4148 52.0354 32.5259C55.8798 34.6148 59.7317 36.7037 63.5687 38.8C65.6724 39.9482 67.7687 41.1259 69.8724 42.2741C70.0872 42.3926 70.428 42.5111 70.6058 42.4222C72.1539 41.6222 73.6798 40.7704 75.2206 39.9333C75.1465 39.8296 75.1317 39.7778 75.0947 39.7556C68.9317 36.3852 62.7613 33.0074 56.5909 29.6444C56.4428 29.563 56.1835 29.5037 56.0502 29.5778C54.5021 30.3852 52.9687 31.2148 51.3243 32.0963ZM45.9391 34.963C46.1687 35.1037 46.265 35.1778 46.3761 35.2296C50.1317 37.2667 53.8872 39.3111 57.6428 41.3482C60.265 42.7778 62.8872 44.2074 65.5243 45.6222C66.0872 45.9259 66.3613 46.3333 66.3465 46.9852C66.3169 48.4222 66.3391 49.8593 66.3391 51.2963C66.3391 51.4741 66.3761 51.6593 66.3984 51.9111C67.2132 51.4667 67.9317 51.0445 68.6798 50.6667C69.065 50.4741 69.2058 50.2296 69.1984 49.8C69.1761 48.3111 69.1687 46.8296 69.1984 45.3407C69.2132 44.8222 69.0428 44.5482 68.5835 44.3037C65.3391 42.563 62.1021 40.8074 58.8724 39.037C55.6872 37.2889 52.5095 35.5259 49.3169 33.7778C49.0872 33.6519 48.7243 33.5185 48.5243 33.6074C47.6872 33.9926 46.8724 34.4593 45.9391 34.963Z" fill="white"/>
<path d="M3.41441 76.6C21.1477 76.6 38.8589 76.6 56.6589 76.6C56.6589 76.1703 56.644 75.7777 56.6589 75.3926C56.6959 74.6815 57.1626 74.2148 57.8292 74.2074C58.4885 74.2 58.9922 74.6592 59.0218 75.3703C59.0589 76.1852 59.0589 77.0074 59.0218 77.8222C58.9922 78.5555 58.5774 78.9481 57.8514 79C57.607 79.0148 57.3551 79.0074 57.1107 79.0074C38.9922 79.0074 20.8663 79.0074 2.74774 79.0074C1.23663 79.0074 0.992188 78.7629 0.992188 77.237C0.992188 56.5407 0.992188 35.837 0.992188 15.1407C0.992188 13.6815 1.26626 13.4074 2.71811 13.4074C7.007 13.4074 11.2959 13.4 15.5848 13.4222C16.1255 13.4222 16.4144 13.2518 16.7033 12.7926C17.7922 11.0222 19.3107 9.68889 21.17 8.76296C21.5774 8.56296 21.7477 8.3037 21.8144 7.87407C22.4366 3.92593 25.6514 1.08889 29.5774 1C33.9033 0.896297 37.3329 3.42963 38.0959 7.42222C38.2514 8.22963 38.57 8.63703 39.2514 9C40.9477 9.89629 42.3181 11.1852 43.2959 12.8444C43.5551 13.2889 43.8663 13.4296 44.3626 13.4222C48.7255 13.4 53.0885 13.4074 57.4514 13.4148C58.6292 13.4148 59.0292 13.8074 59.0292 14.9556C59.0366 17.8296 59.0292 20.7037 59.0292 23.5852C59.0292 23.7111 59.0366 23.837 59.0218 23.9555C58.9626 24.6815 58.5107 25.1259 57.844 25.1333C57.1329 25.1333 56.6589 24.6815 56.6514 23.9037C56.6366 21.5259 56.644 19.1407 56.644 16.763C56.644 16.4667 56.644 16.1704 56.644 15.8148C52.644 15.8148 48.6959 15.8148 44.6885 15.8148C44.8292 16.6444 44.9922 17.4815 45.0959 18.3259C45.1774 18.9852 45.1996 19.6593 45.1922 20.3259C45.1848 20.9926 44.7996 21.363 44.1255 21.4222C43.9552 21.437 43.7774 21.4296 43.607 21.4296C34.5329 21.4296 25.4589 21.4296 16.3848 21.4296C15.0514 21.4296 14.607 20.9555 14.7477 19.6074C14.8811 18.3556 15.0514 17.1111 15.2144 15.8148C11.3255 15.8148 7.39959 15.8148 3.3996 15.8148C3.41441 36.0518 3.41441 56.3037 3.41441 76.6ZM42.8218 19.0222C42.4737 15.0444 40.7181 12.1259 37.044 10.5481C36.2292 10.2 35.8885 9.72592 35.8737 8.81481C35.8366 5.71111 33.17 3.2963 29.9329 3.33333C26.6737 3.37778 24.1107 5.82222 24.1107 8.94074C24.1107 9.77037 23.7403 10.1556 23.0514 10.5185C22.0292 11.0518 20.9848 11.6222 20.1255 12.3778C18.17 14.1037 17.3848 16.4074 17.1922 19.0148C25.7626 19.0222 34.244 19.0222 42.8218 19.0222Z" fill="white"/>
<path d="M18.2974 64.5185C18.2974 65.8815 18.3048 67.2445 18.2974 68.6074C18.29 69.5556 17.89 69.963 16.9345 69.963C14.3789 69.9778 11.8308 69.9778 9.2752 69.963C8.33446 69.9556 7.89002 69.5333 7.89002 68.6074C7.8752 65.8593 7.8752 63.1037 7.89002 60.3556C7.89742 59.4148 8.32705 59.0148 9.2752 59.0148C11.8308 59.0074 14.3789 59.0074 16.9345 59.0148C17.8974 59.0148 18.29 59.4074 18.2974 60.3556C18.3048 61.7408 18.2974 63.1259 18.2974 64.5185ZM15.853 67.5556C15.853 65.4741 15.853 63.4371 15.853 61.4222C13.9715 61.4222 12.1493 61.4222 10.3196 61.4222C10.3196 63.4963 10.3196 65.5111 10.3196 67.5556C12.2011 67.5556 14.0234 67.5556 15.853 67.5556Z" fill="white"/>
<path d="M18.2976 32.8074C18.2976 34.1185 18.2976 35.437 18.2976 36.7481C18.2976 37.9259 17.8458 38.2889 16.668 38.2741C14.3124 38.2444 11.9569 38.2815 9.60133 38.2815C8.23096 38.2815 7.88281 37.9333 7.88281 36.5704C7.88281 34.0148 7.88281 31.4667 7.88281 28.9111C7.88281 27.6741 8.24578 27.3111 9.47541 27.3111C11.9273 27.3037 14.3865 27.3037 16.8384 27.3111C17.9347 27.3111 18.2902 27.6815 18.2976 28.7926C18.305 30.1259 18.2976 31.4667 18.2976 32.8074ZM15.8828 29.7259C13.9791 29.7259 12.1643 29.7259 10.3124 29.7259C10.3124 31.7926 10.3124 33.8074 10.3124 35.837C12.2013 35.837 14.0384 35.837 15.8828 35.837C15.8828 33.7704 15.8828 31.7778 15.8828 29.7259Z" fill="white"/>
<path d="M18.2956 48.7185C18.2956 50.1037 18.303 51.4889 18.2882 52.8741C18.2808 53.7407 17.8808 54.1556 17.0215 54.1556C14.3993 54.1704 11.7771 54.1704 9.15483 54.1556C8.34742 54.1481 7.90298 53.7333 7.89557 52.9111C7.87335 50.0889 7.87335 47.2667 7.89557 44.4445C7.90298 43.6371 8.36224 43.2222 9.16965 43.2148C11.74 43.1852 14.3104 43.163 16.8882 43.1556C17.8585 43.1556 18.2956 43.6 18.303 44.5556C18.303 45.9482 18.2956 47.3333 18.2956 48.7185ZM10.3104 45.5778C10.3104 47.6741 10.3104 49.6889 10.3104 51.7259C12.1919 51.7259 14.0289 51.7259 15.8734 51.7259C15.8734 49.6519 15.8734 47.6371 15.8734 45.5778C14.0067 45.5778 12.1919 45.5778 10.3104 45.5778Z" fill="white"/>
<path d="M30.1041 31.6148C32.8301 31.6148 35.556 31.6148 38.2819 31.6148C38.8079 31.6148 39.2671 31.7037 39.5486 32.2074C39.919 32.8593 39.6227 33.6667 38.9042 33.8963C38.6523 33.9778 38.3708 34 38.1042 34C32.756 34.0074 27.4004 34.0074 22.0523 34.0074C21.0893 34.0074 20.5856 33.6519 20.5041 32.9704C20.4078 32.1333 20.8967 31.637 21.8597 31.6296C24.6078 31.6148 27.356 31.6148 30.1041 31.6148Z" fill="white"/>
<path d="M26.5341 47.5111C28.0452 47.5111 29.5563 47.5037 31.0674 47.5111C32.0081 47.5185 32.5341 47.9703 32.5118 48.7259C32.4896 49.4518 31.9785 49.8815 31.0748 49.8815C27.9785 49.8889 24.8822 49.8889 21.7859 49.8815C20.897 49.8815 20.3785 49.4222 20.3711 48.7037C20.3711 47.9852 20.8896 47.5259 21.7711 47.5185C23.3637 47.5037 24.9489 47.5111 26.5341 47.5111Z" fill="white"/>
<path d="M31.4802 65.6519C33.5839 63.7111 35.6802 61.7852 37.7691 59.8593C38.0802 59.5778 38.3839 59.2815 38.7098 59.0148C39.2654 58.5704 39.9543 58.6 40.3839 59.0519C40.858 59.5482 40.8432 60.2371 40.2802 60.7704C38.4728 62.4667 36.6506 64.1408 34.8357 65.8222C33.9617 66.6296 33.0876 67.4371 32.2135 68.2371C31.4209 68.9556 30.7246 68.8815 30.1024 68C29.1468 66.6445 28.1913 65.2889 27.2431 63.926C26.7394 63.1926 26.8061 62.5185 27.4061 62.0963C28.0061 61.6667 28.6654 61.8222 29.1839 62.5408C29.9098 63.5408 30.6209 64.5556 31.3394 65.563C31.3468 65.5852 31.3765 65.5926 31.4802 65.6519Z" fill="white"/>
<path d="M25.4141 10.1481C25.4215 7.62222 27.4659 5.59259 29.9993 5.59259C32.5252 5.6 34.5919 7.63704 34.6141 10.1556C34.6363 12.6741 32.5252 14.8 29.9993 14.8C27.4437 14.8 25.4067 12.7333 25.4141 10.1481ZM27.7845 10.2222C27.7993 11.4074 28.8659 12.4518 30.0363 12.4222C31.2215 12.3926 32.2511 11.3333 32.2363 10.1556C32.2215 8.97037 31.1622 7.95555 29.9696 7.97037C28.7622 7.98518 27.7696 9.01481 27.7845 10.2222Z" fill="white"/>
</svg>
