<svg width="114" height="74" viewBox="0 0 114 74" fill="none" xmlns="http://www.w3.org/2000/svg">
<path d="M79.4654 39.068C78.1285 39.068 77.1001 39.068 76.0717 39.068C72.0867 39.0422 68.1017 38.9905 64.1167 38.9646C60.6716 38.9388 60.4402 36.9225 61.3143 34.1048C61.4429 33.6653 61.7257 33.2775 62.0085 32.7605C61.1086 32.6571 60.8258 32.3211 61.1601 31.3646C62.6769 26.815 64.0138 22.1878 65.6078 17.6639C66.1735 16.0871 67.1504 14.6136 68.076 13.1918C68.4359 12.6231 69.1815 12.0803 69.8243 11.9769C71.0326 11.7959 71.3926 10.7878 72.0096 10.0639C72.2153 9.80544 72.1639 9.15918 72.0096 8.79728C71.1098 6.5483 71.6754 4.17007 73.5522 2.33469C75.4547 0.499318 78.3085 -0.198641 80.2624 0.861223C81.008 1.27483 81.8822 1.97279 82.0878 2.6966C82.4992 4.04082 83.1934 4.94558 84.556 5.33333C84.5303 5.43673 84.5303 5.54013 84.5046 5.66939C83.2962 5.85034 82.0878 6.03129 80.6738 6.23809C80.8281 7.03945 80.9823 7.84082 81.1623 8.71973C79.0798 8.79728 79.5169 10.7878 78.7713 12.0286C78 11.8476 77.2287 11.6408 76.226 11.4082C76.3288 11.8735 76.3288 12.4422 76.5088 12.5197C77.6143 12.985 77.7429 13.9156 77.64 14.8721C77.3829 17.9483 77.0487 21.0245 76.7402 24.1007C76.7145 24.3075 76.6888 24.5143 76.6631 24.8503C79.0541 25.6775 81.4194 26.4789 83.7847 27.332C84.2732 27.5129 84.6845 27.8748 85.3787 28.3143C85.533 28.185 85.9186 27.8748 86.2785 27.5646C87.4098 26.5565 88.6695 25.8844 90.2378 26.0136C91.3177 26.0912 92.1147 27.1769 91.7804 28.2109C91.6776 28.5728 91.3177 28.9347 90.9577 29.0898C90.7263 29.1932 90.2121 28.9864 90.0322 28.7537C89.338 27.8748 88.7467 28.366 88.3867 28.9605C87.3583 30.6667 85.9186 30.7701 84.0675 30.9252C80.0311 31.2612 76.843 28.7796 73.038 28.366C73.038 26.3497 73.038 24.4884 73.038 22.6531C72.9866 22.6531 72.9094 22.6531 72.858 22.6531C72.7038 24.5401 72.5752 26.4272 72.421 28.366C72.858 28.5986 73.218 28.7796 73.7064 29.0639C73.2694 30.1497 72.8066 31.2354 72.3181 32.4503C75.5061 33.0707 78.6684 33.6653 81.8564 34.2857C82.602 34.4408 83.3733 34.5701 84.1189 34.7252C86.15 35.1646 86.4585 35.6816 85.6615 37.6721C83.7333 42.532 81.805 47.4177 79.8768 52.2776C79.1055 54.2422 78.3599 56.2068 77.5372 58.1456C77.3315 58.6109 76.9459 58.9986 76.5088 59.619C77.4858 59.8776 78.5913 60.1619 79.6711 60.3946C80.4681 60.5755 81.6765 60.3687 81.6251 61.532C81.5736 62.6694 80.4424 62.9279 79.4912 62.9537C77.1773 63.0054 74.8634 62.9537 72.5495 62.9537C71.9068 62.9537 71.264 62.9279 70.6213 62.902C69.7728 62.8762 69.5672 62.4367 69.6957 61.6095C70.0814 59.283 70.7241 57.1116 71.8039 54.9918C74.2206 50.2612 76.4831 45.4272 78.8227 40.6449C79.0284 40.2054 79.1826 39.7918 79.4654 39.068Z" fill="white"/>
<path d="M0.898438 64.7633C9.92258 64.2463 18.921 63.7034 27.9452 63.1864C28.1251 63.1864 28.2794 63.1606 28.4594 63.1606C30.6447 62.9796 30.6447 62.9796 30.9789 60.6272C22.4433 60.6272 13.9333 60.6272 5.42337 60.6272C5.42337 60.5497 5.42337 60.4721 5.42337 60.4204C9.33126 60.0585 13.2134 59.7225 17.1213 59.3606C21.9034 58.9211 26.6854 58.5333 31.4417 58.0163C31.9302 57.9646 32.3415 57.1374 32.8043 56.6721C32.7272 56.5429 32.6501 56.4395 32.5729 56.3102C25.6313 56.3102 18.6896 56.3102 11.748 56.3102C11.748 56.2327 11.748 56.1551 11.748 56.0776C15.7844 55.7157 19.8209 55.3279 23.883 54.966C26.9425 54.6816 30.0277 54.5007 33.0871 54.0871C33.7556 54.0095 34.3212 53.1565 34.9382 52.6653C34.8611 52.5102 34.784 52.381 34.7326 52.2259C29.2564 52.2259 23.7545 52.2259 18.2783 52.2259C18.2783 52.1225 18.2783 52.0449 18.2783 51.9415C21.2349 51.6572 24.1658 51.3728 27.1225 51.0884C30.0277 50.8041 32.9072 50.5714 35.8124 50.2354C36.2752 50.1837 36.6865 49.7442 37.1236 49.4857C37.0979 49.3565 37.0464 49.2531 37.0207 49.1238C32.8043 49.1238 28.6136 49.1238 24.3972 49.1238C24.3972 49.0204 24.3972 48.9429 24.3972 48.8395C26.1198 48.6585 27.868 48.4259 29.5906 48.2966C34.8868 47.883 40.1573 47.4435 45.4793 47.1592C49.3357 46.9524 53.1922 47.0558 56.9201 48.2449C60.4167 49.3565 62.2164 51.3728 62.2164 54.3714C62.2164 56.7238 61.3165 58.8435 59.8253 60.6272C59.0026 61.6095 58.0257 62.4626 57.0744 63.3415C55.7632 64.5306 54.2206 64.9959 52.3952 64.9959C35.2468 64.9442 18.124 64.9701 0.975567 64.9701C0.924147 64.8667 0.924147 64.815 0.898438 64.7633Z" fill="white"/>
<path d="M56.3823 64.8925C57.9506 63.2122 59.6989 61.7646 60.9073 59.9293C61.8842 58.4558 62.527 56.5687 62.7327 54.8109C63.0926 51.5279 61.6014 49.4857 58.5677 48.1673C55.4054 46.7973 52.0374 46.5129 48.6437 46.4354C45.7899 46.3578 42.9361 46.4095 39.9023 46.4095C41.8563 44.8326 43.8359 43.385 46.4069 43.3075C50.8547 43.2041 55.3282 43.2816 59.776 43.2816C60.0845 43.2816 60.4188 43.3592 60.6759 43.2558C63.2211 42.2735 65.8178 43.1265 68.3888 42.9714C70.0085 42.868 71.6283 42.9456 73.3251 42.9456C73.3508 44.4449 72.9137 45.5048 71.7568 46.332C68.9801 48.3224 66.7948 50.7265 66.5377 54.3714C66.4092 56.2068 66.7691 57.8612 68.5174 58.9469C69.1858 59.3605 69.5715 60.0326 69.263 61.015C68.6716 62.9796 69.0316 63.3932 71.0369 63.419C73.6593 63.4449 76.256 63.4966 78.8784 63.4966C79.4697 63.4966 80.0868 63.3932 80.6267 63.2122C81.578 62.902 82.4778 62.3075 82.2721 61.2218C82.1436 60.5755 81.3209 60.0585 80.8581 59.5156C83.4034 59.0762 85.7687 57.6803 87.8769 55.6381C91.5534 52.0707 92.8131 47.702 92.2989 42.7129C91.8362 38.1633 90.6535 33.7946 88.9052 29.5809C88.8538 29.4775 88.8538 29.3224 88.9052 29.2449C88.9567 29.1415 89.0852 29.0639 89.2395 28.9088C89.9851 29.917 90.8592 30.0463 91.8105 29.219C92.8131 28.366 92.7874 27.3837 91.6819 25.5224C93.1988 24.0231 94.9985 23.1701 97.1581 23.0925C98.0065 23.0667 98.4179 23.4286 98.5207 24.2558C98.7521 25.9619 98.2636 27.4095 97.0038 28.5728C96.6953 28.8571 96.2068 29.0122 95.7698 29.0898C95.307 29.1673 94.8185 29.0898 94.3557 29.1156C93.0445 29.2449 92.8388 29.5809 93.3016 30.8476C95.2556 36.3279 97.2352 41.834 99.1635 47.3401C99.3691 47.9347 99.4977 48.5809 99.5234 49.2014C99.5748 49.951 99.2149 50.468 98.4436 50.7265C93.5587 52.381 90.3193 55.8707 87.774 60.2653C86.1543 63.0313 83.9175 65.0218 80.2668 64.9442C72.6567 64.815 65.0208 64.8925 57.385 64.8925C57.0251 64.9442 56.6394 64.8925 56.3823 64.8925Z" fill="white"/>
<path d="M48.7454 42.7129C46.1744 42.7129 43.6034 42.7129 41.0324 42.7129C39.567 42.7129 39.387 42.4803 39.7212 41.0326C40.6468 36.7673 41.598 32.4762 42.5236 28.2109C42.7293 27.2803 43.192 26.815 44.1947 26.815C49.4909 26.8408 54.8129 26.8408 60.1348 26.815C61.2403 26.815 61.4717 27.3061 61.266 28.2626C60.3148 32.6571 59.3378 37.0517 58.3865 41.4721C58.1809 42.4803 57.5381 42.7388 56.6126 42.7388C53.9644 42.6871 51.342 42.7129 48.7454 42.7129Z" fill="white"/>
<path d="M110.114 63.083C110.114 67.8136 105.923 72.415 100.858 73.2939C97.6703 73.8367 94.8936 73.2422 92.8625 70.5537C90.9086 67.9429 91.32 63.2898 93.6338 60.9891C93.8395 60.7823 94.1223 60.6272 94.3794 60.5238C98.3387 58.8177 102.427 57.732 106.746 57.6027C107.157 57.5769 107.671 57.8095 107.98 58.068C109.394 59.2571 110.114 60.9891 110.114 63.083ZM100.087 68.6408C102.658 68.6408 104.998 66.4177 104.972 64.0136C104.946 62.2558 103.584 60.9374 101.732 60.9374C99.2643 60.9116 96.7704 63.2381 96.7447 65.5646C96.6933 67.4 98.0816 68.6408 100.087 68.6408Z" fill="white"/>
<path d="M113.868 57.1891C104.484 55.9483 95.9484 58.5333 87.5156 63.0571C87.6699 62.3333 87.6699 62.0748 87.7727 61.868C90.5494 55.7932 94.7658 51.4245 101.682 50.7007C106.387 50.2095 110.423 51.8639 113.354 55.7673C113.585 56.0775 113.74 56.4136 113.92 56.7238C113.92 56.8789 113.894 57.034 113.868 57.1891Z" fill="white"/>
<path d="M52.4481 65.5388C50.8026 70.8898 44.9151 74.4055 39.696 73.268C36.0966 72.4925 33.6542 68.8476 34.5797 65.5905C36.148 65.5905 37.7163 65.5905 39.3875 65.5905C39.696 67.2191 40.493 68.4599 42.2927 68.6408C44.3495 68.8476 45.8921 67.917 47.1004 66.2626C47.3318 65.9524 47.7689 65.6163 48.1545 65.5905C49.5171 65.4871 50.9312 65.5388 52.4481 65.5388Z" fill="white"/>
<path d="M75.6637 39.766C75.5352 41.8082 75.021 42.2993 73.067 42.2993C71.5244 42.2993 69.9818 42.2218 68.4393 42.3252C65.8426 42.4803 63.3487 42.0408 60.8806 41.2653C60.2892 41.0844 59.6465 40.9292 60.0064 40.2313C60.2378 39.7401 60.9577 39.0163 61.2919 39.0939C65.9968 40.3347 70.8046 39.2748 75.6637 39.766Z" fill="white"/>
<path d="M45.608 65.6163C44.8624 66.6503 44.0139 67.219 42.9341 67.0381C42.2914 66.9347 41.7515 66.366 41.1602 66.0041C41.2373 65.8748 41.2887 65.7456 41.3658 65.6163C42.7027 65.6163 44.0397 65.6163 45.608 65.6163Z" fill="white"/>
<path d="M101.37 62.6177C102.527 62.6177 103.247 63.3157 103.247 64.4272C103.247 65.7714 101.859 67.064 100.444 67.064C99.2618 67.0898 98.4905 66.3143 98.5162 65.1769C98.542 63.8068 99.9046 62.6177 101.37 62.6177Z" fill="white"/>
</svg>
