<svg width="32" height="31" viewBox="0 0 32 31" fill="none" xmlns="http://www.w3.org/2000/svg">
<path d="M13.623 0H18.2161V5.53739H13.623V0Z" fill="#2BA3A3"/>
<path d="M13.623 7.66868H18.2161V10.5094H13.623V7.66868Z" fill="#2BA3A3"/>
<path d="M1.70508 7.66868V17.8336C2.36576 17.9587 2.99143 18.2908 3.4796 18.8207L6.99801 22.6398C7.00701 22.6496 7.01664 22.6587 7.02583 22.6684V21.8912C7.02583 20.2569 8.35544 18.9273 9.98969 18.9273H14.9167C15.5284 18.9965 17.1482 18.0697 17.7068 17.8476C20.0782 16.7452 22.7773 16.7887 25.1119 17.9671L26.5317 18.6883C26.9293 17.4115 28.0707 16.4866 29.4139 16.4866H30.2559V7.66868H20.347V11.5751C20.347 12.1636 19.8699 12.6407 19.2813 12.6407H12.557C11.9685 12.6407 11.4914 12.1636 11.4914 11.5751V7.66868H1.70508Z" fill="#2BA3A3"/>
<path d="M20.3457 5.53739H30.2546V1.47812C30.2546 0.661742 29.7047 0 29.0263 0H20.3457V5.53739Z" fill="#2BA3A3"/>
<path d="M29.4145 18.6179C28.9172 18.6179 28.5127 19.0953 28.5127 19.682V29.208C28.5127 29.7948 28.9173 30.2721 29.4145 30.2721H31.0978C31.5951 30.2721 31.9997 29.7948 31.9997 29.208V19.682C31.9997 19.0953 31.5951 18.6179 31.0978 18.6179H29.4145Z" fill="#2BA3A3"/>
<path d="M11.4914 0H2.72585C2.16212 0 1.70508 0.549982 1.70508 1.22841V5.53739H11.4914V0Z" fill="#2BA3A3"/>
<path d="M1.91181 20.2647C0.970234 19.3232 -0.632585 20.5539 0.263051 21.649L5.06294 27.4679C6.69245 29.4433 9.09571 30.5763 11.6565 30.5763H17.0854C19.1015 30.5763 21.1182 30.3395 23.0794 29.8725L26.3804 29.083V21.0021L24.1488 19.8685C22.4026 18.9871 20.381 18.9545 18.605 19.7803L16.7069 20.6627C16.1499 20.9217 15.5307 21.0586 14.9164 21.0586H9.98941C9.53031 21.0586 9.15678 21.432 9.15678 21.8912V23.5055H18.7271C19.3157 23.5055 19.7928 23.9826 19.7928 24.5712C19.7928 25.1597 19.3157 25.6368 18.7271 25.6368H8.97245C7.7361 25.6517 6.31586 25.0726 5.43022 24.0839L1.91181 20.2647Z" fill="#2BA3A3"/>
</svg>
