<svg width="33" height="42" viewBox="0 0 33 42" fill="none" xmlns="http://www.w3.org/2000/svg">
<path d="M29.8347 29.3521C28.8588 31.4081 27.586 33.2945 25.9525 35.0325C24.2978 36.8341 22.4521 38.2966 20.458 39.3775C18.4639 40.4585 16.3849 41.1367 14.2211 41.4123H14.1574C12.036 41.6666 10.0631 41.497 8.2387 40.8824C6.41428 40.2677 4.80202 39.2715 3.44432 37.8727C2.17147 36.495 1.25926 34.8841 0.665268 33.0189C0.0712728 31.1537 -0.119658 29.119 0.0712689 26.9147L1.04712 17.2708C1.42897 15.2996 2.10782 13.3921 3.06246 11.5481C4.01709 9.72528 5.20509 8.00846 6.62643 6.4612C8.32356 4.6808 10.1692 3.26071 12.1421 2.15856C14.1362 1.0776 16.194 0.399345 18.3578 0.123806H18.4215C20.5641 -0.151733 22.5582 0.0390232 24.4038 0.632492C26.2283 1.24716 27.8193 2.24334 29.1558 3.66342C30.3226 4.91394 31.2136 6.35523 31.8076 7.98727C32.4016 9.6193 32.6773 11.4209 32.6773 13.3497L32.5501 14.5578L32.0409 19.6447L31.7015 22.9723C31.4257 25.1979 30.8105 27.2962 29.8347 29.3521Z" fill="#010101"/>
<path d="M15.9607 23.2267C13.1816 23.2267 11.336 20.7256 11.8664 17.6523C12.3967 14.579 15.0909 12.0992 17.8699 12.0992C20.649 12.0992 22.4946 14.6002 21.9643 17.6735C21.4339 20.7468 18.7397 23.2267 15.9607 23.2267ZM18.4639 8.68671C13.7756 8.66551 9.2358 12.8622 8.34481 18.0338C7.5811 22.4637 13.6483 34.0151 13.6483 34.0363C13.6483 34.0363 24.5524 22.6544 25.3373 18.0762C26.2283 12.9046 23.1523 8.68671 18.4639 8.68671Z" fill="#E9C460"/>
</svg>
