<svg width="80" height="80" viewBox="0 0 80 80" fill="none" xmlns="http://www.w3.org/2000/svg">
<path d="M15.2892 75.8347C14.9586 75.9339 14.6115 76.0331 14.281 76.1653C13.9504 76.2975 13.8182 76.1322 13.7355 75.8678C13.3223 75.5537 13.2231 75.0413 13.0743 74.595C11.7355 70.876 10.3967 67.1736 9.04129 63.4711C8.79336 62.7769 8.69418 62.7273 7.95038 63.0083C6.67765 63.4876 5.40493 63.9504 4.1322 64.4132C3.78509 64.5455 3.42146 64.7273 3.02476 64.4959C2.74377 63.8182 2.6446 63.0744 2.21484 62.4628C2.21484 62.4132 2.21484 62.3636 2.21484 62.314C3.96691 61.6694 5.70245 61.0083 7.47104 60.3636C7.80162 60.2479 7.99997 60.1818 7.99997 59.7025C7.98344 59.0083 8.51237 58.6612 9.14046 58.4298C12.8099 57.1074 16.4628 55.7851 20.1157 54.4463C20.9091 54.1653 21.7025 53.8678 22.4958 53.5868C23.4215 53.2727 24.0165 53.4876 24.314 54.4132C24.5289 55.0744 24.7603 54.876 25.157 54.6116C28.2644 52.5785 31.6859 51.3058 35.3223 50.6612C37.8347 50.2149 40.3306 50.6281 42.8099 51.0744C47.0578 51.8347 51.2892 52.595 55.5372 53.3388C57.5702 53.6859 59.0578 54.6942 59.7355 56.6942C59.9173 57.2397 60.2149 56.9421 60.4463 56.8595C63.8677 55.6198 67.2727 54.3802 70.6942 53.124C72.6281 52.4132 74.4297 52.595 76.033 53.9504C76.9421 54.7273 77.4876 55.719 77.6529 56.9091C77.6694 57.0248 77.6363 57.1736 77.8016 57.2066C77.8016 57.5207 77.8016 57.8182 77.8016 58.1322C77.4876 58.5785 77.5206 59.1405 77.2892 59.6033C76.6942 60.8264 75.7851 61.7355 74.4958 62.1983C66.7438 65.0083 59.0082 67.8347 51.2562 70.6281C49.1405 71.3884 46.9421 71.5041 44.7272 71.3223C42.8595 71.1736 40.9917 71.0744 39.1239 70.9422C36.3636 70.7438 33.8843 71.7355 31.3884 72.6612C31.1735 72.7438 31.0413 72.843 31.1901 73.1074C31.3223 73.3554 31.3884 73.6364 31.471 73.9008C31.6859 74.6446 31.4876 75.1901 30.7934 75.4876C29.5372 76 28.2479 76.4298 26.9752 76.9091C26.7272 77.0083 26.595 76.9256 26.4958 76.6942C26.3801 76.4132 26.2644 76.1322 26.1487 75.8512C25.4545 74.9752 25.5537 74.562 26.5454 74.2149C26.9256 74.0826 27.3223 73.9174 27.7025 73.8017C28.314 73.6033 28.4132 73.2562 28.1818 72.6777C27.5041 70.9091 26.876 69.1074 26.2314 67.3223C25.0744 64.1653 23.9504 60.9917 22.7768 57.8512C22.7107 57.6529 22.6115 57.4711 22.562 57.2727C22.3967 56.6446 22.033 56.562 21.4545 56.7934C20.2479 57.2562 19.0413 57.6859 17.8347 58.1157C15.9008 58.8099 13.9834 59.5372 12.033 60.1983C11.0909 60.5289 11.0743 60.5785 11.4049 61.5207C12.9421 65.8182 14.5289 70.1157 16.0826 74.4132C16.4628 75.4876 16.4463 75.5537 15.2892 75.8347Z" fill="black"/>
<path d="M54.6629 20.7273C54.5968 19.438 54.6464 18.1653 54.6464 16.876C54.6299 15.8678 54.1836 15.4215 53.1918 15.405C51.8034 15.3884 50.415 15.3884 49.0265 15.405C48.5968 15.405 48.4646 15.3058 48.4646 14.8595C48.4976 13.6529 48.5141 12.4463 48.448 11.2397C48.2993 8.57851 47.0927 6.44628 45.0265 4.79338C43.8199 3.83471 42.3819 3.43801 40.9274 3.05785C40.1505 3.05785 39.3902 3.05785 38.6133 3.05785C38.5803 3.17355 38.4811 3.17355 38.3654 3.19008C34.729 3.93388 32.415 6.13223 31.4563 9.70247C30.9935 11.3884 31.2579 13.124 31.2249 14.843C31.2249 15.2727 31.1257 15.405 30.6794 15.405C29.3406 15.3719 28.0017 15.3884 26.6794 15.3884C25.4728 15.3884 25.0596 15.8016 25.0596 16.9917C25.0596 25.8016 25.0927 34.6116 25.0431 43.4215C25.0265 45.8512 26.977 47.5372 29.0761 47.4876C33.886 47.3884 38.6794 47.4545 43.4894 47.4545C44.7621 47.4545 44.7621 47.4545 44.8282 46.2314C45.2414 45.2231 44.9935 44.8099 43.9687 44.7603C43.6877 44.7438 43.4067 44.7603 43.1257 44.7603C38.6464 44.7603 34.1836 44.7603 29.7042 44.7603C29.3241 44.7603 28.9274 44.7934 28.5472 44.6777C28.0018 44.5124 27.7042 43.9339 27.7869 43.3223C27.8695 42.7107 28.3489 42.8264 28.729 42.7934C28.977 42.7769 29.2414 42.7934 29.5059 42.7934C34.2166 42.7934 38.9108 42.7934 43.6216 42.7934C44.9274 42.7934 45.0596 42.6446 45.0265 41.3058C45.0596 39.9835 44.9274 39.8512 43.6051 39.8347C43.3736 39.8347 43.1422 39.8347 42.9108 39.8347C38.2827 39.8347 33.6712 39.8347 29.0431 39.8347C27.7869 39.8347 27.7703 39.8182 27.7703 38.6116C27.7703 32.1653 27.7703 25.719 27.7703 19.2727C27.7703 18.1488 27.8034 18.1322 28.9439 18.1157C28.9935 18.1157 29.0431 18.1157 29.0927 18.1157C31.1588 18.1322 30.9604 17.9339 30.9604 19.9669C30.977 21.7851 31.2249 22 33.0431 21.8016C33.5885 21.7355 33.886 21.4876 33.9026 20.9256C33.9356 20.3306 33.9026 19.7521 33.9191 19.157C33.9356 18.1983 34.0017 18.1157 34.9935 18.1157C37.9522 18.1157 40.8943 18.0992 43.853 18.1157C45.9852 18.1157 45.7538 17.9008 45.7703 20C45.7869 21.7686 45.9522 21.9339 47.7373 21.8016C48.4976 21.7521 48.6794 21.5702 48.729 20.8099C48.7621 20.1653 48.7456 19.5207 48.7456 18.876C48.7456 18.314 48.9935 18.0826 49.5389 18.0992C50.0844 18.1157 50.6133 18.1157 51.1588 18.0992C51.7042 18.0826 51.9687 18.2975 51.9522 18.8595C51.9356 19.4711 51.9356 20.0992 51.9522 20.7107C52.0017 21.7355 52.4315 21.9835 53.4232 21.5702C53.5555 21.5537 53.6877 21.5207 53.8034 21.5537C54.4976 21.6859 54.7125 21.4215 54.6629 20.7273ZM45.4728 15.405C43.6051 15.3884 41.7208 15.3884 39.853 15.3884C37.9852 15.3884 36.1009 15.3884 34.2332 15.3884C34.0183 15.3884 33.6712 15.5537 33.6877 15.0909C33.7538 13.4215 33.4728 11.7355 33.9191 10.1157C34.7621 7.10743 37.5059 5.20661 40.448 5.57024C43.6712 5.96694 45.886 8.39669 46.0017 11.7025C46.0348 12.7603 45.9852 13.8016 46.0183 14.8595C46.0348 15.3058 45.9026 15.4215 45.4728 15.405Z" fill="black"/>
<path d="M44.8106 41.3058C44.7445 40.0661 44.7445 40.0661 43.4552 40.0661C38.3974 40.0661 33.323 40.0496 28.2651 40.0827C27.7032 40.0827 27.4883 39.9835 27.4883 39.3389C27.5213 32.4298 27.5048 25.5207 27.4883 18.595C27.4883 18 27.6205 17.7851 28.2486 17.8347C29.0089 17.8843 29.7858 17.8843 30.5627 17.8347C31.1246 17.8017 31.2569 18.0165 31.2238 18.5289C31.1742 19.3719 31.2238 20.2314 31.2073 21.0744C31.1908 21.438 31.3065 21.5372 31.6866 21.5537C33.6866 21.6529 33.6866 21.6694 33.6866 19.6694C33.6866 17.8512 33.6866 17.8512 35.5048 17.8512C38.7445 17.8512 41.9842 17.8843 45.2238 17.8347C45.9346 17.8182 46.0833 18.0331 46.0503 18.6942C46.0007 19.4876 46.0503 20.281 46.0337 21.0909C46.0172 21.4545 46.1329 21.5537 46.5131 21.5868C48.5131 21.686 48.5131 21.7025 48.5131 19.7025C48.5131 17.8843 48.5131 17.8678 50.3313 17.8843C50.9428 17.8843 51.7362 17.6033 52.0999 18C52.4635 18.3967 52.1825 19.1736 52.2156 19.7851C52.2156 19.9339 52.2156 20.0992 52.2156 20.2479C52.2156 21.5372 52.2156 21.5372 53.4552 21.6033C53.4552 22.4132 53.4552 23.2231 53.4552 24.0165C53.2073 24.3141 52.8602 24.2645 52.5296 24.2645C51.5379 24.281 50.5461 24.314 49.5544 24.2479C48.5461 24.1818 47.7528 24.3967 47.2569 25.3554C46.2982 25.7025 46.2982 25.7025 46.2982 26.7769C46.2982 31.1405 46.2982 35.5207 46.2982 39.8843C46.2982 40.2975 46.3313 40.7108 46.2321 41.1074C46.199 41.2066 46.1494 41.2893 46.0833 41.3554C45.6205 41.5703 45.2073 41.6033 44.8106 41.3058Z" fill="#3797E4"/>
<path d="M47.2257 25.2727C47.4901 24.2975 47.7877 24.0496 48.7629 24.0496C50.3166 24.0331 51.8703 24.0331 53.424 24.0165C58.7959 24.0331 64.1513 24.0331 69.5232 24.0331C71.8207 24.0331 71.9364 24.1322 71.9364 26.4793C71.9364 32.1488 71.9364 37.8347 71.9364 43.5041C71.9364 45.4545 70.9116 46.8595 69.143 47.3719C68.7298 47.4876 68.3331 47.4711 67.9199 47.4711C62.4488 47.4711 56.9777 47.4545 51.5067 47.4876C50.2009 47.5041 49.0934 47.157 48.1678 46.2314C47.3248 45.6859 47.0934 44.8264 47.0439 43.9174C46.9777 43.0083 47.0273 42.0826 47.0273 41.157C46.9777 36.1488 47.0108 31.124 47.0108 26.1157C47.0108 25.8347 47.0108 25.5207 47.2257 25.2727Z" fill="black"/>
<path d="M44.8106 41.3058C45.2073 41.3223 45.6205 41.3223 46.0172 41.3388C46.3313 41.719 46.2321 42.1653 46.2156 42.5785C46.1495 43.9008 46.2652 45.1405 47.5709 45.9008C47.6701 45.9669 47.7362 46.0992 47.7032 46.2314C46.728 46.2314 45.7693 46.2479 44.7941 46.2479C44.728 45.0083 44.728 45.0083 43.4552 45.0083C38.6949 45.0083 33.9511 45.0083 29.1908 45.0083C27.8189 45.0083 27.1412 44.0992 27.4883 42.7769C27.5709 42.4628 27.7858 42.5455 27.9511 42.5455C28.8767 42.5289 29.8023 42.5455 30.728 42.5455C34.9759 42.5455 39.2073 42.5455 43.4552 42.5455C44.7445 42.5455 44.7445 42.5455 44.8106 41.3058Z" fill="#D0D2D3"/>
<path d="M47.7034 46.2314C46.315 45.4876 45.8191 44.3306 46.0009 42.7934C46.067 42.3141 46.0175 41.8182 46.0175 41.3389L46.0009 41.2727C46.4141 41.0248 46.8108 41.0083 47.2075 41.3058C47.2241 41.9504 47.2571 42.595 47.2241 43.2231C47.1745 44.3471 47.4555 45.3554 48.1497 46.2314C48.0175 46.2479 47.8687 46.2314 47.7034 46.2314Z" fill="#C5C4C9"/>
<path d="M15.2879 75.8347C16.2135 75.3884 16.197 75.3884 15.8334 74.3636C14.2301 69.9339 12.6268 65.4876 10.9904 61.0578C10.7921 60.5454 10.9078 60.3636 11.4036 60.1818C14.8747 58.9421 18.3458 57.6859 21.8169 56.4132C22.2466 56.2479 22.4119 56.314 22.5772 56.7603C24.5276 62.1653 26.478 67.5537 28.478 72.9421C28.6764 73.5041 28.5772 73.7025 28.0317 73.8512C27.5193 73.9835 27.04 74.2645 26.5111 74.3967C25.8334 74.562 25.6846 74.876 26.0317 75.4545C26.0978 75.5537 26.0978 75.7025 26.1309 75.8182C22.5111 75.8347 18.9078 75.8347 15.2879 75.8347Z" fill="#3797E4"/>
<path d="M3.02734 64.4793C4.548 64.1488 5.96949 63.4711 7.44057 62.9587C8.89511 62.4463 8.89511 62.4297 9.40751 63.8843C10.8455 67.8678 12.2835 71.8512 13.7381 75.8512C11.7546 75.8512 9.78767 75.8347 7.8042 75.8678C7.29181 75.8843 7.10999 75.6694 6.96123 75.2231C5.67197 71.6364 4.34966 68.0661 3.02734 64.4793Z" fill="#56A8E9"/>
<path d="M36.6098 52.9587C38.99 52.8595 40.7255 53.2066 42.4776 53.5041C46.7751 54.2645 51.0727 55.0248 55.3536 55.7851C56.8578 56.0496 57.7999 57.2727 57.552 58.6116C57.2875 60.0826 56.0479 60.8926 54.4611 60.6116C50.3619 59.9008 46.2793 59.1901 42.1801 58.4297C41.4693 58.2975 41.2214 58.4463 41.1057 59.1735C40.8743 60.7273 40.8247 60.7438 42.2958 60.9917C46.3454 61.7025 50.395 62.3471 54.428 63.1074C56.1305 63.4215 58.6098 62.4132 59.552 60.2314C59.7338 59.8182 59.9487 59.5868 60.3784 59.438C64.1966 58.0826 67.9817 56.6777 71.7999 55.3223C73.7008 54.6446 75.4859 56.0826 75.1718 58C75.0065 59.0083 74.3784 59.6198 73.4198 59.9504C68.1966 61.8512 62.9735 63.7521 57.7503 65.6529C55.9652 66.2975 54.147 66.8595 52.4115 67.6198C49.2214 69.0083 45.9322 69.0083 42.5768 68.6777C39.9487 68.4132 37.3041 68.2149 34.6925 68.8926C33.3206 69.2562 32.0148 69.7521 30.6925 70.2645C30.3123 70.4132 30.1305 70.3636 29.9817 69.9504C28.5437 65.9174 27.0892 61.9008 25.6016 57.8843C25.4363 57.438 25.552 57.2397 25.8991 57.0083C29.3206 54.7273 33.0727 53.3058 36.6098 52.9587Z" fill="#FEC471"/>
<path d="M47.2231 41.3058C46.8264 41.2892 46.4132 41.2892 46.0165 41.2727C46.0165 36.3471 46.0165 31.4215 46.0165 26.5124C46.0165 25.0578 45.8678 25.3058 47.2231 25.2727C47.2231 30.6116 47.2231 35.9669 47.2231 41.3058Z" fill="#127FD0"/>
<path d="M59.5543 40.0827C56.5295 40.0827 53.4882 40.0661 50.4634 40.0992C49.9345 40.0992 49.703 40.0331 49.7196 39.405C49.7526 35.3223 49.7526 31.2397 49.7196 27.1405C49.7196 26.6446 49.8353 26.4959 50.3477 26.4959C56.513 26.5124 62.6783 26.5124 68.8436 26.4959C69.3725 26.4959 69.4716 26.6612 69.4716 27.1405C69.4551 31.2231 69.4551 35.3058 69.4716 39.405C69.4716 39.9339 69.356 40.0992 68.794 40.0992C65.7196 40.0661 62.6287 40.0827 59.5543 40.0827Z" fill="#FE4F0B"/>
<path d="M59.5865 42.5454C62.6774 42.5454 65.7518 42.562 68.8427 42.5289C69.3386 42.5289 69.4873 42.6446 69.4708 43.157C69.4543 44.6612 69.1237 45.0083 67.6031 45.0083C62.2146 45.0083 56.8097 45.0083 51.4212 45.0083C50.0493 45.0083 49.3717 44.0992 49.7188 42.7768C49.8345 42.3636 50.132 42.562 50.3469 42.562C53.4212 42.5454 56.4956 42.5454 59.5865 42.5454Z" fill="#E5E6E7"/>
<path d="M65.7547 30.7603C65.8704 32.7273 65.2919 34.6281 63.639 36.0496C61.7217 37.719 59.4903 38.0661 57.1762 37.0909C54.7961 36.0661 53.5895 34.1322 53.4242 31.5372C53.4076 31.2562 53.4076 30.9752 53.4242 30.6942C53.4572 30.1322 53.1762 29.2893 53.5399 29.0909C54.1018 28.8099 54.8787 28.9917 55.5729 28.9752C55.9531 28.9587 55.8704 29.2397 55.887 29.4545C55.887 30.1157 55.8704 30.7934 55.887 31.4545C55.9531 33.5207 57.5564 35.124 59.5729 35.1405C61.5729 35.1405 63.2093 33.5372 63.2754 31.4876C63.2919 30.8264 63.3085 30.1488 63.2754 29.4876C63.2589 29.0744 63.4076 28.9256 63.8043 28.9752C63.9035 28.9917 64.0027 28.9752 64.1184 28.9752C65.7547 28.9752 65.7547 28.9752 65.7547 30.7603Z" fill="black"/>
</svg>
