<svg width="396" height="396" viewBox="0 0 396 396" fill="none" xmlns="http://www.w3.org/2000/svg">
<path d="M396 302.861H0V303.019H396V302.861Z" fill="white"/>
<path d="M340.323 308.246H263.023V308.405H340.323V308.246Z" fill="white"/>
<path d="M265.873 312.84H228.887V312.998H265.873V312.84Z" fill="white"/>
<path d="M356.32 315.612H341.113V315.77H356.32V315.612Z" fill="white"/>
<path d="M173.447 312.919H100.188V313.078H173.447V312.919Z" fill="white"/>
<path d="M93.1397 312.919H77.3789V313.078H93.1397V312.919Z" fill="white"/>
<path d="M71.8341 309.593H45.7773V309.751H71.8341V309.593Z" fill="white"/>
<path d="M187.704 267.538H34.7683C32.3131 267.538 30.2539 265.478 30.2539 263.023V48.0744C30.2539 45.6192 32.3131 43.56 34.7683 43.56H187.704C190.159 43.56 192.218 45.6192 192.218 48.0744V263.023C192.218 265.478 190.238 267.538 187.704 267.538ZM34.7683 43.7184C32.3923 43.7184 30.4123 45.6192 30.4123 48.0744V263.023C30.4123 265.399 32.3131 267.379 34.7683 267.379H187.704C190.08 267.379 192.06 265.478 192.06 263.023V48.0744C192.06 45.6984 190.159 43.7184 187.704 43.7184H34.7683Z" fill="#2BA3A3"/>
<path d="M359.012 267.538H206.077C203.622 267.538 201.562 265.478 201.562 263.023V48.0744C201.562 45.6192 203.622 43.56 206.077 43.56H359.012C361.467 43.56 363.526 45.6192 363.526 48.0744V263.023C363.526 265.478 361.546 267.538 359.012 267.538ZM206.077 43.7184C203.701 43.7184 201.721 45.6192 201.721 48.0744V263.023C201.721 265.399 203.622 267.379 206.077 267.379H359.012C361.388 267.379 363.368 265.478 363.368 263.023V48.0744C363.368 45.6984 361.467 43.7184 359.012 43.7184H206.077Z" fill="#2BA3A3"/>
<path d="M309.754 295.574H70.4904L56.2344 133.294H295.498L309.754 295.574Z" fill="#F0F0F0"/>
<path d="M66.2912 300.722L70.4888 295.574L56.2328 133.294L52.0352 138.521L66.2912 300.722Z" fill="#E0E0E0"/>
<path d="M73.6567 289.397L60.5095 139.946C60.3511 138.362 61.6183 137.016 63.2023 137.016H289.635C291.061 137.016 292.169 138.046 292.328 139.471L305.475 288.922C305.633 290.506 304.366 291.852 302.782 291.852H76.3495C75.0031 291.852 73.8151 290.822 73.6567 289.397Z" fill="#FAFAFA"/>
<path d="M104.149 295.574H68.1125L65.5781 302.861H101.614L104.149 295.574Z" fill="#E0E0E0"/>
<path d="M104.148 295.574H341.114L338.58 302.861H101.613L104.148 295.574Z" fill="#F5F5F5"/>
<path d="M201.725 295.574H247.186L246.632 300.326H201.25L201.725 295.574Z" fill="#E0E0E0"/>
<path d="M270.549 122.681H327.969C332.721 154.202 310.703 180.101 279.261 180.101C269.202 180.101 258.906 177.487 249.402 172.418L270.549 122.681Z" fill="#E0E0E0"/>
<path d="M270.551 122.681L300.805 78.7248C308.012 84.1104 314.19 90.8424 318.942 98.4456C323.615 106.049 326.704 114.286 327.971 122.681H270.551Z" fill="#EBEBEB"/>
<path d="M270.551 122.681L261.918 65.2608C268.65 65.2608 275.461 66.4488 282.035 68.7456C288.688 71.0424 295.024 74.448 300.805 78.7248L270.551 122.681Z" fill="#E6E6E6"/>
<path d="M270.55 122.681L249.324 172.418C230.079 162.202 216.219 143.194 213.13 122.681C208.378 91.1592 230.395 65.2608 261.838 65.2608L270.55 122.681Z" fill="#F0F0F0"/>
<path d="M199.746 225.086H250.672C251.305 229.522 251.464 233.957 250.909 238.234C250.434 242.51 249.325 246.629 247.662 250.51L199.746 225.086Z" fill="#EBEBEB"/>
<path d="M199.746 225.086L201.013 174.953C213.131 177.012 224.694 183.19 233.802 192.377C242.91 201.564 248.85 213.127 250.672 225.086H199.746Z" fill="#E0E0E0"/>
<path d="M199.745 225.086L154.522 242.51C151.67 236.966 149.69 231.026 148.819 225.086C144.622 197.129 164.105 174.161 192.062 174.161C194.993 174.161 198.002 174.398 201.012 174.953L199.745 225.086Z" fill="#F0F0F0"/>
<path d="M199.747 225.086L247.663 250.51C240.931 266.27 225.566 275.933 207.429 275.933C186.045 275.933 164.899 262.469 154.523 242.431L199.747 225.086Z" fill="white"/>
<path d="M197.998 338.58C282.812 338.58 351.567 334.573 351.567 329.63C351.567 324.688 282.812 320.681 197.998 320.681C113.185 320.681 44.4297 324.688 44.4297 329.63C44.4297 334.573 113.185 338.58 197.998 338.58Z" fill="#F5F5F5"/>
<path d="M190.555 189.605H119.196C114.682 189.605 110.643 185.882 110.326 181.368L106.762 137.491C106.366 132.977 109.771 129.254 114.286 129.254H185.645C190.159 129.254 194.199 132.977 194.515 137.491L198.079 181.368C198.475 185.882 195.07 189.605 190.555 189.605Z" fill="white"/>
<path d="M190.555 189.922H119.196C114.444 189.922 110.325 186.12 109.929 181.368L106.365 137.491C106.207 135.194 106.92 133.056 108.425 131.393C109.929 129.73 111.989 128.858 114.285 128.858H185.645C190.397 128.858 194.515 132.66 194.911 137.412L198.475 181.289C198.633 183.586 197.921 185.724 196.416 187.387C194.911 189.05 192.852 189.922 190.555 189.922ZM114.285 129.571C112.226 129.571 110.325 130.363 108.9 131.868C107.553 133.373 106.841 135.353 106.999 137.412L110.563 181.289C110.88 185.645 114.761 189.209 119.117 189.209H190.476C192.535 189.209 194.436 188.417 195.861 186.912C197.208 185.407 197.921 183.427 197.762 181.368L194.198 137.491C193.881 133.135 190.001 129.571 185.645 129.571H114.285Z" fill="#2BA3A3"/>
<path d="M171.15 176.774C168.378 179.784 164.735 182.002 160.696 183.11L159.508 179.705C168.299 177.329 174.239 169.092 173.447 159.35C172.972 153.569 170.2 148.262 166.081 144.461L168.378 142.006C178.674 151.589 179.941 167.27 171.15 176.774Z" fill="#E0E0E0"/>
<path d="M168.377 142.085L166.08 144.54C161.962 140.738 156.497 138.362 150.715 138.362C144.934 138.362 139.865 140.738 136.38 144.54L133.688 142.085C137.885 137.491 143.983 134.878 150.478 134.878C156.893 134.878 163.387 137.491 168.377 142.085Z" fill="#263238"/>
<path d="M160.697 183.11C152.46 185.407 143.193 182.952 136.461 176.774C126.165 167.27 124.898 151.589 133.61 142.085L136.303 144.54C132.818 148.342 130.917 153.569 131.393 159.43C132.343 171.072 142.56 180.497 154.123 180.497C156.024 180.497 157.845 180.259 159.509 179.784L160.697 183.11Z" fill="#2BA3A3"/>
<path d="M93.3782 58.3704H87.6758V59.0832H93.3782V58.3704Z" fill="#2BA3A3"/>
<path d="M82.0513 58.3704H69.0625V59.0832H82.0513V58.3704Z" fill="#2BA3A3"/>
<path d="M142.64 121.414H71.3603C66.8459 121.414 62.8067 117.691 62.4899 113.177L58.9259 69.3C58.5299 64.7856 61.9355 61.0632 66.4499 61.0632H137.809C142.323 61.0632 146.363 64.7856 146.679 69.3L150.243 113.177C150.639 117.691 147.234 121.414 142.64 121.414Z" fill="white"/>
<path d="M142.64 121.73H71.3599C66.6079 121.73 62.4895 117.929 62.0935 113.177L58.5295 69.3C58.3711 67.0032 59.0839 64.8648 60.5887 63.2016C62.0935 61.5384 64.1527 60.6672 66.4495 60.6672H137.809C142.561 60.6672 146.679 64.4688 147.075 69.2208L150.639 113.098C150.797 115.394 150.085 117.533 148.58 119.196C147.075 120.859 144.937 121.73 142.64 121.73ZM66.4495 61.4592C64.3903 61.4592 62.4895 62.2512 61.0639 63.756C59.7175 65.2608 59.0047 67.2408 59.1631 69.3L62.7271 113.177C63.0439 117.533 66.9247 121.097 71.2807 121.097H142.64C144.699 121.097 146.6 120.305 148.025 118.8C149.372 117.295 150.085 115.315 149.926 113.256L146.362 69.3792C146.045 65.0232 142.165 61.4592 137.809 61.4592H66.4495Z" fill="#2BA3A3"/>
<path d="M65.3402 73.656H103.119L102.802 69.9336H65.0234L65.3402 73.656Z" fill="#E0E0E0"/>
<path d="M140.896 73.656H103.118L102.801 69.9336H140.579L140.896 73.656Z" fill="#2BA3A3"/>
<path d="M66.1332 83.3976H76.9044L76.5876 79.6752H65.8164L66.1332 83.3976Z" fill="#E0E0E0"/>
<path d="M141.688 83.3976H76.9027L76.5859 79.6752H141.372L141.688 83.3976Z" fill="#2BA3A3"/>
<path d="M66.9262 93.1392H100.586L100.269 89.3376H66.6094L66.9262 93.1392Z" fill="#E0E0E0"/>
<path d="M142.479 93.1392H100.582L100.266 89.3376H142.162L142.479 93.1392Z" fill="#2BA3A3"/>
<path d="M67.7152 102.802H125.135L124.818 99.0792H67.3984L67.7152 102.802Z" fill="#E0E0E0"/>
<path d="M143.274 102.802H125.137L124.82 99.0792H142.957L143.274 102.802Z" fill="#2BA3A3"/>
<path d="M68.5082 112.543H95.0402L94.7234 108.821H68.1914L68.5082 112.543Z" fill="#E0E0E0"/>
<path d="M144.064 112.543H95.0395L94.7227 108.821H143.747L144.064 112.543Z" fill="#2BA3A3"/>
<path d="M240.216 121.414H168.856C164.342 121.414 160.303 117.691 159.986 113.177L156.422 69.3C156.026 64.7856 159.432 61.0632 163.946 61.0632H235.305C239.82 61.0632 243.859 64.7856 244.176 69.3L247.74 113.177C248.136 117.691 244.73 121.414 240.216 121.414Z" fill="white"/>
<path d="M240.215 121.73H168.856C164.104 121.73 159.986 117.929 159.59 113.177L156.026 69.3C155.867 67.0032 156.58 64.8648 158.085 63.2016C159.59 61.5384 161.649 60.6672 163.946 60.6672H235.305C240.057 60.6672 244.175 64.4688 244.571 69.2208L248.135 113.098C248.294 115.394 247.581 117.533 246.076 119.196C244.571 120.859 242.512 121.73 240.215 121.73ZM163.946 61.4592C161.886 61.4592 159.986 62.2512 158.56 63.756C157.214 65.2608 156.501 67.2408 156.659 69.3L160.223 113.177C160.54 117.533 164.421 121.097 168.777 121.097H240.136C242.195 121.097 244.096 120.305 245.522 118.8C246.868 117.295 247.581 115.315 247.422 113.256L243.858 69.3792C243.542 65.0232 239.661 61.4592 235.305 61.4592H163.946Z" fill="#2BA3A3"/>
<path d="M204.419 112.543H203.152L199.746 69.9336H200.934L204.419 112.543Z" fill="#E0E0E0"/>
<path d="M206.317 94.8816H198.397L197.051 78.1704H204.971L206.317 94.8816Z" fill="#2BA3A3"/>
<path d="M188.814 112.543H187.547L184.062 69.9336H185.33L188.814 112.543Z" fill="#E0E0E0"/>
<path d="M191.031 98.5248H183.032L181.844 83.952H189.843L191.031 98.5248Z" fill="#2BA3A3"/>
<path d="M173.134 112.543H171.946L168.461 69.9336H169.728L173.134 112.543Z" fill="#E0E0E0"/>
<path d="M174.401 86.5656H166.481L165.609 76.5072H173.609L174.401 86.5656Z" fill="#263238"/>
<path d="M220.1 112.543H218.832L215.348 69.9336H216.615L220.1 112.543Z" fill="#E0E0E0"/>
<path d="M222.715 104.306H214.795L212.656 78.1704H220.655L222.715 104.306Z" fill="#263238"/>
<path d="M235.701 112.543H234.434L230.949 69.9336H232.216L235.701 112.543Z" fill="#E0E0E0"/>
<path d="M238.631 107.395H230.711L228.969 86.4864H236.968L238.631 107.395Z" fill="#2BA3A3"/>
<path d="M163.868 257.242H92.5087C87.9943 257.242 83.9551 253.519 83.6383 249.005L80.0743 205.128C79.6783 200.614 83.0839 196.891 87.5983 196.891H158.957C163.472 196.891 167.511 200.614 167.828 205.128L171.392 249.005C171.788 253.519 168.382 257.242 163.868 257.242Z" fill="white"/>
<path d="M163.868 257.558H92.5083C87.7563 257.558 83.6379 253.757 83.2419 249.005L79.6779 205.128C79.5195 202.831 80.2323 200.693 81.7371 199.03C83.2419 197.366 85.3011 196.495 87.5979 196.495H158.957C163.709 196.495 167.828 200.297 168.224 205.049L171.788 248.926C171.946 251.222 171.233 253.361 169.728 255.024C168.224 256.687 166.164 257.558 163.868 257.558ZM87.5979 197.208C85.5387 197.208 83.6379 198 82.2123 199.505C80.8659 201.01 80.1531 202.99 80.3115 205.049L83.8755 248.926C84.1923 253.282 88.0731 256.846 92.4291 256.846H163.788C165.848 256.846 167.748 256.054 169.174 254.549C170.52 253.044 171.233 251.064 171.075 249.005L167.511 205.128C167.194 200.772 163.313 197.208 158.957 197.208H87.5979Z" fill="#2BA3A3"/>
<path d="M97.2619 226.037L112.627 243.778L130.288 216.612L141.139 230.63L143.831 226.512L161.651 247.896H93.2227L97.2619 226.037Z" fill="#2BA3A3"/>
<path d="M148.583 227.146L141.455 242.431L118.646 206.237L107.954 229.205L104.469 223.74L93.2227 247.896L161.651 247.817L148.583 227.146Z" fill="#E0E0E0"/>
<path d="M295.34 126.007C297.241 129.571 298.904 133.135 300.409 136.778C301.913 140.501 303.339 144.223 304.369 148.183C304.685 149.134 304.923 150.163 305.081 151.193C305.161 151.51 305.398 152.618 305.398 153.331C305.398 154.123 305.398 154.836 305.24 155.47C304.844 158.083 303.893 160.142 302.864 162.043C300.805 165.845 298.349 168.934 295.498 171.864C294.627 172.735 293.201 172.735 292.33 171.943C291.617 171.23 291.459 170.201 291.934 169.33L292.013 169.25C293.677 166.003 295.419 162.518 296.528 159.192C297.082 157.529 297.478 155.866 297.478 154.678C297.478 154.361 297.478 154.123 297.399 153.965C297.399 153.886 297.399 153.806 297.32 153.727L297.161 153.252C296.924 152.381 296.607 151.51 296.29 150.718C295.102 147.312 293.597 143.827 292.093 140.422C290.588 137.016 288.925 133.531 287.261 130.205V130.126C286.153 127.908 287.103 125.215 289.321 124.106C291.538 122.998 294.152 123.869 295.34 126.007Z" fill="#2BA3A3"/>
<path d="M292.884 168.854L289.082 170.042L293.517 175.27C293.517 175.27 295.26 173.765 295.814 171.547C296.052 170.834 295.735 170.042 295.101 169.567L294.468 169.092C293.992 168.775 293.438 168.696 292.884 168.854Z" fill="#7F3E3B"/>
<path d="M283.855 173.29L288.607 177.012L293.518 175.27L289.083 170.042L283.855 173.29Z" fill="#7F3E3B"/>
<path d="M267.617 99.4752C267.538 99.9504 267.221 100.267 266.904 100.188C266.588 100.109 266.429 99.7128 266.508 99.2376C266.588 98.7624 266.904 98.4456 267.221 98.5248C267.538 98.604 267.696 99 267.617 99.4752Z" fill="#263238"/>
<path d="M267.222 100.267C267.222 100.267 265.638 102.722 264.133 103.831C264.766 104.782 266.271 104.702 266.271 104.702L267.222 100.267Z" fill="#630F0F"/>
<path d="M269.834 97.2576C269.913 97.2576 269.993 97.2576 269.993 97.1784C270.072 97.0992 270.151 96.8616 269.993 96.7824C268.963 95.6736 267.696 95.832 267.616 95.832C267.458 95.832 267.379 95.9904 267.379 96.1488C267.379 96.3072 267.537 96.3864 267.696 96.3864C267.775 96.3864 268.725 96.228 269.597 97.1784C269.676 97.1784 269.755 97.2576 269.834 97.2576Z" fill="#263238"/>
<path d="M280.608 108.029C279.737 112.385 279.262 118.404 282.271 121.255C282.271 121.255 281.083 125.69 273.005 125.69C264.135 125.69 268.728 121.81 268.728 121.81C272.371 120.701 272.371 116.503 271.5 113.098L280.608 108.029Z" fill="#7F3E3B"/>
<path d="M267.223 121.097C267.223 121.097 268.49 118.008 269.836 117.533C271.183 116.978 279.578 115.632 281.479 116.82C283.379 118.008 284.726 121.968 284.726 121.968L267.223 121.097Z" fill="#2BA3A3"/>
<path d="M276.092 323.928C275.3 323.928 274.587 323.849 274.349 323.453C274.27 323.294 274.191 323.136 274.349 322.819C274.428 322.661 274.587 322.582 274.824 322.502C275.775 322.265 277.913 323.453 277.992 323.453C278.072 323.453 278.072 323.532 278.072 323.611C278.072 323.69 277.992 323.69 277.992 323.69C277.517 323.849 276.804 323.928 276.092 323.928ZM275.141 322.74C275.062 322.74 274.983 322.74 274.904 322.74C274.745 322.74 274.666 322.819 274.666 322.898C274.587 323.057 274.587 323.136 274.666 323.215C274.904 323.611 276.408 323.611 277.517 323.453C276.884 323.215 275.854 322.74 275.141 322.74Z" fill="#2BA3A3"/>
<path d="M277.837 323.77C277.045 323.453 275.619 322.186 275.778 321.473C275.778 321.314 275.936 321.156 276.332 321.077C276.649 321.077 276.887 321.156 277.124 321.314C277.916 321.948 278.075 323.532 278.075 323.611C278.075 323.69 278.075 323.69 277.995 323.77C277.916 323.77 277.916 323.77 277.837 323.77ZM276.411 321.314H276.332C276.095 321.314 276.095 321.473 276.095 321.473C276.015 321.869 276.966 322.898 277.758 323.294C277.679 322.819 277.441 321.869 276.966 321.473C276.807 321.394 276.57 321.314 276.411 321.314Z" fill="#2BA3A3"/>
<path d="M284.41 323.611H278.47L277.836 309.91H283.776L284.41 323.611Z" fill="#7F3E3B"/>
<path d="M278.47 322.898H284.964C285.202 322.898 285.439 323.057 285.439 323.294L286.627 328.601C286.786 329.155 286.311 329.63 285.756 329.63C283.459 329.551 280.054 329.472 277.123 329.472C273.718 329.472 273.243 329.63 269.283 329.63C266.827 329.63 266.194 327.175 267.223 326.938C271.896 325.908 273.084 325.829 277.123 323.374C277.519 323.136 277.995 322.898 278.47 322.898Z" fill="#263238"/>
<path d="M292.882 121.255C298.426 122.522 302.069 137.491 302.069 137.491L292.802 144.461C292.802 144.461 287.734 141.293 285.912 134.244C284.011 126.878 287.179 119.988 292.882 121.255Z" fill="#263238"/>
<path opacity="0.2" d="M288.131 131.71C291.141 134.719 293.121 139.392 293.358 144.144L292.883 144.54C292.883 144.54 287.814 141.372 285.993 134.323C285.913 133.848 285.755 133.452 285.676 132.977L288.131 131.71Z" fill="black"/>
<path d="M312.814 143.582L267.805 161.569L281.178 195.032L326.187 177.045L312.814 143.582Z" fill="#2BA3A3"/>
<path opacity="0.5" d="M312.211 143.85L267.863 161.573L281.236 195.036L325.584 177.313L312.211 143.85Z" fill="white"/>
<g opacity="0.5">
<path opacity="0.5" d="M275.981 161.793L271.789 163.468L272.965 166.41L277.157 164.734L275.981 161.793Z" fill="#407BFF"/>
<path opacity="0.5" d="M282.876 159.036L278.684 160.712L279.859 163.653L284.051 161.978L282.876 159.036Z" fill="#407BFF"/>
<path opacity="0.5" d="M289.84 156.251L285.648 157.926L286.824 160.868L291.016 159.192L289.84 156.251Z" fill="#407BFF"/>
<path opacity="0.5" d="M296.735 153.494L292.543 155.17L293.719 158.111L297.911 156.436L296.735 153.494Z" fill="#407BFF"/>
<path opacity="0.5" d="M303.7 150.709L299.508 152.384L300.683 155.326L304.875 153.65L303.7 150.709Z" fill="#407BFF"/>
<path opacity="0.5" d="M310.665 147.928L306.473 149.604L307.648 152.546L311.84 150.87L310.665 147.928Z" fill="#407BFF"/>
<path opacity="0.5" d="M277.958 166.695L273.766 168.371L274.941 171.312L279.133 169.637L277.958 166.695Z" fill="#407BFF"/>
<path opacity="0.5" d="M284.852 163.941L280.66 165.616L281.836 168.558L286.028 166.883L284.852 163.941Z" fill="#407BFF"/>
<path opacity="0.5" d="M291.817 161.155L287.625 162.831L288.801 165.772L292.993 164.097L291.817 161.155Z" fill="#407BFF"/>
<path opacity="0.5" d="M298.712 158.399L294.52 160.074L295.695 163.016L299.887 161.341L298.712 158.399Z" fill="#407BFF"/>
<path opacity="0.5" d="M305.676 155.613L301.484 157.289L302.66 160.23L306.852 158.555L305.676 155.613Z" fill="#407BFF"/>
<path opacity="0.5" d="M312.571 152.857L308.379 154.532L309.555 157.474L313.747 155.799L312.571 152.857Z" fill="#407BFF"/>
<path opacity="0.5" d="M279.864 171.631L275.672 173.307L276.848 176.248L281.04 174.573L279.864 171.631Z" fill="#407BFF"/>
<path opacity="0.5" d="M286.829 168.844L282.637 170.519L283.812 173.461L288.004 171.785L286.829 168.844Z" fill="#407BFF"/>
<path opacity="0.5" d="M293.798 166.06L289.605 167.735L290.781 170.677L294.973 169.002L293.798 166.06Z" fill="#407BFF"/>
<path opacity="0.5" d="M300.688 163.304L296.496 164.979L297.672 167.921L301.864 166.245L300.688 163.304Z" fill="#407BFF"/>
<path opacity="0.5" d="M307.653 160.524L303.461 162.199L304.637 165.141L308.829 163.465L307.653 160.524Z" fill="#407BFF"/>
<path opacity="0.5" d="M314.548 157.767L310.355 159.443L311.531 162.384L315.723 160.709L314.548 157.767Z" fill="#407BFF"/>
<path opacity="0.5" d="M281.84 176.536L277.648 178.211L278.824 181.153L283.016 179.478L281.84 176.536Z" fill="#407BFF"/>
<path opacity="0.5" d="M288.805 173.75L284.613 175.426L285.789 178.367L289.981 176.692L288.805 173.75Z" fill="#407BFF"/>
<path opacity="0.5" d="M295.7 170.992L291.508 172.667L292.683 175.609L296.876 173.934L295.7 170.992Z" fill="#407BFF"/>
<path opacity="0.5" d="M302.665 168.208L298.473 169.884L299.648 172.825L303.84 171.15L302.665 168.208Z" fill="#407BFF"/>
<path opacity="0.5" d="M309.559 165.452L305.367 167.127L306.543 170.069L310.735 168.394L309.559 165.452Z" fill="#407BFF"/>
<path opacity="0.5" d="M316.524 162.666L312.332 164.342L313.508 167.283L317.7 165.608L316.524 162.666Z" fill="#407BFF"/>
<path opacity="0.5" d="M283.817 181.439L279.625 183.114L280.801 186.056L284.993 184.38L283.817 181.439Z" fill="#407BFF"/>
<path opacity="0.5" d="M290.786 178.655L286.594 180.33L287.769 183.272L291.961 181.597L290.786 178.655Z" fill="#407BFF"/>
<path opacity="0.5" d="M297.676 175.899L293.484 177.574L294.66 180.516L298.852 178.841L297.676 175.899Z" fill="#407BFF"/>
<path opacity="0.5" d="M304.645 173.116L300.453 174.792L301.629 177.734L305.821 176.058L304.645 173.116Z" fill="#407BFF"/>
<path opacity="0.5" d="M311.536 170.362L307.344 172.038L308.519 174.98L312.711 173.304L311.536 170.362Z" fill="#407BFF"/>
<path opacity="0.5" d="M318.505 167.571L314.312 169.246L315.488 172.188L319.68 170.513L318.505 167.571Z" fill="#407BFF"/>
<path opacity="0.5" d="M285.794 186.345L281.602 188.021L282.777 190.963L286.969 189.287L285.794 186.345Z" fill="#407BFF"/>
<path opacity="0.5" d="M292.688 183.589L288.496 185.264L289.672 188.206L293.864 186.531L292.688 183.589Z" fill="#407BFF"/>
<path opacity="0.5" d="M299.653 180.803L295.461 182.479L296.637 185.421L300.829 183.745L299.653 180.803Z" fill="#407BFF"/>
<path opacity="0.5" d="M306.548 178.047L302.355 179.722L303.531 182.664L307.723 180.989L306.548 178.047Z" fill="#407BFF"/>
<path opacity="0.5" d="M313.512 175.259L309.32 176.934L310.496 179.876L314.688 178.201L313.512 175.259Z" fill="#407BFF"/>
<path opacity="0.5" d="M320.481 172.476L316.289 174.151L317.465 177.093L321.657 175.418L320.481 172.476Z" fill="#407BFF"/>
</g>
<path d="M309.118 154.202C308.88 153.569 309.197 152.856 309.831 152.539C310.464 152.302 311.177 152.618 311.494 153.252C311.732 153.886 311.415 154.598 310.781 154.915C310.148 155.153 309.356 154.836 309.118 154.202Z" fill="white"/>
<path d="M308.087 171.706C307.849 171.072 308.166 170.359 308.799 170.042C309.433 169.805 310.146 170.122 310.463 170.755C310.7 171.389 310.384 172.102 309.75 172.418C309.037 172.656 308.324 172.339 308.087 171.706Z" fill="white"/>
<path d="M292.247 172.339C292.009 171.706 292.326 170.993 292.96 170.676C293.593 170.438 294.306 170.755 294.623 171.389C294.86 172.022 294.544 172.735 293.91 173.052C293.276 173.29 292.484 172.973 292.247 172.339Z" fill="white"/>
<path d="M282.348 187.704C282.111 187.07 282.428 186.358 283.061 186.041C283.695 185.803 284.408 186.12 284.724 186.754C284.962 187.387 284.645 188.1 284.012 188.417C283.299 188.654 282.586 188.338 282.348 187.704Z" fill="white"/>
<path d="M283.459 187.704C283.38 187.704 283.3 187.704 283.221 187.625C282.984 187.466 282.904 187.229 283.063 186.991L292.963 171.626C293.042 171.468 293.2 171.389 293.359 171.389L308.803 170.755L309.833 153.648C309.833 153.41 310.07 153.173 310.308 153.173C310.545 153.173 310.783 153.41 310.783 153.648L309.753 171.151C309.753 171.389 309.516 171.547 309.278 171.626L293.676 172.26L283.855 187.387C283.776 187.625 283.617 187.704 283.459 187.704Z" fill="white"/>
<path d="M257.796 127.195C256.608 133.61 255.816 146.758 259.38 172.814H291.06C290.505 168.3 288.208 144.223 292.881 121.255C292.881 121.255 287.416 120.146 282.268 119.909C278.229 119.75 272.368 119.592 268.804 119.909C267.3 120.067 265.874 120.226 264.528 120.463C261.122 121.097 258.429 123.79 257.796 127.195Z" fill="#263238"/>
<path opacity="0.2" d="M262.788 137.095L256.848 137.57C256.61 145.253 257.165 156.499 259.382 172.814H259.699C263.184 161.093 267.936 144.302 262.788 137.095Z" fill="black"/>
<path opacity="0.2" d="M277.914 309.91L278.152 316.958H284.092L283.775 309.91H277.914Z" fill="black"/>
<path d="M283.379 101.693C281.875 107.395 281.241 110.801 277.756 113.177C272.45 116.741 265.876 112.622 265.718 106.603C265.56 101.218 268.094 92.8224 274.192 91.6344C280.212 90.5256 284.963 95.9904 283.379 101.693Z" fill="#7F3E3B"/>
<path d="M270.073 101.693L266.984 102.485L269.836 95.04C269.519 94.4856 268.727 91.872 269.598 89.3376C269.836 88.6248 270.469 88.2288 271.182 88.1496C277.597 87.9912 284.25 91.6344 287.576 94.3272C288.21 94.8816 288.368 95.7528 287.972 96.4656C287.26 97.6536 286.309 98.604 285.042 99.792C284.963 101.851 281.557 111.276 279.736 112.306C277.835 113.335 274.271 112.939 273.32 111.197C272.37 109.613 269.123 107.316 270.073 101.693Z" fill="black"/>
<path d="M272.926 101.851C272.609 103.356 271.659 104.623 270.629 105.415C269.124 106.603 267.936 105.494 268.015 103.752C268.095 102.168 268.887 99.6336 270.629 99.1584C272.292 98.6832 273.322 100.109 272.926 101.851Z" fill="#7F3E3B"/>
<path d="M327.176 321.869C327.176 321.077 327.255 320.364 327.572 320.126C327.73 320.047 327.889 319.968 328.205 320.126C328.364 320.206 328.443 320.364 328.522 320.602C328.76 321.552 327.651 323.69 327.572 323.77C327.572 323.849 327.493 323.849 327.413 323.849C327.334 323.849 327.334 323.77 327.334 323.77C327.255 323.294 327.176 322.582 327.176 321.869ZM328.285 320.918C328.285 320.839 328.285 320.76 328.285 320.681C328.285 320.522 328.205 320.443 328.047 320.443C327.889 320.364 327.809 320.364 327.73 320.443C327.334 320.76 327.334 322.186 327.493 323.294C327.809 322.661 328.285 321.631 328.285 320.918Z" fill="#2BA3A3"/>
<path d="M327.336 323.69C327.336 323.611 327.336 323.611 327.336 323.69C327.653 322.898 328.92 321.473 329.633 321.631C329.791 321.631 329.95 321.79 330.029 322.186C330.029 322.502 329.95 322.74 329.791 322.978C329.158 323.77 327.574 323.928 327.494 323.928C327.415 323.928 327.415 323.928 327.336 323.849C327.336 323.69 327.336 323.69 327.336 323.69ZM329.712 322.186V322.106C329.712 321.869 329.554 321.869 329.554 321.869C329.158 321.79 328.128 322.74 327.732 323.532C328.207 323.453 329.158 323.215 329.554 322.74C329.712 322.502 329.712 322.344 329.712 322.186Z" fill="#2BA3A3"/>
<path d="M327.415 323.69L321.634 324.086L318.387 310.226L324.168 309.83L327.415 323.69Z" fill="#7F3E3B"/>
<path d="M327.414 322.344L320.999 321.79C320.761 321.79 320.524 321.948 320.444 322.186L318.781 327.334C318.623 327.888 319.019 328.442 319.573 328.442C321.87 328.601 325.276 328.759 328.206 328.997C331.612 329.314 329.394 329.314 333.433 329.63C335.888 329.868 336.76 327.492 335.73 327.175C331.216 325.75 330.344 324.799 328.84 322.978C328.444 322.582 327.889 322.423 327.414 322.344Z" fill="#263238"/>
<path opacity="0.2" d="M318.387 310.306L320.05 317.434L325.832 316.958L324.168 309.83L318.387 310.306Z" fill="black"/>
<path d="M270.547 172.814C270.547 172.814 284.169 218.354 289.317 235.224C295.02 253.757 316.562 315.137 316.562 315.137L327.016 312.84C327.016 312.84 312.285 260.093 306.108 234.274C301.435 214.474 290.98 172.814 290.98 172.814H270.547Z" fill="#2BA3A3"/>
<path d="M314.742 311.969C314.663 311.969 315.772 316.087 315.772 316.087L328.365 314.741L328.286 311.018L314.742 311.969Z" fill="#263238"/>
<path opacity="0.3" d="M278.153 193.882C285.677 194.911 288.686 221.206 289.795 236.57C289.637 236.095 289.478 235.62 289.399 235.145C286.548 225.878 281.242 208.138 276.965 193.882C277.282 193.882 277.678 193.882 278.153 193.882Z" fill="black"/>
<path d="M259.301 172.814C259.301 172.814 263.894 217.166 265.874 235.224C267.934 253.994 275.616 315.612 275.616 315.612H285.674C285.674 315.612 284.486 255.103 284.09 236.65C283.615 216.533 280.21 172.814 280.21 172.814H259.301Z" fill="#2BA3A3"/>
<path d="M274.034 311.573C273.955 311.573 274.589 315.77 274.589 315.77H286.785L287.102 312.048L274.034 311.573Z" fill="#263238"/>
<path d="M216.455 214.553C221.682 222.869 232.691 225.324 240.928 220.097C249.244 214.87 251.699 203.861 246.472 195.624C241.245 187.387 230.236 184.853 221.999 190.08C213.683 195.228 211.228 206.237 216.455 214.553ZM244.096 197.05C248.531 204.019 246.392 213.286 239.423 217.642C232.453 222.077 223.187 219.938 218.752 212.969C214.316 205.999 216.455 196.733 223.424 192.298C230.473 188.021 239.74 190.08 244.096 197.05Z" fill="#263238"/>
<path opacity="0.2" d="M244.809 208.058C243.146 215.424 235.78 220.097 228.415 218.434C221.049 216.77 216.376 209.405 218.039 202.039C219.703 194.674 227.068 190.001 234.434 191.664C241.879 193.327 246.472 200.693 244.809 208.058Z" fill="#2BA3A3"/>
<path d="M246.946 193.406L248.609 196.02C248.847 196.416 248.768 196.97 248.372 197.208C247.976 197.446 247.421 197.366 247.184 196.97L245.52 194.357C245.283 193.961 245.362 193.406 245.758 193.169C246.233 192.931 246.708 193.01 246.946 193.406Z" fill="#263238"/>
<path d="M257.796 185.882C255.895 187.229 253.994 188.575 252.094 189.922C250.193 191.268 248.371 192.694 246.55 194.198C246.154 194.515 245.995 195.149 246.233 195.624C246.47 196.178 247.183 196.495 247.817 196.178C249.955 195.149 252.014 194.119 254.074 193.01C256.133 191.902 258.192 190.793 260.172 189.605C261.914 188.575 263.578 187.625 265.32 186.516C265.795 186.199 265.954 185.566 265.637 185.09L264.29 182.952C263.974 182.477 263.34 182.318 262.865 182.635C261.043 183.665 259.38 184.774 257.796 185.882Z" fill="#263238"/>
<path d="M266.589 129.413C265.638 134.165 264.609 138.917 263.5 143.669L260.253 157.846C259.223 162.439 258.273 167.112 257.481 171.864L255.025 186.12C254.788 187.308 253.679 188.179 252.412 187.942C251.382 187.783 250.59 186.833 250.59 185.803C250.432 180.893 250.511 175.982 250.749 170.993C251.065 166.082 251.461 161.093 252.333 156.182C253.125 151.351 253.996 146.52 254.867 141.768C255.817 137.016 256.768 132.185 257.877 127.512C258.431 125.057 260.886 123.552 263.262 124.186C265.559 124.74 267.064 127.037 266.589 129.413Z" fill="#2BA3A3"/>
<path d="M254.233 184.774C253.837 184.378 253.204 184.14 252.649 184.298L251.382 184.615C250.749 184.774 250.194 185.328 250.115 185.962L249.719 188.813C249.64 189.605 249.798 190.476 250.194 191.189L251.937 194.119C252.412 194.753 253.204 194.99 253.917 194.832L255.738 194.436C256.926 194.198 257.56 193.01 257.243 191.902L256.768 190.397C256.847 190.476 256.847 187.546 254.233 184.774Z" fill="#7F3E3B"/>
<path d="M272.767 126.72C275.618 134.402 265.718 145.253 265.718 145.253L253.125 141.055C253.125 141.055 254.075 130.601 258.431 124.74C263.817 117.454 270.549 120.859 272.767 126.72Z" fill="#263238"/>
</svg>
