<?xml version="1.0" encoding="utf-8"?>
<!-- Generator: Adobe Illustrator 22.0.0, SVG Export Plug-In . SVG Version: 6.00 Build 0)  -->
<svg version="1.1" id="Calque_1" xmlns="http://www.w3.org/2000/svg" xmlns:xlink="http://www.w3.org/1999/xlink" x="0px" y="0px"
	 viewBox="0 0 688.5 417" style="enable-background:new 0 0 688.5 417;" xml:space="preserve">
<style type="text/css">
	.st0{display:none;}
	.st1{fill:#EAEAEA;}
	.st2{fill:#F5957F;}
	.st3{display:inline;fill:#F5957F;}
	.st4{fill:#FAB9AF;}
	.st5{fill:#F5EC5C;}
	.st6{fill:#1C54A0;}
	.st7{fill:#415050;}
	.st8{fill:#FA968C;}
	.st9{fill:#FF9669;}
	.st10{fill:#A5C8CD;}
	.st11{fill:#C8E6EB;}
</style>
<g id="xhnZLy_1_" class="st0">
	
		<image style="display:inline;overflow:visible;" width="479" height="720" id="xhnZLy_2_" xlink:href="AB5027E1A1ABF4A.jpg"  transform="matrix(2.3083 0 0 2.3083 -212.9017 -442.9847)">
	</image>
</g>
<g class="st0">
	
		<image style="display:inline;overflow:visible;" width="617" height="815" id="AyTekv_2_" xlink:href="AB5027E1A1ABF4E.jpg"  transform="matrix(1.7925 0 0 1.7925 -212.5558 -390.9466)">
	</image>
	
		<image style="display:inline;overflow:visible;" width="1080" height="720" id="UizB4h_2_" xlink:href="AB5027E1A1ABF49.jpg"  transform="matrix(1.6037 0 0 1.6037 -712.5558 -331.318)">
	</image>
	
		<image style="display:inline;overflow:visible;" width="573" height="781" id="DWHJGV_2_" xlink:href="AB5027E1A1ABF4B.jpg"  transform="matrix(1.9482 0 0 1.9482 -217.7066 -735.5056)">
	</image>
	
		<image style="display:inline;overflow:visible;" width="511" height="733" id="NUO65W_2_" xlink:href="AB5027E1A1ABF48.jpg"  transform="matrix(2.2087 0 0 2.2087 -223.8867 -575.4847)">
	</image>
	
		<image style="display:inline;overflow:visible;" width="535" height="878" id="_x32_14AF0_2_" xlink:href="AB5027E1A1ABF56.jpg"  transform="matrix(2.0433 0 0 2.0433 -206.1333 -366.9847)">
	</image>
	
		<image style="display:inline;overflow:visible;" width="1080" height="810" id="_x30_e26LH_2_" xlink:href="AB5027E1A1ABF59.jpg"  transform="matrix(1.3704 0 0 1.3704 -399.5558 -320.9847)">
	</image>
	
		<image style="display:inline;overflow:visible;" width="750" height="1000" id="NpvHNI_2_" xlink:href="AB5027E1A1ABF5A.jpg"  transform="matrix(1.516 0 0 1.516 -228.0558 -593.9847)">
	</image>
	
		<image style="display:inline;overflow:visible;" width="1024" height="680" id="_x34_4zsOx_2_" xlink:href="AB5027E1A1ABF58.jpg"  transform="matrix(1.6892 0 0 1.6892 -524.4343 -340.318)">
	</image>
	
		<image style="display:inline;overflow:visible;" width="1080" height="1080" id="eRi50a_2_" xlink:href="8C295C39C5DDA60D.jpg"  transform="matrix(1.1185 0 0 1.1185 -263.5558 -340.318)">
	</image>
</g>
<path class="st1" d="M12.1,384.8c0-2.7,147-4.9,328.3-4.9c181.3,0,328.3,2.2,328.3,4.9c0,2.7-147,4.9-328.3,4.9L12.1,384.8z"/>
<g>
	<path class="st2" d="M150.2,305.6c0,51-33.7,76.8-70.2,76.8c-36.5,0-70.2-25.2-70.2-76.8c0-51,33.9-76.8,70.2-76.8
		C116.3,228.9,150.2,254.1,150.2,305.6z M80,369.6c22.2,0,31-27.3,31-64c0-36.5-8.7-64.1-31-64.1c-22.2,0-31,27.6-31,64.1
		C49,342.3,57.8,369.6,80,369.6z"/>
	<path class="st2" d="M159.7,244.9V233h72.1v11.9l-32.9,3.3h-6.3L159.7,244.9z M244.7,362.3c19.8,0,31.7-13.3,31.7-46.6V233h14.4
		v82.7c0,46.9-21.8,66.7-58.3,66.7c-32.7,0-56.5-16.2-56.5-59v-24c0-21.8,0-44.2-0.7-66.3h38.5c-0.7,21.7-0.7,44.1-0.7,66.3v17
		C213.2,350.2,223.7,362.3,244.7,362.3z M279.9,246.9l-23.5-2V233h52.8v11.9l-22.7,2H279.9z"/>
	<path class="st2" d="M318.5,244.9V233h35.6v15.2h-3.5L318.5,244.9z M360.8,363.1l32.1,3.3v11.9h-74.4v-11.9l32.1-3.3H360.8z
		 M335.5,301.6c0-22.8,0-45.8-0.7-68.6h38.5c-0.7,22.3-0.7,45.3-0.7,68.6V315c0,18.1,0,40.5,0.7,63.2h-38.5
		c0.7-22.3,0.7-45.3,0.7-68.6V301.6z M378.8,322.7h-24.8v-12.4h25.1c19.5,0,29.2-13.6,29.2-33.8c0-20.3-10.8-30.8-30.1-30.8h-24.2
		V233h24.5c46.1,0,64.4,17.3,64.4,43.7C443.1,301.9,426.8,322.7,378.8,322.7z"/>
	<path class="st2" d="M527,348.2c0-11.7-5.8-17-19.1-22.9l-9.4-4.3c-26.1-11.9-41.1-25-41.1-49.5c0-26.5,21.5-42.7,55-42.7
		c15.8,0,31,4.2,41.8,11.2l-1.8,31h-20.3l-5.4-33.4l17.8,6.3v11.1c-11.8-8.5-20.1-13.1-31.5-13.1c-12.6,0-22.8,8-22.8,20.1
		c0,11.7,7,17.8,20.1,23.7l10.4,4.8c28.2,12.7,39.8,24.9,39.8,47.3c0,26.1-20,44.6-57.8,44.6c-16.6,0-35.3-3.7-48-11.6l1.3-32.9
		h20.6l5.8,35.8l-17.1-5.4v-10.6c14,7.6,23.1,11.5,37.4,11.5C518.5,369.3,527,360.2,527,348.2z"/>
</g>
<g>
	<g class="st0">
		<path class="st3" d="M150.2,305.6c0,51-33.7,76.8-70.2,76.8c-36.5,0-70.2-25.2-70.2-76.8c0-51,33.9-76.8,70.2-76.8
			C116.3,228.9,150.2,254.1,150.2,305.6z M80,369.6c22.2,0,31-27.3,31-64c0-36.5-8.7-64.1-31-64.1c-22.2,0-31,27.6-31,64.1
			C49,342.3,57.8,369.6,80,369.6z"/>
		<path class="st3" d="M164.1,244.9V233h72.1v11.9l-32.9,3.3H197L164.1,244.9z M249.1,362.3c19.8,0,31.7-13.3,31.7-46.6V233h14.4
			v82.7c0,46.9-21.8,66.7-58.3,66.7c-32.7,0-56.5-16.2-56.5-59v-24c0-21.8,0-44.2-0.7-66.3h38.5c-0.7,21.7-0.7,44.1-0.7,66.3v17
			C217.6,350.2,228.2,362.3,249.1,362.3z M284.3,246.9l-23.5-2V233h52.8v11.9l-22.7,2H284.3z"/>
		<path class="st3" d="M326.4,244.9V233H362v15.2h-3.5L326.4,244.9z M368.7,363.1l32.1,3.3v11.9h-74.4v-11.9l32.1-3.3H368.7z
			 M343.5,301.6c0-22.8,0-45.8-0.7-68.6h38.5c-0.7,22.3-0.7,45.3-0.7,68.6V315c0,18.1,0,40.5,0.7,63.2h-38.5
			c0.7-22.3,0.7-45.3,0.7-68.6V301.6z M386.8,322.7H362v-12.4h25.1c19.5,0,29.2-13.6,29.2-33.8c0-20.3-10.8-30.8-30.1-30.8H362V233
			h24.5c46.1,0,64.4,17.3,64.4,43.7C451,301.9,434.8,322.7,386.8,322.7z"/>
		<path class="st3" d="M534.3,348.2c0-11.7-5.8-17-19.1-22.9l-9.4-4.3c-26.1-11.9-41.1-25-41.1-49.5c0-26.5,21.5-42.7,55-42.7
			c15.8,0,31,4.2,41.8,11.2l-1.8,31h-20.3l-5.4-33.4l17.8,6.3v11.1c-11.8-8.5-20.1-13.1-31.5-13.1c-12.6,0-22.8,8-22.8,20.1
			c0,11.7,7,17.8,20.1,23.7l10.4,4.8c28.2,12.7,39.8,24.9,39.8,47.3c0,26.1-20,44.6-57.8,44.6c-16.6,0-35.3-3.7-48-11.6l1.3-32.9
			H484l5.8,35.8l-17.1-5.4v-10.6c14,7.6,23.1,11.5,37.4,11.5C525.8,369.3,534.3,360.2,534.3,348.2z"/>
	</g>
</g>
<g>
	<path class="st4" d="M529.4,48.5c8.6-3.1,51-20.6,49.3-25.3c-1.7-4.7-46.9,5.1-55.5,8.2c-8.6,3.1-14.2,9.5-12.5,14.2
		C512.4,50.3,520.8,51.6,529.4,48.5z"/>
	<path class="st4" d="M579.4,64.5c-11-6.1-64.8-27.4-68.8-20.1c-4,7.3,43.3,40.4,54.3,46.4c11,6.1,23.2,5.1,27.3-2.2
		C596.2,81.4,590.5,70.6,579.4,64.5z"/>
	<path class="st5" d="M542.1,75.6c9.6,7,18.7,13,22.8,15.3c11,6.1,23.2,5.1,27.3-2.2c4-7.3-1.7-18.1-12.7-24.2
		c-4.2-2.3-14.8-6.9-26.4-11.3C542.9,60.2,542.1,75.6,542.1,75.6z"/>
	<path class="st4" d="M574.2,281c1.4,10,14.4,88.2,17.6,87c2.8-1.1,5-79.9,3.6-90c-1.4-10-7.3-17.5-13.2-16.7
		C576.4,262.2,572.8,271,574.2,281z"/>
	<path class="st6" d="M576.3,196.7c-2,14.5-6.3,96.6,3.9,98c10.2,1.4,32.3-89.1,34.3-103.6c2-14.5-4.7-27.4-14.9-28.8
		C589.4,160.9,578.3,182.2,576.3,196.7z"/>
	<path class="st4" d="M593.9,352l-0.1,19.1l3.3,10.8c0.2,0.7-0.3,1.5-1.1,1.5h-7.5v-2.4l-3.7,2.4c0,0-19.5,1.1-20.2,0
		c-2.5-4.1,8.8-5.6,17.1-8.8c8.3-3.2,2.6-34.7,2.6-34.7L593.9,352z"/>
	<path class="st4" d="M616.2,281c1.4,10,14.4,88.2,17.6,87c2.8-1.1,5-79.9,3.6-90c-1.4-10-7.3-17.5-13.2-16.7
		C618.4,262.2,614.8,271,616.2,281z"/>
	<path class="st6" d="M585.4,357.5h9.5c1.4-24.4,1.3-72.9,0.4-79.5c-1.4-10-7.3-17.5-13.2-16.7c-5.9,0.8-9.5,9.6-8.1,19.7
		C575.1,287.4,580.7,334,585.4,357.5z"/>
	<path class="st6" d="M608.2,187.8c-0.3,14.6,4.7,107.5,15,107.7c10.3,0.2,22-81.5,22.3-96.1c0.3-14.6-7.7-37.4-18-37.6
		C617.2,161.5,608.5,173.2,608.2,187.8z"/>
	<path class="st4" d="M635.9,352l-0.1,19.1l3.3,10.8c0.2,0.7-0.3,1.5-1.1,1.5h-7.5v-2.4l-3.7,2.4c0,0-19.5,1.1-20.2,0
		c-2.5-4.1,8.8-5.6,17.1-8.8c8.3-3.2,2.6-34.7,2.6-34.7L635.9,352z"/>
	<path class="st7" d="M594.3,372.5c-2.5,1.5-5.5,2.3-9.2,2.3c-1.2,0-2.4-0.1-3.5-0.3c-8.3,3.2-19.5,4.7-17,8.8
		c0.7,1.1,20.2,0,20.2,0l3.7-2.4v2.4h7.5c0.8,0,1.3-0.8,1.1-1.5L594.3,372.5z"/>
	<path class="st7" d="M635.9,371.3c-2.7,2.1-6.3,3.3-10.6,3.3c-0.5,0-1,0-1.5-0.1c-8.3,3.2-19.6,4.8-17.1,8.8c0.7,1.1,20.2,0,20.2,0
		l3.7-2.4v2.4h7.5c0.8,0,1.3-0.8,1.1-1.5L635.9,371.3z"/>
	<path class="st8" d="M630.9,67.1l-54.5-3.9c-10.9-0.8-19.3,9.3-16.6,19.8l23.5,93.2c2.8,11.1,13,18.8,24.4,18.5l0,0
		c12-0.3,21.9-9.3,23.6-21.1L643.8,83C644.9,74.9,639,67.7,630.9,67.1z"/>
	<path class="st5" d="M630.9,67.1l-16.7-1.2c1.2,6.3-2,13.5-10.2,14c-9.5,0.6-13.6-8.6-11.4-15.6l-16.2-1.2
		c-10.9-0.8-19.3,9.3-16.6,19.8l23.5,93.2c2.8,11.1,13,18.8,24.4,18.5c12-0.3,32.3-4.7,33.9-16.5l2.1-95.3
		C644.9,74.9,639,67.7,630.9,67.1z"/>
	<path d="M578.7,34.1c4.2,19.3,21.5,23.6,32.3,21.3c10.8-2.3,6.3-21.6,4.5-29.9c-1.8-8.3-11.4-10.8-22.2-8.5
		C582.5,19.3,576.9,25.8,578.7,34.1z"/>
	<polygon class="st8" points="595,65.9 614.2,65.9 611.9,31.6 600.2,41.4 	"/>
	<path class="st4" d="M644.8,110.3c16.1,16.9,36.2,24,40.3,20c4.3-4.1-5.8-22.5-20.9-39.2c-15.7-17.3-31.1-28-37.3-22.2
		C620.7,74.9,628.7,93.4,644.8,110.3z"/>
	<path class="st5" d="M664.1,91.2c-15.7-17.3-31.1-28-37.3-22.2c-5.9,5.6,1.1,22.5,15.5,38.6C642.4,107.7,661.3,100.5,664.1,91.2z"
		/>
	<path class="st4" d="M654.6,127.1c-9.1,2.4-49.4,16-48.1,21.2c1.4,5.1,44.3-1.6,53.3-4.4c16.4-5.2,27.5-11.7,26.1-16.8
		C684.6,121.9,663.7,124.7,654.6,127.1z"/>
	<path class="st4" d="M582.8,45.2c3,13.9,7.2,20.1,14.3,18.6c8.7-1.9,17.6-13.8,15.1-25.3c-2.5-11.4-9-17-17.7-15.1
		C585.9,25.4,580.4,33.8,582.8,45.2z"/>
	<path class="st9" d="M611,34.2l-22,4.8c-2.3,0.5-4.6,0.2-6.7-0.6c0.6-7.8,5.5-13.4,12.3-14.8C602.1,21.9,607.9,25.8,611,34.2z"/>
	<path d="M580.9,38.5l33-7.2l-2.7-12.6c-0.4-1.8-2.2-3-4.1-2.6l-33,7.2l2.7,12.6C577.2,37.7,579.1,38.9,580.9,38.5z"/>
	<path d="M608.5,41.5L608.5,41.5l-2.7-12.6l-5.5,1.2l1.5,7.1C602.5,40.2,605.5,42.2,608.5,41.5z"/>
	<path class="st4" d="M605.9,39.5c0.8,3.8,2.7,6.6,5.8,5.9c3.1-0.7,3.9-6.3,3.1-10.1c-0.8-3.8-3-4.3-6.1-3.6
		C605.6,32.4,605.1,35.7,605.9,39.5z"/>
	<path class="st10" d="M600.1,149.7H572c-1.9,0-3.5-1.4-3.7-3.3l-4.6-39.4c-0.3-2.2,1.5-4.2,3.7-4.2h28.1c1.9,0,3.5,1.4,3.7,3.3
		l4.6,39.4C604,147.7,602.3,149.7,600.1,149.7z"/>
	<path class="st11" d="M598.4,151.2h-28.1c-1.9,0-3.5-1.4-3.7-3.3l-4.6-39.4c-0.3-2.2,1.5-4.2,3.7-4.2h28.1c1.9,0,3.5,1.4,3.7,3.3
		l4.6,39.4C602.4,149.3,600.7,151.2,598.4,151.2z"/>
	<path class="st4" d="M606.5,137.8c0,0,6.9,5.7,5.9,8.4c-1,2.7-2.2,4.3-6.2,2.9c-4-1.4-8.7-5.1-11.2-8c-2.4-2.8-4.5-9.3-4.2-10.1
		c0.9-3,4.7,2.6,6.7,5.2c2,2.6,4.5,5.4,5.5,4.1c1-1.3-3.2-6-2.6-7.9C601.1,130.4,606.5,137.8,606.5,137.8z"/>
	<path class="st6" d="M627.3,357.5h9.4c1.4-24.4,1.6-72.9,0.6-79.5c-1.4-10-7.3-17.5-13.2-16.7c-5.9,0.8-9.5,9.6-8.1,19.7
		C617.1,287.4,622.5,334,627.3,357.5z"/>
</g>
</svg>
