<svg width="94" height="76" viewBox="0 0 94 76" fill="none" xmlns="http://www.w3.org/2000/svg">
<path d="M0.0136719 40.1277C0.2923 38.9119 0.482273 37.6707 0.862221 36.4929C2.57198 31.1863 6.00417 27.4121 11.1208 25.2084C11.7414 24.9425 11.9947 24.6132 12.096 23.9673C13.5651 14.4686 23.5451 9.6686 31.8912 14.4433C32.0179 14.5193 32.1572 14.5826 32.3598 14.6839C35.6401 8.46544 40.5414 4.14671 47.2538 2.057C52.1424 0.524542 57.0691 0.587867 61.9577 2.12032C71.4564 5.09657 79.4733 14.19 79.22 26.6143C80.4105 26.9309 81.6517 27.1462 82.8168 27.5894C89.0606 29.9704 92.7335 34.4792 93.8226 41.0776C93.848 41.2549 93.9366 41.4195 93.9873 41.5842C93.9873 42.7493 93.9873 43.9145 93.9873 45.067C93.6833 46.2702 93.4807 47.5113 93.0754 48.6892C90.6691 55.6422 84.5646 59.9863 77.067 60.0496C71.5957 60.1003 66.1118 60.0623 60.6406 60.0623C59.4627 60.0623 58.6649 59.6063 58.4242 58.7831C58.1709 57.9346 58.3609 57.1367 59.1208 56.6934C59.6147 56.4148 60.2733 56.3008 60.8685 56.3008C66.3145 56.2755 71.7604 56.3135 77.2063 56.2755C83.7794 56.2248 88.9593 51.7668 90.0738 45.3077C91.353 37.8607 85.4385 30.6037 77.8902 30.3884C75.7751 30.3251 75.1799 29.5398 75.3572 27.4375C75.8385 21.7509 74.2554 16.6343 70.5952 12.2776C66.2638 7.12296 60.6279 4.47599 53.9029 4.76729C45.1261 5.14723 38.9203 9.56729 35.2348 17.5335C34.9941 18.0528 34.7788 18.6354 34.3989 19.0406C33.601 19.8892 32.5372 19.7499 31.41 18.7367C28.4591 16.115 24.2796 15.5198 20.8221 17.3689C17.5672 19.104 15.8575 21.8902 15.7308 25.6011C15.6675 27.2095 15.3129 27.7034 13.8058 28.1847C8.01789 30.0084 3.26855 35.7836 3.85114 43.2686C4.31974 49.3098 9.15773 54.7937 15.4015 56.0095C16.4781 56.2248 17.5926 56.2755 18.6817 56.2755C23.5451 56.3008 28.4084 56.2755 33.2717 56.3008C33.7783 56.3008 34.3356 56.3895 34.7662 56.6048C35.4374 56.9467 35.754 57.5926 35.6781 58.3652C35.5894 59.1377 35.1715 59.6697 34.4369 59.9103C34.1203 60.0116 33.7783 60.0749 33.449 60.0623C27.9145 60.0369 22.3799 60.1383 16.8453 59.9356C9.47436 59.6697 2.64797 54.0211 0.760901 46.8781C0.494938 45.8522 0.279635 44.8137 0.0390017 43.7752C0.0136719 42.572 0.0136719 41.3562 0.0136719 40.1277Z" fill="#E9C460"/>
<path d="M45.1381 40.229C44.7581 40.571 44.5428 40.7609 44.3402 40.9636C42.6051 42.686 40.8953 44.4338 39.1476 46.1435C37.9951 47.2707 36.4499 47.0301 35.918 45.6876C35.6014 44.8897 35.842 44.1678 36.4119 43.5852C39.9075 40.077 43.4156 36.5815 46.9618 33.0354C47.1391 33.162 47.3164 33.276 47.4558 33.4153C50.7866 36.7462 54.1175 40.077 57.4484 43.4079C58.3096 44.2691 58.4616 45.143 57.9676 45.9536C57.423 46.8401 56.4225 47.1187 55.5106 46.5868C55.1434 46.3715 54.8141 46.0802 54.5228 45.7889C52.699 43.9778 50.8879 42.1668 48.8742 40.1404C48.8742 40.7103 48.8742 41.0269 48.8742 41.3309C48.8742 51.7288 48.8742 62.1266 48.8616 72.5245C48.8616 73.0818 48.7856 73.715 48.5323 74.1963C48.203 74.8169 47.5444 75.1082 46.8098 75.0068C46.0499 74.9055 45.48 74.5256 45.29 73.753C45.1887 73.3097 45.1507 72.8538 45.1507 72.3979C45.1381 62.0633 45.1507 51.7161 45.1507 41.3815C45.1381 41.0902 45.1381 40.7609 45.1381 40.229Z" fill="#E9C460"/>
</svg>
