<?xml version="1.0" encoding="utf-8"?>
<!-- Generator: Adobe Illustrator 22.0.0, SVG Export Plug-In . SVG Version: 6.00 Build 0)  -->
<svg version="1.1" id="Calque_1" xmlns="http://www.w3.org/2000/svg" xmlns:xlink="http://www.w3.org/1999/xlink" x="0px" y="0px"
	 viewBox="0 0 1080 1080" style="enable-background:new 0 0 1080 1080;" xml:space="preserve">
<style type="text/css">
	.st0{fill:#CB180B;}
	.st1{fill:#FEFEFE;}
</style>
<g>
	<path class="st0" d="M816.7,995c-1.3,0.1-2.7,0.3-4,0.3c-128.8,0-257.5,0-386.3,0c-1.3,0-2.7-0.2-4-0.2c-0.5-2.1,1.1-2.8,2.4-3.8
		c2.1-1.6,3.7-3.6,3.5-6.4c-0.1-3.2-1.6-5.9-5-5.7c-10.7,0.7-21-1.9-31.7-1.9c-22.2-0.1-44.3,0.1-66.5-0.3
		c-13.3-0.2-26.6-0.8-39.9-0.8c-6.9,0-13.8-0.5-20.5-1.9c-4.9-1.1-6.2-2.8-6.2-7.9c-0.2-13.6-0.1-27.2,0.2-40.8
		c0-0.9,0.3-1.8,1.1-2.3c1.8-0.9,3.8-0.6,5.8-0.6c117.3,0,234.5,0,351.8,0c1.9,0,3.9-0.3,5.8,0.6c2.6,2.7,2.8,6.2,2.9,9.6
		c0.2,9.9,0,19.8,0.1,29.7c0,7.7,1.1,8.6,8.8,9c26.5,1.3,53.1,0.9,79.6,0.8c8.3,0,16.4,1.3,24.7,1c6-0.2,12-0.8,17.9-0.8
		c12.4,0,24.8,0.5,37.1,2.1c4.1,0.5,8.4-0.1,12.6,0.6c5.4,0.8,8.4,3.7,7.8,9C814,988.2,817.1,991.2,816.7,995z"/>
	<path class="st0" d="M419.6,171.2c9-15.9,17.1-32.3,29.5-46.1c20-22.1,44.8-35.2,74-39.2c23.5-3.3,46.5-0.2,68.1,10.1
		c2.1,1,4.6,1.3,6.3,3.2c-0.4,4.7-4.3,3.6-7.4,4.5c2.9,2.7,2,4.3-1.4,5.1c-0.9,0.2-1.9,0.4-1.8,1.6c0.1,0.9,0.9,1.2,1.6,1.3
		c3.8,0.2,6.2,2.8,8.8,5c6.7,5.5,12.6,11.9,18.8,17.9c9.1,8.8,14.4,20.2,20.5,31c13.3,23.3,26.5,46.6,39.9,69.9
		c6.7,11.7,13.5,23.3,20.1,35.1c1.1,1.9,2.9,4.1,0.4,6.4c-2.5-0.1-3.6-1.9-4.8-3.7c-3.3-5.3-6.7-10.6-10.7-15.5
		c-3.9-4.8-5.5-10.9-9-16c-1.5-2.2-3.1-4.4-4.7-7.5c0,4.8,0.8,8.8,0.9,12.9c0,15-0.3,29.9,0.2,44.9c0.1,3.1-0.5,6.2-0.6,9.4
		c-0.1,2.2-0.9,4.2-3.8,4c-2.6-0.7-3.7-2.9-4.9-5c-21.3-37.2-43-74.2-64.2-111.4c-7.7-13.6-17.5-24.6-32.3-30.5
		c-27.4-10.9-59-1.9-75.5,24.5c-1.1,1.7-1.9,3.9-4.5,3.8c-3.7-2-4.3-5.4-4.3-9.2c0-13.6,0-27.3,0-40.9c0-1.7,0.9-4-1.1-4.9
		c-1.6-0.7-2.9,1.3-4.1,2.3c-7.7,6.5-14.4,14.2-19.5,22.8c-9.2,15.5-18.4,30.9-27.5,46.4c-9,15.5-17.9,31.2-27.1,46.6
		c-1.2,2-2.2,4.4-5.2,4.4c-2-1.7-0.9-3.5-0.2-5.3c2-4.7,4.9-8.9,7.3-13.4c7.2-14,15-27.6,22.7-41.4c1-1.8,1.3-3.5,1.2-5.6
		c-0.3-5.1,1.5-10,1.3-15.1c-0.1-1.8,0.2-3.8-0.1-6.3c-0.3,2.7,1.5,5.8-1.6,6.6C423.2,174.4,420.4,174.2,419.6,171.2z"/>
	<path class="st0" d="M816.7,995c-4-2.4-4.6-6.2-4.2-10.3c0.5-4.9-0.5-6.5-5.3-7.6c-6.5-1.4-13.1-1.3-19.6-1.8
		c-7.4-0.6-14.9,0.3-22.4-0.9c-5.5-0.9-11,0.9-16.5,0.7c-32.5-1-65-0.5-97.5-1.1c-7.4-0.1-14.9,0.1-22.3-1.2c-3.7-0.6-5-2.5-4.9-6.2
		c0.1-9.4-0.1-18.9,0.1-28.3c0.1-4.8-1-9.5-1-14.3c1.2-1.8,3.1-1.5,4.9-1.5c52.6,0,105.2,0,157.8,0c1.5,0,3-0.1,4.4,0.7
		c1.8,2.1,0.3,3.3-1.3,4.2c-1.9,1.1-2.4,2.8-2.7,4.8c-1.6,11-0.6,22.1-0.8,33.2c-0.1,3.3,1.5,4.7,4.8,5.2c9.2,1.2,18.5,1.5,27.7,1.6
		c19.1,0.2,38.2,1.4,57.3,1.1c1.5,0,3-0.1,4.4,0.7c1,0.6,1.8,1.5,1,2.5c-2.5,2.9-2.4,6.2-2.1,9.6c0.1,1.5-0.8,2.8-1.6,4.2
		c1.3,1.8,5.3,1.1,4.6,4.8C859.9,995.4,838.3,995.4,816.7,995z"/>
	<path class="st0" d="M129.8,992.3c-8.7-0.3-16.5-3.8-24.1-7.3c-29.7-13.6-51-35.6-63.6-65.8c-5.2-12.6-8-25.8-8.8-39.6
		c-1.5-26.9,6.2-51.1,19.6-74.1c23.9-40.9,47.4-82.1,71.1-123.1c0.1-0.3,0.3-0.5,0.5-0.7c1.4-0.6,2.4-2.8,4.2-1.7
		c1.7,1.1,0.5,3,0.5,4.5c0.1,8.6-1.3,17.3,0.6,25.9c0.4,1.8-0.7,3.5-0.5,5.3c-0.1,2.7-1.6,4.8-2.9,7c-13.1,22.9-26.4,45.7-39.6,68.5
		c-6.4,11.2-13,22.3-19.2,33.6c-6.7,12.1-10.3,25.1-11.8,38.9c-2.3,22,2.6,42.4,13.8,61.2c8.9,15.1,21.2,27.2,36.7,35.6
		c5.9,3.2,11.8,6.5,18.5,8.1c1.6,0.4,3.1,1.1,4.2,2.4c4.5,5.4,3.2,12.1,4,18.3C133.3,991.2,131.4,991.8,129.8,992.3z"/>
	<path class="st0" d="M697.8,276.6c-3.2-8.2-8.4-15.4-12.6-23.2c-6.2-11.6-13.1-22.8-19.7-34.2c-9.1-15.8-18.1-31.7-27.1-47.5
		c-5.7-10-10.8-20.4-17.8-29.5c-3.4-4.4-7-8.6-11.6-12.1c-5.5-4.2-9.4-10.3-15.3-14.3c-1.5-1.1-2.7-2.1-4.6-2.1
		c-2.3,0-4.9-0.3-4.6-3.5c0.3-2.8,2.3-3.6,4.9-3c0.4,0.1,0.8-0.1,1.2-0.1c0-0.4,0.1-0.8,0-0.9c-1.4-1.2-5,0.5-4.7-1.9
		c0.3-2.1,4.1-3,6-2.7c2.8,0.5,4-0.9,5.7-2.2c7.5,4.4,14.8,9,21.5,14.9c6.3,5.6,12,11.6,17.6,17.8c4.8,5.4,8.2,11.9,11.9,18.1
		c11.3,19.3,22.4,38.6,33.6,58c29.1,50.4,58.2,100.8,87.2,151.3c5.1,8.8,10,17.6,15,26.5c0.4,3.3,0.7,6.5,4.5,7.9
		c1.2,2.1,2.4,4.2,3.6,6.3c0.5,2-0.5,3.2-2.2,3.8c-2.5,0.8-3.7-1.2-5.5-3c-1,2.5-1.9,4.8-3.5,6.6c-1.9,2.3-3.8,2.5-5.9,0.2
		c-1.8-1.9-2.9-4.5-5.5-5.7c-6.5-7.8-10.7-16.9-15.9-25.5c-13.2-22.1-25.7-44.7-39-66.8c-3.9-6.4-7.5-12.9-11.1-19.5
		c-0.9-3.6-2.7-6.6-5.4-9.1C697.5,279.5,696.5,278.2,697.8,276.6z"/>
	<path class="st0" d="M419.6,171.2c1.3,1.1,3.6-0.9,4.7,1.8c0.3,0.8,1.9-1,1.3-1.7c-3.3-3.9-0.1-5.9,2.1-8.4
		c1.4,0.7,1.1,2.1,0.9,3.2c-1,6.6-0.9,13.3-1.1,19.8c-0.4,11.6-8.1,18.9-12.4,28.1c-3.9,8.2-8.4,16.1-12.7,24.1
		c-2.8,5.2-6.3,10.1-7.9,15.9c1.9,3.3-0.7,5.8-2.1,8.2c-6,10.2-12,20.4-17.9,30.6c-9.2,15.9-18.1,32-27.4,47.9
		c-8.1,14-15.6,28.3-24.2,42c-3.5,4-5.6,8.8-8.1,13.4c-15,27.2-30.8,53.9-46.3,80.7c-9,15.6-17.7,31.3-26.9,46.8
		c-1.3,2.2-1.9,5.7-5.9,4.9c-1.4-3.6,1-6.3,2.4-9.1c5.7-11,13.1-21.1,17-33c0.4-1.2,0.8-2.1,0.5-3.4c-1.6-7.9-1-15.8,0.6-23.6
		c0.4-2-0.2-3.9,0.3-5.8c12.1-21.1,24.2-42.3,36.4-63.4c37.1-64.4,74.3-128.7,111.5-193.1C409.4,188.4,414.5,179.8,419.6,171.2z"/>
	<path class="st0" d="M259.4,924.1c1.2,2.4,1.5,4.6,1.3,7.6c-0.8,12.4-0.4,24.9-0.4,37.3c0,2,1.4,2.3,2.9,2.8
		c5.7,2.2,11.9,2.1,17.7,2.2c11.4,0.2,22.9,0.5,34.4,0.8c24.9,0.7,49.9,0.4,74.8,0.5c11,0,21.6,2.5,32.6,1.8
		c6.3-0.4,9.5,6.1,7.1,11.9c-1.5,3.8-5.4,3.6-7.4,6c-1.2,0.1-2.4,0.2-3.6,0.2c-60.6,0-121.3,0-181.9,0c-1.2,0-2.4-0.2-3.6-0.2
		c-1-3.9,2-4.2,4.4-4.5c3.6-0.4,7.2-0.1,10.9-0.1c-2.4,0-4.8,0.1-7.2,0c-3.7-0.3-5.6-2.6-5.3-6.3c0.3-3.5,2.1-4.9,5.4-3.7
		c2.5,0.9,4.9,1.1,7.5,0.8c0.8-0.1,1.5-0.4,1.6-1.3c0.1-1.1-0.7-1.5-1.7-1.7c-0.4-0.1-0.9-0.2-1.3-0.1c-7,1.2-13.9-0.8-20.8-0.8
		c-6.2,0-12.2-1.1-18.3-1.7c-4.5-0.4-6.1-2.5-6.2-7.2c-0.1-11.8,0.1-23.7-0.1-35.5c0.2-2.8-0.8-5.5-1.1-8.2c0.2-0.9,0.7-1.4,1.5-1.8
		c7.8-0.8,15.5-0.3,23.3-0.3c9.4-0.1,18.8-0.1,28.3,0C256,922.6,258.1,922.1,259.4,924.1z"/>
	<path class="st0" d="M256.5,453.5c4.2,3.7,0.5,7.8,0.6,11.7c0.2,6.2-2.3,12.6,1.5,18.6c0.2,0.4,0.1,1.2-0.1,1.6
		c-5.2,10.1-10.3,20.2-15.8,30.2c-2.4,4.3-5.4,8.2-6.7,13c1.8,2.4,0,4.3-1,6.1c-8.8,15.8-18.2,31.3-27,47.2
		c-6.7,12.2-14.2,23.9-20.4,36.4c-7.8,11.7-14.4,24.1-21.5,36.2c-11.3,19.4-22.7,38.7-33.9,58.2c-0.9,1.6-1.6,3.8-4.2,3.1
		c-0.8-9.8-1.2-19.5-0.8-29.3c0.1-2-0.2-3.9,1.6-5.3c-1.9-1.4-2.7,1.7-4.3,0.5c16.7-28.8,33.4-57.6,50-86.5c19.1-33,38.1-66,57.1-99
		C239.9,481.9,248.2,467.8,256.5,453.5z"/>
	<path class="st0" d="M770.7,400.8c2.6,1.2,3.6,3.9,5.4,5.8c1.4,1.4,2.3,2.2,3.6-0.2c1.2-2.2,2.9-4,3.1-6.8c0.1-1,0.2-2.7,1.7-2.7
		c1.3-0.1,1.2,1.4,1.6,2.3c1.8,4.5,3,4.6,6.2,0.7c6.1,8,10.4,17,15.4,25.6c21.7,37.4,43.2,74.9,64.8,112.3
		c12.7,22,25.4,44,38.1,66.1c0.4,0.6,0.6,1.4,0.9,2c-2.8,2.7-3.2,6.1-3,9.7c0.2,3.7,0.4,7.5-0.2,11.1c-0.6,4.1-2.6,5.2-6.4,4
		c-1.5-0.8-2.4-2.2-3.2-3.6c-8-13.8-16.2-27.4-23.9-41.3c-5.3-10.4-11.2-20.5-17.2-30.4c-6.8-11.3-13.5-22.7-20.1-34
		c-10.2-17.5-20.3-35-30.4-52.5c-11.6-20.3-23.3-40.5-35-60.7C770.8,406,768.5,403.8,770.7,400.8z"/>
	<path class="st0" d="M1002.1,762.7c11.9,20.7,25.2,40.7,35,62.5c5.8,12.9,8.8,26.5,9.6,40.8c1.7,31.4-7.4,59.3-26.7,83.8
		c-3.9,5-7.8,10.2-13.3,13.8c-3.1-0.1-6.1-1.1-9.3-0.7c-2.8,0.4-4.4-2-3.9-5.6c0.7-5.2,2.2-10.2,6-14.1c1.3-1.3,2.1-2.9,2.2-4.8
		c1.4-4.1,4.6-7,6.8-10.5c10.1-16.1,15.6-33.4,16.2-52.6c0.6-21.7-6.4-40.9-17.1-59.1c-1.4-2.5-2.9-4.9-3.9-7.6
		c-0.3-2.1,0-4.4-2.5-5.5c-2.7-3.2-5-6.7-6.3-10.8c-3-9.9-2.9-20-2.6-30.1c0.1-1.6,0.3-3.2-0.3-4.9c-1.6-4.6-1.1-5.2,3.9-5.7
		c1.5,2.7,3.1,5.4,4.6,8.1C1000.3,761.3,1000,762.7,1002.1,762.7z"/>
	<path class="st0" d="M995.8,751.8c-0.3,2.5-2.6,1.3-4.3,2c2.6,2.6,3,5.2,2.8,8.6c-0.6,10.1-1.3,20.3,2.4,30
		c-3.4,0.4-4.2-2.5-5.4-4.5c-6.9-12.3-14.2-24.4-21.2-36.6c-18.9-32.7-37.6-65.5-56.8-98.1c-3.6-6.1-6.9-12.3-10.4-18.4
		c-0.9-1.6-2.3-3.3-0.8-5.3c4.1,2.7,4.2-0.8,4.4-3.1c0.3-4.7,0.7-9.6-0.1-14.3c-0.7-4.6,1.1-6,5-6.2c7.2,12.2,14.4,24.4,21.5,36.7
		c20.1,34.8,40.2,69.6,60.3,104.4C994.2,748.6,995,750.2,995.8,751.8z"/>
	<path class="st0" d="M1003,939.2c0.2,2-1,3.3-2.3,4.6c-4.1,4.1-4.9,9.6-5.7,15c-0.3,1.8-0.5,3.9,3.1,2.4c2.7-1.1,6.6-1.3,8.6,2.5
		c-16.7,15.7-36.4,25.1-58.9,29.6c-11,2.2-22,2.1-33.1,2.1c-8.1,0-16.2-0.2-24.3-0.3c-2.4-1.6-4.8-1.1-7.3,0c-0.6,0-1.2,0-1.7,0
		c-1.8-3.1-6.4-1.4-8.5-5c3.9-0.6,4.5-3.1,3.6-6.2c-1.2-4.1,0.1-6.9,3.9-8.7c1.5-2.3,3.9-1.8,6.1-1.9c11.6-0.5,23.2,0.9,34.9,0.6
		c3.6-0.1,7.1-0.2,10.6-1.1c25-1.9,46.3-11.8,63.9-29.7C997.9,941.2,999.5,938.3,1003,939.2z"/>
	<path class="st0" d="M203.6,932c0,12,0,23.9,0,35.9c0,4.4,1.7,5.3,5.8,6.1c8.9,1.6,18.1,0.1,26.9,2.6c3.9,1.1,8.2-1,12.4-0.6
		c2.5,0.3,4.9-0.4,4.8,3.8c-0.1,4.2-2.6,3.4-4.8,3.4c-3.1,0-6.3,0.8-9-1.7c-1.1-1.1-2.1-0.1-2,1.2c0.2,2.1-1.5,5.3,2.2,5.8
		c2.9,0.4,6,0.1,9,0.2c2.1,0,4.2,0,6,1.9c-1.1,1.9-2.9,1.6-4.6,1.7c-4,0-8.1,0-12.1,0c-2.1,0-4.3,0.1-5,2.7
		c-10.3,0.1-20.6,0.3-30.9,0.2c-19.9-0.2-39.7,0.7-59.6-0.5c-4.4-0.3-8.8-1-13-2.5c3.1-4.4,0.4-9.1,0.5-13.6c0.1-2.4-1-4.9-2.3-7.1
		c1.3-1.6,3.1-1.6,4.9-1.2c19.6,4.7,39.2,1.9,58.9,0.8c0.6,0,1.2-0.2,1.8-0.2c7.1-0.2,7.1-0.2,7.2-7.2c0-8.8-0.1-17.7,0.1-26.5
		C200.9,935.2,200.4,932.6,203.6,932z"/>
	<path class="st0" d="M788.7,393.6c-6.2-0.3-6.8-1.4-4.5-7.9C786.3,388,787.8,390.7,788.7,393.6z"/>
	<path class="st0" d="M1002.1,762.7c-0.2,0.8,0.2,2-1,2.1c-0.6,0-1.4-0.5-1.7-1.1c-1.1-1.6,0-2.8,1.2-3.8
		C1001,760.9,1001.6,761.8,1002.1,762.7z"/>
	<path class="st0" d="M883.2,995c2.4-2,4.8-3.1,7.3,0C888.1,995,885.7,995,883.2,995z"/>
	<path class="st0" d="M203.6,932c-1.3,1.5-0.9,3.4-0.9,5.2c0,10.2,0,20.4,0,30.5c0,4.7-1.2,5.5-5.8,5.7c-12.3,0.4-24.7,1-37,1.7
		c-8.4,0.5-16.7-0.5-24.9-2.2c-2.3-0.5-4.7-0.9-7-1.3c-12.5-3.6-24.1-9.1-34.3-17.2c-21-16.6-34.3-37.8-38.7-64.5
		c-4.3-26.1,1.2-50,14.8-72.5c8.1-13.3,15.4-27,23.1-40.5c10.4-18.1,21-36.2,31.4-54.3c1.3-2.2,2.4-4.5,3.6-6.7
		c4-5.2,6.8-11.2,10.1-16.8c12-20.5,23.7-41.2,36.1-61.6c4-6.6,6.9-14,12.3-19.7c3.3,1.6,2.8,4.7,2.8,7.4c0.1,19.6,0,39.2,0.1,58.8
		c0,3.4-0.1,6.9,1.7,10c0.6,2.4-0.5,4.4-1.6,6.3c-10.8,18.9-21.7,37.7-32.5,56.5c-13.9,24.1-28.1,48.2-41.8,72.5
		c-13.8,24.5-10.9,51.7,7.9,72.6c10.8,11.9,24.7,18.3,40.9,19.2c2.7,0.1,5.4,0,8.1,0c246,0,492.1,0,738.1,0.1
		c3.4,0,7.3-1.3,10.2,1.9c-1.4,4-4.8,2.5-7.6,2.7c-4.3-1.2-8.6,0.1-13,0.1c-34.2,0-68.3,0-102.5,0c-2.4,0-4.9,0.2-6.7-1.7
		c-35.8,0-71.7-0.1-107.5-0.1c-19.9,0-39.9,0.1-59.8,0.1c-12.7,0-25.5-0.1-38.2-0.1c-106.6,0-213.1,0-319.7,0
		c-1.9,0-3.9,0.1-5.8,0.2c-19.2,0-38.4,0-57.6,0c-2.1,1.2-4.4,0.2-6.3,0.8c1.9,0,4.2-0.8,6.3,0.7C204.8,927.1,204.4,929.5,203.6,932
		z"/>
	<path class="st0" d="M920.2,923c-145.1,0-290.1,0.1-435.2,0.1c-105.6,0-211.2,0.1-316.9,0c-23.1,0-41.3-9.7-53.6-29.3
		c-13.4-21.4-13.7-43.8-1.1-65.7c24.6-43.1,49.6-86,74.4-129c0.9-1.5,2.2-2.9,2.3-4.8c-0.9-2.6,0.3-4.6,1.6-6.7
		c8.8-15,17.9-29.7,26.6-44.8c24.5-42.7,49.3-85.3,73.8-128c8.7-15.2,17.8-30.2,26.1-45.6c1.8-3.3,4.4-6,5.9-9.5
		c23.2-40.6,46.8-81,70.1-121.5c16.5-28.7,33.4-57.2,49.4-86.2c8.4-15.3,17.6-30.3,26.2-45.5c3.2-5.6,6.6-11,9.6-16.7
		c0.9-1.7,1.6-3.7,4.2-3.4c4.8-7.4,9.8-14.6,16.9-20.2c30.6-24.4,74.7-16,94.6,18.3c21.1,36.3,42,72.7,63,109
		c2.2,3.8,4.4,7.4,6.7,11.2c2.4,1.4,4.1,3.3,5.3,5.8c3.3,6.7,7.4,12.9,10.9,19.5c1.1,1.6,2,3.3,2.9,5c10.3,16.7,19.8,33.9,29.6,50.9
		c29.5,50.9,58.8,101.8,88.3,152.7c15.9,27.4,31.5,54.9,47.5,82.2c0.8,1.3,1.4,2.7,1.9,4.1c0.5,1.2,1.2,2.2,2,3.2
		c0.4,0.5,0.7,1.1,1,1.7c10.4,17.2,20.2,34.7,30.3,52.1c27.5,47.5,54.7,95.2,82.4,142.5c11.9,20.3,14.2,41.3,4.5,62.8
		c-8.8,19.6-24.1,31.7-45.1,36.5C924.2,924,922,924.7,920.2,923z"/>
	<path class="st0" d="M850.3,625.8c-8.1-12.3-14.9-25.4-22.3-38.2c-48.1-83.2-96.1-166.5-144.2-249.7c-0.5-0.9-0.9-1.9-1.3-2.8
		c0.8-2.5,0-4-2.6-4.5c-5.5-8.4-10.3-17.3-15.1-26.1c2.1,0.1,2.4-1,2.2-2.9c-0.5-5,0.5-9.9,0.4-14.9c-0.4-12.7-0.3-25.5,0-38.2
		c0.1-5.3-1.3-10.4-1-15.6c0.1-1.1-0.6-2.8,0.9-3.2c1.6-0.5,1.7,1.3,2.1,2.4c1,2.8,3,4.8,4.4,7.2c5.1,8.7,9.4,17.9,16.1,25.7
		c3,3.5,4.6,8.3,8,11.7c0,1.5,1.2,2.4,1.8,3.6c1.9,3,3.5,6.1,5.4,9c9.3,15.8,18.5,31.7,27.8,47.5c8.4,14.3,16.9,28.4,25,42.8
		c4.1,7.3,8.2,14.4,12.9,21.3c2.2,7.2,6.8,13.2,10.5,19.7c10.4,18.2,21,36.2,31.5,54.3c11.6,19.9,23.2,39.8,34.6,59.8
		c9.7,16.9,19.2,33.8,28.7,50.7c-3.5,1.2-4.7-1.4-6.2-3.7c-4.5-6.6-9.8-12.7-12.4-20.5c1.8,13.6,0.4,27.1,0.7,40.5
		c0.2,7.3,0.2,14.7-0.1,22c-0.2,4.7-1.6,6-5.7,5.9c-0.2-0.4-0.4-0.7-0.6-1.1C851,627.8,851.7,626.2,850.3,625.8z"/>
	<path class="st0" d="M483.5,186.3c-5.5,9.4-11,18.8-16.3,28.3c-6,10.6-12.5,20.9-18.3,31.5c-12.2,22.4-25.2,44.4-38,66.5
		c-28,48.7-56.2,97.3-84.3,145.9c-0.4,0.6-0.9,1.2-1.3,1.8c-0.9,1.2-2.5,1.6-3.3,3c-0.8,1.3-2.1,2.4-3.7,1.7c-2-0.8-2.3-2.9-1.8-4.6
		c1.1-4.2,0.4-8.3,0.4-12.5c0-12.7,0-25.5,0-38.2c0-3.4,0-6.9-1-10.2c-1.1-3.6,0.3-6.8,2-9.8c1.4-2.5,2.6-5,3.5-7.7
		c11.3-19.6,22.8-39.2,33.9-59c11.6-20.7,23.2-41.4,35.6-61.6c1.4-2.3,2.3-4.8,3.4-7.2c4.5-4.4,6.7-10.2,9.8-15.4
		c10.2-17.2,20.1-34.7,30.2-52c6.5-11.1,12.8-22.3,19.9-33.1c5.8-8.9,12.8-17,21.3-23.5c1.1-0.8,2.1-1.9,3.6-1.3
		c1.8,0.6,1.6,2.3,1.6,3.8c0,14.1,0.1,28.2,0,42.3C480.8,178.9,480.7,182.9,483.5,186.3z"/>
	<path class="st0" d="M790.5,924.1c40.8,0,81.6,0,122.4,0c0.4,2.3-1.3,3.3-2.9,3.9c-2.4,0.8-3,2.4-3.5,4.6
		c-1.1,5.4-0.5,10.7-0.6,16.1c-0.1,5.7,0,11.4,0,17c0,3.1,1.3,4.4,4.4,5c6.2,1.2,12.3,2,18.6,1.7c1.8-0.1,3.6,0,4.8,1.9
		c-1.5,1.3-3.4,0.9-5.2,0.9c-16,0-32,0-48,0c-11.7,0-23.3,0.6-34.9-0.1c-16.7-1-33.5-0.6-50.2-1.7c-2.8-0.2-5.6-0.6-8.5-1
		c-2.5-0.3-3.6-2-3.6-4.4c0.2-12.7-0.7-25.5,0.9-38.2c0.3-2.2,1.2-3.7,3.4-4.1C788.9,925.5,790.1,925.6,790.5,924.1z"/>
	<path class="st0" d="M705,289.2c-2.8-2.4-4.5-5.5-5.4-9C702.4,282.6,704.1,285.7,705,289.2z"/>
	<path class="st0" d="M321.5,381.9c0,0.4,0.1,1,0,1.3c-6.5,11.7-1.8,24.3-2.5,36.4c-0.6,9.7-0.1,19.5-0.1,29.2
		c0,4.1,1.6,8.4-0.8,12.4c-0.4,0.7-0.5,2.3,0.8,2.7c1.4,0.4,1.8-1,1.9-1.9c0.4-3.9,2.9-1.8,4.7-1.7c-7.7,13.6-15.4,27.2-23.2,40.8
		c-32.6,56.6-65.3,113.2-98,169.7c-4.6,7.9-9.3,15.7-14,23.5c-2.3-2.1-2.8-4.7-2.8-7.7c0.1-20.5,0-40.9,0.1-61.4
		c0-2.6-0.2-5.1-0.9-7.5c3.4-9.5,9.4-17.6,14.3-26.3c11.4-20.3,23.1-40.4,34.6-60.7c0.4-0.6,0.5-1.4,0.7-2.1c5-6,8.2-13.2,12.1-19.8
		c11.6-19.7,23-39.6,34.4-59.4c10.9-19.1,21.7-38.2,32.6-57.3C317.1,388.7,319.4,385.3,321.5,381.9z"/>
	<path class="st0" d="M201.8,925.6c-3.4-1.1-7.4,2.6-11-1.5c4,0,7.5,0,11,0C201.8,924.6,201.8,925.1,201.8,925.6z"/>
	<path class="st0" d="M933.7,974.3c-8.7,0.4-17.3-0.3-25.8-1.8c-3-0.5-4-2-3.9-4.9c0.3-12.8-0.5-25.7,0.7-38.5
		c0.2-2.2,1.2-2.5,2.8-2.5c2.2-0.1,4.1-0.6,5.5-2.5c2.4-0.5,5,0.6,7.3-1.1c12.7-2.1,24.2-6.7,33.9-15.4
		c22.9-20.5,28.1-52.7,12.5-79.8c-24-41.7-48.1-83.3-72.1-124.9c-14.1-24.4-28.1-48.8-42.1-73.2c3-1,4-3,4-6.1
		c-0.1-18-0.1-35.9,0-53.9c0-3.5-2.1-6.6-1.8-10.1c0.1-1.3-0.5-3,1.3-3.4c1.5-0.3,1.7,1.4,2.4,2.3c3.5,5,4.2,11.8,9,15.9
		c3.8,3.2,3.6,9.4,9,11.1c7.9,13.4,15.8,26.9,23.8,40.3c0.8,1.3,1.6,2.5,2.3,3.8c4.8,8.6,9.6,17.2,14.5,25.8
		c9.5,16.5,19,32.9,28.5,49.4c9.4,16.2,18.7,32.4,28.1,48.6c7,12,14,24,20.9,36.1c0.7,1.2,1.2,2.5,2.5,3.1c1.1,3.7,3.7,6.5,5.4,9.9
		c2,1.3,2.1,3.5,2.7,5.4c9.7,15.4,17.8,31.5,20.6,49.6c2.7,17.4,0.9,34.4-5.1,51.1c-4.1,11.3-10.4,21.1-17.3,30.7
		c-6.8,5.6-12.2,12.7-19.7,17.5C968.1,966.4,952.1,973.6,933.7,974.3z"/>
	<path class="st0" d="M1004.8,807.7c-0.9-1.8-1.8-3.6-2.7-5.4C1005.4,802.9,1004.6,805.5,1004.8,807.7z"/>
	<path class="st0" d="M340.4,508.8c9-15.7,17.9-31.5,26.9-47.2c36-62.4,72.1-124.9,108.1-187.3c0.8-1.4,1.8-2.7,2.7-4.1
		c1.6-1.9,3.1-3.9,3.6-6.4c1.1-2.6,2.2-5.2,4.1-7.2c3.8-2.1,4.3-6.3,5.8-9.8l0,0c3.1-1.4,4.4,0.5,5.2,3c0.5,1.6,0.3,3.3,0.3,4.9
		c0,25.6,0,51.2,0,76.9c0,1.3,0,2.7-0.1,4c-0.3,2.4-1.2,4.5-4,4.6c-2.8,0.1-3.8-2-4.1-4.5c-0.1-1.2-0.1-2.4-0.1-3.6
		c0-16.6,0-33.3,0-49.9c0-3.6,1-7.1,0.6-10.3c0.2,2.6,0.2,5.5-2.5,7.6c-1.3,1-1.3,2.7-1.3,4.2c-0.1,18.6,0,37.2,0,55.7
		c0,2.5,0.8,4.2,3.3,5.3c1.8,0.8,3.3,2.1,3.6,4.3c0,1.1-0.4,1.9-1.3,2.5c-4.3,0.9-4.3,0.9-2.9,5.7c-2,6.1-5.4,11.6-6.9,18
		c-1.9,8-2.1,15.9-1,24c1.7,12.4,2.8,24.9,4.2,37.4c1.5,12.6,2.8,25.2,4.2,37.9c1.3,12.3,2.6,24.7,4,37c1.7,15.6,3.3,31.2,5.1,46.8
		c1.4,12,2.5,24.1,3.8,36.1c1.8,15.7,3.5,31.5,5.2,47.2c0.8,7.3,1.6,14.6,2.2,21.9c1.3,18.8,17.3,33.8,39.6,28.9
		c1.7-0.4,3.4-1.2,5.3-1c2.7,1.7,2.7,1.7,1.5,4.8c1-1.6,2.5-2.4,4.5-1.8c2,0.6,2.7,2.3,2.8,4.2c0.4,4.9,0.2,9.9,0.2,14.8
		c0,2.8,0.3,5.3,2.7,7.3c1.2,1,2,2.4,1.3,4c-0.7,1.7-2.1,1.7-3.8,1.4c-3-0.6-3.4,3-5.8,3.5c-1.9,0.6-3.7,0.4-5.2-1.1
		c-0.7-0.8-0.7-1.8-0.4-2.8c-1,2-2.9,2.2-4.7,2.7c-10.7-0.3-21.3,0.7-31.2,5.3c-20.7,9.6-32.9,25.7-35.7,48.2
		c-3.2,26,7.8,45.7,29.5,59.6c11.1,7.1,23.7,9,36.7,8.4c3.1,0.3,6.4,1.8,9.1-1.1c1.2-0.7,2.6-1.1,4-1c3,0.7,3.4,2.9,3.5,5.4
		c0.1,6.2,0,12.5,0.1,18.7c0,1.9,0,3.7,1.9,5.2c2.5,1.9,2.1,3.5-0.8,4.7c-1.6,0.7-3.3,1.1-4.9,0.8c1.5,0.5,3.3,0.9,2.8,3.4
		c-1.2,0.1-2.4,0.3-3.6,0.3c-71.3,0-142.6,0-213.9,0c-1.3,0-2.7-0.2-4-0.3c-1.1-1.8-1.3-3.8-0.6-5.6c1.5-3.8,1.3-7.6,1.3-11.5
		c0-115.1,0-230.3,0.1-345.4C341.2,518.6,339.7,513.8,340.4,508.8z"/>
	<path class="st0" d="M557.3,728.8c0.6-0.8,1.7-1.6,1.9-2.5c0.5-4,1.4-6.1,4.6-1.5c0.4,0.5,1,0.7,1.6,0.3c0.7-0.5,0.9-1.6,0.3-1.9
		c-7.5-4.3-3.8-11.5-4.6-17.5c-0.3-2.4,0-4.8-0.1-7.2c0-1.2-0.2-2.5-1.6-2.9c-1.4-0.5-2.1,0.5-2.9,1.5c-0.7,0.9-1.6,1.8-2.5,2.5
		c-0.8,0.6-1.9,1.2-2.8,0.2c-1.1-1.3,0.3-1.7,1-2.4c1.4-1.3,3.7-2.2,2.5-4.9c-0.3-2.4,1.7-3.4,3.2-4.5c8.1-5.8,12-13.7,13.1-23.5
		c2.7-23.6,5.1-47.3,7.8-70.9c2.1-18.1,3.7-36.3,5.8-54.4c2-17.8,4-35.7,5.9-53.5c2-18.1,3.9-36.3,5.8-54.4
		c1.3-12.3,2.6-24.7,4.1-37c0.8-6.9,0-13.7-1.9-20.5c-0.6-2.2-1.4-4.3,0.1-6.5c0.4-0.4,0.9-0.8,1.5-1c6-1.8,6-1.8,6-8.3
		c0-16.6-0.1-33.2,0-49.8c0-5.9-2-11.8-0.1-17.8c0.5-1.5-0.7-2.9-1.1-4.3c-0.8-2.8-0.8-5.4,2.2-7c5.6,7.4,9.6,15.7,14.3,23.7
		c34.1,59,68.2,118,102.2,177.1c0.6,1,1,2.1,1.6,3.2c4.5,11.2,3.6,22.9,3.6,34.5c0,117,0,233.9,0,350.9c0,4.9,1.1,9.9-0.6,14.7
		c-0.3,1-0.7,2-1.4,2.8c-1.2,0.1-2.4,0.3-3.6,0.3c-52.5,0-105.1,0-157.6,0c-1.2,0-2.4-0.2-3.6-0.3c-2.1-2.4-5.1-2.9-8.1-3.4
		c3.6-1.9,7.8-1.2,12.2-3.4c-5.1-0.4-5.2-3.5-5.1-6.8c0.2-6.8,0.2-13.7,0.3-20.5c0-1.7-0.6-2.5-2.1-2.9c0-2.6,2.2-2.9,3.9-3.7
		c20.4-9.1,33.1-24.5,36.9-46.6c4.4-25.5-8.4-50.3-29.5-62.2c-3.1-1.8-6.4-3.3-9.7-4.7C559.2,731.3,557.5,730.8,557.3,728.8z"/>
	<path class="st0" d="M726.6,886.2c-1.2-5,0.1-9.9,0.1-14.9c-0.2-124-0.1-248-0.1-371.9c0-3.6-0.1-7.2-1.9-10.5
		c-1.1-2-0.1-3.8,0.2-5.6c1.6,2,2.9,4.2,3.8,6.6c-0.4,2.3,1.4,3.3,2.6,4.6c3.1,5.5,6.8,10.6,9.5,16.3c-0.6,1.9,1.2,2.4,2,3.6
		c6.1,10.3,12.2,20.6,18.2,30.9c27.1,46.8,54.1,93.6,81.1,140.5c0.6,1,1,2.1,1.5,3.2c0.5,2.9,1.2,5.8-3.1,6.4
		c-1.5,0.2-1.9,1.7-2,3.2c-0.2,1.9-0.1,3.9-0.1,5.8c0,59.1,0,118.1,0,177.2c0,1.7,0.2,3.3-1.1,4.7c-1,0.1-2.1,0.3-3.1,0.3
		c-34.8,0-69.7,0-104.5,0C728.7,886.5,727.7,886.3,726.6,886.2z"/>
	<path class="st0" d="M340.4,508.8c2.1,3.6,2.7,7.5,2.7,11.6c-0.1,116.5-0.1,233,0,349.5c0,5.7-1.2,10.9-2.8,16.2
		c-16.2,0.1-32.5,0.2-48.7,0.3c-4,0-8-0.2-12-0.3c-3,0.8-3.7-1.2-4-3.4c-0.3-2.5-0.2-5.1-0.2-7.6c0-75.7,0-151.3,0-227
		c0-3.1,0-6.3-0.4-9.4c-0.4-2.5-0.1-4.8-3.6-5.5c-2.3-0.5-0.7-2.7-0.4-4.2c9.2-16.1,18.4-32.3,27.6-48.4
		c13.1-22.7,26.2-45.5,39.4-68.2C338.7,511.3,339.6,510.1,340.4,508.8z"/>
	<path class="st0" d="M271,629.1c0.3,1.1-0.9,2.7,0.5,3.3c1.6,0.7,1.8-1.1,2.3-2.1c0.4-0.7,0.7-1.5,1.6-1.3c1.1,0.2,1.3,1.2,1.3,2.1
		c0.3,4.6,0.8,9.2,0.8,13.7c0,78.4,0,156.9,0.1,235.3c0,2.2-1.2,5,2.2,6.1c-1.5,0.1-3,0.3-4.4,0.3c-35.5,0-71,0-106.6,0
		c-21.7,0-34.1-21.4-23.2-40.3c41.2-71.5,82.5-143,123.8-214.5C269.7,630.7,270.4,629.9,271,629.1z"/>
	<path class="st0" d="M606.9,279.3c-0.9,2.8-2,5.4,0.8,8.2c1.5,1.5,0.3,4.4-0.3,6.4c-0.8,2.4-0.7,4.4,0,6.9c0.7,2.7,0.4,5.6,0.4,8.5
		c0,17.4,0,34.8,0,52.2c0,7.2,0,7.2-7.3,6.2c-0.6-0.1-1.2,0-1.8,0c-0.1-0.1-0.3-0.3-0.4-0.4c-0.4-2.8,0.9-5.8-2-8.4
		c-1.2-1.1-2.2-0.8-3.2-1.2c-2.4-0.8-3.7-2.5-4.2-4.9c-0.1-2,0.8-3,2.9-2.7c-2.1-0.6-4.3-0.8-6.4-1.3c-4.5-2.5-7.8-6.5-12.1-9.2
		c-24.1-15.4-55.2-12.4-75.9,7.4c-1.6,1.5-2.6,4.2-5.7,3.2c-0.5-2.1-2-3.7-4.1-3.5c-4,0.4-4-2-4-4.7c0-17.4,0-34.8,0-52.1
		c0-2.7,0-5.4,0-8.1c0-2-0.1-3.9,2.7-4.3c1.8-0.2,1.8-1.8,1.8-3.1c0-2.1-0.1-4.2,0-6.3c0.1-1.4-0.6-3.8,1.2-3.8c2.3,0,1.2,2.5,1.4,4
		c0.1,0.9,0,1.8,0,2.7c0,20.7,0,41.3,0,62c0,1.3,0,2.7,0.1,4c0.1,1.3,0.7,2.4,2.1,2.4c1.5,0,2-1.1,2.2-2.4c0.1-0.9,0.1-1.8,0.1-2.7
		c0-27.3,0-54.5,0-81.8c0-2.8-0.1-5.2-3.6-5.6c8.9-15.6,17.3-31.5,27-46.6c9.8-15.2,32.5-15.6,42.4-0.6c11.8,18,22.1,37,32.4,56
		c1.6,6.7,6.3,11.7,9.9,17.4C604.5,275.1,605.7,277.2,606.9,279.3z"/>
	<path class="st0" d="M837.4,886.2c-0.7-2.5-0.9-5-0.9-7.5c0-59.9,0-119.8,0-179.7c0-0.6,0-1.2,0-1.8c0.1-5,1.9-6,6.3-3.6
		c0.6-1.5-0.3-3.3,0.9-4.7c1.8,2.2,3.2,4.6,4.3,7.3c1,3.8,1.2,8,5.6,9.8c10.1,17.3,20.3,34.6,30.3,52c17.1,29.5,34.1,58.9,51,88.5
		c6.2,10.8,5,22.6-2.9,31.3c-4.9,5.4-10.9,8.6-18.2,8.6c-25.2,0.1-50.4,0-75.6,0C837.9,886.4,837.6,886.3,837.4,886.2z"/>
	<path class="st0" d="M603.3,273c-4.1-1.7-4.3-6.6-7.2-8.9c-3.1-2.5-3.7-5-2.7-8.5C597.2,261.2,600.7,266.8,603.3,273z"/>
	<path class="st0" d="M853.6,706c-0.2,0.8-0.5,1.5-1.4,1.3c-3.1-0.9-5.8-8-4.2-11.1C850.1,699.2,852,702.5,853.6,706z"/>
	<path class="st0" d="M491.7,246.9c0,0.7,0,1.5-0.1,2.2c-0.6,3.8-2.7,6.5-5.7,7.6C487.8,253.4,489.7,250.1,491.7,246.9z"/>
	<path class="st0" d="M679.8,330.6c1.9-1.6,3-0.3,3.9,1.1c0.9,1.5,0.7,2.9-1.3,3.4C681.2,333.8,680.3,332.3,679.8,330.6z"/>
	<path class="st0" d="M731.4,494.4c-1.7-1.1-5.3-1-2.6-4.6C730,491.1,730.9,492.6,731.4,494.4z"/>
	<path class="st0" d="M481.7,263.9c0.6,3.1-0.9,5.1-3.6,6.4C478.9,267.9,480.3,265.9,481.7,263.9z"/>
	<path class="st0" d="M850.3,625.8c1-0.5,1.4-1.9,2.9-1.8c0.6,1.9-1.6,2.8-1.4,4.5C851.3,627.7,850.8,626.7,850.3,625.8z"/>
	<path class="st0" d="M742.8,514.2c-3.3-1.3-3.5-1.6-2-3.6C741.8,511.7,742.6,512.8,742.8,514.2z"/>
	<path class="st0" d="M679.7,309.8c1-0.1,1.3,0.6,1.4,1.3c0.3,1.2-0.3,2-1.5,2.2c-0.9,0.2-1.9-0.1-1.8-1.2
		C677.9,310.9,678.9,310.4,679.7,309.8z"/>
	<path class="st0" d="M681.6,323c-0.1,0.8-0.2,1.8-1.2,1.3c-0.5-0.2-0.9-1.1-1-1.8c-0.1-0.8,0.5-1.5,1.4-1.3
		C681.6,321.5,681.5,322.4,681.6,323z"/>
	<g>
		<path class="st1" d="M589.8,352.1c0.9,1.7,1.7,3.5,3.3,4.7c3.8,2.6,5.2,6.4,5.6,10.8c0,0,0,0,0,0c6.8,17.5,2.5,35.3,0.6,52.9
			c-4.8,45.9-9.9,91.8-14.9,137.7c-3.9,36.1-7.7,72.1-11.6,108.2c-1.3,12-7.9,20.4-18.3,26.2c-24.6,10.3-45.8-6.6-47.5-27.2
			c-0.5-6.1-1.2-12.2-1.8-18.3c-8.5-78.7-17-157.4-25.4-236.1c-0.8-7.6-2.1-15.2-2.2-22.8c-0.1-11.5,4-22,9.7-31.9
			c0.4-1.8,0.1-4,2.7-4.6c0.6-0.5,1.1-1,1.7-1.5c9.5-10.2,20.5-18,34.4-20.8c21.4-4.4,40.4,0.3,56.6,15.4c1.1,1,2.3,2,3.5,3
			C588.4,348.4,589.3,350,589.8,352.1z"/>
		<path class="st1" d="M557.3,728.8c13.5,4.6,25.1,12,33.5,23.8c23.9,33.5,10.3,79.7-28,94.9c-1.2,0.5-2.4,1.1-3.7,1.6
			c-1.3-0.3-2.4,0.6-3.5,1c-2.7,2.6-6.3,0.5-9.3,1.7c-10.9,0.4-21.5-0.8-31.6-5.3c-27.2-12.1-42.1-41.7-35.7-70.9
			c6.5-29.1,32.7-49.6,62.4-48.9c1.9,0,3.9,0.1,5.8,0.1c1.4,1.1,3.3-0.7,4.7,0.8C553.5,729,555.5,728.5,557.3,728.8z"/>
	</g>
	<path class="st0" d="M490,351.6c0,2-1.5,3.2-2.7,4.6c-1.2-0.7-2.4-1.4-4.1-2.4C485.4,352.2,486.6,348.8,490,351.6z"/>
	<path class="st0" d="M552,727.5c-1.6,0.1-3.2-0.1-4.7-0.8c2.9-0.1,4.1-1.9,4.2-4.7C555.8,723.8,553.9,725.7,552,727.5z"/>
	<path class="st0" d="M546.3,851.8c3.1-0.6,6.2-1.1,9.3-1.7c-0.8,1.8-1.8,2.8-4.1,2.2C549.9,851.7,548,851.9,546.3,851.8z"/>
	<path class="st0" d="M598.7,367.6c-1.9-3.6-3.7-7.2-5.6-10.8c0.1-0.1,0.3-0.1,0.4-0.2c1.8-0.5,3.5-2.9,5.2-1.6
		c1.9,1.5-2.6,2.3-1.2,4.5c0.9,0.7,1.4-0.2,2-0.8c0.7-0.6,1.3-1.4,2.2-0.4c0.6,0.6,0.4,1.5-0.2,2
		C599.1,362.2,599.7,365.2,598.7,367.6z"/>
	<path class="st0" d="M589.8,352.1c-1.2-1.5-2.4-3-3.6-4.4c2.3-0.5,4.9,2.2,7.1-0.9c0.3-0.4,1.9,1.2,1.7,2.5
		c-0.2,1.3-0.5,2.9-2.5,2.2C591.3,351,590.3,350.2,589.8,352.1z"/>
</g>
</svg>
