<svg width="20" height="20" viewBox="0 0 20 20" fill="none" xmlns="http://www.w3.org/2000/svg">
<g clip-path="url(#clip0)">
<path d="M10.0553 5.54088C12.4935 5.62396 14.4656 7.66838 14.397 10.0415C14.3248 12.4724 12.284 14.4554 9.91085 14.3976C7.46188 14.3398 5.44635 12.2485 5.54026 9.86451C5.63779 7.41915 7.68221 5.46141 10.0553 5.54088Z" fill="white"/>
<path d="M6.64351 14.0653C6.50264 14.3218 6.43401 14.5349 6.29675 14.6794C5.64658 15.3548 4.97835 16.0195 4.30651 16.6768C3.96337 17.0128 3.55882 17.0561 3.21567 16.7094C2.89059 16.3843 2.9231 15.9869 3.23734 15.6619C3.90557 14.972 4.57019 14.2784 5.28538 13.6427C5.47321 13.4766 5.86692 13.426 6.12337 13.4946C6.32565 13.5416 6.46291 13.8522 6.64351 14.0653Z" fill="#2BA3A3"/>
<path d="M17.0308 3.70235C16.8755 3.96242 16.7888 4.18275 16.6371 4.34168C16.0122 4.99185 15.3765 5.62757 14.73 6.25607C14.3362 6.63895 13.8956 6.66423 13.5958 6.32831C13.2635 5.95627 13.314 5.577 13.6536 5.23386C14.3146 4.56563 14.9611 3.87934 15.6619 3.25807C15.8533 3.0883 16.2506 3.03412 16.5071 3.09914C16.7094 3.1497 16.843 3.46756 17.0308 3.70235Z" fill="#2BA3A3"/>
<path d="M3.73449 2.90407C3.98734 3.07022 4.20406 3.16775 4.36299 3.31945C4.9951 3.92989 5.61276 4.562 6.23765 5.18328C6.59163 5.53365 6.69638 5.91653 6.3424 6.32108C6.0426 6.66061 5.60193 6.63894 5.20821 6.25606C4.54721 5.61311 3.87536 4.981 3.27215 4.2911C3.09516 4.08882 3.0482 3.67705 3.10961 3.39892C3.15657 3.20748 3.4961 3.08467 3.73449 2.90407Z" fill="#2BA3A3"/>
<path d="M16.9911 16.2578C16.8611 16.4421 16.76 16.7238 16.5685 16.8069C16.3518 16.9008 15.9617 16.9261 15.8136 16.796C15.019 16.0736 14.246 15.3187 13.5344 14.5132C13.3935 14.3543 13.4622 13.8631 13.603 13.6319C13.8089 13.2996 14.2388 13.249 14.5313 13.5235C15.3043 14.2423 16.0412 15.0045 16.778 15.7594C16.8828 15.8641 16.9045 16.0411 16.9911 16.2578Z" fill="#2BA3A3"/>
<path d="M9.23985 2.54648C9.23985 2.07692 9.2254 1.60735 9.24346 1.14139C9.26152 0.707947 9.49992 0.444267 9.94059 0.433431C10.4102 0.422595 10.6847 0.682663 10.6919 1.14501C10.71 2.14193 10.71 3.13886 10.6883 4.13217C10.6775 4.56562 10.4029 4.81485 9.96588 4.81124C9.52881 4.81124 9.26513 4.56201 9.24707 4.12856C9.2254 3.6012 9.24346 3.07384 9.23985 2.54648C9.24346 2.54648 9.23985 2.54648 9.23985 2.54648Z" fill="#2BA3A3"/>
<path d="M2.63333 10.7025C2.14571 10.7025 1.65808 10.7133 1.17045 10.6989C0.711722 10.6808 0.433594 10.4388 0.433594 9.96565C0.437206 9.49247 0.718946 9.24685 1.17768 9.24324C2.13487 9.2324 3.09206 9.2324 4.04926 9.23962C4.50437 9.24324 4.80056 9.47079 4.81501 9.94397C4.82585 10.446 4.52605 10.6881 4.04203 10.6989C3.57247 10.7097 3.1029 10.7025 2.63333 10.7025Z" fill="#2BA3A3"/>
<path d="M17.2871 10.7061C16.8392 10.7061 16.3877 10.7097 15.9398 10.7061C15.463 10.7025 15.1379 10.4966 15.1271 9.98731C15.1199 9.48162 15.4233 9.24684 15.9073 9.24323C16.8464 9.236 17.7819 9.236 18.7211 9.24323C19.2051 9.24684 19.5121 9.48162 19.5049 9.98731C19.4977 10.4966 19.169 10.7025 18.6922 10.7061C18.2226 10.7097 17.7567 10.7061 17.2871 10.7061Z" fill="#2BA3A3"/>
<path d="M10.7036 17.3342C10.7036 17.8038 10.7108 18.2734 10.7 18.7393C10.6891 19.1944 10.4652 19.4906 9.99561 19.5015C9.49354 19.5123 9.24431 19.2161 9.2407 18.7285C9.23347 17.7713 9.22986 16.8141 9.24431 15.8569C9.25153 15.3982 9.50437 15.12 9.97394 15.1237C10.4471 15.1273 10.6855 15.409 10.7 15.8677C10.7144 16.359 10.7036 16.8466 10.7036 17.3342Z" fill="#2BA3A3"/>
</g>
<defs>
<clipPath id="clip0">
<rect width="19.9385" height="19.9385" fill="white"/>
</clipPath>
</defs>
</svg>
