<?xml version="1.0" encoding="utf-8"?>
<!-- Generator: Adobe Illustrator 22.0.0, SVG Export Plug-In . SVG Version: 6.00 Build 0)  -->
<svg version="1.1" id="Calque_1" xmlns="http://www.w3.org/2000/svg" xmlns:xlink="http://www.w3.org/1999/xlink" x="0px" y="0px"
	 viewBox="0 0 850 773" style="enable-background:new 0 0 850 773;" xml:space="preserve">
<style type="text/css">
	.st0{fill:#FFF4D9;}
	.st1{fill:#F4C85B;}
	.st2{opacity:0.51;}
	.st3{fill:#FFFFFF;}
	.st4{fill:#EDBE54;}
	.st5{opacity:0.52;}
	.st6{fill:url(#SVGID_1_);}
	.st7{opacity:0.6;}
	.st8{fill:url(#SVGID_2_);}
	.st9{fill:url(#SVGID_3_);}
	.st10{fill:#7D97F4;}
	.st11{fill:url(#SVGID_4_);}
	.st12{fill:url(#SVGID_5_);}
	.st13{fill:url(#SVGID_6_);}
	.st14{fill:url(#SVGID_7_);}
	.st15{fill:url(#SVGID_8_);}
	.st16{fill:url(#SVGID_9_);}
	.st17{fill:url(#SVGID_10_);}
	.st18{fill:url(#SVGID_11_);}
	.st19{fill:url(#SVGID_12_);}
	.st20{fill:url(#SVGID_13_);}
	.st21{fill:url(#SVGID_14_);}
	.st22{fill:url(#SVGID_15_);}
	.st23{opacity:0.6;fill:#FFFFFF;}
	.st24{fill:url(#SVGID_16_);}
	.st25{fill:url(#SVGID_17_);}
	.st26{fill:url(#SVGID_18_);}
	.st27{opacity:0.7;fill:#FFFFFF;}
	.st28{fill:url(#SVGID_19_);}
	.st29{fill:#656768;}
	.st30{fill:#B7B7B7;}
	.st31{fill:#848789;}
	.st32{fill:url(#SVGID_20_);}
	.st33{fill:url(#SVGID_21_);}
	.st34{fill:url(#SVGID_22_);}
	.st35{fill:url(#SVGID_23_);}
	.st36{fill:url(#SVGID_24_);}
	.st37{fill:#BDD0FB;}
	.st38{fill:url(#SVGID_25_);}
	.st39{opacity:0.3;fill:#B7B7B7;}
	.st40{opacity:0.7;}
	.st41{opacity:0.2;fill:#FFFFFF;}
</style>
<g>
	<path class="st0" d="M743.4,545C673.2,708.7,487.8,779,342.6,767c-39.7-3.3-119.4-9.9-181.7-68.6C41.2,585.6,59.7,349.8,174.2,211
		C188.9,193.1,291,73.3,450.1,74.9c116.5,1.2,198.2,66.8,208.2,74.9c12.6,10.3,40.3,34.9,65.2,73.8
		C782.1,315.1,787.3,442.8,743.4,545z"/>
	<g>
		<path class="st1" d="M462.4,105.9c0.1-4.3,4.8-7.8,10.5-7.8h216.5c5.8,0,11.5,3.7,11.5,8v387.2c0,2.1-1.6,4.1-3.6,5.6
			c-2,1.5-4.9,2.3-7.7,2.3l-226.4-0.5c-2.8,0-5.6-0.9-7.5-2.4c-2-1.5-3.1-3.6-3-5.7L462.4,105.9z"/>
		<g class="st2">
			<g>
				<polygon class="st3" points="621.9,143.7 683.6,143.7 684,120.1 622.3,120.1 				"/>
				<polygon class="st3" points="552.7,143.7 614.3,143.6 614.8,120.1 553.1,120.1 				"/>
				<polygon class="st3" points="483.6,143.7 545.2,143.6 545.6,120.1 483.9,120.1 				"/>
			</g>
			<g>
				<polygon class="st3" points="621.1,186.1 682.7,186.1 683.2,162.7 621.5,162.6 				"/>
				<polygon class="st3" points="552.1,186 613.6,186.1 614,162.6 552.4,162.6 				"/>
				<polygon class="st3" points="483.1,186 544.6,186 544.9,162.6 483.4,162.6 				"/>
			</g>
			<g>
				<polygon class="st3" points="620.3,228.1 681.8,228.2 682.3,204.8 620.8,204.8 				"/>
				<polygon class="st3" points="551.4,228.1 612.8,228.1 613.3,204.8 551.8,204.7 				"/>
				<polygon class="st3" points="482.6,228 543.9,228.1 544.3,204.7 482.9,204.7 				"/>
			</g>
			<g>
				<polygon class="st3" points="619.6,270 680.9,270.1 681.4,246.8 620,246.8 				"/>
				<polygon class="st3" points="550.8,270 612.1,270 612.5,246.8 551.1,246.7 				"/>
				<polygon class="st3" points="482.1,269.9 543.3,270 543.7,246.7 482.3,246.6 				"/>
			</g>
			<g>
				<polygon class="st3" points="618.8,311.8 680.1,311.9 680.5,288.7 619.2,288.6 				"/>
				<polygon class="st3" points="550.1,311.7 611.3,311.8 611.7,288.6 550.5,288.5 				"/>
				<polygon class="st3" points="481.5,311.6 542.7,311.7 543,288.5 481.8,288.5 				"/>
			</g>
			<g>
				<polygon class="st3" points="618,353.4 679.2,353.5 679.7,330.4 618.5,330.3 				"/>
				<polygon class="st3" points="549.5,353.3 610.6,353.4 611,330.3 549.8,330.2 				"/>
				<polygon class="st3" points="481,353.2 542,353.3 542.4,330.2 481.3,330.1 				"/>
			</g>
			<g>
				<polygon class="st3" points="617.3,394.9 678.3,395 678.8,372 617.7,371.9 				"/>
				<polygon class="st3" points="548.8,394.8 609.8,394.9 610.3,371.9 549.2,371.8 				"/>
				<polygon class="st3" points="480.5,394.6 541.4,394.8 541.8,371.7 480.8,371.6 				"/>
			</g>
			<g>
				<polygon class="st3" points="616.5,436.3 677.5,436.4 677.9,413.4 616.9,413.3 				"/>
				<polygon class="st3" points="548.2,436.1 609.1,436.2 609.5,413.3 548.6,413.2 				"/>
				<polygon class="st3" points="480,435.9 540.8,436.1 541.1,413.1 480.3,413 				"/>
			</g>
			<g>
				<polygon class="st3" points="615.8,477.5 676.6,477.6 677.1,454.7 616.2,454.6 				"/>
				<polygon class="st3" points="547.6,477.3 608.4,477.4 608.8,454.6 547.9,454.4 				"/>
				<polygon class="st3" points="479.4,477.1 540.2,477.3 540.5,454.4 479.7,454.3 				"/>
			</g>
		</g>
	</g>
	<g>
		<path class="st4" d="M537.3,227.7c0.1-3.4,2.9-6.1,6.3-6.1h209.9c3.5,0,7.2,2.8,7.2,6.2v475.7c0,2.5-1.5,5-3.3,6.8
			c-1.9,1.8-4.6,2.8-7.2,2.8L538,712.5c-2.6,0-5.2-1-7.1-2.9c-1.8-1.8-2.9-4.3-2.8-6.9L537.3,227.7z"/>
		<g class="st5">
			<polygon class="st3" points="657.8,255.4 726.5,255.1 726.4,246.8 657.9,247 			"/>
			<polygon class="st3" points="657.6,286.1 726.5,285.8 726.5,277.4 657.7,277.7 			"/>
			<polygon class="st3" points="657.4,317.1 726.6,316.7 726.6,308.2 657.5,308.6 			"/>
			<polygon class="st3" points="657.2,348.3 726.7,347.9 726.7,339.3 657.3,339.8 			"/>
			<polygon class="st3" points="657,379.8 726.8,379.3 726.8,370.7 657.1,371.2 			"/>
			<polygon class="st3" points="656.6,443.6 727,442.9 727,434.1 656.7,434.8 			"/>
			<polygon class="st3" points="656.1,541.3 727.3,540.4 727.3,531.4 656.1,532.3 			"/>
			<polygon class="st3" points="656.8,411.6 726.9,411 726.9,402.3 656.9,402.9 			"/>
			<polygon class="st3" points="656.5,475.9 727.1,475.1 727.1,466.3 656.5,467.1 			"/>
			<polygon class="st3" points="656.3,508.5 727.2,507.6 727.2,498.7 656.3,499.5 			"/>
			<polygon class="st3" points="655.8,574.5 727.4,573.4 727.4,564.4 655.9,565.4 			"/>
			<polygon class="st3" points="655.6,607.9 727.5,606.8 727.5,597.6 655.7,598.7 			"/>
			<polygon class="st3" points="655.4,641.6 727.6,640.4 727.6,631.1 655.5,632.3 			"/>
			<polygon class="st3" points="655.2,675.6 727.7,674.3 727.7,665 655.3,666.3 			"/>
			<polygon class="st3" points="567.8,255.7 636.9,255.5 637,247.1 567.9,247.3 			"/>
			<polygon class="st3" points="567.2,286.5 636.6,286.2 636.7,277.8 567.4,278 			"/>
			<polygon class="st3" points="566.7,317.6 636.3,317.2 636.4,308.7 566.8,309.1 			"/>
			<polygon class="st3" points="566.1,348.9 636,348.5 636.1,339.9 566.3,340.3 			"/>
			<polygon class="st3" points="565.5,380.5 635.8,380 635.8,371.3 565.7,371.9 			"/>
			<polygon class="st3" points="564.4,444.5 635.2,443.8 635.3,435 564.5,435.7 			"/>
			<polygon class="st3" points="562.6,542.6 634.3,541.6 634.4,532.6 562.7,533.5 			"/>
			<polygon class="st3" points="564.9,412.4 635.5,411.8 635.6,403.1 565.1,403.7 			"/>
			<polygon class="st3" points="563.8,476.9 634.9,476.2 635,467.3 563.9,468 			"/>
			<polygon class="st3" points="563.2,509.6 634.6,508.8 634.7,499.8 563.3,500.7 			"/>
			<polygon class="st3" points="562,575.8 634,574.8 634.1,565.7 562.1,566.7 			"/>
			<polygon class="st3" points="561.4,609.4 633.7,608.2 633.8,599 561.5,600.2 			"/>
			<polygon class="st3" points="560.8,643.2 633.4,642 633.5,632.7 560.9,633.9 			"/>
			<polygon class="st3" points="560.1,677.3 633.1,676 633.2,666.6 560.3,667.9 			"/>
		</g>
	</g>
	<g>
		<linearGradient id="SVGID_1_" gradientUnits="userSpaceOnUse" x1="433.6535" y1="694.4573" x2="404.4012" y2="-171.4264">
			<stop  offset="0" style="stop-color:#C49623"/>
			<stop  offset="1" style="stop-color:#2BA3A3"/>
		</linearGradient>
		<path class="st6" d="M227.9,238.3c0-20.7,16.7-37.4,37.4-37.4h318.1c17.5,0,32,13.8,32.9,31.3l23.5,461.1
			c0.7,13.7-10.1,25.3-23.8,25.5l-364.5,6.6c-12.9,0.2-23.5-10.2-23.5-23.1V238.3z"/>
		<path class="st3" d="M239.9,612.2c-0.5,0-0.9-0.4-0.9-0.9v-10c0-0.5,0.4-0.9,0.9-0.9c0.5,0,0.9,0.4,0.9,0.9v10
			C240.8,611.8,240.4,612.2,239.9,612.2z"/>
		<g>
			<path class="st1" d="M253.9,208c0-6.6,5.8-11.7,12.3-10.8c43.4,5.9,192.8,24.1,316.3,14.6c5.6-0.4,10.5,3.8,10.8,9.5l24.6,463.2
				c0.3,6.4-4.5,11.8-10.9,12.2c-51.9,3.1-265.8,15-342.1,7c-4.6-0.5-8.2-4.4-8.2-9.1L253.9,208z"/>
			<path class="st0" d="M259,219.6c0-6.4,5.6-11.3,11.9-10.4c41.8,5.7,185.5,23.2,304.4,14.1c5.4-0.4,10.1,3.7,10.4,9.1l23.7,445.7
				c0.3,6.1-4.3,11.3-10.5,11.7c-50,3-255.8,14.4-329.2,6.7c-4.5-0.5-7.9-4.2-7.9-8.7L259,219.6z"/>
			<g>
				<g class="st7">
					<path class="st3" d="M508.6,259.3c2.1,0,3.7-1.7,3.6-3.7l0-0.8c-0.1-2.1-1.8-3.8-3.9-3.8l-167-2.7c-2.1,0-3.1,1.5-2.4,3.4
						l1.6,4.2c0.7,1.9,3,3.5,5.1,3.5H508.6z"/>
				</g>
				<g class="st7">
					<path class="st3" d="M341.3,271.4c-2.1,0-3.1,1.5-2.4,3.4l1.6,4.2c0.7,1.9,3,3.5,5.1,3.5h163c2.1,0,3.7-1.7,3.6-3.7l0-0.8
						c-0.1-2.1-1.8-3.8-3.9-3.8L341.3,271.4z"/>
				</g>
			</g>
			<g>
				<g class="st7">
					<path class="st3" d="M560.4,323.7c2.1,0,3.6-1.7,3.5-3.7l0-0.9c-0.1-2.1-1.9-3.7-3.9-3.8l-268.7-2.7c-2.1,0-2.9,1.4-1.8,3.1
						l2.9,4.8c1.1,1.7,3.6,3.2,5.7,3.2H560.4z"/>
				</g>
				<g class="st7">
					<path class="st3" d="M291.3,336.5c-2.1,0-2.9,1.4-1.8,3.1l2.9,4.8c1.1,1.7,3.6,3.2,5.7,3.2h262.3c2.1,0,3.6-1.7,3.5-3.7l0-0.9
						c-0.1-2.1-1.9-3.7-3.9-3.8L291.3,336.5z"/>
				</g>
				<g class="st7">
					<path class="st3" d="M292.8,362.3c-2.1,0-2.9,1.4-1.8,3.1l2.9,4.8c1.1,1.7,3.6,3.2,5.7,3.2H562c2.1,0,3.6-1.7,3.5-3.7l0-0.9
						c-0.1-2.1-1.9-3.7-3.9-3.8L292.8,362.3z"/>
				</g>
			</g>
			<g>
				<g class="st7">
					<path class="st3" d="M574,598.3c2.1,0,3.6-1.7,3.5-3.7l0-0.9c-0.1-2.1-1.9-3.7-3.9-3.8l-278.8-2.7c-2.1,0-2.8,1.4-1.7,3.1
						l3.1,4.8c1.1,1.7,3.7,3.1,5.7,3.1H574z"/>
				</g>
				<g class="st7">
					<path class="st3" d="M294.8,611c-2.1,0-2.8,1.4-1.7,3.1l3.1,4.8c1.1,1.7,3.7,3.1,5.7,3.1H574c2.1,0,3.6-1.7,3.5-3.7l0-0.9
						c-0.1-2.1-1.9-3.7-3.9-3.8L294.8,611z"/>
				</g>
				<g>
					<path class="st3" d="M296.4,636.9c-2.1,0-2.8,1.4-1.7,3.1l3.1,4.8c1.1,1.7,3.7,3.1,5.7,3.1h272.2c2.1,0,3.6-1.7,3.5-3.7l0-0.9
						c-0.1-2.1-1.9-3.7-3.9-3.8L296.4,636.9z"/>
				</g>
			</g>
			<g>
				<g class="st7">
					<path class="st3" d="M562.2,413.7c2.1,0,3.7-1.7,3.6-3.7l0-0.8c-0.1-2.1-1.8-3.8-3.9-3.8l-224.5-2.7c-2.1,0-3,1.4-2,3.3
						l2.3,4.5c0.9,1.8,3.4,3.3,5.4,3.3H562.2z"/>
				</g>
				<g class="st7">
					<path class="st3" d="M337.4,427.2c-2.1,0-3,1.4-2,3.3l2.3,4.5c0.9,1.8,3.4,3.3,5.4,3.3h219.1c2.1,0,3.7-1.7,3.6-3.7l0-0.8
						c-0.1-2.1-1.8-3.8-3.9-3.8L337.4,427.2z"/>
				</g>
				<g class="st7">
					<path class="st3" d="M338.7,453.1c-2.1,0-3,1.4-2,3.3l2.3,4.5c0.9,1.8,3.4,3.3,5.4,3.3h219.1c2.1,0,3.7-1.7,3.6-3.7l0-0.8
						c-0.1-2.1-1.8-3.8-3.9-3.8L338.7,453.1z"/>
				</g>
				<circle class="st3" cx="307.1" cy="408.7" r="7.8"/>
			</g>
			<g>
				<g class="st7">
					<path class="st3" d="M561.4,508.6c2.1,0,3.7-1.7,3.6-3.7l0-0.8c-0.1-2.1-1.8-3.8-3.9-3.8l-224.5-2.7c-2.1,0-3,1.4-2,3.3
						l2.3,4.5c0.9,1.8,3.4,3.3,5.4,3.3H561.4z"/>
				</g>
				<g>
					<path class="st3" d="M336.6,522.2c-2.1,0-3,1.4-2,3.3l2.3,4.5c0.9,1.8,3.4,3.3,5.4,3.3h219.1c2.1,0,3.7-1.7,3.6-3.7l0-0.8
						c-0.1-2.1-1.8-3.8-3.9-3.8L336.6,522.2z"/>
				</g>
				<g>
					<path class="st3" d="M337.9,548c-2.1,0-3,1.4-2,3.3l2.3,4.5c0.9,1.8,3.4,3.3,5.4,3.3h219.1c2.1,0,3.7-1.7,3.6-3.7l0-0.8
						c-0.1-2.1-1.8-3.8-3.9-3.8L337.9,548z"/>
				</g>
				<circle class="st3" cx="306.3" cy="503.6" r="7.8"/>
			</g>
		</g>
		<linearGradient id="SVGID_2_" gradientUnits="userSpaceOnUse" x1="479.4914" y1="90.5303" x2="333.1964" y2="282.978">
			<stop  offset="0" style="stop-color:#C49623"/>
			<stop  offset="1" style="stop-color:#2BA3A3"/>
		</linearGradient>
		<path class="st8" d="M444,138c-11.5-8-21.5-7.8-28.5-5.8c-6.4,1.9-10.6,8.1-10,14.7l3,33.1l36.1,3.2
			C444.7,183.3,466.5,153.7,444,138z M428.1,164.7c-5,0-9-4-9-9c0-5,4-9,9-9c5,0,9,4,9,9C437.1,160.7,433.1,164.7,428.1,164.7z"/>
		<g>
			<path class="st0" d="M412.2,166.2c-0.4,0-0.8-0.3-0.9-0.8l-0.5-5.3c0-0.5,0.3-0.9,0.8-0.9c0.5,0,0.9,0.3,0.9,0.8l0.5,5.3
				C413.1,165.7,412.7,166.1,412.2,166.2C412.2,166.2,412.2,166.2,412.2,166.2z M411.2,155.8c-0.4,0-0.8-0.3-0.9-0.8l-0.4-4
				c-0.6-6.3,3.4-12.3,9.5-14c4.3-1.3,8.7-1.5,13.2-0.5c0.5,0.1,0.8,0.6,0.7,1c-0.1,0.5-0.6,0.8-1,0.7c-4.2-0.9-8.3-0.7-12.3,0.5
				c-5.3,1.6-8.8,6.7-8.3,12.2l0.4,4C412.1,155.4,411.8,155.8,411.2,155.8C411.3,155.8,411.3,155.8,411.2,155.8z"/>
		</g>
		<linearGradient id="SVGID_3_" gradientUnits="userSpaceOnUse" x1="495.5388" y1="102.7289" x2="349.2437" y2="295.1767">
			<stop  offset="0" style="stop-color:#C49623"/>
			<stop  offset="1" style="stop-color:#2BA3A3"/>
		</linearGradient>
		<path class="st9" d="M359.3,201.5v-16.6c0-5.7,4.8-10.3,10.5-10.1l114.7,3.9c5.1,0.2,9.2,4.2,9.5,9.3l1,16L359.3,201.5z"/>
		<path class="st0" d="M402.1,181h-4.9c-0.5,0-0.9-0.4-0.9-0.9c0-0.5,0.4-0.9,0.9-0.9h4.9c0.5,0,0.9,0.4,0.9,0.9
			C403,180.6,402.6,181,402.1,181z"/>
		<path class="st0" d="M365.5,196.3c-0.5,0-0.9-0.4-0.9-0.9v-6.7c0-5.2,4.2-9.4,9.4-9.4h18.1c0.5,0,0.9,0.4,0.9,0.9
			c0,0.5-0.4,0.9-0.9,0.9h-18.1c-4.2,0-7.7,3.5-7.7,7.7v6.7C366.4,195.9,366,196.3,365.5,196.3z"/>
		<path class="st4" d="M312.6,205.7c0.3-5.8,5-10.3,10.8-10.3l200.6,0c7.2,0,13.4,5.2,14.6,12.3l0.2,1c1.3,7.8-4.6,14.9-12.5,14.9
			H320.4c-4.7,0-8.5-4-8.3-8.7L312.6,205.7z"/>
		<g class="st7">
			<path class="st3" d="M522.8,664.8c-2.1-0.1-3.5,1.5-3.3,3.5l0.4,3.7c0.2,2,2.1,3.7,4.2,3.7h45.6c2.1,0,3.7-1.7,3.7-3.7l0-0.8
				c0-2.1-1.7-3.8-3.8-3.9L522.8,664.8z"/>
		</g>
		<g>
			<g>
				<path class="st10" d="M548.8,677.4c-10.7,0-20.8-3.8-28.9-10.9c-8.8-7.7-14.1-18.4-14.8-30.1c-1.6-24.1,16.8-45.1,41-46.6
					c24.1-1.6,45.1,16.8,46.6,41l0,0c0.8,11.7-3.1,23-10.8,31.8c-7.7,8.8-18.4,14.1-30.1,14.8C550.7,677.3,549.7,677.4,548.8,677.4z
					 M548.8,591.3c-0.9,0-1.8,0-2.8,0.1c-23.2,1.5-40.9,21.6-39.4,44.8c1.5,23.2,21.6,40.9,44.8,39.4c23.2-1.5,40.9-21.6,39.4-44.8
					C589.5,608.5,570.9,591.3,548.8,591.3z"/>
				<path class="st10" d="M548.8,672c-9.2,0-17.9-3.3-24.9-9.4c-7.6-6.7-12.1-15.9-12.8-26c-0.7-10.1,2.7-19.8,9.3-27.4
					c6.7-7.6,15.9-12.1,26-12.8c10.1-0.7,19.8,2.7,27.4,9.3c7.6,6.7,12.1,15.9,12.8,26l0,0c0.7,10.1-2.7,19.8-9.3,27.4
					c-6.7,7.6-15.9,12.1-26,12.8C550.5,672,549.6,672,548.8,672z M548.9,598c-0.8,0-1.6,0-2.4,0.1c-9.6,0.6-18.5,5-24.8,12.2
					c-6.4,7.3-9.5,16.6-8.9,26.2c0.6,9.6,5,18.5,12.2,24.8c7.3,6.4,16.6,9.5,26.2,8.9c9.6-0.6,18.5-5,24.8-12.2
					c6.4-7.3,9.5-16.6,8.9-26.2l0,0c-0.6-9.6-5-18.5-12.2-24.8C566.1,601.2,557.7,598,548.9,598z"/>
			</g>
			<path class="st10" d="M523.9,652.3l-0.2-5.6c0-0.9,0.7-1.7,1.6-1.8l44.7-1.9c0.9,0,1.7,0.7,1.8,1.6l0.2,5.6
				c0,0.9-0.7,1.7-1.6,1.8l-44.7,1.9C524.7,653.9,523.9,653.2,523.9,652.3z"/>
			<path class="st10" d="M523,625.3l-0.2-5.6c0-0.9,0.7-1.7,1.6-1.8L569,616c0.9,0,1.7,0.7,1.8,1.6l0.2,5.6c0,0.9-0.7,1.7-1.6,1.8
				l-44.7,1.9C523.8,626.9,523,626.2,523,625.3z"/>
			<path class="st10" d="M516.6,640l-0.3-6.6c0-0.9,0.7-1.7,1.6-1.8l59.4-2.6c0.9,0,1.7,0.7,1.8,1.6l0.3,6.6c0,0.9-0.7,1.7-1.6,1.8
				l-59.4,2.6C517.4,641.6,516.6,640.9,516.6,640z"/>
		</g>
	</g>
	<g>

			<linearGradient id="SVGID_4_" gradientUnits="userSpaceOnUse" x1="5361.7266" y1="454.5494" x2="5312.4375" y2="454.5494" gradientTransform="matrix(1 0 0 1 -4712.6968 0)">
			<stop  offset="0" style="stop-color:#FEBBBA"/>
			<stop  offset="1" style="stop-color:#FF928E"/>
		</linearGradient>
		<path class="st11" d="M599.7,447.2c0,0,0,57,25,52.3c15.3-2.8,24.3-64.2,24.3-64.2s-15.8-35.2-17.6-23.7
			C618.6,495.3,609.1,431.3,599.7,447.2z"/>

			<linearGradient id="SVGID_5_" gradientUnits="userSpaceOnUse" x1="199.9731" y1="716.1981" x2="50.2142" y2="879.0939" gradientTransform="matrix(-1 0 0 1 815.3882 0)">
			<stop  offset="0" style="stop-color:#707172"/>
			<stop  offset="1" style="stop-color:#848789"/>
		</linearGradient>
		<path class="st12" d="M662.8,728.3c0,0,1.6,8.8,2.3,17.5c0.3,3.4-2.3,6.3-5.7,6.5c-11.6,0.5-36.3,1.4-45.2,1
			c-1.3-0.1-2.2-1.4-1.7-2.7l0,0c0.4-1,1.2-1.9,2.2-2.4l40.9-18.8L662.8,728.3z"/>

			<linearGradient id="SVGID_6_" gradientUnits="userSpaceOnUse" x1="121.9201" y1="631.1037" x2="165.9042" y2="631.1037" gradientTransform="matrix(-1 0 0 1 815.3882 0)">
			<stop  offset="0" style="stop-color:#C49623"/>
			<stop  offset="1" style="stop-color:#2BA3A3"/>
		</linearGradient>
		<path class="st13" d="M661,525.9c0.5,2.9,2.9,142.8-11.4,205.5c-0.2,1,0.3,2.1,1.2,2.5c2.2,0.9,6.5,2.3,11.7,2.5
			c1.6,0.1,3-1,3.5-2.6c4.1-14.6,23.7-87.5,26.3-157.1c2.9-77.8,0-2.6,0-2.6l-1.7-48.1L661,525.9z"/>

			<linearGradient id="SVGID_7_" gradientUnits="userSpaceOnUse" x1="168.4768" y1="685.3112" x2="18.7172" y2="848.2078" gradientTransform="matrix(-1 0 0 1 815.3882 0)">
			<stop  offset="0" style="stop-color:#707172"/>
			<stop  offset="1" style="stop-color:#848789"/>
		</linearGradient>
		<path class="st14" d="M707.7,732.9c0,0,2.5,4.4,4.9,16.2c0.4,2.1-1.1,4.2-3.2,4.4c-3.8,0.4-9.7,0.9-14.4,0.8
			c-2.2,0-3.9-1.9-3.6-4.1c0.5-4.3,2.1-11.4,7.2-16.9L707.7,732.9z"/>

			<linearGradient id="SVGID_8_" gradientUnits="userSpaceOnUse" x1="93.1422" y1="629.602" x2="155.5854" y2="629.602" gradientTransform="matrix(-1 0 0 1 815.3882 0)">
			<stop  offset="0" style="stop-color:#C49623"/>
			<stop  offset="1" style="stop-color:#2BA3A3"/>
		</linearGradient>
		<path class="st15" d="M717.7,530.2c11.7,73.8-2.5,182.5-7.4,203.8c-0.3,1.3-1.3,2.3-2.6,2.5c-2.1,0.4-5.7,0.7-9.2-0.4
			c-1.2-0.4-2-1.5-2.1-2.8c-0.6-17.2,0.5-122.7-10.4-164.5c-0.6-2.1-1.8-4-3.5-5.2l-21.2-15.7l-1.6-25.4L717.7,530.2z"/>
		<g>
			<linearGradient id="SVGID_9_" gradientUnits="userSpaceOnUse" x1="750.3307" y1="376.5832" x2="555.2255" y2="622.0381">
				<stop  offset="0" style="stop-color:#C49623"/>
				<stop  offset="1" style="stop-color:#2BA3A3"/>
			</linearGradient>
			<path class="st16" d="M643,395.8c35.1-0.6,73.9,9.2,73.9,9.2c10.5,61.1,1.8,131.6,1.8,131.6c-27.2,7.1-57.9-4.4-57.9-4.4
				c-4.5-25.5-25.6-97.4-25.6-97.4C618.1,432.7,632.2,395.9,643,395.8z"/>
		</g>
		<linearGradient id="SVGID_10_" gradientUnits="userSpaceOnUse" x1="767.7268" y1="390.4106" x2="572.6218" y2="635.8654">
			<stop  offset="0" style="stop-color:#C49623"/>
			<stop  offset="1" style="stop-color:#2BA3A3"/>
		</linearGradient>
		<path class="st17" d="M703.5,439l13.5-34c0,0,32.8,22.3,38.2,50.6c-6.2,0.5-17.5,2.1-28.5,7.6C724.2,449.9,703.5,439,703.5,439z"
			/>

			<linearGradient id="SVGID_11_" gradientUnits="userSpaceOnUse" x1="125.5315" y1="385.576" x2="159.5342" y2="385.576" gradientTransform="matrix(-1 0 0 1 815.3882 0)">
			<stop  offset="0" style="stop-color:#FEBBBA"/>
			<stop  offset="1" style="stop-color:#FF928E"/>
		</linearGradient>
		<path class="st18" d="M678.6,367.2l11.2,32.3c0.2,0.5,0,1.1-0.5,1.4c-3,1.7-14,6.6-27.3-1.8c-1.4-0.9-2.3-2.3-2.5-3.9l-3.6-28
			H678.6z"/>
		<g>

				<linearGradient id="SVGID_12_" gradientUnits="userSpaceOnUse" x1="-5818.0791" y1="-1852.251" x2="-5830.7856" y2="-1894.1598" gradientTransform="matrix(-0.746 -0.6659 -0.6659 0.746 -4925.9341 -2128.5356)">
				<stop  offset="0" style="stop-color:#FEBBBA"/>
				<stop  offset="1" style="stop-color:#FF928E"/>
			</linearGradient>
			<path class="st19" d="M654.3,337.3c0,0-12.3,23.1-10.7,32.4c1.6,9.3,16.8,8.7,30.1,1.1l9.3-25L654.3,337.3z"/>
			<path d="M673.1,358.6c-0.5-0.2-0.7-0.9-0.4-1.4c1-1.5,2.8-4.6,3.4-7.3c0,0,2.2-1.4-5.6-3.3c-7.8-1.9-19.5-4.8-21.9-11.4
				c-2.4-6.5,7.3-16.9,13.9-9.8c0.4,0.5,1.1,0.5,1.5,0c1.6-2.1,6-6.6,12-3.9c5.6,2.5,6.2,6.6,6.2,8.7c0,0.6,0.5,1.1,1.1,1
				c2.8-0.5,9.6-1,12.8,6c2.6,5.8,0.9,9-0.6,10.6c-0.5,0.5-0.3,1.4,0.4,1.6c1.9,0.6,4.3,2.2,4,6.5c-0.3,6-7.1,5.5-9,5.2
				c-0.3,0-0.6,0.1-0.8,0.3c-1.6,1.8-9.1,9.6-17.1,10.5c-0.7,0.1-1.2-0.6-1-1.3l3.5-10.1c0.2-0.5-0.1-1-0.5-1.2L673.1,358.6z"/>

				<linearGradient id="SVGID_13_" gradientUnits="userSpaceOnUse" x1="-5831.0684" y1="-1852.4459" x2="-5842.5005" y2="-1890.1523" gradientTransform="matrix(-0.746 -0.6659 -0.6659 0.746 -4925.9341 -2128.5356)">
				<stop  offset="0" style="stop-color:#FEBBBA"/>
				<stop  offset="1" style="stop-color:#FF928E"/>
			</linearGradient>
			<path class="st20" d="M671.7,360c0,0,8.7-6,9.4-0.9c0.6,5.1-7.9,7.3-12.1,5.4L671.7,360z"/>
		</g>
		<g>
			<linearGradient id="SVGID_14_" gradientUnits="userSpaceOnUse" x1="689.8929" y1="302.6545" x2="671.3843" y2="345.9814">
				<stop  offset="0" style="stop-color:#707172"/>
				<stop  offset="1" style="stop-color:#848789"/>
			</linearGradient>
			<path class="st21" d="M649.4,326.9c0,0,13.9-24.1,38.8-9.7c24.9,14.4,11.4,32,11.4,32L649.4,326.9z"/>
			<linearGradient id="SVGID_15_" gradientUnits="userSpaceOnUse" x1="673.3301" y1="353.1251" x2="669.9649" y2="406.9682">
				<stop  offset="0" style="stop-color:#707172"/>
				<stop  offset="1" style="stop-color:#848789"/>
			</linearGradient>
			<path class="st22" d="M700.4,328.2c0,0-30-23.9-44.2,1.8c-5.8-2.5-6.9-3.1-6.9-3.1s12.6-23,29.7-15.3
				C696.3,319.4,700.5,323.1,700.4,328.2z"/>
			<path class="st23" d="M666.1,335.1c0.1,0,0.2,0,0.3,0l0.2-0.1c4.5-2.4,11.9-6.4,16.9-4.3c2.4,1,4.7,2.5,7,3.9
				c1.6,1,3.2,2.1,4.9,2.9c2.2,1.2,4.7,2.4,7.5,3.9l0,0c0.2,0.1,0.3,0,0.4-0.1c0.1-0.2,0-0.3-0.1-0.4c-2.8-1.4-5.3-2.7-7.5-3.8
				c-1.6-0.9-3.3-1.9-4.8-2.9c-2.3-1.5-4.6-3-7.1-4c-5.2-2.2-12.9,1.9-17.4,4.4l-0.2,0.1c-0.2,0.1-0.2,0.3-0.1,0.4
				C666,335,666.1,335.1,666.1,335.1z"/>
			<linearGradient id="SVGID_16_" gradientUnits="userSpaceOnUse" x1="669.9731" y1="249.0745" x2="669.9731" y2="279.3612">
				<stop  offset="0" style="stop-color:#707172"/>
				<stop  offset="1" style="stop-color:#848789"/>
			</linearGradient>
			<path class="st24" d="M699.6,353.1l-59.1-22.7c-0.4-0.1-0.6-0.5-0.6-0.9c0-0.4,0.3-0.7,0.7-0.9c3.1-1,8.1-2.4,10.1-1.5
				c6.5,2.9,49.1,22.1,49.1,22.1S700.7,349.7,699.6,353.1z"/>
		</g>
		<g>
			<linearGradient id="SVGID_17_" gradientUnits="userSpaceOnUse" x1="714.8601" y1="410.0984" x2="705.1852" y2="449.6394">
				<stop  offset="0" style="stop-color:#707172"/>
				<stop  offset="1" style="stop-color:#848789"/>
			</linearGradient>
			<path class="st25" d="M693.5,400.2c-5.5,12.9-13.8,26.8-23.5,41.3l6.4,95c15.1,5.3,29.7,8.5,43.2,6.5c2.3-33.9,3.6-65.4,2.2-89.4
				c-1.1-16.4-1.4-32.9,0.6-45.4C719.4,405,711.1,402.2,693.5,400.2z"/>

				<linearGradient id="SVGID_18_" gradientUnits="userSpaceOnUse" x1="-20.8929" y1="-146.2475" x2="-65.0589" y2="-93.2482" gradientTransform="matrix(1 0 0 1 1188.0793 0)">
				<stop  offset="0" style="stop-color:#707172"/>
				<stop  offset="1" style="stop-color:#848789"/>
			</linearGradient>
			<path class="st26" d="M657.2,395.1c3.2,17,7.2,33.3,12.8,46.4l6.4,95c-6.5,0.4-12.8-0.3-19.2-1.4c-6.4-25.5-12-58.2-17.4-93.3
				c0.6-16.5,0.2-32.8-1.7-46.8C644.8,393.8,651.1,393.9,657.2,395.1z"/>
			<polygon class="st27" points="721.8,503.1 679.3,503.1 679.3,499.5 722.1,499.5 			"/>
			<polygon class="st27" points="721,520 679.3,520 679.3,514.2 721.4,514.2 			"/>
			<polygon class="st27" points="669,503.1 650.2,503.1 649.5,499.5 669,499.5 			"/>
			<polygon class="st27" points="669,520 653.7,520 652.4,514.2 669,514.2 			"/>
		</g>

			<linearGradient id="SVGID_19_" gradientUnits="userSpaceOnUse" x1="59.4935" y1="477.5183" x2="145.4962" y2="477.5183" gradientTransform="matrix(-1 0 0 1 815.3882 0)">
			<stop  offset="0" style="stop-color:#FEBBBA"/>
			<stop  offset="1" style="stop-color:#FF928E"/>
		</linearGradient>
		<path class="st28" d="M674.8,471c0,0,36.8,20.8,49.3,3c2.6-3.7,3.2-7.4,2.6-10.9c11-5.6,22.3-7.2,28.5-7.6
			c1.6,8.5,0.8,17.6-4.2,26.8c-21.8,39.8-81-2.2-81-2.2L674.8,471z"/>
		<g>
			<path class="st29" d="M675.3,489l-19.6-68.4c-0.2-0.8-0.9-1.3-1.7-1.4c-3.5-0.4-13.8-1.6-25.7-2.6c-14.3-1.2-30.9-2.2-40.8-1.4
				c-1.4,0.1-2.3,1.6-1.6,2.9c5.6,11.4,28.9,57.9,40.5,73.1c0.4,0.5,1,0.8,1.6,0.8l45.5-0.4C674.7,491.6,675.7,490.3,675.3,489z"/>
			<path class="st30" d="M625.5,410.8l-13.9-2.3c-0.7-0.1-1.4,0.6-1.1,1.3l1.4,4.2c0.1,0.4,0.4,0.6,0.8,0.7l13.4,1.8
				c0.7,0.1,1.3-0.5,1.1-1.2l-0.9-3.7C626.3,411.1,625.9,410.8,625.5,410.8z"/>
			<path class="st31" d="M636,422.6l-1.1-6c-0.1-0.6-0.6-1.1-1.2-1.1l-28.2-2.9c-0.9-0.1-1.7,0.8-1.5,1.7l1.8,7.5
				c0.1,0.6,0.7,1,1.3,1.1l27.5,1.4C635.5,424.3,636.2,423.4,636,422.6z"/>

				<linearGradient id="SVGID_20_" gradientUnits="userSpaceOnUse" x1="-5873.6274" y1="469.3559" x2="-5841.0342" y2="469.3559" gradientTransform="matrix(-1 0 0 1 -5194.3984 0)">
				<stop  offset="0" style="stop-color:#FEBBBA"/>
				<stop  offset="1" style="stop-color:#FF928E"/>
			</linearGradient>
			<path class="st32" d="M673.4,484c2,0.2,3.7-1.2,4.1-3.1c0.9-4.4,2.3-12.4,1.4-16c-1.4-5-4-11.4-12.9-9.9
				c-8.9,1.4-19.4,5.2-19.4,5.2s0.5,6.5,7.3,4.4l-4.2,3.2c0,0,0.6,5.2,6.3,2.4l-3.9,4.3c0,0,2.4,4.3,6.6,1.5
				C662.5,473.5,664.5,483.1,673.4,484z"/>

				<linearGradient id="SVGID_21_" gradientUnits="userSpaceOnUse" x1="4272.814" y1="3372.1145" x2="4305.4082" y2="3372.1145" gradientTransform="matrix(0.8472 -0.5312 0.5312 0.8472 -4812.4902 -135.9744)">
				<stop  offset="0" style="stop-color:#FEBBBA"/>
				<stop  offset="1" style="stop-color:#FF928E"/>
			</linearGradient>
			<path class="st33" d="M608.4,462.2c0,0-10.3-10.1-11.8-15c-1.5-4.9-2.6-11.8,5.7-15.3c8.3-3.5,19.1-5.9,19.1-5.9s3,5.8-3.8,7.6
				l5.3,0.5c0,0,2.2,4.7-4.1,5.4l5.6,1.6c0,0,0.2,4.9-4.8,4.8C614.5,445.8,619.4,457.3,608.4,462.2z"/>
		</g>
	</g>
	<g>
		<polygon class="st31" points="311.2,148.8 156.4,71 78,153.1 83.3,153.3 157.6,74.2 308.9,151.2 		"/>
		<g>
			<polygon class="st31" points="106.1,153.7 105.8,171.5 108.9,171.5 109.3,153.8 			"/>
			<polygon class="st31" points="77.6,169.9 136,170.1 135.9,171.7 77.6,171.4 			"/>
			<g>
				<polygon class="st31" points="77.6,152.7 135.3,152.9 135.9,154.4 77.6,154.2 				"/>
			</g>

				<rect x="77.8" y="152.7" transform="matrix(-1 -1.224647e-16 1.224647e-16 -1 157.1844 324.0853)" class="st31" width="1.7" height="18.7"/>
		</g>
		<g>

				<rect x="134.4" y="424.2" transform="matrix(-1 -1.224647e-16 1.224647e-16 -1 314.6104 853.9028)" class="st31" width="45.8" height="5.5"/>

				<rect x="134.4" y="491.5" transform="matrix(-1 -1.224647e-16 1.224647e-16 -1 314.5379 986.9323)" class="st31" width="45.7" height="3.8"/>

				<rect x="134.4" y="457.6" transform="matrix(-1 -1.224647e-16 1.224647e-16 -1 314.5379 919.0438)" class="st31" width="45.7" height="3.8"/>

				<rect x="134.4" y="524.9" transform="matrix(-1 -1.224647e-16 1.224647e-16 -1 314.5379 1053.7202)" class="st31" width="45.7" height="3.8"/>

				<rect x="134.4" y="558.3" transform="matrix(-1 -1.224647e-16 1.224647e-16 -1 314.5379 1120.5081)" class="st31" width="45.7" height="3.8"/>

				<rect x="134.4" y="590.7" transform="matrix(-1 -1.224647e-16 1.224647e-16 -1 314.5379 1185.2367)" class="st31" width="45.7" height="3.8"/>

				<rect x="134.4" y="624.1" transform="matrix(-1 -1.224647e-16 1.224647e-16 -1 314.5379 1252.0247)" class="st31" width="45.7" height="3.8"/>

				<rect x="154.7" y="415.6" transform="matrix(-0.5605 0.8281 -0.8281 -0.5605 610.994 561.2744)" class="st31" width="3.7" height="54.4"/>

				<rect x="154.2" y="482.7" transform="matrix(-0.5605 0.8281 -0.8281 -0.5605 665.7427 666.4774)" class="st31" width="3.7" height="54.4"/>

				<rect x="154.7" y="549.8" transform="matrix(-0.5605 0.8281 -0.8281 -0.5605 722.1761 770.7847)" class="st31" width="3.7" height="54.4"/>

				<rect x="155.4" y="582.4" transform="matrix(0.6391 0.7691 -0.7691 0.6391 525.5721 99.017)" class="st31" width="3.7" height="54.4"/>

				<rect x="154.7" y="514.3" transform="matrix(0.6391 0.7691 -0.7691 0.6391 472.9278 74.9753)" class="st31" width="3.7" height="54.4"/>

				<rect x="154.7" y="447.5" transform="matrix(0.6391 0.7691 -0.7691 0.6391 421.5622 50.8746)" class="st31" width="3.7" height="54.4"/>

				<rect x="154.7" y="614.7" transform="matrix(-0.5605 0.8281 -0.8281 -0.5605 775.898 872.012)" class="st31" width="3.7" height="54.4"/>

				<rect x="176.2" y="424.2" transform="matrix(-1 -1.224647e-16 1.224647e-16 -1 356.2928 1079.1378)" class="st31" width="3.9" height="230.7"/>

				<rect x="131.9" y="424.4" transform="matrix(-1 -1.224647e-16 1.224647e-16 -1 267.8155 1079.5656)" class="st31" width="3.9" height="230.7"/>
		</g>
		<g>

				<rect x="134.8" y="147.9" transform="matrix(-1 -1.224647e-16 1.224647e-16 -1 315.3393 299.6508)" class="st31" width="45.7" height="3.8"/>

				<rect x="134.8" y="181.8" transform="matrix(-1 -1.224647e-16 1.224647e-16 -1 315.3393 367.3727)" class="st31" width="45.7" height="3.8"/>

				<rect x="134.8" y="215.2" transform="matrix(-1 -1.224647e-16 1.224647e-16 -1 315.3393 434.1606)" class="st31" width="45.7" height="3.8"/>

				<rect x="134.8" y="247.5" transform="matrix(-1 -1.224647e-16 1.224647e-16 -1 315.3393 498.8892)" class="st31" width="45.7" height="3.8"/>

				<rect x="134.8" y="280.9" transform="matrix(-1 -1.224647e-16 1.224647e-16 -1 315.3393 565.6771)" class="st31" width="45.7" height="3.8"/>

				<rect x="154.6" y="139.5" transform="matrix(-0.5605 0.8281 -0.8281 -0.5605 382.1713 130.6156)" class="st31" width="3.7" height="54.4"/>

				<rect x="155.1" y="206.6" transform="matrix(-0.5605 0.8281 -0.8281 -0.5605 438.605 234.9226)" class="st31" width="3.7" height="54.4"/>

				<rect x="155.8" y="239.2" transform="matrix(0.6391 0.7691 -0.7691 0.6391 261.7867 -25.1268)" class="st31" width="3.7" height="54.4"/>

				<rect x="155.1" y="171.1" transform="matrix(0.6391 0.7691 -0.7691 0.6391 209.1424 -49.1685)" class="st31" width="3.7" height="54.4"/>

				<rect x="155.1" y="271.5" transform="matrix(-0.5605 0.8281 -0.8281 -0.5605 492.3261 336.1522)" class="st31" width="3.7" height="54.4"/>

				<rect x="176.6" y="147.6" transform="matrix(-1 -1.224647e-16 1.224647e-16 -1 357.0941 459.4484)" class="st31" width="3.9" height="164.2"/>

				<rect x="132.3" y="147.8" transform="matrix(-1 -1.224647e-16 1.224647e-16 -1 268.6169 459.7528)" class="st31" width="3.9" height="164.2"/>
		</g>
		<g>
			<polygon class="st31" points="365.6,150.3 365.2,177 369.7,177 370.1,150.3 			"/>
			<polygon class="st31" points="343.3,176.8 340.8,175.6 366.1,149.5 368.6,150.7 			"/>
			<polygon class="st31" points="288.3,176.1 285.9,174.9 311.2,148.8 313.6,150 			"/>
			<polygon class="st31" points="233.4,176 230.9,174.8 256.2,148.8 258.7,150 			"/>

				<linearGradient id="SVGID_22_" gradientUnits="userSpaceOnUse" x1="-22.9906" y1="987.1823" x2="130.4459" y2="-24.5388" gradientTransform="matrix(-1 0 0 1 320.2014 0)">
				<stop  offset="0" style="stop-color:#FF928E"/>
				<stop  offset="1" style="stop-color:#FE7062"/>
			</linearGradient>
			<polygon class="st34" points="233.4,174.2 231.1,175.6 202.9,151 205.2,149.7 			"/>
			<polygon class="st31" points="289.1,174.2 286.8,175.5 257.7,150.2 261,149.6 			"/>
			<polygon class="st31" points="343.8,174.6 341.5,175.9 311.9,150.3 315.7,150 			"/>

				<linearGradient id="SVGID_23_" gradientUnits="userSpaceOnUse" x1="2.7648" y1="991.0881" x2="156.2011" y2="-20.6319" gradientTransform="matrix(-1 0 0 1 320.2014 0)">
				<stop  offset="0" style="stop-color:#FF928E"/>
				<stop  offset="1" style="stop-color:#FE7062"/>
			</linearGradient>
			<polygon class="st35" points="180.3,175.7 177.8,174.5 203.1,148.4 205.6,149.6 			"/>
			<polygon class="st31" points="180.9,173.4 180.9,175.7 369.7,176.9 369.7,174.6 			"/>
			<polygon class="st31" points="179.9,147.6 179.9,149.9 369.9,151.2 369.9,148.9 			"/>
		</g>
		<g>

				<rect x="129.8" y="309.6" transform="matrix(-1 -1.224647e-16 1.224647e-16 -1 314.5379 623.6026)" class="st31" width="54.9" height="4.4"/>

				<rect x="132.7" y="347.7" transform="matrix(-1 -1.224647e-16 1.224647e-16 -1 317.3676 699.6941)" class="st31" width="52.1" height="4.4"/>

				<rect x="132.7" y="384.5" transform="matrix(-1 -1.224647e-16 1.224647e-16 -1 317.3676 773.4394)" class="st31" width="52.1" height="4.4"/>

				<rect x="132.7" y="422.6" transform="matrix(-1 -1.224647e-16 1.224647e-16 -1 317.3676 849.5309)" class="st31" width="52.1" height="4.4"/>

				<rect x="155.8" y="338" transform="matrix(-0.5605 0.8281 -0.8281 -0.5605 551.9184 444.9932)" class="st31" width="4.2" height="62"/>
			<polygon class="st31" points="181.2,384.6 183.9,387.8 138.2,425.8 133.5,424.3 			"/>

				<rect x="153.5" y="302.3" transform="matrix(0.6391 0.7691 -0.7691 0.6391 310.1979 -0.4918)" class="st31" width="4.2" height="56.1"/>

				<rect x="180.2" y="309.6" transform="matrix(-1 -1.224647e-16 1.224647e-16 -1 364.939 736.4581)" class="st31" width="4.5" height="117.2"/>

				<rect x="129.8" y="309.7" transform="matrix(-1 -1.224647e-16 1.224647e-16 -1 264.1368 736.6755)" class="st31" width="4.5" height="117.2"/>
		</g>
		<g>
			<path class="st29" d="M120.5,339.4h74.4c0.6,0,1.1-0.5,1.1-1.1v-0.7c0-0.6-0.5-1.1-1.1-1.1h-74.4c-0.6,0-1.1,0.5-1.1,1.1v0.7
				C119.4,338.9,119.9,339.4,120.5,339.4z"/>

				<rect x="120.7" y="369.5" transform="matrix(-1 -1.224647e-16 1.224647e-16 -1 314.94 741.7793)" class="st29" width="73.6" height="2.9"/>

				<rect x="191.4" y="336.6" transform="matrix(-1 -1.224647e-16 1.224647e-16 -1 385.6803 708.3625)" class="st29" width="2.9" height="35.2"/>

				<rect x="185.3" y="336.6" transform="matrix(-1 -1.224647e-16 1.224647e-16 -1 371.9805 708.3625)" class="st29" width="1.4" height="35.2"/>

				<rect x="178.2" y="336.6" transform="matrix(-1 -1.224647e-16 1.224647e-16 -1 357.8215 708.3625)" class="st29" width="1.4" height="35.2"/>

				<rect x="171.1" y="336.6" transform="matrix(-1 -1.224647e-16 1.224647e-16 -1 343.6626 708.3625)" class="st29" width="1.4" height="35.2"/>

				<rect x="164" y="336.6" transform="matrix(-1 -1.224647e-16 1.224647e-16 -1 329.5037 708.3625)" class="st29" width="1.4" height="35.2"/>

				<rect x="156.5" y="336.6" transform="matrix(-1 -1.224647e-16 1.224647e-16 -1 314.3837 708.3625)" class="st29" width="1.4" height="35.2"/>

				<rect x="149.4" y="336.6" transform="matrix(-1 -1.224647e-16 1.224647e-16 -1 300.2248 708.3625)" class="st29" width="1.4" height="35.2"/>

				<rect x="141.4" y="336.6" transform="matrix(-1 -1.224647e-16 1.224647e-16 -1 284.2858 708.3625)" class="st29" width="1.4" height="35.2"/>

				<rect x="134.4" y="336.6" transform="matrix(-1 -1.224647e-16 1.224647e-16 -1 270.1269 708.3625)" class="st29" width="1.4" height="35.2"/>

				<rect x="127.3" y="336.6" transform="matrix(-1 -1.224647e-16 1.224647e-16 -1 256.092 708.3625)" class="st29" width="1.4" height="35.2"/>

				<rect x="120.7" y="336.6" transform="matrix(-1 -1.224647e-16 1.224647e-16 -1 244.1996 708.3625)" class="st29" width="2.9" height="35.2"/>
		</g>
		<g>

				<rect x="159.4" y="114.7" transform="matrix(-0.5605 0.8281 -0.8281 -0.5605 362.9427 79.4788)" class="st31" width="1.9" height="42.6"/>

				<rect x="158.1" y="98.1" transform="matrix(-0.5605 0.8281 -0.8281 -0.5605 341.7158 44.5303)" class="st31" width="1.9" height="29.6"/>

				<rect x="156.7" y="88.8" transform="matrix(-0.5605 0.8281 -0.8281 -0.5605 326.6765 21.5793)" class="st31" width="1.9" height="17.4"/>

				<rect x="152.1" y="111.2" transform="matrix(0.6435 0.7654 -0.7654 0.6435 156.6959 -69.5991)" class="st31" width="1.9" height="44.5"/>

				<rect x="151.6" y="97.2" transform="matrix(0.7071 0.7071 -0.7071 0.7071 125.197 -74.5161)" class="st31" width="1.9" height="33.4"/>

				<rect x="154.4" y="83" transform="matrix(0.7071 0.7071 -0.7071 0.7071 108.6598 -83.6007)" class="st31" width="1.7" height="12.8"/>
			<polygon class="st31" points="180.5,147.9 156.4,71 132.3,148.8 137.2,148.8 156.4,82 176.6,147.6 			"/>
		</g>
		<circle class="st29" cx="155.8" cy="74.4" r="5.6"/>
		<g>
			<path class="st29" d="M156.5,192.9h84.1v-15.1c0-24-19.4-43.4-43.4-43.4H172c-8.5,0-15.5,6.9-15.5,15.5V192.9z"/>
			<path class="st30" d="M192.2,192.2l-0.6-47.8c0-3.3-2.8-5.9-6.1-5.8l-18.4,0.7c-2.6,0.1-4.7,2.2-4.7,4.9v48.1H192.2z"/>
			<path class="st31" d="M166.5,173.4h20.2v-25.5c0-1.7-1.3-3.2-3.1-3.3l-11-0.7c-3.4-0.2-6.2,3.3-6.2,7.6V173.4z"/>
			<path class="st31" d="M240.7,174.7l-26,0c-2.1,0-3.9-1.7-3.9-3.8l-0.8-36.1C223,136.4,242.2,147.1,240.7,174.7z"/>
		</g>

			<rect x="123.4" y="372.3" transform="matrix(-1 -1.224647e-16 1.224647e-16 -1 314.6104 757.4216)" class="st29" width="67.9" height="12.8"/>
		<g>
			<rect x="276.4" y="178.2" class="st31" width="2" height="70.6"/>

				<rect x="253.6" y="212.2" transform="matrix(3.922775e-03 -1 1 3.922775e-03 74.9136 501.5641)" class="st31" width="71.3" height="2"/>
			<g>
				<path class="st29" d="M277.2,260.2l-2.5-13.4c-0.5-2.8,1.6-5.4,4.5-5.4h6.1c3.1,0,5.6,2.6,5.3,5.7l-1.1,13.8
					c-0.1,1.8-1.1,3.5-2.5,4.6c-2.2,1.7-5.4,5.2-6.1,11.8c-0.5,4.7,1.5,9.1,5.8,11.4c2.3,1.2,5.4,2.2,8,1.5c1.5-0.4,6.7-2.3,7-3.8
					c5.2-11.9,11.2-0.6,3.1,6.3c-2.6,2.4-6.8,4.1-10.2,4.7c-17.5,2.8-34.4-15.8-19.5-30.8C276.9,264.8,277.6,262.5,277.2,260.2z"/>

					<linearGradient id="SVGID_24_" gradientUnits="userSpaceOnUse" x1="-2847.8765" y1="243.2913" x2="-2833.4866" y2="243.2913" gradientTransform="matrix(1 0 0 1 3123.7974 0)">
					<stop  offset="0" style="stop-color:#707172"/>
					<stop  offset="1" style="stop-color:#848789"/>
				</linearGradient>
				<circle class="st36" cx="283.1" cy="243.3" r="7.2"/>

					<ellipse transform="matrix(0.2298 -0.9732 0.9732 0.2298 -18.7141 462.9363)" class="st37" cx="283.1" cy="243.3" rx="4.3" ry="4.3"/>
			</g>
			<g>

					<linearGradient id="SVGID_25_" gradientUnits="userSpaceOnUse" x1="-2848.0676" y1="176.9095" x2="-2832.5586" y2="176.9095" gradientTransform="matrix(1 0 0 1 3123.7974 0)">
					<stop  offset="0" style="stop-color:#707172"/>
					<stop  offset="1" style="stop-color:#848789"/>
				</linearGradient>
				<circle class="st38" cx="283.5" cy="176.9" r="7.8"/>
				<circle class="st37" cx="283.5" cy="176.9" r="4.6"/>
			</g>
		</g>
	</g>
	<g>
		<path class="st29" d="M413.5,718.7c0-127.1-144.7-145.2-148.9-145.8v0c0,0,0,0,0,0c0,0,0,0,0,0v0c-4.2,0.6-149.8,18.7-149.8,145.8
			c8.6,7.7,2.8,11.5,2.8,11.5h143.8h4.7h143.8C409.8,730.2,404.8,726.4,413.5,718.7z"/>
		<path class="st30" d="M108.3,728.7c0,0-4.1,36.4,145.7,36.4c162.1,0,164.9-36.4,164.9-36.4S220.2,709.7,108.3,728.7z"/>
		<path class="st31" d="M108.3,720.6c0,0-4.1,36.4,145.7,36.4c162.1,0,164.9-36.4,164.9-36.4S220.2,701.5,108.3,720.6z"/>
		<path class="st31" d="M419.5,719.5c-0.3-3.1-3.5-5.6-7-5.6c-3.5,0-6.6,2.6-6.6,5.8v0.1c0,0.4,0.1,0.8-0.3,1.1
			c-0.4,0.3-0.7,0.4-1.2,0.3c-13-1.9-89-13.3-94.1-26.1c-1.4-33.6,9.5-108.6,4.9-113.3c-4.1-4.2-17.1-6.8-25.4-7.3
			c-0.8-0.1-1.6,0.2-2.2,0.7c-0.6,0.5-1,1.2-1,1.9c-0.7,16.7-2.7,99.6-3.1,115.2c0,1.4-1.3,2.5-2.8,2.5h-1.9c-0.8,0-1.5-0.2-2-0.7
			c-0.5-0.5-0.8-1.2-0.8-1.9l4.4-123.3c0.1-3.8-2.6-7.2-6.7-8c-6.7-1.5-13.6-1.5-20.3,0l-0.1,0c-4,0.9-6.8,4.3-6.7,8.1l4.4,123.4
			c0,0.7-0.3,1.3-0.8,1.8c-0.5,0.5-1.3,0.7-2,0.7h-1.9c-1.5,0-2.8-1.1-2.8-2.5c-0.4-15.6-2.4-98.6-3.1-115.3c0-0.7-0.4-1.4-1-1.9
			c-0.6-0.5-1.4-0.7-2.2-0.7c-8.3,0.5-21.3,3.1-25.5,7.3c-4.7,4.7,6.2,79.7,4.8,113.3c-5.1,12.8-81.2,24.3-94.2,26.1
			c-0.5,0.1-0.8-0.1-1.2-0.3c-0.4-0.3-0.5-0.7-0.5-1.1v-0.1c0-3.2-2.9-5.8-6.4-5.8c-3.5,0-6.4,2.4-6.7,5.6l-1.4,14.1
			c-0.1,0.7,0.2,1.4,0.7,1.9c0.5,0.5,1.3,0.8,2.1,0.7l154.6-9.1l154.5,9.1c0.8,0,1.6-0.2,2.1-0.7c0.5-0.5,0.8-1.2,0.7-1.9
			L419.5,719.5z"/>
		<g>
			<path class="st39" d="M191.6,611.2c-12.6-2.6-25.4,10.8-32.4,18.9c-8.3,9.4-21.2,22.3-14.1,35.5c4.9,9,17.2,11.7,26.8,8.2
				c10.8-4,10.3-15,14.5-23.5c4.9-9.8,17.7-23,11.2-34.6C196.2,613.1,194,611.7,191.6,611.2z"/>
		</g>
		<g class="st40">
			<g>
				<path class="st3" d="M175.1,693.8c-43.1,0-55.1-12.3-55.7-13c-0.4-0.4-0.3-1,0.1-1.3c0.4-0.3,1.1-0.3,1.5,0.1
					c0.2,0.2,18.2,18.4,88.6,10.1c0.6-0.1,1.1,0.3,1.2,0.8c0.1,0.5-0.3,1-0.9,1.1C196.5,693.1,185,693.8,175.1,693.8z"/>
			</g>
			<g>
				<path class="st3" d="M351.9,693.8c-9.9,0-21.4-0.6-34.8-2.2c-0.6-0.1-1-0.5-0.9-1.1c0.1-0.5,0.6-0.9,1.2-0.8
					c70.7,8.4,88.4-9.9,88.6-10.1c0.4-0.4,1-0.5,1.5-0.1c0.4,0.3,0.5,0.9,0.1,1.3C407,681.4,395,693.8,351.9,693.8z"/>
			</g>
		</g>
		<path class="st41" d="M268.8,704.4c0,1.5-2.7,2.6-5.5,2.6l0,0c-2.8,0-5.5-1.2-5.5-2.6V567c0-1.5,2.7-2.6,5.5-2.6l0,0
			c2.8,0,5.5,1.2,5.5,2.6V704.4z"/>
		<g>
			<path class="st41" d="M302.5,584.6l-1.6-0.4c-1.6-0.5-3.4-0.3-4.8,0.6c-1.4,0.8-2.3,2.2-2.4,3.7L287.1,703
				c-0.1,2.2,1.8,4.2,4.4,4.5l0.1,0c1.3,0.1,2.7-0.2,3.7-1c1-0.7,1.7-1.8,1.8-3l9.2-114.1C306.5,587.3,304.9,585.3,302.5,584.6z"/>
			<path class="st41" d="M224.5,584.6l1.6-0.4c1.6-0.5,3.4-0.3,4.8,0.6c1.4,0.8,2.3,2.2,2.4,3.7l6.7,114.6c0.1,2.2-1.8,4.2-4.4,4.5
				l-0.1,0c-1.3,0.1-2.7-0.2-3.7-1s-1.7-1.8-1.8-3l-9.2-114.1C220.6,587.3,222.1,585.3,224.5,584.6z"/>
		</g>
		<path class="st29" d="M391.3,731.9c-0.4-0.9-1.5-1.6-2.9-1.7c-28.1-2.1-128.2-8.1-253.2,0.1c-1.4,0.1-2.6,0.8-3,1.7
			c-0.4,0.9,0.2,1.9,1.4,2.4c14.3,6.3,52.4,18.8,130,18.5c77.4-0.3,113.2-12.5,126.3-18.6C391.1,733.8,391.6,732.8,391.3,731.9z"/>
	</g>
</g>
</svg>
